<?xml version="1.0" standalone="no"?>
<!DOCTYPE svg PUBLIC "-//W3C//DTD SVG 1.1//EN" "http://www.w3.org/Graphics/SVG/1.1/DTD/svg11.dtd" >
<svg xmlns="http://www.w3.org/2000/svg" xmlns:xlink="http://www.w3.org/1999/xlink" version="1.1">
<metadata>
Created by FontForge 20170731 at Wed Nov 17 17:19:29 2021
 By Aleksey,,,
Copyright (c) 2016 by S-Core Co., Ltd.. All rights reserved.
</metadata>
<defs>
<font id="CoreSansC-35Light" horiz-adv-x="802" >
  <font-face 
    font-family="Core Sans C 35 Light"
    font-weight="300"
    font-stretch="normal"
    units-per-em="2048"
    panose-1="2 11 6 3 3 3 2 2 2 4"
    ascent="1638"
    descent="-410"
    x-height="1061"
    cap-height="1434"
    bbox="-770 -532 2519 1997"
    underline-thickness="49"
    underline-position="-472"
    unicode-range="U+0009-FB04"
  />
<missing-glyph horiz-adv-x="1024" 
d="M881 0h-738v1536h738v-1536zM263 114h498v1308h-498v-1308z" />
    <glyph glyph-name="ff" unicode="ff" horiz-adv-x="1454" 
d="M1406 1487v-121q-36 6 -94 6q-120 0 -175 -62t-55 -182v-67h324v-123h-324v-938h-139v938h-557v-938h-139v938h-199v123h199v69q0 365 368 365q89 0 155 -20l-28 -122q-64 19 -127 19q-229 0 -229 -244v-67h557v69q0 365 359 365q54 0 104 -8z" />
    <glyph glyph-name="fi" unicode="fi" horiz-adv-x="1276" 
d="M913 1365q0 42 29 70.5t71 28.5t70.5 -28.5t28.5 -70.5t-28.5 -70.5t-70.5 -28.5t-71 28.5t-29 70.5zM386 1128v-67h696v-1061h-139v938h-557v-938h-139v938h-199v123h199v69q0 365 364 365q51 0 109 -8v-121q-43 6 -98 6q-123 0 -179.5 -61.5t-56.5 -182.5z" />
    <glyph glyph-name="fl" unicode="fl" horiz-adv-x="1276" 
d="M710 1487v-121q-36 6 -95 6q-120 0 -174.5 -61.5t-54.5 -182.5v-67h324v-123h-324v-938h-139v938h-199v123h199v69q0 365 358 365q55 0 105 -8zM943 0v1495h139v-1495h-139z" />
    <glyph glyph-name="ffi" unicode="ffi" horiz-adv-x="1973" 
d="M1610 1365q0 42 28.5 70.5t70.5 28.5t70.5 -28.5t28.5 -70.5t-28.5 -70.5t-70.5 -28.5t-70.5 28.5t-28.5 70.5zM386 1128v-67h557v69q0 365 364 365q57 0 109 -8v-121q-38 6 -99 6q-122 0 -178.5 -62t-56.5 -182v-67h697v-1061h-140v938h-557v-938h-139v938h-557v-938
h-139v938h-199v123h199v69q0 365 368 365q89 0 155 -20l-28 -122q-64 19 -127 19q-229 0 -229 -244z" />
    <glyph glyph-name="ffl" unicode="ffl" horiz-adv-x="1973" 
d="M1406 1487v-121q-36 6 -94 6q-120 0 -175 -62t-55 -182v-67h324v-123h-324v-938h-139v938h-557v-938h-139v938h-199v123h199v69q0 365 368 365q89 0 155 -20l-28 -122q-64 19 -127 19q-229 0 -229 -244v-67h557v69q0 365 359 365q54 0 104 -8zM1639 0v1495h140v-1495
h-140z" />
    <glyph glyph-name=".notdef" horiz-adv-x="1024" 
d="M881 0h-738v1536h738v-1536zM263 114h498v1308h-498v-1308z" />
    <glyph glyph-name=".null" horiz-adv-x="0" 
 />
    <glyph glyph-name=".null" horiz-adv-x="0" 
 />
    <glyph glyph-name="nonmarkingreturn" horiz-adv-x="682" 
 />
    <glyph glyph-name="CR" unicode="&#x9;" horiz-adv-x="0" 
 />
    <glyph glyph-name="space" unicode=" " horiz-adv-x="602" 
 />
    <glyph glyph-name="exclam" unicode="!" horiz-adv-x="626" 
d="M242 393v1041h143v-1041h-143zM211 78q0 44 29.5 73t72.5 29q44 0 73.5 -29.5t29.5 -72.5q0 -44 -30 -73.5t-73 -29.5t-72.5 29.5t-29.5 73.5z" />
    <glyph glyph-name="quotedbl" unicode="&#x22;" horiz-adv-x="966" 
d="M248 854v580h139v-580h-139zM580 854v580h139v-580h-139z" />
    <glyph glyph-name="numbersign" unicode="#" horiz-adv-x="1384" 
d="M1302 929h-247l-75 -432h246v-118h-265l-65 -379h-138l64 379h-375l-64 -379h-138l64 379h-226v118h246l74 432h-244v118h265l66 387h139l-67 -387h375l67 387h138l-67 -387h227v-118zM916 929h-374l-75 -432h375z" />
    <glyph glyph-name="dollar" unicode="$" horiz-adv-x="1191" 
d="M114 205l92 99q68 -81 160.5 -136t193.5 -64v581q-204 46 -311 147.5t-107 247.5q0 160 116 265t302 112v185h113v-190q200 -26 350 -176l-86 -104q-132 126 -264 151v-530q219 -54 322.5 -158.5t103.5 -261.5q0 -160 -116 -269t-310 -126v-187h-113v186
q-133 10 -251.5 71t-194.5 157zM953 371q0 203 -280 286v-549q126 17 203 88t77 175zM288 1091q0 -188 272 -270v509q-123 -8 -197.5 -74.5t-74.5 -164.5z" />
    <glyph glyph-name="percent" unicode="%" horiz-adv-x="1835" 
d="M475 0l739 1434h146l-737 -1434h-148zM100 1094q0 144 104 249t261 105t260.5 -104.5t103.5 -249.5t-103.5 -250t-260.5 -105t-261 105t-104 250zM237 1094q0 -94 64 -165t164 -71t164 71t64 165q0 93 -64 164t-164 71t-164 -71t-64 -164zM1006 340q0 145 103.5 249.5
t260.5 104.5t261 -105t104 -249t-104 -249t-261 -105t-260.5 104.5t-103.5 249.5zM1142 340q0 -94 64 -165t164 -71t164 71t64 165q0 93 -64 164t-164 71t-164 -71t-64 -164z" />
    <glyph glyph-name="ampersand" unicode="&#x26;" horiz-adv-x="1484" 
d="M997 1211l-125 -50q-32 85 -100.5 132.5t-160.5 47.5q-99 0 -167.5 -64t-68.5 -153q0 -68 46.5 -132.5t162.5 -170.5l466 -425q81 146 102 337l136 -19q-23 -233 -135 -413l330 -301h-194l-219 198q-92 -105 -211 -164t-255 -59q-200 0 -334.5 117t-134.5 286
q0 248 285 415q-97 95 -139.5 169t-42.5 161q0 141 109 238t264 97q140 0 240.5 -66t145.5 -181zM604 98q102 0 198 49.5t171 140.5l-459 418q-240 -136 -240 -320q0 -119 95 -203.5t235 -84.5z" />
    <glyph glyph-name="quotesingle" unicode="'" horiz-adv-x="634" 
d="M248 854v580h139v-580h-139z" />
    <glyph glyph-name="parenleft" unicode="(" horiz-adv-x="841" 
d="M256 625q0 275 101.5 526.5t279.5 425.5l98 -77q-159 -166 -247.5 -396.5t-88.5 -478.5t88.5 -479t247.5 -397l-98 -77q-178 174 -279.5 426t-101.5 527z" />
    <glyph glyph-name="parenright" unicode=")" horiz-adv-x="841" 
d="M586 625q0 -275 -101.5 -527t-279.5 -426l-99 77q159 166 247.5 397t88.5 479t-88.5 478.5t-247.5 396.5l99 77q178 -174 279.5 -425.5t101.5 -526.5z" />
    <glyph glyph-name="asterisk" unicode="*" horiz-adv-x="1124" 
d="M201 959l304 -179l-3 353h121l-3 -353l304 179l60 -104l-308 -175l308 -175l-60 -105l-304 179l3 -352h-121l3 352l-304 -179l-61 105l309 175l-309 175z" />
    <glyph glyph-name="plus" unicode="+" horiz-adv-x="1163" 
d="M512 215v405h-391v120h391v405h139v-405h391v-120h-391v-405h-139z" />
    <glyph glyph-name="comma" unicode="," horiz-adv-x="602" 
d="M197 80q0 44 30 74t74 30t74.5 -30t30.5 -74q0 -20 -11 -46l-125 -280h-97l99 226q-34 9 -54.5 36t-20.5 64z" />
    <glyph glyph-name="hyphen" unicode="-" horiz-adv-x="815" 
d="M695 614h-575v131h575v-131z" />
    <glyph glyph-name="period" unicode="." horiz-adv-x="602" 
d="M197 80q0 44 30 74t74 30t74.5 -30t30.5 -74t-30.5 -74.5t-74.5 -30.5t-74 30.5t-30 74.5z" />
    <glyph glyph-name="slash" unicode="/" horiz-adv-x="926" 
d="M888 1536l-700 -1823h-149l700 1823h149z" />
    <glyph glyph-name="zero" unicode="0" horiz-adv-x="1204" 
d="M126 717q0 213 51 377.5t160 264t265 99.5q155 0 264 -99.5t160.5 -264t51.5 -377.5q0 -158 -30 -292t-88 -235t-149.5 -158t-208.5 -57t-209 57t-150 158t-87.5 234.5t-29.5 292.5zM267 717q0 -179 34.5 -314t111.5 -217t189 -82t189 82t111.5 217t34.5 314t-34.5 314
t-111.5 216.5t-189 81.5t-189 -81.5t-111.5 -216.5t-34.5 -314z" />
    <glyph glyph-name="one" unicode="1" horiz-adv-x="1204" 
d="M623 1434h131v-1434h-142v1291l-302 -170l-60 107z" />
    <glyph glyph-name="two" unicode="2" horiz-adv-x="1204" 
d="M847 649l-469 -526h647v-123h-834v118l545 607q86 95 124 176.5t38 165.5q0 116 -82.5 192t-209.5 76q-115 0 -196 -63.5t-111 -177.5l-120 51q34 139 149 226t278 87q187 0 310 -109.5t123 -280.5q0 -109 -46 -208t-146 -211z" />
    <glyph glyph-name="three" unicode="3" horiz-adv-x="1204" 
d="M892 434q0 141 -102.5 238.5t-251.5 97.5q-55 0 -102 -15l-57 72l419 482h-609v125h780v-125l-394 -447q197 0 327.5 -126.5t130.5 -312.5q0 -87 -36 -168.5t-99 -143.5t-156 -99t-200 -37q-139 0 -249 60.5t-181 170.5l97 83q57 -89 141.5 -140t187.5 -51
q149 0 251.5 97.5t102.5 238.5z" />
    <glyph glyph-name="four" unicode="4" horiz-adv-x="1204" 
d="M83 311v128l672 995h141v-994h184v-129h-184v-311h-141v311h-672zM242 439h513v762z" />
    <glyph glyph-name="five" unicode="5" horiz-adv-x="1204" 
d="M563 -25q-133 0 -245 60.5t-182 165.5l100 84q59 -88 141.5 -137.5t181.5 -49.5q149 0 248.5 96.5t99.5 241.5t-99.5 241.5t-248.5 96.5q-85 0 -154.5 -37t-107.5 -97l-98 12l86 782h710v-125h-584l-60 -504q90 90 240 90q124 0 228 -56t167 -161.5t63 -238.5
q0 -203 -136 -333.5t-350 -130.5z" />
    <glyph glyph-name="six" unicode="6" horiz-adv-x="1204" 
d="M816 1434l-375 -583q73 50 175 50q126 0 233 -59t171 -166t64 -237t-66.5 -237.5t-177 -167t-238.5 -59.5q-130 0 -241.5 59.5t-178 167t-66.5 237.5q0 134 68 243l480 752h152zM943 439q0 143 -100 242t-243 99t-243 -99t-100 -242t100 -242t243 -99t243 99t100 242z
" />
    <glyph glyph-name="seven" unicode="7" horiz-adv-x="1204" 
d="M175 1434h862v-120l-557 -1314h-159l557 1309h-703v125z" />
    <glyph glyph-name="eight" unicode="8" horiz-adv-x="1204" 
d="M602 -25q-202 0 -340.5 125.5t-138.5 308.5q0 132 79.5 235t215.5 143q-99 33 -160 119t-61 187q0 154 115.5 259.5t289.5 105.5t290 -105.5t116 -259.5q0 -101 -61.5 -186.5t-160.5 -119.5q136 -40 215.5 -143t79.5 -235q0 -183 -138.5 -308.5t-340.5 -125.5zM602 723
q-142 0 -240 -91.5t-98 -220.5t98 -221t240 -92t240 92t98 221t-98 220.5t-240 91.5zM602 842q113 0 190.5 73t77.5 175q0 103 -77.5 174t-190.5 71t-190.5 -71t-77.5 -174q0 -102 77.5 -175t190.5 -73z" />
    <glyph glyph-name="nine" unicode="9" horiz-adv-x="1204" 
d="M388 0l375 583q-74 -51 -175 -51q-126 0 -233 59t-171 166t-64 237t66.5 237.5t177 167t238.5 59.5q130 0 241.5 -59.5t178.5 -167t67 -237.5q0 -132 -69 -242l-479 -752h-153zM261 994q0 -143 100 -242t243 -99t243 99t100 242t-100 242t-243 99t-243 -99t-100 -242z
" />
    <glyph glyph-name="colon" unicode=":" horiz-adv-x="602" 
d="M197 80q0 44 30 74t74 30t74.5 -30t30.5 -74t-30.5 -74.5t-74.5 -30.5t-74 30.5t-30 74.5zM197 981q0 44 30 74t74 30t74.5 -30t30.5 -74t-30.5 -74t-74.5 -30t-74 30t-30 74z" />
    <glyph glyph-name="semicolon" unicode=";" horiz-adv-x="602" 
d="M197 981q0 44 30 74t74 30t74.5 -30t30.5 -74t-30.5 -74t-74.5 -30t-74 30t-30 74zM197 80q0 44 30 74t74 30t74.5 -30t30.5 -74q0 -22 -11 -46l-125 -280h-97l99 226q-34 9 -54.5 36t-20.5 64z" />
    <glyph glyph-name="less" unicode="&#x3c;" horiz-adv-x="1163" 
d="M1008 286v-158l-870 502v100l870 502v-159l-694 -393z" />
    <glyph glyph-name="equal" unicode="=" horiz-adv-x="1163" 
d="M1042 856h-921v121h921v-121zM1042 383h-921v121h921v-121z" />
    <glyph glyph-name="greater" unicode="&#x3e;" horiz-adv-x="1163" 
d="M1025 730v-100l-869 -502v158l693 394l-693 393v159z" />
    <glyph glyph-name="question" unicode="?" horiz-adv-x="1107" 
d="M408 403v356q194 0 308.5 84.5t114.5 216.5q0 116 -98 193.5t-248 77.5q-175 0 -321 -132l-76 105q178 154 412 154q207 0 342 -117t135 -282q0 -154 -117.5 -264t-308.5 -131v-261h-143zM381 78q0 44 29.5 73t72.5 29q44 0 73.5 -29.5t29.5 -72.5q0 -44 -30 -73.5
t-73 -29.5t-72.5 29.5t-29.5 73.5z" />
    <glyph glyph-name="at" unicode="@" horiz-adv-x="1947" 
d="M967 223q91 0 164.5 53t108.5 140v270q-35 87 -108.5 140t-164.5 53q-127 0 -213.5 -95t-86.5 -233t86.5 -233t213.5 -95zM1481 115q-77 0 -141.5 47.5t-90.5 120.5q-48 -76 -126 -122t-173 -46q-172 0 -288.5 127t-116.5 309t116.5 309t288.5 127q92 0 166 -41.5
t124 -112.5v134h120v-629q12 -52 48.5 -83.5t85.5 -31.5q107 0 181.5 108t74.5 281q0 153 -61.5 290.5t-166 235t-248 155t-302.5 57.5t-302 -61.5t-246.5 -166.5t-164.5 -251t-61 -308q0 -163 60.5 -308t165 -250t253 -166.5t316.5 -61.5q283 0 509 161l48 -102
q-258 -168 -557 -168q-193 0 -363.5 69t-291.5 187.5t-191 284.5t-70 354q0 249 119.5 455t325 323t450.5 117q189 0 355.5 -65t286 -177t188.5 -269t69 -335q0 -218 -110.5 -357.5t-279.5 -139.5z" />
    <glyph glyph-name="A" unicode="A" horiz-adv-x="1380" 
d="M1323 0h-158l-147 394h-656l-147 -394h-158l554 1434h158zM974 519l-284 754l-283 -754h567z" />
    <glyph glyph-name="B" unicode="B" horiz-adv-x="1253" 
d="M712 0h-532v1434h484q186 0 294.5 -102.5t108.5 -269.5q0 -116 -60.5 -196.5t-158.5 -109.5q128 -23 214.5 -117.5t86.5 -238.5q0 -178 -120.5 -289t-316.5 -111zM922 1056q0 116 -74.5 184.5t-194.5 68.5h-329v-505h329q121 0 195 68t74 184zM1004 404q0 125 -85 202
t-221 77h-374v-558h374q136 0 221 77t85 202z" />
    <glyph glyph-name="C" unicode="C" horiz-adv-x="1387" 
d="M828 102q222 0 406 153l77 -109q-206 -171 -483 -171q-155 0 -292.5 57.5t-236.5 156.5t-156.5 236.5t-57.5 291.5t57.5 291.5t156.5 236t236.5 156t292.5 57.5q261 0 465 -158l-73 -108q-189 139 -392 139q-123 0 -234 -48t-191 -130t-126.5 -196t-46.5 -240
q0 -169 79 -310t216.5 -223t302.5 -82z" />
    <glyph glyph-name="D" unicode="D" horiz-adv-x="1426" 
d="M180 1434h469q317 0 504.5 -196t187.5 -521t-187.5 -521t-504.5 -196h-469v1434zM649 1307h-325v-1180h325q249 0 398 157.5t149 432.5t-149 432.5t-398 157.5z" />
    <glyph glyph-name="E" unicode="E" horiz-adv-x="1144" 
d="M180 0v1434h821v-125h-677v-526h623v-125h-623v-533h696v-125h-840z" />
    <glyph glyph-name="F" unicode="F" horiz-adv-x="1067" 
d="M180 0v1434h801v-125h-657v-525h603v-125h-603v-659h-144z" />
    <glyph glyph-name="G" unicode="G" horiz-adv-x="1464" 
d="M828 1331q-123 0 -234 -48t-191 -130t-126.5 -196t-46.5 -240q0 -169 79 -310t216.5 -223t302.5 -82q96 0 189 31.5t164 87.5v390h-437v125h580v-577q-97 -86 -225 -135t-271 -49q-155 0 -292.5 57.5t-236.5 156.5t-156.5 236.5t-57.5 291.5t57.5 291.5t156.5 236
t236.5 156t292.5 57.5q261 0 465 -158l-73 -108q-189 139 -392 139z" />
    <glyph glyph-name="H" unicode="H" horiz-adv-x="1413" 
d="M180 0v1434h144v-651h766v651h143v-1434h-143v658h-766v-658h-144z" />
    <glyph glyph-name="I" unicode="I" horiz-adv-x="577" 
d="M217 1434h143v-1434h-143v1434z" />
    <glyph glyph-name="J" unicode="J" horiz-adv-x="917" 
d="M609 427v1007h144v-1007q0 -227 -106 -339.5t-307 -112.5q-72 0 -149 19t-134 51l47 123q48 -29 112.5 -47.5t119.5 -18.5q132 0 202.5 81t70.5 244z" />
    <glyph glyph-name="K" unicode="K" horiz-adv-x="1215" 
d="M324 1434v-651h159l469 651h166l-512 -711l594 -723h-170l-543 658h-163v-658h-144v1434h144z" />
    <glyph glyph-name="L" unicode="L" horiz-adv-x="1054" 
d="M180 0v1434h144v-1309h675v-125h-819z" />
    <glyph glyph-name="M" unicode="M" horiz-adv-x="1724" 
d="M909 469h-94l-496 724v-1193h-139v1434h134l548 -804l548 804h134v-1434h-139v1193z" />
    <glyph glyph-name="N" unicode="N" horiz-adv-x="1423" 
d="M180 0v1434h137l787 -1184v1184h139v-1434h-137l-787 1184v-1184h-139z" />
    <glyph glyph-name="O" unicode="O" horiz-adv-x="1656" 
d="M828 102q165 0 302.5 82t216.5 223t79 310q0 126 -46.5 240t-126.5 196t-191 130t-234 48t-234 -48t-191 -130t-126.5 -196t-46.5 -240q0 -169 79 -310t216.5 -223t302.5 -82zM828 1458q206 0 377 -97.5t269 -267.5t98 -376q0 -154 -58 -292t-156.5 -236.5t-236.5 -156
t-293 -57.5t-292.5 57.5t-236.5 156.5t-156.5 236.5t-57.5 291.5t57.5 291.5t156.5 236t236.5 156t292.5 57.5z" />
    <glyph glyph-name="P" unicode="P" horiz-adv-x="1181" 
d="M613 561h-289v-561h-144v1434h433q223 0 356.5 -119.5t133.5 -317.5t-133.5 -317t-356.5 -119zM957 997q0 142 -94 227t-255 85h-284v-623h284q161 0 255 84.5t94 226.5z" />
    <glyph glyph-name="Q" unicode="Q" horiz-adv-x="1656" 
d="M85 717q0 154 57.5 291.5t156.5 236t236.5 156t292.5 57.5q206 0 377 -97.5t269 -267.5t98 -376q0 -157 -58.5 -294.5t-163.5 -239.5l208 -223l-94 -86l-213 229q-190 -128 -423 -128q-155 0 -292.5 57.5t-236.5 156.5t-156.5 236.5t-57.5 291.5zM230 717q0 -169 79 -310
t216.5 -223t302.5 -82q178 0 330 102l-282 304l93 86l285 -308q81 84 126.5 195.5t45.5 235.5q0 126 -46.5 240t-126.5 196t-191 130t-234 48t-234 -48t-191 -130t-126.5 -196t-46.5 -240z" />
    <glyph glyph-name="R" unicode="R" horiz-adv-x="1215" 
d="M567 561h-243v-561h-144v1434h433q223 0 356.5 -119.5t133.5 -317.5q0 -171 -102.5 -285t-278.5 -142l404 -570h-159zM957 997q0 142 -94 227t-255 85h-284v-623h284q161 0 255 84.5t94 226.5z" />
    <glyph glyph-name="S" unicode="S" horiz-adv-x="1191" 
d="M114 205l92 99q74 -89 177.5 -145.5t215.5 -56.5q155 0 254.5 75t99.5 194q0 233 -368 309q-216 45 -329.5 147.5t-113.5 252.5q0 166 123.5 272t319.5 106q256 0 438 -182l-86 -104q-164 159 -344 159q-135 0 -220 -68t-85 -172q0 -213 355 -291q234 -52 345 -158.5
t111 -268.5q0 -174 -135.5 -286t-357.5 -112q-146 0 -276.5 63t-215.5 167z" />
    <glyph glyph-name="T" unicode="T" horiz-adv-x="1112" 
d="M484 0v1309h-418v125h981v-125h-419v-1309h-144z" />
    <glyph glyph-name="U" unicode="U" horiz-adv-x="1349" 
d="M1185 1434v-940q0 -153 -66.5 -271.5t-182.5 -182t-261 -63.5t-261 63.5t-182.5 182t-66.5 271.5v940h143v-955q0 -166 103.5 -270.5t263.5 -104.5q159 0 262.5 104.5t103.5 270.5v955h144z" />
    <glyph glyph-name="V" unicode="V" horiz-adv-x="1376" 
d="M211 1434l477 -1253l477 1253h156l-554 -1434h-158l-554 1434h156z" />
    <glyph glyph-name="W" unicode="W" horiz-adv-x="1953" 
d="M903 1434h148l354 -1225l342 1225h151l-415 -1434h-148l-358 1236l-359 -1236h-147l-416 1434h152l342 -1225z" />
    <glyph glyph-name="X" unicode="X" horiz-adv-x="1277" 
d="M209 0h-160l504 729l-485 705h159l412 -598l412 598h159l-485 -705l504 -729h-160l-430 623z" />
    <glyph glyph-name="Y" unicode="Y" horiz-adv-x="1310" 
d="M213 1434l442 -705l443 705h157l-528 -846v-588h-143v588l-529 846h158z" />
    <glyph glyph-name="Z" unicode="Z" horiz-adv-x="1217" 
d="M125 125l786 1184h-755v125h925v-125l-786 -1184h807v-125h-977v125z" />
    <glyph glyph-name="bracketleft" unicode="[" horiz-adv-x="841" 
d="M246 -287v1823h534v-125h-391v-1573h391v-125h-534z" />
    <glyph glyph-name="backslash" unicode="\" horiz-adv-x="926" 
d="M737 -287l-698 1823h147l702 -1823h-151z" />
    <glyph glyph-name="bracketright" unicode="]" horiz-adv-x="841" 
d="M596 1536v-1823h-535v125h392v1573h-392v125h535z" />
    <glyph glyph-name="asciicircum" unicode="^" horiz-adv-x="1245" 
d="M549 1434h147l428 -637h-159l-342 510l-342 -510h-160z" />
    <glyph glyph-name="underscore" unicode="_" horiz-adv-x="1024" 
d="M0 -334v111h1024v-111h-1024z" />
    <glyph glyph-name="grave" unicode="`" horiz-adv-x="843" 
d="M292 1495l283 -340h-142l-288 340h147z" />
    <glyph glyph-name="a" unicode="a" horiz-adv-x="1312" 
d="M643 100q122 0 221.5 63t153.5 168v397q-54 105 -153.5 169t-221.5 64q-178 0 -300 -127t-122 -304t122 -303.5t300 -126.5zM623 1085q119 0 221 -48t174 -136v160h139v-1061h-139v160q-72 -88 -174 -136.5t-221 -48.5q-153 0 -278.5 76t-195 203t-69.5 276t69.5 276
t195 203t278.5 76z" />
    <glyph glyph-name="b" unicode="b" horiz-adv-x="1312" 
d="M670 100q178 0 300 126.5t122 303.5t-122 304t-300 127q-122 0 -221.5 -64t-153.5 -169v-397q54 -105 153.5 -168t221.5 -63zM690 1085q153 0 278.5 -76t195 -203t69.5 -276t-69.5 -276t-195 -203t-278.5 -76q-119 0 -221 48.5t-174 136.5v-160h-139v1495h139v-594
q72 88 174 136t221 48z" />
    <glyph glyph-name="c" unicode="c" horiz-adv-x="1118" 
d="M643 -25q-159 0 -289 75.5t-202 202.5t-72 277t72 277t202 202.5t289 75.5q223 0 383 -144l-73 -111q-140 131 -310 131q-178 0 -300 -127t-122 -304t122 -303.5t300 -126.5q183 0 320 142l83 -103q-77 -78 -180.5 -121t-222.5 -43z" />
    <glyph glyph-name="d" unicode="d" horiz-adv-x="1312" 
d="M643 100q122 0 221.5 63t153.5 168v397q-54 105 -153.5 169t-221.5 64q-178 0 -300 -127t-122 -304t122 -303.5t300 -126.5zM623 1085q119 0 221 -48t174 -136v594h139v-1495h-139v160q-72 -88 -174 -136.5t-221 -48.5q-153 0 -278.5 76t-195 203t-69.5 276t69.5 276
t195 203t278.5 76z" />
    <glyph glyph-name="e" unicode="e" horiz-adv-x="1241" 
d="M222 489q11 -166 129 -279.5t291 -113.5q103 0 194 44.5t159 123.5l97 -89q-80 -95 -196 -147.5t-251 -52.5q-164 0 -294.5 75t-200.5 201.5t-70 278.5q0 151 71 278t198 202t282 75q229 0 379.5 -153.5t150.5 -374.5q0 -37 -7 -68h-932zM631 965q-152 0 -266.5 -104
t-137.5 -255h789q-17 156 -124 257.5t-261 101.5z" />
    <glyph glyph-name="f" unicode="f" horiz-adv-x="757" 
d="M710 1487v-121q-36 6 -95 6q-120 0 -174.5 -61.5t-54.5 -182.5v-67h324v-123h-324v-938h-139v938h-199v123h199v69q0 365 358 365q55 0 105 -8z" />
    <glyph glyph-name="g" unicode="g" horiz-adv-x="1312" 
d="M1018 3v157q-72 -88 -174 -136.5t-221 -48.5q-153 0 -278.5 76t-195 203t-69.5 276t69.5 276t195 203t278.5 76q119 0 221 -48t174 -136v160h139v-1050q0 -220 -137 -353t-376 -133q-143 0 -262.5 56.5t-205.5 153.5l92 92q157 -181 375 -181q168 0 271.5 97.5
t103.5 259.5zM643 100q122 0 221.5 63t153.5 168v397q-54 105 -153.5 169t-221.5 64q-178 0 -300 -127t-122 -304t122 -303.5t300 -126.5z" />
    <glyph glyph-name="h" unicode="h" horiz-adv-x="1223" 
d="M295 703v-703h-139v1495h139v-636q65 98 158 162t214 64q184 0 302 -119t118 -304v-662h-139v653q0 132 -86.5 220t-219.5 88q-110 0 -197 -73t-150 -185z" />
    <glyph glyph-name="i" unicode="i" horiz-adv-x="528" 
d="M195 0v1061h139v-1061h-139zM165 1365q0 42 28.5 70.5t70.5 28.5t71 -28.5t29 -70.5t-29 -70.5t-71 -28.5t-70.5 28.5t-28.5 70.5z" />
    <glyph glyph-name="j" unicode="j" horiz-adv-x="528" 
d="M165 1365q0 42 28.5 70.5t70.5 28.5t71 -28.5t29 -70.5t-29 -70.5t-71 -28.5t-70.5 28.5t-28.5 70.5zM195 -170v1231h139v-1229q0 -307 -283 -307q-32 0 -78 4v121q34 -2 64 -2q158 0 158 182z" />
    <glyph glyph-name="k" unicode="k" horiz-adv-x="1042" 
d="M862 0l-405 529h-162v-529h-139v1495h139v-845h164l344 411h168l-396 -471l451 -590h-164z" />
    <glyph glyph-name="l" unicode="l" horiz-adv-x="528" 
d="M195 0v1495h139v-1495h-139z" />
    <glyph glyph-name="m" unicode="m" horiz-adv-x="1901" 
d="M295 710v-710h-139v1061h139v-194q59 93 144.5 155.5t197.5 62.5q127 0 221.5 -67t135.5 -178q64 111 160.5 178t217.5 67q173 0 283 -116.5t110 -294.5v-674h-139v666q0 126 -76 210.5t-197 84.5q-100 0 -182 -71t-142 -183q1 -11 1 -33v-674h-139v666q0 125 -76 210
t-198 85q-185 0 -322 -251z" />
    <glyph glyph-name="n" unicode="n" horiz-adv-x="1223" 
d="M295 703v-703h-139v1061h139v-202q65 98 158 162t214 64q184 0 302 -119t118 -304v-662h-139v653q0 132 -86.5 220t-219.5 88q-110 0 -197 -73t-150 -185z" />
    <glyph glyph-name="o" unicode="o" horiz-adv-x="1286" 
d="M643 100q178 0 300 126.5t122 303.5t-122 304t-300 127t-300 -127t-122 -304t122 -303.5t300 -126.5zM643 1085q159 0 289 -75.5t202 -202.5t72 -277t-72 -277t-202 -202.5t-289 -75.5t-289 75.5t-202 202.5t-72 277t72 277t202 202.5t289 75.5z" />
    <glyph glyph-name="p" unicode="p" horiz-adv-x="1312" 
d="M670 100q178 0 300 126.5t122 303.5t-122 304t-300 127q-122 0 -221.5 -64t-153.5 -169v-397q54 -105 153.5 -168t221.5 -63zM690 1085q153 0 278.5 -76t195 -203t69.5 -276t-69.5 -276t-195 -203t-278.5 -76q-119 0 -221 48.5t-174 136.5v-635h-139v1536h139v-160
q72 88 174 136t221 48z" />
    <glyph glyph-name="q" unicode="q" horiz-adv-x="1312" 
d="M643 100q122 0 221.5 63t153.5 168v397q-54 105 -153.5 169t-221.5 64q-178 0 -300 -127t-122 -304t122 -303.5t300 -126.5zM623 1085q119 0 221 -48t174 -136v160h139v-1536h-139v635q-72 -88 -174 -136.5t-221 -48.5q-153 0 -278.5 76t-195 203t-69.5 276t69.5 276
t195 203t278.5 76z" />
    <glyph glyph-name="r" unicode="r" horiz-adv-x="793" 
d="M626 961q-92 0 -180.5 -78.5t-150.5 -200.5v-682h-139v1061h139v-213q68 103 157 170t191 67q54 0 102 -20l-12 -125q-57 21 -107 21z" />
    <glyph glyph-name="s" unicode="s" horiz-adv-x="945" 
d="M79 152l79 96q57 -70 139 -111t177 -41q115 0 183.5 51.5t68.5 135.5q0 159 -268 210q-171 33 -257.5 110.5t-86.5 194.5q0 123 99 205t258 82q202 0 346 -139l-76 -96q-125 115 -261 115q-97 0 -162 -48.5t-65 -120.5q0 -67 64 -117t186 -74q362 -70 362 -324
q0 -134 -103 -220t-280 -86q-126 0 -230 47.5t-173 129.5z" />
    <glyph glyph-name="t" unicode="t" horiz-adv-x="773" 
d="M394 938v-612q0 -115 54 -171.5t172 -56.5q56 0 98 6v-120q-54 -9 -109 -9q-180 0 -267 87t-87 263v613h-207v123h207v295l139 12v-307h312v-123h-312z" />
    <glyph glyph-name="u" unicode="u" horiz-adv-x="1223" 
d="M929 357v704h139v-1061h-139v202q-65 -98 -158 -162.5t-214 -64.5q-184 0 -302.5 119.5t-118.5 304.5v662h139v-653q0 -131 87 -219.5t220 -88.5q202 0 347 257z" />
    <glyph glyph-name="v" unicode="v" horiz-adv-x="1058" 
d="M1024 1061l-423 -1061h-143l-423 1061h147l347 -877l348 877h147z" />
    <glyph glyph-name="w" unicode="w" horiz-adv-x="1581" 
d="M719 1061h143l263 -866l274 866h147l-348 -1061h-143l-264 869l-265 -869h-143l-348 1061h147l274 -866z" />
    <glyph glyph-name="x" unicode="x" horiz-adv-x="1058" 
d="M193 0h-158l406 544l-380 517h158l310 -422l311 422h157l-380 -517l407 -544h-158l-337 447z" />
    <glyph glyph-name="y" unicode="y" horiz-adv-x="1069" 
d="M269 -475l196 484l-430 1052h147l355 -874l350 874h147l-617 -1536h-148z" />
    <glyph glyph-name="z" unicode="z" horiz-adv-x="1026" 
d="M103 0v123l626 815h-599v123h768v-123l-626 -815h647v-123h-816z" />
    <glyph glyph-name="braceleft" unicode="{" horiz-adv-x="841" 
d="M158 562v125q98 0 157.5 56t59.5 148v334q0 132 92.5 221.5t230.5 89.5h90v-125h-81q-82 0 -135.5 -55.5t-53.5 -138.5v-345q0 -96 -48.5 -159t-137.5 -88q89 -25 137.5 -88t48.5 -160v-344q0 -84 53.5 -139.5t135.5 -55.5h81v-125h-90q-138 0 -230.5 90t-92.5 222v333
q0 92 -59.5 148t-157.5 56z" />
    <glyph glyph-name="bar" unicode="|" horiz-adv-x="657" 
d="M262 -287v1823h133v-1823h-133z" />
    <glyph glyph-name="braceright" unicode="}" horiz-adv-x="841" 
d="M684 687v-125q-98 0 -157.5 -56t-59.5 -148v-333q0 -132 -93 -222t-231 -90h-90v125h82q82 0 135.5 55.5t53.5 139.5v344q0 97 48.5 160t137.5 88q-89 25 -137.5 88t-48.5 159v345q0 83 -53.5 138.5t-135.5 55.5h-82v125h90q138 0 231 -89.5t93 -221.5v-334
q0 -92 59.5 -148t157.5 -56z" />
    <glyph glyph-name="asciitilde" unicode="~" horiz-adv-x="1163" 
d="M553 611q-38 37 -60.5 57t-61.5 41.5t-72 21.5q-130 0 -164 -203l-129 33q23 141 94.5 218t187.5 77q134 0 262 -126q38 -38 60.5 -57.5t61.5 -41t72 -21.5q131 0 165 203l129 -33q-23 -141 -95 -218t-188 -77q-134 0 -262 126z" />
    <glyph glyph-name="uni00A0" unicode="&#xa0;" horiz-adv-x="602" 
 />
    <glyph glyph-name="exclamdown" unicode="&#xa1;" horiz-adv-x="626" 
d="M242 -373v1041h143v-1041h-143zM211 983q0 43 29.5 72.5t72.5 29.5q44 0 73.5 -29.5t29.5 -72.5t-29.5 -72.5t-73.5 -29.5q-43 0 -72.5 29.5t-29.5 72.5z" />
    <glyph glyph-name="cent" unicode="&#xa2;" horiz-adv-x="1118" 
d="M691 1249v-166q191 -14 335 -142l-73 -111q-118 110 -262 127v-855q154 17 272 140l83 -103q-144 -146 -355 -162v-165h-116v168q-216 24 -355.5 180.5t-139.5 369.5t139.5 370t355.5 181v168h116zM221 530q0 -159 100 -279.5t254 -145.5v850q-154 -25 -254 -145.5
t-100 -279.5z" />
    <glyph glyph-name="sterling" unicode="&#xa3;" horiz-adv-x="1164" 
d="M146 592v118h145q-3 7 -10.5 22.5t-9.5 21.5q-77 161 -77 293q0 173 123 292t303 119q143 0 249.5 -75.5t148.5 -187.5l-122 -63q-35 92 -106.5 145.5t-169.5 53.5q-119 0 -200 -82t-81 -202q0 -91 72 -262q20 -48 29 -75h415v-118h-388q19 -76 19 -119
q0 -101 -44 -190.5t-118 -155.5h724v-127h-895v124q87 66 137.5 157.5t50.5 191.5q0 46 -20 119h-175z" />
    <glyph glyph-name="currency" unicode="&#xa4;" horiz-adv-x="1267" 
d="M178 668q0 152 94 270l-192 194l90 90l199 -197q119 85 265 85q144 0 265 -85l199 197l90 -90l-193 -194q95 -121 95 -270q0 -151 -95 -272l193 -192l-90 -90l-199 196q-116 -85 -265 -85q-150 0 -265 85l-199 -196l-90 90l192 192q-94 118 -94 272zM315 668
q0 -134 92.5 -228t226.5 -94q133 0 225.5 94t92.5 228t-92.5 227.5t-225.5 93.5q-134 0 -226.5 -93.5t-92.5 -227.5z" />
    <glyph glyph-name="yen" unicode="&#xa5;" horiz-adv-x="1310" 
d="M1126 383h-399v-383h-143v383h-400v98h400v107l-15 22h-385v99h324l-453 725h158l442 -705l443 705h157l-453 -725h324v-99h-386l-13 -22v-107h399v-98z" />
    <glyph glyph-name="brokenbar" unicode="&#xa6;" horiz-adv-x="657" 
d="M262 717v819h133v-819h-133zM262 -287v819h133v-819h-133z" />
    <glyph glyph-name="section" unicode="&#xa7;" horiz-adv-x="1021" 
d="M950 526q0 -96 -63 -171t-168 -107q149 -95 149 -244q0 -132 -105.5 -221.5t-262.5 -89.5q-135 0 -236 69t-128 184l128 29q19 -76 83.5 -119.5t152.5 -43.5q99 0 166 55t67 137q0 114 -144 176l-246 107q-132 57 -201.5 144.5t-69.5 192.5q0 96 62.5 170.5t167.5 107.5
q-148 94 -148 245q0 132 105.5 221.5t262.5 89.5q135 0 236 -69t127 -184l-128 -29q-18 75 -82.5 119t-152.5 44q-99 0 -166 -55t-67 -137q0 -115 144 -177l246 -106q132 -57 201.5 -144.5t69.5 -193.5zM616 758l-172 72q-101 -4 -169 -62.5t-68 -143.5q0 -71 51 -131
t146 -100l173 -74q101 4 169.5 63t68.5 144q0 71 -51.5 131.5t-147.5 100.5z" />
    <glyph glyph-name="dieresis" unicode="&#xa8;" horiz-adv-x="843" 
d="M147 1323q0 40 28 68t69 28q40 0 68 -27.5t28 -68.5t-28 -68.5t-68 -27.5q-41 0 -69 28t-28 68zM504 1323q0 41 28 68.5t68 27.5t68 -27.5t28 -68.5t-28 -68.5t-68 -27.5t-68 27.5t-28 68.5z" />
    <glyph glyph-name="copyright" unicode="&#xa9;" horiz-adv-x="1634" 
d="M853 420q116 0 217 84l48 -94q-116 -97 -265 -97q-170 0 -286.5 116.5t-116.5 285.5t116.5 285t286.5 116q140 0 256 -89l-46 -93q-103 76 -210 76q-121 0 -204 -86t-83 -209t83 -209t204 -86zM76 717q0 153 58 290t157 236t236 157t290 58t290.5 -58t236.5 -157
t157 -236t58 -290t-58 -290.5t-157 -236.5t-236.5 -157t-290.5 -58t-290 58t-236 157t-157 236.5t-58 290.5zM166 717q0 -181 86.5 -332t236.5 -238.5t328 -87.5q179 0 329 87.5t236 238.5t86 332q0 135 -51 257t-137.5 209.5t-207.5 139t-255 51.5q-133 0 -254 -51.5
t-208 -139t-138 -209.5t-51 -257z" />
    <glyph glyph-name="ordfeminine" unicode="&#xaa;" horiz-adv-x="923" 
d="M450 672q-160 0 -269.5 112.5t-109.5 276.5t109.5 276.5t269.5 112.5q76 0 141 -30.5t108 -85.5v100h124v-746h-124v99q-43 -55 -108 -85t-141 -30zM699 922v277q-35 62 -97 99.5t-138 37.5q-114 0 -191.5 -79.5t-77.5 -195.5t77.5 -196t191.5 -80q76 0 138 38t97 99z
" />
    <glyph glyph-name="guillemotleft" unicode="&#xab;" horiz-adv-x="1288" 
d="M109 602v74l550 352v-131l-408 -258l408 -258v-131zM610 602v74l551 352v-131l-408 -258l408 -258v-131z" />
    <glyph glyph-name="logicalnot" unicode="&#xac;" horiz-adv-x="1163" 
d="M903 246v374h-782v120h921v-494h-139z" />
    <glyph glyph-name="uni00AD" unicode="&#xad;" horiz-adv-x="815" 
d="M695 614h-575v131h575v-131z" />
    <glyph glyph-name="registered" unicode="&#xae;" horiz-adv-x="1634" 
d="M76 717q0 153 58 290t157 236t236 157t290 58t290.5 -58t236.5 -157t157 -236t58 -290t-58 -290.5t-157 -236.5t-236.5 -157t-290.5 -58t-290 58t-236 157t-157 236.5t-58 290.5zM166 717q0 -181 86.5 -332t236.5 -238.5t328 -87.5q179 0 329 87.5t236 238.5t86 332
q0 135 -51 257t-137.5 209.5t-207.5 139t-255 51.5q-133 0 -254 -51.5t-208 -139t-138 -209.5t-51 -257zM694 620v-293h-110v777h255q119 0 194.5 -67.5t75.5 -174.5q0 -87 -51.5 -148.5t-138.5 -82.5l207 -304h-122l-200 293h-110zM998 858q0 64 -46.5 103.5t-121.5 39.5
h-136v-287h136q75 0 121.5 40t46.5 104z" />
    <glyph glyph-name="macron" unicode="&#xaf;" horiz-adv-x="843" 
d="M135 1265v110h574v-110h-574z" />
    <glyph glyph-name="degree" unicode="&#xb0;" 
d="M232 1182q0 -71 49 -121t120 -50t120 50t49 121t-49 121t-120 50t-120 -50t-49 -121zM125 1182q0 114 79.5 192.5t196.5 78.5q116 0 196.5 -78.5t80.5 -192.5q0 -115 -80.5 -193.5t-196.5 -78.5q-117 0 -196.5 78.5t-79.5 193.5z" />
    <glyph glyph-name="plusminus" unicode="&#xb1;" horiz-adv-x="1163" 
d="M512 297v399h-391v121h391v400h139v-400h391v-121h-391v-399h-139zM1042 0h-921v121h921v-121z" />
    <glyph glyph-name="twosuperior" unicode="&#xb2;" 
d="M563 900l-299 -333h422v-104h-590v93l370 409q104 115 104 222q0 71 -51.5 119t-129.5 48q-72 0 -122 -43t-71 -123l-110 42q24 104 106 166t197 62q132 0 219.5 -76.5t87.5 -194.5q0 -74 -32 -142.5t-101 -144.5z" />
    <glyph glyph-name="threesuperior" unicode="&#xb3;" 
d="M586 756q0 89 -64.5 150.5t-156.5 61.5q-35 0 -76 -13l-49 62l272 311h-396v106h552v-97l-253 -283q126 -11 211.5 -96.5t85.5 -209.5q0 -126 -97 -218t-247 -92q-98 0 -176.5 44.5t-129.5 122.5l85 75q87 -137 218 -137q93 0 157 61.5t64 151.5z" />
    <glyph glyph-name="acute" unicode="&#xb4;" horiz-adv-x="843" 
d="M268 1155l284 340h146l-287 -340h-143z" />
    <glyph glyph-name="mu" unicode="&#xb5;" horiz-adv-x="1243" 
d="M156 -475v1536h139v-735q36 -98 120.5 -162t184.5 -64q103 0 194 70.5t154 178.5v712h139v-1061h-139v191q-63 -93 -156.5 -154.5t-203.5 -61.5q-91 0 -169.5 48.5t-123.5 119.5v-618h-139z" />
    <glyph glyph-name="paragraph" unicode="&#xb6;" horiz-adv-x="1175" 
d="M617 549h-66q-192 0 -323.5 127.5t-131.5 314.5t131.5 315t323.5 128h438v-1702h-108v1600h-155v-1600h-109v817z" />
    <glyph glyph-name="periodcentered" unicode="&#xb7;" horiz-adv-x="602" 
d="M197 672q0 44 30 74t74 30t74.5 -30t30.5 -74t-30.5 -74.5t-74.5 -30.5t-74 30.5t-30 74.5z" />
    <glyph glyph-name="cedilla" unicode="&#xb8;" horiz-adv-x="843" 
d="M373 -206q-33 0 -58 -5l-26 31l101 180h112l-80 -129q92 -10 148.5 -67t56.5 -132q0 -87 -71.5 -145.5t-176.5 -58.5q-104 0 -176 58l50 74q47 -42 120 -42q61 0 101.5 33t40.5 83t-40.5 85t-101.5 35z" />
    <glyph glyph-name="onesuperior" unicode="&#xb9;" 
d="M420 1434h107v-971h-126v842l-195 -109l-50 93z" />
    <glyph glyph-name="ordmasculine" unicode="&#xba;" horiz-adv-x="923" 
d="M68 1061q0 163 114.5 276t279.5 113q164 0 279 -113t115 -276t-115 -276t-279 -113q-165 0 -279.5 113t-114.5 276zM194 1061q0 -117 77 -196.5t191 -79.5q113 0 190.5 79.5t77.5 196.5t-77.5 196t-190.5 79q-114 0 -191 -79t-77 -196z" />
    <glyph glyph-name="guillemotright" unicode="&#xbb;" horiz-adv-x="1288" 
d="M1180 676v-74l-551 -352v131l408 258l-408 258v131zM678 676v-74l-551 -352v131l409 258l-409 258v131z" />
    <glyph glyph-name="onequarter" unicode="&#xbc;" horiz-adv-x="1937" 
d="M556 0l700 1434h125l-699 -1434h-126zM420 1434h107v-971h-126v842l-195 -109l-50 93zM1178 206v98l456 667h119v-657h124v-108h-124v-206h-125v206h-450zM1319 313h309v458z" />
    <glyph glyph-name="onehalf" unicode="&#xbd;" horiz-adv-x="1937" 
d="M420 1434h107v-971h-126v842l-195 -109l-50 93zM556 0l700 1434h125l-699 -1434h-126zM1698 437l-299 -333h422v-104h-590v93l370 409q104 115 104 222q0 71 -51.5 119t-129.5 48q-72 0 -122.5 -43t-71.5 -123l-109 42q24 104 106 166t197 62q132 0 219.5 -76.5
t87.5 -194.5q0 -74 -32 -142.5t-101 -144.5z" />
    <glyph glyph-name="threequarters" unicode="&#xbe;" horiz-adv-x="1937" 
d="M586 756q0 89 -64.5 150.5t-156.5 61.5q-35 0 -76 -13l-49 62l272 311h-396v106h552v-97l-253 -283q126 -11 211.5 -96.5t85.5 -209.5q0 -126 -97 -218t-247 -92q-98 0 -176.5 44.5t-129.5 122.5l85 75q87 -137 218 -137q93 0 157 61.5t64 151.5zM556 0l700 1434h125
l-699 -1434h-126zM1178 206v98l456 667h119v-657h124v-108h-124v-206h-125v206h-450zM1319 313h309v458z" />
    <glyph glyph-name="questiondown" unicode="&#xbf;" horiz-adv-x="1107" 
d="M700 657v-355q-194 0 -309 -84.5t-115 -216.5q0 -115 98.5 -193t248.5 -78q172 0 321 131l76 -105q-178 -153 -412 -153q-207 0 -342 117t-135 282q0 154 117.5 264t308.5 131v260h143zM727 983q0 -43 -29.5 -72.5t-72.5 -29.5q-44 0 -73.5 29.5t-29.5 72.5t29.5 72.5
t73.5 29.5q43 0 72.5 -29.5t29.5 -72.5z" />
    <glyph glyph-name="Agrave" unicode="&#xc0;" horiz-adv-x="1380" 
d="M1323 0h-158l-147 394h-656l-147 -394h-158l554 1434h158zM974 519l-284 754l-283 -754h567zM542 1889l283 -340h-142l-288 340h147z" />
    <glyph glyph-name="Aacute" unicode="&#xc1;" horiz-adv-x="1380" 
d="M1323 0h-158l-147 394h-656l-147 -394h-158l554 1434h158zM974 519l-284 754l-283 -754h567zM551 1549l284 340h146l-288 -340h-142z" />
    <glyph glyph-name="Acircumflex" unicode="&#xc2;" horiz-adv-x="1380" 
d="M1323 0h-158l-147 394h-656l-147 -394h-158l554 1434h158zM974 519l-284 754l-283 -754h567zM739 1889l299 -340h-141l-207 234l-207 -234h-141l299 340h98z" />
    <glyph glyph-name="Atilde" unicode="&#xc3;" horiz-adv-x="1380" 
d="M1323 0h-158l-147 394h-656l-147 -394h-158l554 1434h158zM974 519l-284 754l-283 -754h567zM540 1824q83 0 166 -78q29 -28 42 -39t35 -23t42 -12q63 0 87 125l116 -22q-45 -213 -187 -213q-84 0 -166 77q-28 27 -42 39t-36 23.5t-42 11.5q-63 0 -87 -125l-116 23
q45 213 188 213z" />
    <glyph glyph-name="Adieresis" unicode="&#xc4;" horiz-adv-x="1380" 
d="M1323 0h-158l-147 394h-656l-147 -394h-158l554 1434h158zM974 519l-284 754l-283 -754h567zM416 1704q0 40 28 68t68 28t68 -28t28 -68t-28 -68t-68 -28t-68 28t-28 68zM772 1704q0 40 28 68t68 28q41 0 69 -28t28 -68t-28 -68t-69 -28q-40 0 -68 28t-28 68z" />
    <glyph glyph-name="Aring" unicode="&#xc5;" horiz-adv-x="1380" 
d="M1323 0h-158l-147 394h-656l-147 -394h-158l554 1434h158zM974 519l-284 754l-283 -754h567zM578 1726q0 -47 32.5 -79t79.5 -32t80 32t33 79t-33 79.5t-80 32.5t-79.5 -32.5t-32.5 -79.5zM481 1726q0 84 60 141t149 57t149 -57t60 -141t-60 -140.5t-149 -56.5t-149 56.5
t-60 140.5z" />
    <glyph glyph-name="AE" unicode="&#xc6;" horiz-adv-x="1887" 
d="M202 0h-165l836 1434h871v-125h-663v-526h609v-125h-609v-533h681v-125h-824v394h-509zM500 519h438v756z" />
    <glyph glyph-name="Ccedilla" unicode="&#xc7;" horiz-adv-x="1387" 
d="M770 -206q-32 0 -57 -5l-27 31l88 157q-145 10 -272.5 71t-219 158.5t-144.5 230t-53 280.5q0 154 57.5 291.5t156.5 236t236.5 156t292.5 57.5q261 0 465 -158l-73 -108q-189 139 -392 139q-123 0 -234 -48t-191 -130t-126.5 -196t-46.5 -240q0 -169 79 -310t216.5 -223
t302.5 -82q222 0 406 153l77 -109q-183 -151 -426 -169l-66 -106q92 -10 148.5 -67t56.5 -132q0 -87 -71.5 -145.5t-176.5 -58.5q-104 0 -176 58l50 74q46 -42 120 -42q61 0 101.5 33t40.5 83t-40.5 85t-101.5 35z" />
    <glyph glyph-name="Egrave" unicode="&#xc8;" horiz-adv-x="1144" 
d="M180 0v1434h821v-125h-677v-526h623v-125h-623v-533h696v-125h-840zM434 1889l284 -340h-143l-287 340h146z" />
    <glyph glyph-name="Eacute" unicode="&#xc9;" horiz-adv-x="1144" 
d="M180 0v1434h821v-125h-677v-526h623v-125h-623v-533h696v-125h-840zM464 1549l284 340h146l-288 -340h-142z" />
    <glyph glyph-name="Ecircumflex" unicode="&#xca;" horiz-adv-x="1144" 
d="M180 0v1434h821v-125h-677v-526h623v-125h-623v-533h696v-125h-840zM640 1889l299 -340h-141l-207 234l-207 -234h-141l299 340h98z" />
    <glyph glyph-name="Edieresis" unicode="&#xcb;" horiz-adv-x="1144" 
d="M180 0v1434h821v-125h-677v-526h623v-125h-623v-533h696v-125h-840zM311 1704q0 40 28 68t69 28q40 0 68 -28t28 -68t-28 -68t-68 -28q-41 0 -69 28t-28 68zM668 1704q0 40 28 68t68 28t68 -28t28 -68t-28 -68t-68 -28t-68 28t-28 68z" />
    <glyph glyph-name="Igrave" unicode="&#xcc;" horiz-adv-x="577" 
d="M217 1434h143v-1434h-143v1434zM140 1889l284 -340h-142l-288 340h146z" />
    <glyph glyph-name="Iacute" unicode="&#xcd;" horiz-adv-x="577" 
d="M217 1434h143v-1434h-143v1434zM154 1549l283 340h147l-288 -340h-142z" />
    <glyph glyph-name="Icircumflex" unicode="&#xce;" horiz-adv-x="577" 
d="M217 1434h143v-1434h-143v1434zM338 1889l299 -340h-141l-207 234l-207 -234h-141l299 340h98z" />
    <glyph glyph-name="Idieresis" unicode="&#xcf;" horiz-adv-x="577" 
d="M217 1434h143v-1434h-143v1434zM14 1704q0 40 28 68t69 28t68.5 -28t27.5 -68t-27.5 -68t-68.5 -28t-69 28t-28 68zM371 1704q0 40 27.5 68t68.5 28t68.5 -28t27.5 -68t-27.5 -68t-68.5 -28t-68.5 28t-27.5 68z" />
    <glyph glyph-name="Eth" unicode="&#xd0;" horiz-adv-x="1475" 
d="M229 1434h469q317 0 505 -196t188 -521t-188 -521t-505 -196h-469v659h-189v115h189v660zM698 1307h-325v-533h338v-115h-338v-532h325q249 0 398 157.5t149 432.5t-149 432.5t-398 157.5z" />
    <glyph glyph-name="Ntilde" unicode="&#xd1;" horiz-adv-x="1423" 
d="M180 0v1434h137l787 -1184v1184h139v-1434h-137l-787 1184v-1184h-139zM561 1824q83 0 166 -78q28 -27 42 -39t36 -23.5t42 -11.5q63 0 87 125l116 -22q-45 -213 -188 -213q-84 0 -166 77q-29 28 -42 39t-35 23t-42 12q-64 0 -88 -125l-115 23q45 213 187 213z" />
    <glyph glyph-name="Ograve" unicode="&#xd2;" horiz-adv-x="1656" 
d="M828 102q165 0 302.5 82t216.5 223t79 310q0 126 -46.5 240t-126.5 196t-191 130t-234 48t-234 -48t-191 -130t-126.5 -196t-46.5 -240q0 -169 79 -310t216.5 -223t302.5 -82zM828 1458q206 0 377 -97.5t269 -267.5t98 -376q0 -154 -58 -292t-156.5 -236.5t-236.5 -156
t-293 -57.5t-292.5 57.5t-236.5 156.5t-156.5 236.5t-57.5 291.5t57.5 291.5t156.5 236t236.5 156t292.5 57.5zM672 1889l283 -340h-142l-288 340h147z" />
    <glyph glyph-name="Oacute" unicode="&#xd3;" horiz-adv-x="1656" 
d="M828 102q165 0 302.5 82t216.5 223t79 310q0 126 -46.5 240t-126.5 196t-191 130t-234 48t-234 -48t-191 -130t-126.5 -196t-46.5 -240q0 -169 79 -310t216.5 -223t302.5 -82zM828 1458q206 0 377 -97.5t269 -267.5t98 -376q0 -154 -58 -292t-156.5 -236.5t-236.5 -156
t-293 -57.5t-292.5 57.5t-236.5 156.5t-156.5 236.5t-57.5 291.5t57.5 291.5t156.5 236t236.5 156t292.5 57.5zM702 1549l284 340h147l-288 -340h-143z" />
    <glyph glyph-name="Ocircumflex" unicode="&#xd4;" horiz-adv-x="1656" 
d="M828 102q165 0 302.5 82t216.5 223t79 310q0 126 -46.5 240t-126.5 196t-191 130t-234 48t-234 -48t-191 -130t-126.5 -196t-46.5 -240q0 -169 79 -310t216.5 -223t302.5 -82zM828 1458q206 0 377 -97.5t269 -267.5t98 -376q0 -154 -58 -292t-156.5 -236.5t-236.5 -156
t-293 -57.5t-292.5 57.5t-236.5 156.5t-156.5 236.5t-57.5 291.5t57.5 291.5t156.5 236t236.5 156t292.5 57.5zM878 1889l299 -340h-142l-207 234l-206 -234h-142l299 340h99z" />
    <glyph glyph-name="Otilde" unicode="&#xd5;" horiz-adv-x="1656" 
d="M828 102q165 0 302.5 82t216.5 223t79 310q0 126 -46.5 240t-126.5 196t-191 130t-234 48t-234 -48t-191 -130t-126.5 -196t-46.5 -240q0 -169 79 -310t216.5 -223t302.5 -82zM828 1458q206 0 377 -97.5t269 -267.5t98 -376q0 -154 -58 -292t-156.5 -236.5t-236.5 -156
t-293 -57.5t-292.5 57.5t-236.5 156.5t-156.5 236.5t-57.5 291.5t57.5 291.5t156.5 236t236.5 156t292.5 57.5zM678 1824q83 0 166 -78q28 -27 42 -39t36 -23.5t42 -11.5q63 0 87 125l115 -22q-45 -213 -187 -213q-84 0 -166 77q-28 27 -42 39t-36 23.5t-42 11.5
q-63 0 -87 -125l-116 23q45 213 188 213z" />
    <glyph glyph-name="Odieresis" unicode="&#xd6;" horiz-adv-x="1656" 
d="M828 102q165 0 302.5 82t216.5 223t79 310q0 126 -46.5 240t-126.5 196t-191 130t-234 48t-234 -48t-191 -130t-126.5 -196t-46.5 -240q0 -169 79 -310t216.5 -223t302.5 -82zM828 1458q206 0 377 -97.5t269 -267.5t98 -376q0 -154 -58 -292t-156.5 -236.5t-236.5 -156
t-293 -57.5t-292.5 57.5t-236.5 156.5t-156.5 236.5t-57.5 291.5t57.5 291.5t156.5 236t236.5 156t292.5 57.5zM554 1704q0 40 28 68t68 28t68 -28t28 -68t-28 -68t-68 -28t-68 28t-28 68zM910 1704q0 40 28 68t69 28t68.5 -28t27.5 -68t-27.5 -68t-68.5 -28t-69 28t-28 68z
" />
    <glyph glyph-name="multiply" unicode="&#xd7;" horiz-adv-x="1163" 
d="M253 1105l329 -334l329 334l95 -95l-330 -335l330 -334l-95 -95l-329 334l-330 -334l-94 95l329 335l-328 334z" />
    <glyph glyph-name="Oslash" unicode="&#xd8;" horiz-adv-x="1656" 
d="M828 1458q223 0 408 -117l121 154h137l-172 -219q118 -102 184 -247t66 -312q0 -154 -58 -292t-156.5 -236.5t-236.5 -156t-293 -57.5q-238 0 -427 129l-130 -165h-137l183 233q-110 102 -171 243t-61 302q0 154 57.5 291.5t156.5 236t236.5 156t292.5 57.5zM828 102
q165 0 302.5 82t216.5 223t79 310q0 132 -50 248t-139 202l-752 -956q152 -109 343 -109zM230 717q0 -126 45.5 -238t127.5 -197l749 953q-147 96 -324 96q-123 0 -234 -48t-191 -130t-126.5 -196t-46.5 -240z" />
    <glyph glyph-name="Ugrave" unicode="&#xd9;" horiz-adv-x="1349" 
d="M1185 1434v-940q0 -153 -66.5 -271.5t-182.5 -182t-261 -63.5t-261 63.5t-182.5 182t-66.5 271.5v940h143v-955q0 -166 103.5 -270.5t263.5 -104.5q159 0 262.5 104.5t103.5 270.5v955h144zM512 1889l284 -340h-143l-287 340h146z" />
    <glyph glyph-name="Uacute" unicode="&#xda;" horiz-adv-x="1349" 
d="M1185 1434v-940q0 -153 -66.5 -271.5t-182.5 -182t-261 -63.5t-261 63.5t-182.5 182t-66.5 271.5v940h143v-955q0 -166 103.5 -270.5t263.5 -104.5q159 0 262.5 104.5t103.5 270.5v955h144zM554 1549l284 340h146l-288 -340h-142z" />
    <glyph glyph-name="Ucircumflex" unicode="&#xdb;" horiz-adv-x="1349" 
d="M1185 1434v-940q0 -153 -66.5 -271.5t-182.5 -182t-261 -63.5t-261 63.5t-182.5 182t-66.5 271.5v940h143v-955q0 -166 103.5 -270.5t263.5 -104.5q159 0 262.5 104.5t103.5 270.5v955h144zM724 1889l299 -340h-141l-207 234l-207 -234h-141l299 340h98z" />
    <glyph glyph-name="Udieresis" unicode="&#xdc;" horiz-adv-x="1349" 
d="M1185 1434v-940q0 -153 -66.5 -271.5t-182.5 -182t-261 -63.5t-261 63.5t-182.5 182t-66.5 271.5v940h143v-955q0 -166 103.5 -270.5t263.5 -104.5q159 0 262.5 104.5t103.5 270.5v955h144zM400 1704q0 40 28 68t69 28t68.5 -28t27.5 -68t-27.5 -68t-68.5 -28t-69 28
t-28 68zM757 1704q0 40 27.5 68t68.5 28t68.5 -28t27.5 -68t-27.5 -68t-68.5 -28t-68.5 28t-27.5 68z" />
    <glyph glyph-name="Yacute" unicode="&#xdd;" horiz-adv-x="1310" 
d="M213 1434l442 -705l443 705h157l-528 -846v-588h-143v588l-529 846h158zM541 1549l283 340h147l-288 -340h-142z" />
    <glyph glyph-name="Thorn" unicode="&#xde;" horiz-adv-x="1181" 
d="M613 281h-289v-281h-144v1434h144v-281h289q223 0 356.5 -119t133.5 -317t-133.5 -317t-356.5 -119zM957 717q0 142 -94 226.5t-255 84.5h-284v-622h284q161 0 255 84.5t94 226.5z" />
    <glyph glyph-name="germandbls" unicode="&#xdf;" horiz-adv-x="1232" 
d="M165 0v1054q0 177 116.5 290.5t293.5 113.5q170 0 287 -106t117 -256q0 -114 -74.5 -200t-188.5 -121q182 -26 300 -136t118 -265q0 -169 -134.5 -284t-335.5 -115q-139 0 -253 71l39 126q43 -32 101 -52t113 -20q136 0 230 79.5t94 194.5q0 138 -129 233.5t-351 97.5
v120q138 5 232 81t94 185q0 99 -75 170.5t-184 71.5q-115 0 -191 -77.5t-76 -196.5v-1059h-143z" />
    <glyph glyph-name="agrave" unicode="&#xe0;" horiz-adv-x="1312" 
d="M643 100q122 0 221.5 63t153.5 168v397q-54 105 -153.5 169t-221.5 64q-178 0 -300 -127t-122 -304t122 -303.5t300 -126.5zM623 1085q119 0 221 -48t174 -136v160h139v-1061h-139v160q-72 -88 -174 -136.5t-221 -48.5q-153 0 -278.5 76t-195 203t-69.5 276t69.5 276
t195 203t278.5 76zM486 1558l284 -340h-142l-288 340h146z" />
    <glyph glyph-name="aacute" unicode="&#xe1;" horiz-adv-x="1312" 
d="M643 100q122 0 221.5 63t153.5 168v397q-54 105 -153.5 169t-221.5 64q-178 0 -300 -127t-122 -304t122 -303.5t300 -126.5zM623 1085q119 0 221 -48t174 -136v160h139v-1061h-139v160q-72 -88 -174 -136.5t-221 -48.5q-153 0 -278.5 76t-195 203t-69.5 276t69.5 276
t195 203t278.5 76zM484 1218l284 340h146l-287 -340h-143z" />
    <glyph glyph-name="acircumflex" unicode="&#xe2;" horiz-adv-x="1312" 
d="M643 100q122 0 221.5 63t153.5 168v397q-54 105 -153.5 169t-221.5 64q-178 0 -300 -127t-122 -304t122 -303.5t300 -126.5zM623 1085q119 0 221 -48t174 -136v160h139v-1061h-139v160q-72 -88 -174 -136.5t-221 -48.5q-153 0 -278.5 76t-195 203t-69.5 276t69.5 276
t195 203t278.5 76zM688 1558l299 -340h-141l-207 233l-207 -233h-141l299 340h98z" />
    <glyph glyph-name="atilde" unicode="&#xe3;" horiz-adv-x="1312" 
d="M643 100q122 0 221.5 63t153.5 168v397q-54 105 -153.5 169t-221.5 64q-178 0 -300 -127t-122 -304t122 -303.5t300 -126.5zM623 1085q119 0 221 -48t174 -136v160h139v-1061h-139v160q-72 -88 -174 -136.5t-221 -48.5q-153 0 -278.5 76t-195 203t-69.5 276t69.5 276
t195 203t278.5 76zM481 1492q83 0 166 -78q28 -27 42 -39t36 -23.5t42 -11.5q63 0 87 125l116 -22q-45 -213 -188 -213q-83 0 -166 78q-28 27 -42 38.5t-35.5 23t-41.5 11.5q-63 0 -87 -125l-116 23q45 213 187 213z" />
    <glyph glyph-name="adieresis" unicode="&#xe4;" horiz-adv-x="1312" 
d="M643 100q122 0 221.5 63t153.5 168v397q-54 105 -153.5 169t-221.5 64q-178 0 -300 -127t-122 -304t122 -303.5t300 -126.5zM623 1085q119 0 221 -48t174 -136v160h139v-1061h-139v160q-72 -88 -174 -136.5t-221 -48.5q-153 0 -278.5 76t-195 203t-69.5 276t69.5 276
t195 203t278.5 76zM354 1372q0 40 28 68t69 28t68.5 -28t27.5 -68t-27.5 -68t-68.5 -28t-69 28t-28 68zM711 1372q0 40 27.5 68t68.5 28t68.5 -28t27.5 -68t-27.5 -68t-68.5 -28t-68.5 28t-27.5 68z" />
    <glyph glyph-name="aring" unicode="&#xe5;" horiz-adv-x="1312" 
d="M643 100q122 0 221.5 63t153.5 168v397q-54 105 -153.5 169t-221.5 64q-178 0 -300 -127t-122 -304t122 -303.5t300 -126.5zM623 1085q119 0 221 -48t174 -136v160h139v-1061h-139v160q-72 -88 -174 -136.5t-221 -48.5q-153 0 -278.5 76t-195 203t-69.5 276t69.5 276
t195 203t278.5 76zM516 1395q0 -47 33 -79.5t80 -32.5t79.5 32.5t32.5 79.5t-32.5 79t-79.5 32t-80 -32t-33 -79zM420 1395q0 84 60 140.5t149 56.5t149 -56.5t60 -140.5t-60 -141t-149 -57t-149 57t-60 141z" />
    <glyph glyph-name="ae" unicode="&#xe6;" horiz-adv-x="2063" 
d="M1065 489q11 -166 126 -279.5t284 -113.5q199 0 343 168l96 -89q-80 -95 -192.5 -147.5t-243.5 -52.5q-152 0 -274.5 70t-189.5 188q-69 -120 -188 -189t-263 -69q-134 0 -245 45t-174.5 123.5t-63.5 172.5q0 92 63 168t171.5 119.5t236.5 43.5q101 0 207.5 -30.5
t177.5 -78.5q-1 8 -1 27q0 14 5 59q-15 158 -121.5 249.5t-258.5 91.5q-195 0 -347 -132l-55 109q180 143 405 143q152 0 273.5 -72.5t173.5 -201.5q64 124 184 199t269 75q112 0 209.5 -42t165 -113t106.5 -168t39 -205q0 -37 -7 -68h-911zM569 96q124 0 230.5 66.5
t162.5 176.5q-18 52 -22 91q-65 51 -166 79t-202 28q-150 0 -251.5 -64.5t-101.5 -156.5t101 -156t249 -64zM1463 965q-148 0 -259 -103.5t-134 -255.5h768q-17 156 -121 257.5t-254 101.5z" />
    <glyph glyph-name="ccedilla" unicode="&#xe7;" horiz-adv-x="1118" 
d="M580 -206q-33 0 -58 -5l-26 31l89 158q-220 21 -362.5 179t-142.5 373q0 150 72 277t202 202.5t289 75.5q223 0 383 -144l-73 -111q-140 131 -310 131q-178 0 -300 -127t-122 -304t122 -303.5t300 -126.5q183 0 320 142l83 -103q-143 -145 -352 -161l-65 -107
q92 -10 148.5 -67t56.5 -132q0 -87 -71.5 -145.5t-176.5 -58.5q-104 0 -176 58l50 74q47 -42 120 -42q61 0 101.5 33t40.5 83t-40.5 85t-101.5 35z" />
    <glyph glyph-name="egrave" unicode="&#xe8;" horiz-adv-x="1241" 
d="M222 489q11 -166 129 -279.5t291 -113.5q103 0 194 44.5t159 123.5l97 -89q-80 -95 -196 -147.5t-251 -52.5q-164 0 -294.5 75t-200.5 201.5t-70 278.5q0 151 71 278t198 202t282 75q229 0 379.5 -153.5t150.5 -374.5q0 -37 -7 -68h-932zM631 965q-152 0 -266.5 -104
t-137.5 -255h789q-17 156 -124 257.5t-261 101.5zM474 1558l284 -340h-143l-287 340h146z" />
    <glyph glyph-name="eacute" unicode="&#xe9;" horiz-adv-x="1241" 
d="M222 489q11 -166 129 -279.5t291 -113.5q103 0 194 44.5t159 123.5l97 -89q-80 -95 -196 -147.5t-251 -52.5q-164 0 -294.5 75t-200.5 201.5t-70 278.5q0 151 71 278t198 202t282 75q229 0 379.5 -153.5t150.5 -374.5q0 -37 -7 -68h-932zM631 965q-152 0 -266.5 -104
t-137.5 -255h789q-17 156 -124 257.5t-261 101.5zM482 1218l284 340h146l-287 -340h-143z" />
    <glyph glyph-name="ecircumflex" unicode="&#xea;" horiz-adv-x="1241" 
d="M222 489q11 -166 129 -279.5t291 -113.5q103 0 194 44.5t159 123.5l97 -89q-80 -95 -196 -147.5t-251 -52.5q-164 0 -294.5 75t-200.5 201.5t-70 278.5q0 151 71 278t198 202t282 75q229 0 379.5 -153.5t150.5 -374.5q0 -37 -7 -68h-932zM631 965q-152 0 -266.5 -104
t-137.5 -255h789q-17 156 -124 257.5t-261 101.5zM670 1558l299 -340h-142l-206 233l-207 -233h-142l299 340h99z" />
    <glyph glyph-name="edieresis" unicode="&#xeb;" horiz-adv-x="1241" 
d="M222 489q11 -166 129 -279.5t291 -113.5q103 0 194 44.5t159 123.5l97 -89q-80 -95 -196 -147.5t-251 -52.5q-164 0 -294.5 75t-200.5 201.5t-70 278.5q0 151 71 278t198 202t282 75q229 0 379.5 -153.5t150.5 -374.5q0 -37 -7 -68h-932zM631 965q-152 0 -266.5 -104
t-137.5 -255h789q-17 156 -124 257.5t-261 101.5zM346 1372q0 40 28 68t68 28q41 0 69 -28t28 -68t-28 -68t-69 -28q-40 0 -68 28t-28 68zM702 1372q0 40 28 68t69 28t68.5 -28t27.5 -68t-27.5 -68t-68.5 -28t-69 28t-28 68z" />
    <glyph glyph-name="igrave" unicode="&#xec;" horiz-adv-x="528" 
d="M195 0v1061h139v-1061h-139zM110 1558l283 -340h-142l-288 340h147z" />
    <glyph glyph-name="iacute" unicode="&#xed;" horiz-adv-x="528" 
d="M195 0v1061h139v-1061h-139zM135 1218l284 340h146l-287 -340h-143z" />
    <glyph glyph-name="icircumflex" unicode="&#xee;" horiz-adv-x="528" 
d="M195 0v1061h139v-1061h-139zM313 1558l299 -340h-141l-207 233l-207 -233h-141l299 340h98z" />
    <glyph glyph-name="idieresis" unicode="&#xef;" horiz-adv-x="528" 
d="M195 0v1061h139v-1061h-139zM-10 1372q0 40 28 68t68 28t68 -28t28 -68t-28 -68t-68 -28t-68 28t-28 68zM346 1372q0 40 28 68t68 28q41 0 69 -28t28 -68t-28 -68t-69 -28q-40 0 -68 28t-28 68z" />
    <glyph glyph-name="eth" unicode="&#xf0;" horiz-adv-x="1246" 
d="M639 1236l-340 -162l-43 91l289 137q-92 60 -226 121l109 72q130 -57 243 -135l240 115l42 -91l-194 -92q187 -158 292 -366.5t105 -438.5q0 -141 -71.5 -259t-195.5 -185.5t-272 -67.5q-111 0 -210.5 40t-171.5 108t-114 163t-42 201q0 139 71 256.5t191 184.5t260 67
q105 0 197 -45t147 -123q-106 255 -306 409zM618 879q-166 0 -282 -113.5t-116 -276.5t115.5 -276t282.5 -113t283 113t116 276t-116 276.5t-283 113.5z" />
    <glyph glyph-name="ntilde" unicode="&#xf1;" horiz-adv-x="1223" 
d="M295 703v-703h-139v1061h139v-202q65 98 158 162t214 64q184 0 302 -119t118 -304v-662h-139v653q0 132 -86.5 220t-219.5 88q-110 0 -197 -73t-150 -185zM471 1492q83 0 166 -78q28 -27 42 -39t36 -23.5t42 -11.5q63 0 87 125l115 -22q-45 -213 -187 -213q-83 0 -166 78
q-27 26 -41.5 38.5t-36.5 23.5t-42 11q-63 0 -87 -125l-115 23q45 213 187 213z" />
    <glyph glyph-name="ograve" unicode="&#xf2;" horiz-adv-x="1286" 
d="M643 100q178 0 300 126.5t122 303.5t-122 304t-300 127t-300 -127t-122 -304t122 -303.5t300 -126.5zM643 1085q159 0 289 -75.5t202 -202.5t72 -277t-72 -277t-202 -202.5t-289 -75.5t-289 75.5t-202 202.5t-72 277t72 277t202 202.5t289 75.5zM492 1558l283 -340h-142
l-288 340h147z" />
    <glyph glyph-name="oacute" unicode="&#xf3;" horiz-adv-x="1286" 
d="M643 100q178 0 300 126.5t122 303.5t-122 304t-300 127t-300 -127t-122 -304t122 -303.5t300 -126.5zM643 1085q159 0 289 -75.5t202 -202.5t72 -277t-72 -277t-202 -202.5t-289 -75.5t-289 75.5t-202 202.5t-72 277t72 277t202 202.5t289 75.5zM512 1218l284 340h146
l-288 -340h-142z" />
    <glyph glyph-name="ocircumflex" unicode="&#xf4;" horiz-adv-x="1286" 
d="M643 100q178 0 300 126.5t122 303.5t-122 304t-300 127t-300 -127t-122 -304t122 -303.5t300 -126.5zM643 1085q159 0 289 -75.5t202 -202.5t72 -277t-72 -277t-202 -202.5t-289 -75.5t-289 75.5t-202 202.5t-72 277t72 277t202 202.5t289 75.5zM692 1558l299 -340h-141
l-207 233l-207 -233h-141l299 340h98z" />
    <glyph glyph-name="otilde" unicode="&#xf5;" horiz-adv-x="1286" 
d="M643 100q178 0 300 126.5t122 303.5t-122 304t-300 127t-300 -127t-122 -304t122 -303.5t300 -126.5zM643 1085q159 0 289 -75.5t202 -202.5t72 -277t-72 -277t-202 -202.5t-289 -75.5t-289 75.5t-202 202.5t-72 277t72 277t202 202.5t289 75.5zM493 1492q82 0 165 -78
q28 -27 42 -39t36 -23.5t42 -11.5q63 0 87 125l116 -22q-45 -213 -187 -213q-83 0 -166 78q-27 26 -41.5 38.5t-36.5 23.5t-42 11q-63 0 -87 -125l-116 23q45 213 188 213z" />
    <glyph glyph-name="odieresis" unicode="&#xf6;" horiz-adv-x="1286" 
d="M643 100q178 0 300 126.5t122 303.5t-122 304t-300 127t-300 -127t-122 -304t122 -303.5t300 -126.5zM643 1085q159 0 289 -75.5t202 -202.5t72 -277t-72 -277t-202 -202.5t-289 -75.5t-289 75.5t-202 202.5t-72 277t72 277t202 202.5t289 75.5zM369 1372q0 40 27.5 68
t68.5 28t68.5 -28t27.5 -68t-27.5 -68t-68.5 -28t-68.5 28t-27.5 68zM725 1372q0 40 27.5 68t68.5 28t69 -28t28 -68t-28 -68t-69 -28t-68.5 28t-27.5 68z" />
    <glyph glyph-name="divide" unicode="&#xf7;" horiz-adv-x="1163" 
d="M1042 620h-921v120h921v-120zM477 1067q0 44 30.5 74t74.5 30t74 -30t30 -74t-30 -74t-74 -30t-74.5 30t-30.5 74zM477 293q0 44 30.5 74t74.5 30t74 -30t30 -74t-30 -74.5t-74 -30.5t-74.5 30.5t-30.5 74.5z" />
    <glyph glyph-name="oslash" unicode="&#xf8;" horiz-adv-x="1286" 
d="M643 1085q169 0 308 -88l100 125h132l-151 -187q83 -77 128.5 -182.5t45.5 -222.5q0 -150 -72 -277t-202 -202.5t-289 -75.5q-170 0 -308 87l-99 -123h-133l150 187q-82 76 -127.5 181t-45.5 223q0 150 72 277t202 202.5t289 75.5zM643 100q178 0 300 126.5t122 303.5
q0 174 -118 298l-530 -662q102 -66 226 -66zM221 530q0 -174 117 -299l530 664q-105 66 -225 66q-178 0 -300 -127t-122 -304z" />
    <glyph glyph-name="ugrave" unicode="&#xf9;" horiz-adv-x="1223" 
d="M929 357v704h139v-1061h-139v202q-65 -98 -158 -162.5t-214 -64.5q-184 0 -302.5 119.5t-118.5 304.5v662h139v-653q0 -131 87 -219.5t220 -88.5q202 0 347 257zM431 1558l284 -340h-143l-287 340h146z" />
    <glyph glyph-name="uacute" unicode="&#xfa;" horiz-adv-x="1223" 
d="M929 357v704h139v-1061h-139v202q-65 -98 -158 -162.5t-214 -64.5q-184 0 -302.5 119.5t-118.5 304.5v662h139v-653q0 -131 87 -219.5t220 -88.5q202 0 347 257zM473 1218l284 340h146l-288 -340h-142z" />
    <glyph glyph-name="ucircumflex" unicode="&#xfb;" horiz-adv-x="1223" 
d="M929 357v704h139v-1061h-139v202q-65 -98 -158 -162.5t-214 -64.5q-184 0 -302.5 119.5t-118.5 304.5v662h139v-653q0 -131 87 -219.5t220 -88.5q202 0 347 257zM647 1558l299 -340h-141l-207 233l-207 -233h-141l299 340h98z" />
    <glyph glyph-name="udieresis" unicode="&#xfc;" horiz-adv-x="1223" 
d="M929 357v704h139v-1061h-139v202q-65 -98 -158 -162.5t-214 -64.5q-184 0 -302.5 119.5t-118.5 304.5v662h139v-653q0 -131 87 -219.5t220 -88.5q202 0 347 257zM324 1372q0 40 28 68t68 28t68 -28t28 -68t-28 -68t-68 -28t-68 28t-28 68zM680 1372q0 40 28 68t68 28
t68 -28t28 -68t-28 -68t-68 -28t-68 28t-28 68z" />
    <glyph glyph-name="yacute" unicode="&#xfd;" horiz-adv-x="1069" 
d="M269 -475l196 484l-430 1052h147l355 -874l350 874h147l-617 -1536h-148zM412 1218l283 340h147l-288 -340h-142z" />
    <glyph glyph-name="thorn" unicode="&#xfe;" horiz-adv-x="1312" 
d="M670 100q178 0 300 126.5t122 303.5t-122 304t-300 127q-122 0 -221.5 -64t-153.5 -169v-397q54 -105 153.5 -168t221.5 -63zM690 1085q153 0 278.5 -76t195 -203t69.5 -276t-69.5 -276t-195 -203t-278.5 -76q-119 0 -221 48.5t-174 136.5v-635h-139v1970h139v-594
q72 88 174 136t221 48z" />
    <glyph glyph-name="ydieresis" unicode="&#xff;" horiz-adv-x="1069" 
d="M269 -475l196 484l-430 1052h147l355 -874l350 874h147l-617 -1536h-148zM259 1372q0 40 27.5 68t68.5 28t69 -28t28 -68t-28 -68t-69 -28t-68.5 28t-27.5 68zM615 1372q0 40 28 68t69 28q40 0 68 -28t28 -68t-28 -68t-68 -28q-41 0 -69 28t-28 68z" />
    <glyph glyph-name="Amacron" unicode="&#x100;" horiz-adv-x="1380" 
d="M1323 0h-158l-147 394h-656l-147 -394h-158l554 1434h158zM974 519l-284 754l-283 -754h567zM403 1644v110h574v-110h-574z" />
    <glyph glyph-name="amacron" unicode="&#x101;" horiz-adv-x="1312" 
d="M643 100q122 0 221.5 63t153.5 168v397q-54 105 -153.5 169t-221.5 64q-178 0 -300 -127t-122 -304t122 -303.5t300 -126.5zM623 1085q119 0 221 -48t174 -136v160h139v-1061h-139v160q-72 -88 -174 -136.5t-221 -48.5q-153 0 -278.5 76t-195 203t-69.5 276t69.5 276
t195 203t278.5 76zM353 1312v110h574v-110h-574z" />
    <glyph glyph-name="Abreve" unicode="&#x102;" horiz-adv-x="1380" 
d="M1323 0h-158l-147 394h-656l-147 -394h-158l554 1434h158zM974 519l-284 754l-283 -754h567zM690 1529q-132 0 -222.5 88t-97.5 223h127q4 -89 56 -147t137 -58t137.5 58t56.5 147h127q-7 -134 -97.5 -222.5t-223.5 -88.5z" />
    <glyph glyph-name="abreve" unicode="&#x103;" horiz-adv-x="1312" 
d="M643 100q122 0 221.5 63t153.5 168v397q-54 105 -153.5 169t-221.5 64q-178 0 -300 -127t-122 -304t122 -303.5t300 -126.5zM623 1085q119 0 221 -48t174 -136v160h139v-1061h-139v160q-72 -88 -174 -136.5t-221 -48.5q-153 0 -278.5 76t-195 203t-69.5 276t69.5 276
t195 203t278.5 76zM638 1197q-133 0 -223.5 88.5t-97.5 222.5h127q4 -89 56.5 -146.5t137.5 -57.5t137 57.5t56 146.5h127q-7 -135 -97.5 -223t-222.5 -88z" />
    <glyph glyph-name="Aogonek" unicode="&#x104;" horiz-adv-x="1380" 
d="M1213 0h-48l-147 394h-656l-147 -394h-158l554 1434h158l554 -1434q-93 -76 -139 -133t-46 -117q0 -54 35.5 -90t88.5 -36q60 0 106 34l33 -80q-67 -47 -160 -47q-91 0 -153 59t-62 146q0 74 49.5 137.5t137.5 126.5zM974 519l-284 754l-283 -754h567z" />
    <glyph glyph-name="aogonek" unicode="&#x105;" horiz-adv-x="1312" 
d="M1048 0h-30v160q-72 -88 -174 -136.5t-221 -48.5q-153 0 -278.5 76t-195 203t-69.5 276t69.5 276t195 203t278.5 76q119 0 221 -48t174 -136v160h139v-1061q-93 -76 -139 -133t-46 -117q0 -54 35.5 -90t88.5 -36q60 0 106 34l33 -80q-67 -47 -160 -47q-91 0 -153 59
t-62 146q0 74 50 137.5t138 126.5zM643 100q122 0 221.5 63t153.5 168v397q-54 105 -153.5 169t-221.5 64q-178 0 -300 -127t-122 -304t122 -303.5t300 -126.5z" />
    <glyph glyph-name="Cacute" unicode="&#x106;" horiz-adv-x="1387" 
d="M828 102q222 0 406 153l77 -109q-206 -171 -483 -171q-155 0 -292.5 57.5t-236.5 156.5t-156.5 236.5t-57.5 291.5t57.5 291.5t156.5 236t236.5 156t292.5 57.5q261 0 465 -158l-73 -108q-189 139 -392 139q-123 0 -234 -48t-191 -130t-126.5 -196t-46.5 -240
q0 -169 79 -310t216.5 -223t302.5 -82zM649 1549l284 340h146l-287 -340h-143z" />
    <glyph glyph-name="cacute" unicode="&#x107;" horiz-adv-x="1118" 
d="M643 -25q-159 0 -289 75.5t-202 202.5t-72 277t72 277t202 202.5t289 75.5q223 0 383 -144l-73 -111q-140 131 -310 131q-178 0 -300 -127t-122 -304t122 -303.5t300 -126.5q183 0 320 142l83 -103q-77 -78 -180.5 -121t-222.5 -43zM470 1218l284 340h146l-288 -340h-142
z" />
    <glyph glyph-name="Ccircumflex" unicode="&#x108;" horiz-adv-x="1387" 
d="M828 102q222 0 406 153l77 -109q-206 -171 -483 -171q-155 0 -292.5 57.5t-236.5 156.5t-156.5 236.5t-57.5 291.5t57.5 291.5t156.5 236t236.5 156t292.5 57.5q261 0 465 -158l-73 -108q-189 139 -392 139q-123 0 -234 -48t-191 -130t-126.5 -196t-46.5 -240
q0 -169 79 -310t216.5 -223t302.5 -82zM830 1889l299 -340h-141l-207 234l-207 -234h-141l299 340h98z" />
    <glyph glyph-name="ccircumflex" unicode="&#x109;" horiz-adv-x="1118" 
d="M643 -25q-159 0 -289 75.5t-202 202.5t-72 277t72 277t202 202.5t289 75.5q223 0 383 -144l-73 -111q-140 131 -310 131q-178 0 -300 -127t-122 -304t122 -303.5t300 -126.5q183 0 320 142l83 -103q-77 -78 -180.5 -121t-222.5 -43zM647 1558l299 -340h-141l-207 233
l-207 -233h-141l299 340h98z" />
    <glyph glyph-name="Cdotaccent" unicode="&#x10a;" horiz-adv-x="1387" 
d="M828 102q222 0 406 153l77 -109q-206 -171 -483 -171q-155 0 -292.5 57.5t-236.5 156.5t-156.5 236.5t-57.5 291.5t57.5 291.5t156.5 236t236.5 156t292.5 57.5q261 0 465 -158l-73 -108q-189 139 -392 139q-123 0 -234 -48t-191 -130t-126.5 -196t-46.5 -240
q0 -169 79 -310t216.5 -223t302.5 -82zM687 1704q0 40 27.5 68t68.5 28t69 -28t28 -68t-28 -68t-69 -28t-68.5 28t-27.5 68z" />
    <glyph glyph-name="cdotaccent" unicode="&#x10b;" horiz-adv-x="1118" 
d="M643 -25q-159 0 -289 75.5t-202 202.5t-72 277t72 277t202 202.5t289 75.5q223 0 383 -144l-73 -111q-140 131 -310 131q-178 0 -300 -127t-122 -304t122 -303.5t300 -126.5q183 0 320 142l83 -103q-77 -78 -180.5 -121t-222.5 -43zM518 1372q0 40 28 68t68 28
q41 0 69 -28t28 -68t-28 -68t-69 -28q-40 0 -68 28t-28 68z" />
    <glyph glyph-name="Ccaron" unicode="&#x10c;" horiz-adv-x="1387" 
d="M828 102q222 0 406 153l77 -109q-206 -171 -483 -171q-155 0 -292.5 57.5t-236.5 156.5t-156.5 236.5t-57.5 291.5t57.5 291.5t156.5 236t236.5 156t292.5 57.5q261 0 465 -158l-73 -108q-189 139 -392 139q-123 0 -234 -48t-191 -130t-126.5 -196t-46.5 -240
q0 -169 79 -310t216.5 -223t302.5 -82zM1129 1889l-299 -340h-98l-299 340h141l207 -233l207 233h141z" />
    <glyph glyph-name="ccaron" unicode="&#x10d;" horiz-adv-x="1118" 
d="M643 -25q-159 0 -289 75.5t-202 202.5t-72 277t72 277t202 202.5t289 75.5q223 0 383 -144l-73 -111q-140 131 -310 131q-178 0 -300 -127t-122 -304t122 -303.5t300 -126.5q183 0 320 142l83 -103q-77 -78 -180.5 -121t-222.5 -43zM947 1537l-299 -340h-98l-299 340h141
l207 -233l207 233h141z" />
    <glyph glyph-name="Dcaron" unicode="&#x10e;" horiz-adv-x="1426" 
d="M180 1434h469q317 0 504.5 -196t187.5 -521t-187.5 -521t-504.5 -196h-469v1434zM649 1307h-325v-1180h325q249 0 398 157.5t149 432.5t-149 432.5t-398 157.5zM1026 1889l-299 -340h-98l-299 340h141l207 -233l207 233h141z" />
    <glyph glyph-name="dcaron" unicode="&#x10f;" horiz-adv-x="1617" 
d="M643 100q122 0 221.5 63t153.5 168v397q-54 105 -153.5 169t-221.5 64q-178 0 -300 -127t-122 -304t122 -303.5t300 -126.5zM623 1085q119 0 221 -48t174 -136v594h139v-1495h-139v160q-72 -88 -174 -136.5t-221 -48.5q-153 0 -278.5 76t-195 203t-69.5 276t69.5 276
t195 203t278.5 76zM1359 1418q0 43 29 72.5t72 29.5t72.5 -29.5t29.5 -72.5q0 -19 -11 -45l-121 -273h-97l98 221q-32 9 -52 35.5t-20 61.5z" />
    <glyph glyph-name="Dcroat" unicode="&#x110;" horiz-adv-x="1475" 
d="M229 1434h469q317 0 505 -196t188 -521t-188 -521t-505 -196h-469v659h-189v115h189v660zM698 1307h-325v-533h338v-115h-338v-532h325q249 0 398 157.5t149 432.5t-149 432.5t-398 157.5z" />
    <glyph glyph-name="dcroat" unicode="&#x111;" horiz-adv-x="1356" 
d="M640 1214v103h378v178h139v-178h164v-103h-164v-1214h-139v160q-72 -88 -174 -136.5t-221 -48.5q-153 0 -278.5 76t-195 203t-69.5 276t69.5 276t195 203t278.5 76q119 0 221 -48t174 -136v313h-378zM643 100q122 0 221.5 63t153.5 168v397q-54 105 -153.5 169t-221.5 64
q-178 0 -300 -127t-122 -304t122 -303.5t300 -126.5z" />
    <glyph glyph-name="Emacron" unicode="&#x112;" horiz-adv-x="1144" 
d="M180 0v1434h821v-125h-677v-526h623v-125h-623v-533h696v-125h-840zM299 1644v110h573v-110h-573z" />
    <glyph glyph-name="emacron" unicode="&#x113;" horiz-adv-x="1241" 
d="M222 489q11 -166 129 -279.5t291 -113.5q103 0 194 44.5t159 123.5l97 -89q-80 -95 -196 -147.5t-251 -52.5q-164 0 -294.5 75t-200.5 201.5t-70 278.5q0 151 71 278t198 202t282 75q229 0 379.5 -153.5t150.5 -374.5q0 -37 -7 -68h-932zM631 965q-152 0 -266.5 -104
t-137.5 -255h789q-17 156 -124 257.5t-261 101.5zM334 1312v110h573v-110h-573z" />
    <glyph glyph-name="Ebreve" unicode="&#x114;" horiz-adv-x="1144" 
d="M180 0v1434h821v-125h-677v-526h623v-125h-623v-533h696v-125h-840zM585 1529q-133 0 -223.5 88.5t-97.5 222.5h127q4 -89 56.5 -147t137.5 -58t137 58t56 147h127q-7 -135 -97.5 -223t-222.5 -88z" />
    <glyph glyph-name="ebreve" unicode="&#x115;" horiz-adv-x="1241" 
d="M222 489q11 -166 129 -279.5t291 -113.5q103 0 194 44.5t159 123.5l97 -89q-80 -95 -196 -147.5t-251 -52.5q-164 0 -294.5 75t-200.5 201.5t-70 278.5q0 151 71 278t198 202t282 75q229 0 379.5 -153.5t150.5 -374.5q0 -37 -7 -68h-932zM631 965q-152 0 -266.5 -104
t-137.5 -255h789q-17 156 -124 257.5t-261 101.5zM621 1197q-133 0 -223.5 88.5t-97.5 222.5h127q4 -89 56.5 -146.5t137.5 -57.5t137 57.5t56 146.5h127q-7 -135 -97.5 -223t-222.5 -88z" />
    <glyph glyph-name="Edotaccent" unicode="&#x116;" horiz-adv-x="1144" 
d="M180 0v1434h821v-125h-677v-526h623v-125h-623v-533h696v-125h-840zM497 1704q0 40 27.5 68t68.5 28t68.5 -28t27.5 -68t-27.5 -68t-68.5 -28t-68.5 28t-27.5 68z" />
    <glyph glyph-name="edotaccent" unicode="&#x117;" horiz-adv-x="1241" 
d="M222 489q11 -166 129 -279.5t291 -113.5q103 0 194 44.5t159 123.5l97 -89q-80 -95 -196 -147.5t-251 -52.5q-164 0 -294.5 75t-200.5 201.5t-70 278.5q0 151 71 278t198 202t282 75q229 0 379.5 -153.5t150.5 -374.5q0 -37 -7 -68h-932zM631 965q-152 0 -266.5 -104
t-137.5 -255h789q-17 156 -124 257.5t-261 101.5zM524 1372q0 40 28 68t69 28t68.5 -28t27.5 -68t-27.5 -68t-68.5 -28t-69 28t-28 68z" />
    <glyph glyph-name="Eogonek" unicode="&#x118;" horiz-adv-x="1144" 
d="M180 0v1434h821v-125h-677v-526h623v-125h-623v-533h696v-125h-177q-94 -76 -140 -133t-46 -117q0 -54 35.5 -90t88.5 -36q61 0 107 34l33 -80q-67 -47 -160 -47q-91 0 -153 59t-62 146q0 74 49.5 137.5t137.5 126.5h-553z" />
    <glyph glyph-name="eogonek" unicode="&#x119;" horiz-adv-x="1241" 
d="M222 489q11 -166 129 -279.5t291 -113.5q103 0 194 44.5t159 123.5l97 -89q-71 -85 -170.5 -136t-216.5 -61q-79 -67 -119 -119.5t-40 -108.5q0 -54 35.5 -90t88.5 -36q60 0 106 34l33 -80q-67 -47 -160 -47q-91 0 -153 59t-62 146q0 122 157 242q-150 12 -267.5 89
t-180.5 198t-63 265q0 151 71 278t198 202t282 75q229 0 379.5 -153.5t150.5 -374.5q0 -37 -7 -68h-932zM631 965q-152 0 -266.5 -104t-137.5 -255h789q-17 156 -124 257.5t-261 101.5z" />
    <glyph glyph-name="Ecaron" unicode="&#x11a;" horiz-adv-x="1144" 
d="M180 0v1434h821v-125h-677v-526h623v-125h-623v-533h696v-125h-840zM937 1889l-299 -340h-98l-299 340h141l207 -233l207 233h141z" />
    <glyph glyph-name="ecaron" unicode="&#x11b;" horiz-adv-x="1241" 
d="M222 489q11 -166 129 -279.5t291 -113.5q103 0 194 44.5t159 123.5l97 -89q-80 -95 -196 -147.5t-251 -52.5q-164 0 -294.5 75t-200.5 201.5t-70 278.5q0 151 71 278t198 202t282 75q229 0 379.5 -153.5t150.5 -374.5q0 -37 -7 -68h-932zM631 965q-152 0 -266.5 -104
t-137.5 -255h789q-17 156 -124 257.5t-261 101.5zM969 1537l-299 -340h-99l-299 340h142l207 -233l206 233h142z" />
    <glyph glyph-name="Gcircumflex" unicode="&#x11c;" horiz-adv-x="1464" 
d="M828 1331q-123 0 -234 -48t-191 -130t-126.5 -196t-46.5 -240q0 -169 79 -310t216.5 -223t302.5 -82q96 0 189 31.5t164 87.5v390h-437v125h580v-577q-97 -86 -225 -135t-271 -49q-155 0 -292.5 57.5t-236.5 156.5t-156.5 236.5t-57.5 291.5t57.5 291.5t156.5 236
t236.5 156t292.5 57.5q261 0 465 -158l-73 -108q-189 139 -392 139zM830 1889l299 -340h-141l-207 234l-207 -234h-141l299 340h98z" />
    <glyph glyph-name="gcircumflex" unicode="&#x11d;" horiz-adv-x="1312" 
d="M1018 3v157q-72 -88 -174 -136.5t-221 -48.5q-153 0 -278.5 76t-195 203t-69.5 276t69.5 276t195 203t278.5 76q119 0 221 -48t174 -136v160h139v-1050q0 -220 -137 -353t-376 -133q-143 0 -262.5 56.5t-205.5 153.5l92 92q157 -181 375 -181q168 0 271.5 97.5
t103.5 259.5zM643 100q122 0 221.5 63t153.5 168v397q-54 105 -153.5 169t-221.5 64q-178 0 -300 -127t-122 -304t122 -303.5t300 -126.5zM688 1558l299 -340h-141l-207 233l-207 -233h-141l299 340h98z" />
    <glyph glyph-name="Gbreve" unicode="&#x11e;" horiz-adv-x="1464" 
d="M828 1331q-123 0 -234 -48t-191 -130t-126.5 -196t-46.5 -240q0 -169 79 -310t216.5 -223t302.5 -82q96 0 189 31.5t164 87.5v390h-437v125h580v-577q-97 -86 -225 -135t-271 -49q-155 0 -292.5 57.5t-236.5 156.5t-156.5 236.5t-57.5 291.5t57.5 291.5t156.5 236
t236.5 156t292.5 57.5q261 0 465 -158l-73 -108q-189 139 -392 139zM781 1529q-132 0 -222.5 88t-97.5 223h127q4 -89 56 -147t137 -58t137.5 58t56.5 147h127q-7 -134 -97.5 -222.5t-223.5 -88.5z" />
    <glyph glyph-name="gbreve" unicode="&#x11f;" horiz-adv-x="1312" 
d="M1018 3v157q-72 -88 -174 -136.5t-221 -48.5q-153 0 -278.5 76t-195 203t-69.5 276t69.5 276t195 203t278.5 76q119 0 221 -48t174 -136v160h139v-1050q0 -220 -137 -353t-376 -133q-143 0 -262.5 56.5t-205.5 153.5l92 92q157 -181 375 -181q168 0 271.5 97.5
t103.5 259.5zM643 100q122 0 221.5 63t153.5 168v397q-54 105 -153.5 169t-221.5 64q-178 0 -300 -127t-122 -304t122 -303.5t300 -126.5zM634 1197q-133 0 -223.5 88.5t-97.5 222.5h127q4 -89 56.5 -146.5t137.5 -57.5t137 57.5t56 146.5h127q-7 -135 -97.5 -223
t-222.5 -88z" />
    <glyph glyph-name="Gdotaccent" unicode="&#x120;" horiz-adv-x="1464" 
d="M828 1331q-123 0 -234 -48t-191 -130t-126.5 -196t-46.5 -240q0 -169 79 -310t216.5 -223t302.5 -82q96 0 189 31.5t164 87.5v390h-437v125h580v-577q-97 -86 -225 -135t-271 -49q-155 0 -292.5 57.5t-236.5 156.5t-156.5 236.5t-57.5 291.5t57.5 291.5t156.5 236
t236.5 156t292.5 57.5q261 0 465 -158l-73 -108q-189 139 -392 139zM684 1704q0 40 28 68t68 28q41 0 69 -28t28 -68t-28 -68t-69 -28q-40 0 -68 28t-28 68z" />
    <glyph glyph-name="gdotaccent" unicode="&#x121;" horiz-adv-x="1312" 
d="M1018 3v157q-72 -88 -174 -136.5t-221 -48.5q-153 0 -278.5 76t-195 203t-69.5 276t69.5 276t195 203t278.5 76q119 0 221 -48t174 -136v160h139v-1050q0 -220 -137 -353t-376 -133q-143 0 -262.5 56.5t-205.5 153.5l92 92q157 -181 375 -181q168 0 271.5 97.5
t103.5 259.5zM643 100q122 0 221.5 63t153.5 168v397q-54 105 -153.5 169t-221.5 64q-178 0 -300 -127t-122 -304t122 -303.5t300 -126.5zM532 1372q0 40 28 68t69 28t68.5 -28t27.5 -68t-27.5 -68t-68.5 -28t-69 28t-28 68z" />
    <glyph glyph-name="Gcommaaccent" unicode="&#x122;" horiz-adv-x="1464" 
d="M828 1331q-123 0 -234 -48t-191 -130t-126.5 -196t-46.5 -240q0 -169 79 -310t216.5 -223t302.5 -82q96 0 189 31.5t164 87.5v390h-437v125h580v-577q-97 -86 -225 -135t-271 -49q-155 0 -292.5 57.5t-236.5 156.5t-156.5 236.5t-57.5 291.5t57.5 291.5t156.5 236
t236.5 156t292.5 57.5q261 0 465 -158l-73 -108q-189 139 -392 139zM738 -481h-129l161 350h142z" />
    <glyph glyph-name="gcommaaccent" unicode="&#x123;" horiz-adv-x="1312" 
d="M1018 3v157q-72 -88 -174 -136.5t-221 -48.5q-153 0 -278.5 76t-195 203t-69.5 276t69.5 276t195 203t278.5 76q119 0 221 -48t174 -136v160h139v-1050q0 -220 -137 -353t-376 -133q-143 0 -262.5 56.5t-205.5 153.5l92 92q157 -181 375 -181q168 0 271.5 97.5
t103.5 259.5zM643 100q122 0 221.5 63t153.5 168v397q-54 105 -153.5 169t-221.5 64q-178 0 -300 -127t-122 -304t122 -303.5t300 -126.5zM718 1550h129l-161 -350h-142z" />
    <glyph glyph-name="Hcircumflex" unicode="&#x124;" horiz-adv-x="1413" 
d="M180 0v1434h144v-651h766v651h143v-1434h-143v658h-766v-658h-144zM756 1889l299 -340h-142l-206 234l-207 -234h-142l299 340h99z" />
    <glyph glyph-name="hcircumflex" unicode="&#x125;" horiz-adv-x="1223" 
d="M295 703v-703h-139v1495h139v-636q65 98 158 162t214 64q184 0 302 -119t118 -304v-662h-139v653q0 132 -86.5 220t-219.5 88q-110 0 -197 -73t-150 -185zM274 1951l299 -340h-141l-207 233l-207 -233h-141l299 340h98z" />
    <glyph glyph-name="Hbar" unicode="&#x126;" horiz-adv-x="1439" 
d="M194 0v1091h-134v108h134v235h143v-235h766v235h143v-235h133v-108h-133v-1091h-143v658h-766v-658h-143zM337 783h766v308h-766v-308z" />
    <glyph glyph-name="hbar" unicode="&#x127;" horiz-adv-x="1267" 
d="M36 1214v103h164v178h139v-178h378v-103h-378v-355q65 98 158 162t214 64q184 0 302.5 -119t118.5 -304v-662h-140v653q0 132 -86.5 220t-219.5 88q-110 0 -197 -73t-150 -185v-703h-139v1214h-164z" />
    <glyph glyph-name="Itilde" unicode="&#x128;" horiz-adv-x="577" 
d="M217 1434h143v-1434h-143v1434zM138 1824q83 0 166 -78q28 -27 42 -39t36 -23.5t42 -11.5q63 0 87 125l116 -22q-45 -213 -188 -213q-84 0 -166 77q-29 28 -42 39t-35 23t-42 12q-63 0 -87 -125l-116 23q45 213 187 213z" />
    <glyph glyph-name="itilde" unicode="&#x129;" horiz-adv-x="528" 
d="M195 0v1061h139v-1061h-139zM115 1492q83 0 166 -78q29 -28 42 -39t35 -23t42 -12q63 0 87 125l116 -22q-45 -213 -187 -213q-83 0 -166 78q-27 26 -41.5 38.5t-36.5 23.5t-42 11q-63 0 -87 -125l-116 23q45 213 188 213z" />
    <glyph glyph-name="Imacron" unicode="&#x12a;" horiz-adv-x="577" 
d="M217 1434h143v-1434h-143v1434zM2 1644v110h573v-110h-573z" />
    <glyph glyph-name="imacron" unicode="&#x12b;" horiz-adv-x="528" 
d="M195 0v1061h139v-1061h-139zM-23 1312v110h574v-110h-574z" />
    <glyph glyph-name="Ibreve" unicode="&#x12c;" horiz-adv-x="577" 
d="M217 1434h143v-1434h-143v1434zM289 1529q-133 0 -223.5 88.5t-97.5 222.5h127q4 -89 56.5 -147t137.5 -58t137 58t56 147h127q-7 -135 -97.5 -223t-222.5 -88z" />
    <glyph glyph-name="ibreve" unicode="&#x12d;" horiz-adv-x="528" 
d="M195 0v1061h139v-1061h-139zM264 1197q-132 0 -222.5 88t-97.5 223h127q4 -89 56 -146.5t137 -57.5t137.5 57.5t56.5 146.5h127q-7 -134 -97.5 -222.5t-223.5 -88.5z" />
    <glyph glyph-name="Iogonek" unicode="&#x12e;" horiz-adv-x="577" 
d="M251 0h-34v1434h143v-1434q-93 -76 -139 -133t-46 -117q0 -54 35.5 -90t88.5 -36q61 0 107 34l32 -80q-67 -47 -159 -47q-91 0 -153.5 59t-62.5 146q0 74 50 137.5t138 126.5z" />
    <glyph glyph-name="iogonek" unicode="&#x12f;" horiz-adv-x="528" 
d="M195 0v1061h139v-1061q-94 -76 -140 -133t-46 -117q0 -54 35.5 -90t88.5 -36q61 0 107 34l33 -80q-67 -47 -160 -47q-91 0 -153 59t-62 146q0 74 49.5 137.5t137.5 126.5h-29zM165 1365q0 42 28.5 70.5t70.5 28.5t71 -28.5t29 -70.5t-29 -70.5t-71 -28.5t-70.5 28.5
t-28.5 70.5z" />
    <glyph glyph-name="Idotaccent" unicode="&#x130;" horiz-adv-x="577" 
d="M217 1434h143v-1434h-143v1434zM193 1704q0 40 27.5 68t68.5 28t68.5 -28t27.5 -68t-27.5 -68t-68.5 -28t-68.5 28t-27.5 68z" />
    <glyph glyph-name="dotlessi" unicode="&#x131;" horiz-adv-x="528" 
d="M195 0v1061h139v-1061h-139z" />
    <glyph glyph-name="IJ" unicode="&#x132;" horiz-adv-x="1474" 
d="M217 1434h143v-1434h-143v1434zM1166 427v1007h144v-1007q0 -227 -106 -339.5t-307 -112.5q-72 0 -149 19t-134 51l48 123q48 -29 112 -47.5t119 -18.5q132 0 202.5 81t70.5 244z" />
    <glyph glyph-name="ij" unicode="&#x133;" horiz-adv-x="1057" 
d="M195 0v1061h139v-1061h-139zM165 1365q0 42 28.5 70.5t70.5 28.5t71 -28.5t29 -70.5t-29 -70.5t-71 -28.5t-70.5 28.5t-28.5 70.5zM694 1365q0 42 29 70.5t71 28.5t70.5 -28.5t28.5 -70.5t-28.5 -70.5t-70.5 -28.5t-71 28.5t-29 70.5zM724 -170v1231h139v-1229
q0 -307 -282 -307q-32 0 -78 4v121q34 -2 63 -2q158 0 158 182z" />
    <glyph glyph-name="Jcircumflex" unicode="&#x134;" horiz-adv-x="917" 
d="M609 427v1007h144v-1007q0 -227 -106 -339.5t-307 -112.5q-72 0 -149 19t-134 51l47 123q48 -29 112.5 -47.5t119.5 -18.5q132 0 202.5 81t70.5 244zM729 1889l299 -340h-141l-207 234l-207 -234h-141l299 340h98z" />
    <glyph glyph-name="jcircumflex" unicode="&#x135;" horiz-adv-x="528" 
d="M195 -170v1231h139v-1229q0 -307 -283 -307q-42 0 -78 4v121q20 -2 64 -2q158 0 158 182zM313 1558l299 -340h-141l-207 233l-207 -233h-141l299 340h98z" />
    <glyph glyph-name="Kcommaaccent" unicode="&#x136;" horiz-adv-x="1215" 
d="M324 1434v-651h159l469 651h166l-512 -711l594 -723h-170l-543 658h-163v-658h-144v1434h144zM561 -481h-129l161 350h142z" />
    <glyph glyph-name="kcommaaccent" unicode="&#x137;" horiz-adv-x="1042" 
d="M862 0l-405 529h-162v-529h-139v1495h139v-845h164l344 411h168l-396 -471l451 -590h-164zM453 -481h-129l160 350h143z" />
    <glyph glyph-name="kgreenlandic" unicode="&#x138;" horiz-adv-x="1042" 
d="M862 0l-405 519h-162v-519h-139v1061h139v-421h164l344 421h168l-396 -481l451 -580h-164z" />
    <glyph glyph-name="Lacute" unicode="&#x139;" horiz-adv-x="1054" 
d="M180 0v1434h144v-1309h675v-125h-819zM180 1549l284 340h146l-287 -340h-143z" />
    <glyph glyph-name="lacute" unicode="&#x13a;" horiz-adv-x="528" 
d="M195 0v1495h139v-1495h-139zM126 1611l284 340h146l-288 -340h-142z" />
    <glyph glyph-name="Lcommaaccent" unicode="&#x13b;" horiz-adv-x="1054" 
d="M180 0v1434h144v-1309h675v-125h-819zM515 -481h-129l161 350h142z" />
    <glyph glyph-name="lcommaaccent" unicode="&#x13c;" horiz-adv-x="528" 
d="M195 0v1495h139v-1495h-139zM183 -481h-129l161 350h142z" />
    <glyph glyph-name="Lcaron" unicode="&#x13d;" horiz-adv-x="1054" 
d="M180 0v1434h144v-1309h675v-125h-819zM649 1357q0 43 29.5 72t72.5 29t72 -29t29 -72q0 -22 -10 -45l-122 -274h-96l97 222q-32 9 -52 35.5t-20 61.5z" />
    <glyph glyph-name="lcaron" unicode="&#x13e;" horiz-adv-x="796" 
d="M195 0v1495h139v-1495h-139zM537 1418q0 43 29 72.5t72 29.5t72 -29.5t29 -72.5q0 -22 -10 -45l-122 -273h-96l97 221q-32 9 -51.5 35t-19.5 62z" />
    <glyph glyph-name="Ldot" unicode="&#x13f;" horiz-adv-x="1054" 
d="M180 0v1434h144v-1309h675v-125h-819zM637 770q0 40 27.5 68t68.5 28t68.5 -28t27.5 -68t-27.5 -68t-68.5 -28t-68.5 28t-27.5 68z" />
    <glyph glyph-name="ldot" unicode="&#x140;" horiz-adv-x="797" 
d="M195 0v1495h139v-1495h-139zM548 770q0 40 28 68t68 28t68 -28t28 -68t-28 -68t-68 -28t-68 28t-28 68z" />
    <glyph glyph-name="Lslash" unicode="&#x141;" horiz-adv-x="1088" 
d="M357 1434v-653l414 213v-121l-414 -213v-535h676v-125h-819v587l-154 -79v121l154 79v726h143z" />
    <glyph glyph-name="lslash" unicode="&#x142;" horiz-adv-x="600" 
d="M370 1495v-625l195 100v-114l-195 -99v-757h-140v687l-195 -98v113l195 99v694h140z" />
    <glyph glyph-name="Nacute" unicode="&#x143;" horiz-adv-x="1423" 
d="M180 0v1434h137l787 -1184v1184h139v-1434h-137l-787 1184v-1184h-139zM578 1549l283 340h147l-288 -340h-142z" />
    <glyph glyph-name="nacute" unicode="&#x144;" horiz-adv-x="1223" 
d="M295 703v-703h-139v1061h139v-202q65 98 158 162t214 64q184 0 302 -119t118 -304v-662h-139v653q0 132 -86.5 220t-219.5 88q-110 0 -197 -73t-150 -185zM488 1218l284 340h147l-288 -340h-143z" />
    <glyph glyph-name="Ncommaaccent" unicode="&#x145;" horiz-adv-x="1423" 
d="M180 0v1434h137l787 -1184v1184h139v-1434h-137l-787 1184v-1184h-139zM643 -481h-129l161 350h142z" />
    <glyph glyph-name="ncommaaccent" unicode="&#x146;" horiz-adv-x="1223" 
d="M295 703v-703h-139v1061h139v-202q65 98 158 162t214 64q184 0 302 -119t118 -304v-662h-139v653q0 132 -86.5 220t-219.5 88q-110 0 -197 -73t-150 -185zM549 -481h-129l161 350h142z" />
    <glyph glyph-name="Ncaron" unicode="&#x147;" horiz-adv-x="1423" 
d="M180 0v1434h137l787 -1184v1184h139v-1434h-137l-787 1184v-1184h-139zM1059 1889l-299 -340h-98l-300 340h142l207 -233l207 233h141z" />
    <glyph glyph-name="ncaron" unicode="&#x148;" horiz-adv-x="1223" 
d="M295 703v-703h-139v1061h139v-202q65 98 158 162t214 64q184 0 302 -119t118 -304v-662h-139v653q0 132 -86.5 220t-219.5 88q-110 0 -197 -73t-150 -185zM952 1537l-299 -340h-98l-299 340h141l207 -233l207 233h141z" />
    <glyph glyph-name="napostrophe" unicode="&#x149;" horiz-adv-x="1416" 
d="M487 703v-703h-139v1061h139v-202q65 98 158 162t214 64q184 0 302.5 -119t118.5 -304v-662h-139v653q0 132 -86.5 220t-219.5 88q-110 0 -197.5 -73t-150.5 -185zM83 1418q0 43 29 72.5t72 29.5t72.5 -29.5t29.5 -72.5q0 -19 -11 -45l-121 -273h-97l98 221
q-32 9 -52 35.5t-20 61.5z" />
    <glyph glyph-name="Eng" unicode="&#x14a;" horiz-adv-x="1423" 
d="M1243 1434v-1545q0 -177 -94 -270.5t-273 -93.5q-54 0 -96 8v121q40 -6 94 -6q120 0 175 61.5t55 181.5v112l-785 1181v-1184h-139v1434h137l787 -1184v1184h139z" />
    <glyph glyph-name="eng" unicode="&#x14b;" horiz-adv-x="1223" 
d="M948 -109v762q0 132 -86.5 220t-219.5 88q-110 0 -197 -73t-150 -185v-703h-139v1061h139v-202q65 98 158 162t214 64q184 0 302 -119t118 -304v-773q0 -364 -358 -364q-50 0 -104 8v121q41 -6 94 -6q120 0 174.5 61t54.5 182z" />
    <glyph glyph-name="Omacron" unicode="&#x14c;" horiz-adv-x="1656" 
d="M828 102q165 0 302.5 82t216.5 223t79 310q0 126 -46.5 240t-126.5 196t-191 130t-234 48t-234 -48t-191 -130t-126.5 -196t-46.5 -240q0 -169 79 -310t216.5 -223t302.5 -82zM828 1458q206 0 377 -97.5t269 -267.5t98 -376q0 -154 -58 -292t-156.5 -236.5t-236.5 -156
t-293 -57.5t-292.5 57.5t-236.5 156.5t-156.5 236.5t-57.5 291.5t57.5 291.5t156.5 236t236.5 156t292.5 57.5zM542 1644v110h573v-110h-573z" />
    <glyph glyph-name="omacron" unicode="&#x14d;" horiz-adv-x="1286" 
d="M643 100q178 0 300 126.5t122 303.5t-122 304t-300 127t-300 -127t-122 -304t122 -303.5t300 -126.5zM643 1085q159 0 289 -75.5t202 -202.5t72 -277t-72 -277t-202 -202.5t-289 -75.5t-289 75.5t-202 202.5t-72 277t72 277t202 202.5t289 75.5zM356 1312v110h574v-110
h-574z" />
    <glyph glyph-name="Obreve" unicode="&#x14e;" horiz-adv-x="1656" 
d="M828 102q165 0 302.5 82t216.5 223t79 310q0 126 -46.5 240t-126.5 196t-191 130t-234 48t-234 -48t-191 -130t-126.5 -196t-46.5 -240q0 -169 79 -310t216.5 -223t302.5 -82zM828 1458q206 0 377 -97.5t269 -267.5t98 -376q0 -154 -58 -292t-156.5 -236.5t-236.5 -156
t-293 -57.5t-292.5 57.5t-236.5 156.5t-156.5 236.5t-57.5 291.5t57.5 291.5t156.5 236t236.5 156t292.5 57.5zM828 1529q-132 0 -222.5 88t-97.5 223h127q4 -89 56 -147t137 -58t137.5 58t56.5 147h127q-7 -134 -97.5 -222.5t-223.5 -88.5z" />
    <glyph glyph-name="obreve" unicode="&#x14f;" horiz-adv-x="1286" 
d="M643 100q178 0 300 126.5t122 303.5t-122 304t-300 127t-300 -127t-122 -304t122 -303.5t300 -126.5zM643 1085q159 0 289 -75.5t202 -202.5t72 -277t-72 -277t-202 -202.5t-289 -75.5t-289 75.5t-202 202.5t-72 277t72 277t202 202.5t289 75.5zM643 1197
q-132 0 -222.5 88t-97.5 223h127q4 -89 56 -146.5t137 -57.5t137.5 57.5t56.5 146.5h127q-7 -134 -97.5 -222.5t-223.5 -88.5z" />
    <glyph glyph-name="Ohungarumlaut" unicode="&#x150;" horiz-adv-x="1656" 
d="M828 102q165 0 302.5 82t216.5 223t79 310q0 126 -46.5 240t-126.5 196t-191 130t-234 48t-234 -48t-191 -130t-126.5 -196t-46.5 -240q0 -169 79 -310t216.5 -223t302.5 -82zM828 1458q206 0 377 -97.5t269 -267.5t98 -376q0 -154 -58 -292t-156.5 -236.5t-236.5 -156
t-293 -57.5t-292.5 57.5t-236.5 156.5t-156.5 236.5t-57.5 291.5t57.5 291.5t156.5 236t236.5 156t292.5 57.5zM561 1549l284 340h146l-288 -340h-142zM871 1549l284 340h147l-288 -340h-143z" />
    <glyph glyph-name="ohungarumlaut" unicode="&#x151;" horiz-adv-x="1286" 
d="M643 100q178 0 300 126.5t122 303.5t-122 304t-300 127t-300 -127t-122 -304t122 -303.5t300 -126.5zM643 1085q159 0 289 -75.5t202 -202.5t72 -277t-72 -277t-202 -202.5t-289 -75.5t-289 75.5t-202 202.5t-72 277t72 277t202 202.5t289 75.5zM368 1218l283 340h147
l-288 -340h-142zM678 1218l284 340h146l-288 -340h-142z" />
    <glyph glyph-name="OE" unicode="&#x152;" horiz-adv-x="1828" 
d="M867 127h13v1180h-13q-132 0 -250 -45.5t-203 -124t-134.5 -188t-49.5 -232.5t49.5 -232.5t134.5 -188t203 -124t250 -45.5zM1704 0h-837q-215 0 -395 94.5t-283.5 259t-103.5 363.5t103.5 363.5t283.5 259t395 94.5h819v-125h-663v-526h608v-125h-608v-533h681v-125z
" />
    <glyph glyph-name="oe" unicode="&#x153;" horiz-adv-x="2173" 
d="M627 1085q157 0 285.5 -86t190.5 -226q60 138 187 225t284 87q112 0 209.5 -42t165 -113t106.5 -168t39 -205q0 -37 -7 -68h-912q11 -166 126 -279.5t284 -113.5q199 0 343 168l96 -89q-80 -95 -192.5 -147.5t-243.5 -52.5q-167 0 -296.5 86.5t-189.5 224.5
q-62 -140 -190 -225.5t-285 -85.5q-152 0 -278 74t-197.5 201t-71.5 280t71.5 280t197.5 201t278 74zM627 100q170 0 287.5 124.5t117.5 305.5t-117.5 306t-287.5 125t-288 -125t-118 -306t118 -305.5t288 -124.5zM1574 965q-149 0 -260 -103.5t-133 -255.5h768
q-18 157 -121.5 258t-253.5 101z" />
    <glyph glyph-name="Racute" unicode="&#x154;" horiz-adv-x="1215" 
d="M567 561h-243v-561h-144v1434h433q223 0 356.5 -119.5t133.5 -317.5q0 -171 -102.5 -285t-278.5 -142l404 -570h-159zM957 997q0 142 -94 227t-255 85h-284v-623h284q161 0 255 84.5t94 226.5zM455 1549l283 340h147l-288 -340h-142z" />
    <glyph glyph-name="racute" unicode="&#x155;" horiz-adv-x="793" 
d="M626 961q-92 0 -180.5 -78.5t-150.5 -200.5v-682h-139v1061h139v-213q68 103 157 170t191 67q54 0 102 -20l-12 -125q-57 21 -107 21zM254 1218l284 340h146l-288 -340h-142z" />
    <glyph glyph-name="Rcommaaccent" unicode="&#x156;" horiz-adv-x="1215" 
d="M567 561h-243v-561h-144v1434h433q223 0 356.5 -119.5t133.5 -317.5q0 -171 -102.5 -285t-278.5 -142l404 -570h-159zM957 997q0 142 -94 227t-255 85h-284v-623h284q161 0 255 84.5t94 226.5zM530 -481h-129l161 350h143z" />
    <glyph glyph-name="rcommaaccent" unicode="&#x157;" horiz-adv-x="793" 
d="M626 961q-92 0 -180.5 -78.5t-150.5 -200.5v-682h-139v1061h139v-213q68 103 157 170t191 67q54 0 102 -20l-12 -125q-57 21 -107 21zM144 -481h-129l161 350h142z" />
    <glyph glyph-name="Rcaron" unicode="&#x158;" horiz-adv-x="1215" 
d="M567 561h-243v-561h-144v1434h433q223 0 356.5 -119.5t133.5 -317.5q0 -171 -102.5 -285t-278.5 -142l404 -570h-159zM957 997q0 142 -94 227t-255 85h-284v-623h284q161 0 255 84.5t94 226.5zM919 1889l-299 -340h-99l-299 340h142l206 -233l207 233h142z" />
    <glyph glyph-name="rcaron" unicode="&#x159;" horiz-adv-x="793" 
d="M626 961q-92 0 -180.5 -78.5t-150.5 -200.5v-682h-139v1061h139v-213q68 103 157 170t191 67q54 0 102 -20l-12 -125q-57 21 -107 21zM742 1537l-299 -340h-98l-299 340h141l207 -233l207 233h141z" />
    <glyph glyph-name="Sacute" unicode="&#x15a;" horiz-adv-x="1191" 
d="M114 205l92 99q74 -89 177.5 -145.5t215.5 -56.5q155 0 254.5 75t99.5 194q0 233 -368 309q-216 45 -329.5 147.5t-113.5 252.5q0 166 123.5 272t319.5 106q256 0 438 -182l-86 -104q-164 159 -344 159q-135 0 -220 -68t-85 -172q0 -213 355 -291q234 -52 345 -158.5
t111 -268.5q0 -174 -135.5 -286t-357.5 -112q-146 0 -276.5 63t-215.5 167zM461 1549l283 340h147l-288 -340h-142z" />
    <glyph glyph-name="sacute" unicode="&#x15b;" horiz-adv-x="945" 
d="M79 152l79 96q57 -70 139 -111t177 -41q115 0 183.5 51.5t68.5 135.5q0 159 -268 210q-171 33 -257.5 110.5t-86.5 194.5q0 123 99 205t258 82q202 0 346 -139l-76 -96q-125 115 -261 115q-97 0 -162 -48.5t-65 -120.5q0 -67 64 -117t186 -74q362 -70 362 -324
q0 -134 -103 -220t-280 -86q-126 0 -230 47.5t-173 129.5zM319 1218l284 340h147l-288 -340h-143z" />
    <glyph glyph-name="Scircumflex" unicode="&#x15c;" horiz-adv-x="1191" 
d="M114 205l92 99q74 -89 177.5 -145.5t215.5 -56.5q155 0 254.5 75t99.5 194q0 233 -368 309q-216 45 -329.5 147.5t-113.5 252.5q0 166 123.5 272t319.5 106q256 0 438 -182l-86 -104q-164 159 -344 159q-135 0 -220 -68t-85 -172q0 -213 355 -291q234 -52 345 -158.5
t111 -268.5q0 -174 -135.5 -286t-357.5 -112q-146 0 -276.5 63t-215.5 167zM634 1889l299 -340h-141l-207 234l-207 -234h-141l299 340h98z" />
    <glyph glyph-name="scircumflex" unicode="&#x15d;" horiz-adv-x="945" 
d="M79 152l79 96q57 -70 139 -111t177 -41q115 0 183.5 51.5t68.5 135.5q0 159 -268 210q-171 33 -257.5 110.5t-86.5 194.5q0 123 99 205t258 82q202 0 346 -139l-76 -96q-125 115 -261 115q-97 0 -162 -48.5t-65 -120.5q0 -67 64 -117t186 -74q362 -70 362 -324
q0 -134 -103 -220t-280 -86q-126 0 -230 47.5t-173 129.5zM508 1558l299 -340h-141l-207 233l-207 -233h-141l299 340h98z" />
    <glyph glyph-name="Scedilla" unicode="&#x15e;" horiz-adv-x="1191" 
d="M564 -206q-32 0 -57 -5l-27 31l88 156q-135 8 -255.5 70t-198.5 159l92 99q74 -89 177.5 -145.5t215.5 -56.5q155 0 254.5 75t99.5 194q0 233 -368 309q-216 45 -329.5 147.5t-113.5 252.5q0 166 123.5 272t319.5 106q256 0 438 -182l-86 -104q-164 159 -344 159
q-135 0 -220 -68t-85 -172q0 -213 355 -291q234 -52 345 -158.5t111 -268.5q0 -159 -114 -266.5t-305 -126.5l-67 -109q92 -10 148.5 -67t56.5 -132q0 -87 -71.5 -145.5t-176.5 -58.5q-104 0 -176 58l50 74q46 -42 120 -42q61 0 102 33t41 83t-40.5 85t-102.5 35z" />
    <glyph glyph-name="scedilla" unicode="&#x15f;" horiz-adv-x="945" 
d="M433 -206q-32 0 -57 -5l-27 31l88 157q-111 7 -203 53.5t-155 121.5l79 96q57 -70 139 -111t177 -41q115 0 183.5 51.5t68.5 135.5q0 159 -268 210q-171 33 -257.5 110.5t-86.5 194.5q0 123 99 205t258 82q202 0 346 -139l-76 -96q-125 115 -261 115q-97 0 -162 -48.5
t-65 -120.5q0 -67 64 -117t186 -74q362 -70 362 -324q0 -121 -84 -203t-232 -98l-67 -109q92 -10 148.5 -67t56.5 -132q0 -87 -71.5 -145.5t-176.5 -58.5q-104 0 -176 58l50 74q47 -42 120 -42q61 0 101.5 33t40.5 83t-40.5 85t-101.5 35z" />
    <glyph glyph-name="Scaron" unicode="&#x160;" horiz-adv-x="1191" 
d="M114 205l92 99q74 -89 177.5 -145.5t215.5 -56.5q155 0 254.5 75t99.5 194q0 233 -368 309q-216 45 -329.5 147.5t-113.5 252.5q0 166 123.5 272t319.5 106q256 0 438 -182l-86 -104q-164 159 -344 159q-135 0 -220 -68t-85 -172q0 -213 355 -291q234 -52 345 -158.5
t111 -268.5q0 -174 -135.5 -286t-357.5 -112q-146 0 -276.5 63t-215.5 167zM933 1889l-299 -340h-98l-299 340h141l207 -233l207 233h141z" />
    <glyph glyph-name="scaron" unicode="&#x161;" horiz-adv-x="945" 
d="M79 152l79 96q57 -70 139 -111t177 -41q115 0 183.5 51.5t68.5 135.5q0 159 -268 210q-171 33 -257.5 110.5t-86.5 194.5q0 123 99 205t258 82q202 0 346 -139l-76 -96q-125 115 -261 115q-97 0 -162 -48.5t-65 -120.5q0 -67 64 -117t186 -74q362 -70 362 -324
q0 -134 -103 -220t-280 -86q-126 0 -230 47.5t-173 129.5zM811 1537l-299 -340h-98l-299 340h141l207 -233l207 233h141z" />
    <glyph glyph-name="Tcommaaccent" unicode="&#x162;" horiz-adv-x="1112" 
d="M484 0v1309h-418v125h981v-125h-419v-1309l-80 -129q92 -10 148.5 -67t56.5 -132q0 -87 -71.5 -145.5t-176.5 -58.5q-104 0 -176 58l50 74q47 -42 120 -42q61 0 101.5 33t40.5 83t-40.5 85t-101.5 35q-33 0 -58 -5l-26 31l101 180h-32z" />
    <glyph glyph-name="tcommaaccent" unicode="&#x163;" horiz-adv-x="773" 
d="M372 -206q-33 0 -58 -5l-26 31l111 199q-144 79 -144 306v613h-207v123h207v295l139 12v-307h312v-123h-312v-612q0 -115 54 -171.5t172 -56.5q56 0 98 6v-120q-54 -9 -109 -9q-56 0 -116 12l-72 -116q92 -10 148.5 -67t56.5 -132q0 -87 -71.5 -145.5t-176.5 -58.5
q-104 0 -176 58l50 74q46 -42 120 -42q61 0 101.5 33t40.5 83t-40.5 85t-101.5 35z" />
    <glyph glyph-name="Tcaron" unicode="&#x164;" horiz-adv-x="1112" 
d="M484 0v1309h-418v125h981v-125h-419v-1309h-144zM903 1889l-299 -340h-98l-299 340h141l207 -233l207 233h141z" />
    <glyph glyph-name="tcaron" unicode="&#x165;" horiz-adv-x="1072" 
d="M394 938v-612q0 -115 54 -171.5t172 -56.5q56 0 98 6v-120q-54 -9 -109 -9q-180 0 -267 87t-87 263v613h-207v123h207v295l139 12v-307h312v-123h-312zM812 1418q0 43 29 72.5t72 29.5t72.5 -29.5t29.5 -72.5q0 -22 -10 -45l-122 -273h-97l98 221q-32 9 -52 35.5
t-20 61.5z" />
    <glyph glyph-name="Tbar" unicode="&#x166;" horiz-adv-x="1112" 
d="M484 0v660h-286v113h286v536h-418v125h981v-125h-419v-536h286v-113h-286v-660h-144z" />
    <glyph glyph-name="tbar" unicode="&#x167;" horiz-adv-x="773" 
d="M394 938v-338h265v-102h-265v-172q0 -115 54 -171.5t172 -56.5q56 0 98 6v-120q-54 -9 -109 -9q-180 0 -267 87t-87 263v173h-179v102h179v338h-207v123h207v295l139 12v-307h312v-123h-312z" />
    <glyph glyph-name="Utilde" unicode="&#x168;" horiz-adv-x="1349" 
d="M1185 1434v-940q0 -153 -66.5 -271.5t-182.5 -182t-261 -63.5t-261 63.5t-182.5 182t-66.5 271.5v940h143v-955q0 -166 103.5 -270.5t263.5 -104.5q159 0 262.5 104.5t103.5 270.5v955h144zM524 1824q83 0 166 -78q28 -27 42 -39t36 -23.5t42 -11.5q63 0 87 125l116 -22
q-45 -213 -188 -213q-84 0 -166 77q-29 28 -42 39t-35 23t-42 12q-63 0 -87 -125l-116 23q45 213 187 213z" />
    <glyph glyph-name="utilde" unicode="&#x169;" horiz-adv-x="1223" 
d="M929 357v704h139v-1061h-139v202q-65 -98 -158 -162.5t-214 -64.5q-184 0 -302.5 119.5t-118.5 304.5v662h139v-653q0 -131 87 -219.5t220 -88.5q202 0 347 257zM452 1492q82 0 165 -78q28 -27 42 -39t36 -23.5t42 -11.5q63 0 87 125l116 -22q-45 -213 -187 -213
q-83 0 -166 78q-27 26 -41.5 38.5t-36.5 23.5t-42 11q-63 0 -87 -125l-116 23q45 213 188 213z" />
    <glyph glyph-name="Umacron" unicode="&#x16a;" horiz-adv-x="1349" 
d="M1185 1434v-940q0 -153 -66.5 -271.5t-182.5 -182t-261 -63.5t-261 63.5t-182.5 182t-66.5 271.5v940h143v-955q0 -166 103.5 -270.5t263.5 -104.5q159 0 262.5 104.5t103.5 270.5v955h144zM388 1644v110h574v-110h-574z" />
    <glyph glyph-name="umacron" unicode="&#x16b;" horiz-adv-x="1223" 
d="M929 357v704h139v-1061h-139v202q-65 -98 -158 -162.5t-214 -64.5q-184 0 -302.5 119.5t-118.5 304.5v662h139v-653q0 -131 87 -219.5t220 -88.5q202 0 347 257zM315 1312v110h574v-110h-574z" />
    <glyph glyph-name="Ubreve" unicode="&#x16c;" horiz-adv-x="1349" 
d="M1185 1434v-940q0 -153 -66.5 -271.5t-182.5 -182t-261 -63.5t-261 63.5t-182.5 182t-66.5 271.5v940h143v-955q0 -166 103.5 -270.5t263.5 -104.5q159 0 262.5 104.5t103.5 270.5v955h144zM675 1529q-133 0 -223.5 88.5t-97.5 222.5h127q4 -89 56.5 -147t137.5 -58
t137 58t56 147h127q-7 -135 -97.5 -223t-222.5 -88z" />
    <glyph glyph-name="ubreve" unicode="&#x16d;" horiz-adv-x="1223" 
d="M929 357v704h139v-1061h-139v202q-65 -98 -158 -162.5t-214 -64.5q-184 0 -302.5 119.5t-118.5 304.5v662h139v-653q0 -131 87 -219.5t220 -88.5q202 0 347 257zM602 1197q-132 0 -222.5 88t-97.5 223h127q4 -89 56 -146.5t137 -57.5t137.5 57.5t56.5 146.5h127
q-7 -134 -97.5 -222.5t-223.5 -88.5z" />
    <glyph glyph-name="Uring" unicode="&#x16e;" horiz-adv-x="1349" 
d="M1185 1434v-940q0 -153 -66.5 -271.5t-182.5 -182t-261 -63.5t-261 63.5t-182.5 182t-66.5 271.5v940h143v-955q0 -166 103.5 -270.5t263.5 -104.5q159 0 262.5 104.5t103.5 270.5v955h144zM562 1726q0 -47 33 -79t80 -32t79.5 32t32.5 79t-32.5 79.5t-79.5 32.5
t-80 -32.5t-33 -79.5zM466 1726q0 84 60 141t149 57t149 -57t60 -141t-60 -140.5t-149 -56.5t-149 56.5t-60 140.5z" />
    <glyph glyph-name="uring" unicode="&#x16f;" horiz-adv-x="1223" 
d="M929 357v704h139v-1061h-139v202q-65 -98 -158 -162.5t-214 -64.5q-184 0 -302.5 119.5t-118.5 304.5v662h139v-653q0 -131 87 -219.5t220 -88.5q202 0 347 257zM489 1395q0 -47 33 -79.5t80 -32.5t80 32.5t33 79.5t-33 79t-80 32t-80 -32t-33 -79zM393 1395
q0 84 60 140.5t149 56.5t149 -56.5t60 -140.5t-60 -141t-149 -57t-149 57t-60 141z" />
    <glyph glyph-name="Uhungarumlaut" unicode="&#x170;" horiz-adv-x="1349" 
d="M1185 1434v-940q0 -153 -66.5 -271.5t-182.5 -182t-261 -63.5t-261 63.5t-182.5 182t-66.5 271.5v940h143v-955q0 -166 103.5 -270.5t263.5 -104.5q159 0 262.5 104.5t103.5 270.5v955h144zM409 1549l283 340h147l-288 -340h-142zM719 1549l283 340h147l-288 -340h-142z
" />
    <glyph glyph-name="uhungarumlaut" unicode="&#x171;" horiz-adv-x="1223" 
d="M929 357v704h139v-1061h-139v202q-65 -98 -158 -162.5t-214 -64.5q-184 0 -302.5 119.5t-118.5 304.5v662h139v-653q0 -131 87 -219.5t220 -88.5q202 0 347 257zM324 1218l283 340h147l-288 -340h-142zM634 1218l284 340h146l-288 -340h-142z" />
    <glyph glyph-name="Uogonek" unicode="&#x172;" horiz-adv-x="1349" 
d="M1185 1434v-940q0 -206 -116 -343t-304 -166q-82 -69 -124 -123.5t-42 -111.5q0 -54 35.5 -90t88.5 -36q60 0 106 34l33 -80q-67 -47 -160 -47q-91 0 -153 59t-62 146q0 121 158 242q-210 10 -345 151.5t-135 364.5v940h143v-955q0 -166 103.5 -270.5t263.5 -104.5
q159 0 262.5 104.5t103.5 270.5v955h144z" />
    <glyph glyph-name="uogonek" unicode="&#x173;" horiz-adv-x="1223" 
d="M958 0h-29v202q-65 -98 -158 -162.5t-214 -64.5q-184 0 -302.5 119.5t-118.5 304.5v662h139v-653q0 -131 87 -219.5t220 -88.5q202 0 347 257v704h139v-1061q-93 -76 -139 -133t-46 -117q0 -54 35.5 -90t88.5 -36q60 0 106 34l33 -80q-67 -47 -160 -47q-91 0 -153 59
t-62 146q0 74 49.5 137.5t137.5 126.5z" />
    <glyph glyph-name="Wcircumflex" unicode="&#x174;" horiz-adv-x="1953" 
d="M903 1434h148l354 -1225l342 1225h151l-415 -1434h-148l-358 1236l-359 -1236h-147l-416 1434h152l342 -1225zM1026 1889l299 -340h-141l-207 234l-207 -234h-141l299 340h98z" />
    <glyph glyph-name="wcircumflex" unicode="&#x175;" horiz-adv-x="1581" 
d="M719 1061h143l263 -866l274 866h147l-348 -1061h-143l-264 869l-265 -869h-143l-348 1061h147l274 -866zM840 1558l299 -340h-142l-206 233l-207 -233h-142l299 340h99z" />
    <glyph glyph-name="Ycircumflex" unicode="&#x176;" horiz-adv-x="1310" 
d="M213 1434l442 -705l443 705h157l-528 -846v-588h-143v588l-529 846h158zM705 1889l299 -340h-142l-207 234l-206 -234h-142l299 340h99z" />
    <glyph glyph-name="ycircumflex" unicode="&#x177;" horiz-adv-x="1069" 
d="M269 -475l196 484l-430 1052h147l355 -874l350 874h147l-617 -1536h-148zM586 1558l299 -340h-142l-206 233l-207 -233h-142l299 340h99z" />
    <glyph glyph-name="Ydieresis" unicode="&#x178;" horiz-adv-x="1310" 
d="M213 1434l442 -705l443 705h157l-528 -846v-588h-143v588l-529 846h158zM381 1704q0 40 27.5 68t68.5 28t68.5 -28t27.5 -68t-27.5 -68t-68.5 -28t-68.5 28t-27.5 68zM737 1704q0 40 28 68t69 28q40 0 68 -28t28 -68t-28 -68t-68 -28q-41 0 -69 28t-28 68z" />
    <glyph glyph-name="Zacute" unicode="&#x179;" horiz-adv-x="1217" 
d="M125 125l786 1184h-755v125h925v-125l-786 -1184h807v-125h-977v125zM459 1549l283 340h147l-288 -340h-142z" />
    <glyph glyph-name="zacute" unicode="&#x17a;" horiz-adv-x="1026" 
d="M103 0v123l626 815h-599v123h768v-123l-626 -815h647v-123h-816zM357 1218l284 340h146l-287 -340h-143z" />
    <glyph glyph-name="Zdotaccent" unicode="&#x17b;" horiz-adv-x="1217" 
d="M125 125l786 1184h-755v125h925v-125l-786 -1184h807v-125h-977v125zM516 1704q0 40 28 68t68 28q41 0 69 -28t28 -68t-28 -68t-69 -28q-40 0 -68 28t-28 68z" />
    <glyph glyph-name="zdotaccent" unicode="&#x17c;" horiz-adv-x="1026" 
d="M103 0v123l626 815h-599v123h768v-123l-626 -815h647v-123h-816zM420 1372q0 40 28 68t68 28t68 -28t28 -68t-28 -68t-68 -28t-68 28t-28 68z" />
    <glyph glyph-name="Zcaron" unicode="&#x17d;" horiz-adv-x="1217" 
d="M125 125l786 1184h-755v125h925v-125l-786 -1184h807v-125h-977v125zM963 1889l-299 -340h-99l-299 340h142l206 -233l207 233h142z" />
    <glyph glyph-name="zcaron" unicode="&#x17e;" horiz-adv-x="1026" 
d="M103 0v123l626 815h-599v123h768v-123l-626 -815h647v-123h-816zM858 1537l-299 -340h-98l-299 340h141l207 -233l207 233h141z" />
    <glyph glyph-name="longs" unicode="&#x17f;" horiz-adv-x="757" 
d="M710 1487v-121q-36 6 -95 6q-120 0 -174.5 -61.5t-54.5 -182.5v-1128h-139v938h-199v123h199v69q0 365 358 365q55 0 105 -8z" />
    <glyph glyph-name="uni0191" unicode="&#x191;" horiz-adv-x="1067" 
d="M180 -109v1543h801v-125h-657v-525h603v-125h-603v-770q0 -364 -355 -364q-48 0 -102 8v121q36 -6 90 -6q116 0 169.5 61.5t53.5 181.5z" />
    <glyph glyph-name="florin" unicode="&#x192;" horiz-adv-x="757" 
d="M386 938v-1049q0 -364 -358 -364q-55 0 -105 8v121q36 -6 94 -6q120 0 175 61.5t55 181.5v1047h-199v123h199v69q0 365 358 365q55 0 105 -8v-121q-36 6 -95 6q-120 0 -174.5 -61.5t-54.5 -182.5v-67h324v-123h-324z" />
    <glyph glyph-name="Aringacute" unicode="&#x1fa;" horiz-adv-x="1380" 
d="M492 1528q0 77 56.5 128.5t141.5 51.5t142 -51.5t57 -128.5q0 -51 -26.5 -92.5t-71.5 -65.5l532 -1370h-158l-147 394h-656l-147 -394h-158l533 1370q-45 24 -71.5 65.5t-26.5 92.5zM974 519l-284 754l-283 -754h567zM743 1749h-140l206 248h144zM588 1528
q0 -41 29 -67.5t73 -26.5t73.5 27t29.5 67t-29.5 67t-73.5 27t-73 -26.5t-29 -67.5z" />
    <glyph glyph-name="aringacute" unicode="&#x1fb;" horiz-adv-x="1312" 
d="M534 1362q0 -47 32.5 -79.5t79.5 -32.5t80 32.5t33 79.5t-33 79.5t-80 32.5t-79.5 -32.5t-32.5 -79.5zM437 1362q0 84 60 141t149 57t149 -57t60 -141t-60 -141t-149 -57t-149 57t-60 141zM643 100q122 0 221.5 63t153.5 168v397q-54 105 -153.5 169t-221.5 64
q-178 0 -300 -127t-122 -304t122 -303.5t300 -126.5zM623 1085q119 0 221 -48t174 -136v160h139v-1061h-139v160q-72 -88 -174 -136.5t-221 -48.5q-153 0 -278.5 76t-195 203t-69.5 276t69.5 276t195 203t278.5 76zM694 1606h-140l223 268h145z" />
    <glyph glyph-name="AEacute" unicode="&#x1fc;" horiz-adv-x="1887" 
d="M202 0h-165l836 1434h871v-125h-663v-526h609v-125h-609v-533h681v-125h-824v394h-509zM500 519h438v756zM829 1549l284 340h147l-288 -340h-143z" />
    <glyph glyph-name="aeacute" unicode="&#x1fd;" horiz-adv-x="2063" 
d="M1065 489q11 -166 126 -279.5t284 -113.5q199 0 343 168l96 -89q-80 -95 -192.5 -147.5t-243.5 -52.5q-152 0 -274.5 70t-189.5 188q-69 -120 -188 -189t-263 -69q-134 0 -245 45t-174.5 123.5t-63.5 172.5q0 92 63 168t171.5 119.5t236.5 43.5q101 0 207.5 -30.5
t177.5 -78.5q-1 8 -1 27q0 14 5 59q-15 158 -121.5 249.5t-258.5 91.5q-195 0 -347 -132l-55 109q180 143 405 143q152 0 273.5 -72.5t173.5 -201.5q64 124 184 199t269 75q112 0 209.5 -42t165 -113t106.5 -168t39 -205q0 -37 -7 -68h-911zM569 96q124 0 230.5 66.5
t162.5 176.5q-18 52 -22 91q-65 51 -166 79t-202 28q-150 0 -251.5 -64.5t-101.5 -156.5t101 -156t249 -64zM1463 965q-148 0 -259 -103.5t-134 -255.5h768q-17 156 -121 257.5t-254 101.5zM884 1218l283 340h147l-288 -340h-142z" />
    <glyph glyph-name="Oslashacute" unicode="&#x1fe;" horiz-adv-x="1656" 
d="M828 1458q223 0 408 -117l121 154h137l-172 -219q118 -102 184 -247t66 -312q0 -154 -58 -292t-156.5 -236.5t-236.5 -156t-293 -57.5q-238 0 -427 129l-130 -165h-137l183 233q-110 102 -171 243t-61 302q0 154 57.5 291.5t156.5 236t236.5 156t292.5 57.5zM828 102
q165 0 302.5 82t216.5 223t79 310q0 132 -50 248t-139 202l-752 -956q152 -109 343 -109zM230 717q0 -126 45.5 -238t127.5 -197l749 953q-147 96 -324 96q-123 0 -234 -48t-191 -130t-126.5 -196t-46.5 -240zM702 1549l284 340h147l-288 -340h-143z" />
    <glyph glyph-name="oslashacute" unicode="&#x1ff;" horiz-adv-x="1286" 
d="M643 1085q169 0 308 -88l100 125h132l-151 -187q83 -77 128.5 -182.5t45.5 -222.5q0 -150 -72 -277t-202 -202.5t-289 -75.5q-170 0 -308 87l-99 -123h-133l150 187q-82 76 -127.5 181t-45.5 223q0 150 72 277t202 202.5t289 75.5zM643 100q178 0 300 126.5t122 303.5
q0 174 -118 298l-530 -662q102 -66 226 -66zM221 530q0 -174 117 -299l530 664q-105 66 -225 66q-178 0 -300 -127t-122 -304zM512 1218l284 340h146l-288 -340h-142z" />
    <glyph glyph-name="Scommaaccent" unicode="&#x218;" horiz-adv-x="1191" 
d="M114 205l92 99q74 -89 177.5 -145.5t215.5 -56.5q155 0 254.5 75t99.5 194q0 233 -368 309q-216 45 -329.5 147.5t-113.5 252.5q0 166 123.5 272t319.5 106q256 0 438 -182l-86 -104q-164 159 -344 159q-135 0 -220 -68t-85 -172q0 -213 355 -291q234 -52 345 -158.5
t111 -268.5q0 -174 -135.5 -286t-357.5 -112q-146 0 -276.5 63t-215.5 167zM554 -481h-129l161 350h142z" />
    <glyph glyph-name="scommaaccent" unicode="&#x219;" horiz-adv-x="945" 
d="M79 152l79 96q57 -70 139 -111t177 -41q115 0 183.5 51.5t68.5 135.5q0 159 -268 210q-171 33 -257.5 110.5t-86.5 194.5q0 123 99 205t258 82q202 0 346 -139l-76 -96q-125 115 -261 115q-97 0 -162 -48.5t-65 -120.5q0 -67 64 -117t186 -74q362 -70 362 -324
q0 -134 -103 -220t-280 -86q-126 0 -230 47.5t-173 129.5zM416 -481h-129l160 350h143z" />
    <glyph glyph-name="uni021A" unicode="&#x21a;" horiz-adv-x="1112" 
d="M484 0v1309h-418v125h981v-125h-419v-1309h-144zM492 -481h-130l161 350h143z" />
    <glyph glyph-name="uni021B" unicode="&#x21b;" horiz-adv-x="773" 
d="M394 938v-612q0 -115 54 -171.5t172 -56.5q56 0 98 6v-120q-54 -9 -109 -9q-180 0 -267 87t-87 263v613h-207v123h207v295l139 12v-307h312v-123h-312zM340 -481h-129l161 350h142z" />
    <glyph glyph-name="dotlessj" unicode="&#x237;" horiz-adv-x="528" 
d="M195 -170v1231h139v-1229q0 -307 -283 -307q-42 0 -78 4v121q20 -2 64 -2q158 0 158 182z" />
    <glyph glyph-name="apostrophe" unicode="&#x2bc;" horiz-adv-x="843" 
d="M324 1388q0 43 29 72t72 29t72 -29t29 -72q0 -23 -10 -46l-122 -273h-96l97 221q-32 9 -51.5 35.5t-19.5 62.5z" />
    <glyph glyph-name="circumflex" unicode="&#x2c6;" horiz-adv-x="843" 
d="M471 1490l299 -340h-141l-207 233l-207 -233h-141l299 340h98z" />
    <glyph glyph-name="caron" unicode="&#x2c7;" horiz-adv-x="843" 
d="M770 1490l-299 -340h-98l-299 340h141l207 -234l207 234h141z" />
    <glyph glyph-name="uni02C9" unicode="&#x2c9;" horiz-adv-x="843" 
d="M135 1265v110h574v-110h-574z" />
    <glyph glyph-name="breve" unicode="&#x2d8;" horiz-adv-x="843" 
d="M422 1158q-133 0 -223.5 88.5t-97.5 222.5h127q4 -89 56.5 -146.5t137.5 -57.5t137 57.5t56 146.5h127q-7 -135 -97.5 -223t-222.5 -88z" />
    <glyph glyph-name="dotaccent" unicode="&#x2d9;" horiz-adv-x="843" 
d="M326 1323q0 41 28 68.5t68 27.5t68 -27.5t28 -68.5t-28 -68.5t-68 -27.5t-68 27.5t-28 68.5z" />
    <glyph glyph-name="ring" unicode="&#x2da;" horiz-adv-x="843" 
d="M309 1317q0 -47 33 -79.5t80 -32.5t80 32.5t33 79.5t-33 79t-80 32t-80 -32t-33 -79zM213 1317q0 84 60 140.5t149 56.5t149 -56.5t60 -140.5t-60 -141t-149 -57t-149 57t-60 141z" />
    <glyph glyph-name="ogonek" unicode="&#x2db;" horiz-adv-x="843" 
d="M433 0h110q-94 -76 -140 -133t-46 -117q0 -54 35.5 -90t88.5 -36q61 0 107 34l33 -80q-67 -47 -160 -47q-91 0 -153 59t-62 146q0 74 49.5 137.5t137.5 126.5z" />
    <glyph glyph-name="tilde" unicode="&#x2dc;" horiz-adv-x="843" 
d="M271 1445q83 0 166 -78q28 -27 42 -39t36 -23.5t42 -11.5q63 0 87 125l116 -22q-45 -213 -188 -213q-82 0 -165 78q-27 26 -41.5 38.5t-36.5 23.5t-42 11q-63 0 -87 -125l-116 23q45 213 187 213z" />
    <glyph glyph-name="hungarumlaut" unicode="&#x2dd;" horiz-adv-x="843" 
d="M109 1155l283 340h147l-288 -340h-142zM419 1155l283 340h147l-288 -340h-142z" />
    <glyph glyph-name="gravecomb" unicode="&#x300;" horiz-adv-x="0" 
d="M-552 1495l284 -340h-143l-287 340h146z" />
    <glyph glyph-name="acutecomb" unicode="&#x301;" horiz-adv-x="0" 
d="M-575 1155l283 340h147l-288 -340h-142z" />
    <glyph glyph-name="uni0302" unicode="&#x302;" horiz-adv-x="0" 
d="M-373 1490l299 -340h-141l-207 233l-207 -233h-141l299 340h98z" />
    <glyph glyph-name="tildecomb" unicode="&#x303;" horiz-adv-x="0" 
d="M-572 1445q82 0 165 -78q28 -27 42 -39t36 -23.5t42 -11.5q63 0 87 125l116 -22q-45 -213 -187 -213q-83 0 -166 78q-27 26 -41.5 38.5t-36.5 23.5t-42 11q-63 0 -87 -125l-116 23q45 213 188 213z" />
    <glyph glyph-name="uni0304" unicode="&#x304;" horiz-adv-x="0" 
d="M-709 1267v110h574v-110h-574z" />
    <glyph glyph-name="uni0306" unicode="&#x306;" horiz-adv-x="0" 
d="M-422 1158q-132 0 -222.5 88t-97.5 223h127q4 -89 56 -146.5t137 -57.5t137.5 57.5t56.5 146.5h127q-7 -134 -97.5 -222.5t-223.5 -88.5z" />
    <glyph glyph-name="uni0307" unicode="&#x307;" horiz-adv-x="0" 
d="M-518 1323q0 41 28 68.5t68 27.5t68 -27.5t28 -68.5t-28 -68.5t-68 -27.5t-68 27.5t-28 68.5z" />
    <glyph glyph-name="uni0308" unicode="&#x308;" horiz-adv-x="0" 
d="M-696 1323q0 41 28 68.5t68 27.5t68 -27.5t28 -68.5t-28 -68.5t-68 -27.5t-68 27.5t-28 68.5zM-340 1323q0 41 28 68.5t68 27.5q41 0 69 -28t28 -68t-28 -68t-69 -28q-40 0 -68 27.5t-28 68.5z" />
    <glyph glyph-name="uni030A" unicode="&#x30a;" horiz-adv-x="0" 
d="M-535 1317q0 -47 33 -79.5t80 -32.5t80 32.5t33 79.5t-33 79t-80 32t-80 -32t-33 -79zM-631 1317q0 84 60 140.5t149 56.5t149 -56.5t60 -140.5t-60 -141t-149 -57t-149 57t-60 141z" />
    <glyph glyph-name="uni030C" unicode="&#x30c;" horiz-adv-x="0" 
d="M-74 1490l-299 -340h-98l-299 340h141l207 -234l207 234h141z" />
    <glyph glyph-name="uni0327" unicode="&#x327;" horiz-adv-x="0" 
d="M-464 -206q-32 0 -57 -5l-27 31l102 180h111l-80 -129q92 -10 148.5 -67t56.5 -132q0 -87 -71.5 -145.5t-176.5 -58.5q-104 0 -176 58l50 74q46 -42 120 -42q61 0 101.5 33t40.5 83t-40.5 85t-101.5 35z" />
    <glyph glyph-name="tonos" unicode="&#x384;" horiz-adv-x="843" 
d="M282 1114l165 381h143l-180 -381h-128z" />
    <glyph glyph-name="dieresistonos" unicode="&#x385;" horiz-adv-x="843" 
d="M143 1167q0 42 29 71t72 29t71.5 -29t28.5 -71t-28.5 -70.5t-71.5 -28.5t-72 28.5t-29 70.5zM500 1167q0 42 28.5 71t71.5 29t71.5 -29t28.5 -71t-28.5 -70.5t-71.5 -28.5t-71.5 28.5t-28.5 70.5zM471 1346h-140l223 268h144z" />
    <glyph glyph-name="Alphatonos" unicode="&#x386;" horiz-adv-x="1395" 
d="M1338 0h-157l-148 394h-655l-148 -394h-157l554 1434h157zM989 519l-283 754l-284 -754h567zM56 1053l166 381h143l-181 -381h-128z" />
    <glyph glyph-name="anoteleia" unicode="&#x387;" horiz-adv-x="602" 
d="M197 618q0 44 30 74.5t74 30.5t74.5 -30.5t30.5 -74.5t-30.5 -74t-74.5 -30t-74 30t-30 74z" />
    <glyph glyph-name="Epsilontonos" unicode="&#x388;" horiz-adv-x="1470" 
d="M506 0v1434h821v-125h-678v-526h624v-125h-624v-533h697v-125h-840zM56 1053l166 381h143l-181 -381h-128z" />
    <glyph glyph-name="Etatonos" unicode="&#x389;" horiz-adv-x="1738" 
d="M506 0v1434h143v-651h766v651h144v-1434h-144v658h-766v-658h-143zM56 1053l166 381h143l-181 -381h-128z" />
    <glyph glyph-name="Iotatonos" unicode="&#x38a;" horiz-adv-x="866" 
d="M506 1434h143v-1434h-143v1434zM56 1053l166 381h143l-181 -381h-128z" />
    <glyph glyph-name="Omicrontonos" unicode="&#x38c;" horiz-adv-x="1867" 
d="M1039 102q165 0 302.5 82t216.5 223t79 310q0 126 -46.5 240t-126.5 196t-191 130t-234 48t-234 -48t-191 -130t-126.5 -196t-46.5 -240q0 -169 79 -310t216.5 -223t302.5 -82zM1039 1458q206 0 377 -97.5t269 -267.5t98 -376q0 -154 -58 -292t-156.5 -236.5t-236.5 -156
t-293 -57.5t-292.5 57.5t-236.5 156.5t-156.5 236.5t-57.5 291.5t57.5 291.5t156.5 236t236.5 156t292.5 57.5zM56 1053l166 381h143l-181 -381h-128z" />
    <glyph glyph-name="Upsilontonos" unicode="&#x38e;" horiz-adv-x="1708" 
d="M610 1434l443 -705l442 705h158l-529 -846v-588h-143v588l-528 846h157zM56 1053l166 381h143l-181 -381h-128z" />
    <glyph glyph-name="Omegatonos" unicode="&#x38f;" horiz-adv-x="1825" 
d="M56 1053l166 381h143l-181 -381h-128zM1584 749q0 120 -44 228t-119.5 185.5t-179.5 123t-220 45.5t-220 -45.5t-179.5 -123t-119.5 -185.5t-44 -228q0 -125 44 -235.5t145 -212.5t255 -178v-123h-573v127h380q-200 114 -298.5 276.5t-98.5 355.5q0 143 55.5 272.5
t150 223t226 148.5t277.5 55t277.5 -55t226 -148.5t150 -223t55.5 -272.5q0 -193 -99 -355.5t-298 -276.5h380v-127h-573v123q154 76 255 178t145 212.5t44 235.5z" />
    <glyph glyph-name="iotadieresistonos" unicode="&#x390;" horiz-adv-x="560" 
d="M195 222v839h139v-806q0 -132 126 -132h53v-120q-29 -3 -77 -3q-241 0 -241 222zM-15 1305q0 42 28.5 70.5t71.5 28.5t71.5 -28.5t28.5 -70.5t-28.5 -71t-71.5 -29t-71.5 29t-28.5 71zM341 1305q0 42 28.5 70.5t71.5 28.5t72 -28.5t29 -70.5t-29 -71t-72 -29t-71.5 29
t-28.5 71zM312 1483h-140l223 268h145z" />
    <glyph glyph-name="Alpha" unicode="&#x391;" horiz-adv-x="1380" 
d="M1323 0h-158l-147 394h-656l-147 -394h-158l554 1434h158zM974 519l-284 754l-283 -754h567z" />
    <glyph glyph-name="Beta" unicode="&#x392;" horiz-adv-x="1253" 
d="M712 0h-532v1434h484q186 0 294.5 -102.5t108.5 -269.5q0 -116 -60.5 -196.5t-158.5 -109.5q128 -23 214.5 -117.5t86.5 -238.5q0 -178 -120.5 -289t-316.5 -111zM922 1056q0 116 -74.5 184.5t-194.5 68.5h-329v-505h329q121 0 195 68t74 184zM1004 404q0 125 -85 202
t-221 77h-374v-558h374q136 0 221 77t85 202z" />
    <glyph glyph-name="Gamma" unicode="&#x393;" horiz-adv-x="1051" 
d="M180 0v1434h816v-125h-672v-1309h-144z" />
    <glyph glyph-name="uni0394" unicode="&#x394;" horiz-adv-x="1380" 
d="M769 1434l554 -1434h-1266l554 1434h158zM690 1273l-433 -1148h866z" />
    <glyph glyph-name="Epsilon" unicode="&#x395;" horiz-adv-x="1144" 
d="M180 0v1434h821v-125h-677v-526h623v-125h-623v-533h696v-125h-840z" />
    <glyph glyph-name="Zeta" unicode="&#x396;" horiz-adv-x="1217" 
d="M125 125l786 1184h-755v125h925v-125l-786 -1184h807v-125h-977v125z" />
    <glyph glyph-name="Eta" unicode="&#x397;" horiz-adv-x="1413" 
d="M180 0v1434h144v-651h766v651h143v-1434h-143v658h-766v-658h-144z" />
    <glyph glyph-name="Theta" unicode="&#x398;" horiz-adv-x="1656" 
d="M534 656v121h589v-121h-589zM828 102q165 0 302.5 82t216.5 223t79 310q0 126 -46.5 240t-126.5 196t-191 130t-234 48t-234 -48t-191 -130t-126.5 -196t-46.5 -240q0 -169 79 -310t216.5 -223t302.5 -82zM828 1458q206 0 377 -97.5t269 -267.5t98 -376q0 -154 -58 -292
t-156.5 -236.5t-236.5 -156t-293 -57.5t-292.5 57.5t-236.5 156.5t-156.5 236.5t-57.5 291.5t57.5 291.5t156.5 236t236.5 156t292.5 57.5z" />
    <glyph glyph-name="Iota" unicode="&#x399;" horiz-adv-x="577" 
d="M217 1434h143v-1434h-143v1434z" />
    <glyph glyph-name="Kappa" unicode="&#x39a;" horiz-adv-x="1215" 
d="M324 1434v-651h159l469 651h166l-512 -711l594 -723h-170l-543 658h-163v-658h-144v1434h144z" />
    <glyph glyph-name="Lambda" unicode="&#x39b;" horiz-adv-x="1380" 
d="M1165 0l-475 1263l-475 -1263h-158l554 1434h158l554 -1434h-158z" />
    <glyph glyph-name="Mu" unicode="&#x39c;" horiz-adv-x="1724" 
d="M909 469h-94l-496 724v-1193h-139v1434h134l548 -804l548 804h134v-1434h-139v1193z" />
    <glyph glyph-name="Nu" unicode="&#x39d;" horiz-adv-x="1423" 
d="M180 0v1434h137l787 -1184v1184h139v-1434h-137l-787 1184v-1184h-139z" />
    <glyph glyph-name="Xi" unicode="&#x39e;" horiz-adv-x="1191" 
d="M143 1309v125h906v-125h-906zM125 0v125h942v-125h-942zM979 656h-786v125h786v-125z" />
    <glyph glyph-name="Omicron" unicode="&#x39f;" horiz-adv-x="1656" 
d="M828 102q165 0 302.5 82t216.5 223t79 310q0 126 -46.5 240t-126.5 196t-191 130t-234 48t-234 -48t-191 -130t-126.5 -196t-46.5 -240q0 -169 79 -310t216.5 -223t302.5 -82zM828 1458q206 0 377 -97.5t269 -267.5t98 -376q0 -154 -58 -292t-156.5 -236.5t-236.5 -156
t-293 -57.5t-292.5 57.5t-236.5 156.5t-156.5 236.5t-57.5 291.5t57.5 291.5t156.5 236t236.5 156t292.5 57.5z" />
    <glyph glyph-name="Pi" unicode="&#x3a0;" horiz-adv-x="1375" 
d="M1195 1434v-1434h-143v1309h-728v-1309h-144v1434h1015z" />
    <glyph glyph-name="Rho" unicode="&#x3a1;" horiz-adv-x="1181" 
d="M613 561h-289v-561h-144v1434h433q223 0 356.5 -119.5t133.5 -317.5t-133.5 -317t-356.5 -119zM957 997q0 142 -94 227t-255 85h-284v-623h284q161 0 255 84.5t94 226.5z" />
    <glyph glyph-name="Sigma" unicode="&#x3a3;" horiz-adv-x="1173" 
d="M126 123l465 596l-465 592v123h922v-125h-747l444 -561v-60l-445 -563h748v-125h-922v123z" />
    <glyph glyph-name="Tau" unicode="&#x3a4;" horiz-adv-x="1112" 
d="M484 0v1309h-418v125h981v-125h-419v-1309h-144z" />
    <glyph glyph-name="Upsilon" unicode="&#x3a5;" horiz-adv-x="1310" 
d="M213 1434l442 -705l443 705h157l-528 -846v-588h-143v588l-529 846h158z" />
    <glyph glyph-name="Phi" unicode="&#x3a6;" horiz-adv-x="1529" 
d="M693 322v786q-196 0 -332.5 -115t-136.5 -278t136.5 -278t332.5 -115zM837 0h-144v197q-168 0 -309 68.5t-223 187.5t-82 262t82 262t223 187.5t309 68.5v201h144v-201q168 0 309 -68.5t223 -187.5t82 -262t-82 -262t-223 -187.5t-309 -68.5v-197zM837 1108v-786
q196 0 332.5 115t136.5 278t-136.5 278t-332.5 115z" />
    <glyph glyph-name="Chi" unicode="&#x3a7;" horiz-adv-x="1277" 
d="M209 0h-160l504 729l-485 705h159l412 -598l412 598h159l-485 -705l504 -729h-160l-430 623z" />
    <glyph glyph-name="Psi" unicode="&#x3a8;" horiz-adv-x="1400" 
d="M772 1434v-963q151 21 248.5 133t97.5 287v543h144v-547q0 -220 -139 -372t-351 -176v-339h-143v339q-213 24 -351.5 176t-138.5 372v547h144v-543q0 -176 97 -287.5t249 -132.5v963h143z" />
    <glyph glyph-name="uni03A9" unicode="&#x3a9;" horiz-adv-x="1609" 
d="M1368 749q0 120 -44 228t-119.5 185.5t-179.5 123t-220 45.5t-220 -45.5t-179.5 -123t-119.5 -185.5t-44 -228q0 -125 44 -235.5t145 -212.5t255 -178v-123h-573v127h380q-200 114 -298.5 276.5t-98.5 355.5q0 143 55.5 272.5t150 223t226 148.5t277.5 55t277.5 -55
t226 -148.5t149.5 -222.5t55 -273q0 -193 -98.5 -355.5t-297.5 -276.5h380v-127h-573v123q154 76 255 178t145 212.5t44 235.5z" />
    <glyph glyph-name="Iotadieresis" unicode="&#x3aa;" horiz-adv-x="577" 
d="M217 1434h143v-1434h-143v1434zM14 1704q0 40 28 68t69 28t68.5 -28t27.5 -68t-27.5 -68t-68.5 -28t-69 28t-28 68zM371 1704q0 40 27.5 68t68.5 28t68.5 -28t27.5 -68t-27.5 -68t-68.5 -28t-68.5 28t-27.5 68z" />
    <glyph glyph-name="Upsilondieresis" unicode="&#x3ab;" horiz-adv-x="1310" 
d="M213 1434l442 -705l443 705h157l-528 -846v-588h-143v588l-529 846h158zM380 1704q0 40 28 68t68 28t68 -28t28 -68t-28 -68t-68 -28t-68 28t-28 68zM736 1704q0 40 28 68t69 28t68.5 -28t27.5 -68t-27.5 -68t-68.5 -28t-69 28t-28 68z" />
    <glyph glyph-name="alphatonos" unicode="&#x3ac;" horiz-adv-x="1403" 
d="M1280 0q-119 0 -179.5 41t-71.5 131q-73 -95 -178.5 -146t-227.5 -51q-153 0 -278.5 76t-195 203t-69.5 276t69.5 276t195 203t278.5 76q119 0 221 -48t174 -136v160h139v-796q0 -68 36 -105t101 -37h63v-120q-29 -3 -77 -3zM643 100q122 0 221.5 63t153.5 168v397
q-54 105 -153.5 169t-221.5 64q-178 0 -300 -127t-122 -304t122 -303.5t300 -126.5zM484 1218l284 340h146l-287 -340h-143z" />
    <glyph glyph-name="epsilontonos" unicode="&#x3ad;" horiz-adv-x="966" 
d="M498 97q185 0 301 144l97 -80q-140 -186 -398 -186q-177 0 -298 93t-121 228q0 100 71.5 175t170.5 101q-93 28 -146 92t-53 142q0 118 106.5 198.5t263.5 80.5q122 0 215.5 -48.5t140.5 -137.5l-113 -70q-32 66 -97 101t-146 35q-98 0 -164.5 -48.5t-66.5 -119.5
t66.5 -119.5t164.5 -48.5h157v-117h-151q-118 0 -199 -60t-81 -148q0 -87 81 -147t199 -60zM321 1218l283 340h147l-288 -340h-142z" />
    <glyph glyph-name="etatonos" unicode="&#x3ae;" horiz-adv-x="1223" 
d="M295 703v-703h-139v1061h139v-202q65 98 158 162t214 64q184 0 302 -119t118 -304v-1137h-139v1128q0 132 -86.5 220t-219.5 88q-110 0 -197 -73t-150 -185zM488 1218l284 340h147l-288 -340h-143z" />
    <glyph glyph-name="iotatonos" unicode="&#x3af;" horiz-adv-x="560" 
d="M195 222v839h139v-806q0 -132 126 -132h53v-120q-29 -3 -77 -3q-241 0 -241 222zM136 1218l284 340h146l-287 -340h-143z" />
    <glyph glyph-name="upsilondieresistonos" unicode="&#x3b0;" horiz-adv-x="1161" 
d="M581 -25q-187 0 -316 126.5t-129 310.5v649h139v-643q0 -134 88.5 -226t217.5 -92q128 0 216.5 92t88.5 226v643h139v-649q0 -184 -128.5 -310.5t-315.5 -126.5zM302 1305q0 42 28.5 70.5t71.5 28.5t72 -28.5t29 -70.5t-29 -71t-72 -29t-71.5 29t-28.5 71zM658 1305
q0 42 29 70.5t72 28.5t71.5 -28.5t28.5 -70.5t-28.5 -71t-71.5 -29t-72 29t-29 71zM630 1483h-141l224 268h144z" />
    <glyph glyph-name="alpha" unicode="&#x3b1;" horiz-adv-x="1403" 
d="M1280 0q-119 0 -179.5 41t-71.5 131q-73 -95 -178.5 -146t-227.5 -51q-153 0 -278.5 76t-195 203t-69.5 276t69.5 276t195 203t278.5 76q119 0 221 -48t174 -136v160h139v-796q0 -68 36 -105t101 -37h63v-120q-29 -3 -77 -3zM643 100q122 0 221.5 63t153.5 168v397
q-54 105 -153.5 169t-221.5 64q-178 0 -300 -127t-122 -304t122 -303.5t300 -126.5z" />
    <glyph glyph-name="beta" unicode="&#x3b2;" horiz-adv-x="1219" 
d="M165 -475v1535q0 170 118.5 284t296.5 114q175 0 294.5 -107t119.5 -260q0 -108 -76 -194.5t-194 -116.5q170 -25 283 -134t113 -266q0 -171 -128.5 -288t-317.5 -117q-117 0 -213.5 55t-152.5 142v-647h-143zM308 1054v-724q55 -106 143 -168t195 -62q140 0 234.5 82.5
t94.5 205.5q0 142 -123 229.5t-338 87.5v121q157 0 246 75t89 184q0 105 -78.5 177.5t-191.5 72.5q-115 0 -193 -80t-78 -201z" />
    <glyph glyph-name="gamma" unicode="&#x3b3;" horiz-adv-x="1071" 
d="M466 -475v481l-430 1055h147l353 -875l352 875h147l-430 -1055v-481h-139z" />
    <glyph glyph-name="delta" unicode="&#x3b4;" horiz-adv-x="1139" 
d="M75 455q0 197 138.5 331.5t334.5 134.5q32 0 78 -7l-413 401v119h723v-125h-542l531 -522q66 -65 102.5 -151.5t36.5 -180.5q0 -134 -68 -245t-182 -173t-247 -62q-131 0 -243.5 62t-180.5 173t-68 245zM216 455q0 -150 102.5 -253.5t250.5 -103.5t251 103.5t103 253.5
t-103 253t-251 103t-250.5 -103t-102.5 -253z" />
    <glyph glyph-name="epsilon" unicode="&#x3b5;" horiz-adv-x="966" 
d="M498 97q185 0 301 144l97 -80q-140 -186 -398 -186q-177 0 -298 93t-121 228q0 100 71.5 175t170.5 101q-93 28 -146 92t-53 142q0 118 106.5 198.5t263.5 80.5q122 0 215.5 -48.5t140.5 -137.5l-113 -70q-32 66 -97 101t-146 35q-98 0 -164.5 -48.5t-66.5 -119.5
t66.5 -119.5t164.5 -48.5h157v-117h-151q-118 0 -199 -60t-81 -148q0 -87 81 -147t199 -60z" />
    <glyph glyph-name="zeta" unicode="&#x3b6;" horiz-adv-x="947" 
d="M80 382q0 96 47.5 185.5t136.5 196.5l450 545h-535v125h699v-119l-505 -617q-74 -91 -114.5 -166t-40.5 -150q0 -171 208 -258l237 -104q209 -91 209 -251q0 -116 -89 -244h-140q91 123 91 226q0 101 -154 167l-227 97q-131 57 -202 151t-71 216z" />
    <glyph glyph-name="eta" unicode="&#x3b7;" horiz-adv-x="1223" 
d="M295 703v-703h-139v1061h139v-202q65 98 158 162t214 64q184 0 302 -119t118 -304v-1137h-139v1128q0 132 -86.5 220t-219.5 88q-110 0 -197 -73t-150 -185z" />
    <glyph glyph-name="theta" unicode="&#x3b8;" horiz-adv-x="1296" 
d="M80 717q0 203 72 372t203 269t293 100t293.5 -100t203.5 -269t72 -372q0 -151 -42.5 -287.5t-117 -236.5t-181 -159t-228.5 -59q-162 0 -293 100t-203 269.5t-72 372.5zM648 100q114 0 208.5 74.5t151 201t64.5 280.5h-848q8 -154 64.5 -280.5t151 -201t208.5 -74.5z
M648 1333q-113 0 -208 -74.5t-151.5 -201.5t-64.5 -280h848q-8 153 -64.5 280t-151.5 201.5t-208 74.5z" />
    <glyph glyph-name="iota" unicode="&#x3b9;" horiz-adv-x="560" 
d="M195 222v839h139v-806q0 -132 126 -132h53v-120q-29 -3 -77 -3q-241 0 -241 222z" />
    <glyph glyph-name="kappa" unicode="&#x3ba;" horiz-adv-x="1042" 
d="M862 0l-405 519h-162v-519h-139v1061h139v-421h164l344 421h168l-396 -481l451 -580h-164z" />
    <glyph glyph-name="lambda" unicode="&#x3bb;" horiz-adv-x="1069" 
d="M465 1037l-185 458h147l607 -1495h-147l-351 858l-354 -858h-147z" />
    <glyph glyph-name="uni03BC" unicode="&#x3bc;" horiz-adv-x="1243" 
d="M156 -475v1536h139v-735q36 -98 120.5 -162t184.5 -64q103 0 194 70.5t154 178.5v712h139v-1061h-139v191q-63 -93 -156.5 -154.5t-203.5 -61.5q-91 0 -169.5 48.5t-123.5 119.5v-618h-139z" />
    <glyph glyph-name="nu" unicode="&#x3bd;" horiz-adv-x="1058" 
d="M1024 1061l-423 -1061h-143l-423 1061h147l347 -877l348 877h147z" />
    <glyph glyph-name="xi" unicode="&#x3be;" horiz-adv-x="957" 
d="M225 386q0 -102 60 -180t179 -120l195 -71q231 -83 231 -248q0 -114 -99 -242h-142q103 121 103 224q0 102 -160 160l-191 67q-150 53 -232 163.5t-82 241.5q0 136 86 246t220 156q-107 38 -174.5 125.5t-67.5 196.5q0 149 113.5 251t278.5 102q202 0 324 -144l-92 -97
q-43 57 -103 90.5t-129 33.5q-107 0 -180 -71.5t-73 -177.5q0 -105 73 -177t180 -72h211v-117h-183q-146 0 -246 -98.5t-100 -241.5z" />
    <glyph glyph-name="omicron" unicode="&#x3bf;" horiz-adv-x="1286" 
d="M643 100q178 0 300 126.5t122 303.5t-122 304t-300 127t-300 -127t-122 -304t122 -303.5t300 -126.5zM643 1085q159 0 289 -75.5t202 -202.5t72 -277t-72 -277t-202 -202.5t-289 -75.5t-289 75.5t-202 202.5t-72 277t72 277t202 202.5t289 75.5z" />
    <glyph glyph-name="pi" unicode="&#x3c0;" horiz-adv-x="1159" 
d="M367 936v-936h-140v936h-176v125h1057v-125h-176v-936h-139v936h-426z" />
    <glyph glyph-name="rho" unicode="&#x3c1;" horiz-adv-x="1303" 
d="M275 530v-113q35 -144 145.5 -230.5t249.5 -86.5q173 0 292.5 124.5t119.5 305.5t-116 306t-287 125t-287.5 -125t-116.5 -306zM690 -25q-133 0 -241.5 64t-173.5 169v-683h-139v1005q0 233 156 394t388 161t388 -161t156 -394q0 -151 -69.5 -278t-192.5 -202t-272 -75z
" />
    <glyph glyph-name="sigma1" unicode="&#x3c2;" horiz-adv-x="1096" 
d="M80 530q0 150 72 277t202 202.5t289 75.5q223 0 383 -144l-73 -111q-140 131 -310 131q-178 0 -300 -127t-122 -304q0 -138 75.5 -241t215.5 -161l269 -111q206 -85 206 -248q0 -116 -99 -244h-142q103 126 103 226q0 101 -150 163l-257 105q-168 69 -265 201.5
t-97 309.5z" />
    <glyph glyph-name="sigma" unicode="&#x3c3;" horiz-adv-x="1324" 
d="M631 1061h642v-125h-335q111 -65 177.5 -179t66.5 -249q0 -109 -43.5 -207.5t-117 -170t-175.5 -113.5t-215 -42t-215 42.5t-176 115t-117 173t-43 212.5t43 212.5t117 173t176 115t215 42.5zM221 518q0 -175 119 -296.5t291 -121.5t290.5 121t118.5 297
q0 175 -118.5 296.5t-290.5 121.5t-291 -121.5t-119 -296.5z" />
    <glyph glyph-name="tau" unicode="&#x3c4;" horiz-adv-x="987" 
d="M413 285v651h-365v125h891v-125h-387v-652q0 -86 36 -124.5t111 -38.5h63v-120q-28 -3 -77 -3q-142 0 -207 68t-65 219z" />
    <glyph glyph-name="upsilon" unicode="&#x3c5;" horiz-adv-x="1161" 
d="M581 -25q-187 0 -316 126.5t-129 310.5v649h139v-643q0 -134 88.5 -226t217.5 -92q128 0 216.5 92t88.5 226v643h139v-649q0 -184 -128.5 -310.5t-315.5 -126.5z" />
    <glyph glyph-name="phi" unicode="&#x3c6;" horiz-adv-x="1406" 
d="M279 958l98 -89q-73 -65 -114.5 -153t-41.5 -186q0 -173 119.5 -296t293.5 -132v983h111q122 0 230 -43.5t185 -117.5t122 -176.5t45 -217.5q0 -226 -159 -385t-395 -169v-451h-139v451q-155 6 -282 80.5t-199.5 199.5t-72.5 274q0 129 54 240.5t145 187.5zM1186 530
q0 172 -119 294.5t-294 132.5v-855q175 10 294 132.5t119 295.5z" />
    <glyph glyph-name="chi" unicode="&#x3c7;" horiz-adv-x="1052" 
d="M1032 -475h-151l-355 651l-354 -651h-152l426 786l-405 750h152l333 -616l334 616h152l-406 -750z" />
    <glyph glyph-name="psi" unicode="&#x3c8;" horiz-adv-x="1394" 
d="M768 1061v-951q150 21 249.5 136t99.5 272v543h141v-548q0 -209 -140 -359t-350 -172v-457h-141v457q-211 22 -351 172t-140 359v548h142v-543q0 -158 99 -272.5t250 -135.5v951h141z" />
    <glyph glyph-name="omega" unicode="&#x3c9;" horiz-adv-x="1613" 
d="M807 221q-46 -107 -132.5 -176.5t-194.5 -69.5q-111 0 -203 72t-144.5 197t-52.5 276q0 255 182 541h140q-181 -292 -181 -541q0 -178 77 -299t190 -121q99 0 174 102.5t75 240.5v395h140v-395q0 -138 74.5 -240.5t173.5 -102.5q113 0 190.5 121t77.5 299q0 248 -182 541
h141q182 -286 182 -541q0 -151 -52.5 -276t-144.5 -197t-203 -72q-108 0 -194.5 69.5t-132.5 176.5z" />
    <glyph glyph-name="iotadieresis" unicode="&#x3ca;" horiz-adv-x="560" 
d="M195 222v839h139v-806q0 -132 126 -132h53v-120q-29 -3 -77 -3q-241 0 -241 222zM-10 1372q0 40 28 68t68 28t68 -28t28 -68t-28 -68t-68 -28t-68 28t-28 68zM346 1372q0 40 28 68t68 28q41 0 69 -28t28 -68t-28 -68t-69 -28q-40 0 -68 28t-28 68z" />
    <glyph glyph-name="upsilondieresis" unicode="&#x3cb;" horiz-adv-x="1161" 
d="M581 -25q-187 0 -316 126.5t-129 310.5v649h139v-643q0 -134 88.5 -226t217.5 -92q128 0 216.5 92t88.5 226v643h139v-649q0 -184 -128.5 -310.5t-315.5 -126.5zM306 1372q0 40 28 68t68 28q41 0 69 -28t28 -68t-28 -68t-69 -28q-40 0 -68 28t-28 68zM663 1372
q0 40 27.5 68t68.5 28t68.5 -28t27.5 -68t-27.5 -68t-68.5 -28t-68.5 28t-27.5 68z" />
    <glyph glyph-name="omicrontonos" unicode="&#x3cc;" horiz-adv-x="1286" 
d="M643 100q178 0 300 126.5t122 303.5t-122 304t-300 127t-300 -127t-122 -304t122 -303.5t300 -126.5zM643 1085q159 0 289 -75.5t202 -202.5t72 -277t-72 -277t-202 -202.5t-289 -75.5t-289 75.5t-202 202.5t-72 277t72 277t202 202.5t289 75.5zM512 1218l284 340h146
l-288 -340h-142z" />
    <glyph glyph-name="upsilontonos" unicode="&#x3cd;" horiz-adv-x="1161" 
d="M581 -25q-187 0 -316 126.5t-129 310.5v649h139v-643q0 -134 88.5 -226t217.5 -92q128 0 216.5 92t88.5 226v643h139v-649q0 -184 -128.5 -310.5t-315.5 -126.5zM435 1218l284 340h146l-287 -340h-143z" />
    <glyph glyph-name="omegatonos" unicode="&#x3ce;" horiz-adv-x="1613" 
d="M807 221q-46 -107 -132.5 -176.5t-194.5 -69.5q-111 0 -203 72t-144.5 197t-52.5 276q0 255 182 541h140q-181 -292 -181 -541q0 -178 77 -299t190 -121q99 0 174 102.5t75 240.5v395h140v-395q0 -138 74.5 -240.5t173.5 -102.5q113 0 190.5 121t77.5 299q0 248 -182 541
h141q182 -286 182 -541q0 -151 -52.5 -276t-144.5 -197t-203 -72q-108 0 -194.5 69.5t-132.5 176.5zM678 1218l284 340h146l-288 -340h-142z" />
    <glyph glyph-name="uni0400" unicode="&#x400;" horiz-adv-x="1144" 
d="M180 0v1434h821v-125h-677v-526h623v-125h-623v-533h696v-125h-840zM434 1889l284 -340h-143l-287 340h146z" />
    <glyph glyph-name="afii10023" unicode="&#x401;" horiz-adv-x="1144" 
d="M180 0v1434h821v-125h-677v-526h623v-125h-623v-533h696v-125h-840zM311 1704q0 40 28 68t69 28q40 0 68 -28t28 -68t-28 -68t-68 -28q-41 0 -69 28t-28 68zM668 1704q0 40 28 68t68 28t68 -28t28 -68t-28 -68t-68 -28t-68 28t-28 68z" />
    <glyph glyph-name="afii10051" unicode="&#x402;" horiz-adv-x="1448" 
d="M484 0v1309h-418v125h981v-125h-419v-545q56 72 143.5 115t185.5 43q173 0 291.5 -116.5t118.5 -285.5v-126q0 -167 -118 -282.5t-290 -115.5q-39 0 -85 4v121q23 -2 71 -2q119 0 199 80.5t80 198.5v116q0 120 -82 201.5t-202 81.5q-97 0 -178 -48t-134 -137v-612h-144z
" />
    <glyph glyph-name="afii10052" unicode="&#x403;" horiz-adv-x="1051" 
d="M180 0v1434h816v-125h-672v-1309h-144zM463 1593l283 340h147l-288 -340h-142z" />
    <glyph glyph-name="afii10053" unicode="&#x404;" horiz-adv-x="1387" 
d="M828 102q222 0 406 153l77 -109q-206 -171 -483 -171q-155 0 -292.5 57.5t-236.5 156.5t-156.5 236.5t-57.5 291.5t57.5 291.5t156.5 236t236.5 156t292.5 57.5q261 0 465 -158l-73 -108q-189 139 -392 139q-234 0 -403 -158.5t-192 -393.5h772v-125h-772
q23 -235 192 -393.5t403 -158.5z" />
    <glyph glyph-name="afii10054" unicode="&#x405;" horiz-adv-x="1191" 
d="M114 205l92 99q74 -89 177.5 -145.5t215.5 -56.5q155 0 254.5 75t99.5 194q0 233 -368 309q-216 45 -329.5 147.5t-113.5 252.5q0 166 123.5 272t319.5 106q256 0 438 -182l-86 -104q-164 159 -344 159q-135 0 -220 -68t-85 -172q0 -213 355 -291q234 -52 345 -158.5
t111 -268.5q0 -174 -135.5 -286t-357.5 -112q-146 0 -276.5 63t-215.5 167z" />
    <glyph glyph-name="afii10055" unicode="&#x406;" horiz-adv-x="577" 
d="M217 1434h143v-1434h-143v1434z" />
    <glyph glyph-name="afii10056" unicode="&#x407;" horiz-adv-x="577" 
d="M217 1434h143v-1434h-143v1434zM14 1704q0 40 28 68t69 28t68.5 -28t27.5 -68t-27.5 -68t-68.5 -28t-69 28t-28 68zM371 1704q0 40 27.5 68t68.5 28t68.5 -28t27.5 -68t-27.5 -68t-68.5 -28t-68.5 28t-27.5 68z" />
    <glyph glyph-name="afii10057" unicode="&#x408;" horiz-adv-x="917" 
d="M609 427v1007h144v-1007q0 -227 -106 -339.5t-307 -112.5q-72 0 -149 19t-134 51l47 123q48 -29 112.5 -47.5t119.5 -18.5q132 0 202.5 81t70.5 244z" />
    <glyph glyph-name="afii10058" unicode="&#x409;" horiz-adv-x="2052" 
d="M1210 125h252q165 0 266.5 93t101.5 239t-101.5 238.5t-266.5 92.5h-252v-663zM1467 0h-400v1309h-645v-1002q0 -144 -75 -227.5t-214 -83.5q-42 0 -78 4v123q38 -2 66 -2q158 0 158 182v1131h931v-521h257q226 0 366 -127.5t140 -328.5t-140 -329t-366 -128z" />
    <glyph glyph-name="afii10059" unicode="&#x40a;" horiz-adv-x="2059" 
d="M180 0v1434h144v-651h750v651h144v-521h257q226 0 365.5 -127.5t139.5 -328.5t-139.5 -329t-365.5 -128h-401v658h-750v-658h-144zM1218 125h251q165 0 266.5 93t101.5 239t-101.5 238.5t-266.5 92.5h-251v-663z" />
    <glyph glyph-name="afii10060" unicode="&#x40b;" horiz-adv-x="1503" 
d="M484 0v1309h-418v125h981v-125h-419v-545q56 72 143.5 115t185.5 43q173 0 291.5 -116.5t118.5 -285.5v-520h-143v514q0 120 -82 201.5t-202 81.5q-97 0 -178 -48t-134 -137v-612h-144z" />
    <glyph glyph-name="afii10061" unicode="&#x40c;" horiz-adv-x="1215" 
d="M324 1434v-651h159l469 651h166l-512 -711l594 -723h-170l-543 658h-163v-658h-144v1434h144zM436 1549l284 340h146l-287 -340h-143z" />
    <glyph glyph-name="uni040D" unicode="&#x40d;" horiz-adv-x="1423" 
d="M1243 1434v-1434h-139v1184l-787 -1184h-137v1434h139v-1184l787 1184h137zM546 1889l283 -340h-142l-288 340h147z" />
    <glyph glyph-name="afii10062" unicode="&#x40e;" horiz-adv-x="1310" 
d="M493 239l93 177l-531 1018h154l453 -872l440 872h153l-638 -1254q-45 -90 -111 -135t-165 -45h-125v125h110q108 0 167 114zM662 1529q-133 0 -223.5 88.5t-97.5 222.5h127q4 -89 56.5 -147t137.5 -58t137 58t56 147h127q-7 -135 -97.5 -223t-222.5 -88z" />
    <glyph glyph-name="afii10145" unicode="&#x40f;" horiz-adv-x="1375" 
d="M1195 1434v-1434h-435v-287h-144v287h-436v1434h144v-1309h728v1309h143z" />
    <glyph glyph-name="afii10017" unicode="&#x410;" horiz-adv-x="1380" 
d="M1323 0h-158l-147 394h-656l-147 -394h-158l554 1434h158zM974 519l-284 754l-283 -754h567z" />
    <glyph glyph-name="afii10018" unicode="&#x411;" horiz-adv-x="1198" 
d="M180 0v1434h804v-125h-660v-396h267q226 0 366 -127.5t140 -328.5t-140 -329t-366 -128h-411zM324 125h262q164 0 264.5 93t100.5 239t-100.5 238.5t-264.5 92.5h-262v-663z" />
    <glyph glyph-name="afii10019" unicode="&#x412;" horiz-adv-x="1253" 
d="M712 0h-532v1434h484q186 0 294.5 -102.5t108.5 -269.5q0 -116 -60.5 -196.5t-158.5 -109.5q128 -23 214.5 -117.5t86.5 -238.5q0 -178 -120.5 -289t-316.5 -111zM922 1056q0 116 -74.5 184.5t-194.5 68.5h-329v-505h329q121 0 195 68t74 184zM1004 404q0 125 -85 202
t-221 77h-374v-558h374q136 0 221 77t85 202z" />
    <glyph glyph-name="afii10020" unicode="&#x413;" horiz-adv-x="1051" 
d="M180 0v1434h816v-125h-672v-1309h-144z" />
    <glyph glyph-name="afii10021" unicode="&#x414;" horiz-adv-x="1333" 
d="M1266 125v-412h-144v287h-911v-287h-143v412h113q184 440 184 1206v103h768v-1309h133zM334 125h655v1184h-483q0 -323 -41.5 -636.5t-130.5 -547.5z" />
    <glyph glyph-name="afii10022" unicode="&#x415;" horiz-adv-x="1144" 
d="M180 0v1434h821v-125h-677v-526h623v-125h-623v-533h696v-125h-840z" />
    <glyph glyph-name="afii10024" unicode="&#x416;" horiz-adv-x="1845" 
d="M262 1434l451 -651h138v651h143v-651h139l450 651h165l-493 -711l575 -723h-169l-523 658h-144v-658h-143v658h-143l-524 -658h-169l575 723l-493 711h165z" />
    <glyph glyph-name="afii10025" unicode="&#x417;" horiz-adv-x="1071" 
d="M843 411q0 134 -102.5 223t-260.5 89h-154v119h157q126 0 208 71t82 177q0 104 -80 174.5t-199 70.5q-161 0 -276 -137l-87 89q141 171 373 171q176 0 291 -105t115 -260q0 -103 -63 -186.5t-166 -120.5q134 -40 218.5 -142t84.5 -235q0 -183 -139.5 -308.5
t-343.5 -125.5q-134 0 -249.5 60t-183.5 167l93 91q56 -92 145 -143.5t195 -51.5q144 0 243 90.5t99 222.5z" />
    <glyph glyph-name="afii10026" unicode="&#x418;" horiz-adv-x="1423" 
d="M1243 1434v-1434h-139v1184l-787 -1184h-137v1434h139v-1184l787 1184h137z" />
    <glyph glyph-name="afii10027" unicode="&#x419;" horiz-adv-x="1423" 
d="M1243 1434v-1434h-139v1184l-787 -1184h-137v1434h139v-1184l787 1184h137zM712 1529q-133 0 -223.5 88.5t-97.5 222.5h127q4 -89 56.5 -147t137.5 -58t137 58t56 147h127q-7 -135 -97.5 -223t-222.5 -88z" />
    <glyph glyph-name="afii10028" unicode="&#x41a;" horiz-adv-x="1215" 
d="M324 1434v-651h159l469 651h166l-512 -711l594 -723h-170l-543 658h-163v-658h-144v1434h144z" />
    <glyph glyph-name="afii10029" unicode="&#x41b;" horiz-adv-x="1429" 
d="M422 1309v-1002q0 -144 -75 -227.5t-214 -83.5q-42 0 -78 4v123q38 -2 66 -2q158 0 158 182v1131h970v-1434h-143v1309h-684z" />
    <glyph glyph-name="afii10030" unicode="&#x41c;" horiz-adv-x="1724" 
d="M909 469h-94l-496 724v-1193h-139v1434h134l548 -804l548 804h134v-1434h-139v1193z" />
    <glyph glyph-name="afii10031" unicode="&#x41d;" horiz-adv-x="1413" 
d="M180 0v1434h144v-651h766v651h143v-1434h-143v658h-766v-658h-144z" />
    <glyph glyph-name="afii10032" unicode="&#x41e;" horiz-adv-x="1656" 
d="M828 102q165 0 302.5 82t216.5 223t79 310q0 126 -46.5 240t-126.5 196t-191 130t-234 48t-234 -48t-191 -130t-126.5 -196t-46.5 -240q0 -169 79 -310t216.5 -223t302.5 -82zM828 1458q206 0 377 -97.5t269 -267.5t98 -376q0 -154 -58 -292t-156.5 -236.5t-236.5 -156
t-293 -57.5t-292.5 57.5t-236.5 156.5t-156.5 236.5t-57.5 291.5t57.5 291.5t156.5 236t236.5 156t292.5 57.5z" />
    <glyph glyph-name="afii10033" unicode="&#x41f;" horiz-adv-x="1375" 
d="M1195 1434v-1434h-143v1309h-728v-1309h-144v1434h1015z" />
    <glyph glyph-name="afii10034" unicode="&#x420;" horiz-adv-x="1181" 
d="M613 561h-289v-561h-144v1434h433q223 0 356.5 -119.5t133.5 -317.5t-133.5 -317t-356.5 -119zM957 997q0 142 -94 227t-255 85h-284v-623h284q161 0 255 84.5t94 226.5z" />
    <glyph glyph-name="afii10035" unicode="&#x421;" horiz-adv-x="1387" 
d="M828 102q222 0 406 153l77 -109q-206 -171 -483 -171q-155 0 -292.5 57.5t-236.5 156.5t-156.5 236.5t-57.5 291.5t57.5 291.5t156.5 236t236.5 156t292.5 57.5q261 0 465 -158l-73 -108q-189 139 -392 139q-123 0 -234 -48t-191 -130t-126.5 -196t-46.5 -240
q0 -169 79 -310t216.5 -223t302.5 -82z" />
    <glyph glyph-name="afii10036" unicode="&#x422;" horiz-adv-x="1112" 
d="M484 0v1309h-418v125h981v-125h-419v-1309h-144z" />
    <glyph glyph-name="afii10037" unicode="&#x423;" horiz-adv-x="1310" 
d="M493 239l93 177l-531 1018h154l453 -872l440 872h153l-638 -1254q-45 -90 -111 -135t-165 -45h-125v125h110q108 0 167 114z" />
    <glyph glyph-name="afii10038" unicode="&#x424;" horiz-adv-x="1529" 
d="M693 322v786q-196 0 -332.5 -115t-136.5 -278t136.5 -278t332.5 -115zM837 0h-144v197q-168 0 -309 68.5t-223 187.5t-82 262t82 262t223 187.5t309 68.5v201h144v-201q168 0 309 -68.5t223 -187.5t82 -262t-82 -262t-223 -187.5t-309 -68.5v-197zM837 1108v-786
q196 0 332.5 115t136.5 278t-136.5 278t-332.5 115z" />
    <glyph glyph-name="afii10039" unicode="&#x425;" horiz-adv-x="1277" 
d="M209 0h-160l504 729l-485 705h159l412 -598l412 598h159l-485 -705l504 -729h-160l-430 623z" />
    <glyph glyph-name="afii10040" unicode="&#x426;" horiz-adv-x="1390" 
d="M1195 1434v-1309h128v-412h-143v287h-1000v1434h144v-1309h728v1309h143z" />
    <glyph glyph-name="afii10041" unicode="&#x427;" horiz-adv-x="1240" 
d="M1060 0h-144v678q-57 -72 -152.5 -119t-197.5 -47q-181 0 -305.5 122t-124.5 295v505h144v-499q0 -124 88 -211t216 -87q101 0 190 51.5t142 140.5v605h144v-1434z" />
    <glyph glyph-name="afii10042" unicode="&#x428;" horiz-adv-x="1949" 
d="M1626 125v1309h143v-1434h-1589v1434h144v-1309h579v1309h144v-1309h579z" />
    <glyph glyph-name="afii10043" unicode="&#x429;" horiz-adv-x="1965" 
d="M180 0v1434h144v-1309h579v1309h144v-1309h579v1309h143v-1309h128v-412h-143v287h-1574z" />
    <glyph glyph-name="afii10044" unicode="&#x42a;" horiz-adv-x="1439" 
d="M588 125h262q165 0 266.5 93t101.5 239t-101.5 238.5t-266.5 92.5h-262v-663zM855 0h-411v1309h-378v125h522v-521h267q226 0 366 -127.5t140 -328.5t-140 -329t-366 -128z" />
    <glyph glyph-name="afii10045" unicode="&#x42b;" horiz-adv-x="1630" 
d="M324 125h262q164 0 265.5 93t101.5 239t-101 238.5t-266 92.5h-262v-663zM1307 1434h143v-1434h-143v1434zM591 0h-411v1434h144v-521h267q226 0 366 -127.5t140 -328.5t-140 -329t-366 -128z" />
    <glyph glyph-name="afii10046" unicode="&#x42c;" horiz-adv-x="1175" 
d="M324 125h262q164 0 265.5 93t101.5 239t-101 238.5t-266 92.5h-262v-663zM591 0h-411v1434h144v-521h267q226 0 366 -127.5t140 -328.5t-140 -329t-366 -128z" />
    <glyph glyph-name="afii10047" unicode="&#x42d;" horiz-adv-x="1387" 
d="M559 102q234 0 403 158.5t192 393.5h-771v125h771q-23 235 -192 393.5t-403 158.5q-202 0 -391 -139l-74 108q204 158 465 158q206 0 377 -97.5t269 -267.5t98 -376q0 -154 -58 -292t-156.5 -236.5t-236.5 -156t-293 -57.5q-276 0 -482 171l77 109q184 -153 405 -153z
" />
    <glyph glyph-name="afii10048" unicode="&#x42e;" horiz-adv-x="2134" 
d="M324 656v-656h-144v1434h144v-653h241q16 190 116.5 345t265 243.5t359.5 88.5q155 0 292.5 -57.5t236.5 -156t156.5 -236t57.5 -291.5t-57.5 -291.5t-156.5 -236.5t-236.5 -156.5t-292.5 -57.5q-196 0 -360.5 88.5t-265 244.5t-115.5 348h-241zM1306 102q165 0 302.5 82
t216.5 223t79 310q0 126 -46.5 240t-126.5 196t-191 130t-234 48t-234 -48t-191 -130t-126.5 -196t-46.5 -240q0 -169 79 -310t216.5 -223t302.5 -82z" />
    <glyph glyph-name="afii10049" unicode="&#x42f;" horiz-adv-x="1215" 
d="M892 561h-244l-399 -561h-160l405 570q-176 28 -278.5 142t-102.5 285q0 198 133 317.5t356 119.5h433v-1434h-143v561zM258 997q0 -142 94 -226.5t255 -84.5h285v623h-285q-161 0 -255 -85t-94 -227z" />
    <glyph glyph-name="afii10065" unicode="&#x430;" horiz-adv-x="1312" 
d="M643 100q122 0 221.5 63t153.5 168v397q-54 105 -153.5 169t-221.5 64q-178 0 -300 -127t-122 -304t122 -303.5t300 -126.5zM623 1085q119 0 221 -48t174 -136v160h139v-1061h-139v160q-72 -88 -174 -136.5t-221 -48.5q-153 0 -278.5 76t-195 203t-69.5 276t69.5 276
t195 203t278.5 76z" />
    <glyph glyph-name="afii10066" unicode="&#x431;" horiz-adv-x="1232" 
d="M100 563q0 196 24.5 338.5t79.5 252t148 179t224 109t314 53.5l19 -125q-153 -13 -261 -42.5t-182.5 -75.5t-119.5 -119t-67 -163t-29 -218q70 94 175 150t230 56q210 0 354 -142.5t144 -348.5q0 -210 -150 -351t-376 -141q-233 0 -380 160t-147 428zM242 591
q0 -221 102.5 -356t282.5 -135q163 0 274 106t111 261t-109 261t-266 106q-122 0 -222.5 -66t-172.5 -177z" />
    <glyph glyph-name="afii10067" unicode="&#x432;" horiz-adv-x="1046" 
d="M586 0h-430v1061h400q143 0 241 -79.5t98 -196.5q0 -77 -48 -138t-123 -90q95 -22 157.5 -96t62.5 -166q0 -125 -103.5 -210t-254.5 -85zM295 606h253q89 0 148.5 48t59.5 119t-59.5 119t-148.5 48h-253v-334zM295 121h285q96 0 160.5 53t64.5 130q0 78 -64.5 131.5
t-160.5 53.5h-285v-368z" />
    <glyph glyph-name="afii10068" unicode="&#x433;" horiz-adv-x="832" 
d="M784 936h-489v-936h-139v1061h628v-125z" />
    <glyph glyph-name="afii10069" unicode="&#x434;" horiz-adv-x="1114" 
d="M1060 123v-340h-139v217h-727v-217h-140v340h111q158 335 158 938h596v-938h141zM313 123h468v815h-325q0 -214 -36.5 -434t-106.5 -381z" />
    <glyph glyph-name="afii10070" unicode="&#x435;" horiz-adv-x="1241" 
d="M222 489q11 -166 129 -279.5t291 -113.5q103 0 194 44.5t159 123.5l97 -89q-80 -95 -196 -147.5t-251 -52.5q-164 0 -294.5 75t-200.5 201.5t-70 278.5q0 151 71 278t198 202t282 75q229 0 379.5 -153.5t150.5 -374.5q0 -37 -7 -68h-932zM631 965q-152 0 -266.5 -104
t-137.5 -255h789q-17 156 -124 257.5t-261 101.5z" />
    <glyph glyph-name="afii10072" unicode="&#x436;" horiz-adv-x="1593" 
d="M1414 0l-396 509h-152v-509h-139v509h-154l-394 -509h-163l442 569l-386 492h167l335 -431h153v431h139v-431h151l338 431h167l-386 -492l441 -569h-163z" />
    <glyph glyph-name="afii10073" unicode="&#x437;" horiz-adv-x="980" 
d="M467 97q118 0 198.5 60t80.5 147q0 88 -80.5 148t-198.5 60h-152v117h158q98 0 164 48.5t66 119.5t-66 119.5t-164 48.5q-81 0 -146.5 -35t-97.5 -101l-112 70q47 89 140.5 137.5t215.5 48.5q157 0 263.5 -80.5t106.5 -198.5q0 -78 -53 -142t-146 -92q99 -26 170.5 -101
t71.5 -175q0 -135 -121 -228t-298 -93q-259 0 -398 186l97 80q116 -144 301 -144z" />
    <glyph glyph-name="afii10074" unicode="&#x438;" horiz-adv-x="1243" 
d="M1087 1061v-1061h-135v862l-663 -862h-133v1061h135v-862l663 862h133z" />
    <glyph glyph-name="afii10075" unicode="&#x439;" horiz-adv-x="1243" 
d="M1087 1061v-1061h-135v862l-663 -862h-133v1061h135v-862l663 862h133zM622 1197q-133 0 -223.5 88.5t-97.5 222.5h127q4 -89 56.5 -146.5t137.5 -57.5t137 57.5t56 146.5h127q-7 -135 -97.5 -223t-222.5 -88z" />
    <glyph glyph-name="afii10076" unicode="&#x43a;" horiz-adv-x="1042" 
d="M862 0l-405 519h-162v-519h-139v1061h139v-421h164l344 421h168l-396 -481l451 -580h-164z" />
    <glyph glyph-name="afii10077" unicode="&#x43b;" horiz-adv-x="1252" 
d="M251 282v779h846v-1061h-140v936h-567v-664q0 -121 -74 -199.5t-187 -78.5q-43 0 -81 6v124q36 -2 57 -2q64 0 105 43t41 117z" />
    <glyph glyph-name="afii10078" unicode="&#x43c;" horiz-adv-x="1368" 
d="M286 1061l398 -596l398 596h130v-1061h-135v844l-350 -518h-86l-350 518v-844h-135v1061h130z" />
    <glyph glyph-name="afii10079" unicode="&#x43d;" horiz-adv-x="1243" 
d="M1087 1061v-1061h-139v486h-653v-486h-139v1061h139v-450h653v450h139z" />
    <glyph glyph-name="afii10080" unicode="&#x43e;" horiz-adv-x="1286" 
d="M643 100q178 0 300 126.5t122 303.5t-122 304t-300 127t-300 -127t-122 -304t122 -303.5t300 -126.5zM643 1085q159 0 289 -75.5t202 -202.5t72 -277t-72 -277t-202 -202.5t-289 -75.5t-289 75.5t-202 202.5t-72 277t72 277t202 202.5t289 75.5z" />
    <glyph glyph-name="afii10081" unicode="&#x43f;" horiz-adv-x="1243" 
d="M1087 1061v-1061h-139v936h-653v-936h-139v1061h931z" />
    <glyph glyph-name="afii10082" unicode="&#x440;" horiz-adv-x="1312" 
d="M670 100q178 0 300 126.5t122 303.5t-122 304t-300 127q-122 0 -221.5 -64t-153.5 -169v-397q54 -105 153.5 -168t221.5 -63zM690 1085q153 0 278.5 -76t195 -203t69.5 -276t-69.5 -276t-195 -203t-278.5 -76q-119 0 -221 48.5t-174 136.5v-635h-139v1536h139v-160
q72 88 174 136t221 48z" />
    <glyph glyph-name="afii10083" unicode="&#x441;" horiz-adv-x="1118" 
d="M643 -25q-159 0 -289 75.5t-202 202.5t-72 277t72 277t202 202.5t289 75.5q223 0 383 -144l-73 -111q-140 131 -310 131q-178 0 -300 -127t-122 -304t122 -303.5t300 -126.5q183 0 320 142l83 -103q-77 -78 -180.5 -121t-222.5 -43z" />
    <glyph glyph-name="afii10084" unicode="&#x442;" horiz-adv-x="956" 
d="M409 936h-361v125h860v-125h-360v-936h-139v936z" />
    <glyph glyph-name="afii10085" unicode="&#x443;" horiz-adv-x="1069" 
d="M269 -475l196 484l-430 1052h147l355 -874l350 874h147l-617 -1536h-148z" />
    <glyph glyph-name="afii10086" unicode="&#x444;" horiz-adv-x="2174" 
d="M643 100q122 0 221.5 63t153.5 168v397q-54 105 -153.5 169t-221.5 64q-178 0 -300 -127t-122 -304t122 -303.5t300 -126.5zM1157 160v-635h-139v635q-72 -88 -174 -136.5t-221 -48.5q-153 0 -278.5 76t-195 203t-69.5 276t69.5 276t195 203t278.5 76q119 0 221 -48
t174 -136v594h139v-594q72 88 174 136t221 48q153 0 278.5 -76t195 -203t69.5 -276t-69.5 -276t-195 -203t-278.5 -76q-119 0 -221 48.5t-174 136.5zM1532 100q178 0 300 126.5t122 303.5t-122 304t-300 127q-122 0 -221.5 -64t-153.5 -169v-397q54 -105 153.5 -168
t221.5 -63z" />
    <glyph glyph-name="afii10087" unicode="&#x445;" horiz-adv-x="1058" 
d="M193 0h-158l406 544l-380 517h158l310 -422l311 422h157l-380 -517l407 -544h-158l-337 447z" />
    <glyph glyph-name="afii10088" unicode="&#x446;" horiz-adv-x="1269" 
d="M1076 -287v287h-920v1061h139v-936h653v936h139v-936h128v-412h-139z" />
    <glyph glyph-name="afii10089" unicode="&#x447;" horiz-adv-x="1112" 
d="M817 0v487q-54 -87 -137 -139.5t-187 -52.5q-162 0 -274.5 116t-112.5 285v365h140v-359q0 -120 77 -201t192 -81q102 0 177.5 61t124.5 168v412h139v-1061h-139z" />
    <glyph glyph-name="afii10090" unicode="&#x448;" horiz-adv-x="1599" 
d="M1444 1061v-1061h-1288v1061h139v-936h435v936h139v-936h436v936h139z" />
    <glyph glyph-name="afii10091" unicode="&#x449;" horiz-adv-x="1626" 
d="M156 0v1061h139v-936h435v936h139v-936h436v936h139v-936h128v-412h-139v287h-1277z" />
    <glyph glyph-name="afii10092" unicode="&#x44a;" horiz-adv-x="1208" 
d="M765 0h-406v940h-311v121h451v-352h266q160 0 269.5 -103t109.5 -252t-109.5 -251.5t-269.5 -102.5zM1005 354q0 99 -72.5 166.5t-177.5 67.5h-256v-467h256q105 0 177.5 67t72.5 166z" />
    <glyph glyph-name="afii10093" unicode="&#x44b;" horiz-adv-x="1413" 
d="M561 0h-405v1061h139v-352h266q160 0 269.5 -103t109.5 -252t-109.5 -251.5t-269.5 -102.5zM801 354q0 99 -72.5 166.5t-177.5 67.5h-256v-467h256q105 0 177.5 67t72.5 166zM1118 0v1061h139v-1061h-139z" />
    <glyph glyph-name="afii10094" unicode="&#x44c;" horiz-adv-x="1004" 
d="M561 0h-405v1061h139v-352h266q160 0 269.5 -103t109.5 -252t-109.5 -251.5t-269.5 -102.5zM801 354q0 99 -72.5 166.5t-177.5 67.5h-256v-467h256q105 0 177.5 67t72.5 166z" />
    <glyph glyph-name="afii10095" unicode="&#x44d;" horiz-adv-x="1118" 
d="M475 -25q-119 0 -222 43t-180 121l83 103q137 -142 319 -142q162 0 279.5 106.5t138.5 264.5h-553v117h554q-21 158 -139 265.5t-280 107.5q-170 0 -310 -131l-73 111q160 144 383 144q159 0 289 -75.5t202 -202.5t72 -277t-72 -277t-202 -202.5t-289 -75.5z" />
    <glyph glyph-name="afii10096" unicode="&#x44e;" horiz-adv-x="1677" 
d="M1034 1085q159 0 289 -75.5t202 -202.5t72 -277t-72 -277t-202 -202.5t-289 -75.5q-223 0 -380 142t-180 352h-179v-469h-139v1061h139v-467h179q12 102 58.5 192t119.5 156t172 104.5t210 38.5zM1034 100q178 0 300 126.5t122 303.5t-122 304t-300 127t-300 -127
t-122 -304t122 -303.5t300 -126.5z" />
    <glyph glyph-name="afii10097" unicode="&#x44f;" horiz-adv-x="1110" 
d="M815 385h-276l-306 -385h-157l314 396q-127 29 -207.5 118.5t-80.5 208.5q0 142 113.5 240t278.5 98h460v-1061h-139v385zM498 506h317v434h-317q-108 0 -182 -62t-74 -155t74 -155t182 -62z" />
    <glyph glyph-name="uni0450" unicode="&#x450;" horiz-adv-x="1241" 
d="M222 489q11 -166 129 -279.5t291 -113.5q103 0 194 44.5t159 123.5l97 -89q-80 -95 -196 -147.5t-251 -52.5q-164 0 -294.5 75t-200.5 201.5t-70 278.5q0 151 71 278t198 202t282 75q229 0 379.5 -153.5t150.5 -374.5q0 -37 -7 -68h-932zM631 965q-152 0 -266.5 -104
t-137.5 -255h789q-17 156 -124 257.5t-261 101.5zM474 1558l284 -340h-143l-287 340h146z" />
    <glyph glyph-name="afii10071" unicode="&#x451;" horiz-adv-x="1241" 
d="M222 489q11 -166 129 -279.5t291 -113.5q103 0 194 44.5t159 123.5l97 -89q-80 -95 -196 -147.5t-251 -52.5q-164 0 -294.5 75t-200.5 201.5t-70 278.5q0 151 71 278t198 202t282 75q229 0 379.5 -153.5t150.5 -374.5q0 -37 -7 -68h-932zM631 965q-152 0 -266.5 -104
t-137.5 -255h789q-17 156 -124 257.5t-261 101.5zM346 1372q0 40 28 68t68 28q41 0 69 -28t28 -68t-28 -68t-69 -28q-40 0 -68 28t-28 68zM702 1372q0 40 28 68t69 28t68.5 -28t27.5 -68t-27.5 -68t-68.5 -28t-69 28t-28 68z" />
    <glyph glyph-name="afii10099" unicode="&#x452;" horiz-adv-x="1267" 
d="M36 1214v103h164v178h139v-178h378v-103h-378v-355q65 98 158 162t214 64q184 0 302.5 -119t118.5 -304v-773q0 -185 -91 -274t-277 -89q-48 0 -95 7v121q43 -6 94 -6q120 0 174.5 61t54.5 182v762q0 132 -86.5 220t-219.5 88q-110 0 -197 -73t-150 -185v-703h-139v1214
h-164z" />
    <glyph glyph-name="afii10100" unicode="&#x453;" horiz-adv-x="832" 
d="M784 936h-489v-936h-139v1061h628v-125zM267 1218l284 340h146l-287 -340h-143z" />
    <glyph glyph-name="afii10101" unicode="&#x454;" horiz-adv-x="1118" 
d="M643 -25q-159 0 -289 75.5t-202 202.5t-72 277t72 277t202 202.5t289 75.5q223 0 383 -144l-73 -111q-140 131 -310 131q-162 0 -280 -107.5t-139 -265.5h554v-117h-553q21 -158 138.5 -264.5t279.5 -106.5q183 0 320 142l83 -103q-77 -78 -180.5 -121t-222.5 -43z" />
    <glyph glyph-name="afii10102" unicode="&#x455;" horiz-adv-x="945" 
d="M79 152l79 96q57 -70 139 -111t177 -41q115 0 183.5 51.5t68.5 135.5q0 159 -268 210q-171 33 -257.5 110.5t-86.5 194.5q0 123 99 205t258 82q202 0 346 -139l-76 -96q-125 115 -261 115q-97 0 -162 -48.5t-65 -120.5q0 -67 64 -117t186 -74q362 -70 362 -324
q0 -134 -103 -220t-280 -86q-126 0 -230 47.5t-173 129.5z" />
    <glyph glyph-name="afii10103" unicode="&#x456;" horiz-adv-x="528" 
d="M195 0v1061h139v-1061h-139zM165 1365q0 42 28.5 70.5t70.5 28.5t71 -28.5t29 -70.5t-29 -70.5t-71 -28.5t-70.5 28.5t-28.5 70.5z" />
    <glyph glyph-name="afii10104" unicode="&#x457;" horiz-adv-x="528" 
d="M195 0v1061h139v-1061h-139zM-10 1372q0 40 28 68t68 28t68 -28t28 -68t-28 -68t-68 -28t-68 28t-28 68zM346 1372q0 40 28 68t68 28q41 0 69 -28t28 -68t-28 -68t-69 -28q-40 0 -68 28t-28 68z" />
    <glyph glyph-name="afii10105" unicode="&#x458;" horiz-adv-x="528" 
d="M165 1365q0 42 28.5 70.5t70.5 28.5t71 -28.5t29 -70.5t-29 -70.5t-71 -28.5t-70.5 28.5t-28.5 70.5zM195 -170v1231h139v-1229q0 -307 -283 -307q-32 0 -78 4v121q34 -2 64 -2q158 0 158 182z" />
    <glyph glyph-name="afii10106" unicode="&#x459;" horiz-adv-x="1755" 
d="M390 936v-664q0 -121 -74 -199.5t-187 -78.5q-43 0 -81 6v124q36 -2 57 -2q64 0 105 43t41 117v779h805v-352h256q160 0 269.5 -103t109.5 -252t-109.5 -251.5t-269.5 -102.5h-396v936h-526zM1056 121h246q105 0 177 67t72 166t-72 166.5t-177 67.5h-246v-467z" />
    <glyph glyph-name="afii10107" unicode="&#x45a;" horiz-adv-x="1745" 
d="M1303 0h-396v486h-612v-486h-139v1061h139v-450h612v450h140v-352h256q160 0 269 -103t109 -252t-109 -251.5t-269 -102.5zM1542 354q0 99 -72.5 166.5t-177.5 67.5h-245v-467h245q105 0 177.5 67t72.5 166z" />
    <glyph glyph-name="afii10108" unicode="&#x45b;" horiz-adv-x="1267" 
d="M36 1214v103h164v178h139v-178h378v-103h-378v-355q65 98 158 162t214 64q184 0 302.5 -119t118.5 -304v-662h-140v653q0 132 -86.5 220t-219.5 88q-110 0 -197 -73t-150 -185v-703h-139v1214h-164z" />
    <glyph glyph-name="afii10109" unicode="&#x45c;" horiz-adv-x="1042" 
d="M862 0l-405 519h-162v-519h-139v1061h139v-421h164l344 421h168l-396 -481l451 -580h-164zM352 1218l284 340h146l-287 -340h-143z" />
    <glyph glyph-name="uni045D" unicode="&#x45d;" horiz-adv-x="1243" 
d="M1087 1061v-1061h-135v862l-663 -862h-133v1061h135v-862l663 862h133zM463 1558l283 -340h-142l-288 340h147z" />
    <glyph glyph-name="afii10110" unicode="&#x45e;" horiz-adv-x="1069" 
d="M269 -475l196 484l-430 1052h147l355 -874l350 874h147l-617 -1536h-148zM537 1197q-133 0 -223.5 88.5t-97.5 222.5h127q4 -89 56.5 -146.5t137.5 -57.5t137 57.5t56 146.5h127q-7 -135 -97.5 -223t-222.5 -88z" />
    <glyph glyph-name="afii10193" unicode="&#x45f;" horiz-adv-x="1243" 
d="M1087 1061v-1061h-396v-287h-139v287h-396v1061h139v-936h653v936h139z" />
    <glyph glyph-name="afii10050" unicode="&#x490;" horiz-adv-x="1051" 
d="M180 0v1434h673v286h143v-411h-672v-1309h-144z" />
    <glyph glyph-name="afii10098" unicode="&#x491;" horiz-adv-x="832" 
d="M784 936h-489v-936h-139v1061h489v287h139v-412z" />
    <glyph glyph-name="Wgrave" unicode="&#x1e80;" horiz-adv-x="1953" 
d="M903 1434h148l354 -1225l342 1225h151l-415 -1434h-148l-358 1236l-359 -1236h-147l-416 1434h152l342 -1225zM828 1889l284 -340h-142l-288 340h146z" />
    <glyph glyph-name="wgrave" unicode="&#x1e81;" horiz-adv-x="1581" 
d="M719 1061h143l263 -866l274 866h147l-348 -1061h-143l-264 869l-265 -869h-143l-348 1061h147l274 -866zM624 1558l283 -340h-142l-288 340h147z" />
    <glyph glyph-name="Wacute" unicode="&#x1e82;" horiz-adv-x="1953" 
d="M903 1434h148l354 -1225l342 1225h151l-415 -1434h-148l-358 1236l-359 -1236h-147l-416 1434h152l342 -1225zM844 1549l283 340h147l-288 -340h-142z" />
    <glyph glyph-name="wacute" unicode="&#x1e83;" horiz-adv-x="1581" 
d="M719 1061h143l263 -866l274 866h147l-348 -1061h-143l-264 869l-265 -869h-143l-348 1061h147l274 -866zM669 1218l283 340h147l-288 -340h-142z" />
    <glyph glyph-name="Wdieresis" unicode="&#x1e84;" horiz-adv-x="1953" 
d="M903 1434h148l354 -1225l342 1225h151l-415 -1434h-148l-358 1236l-359 -1236h-147l-416 1434h152l342 -1225zM702 1704q0 40 28 68t69 28t68.5 -28t27.5 -68t-27.5 -68t-68.5 -28t-69 28t-28 68zM1059 1704q0 40 27.5 68t68.5 28t68.5 -28t27.5 -68t-27.5 -68t-68.5 -28
t-68.5 28t-27.5 68z" />
    <glyph glyph-name="wdieresis" unicode="&#x1e85;" horiz-adv-x="1581" 
d="M719 1061h143l263 -866l274 866h147l-348 -1061h-143l-264 869l-265 -869h-143l-348 1061h147l274 -866zM516 1372q0 40 28 68t68 28q41 0 69 -28t28 -68t-28 -68t-69 -28q-40 0 -68 28t-28 68zM872 1372q0 40 28 68t69 28t68.5 -28t27.5 -68t-27.5 -68t-68.5 -28t-69 28
t-28 68z" />
    <glyph glyph-name="Ygrave" unicode="&#x1ef2;" horiz-adv-x="1310" 
d="M213 1434l442 -705l443 705h157l-528 -846v-588h-143v588l-529 846h158zM488 1889l284 -340h-142l-288 340h146z" />
    <glyph glyph-name="ygrave" unicode="&#x1ef3;" horiz-adv-x="1069" 
d="M269 -475l196 484l-430 1052h147l355 -874l350 874h147l-617 -1536h-148zM360 1558l284 -340h-142l-288 340h146z" />
    <glyph glyph-name="thinspace" unicode="&#x2009;" horiz-adv-x="409" 
 />
    <glyph glyph-name="uni2010" unicode="&#x2010;" horiz-adv-x="815" 
d="M695 614h-575v131h575v-131z" />
    <glyph glyph-name="figuredash" unicode="&#x2012;" horiz-adv-x="1228" 
d="M1126 614h-1024v131h1024v-131z" />
    <glyph glyph-name="endash" unicode="&#x2013;" horiz-adv-x="1024" 
d="M1024 614h-1024v131h1024v-131z" />
    <glyph glyph-name="emdash" unicode="&#x2014;" horiz-adv-x="2048" 
d="M2048 614h-2048v131h2048v-131z" />
    <glyph glyph-name="afii00208" unicode="&#x2015;" horiz-adv-x="2048" 
d="M1843 614h-1638v131h1638v-131z" />
    <glyph glyph-name="uni2016" unicode="&#x2016;" horiz-adv-x="921" 
d="M222 -287v1823h126v-1823h-126zM573 -287v1823h126v-1823h-126z" />
    <glyph glyph-name="underscoredbl" unicode="&#x2017;" horiz-adv-x="1228" 
d="M102 -442v106h1024v-106h-1024zM102 -164v107h1024v-107h-1024z" />
    <glyph glyph-name="quoteleft" unicode="&#x2018;" horiz-adv-x="602" 
d="M406 1232q0 -44 -30.5 -74.5t-74.5 -30.5t-74 30.5t-30 74.5q0 23 10 46l125 280h97l-99 -226q34 -9 55 -36.5t21 -63.5z" />
    <glyph glyph-name="quoteright" unicode="&#x2019;" horiz-adv-x="602" 
d="M197 1453q0 44 30 74.5t74 30.5t74.5 -30.5t30.5 -74.5q0 -20 -11 -46l-125 -280h-97l99 226q-34 9 -54.5 36t-20.5 64z" />
    <glyph glyph-name="quotesinglbase" unicode="&#x201a;" horiz-adv-x="602" 
d="M197 80q0 44 30 74t74 30t74.5 -30t30.5 -74q0 -20 -11 -46l-125 -280h-97l99 226q-34 9 -54.5 36t-20.5 64z" />
    <glyph glyph-name="quotereversed" unicode="&#x201b;" horiz-adv-x="602" 
d="M406 1453q0 -36 -21 -63.5t-55 -36.5l99 -226h-97l-125 280q-10 22 -10 46q0 44 30 74.5t74 30.5t74.5 -30.5t30.5 -74.5z" />
    <glyph glyph-name="quotedblleft" unicode="&#x201c;" horiz-adv-x="905" 
d="M406 1232q0 -44 -30.5 -74.5t-74.5 -30.5t-74 30.5t-30 74.5q0 23 10 46l125 280h97l-99 -226q34 -9 55 -36.5t21 -63.5zM709 1232q0 -44 -30.5 -74.5t-74.5 -30.5t-74 30.5t-30 74.5q0 23 10 46l125 280h97l-99 -226q34 -9 55 -36.5t21 -63.5z" />
    <glyph glyph-name="quotedblright" unicode="&#x201d;" horiz-adv-x="905" 
d="M197 1453q0 44 30 74.5t74 30.5t74.5 -30.5t30.5 -74.5q0 -20 -11 -46l-125 -280h-97l99 226q-34 9 -54.5 36t-20.5 64zM500 1453q0 44 30 74.5t74 30.5t74.5 -30.5t30.5 -74.5q0 -20 -11 -46l-125 -280h-97l99 226q-34 9 -54.5 36t-20.5 64z" />
    <glyph glyph-name="quotedblbase" unicode="&#x201e;" horiz-adv-x="905" 
d="M197 80q0 44 30 74t74 30t74.5 -30t30.5 -74q0 -20 -11 -46l-125 -280h-97l99 226q-34 9 -54.5 36t-20.5 64zM500 80q0 44 30 74t74 30t74.5 -30t30.5 -74q0 -20 -11 -46l-125 -280h-97l99 226q-34 9 -54.5 36t-20.5 64z" />
    <glyph glyph-name="uni201F" unicode="&#x201f;" horiz-adv-x="905" 
d="M406 1453q0 -36 -21 -63.5t-55 -36.5l99 -226h-97l-125 280q-10 22 -10 46q0 44 30 74.5t74 30.5t74.5 -30.5t30.5 -74.5zM709 1453q0 -36 -21 -63.5t-55 -36.5l99 -226h-97l-125 280q-10 22 -10 46q0 44 30 74.5t74 30.5t74.5 -30.5t30.5 -74.5z" />
    <glyph glyph-name="dagger" unicode="&#x2020;" horiz-adv-x="1146" 
d="M502 -268v1296h-355v125h355v379h143v-379h354v-125h-354v-1296h-143z" />
    <glyph glyph-name="daggerdbl" unicode="&#x2021;" horiz-adv-x="1146" 
d="M502 236v792h-355v125h355v379h143v-379h354v-125h-354v-792h354v-125h-354v-379h-143v379h-355v125h355z" />
    <glyph glyph-name="bullet" unicode="&#x2022;" horiz-adv-x="819" 
d="M410 442q-100 0 -170 69.5t-70 168.5t70 168.5t170 69.5t169.5 -69.5t69.5 -168.5t-69.5 -168.5t-169.5 -69.5z" />
    <glyph glyph-name="onedotenleader" unicode="&#x2024;" horiz-adv-x="602" 
d="M197 80q0 44 30 74t74 30t74.5 -30t30.5 -74t-30.5 -74.5t-74.5 -30.5t-74 30.5t-30 74.5z" />
    <glyph glyph-name="twodotenleader" unicode="&#x2025;" horiz-adv-x="1204" 
d="M197 80q0 44 30 74t74 30t74.5 -30t30.5 -74t-30.5 -74.5t-74.5 -30.5t-74 30.5t-30 74.5zM799 80q0 44 30 74t74 30t74.5 -30t30.5 -74t-30.5 -74.5t-74.5 -30.5t-74 30.5t-30 74.5z" />
    <glyph glyph-name="ellipsis" unicode="&#x2026;" horiz-adv-x="1806" 
d="M197 80q0 44 30 74t74 30t74.5 -30t30.5 -74t-30.5 -74.5t-74.5 -30.5t-74 30.5t-30 74.5zM799 80q0 44 30 74t74 30t74.5 -30t30.5 -74t-30.5 -74.5t-74.5 -30.5t-74 30.5t-30 74.5zM1401 80q0 44 30 74t74 30t74.5 -30t30.5 -74t-30.5 -74.5t-74.5 -30.5t-74 30.5
t-30 74.5z" />
    <glyph glyph-name="perthousand" unicode="&#x2030;" horiz-adv-x="2619" 
d="M461 0l739 1434h146l-738 -1434h-147zM237 1094q0 -99 64 -167.5t157 -68.5t157 68.5t64 167.5t-64 167t-157 68t-157 -68t-64 -167zM100 1094q0 149 103.5 251.5t254.5 102.5t254 -102.5t103 -251.5t-103 -252t-254 -103t-254.5 103t-103.5 252zM1128 340
q0 -99 64.5 -167.5t157.5 -68.5t157 68.5t64 167.5t-64 167t-157 68q-94 0 -158 -68.5t-64 -166.5zM992 340q0 149 103.5 251.5t254.5 102.5t254 -102.5t103 -251.5t-103 -251.5t-254 -102.5t-254.5 102.5t-103.5 251.5zM1940 340q0 -99 64.5 -167.5t157.5 -68.5t157 68.5
t64 167.5t-64 167t-157 68q-94 0 -158 -68.5t-64 -166.5zM1804 340q0 149 103.5 251.5t254.5 102.5t254 -102.5t103 -251.5t-103 -251.5t-254 -102.5t-254.5 102.5t-103.5 251.5z" />
    <glyph glyph-name="minute" unicode="&#x2032;" horiz-adv-x="562" 
d="M126 1053l187 381h143l-202 -381h-128z" />
    <glyph glyph-name="second" unicode="&#x2033;" horiz-adv-x="873" 
d="M126 1053l187 381h143l-202 -381h-128zM437 1053l188 381h142l-202 -381h-128z" />
    <glyph glyph-name="guilsinglleft" unicode="&#x2039;" horiz-adv-x="786" 
d="M109 602v74l550 352v-131l-408 -258l408 -258v-131z" />
    <glyph glyph-name="guilsinglright" unicode="&#x203a;" horiz-adv-x="786" 
d="M678 676v-74l-551 -352v131l409 258l-409 258v131z" />
    <glyph glyph-name="exclamdbl" unicode="&#x203c;" horiz-adv-x="1044" 
d="M242 393v1041h143v-1041h-143zM211 78q0 44 29.5 73t72.5 29q44 0 73.5 -29.5t29.5 -72.5q0 -44 -30 -73.5t-73 -29.5t-72.5 29.5t-29.5 73.5zM659 393v1041h144v-1041h-144zM629 78q0 44 29.5 73t72.5 29q44 0 73.5 -29.5t29.5 -72.5q0 -44 -30 -73.5t-73 -29.5
t-72.5 29.5t-29.5 73.5z" />
    <glyph glyph-name="uni203E" unicode="&#x203e;" horiz-adv-x="843" 
d="M135 1265v110h574v-110h-574z" />
    <glyph glyph-name="fraction" unicode="&#x2044;" horiz-adv-x="333" 
d="M-246 0l701 1434h125l-700 -1434h-126z" />
    <glyph glyph-name="zerosuperior" unicode="&#x2070;" 
d="M66 948q0 146 36 259.5t113 182t186 68.5t186 -68.5t113.5 -182t36.5 -259.5t-36.5 -259.5t-113.5 -182t-186 -68.5t-186 68.5t-113 182t-36 259.5zM190 948q0 -180 53.5 -290.5t157.5 -110.5t157.5 110.5t53.5 290.5q0 117 -22 206t-70.5 142.5t-118.5 53.5
t-118.5 -53.5t-70.5 -142.5t-22 -206z" />
    <glyph glyph-name="uni2071" unicode="&#x2071;" 
d="M339 463v686h125v-686h-125zM321 1355q0 33 23 56t57 23t57.5 -23.5t23.5 -55.5q0 -33 -23.5 -55.5t-57.5 -22.5t-57 22.5t-23 55.5z" />
    <glyph glyph-name="foursuperior" unicode="&#x2074;" 
d="M43 669v98l457 667h118v-657h124v-108h-124v-206h-124v206h-451zM184 776h310v458z" />
    <glyph glyph-name="fivesuperior" unicode="&#x2075;" 
d="M373 438q-95 0 -174 43.5t-130 119.5l88 73q87 -131 214 -131q93 0 155.5 61t62.5 153q0 91 -62.5 152.5t-155.5 61.5q-52 0 -96.5 -25.5t-70.5 -66.5l-91 12l59 543h507v-106h-393l-37 -299q57 44 143 44q134 0 228.5 -88t94.5 -226q0 -140 -95.5 -230.5t-246.5 -90.5z
" />
    <glyph glyph-name="sixsuperior" unicode="&#x2076;" 
d="M569 1434l-241 -375q35 19 84 19q135 0 232 -91t97 -227q0 -137 -100.5 -229.5t-238.5 -92.5q-140 0 -240.5 92.5t-100.5 229.5q0 93 49 167l325 507h134zM615 760q0 91 -62.5 153t-152.5 62q-89 0 -151 -62.5t-62 -152.5q0 -92 62 -154.5t151 -62.5q90 0 152.5 62.5
t62.5 154.5z" />
    <glyph glyph-name="sevensuperior" unicode="&#x2077;" 
d="M98 1434h610v-93l-374 -878h-140l370 865h-466v106z" />
    <glyph glyph-name="eightsuperior" unicode="&#x2078;" 
d="M401 438q-142 0 -239 87t-97 215q0 84 49 153t133 103q-61 28 -97 83.5t-36 120.5q0 108 82 183t205 75t205.5 -75t82.5 -183q0 -65 -36 -120.5t-97 -83.5q84 -34 133 -103t49 -153q0 -128 -97.5 -215t-239.5 -87zM401 941q-89 0 -150 -58.5t-61 -141.5q0 -84 60.5 -141
t150.5 -57t150.5 57t60.5 141q0 83 -61 141.5t-150 58.5zM401 1042q69 0 117 46t48 111t-47.5 110t-117.5 45t-117 -45t-47 -110t47.5 -111t116.5 -46z" />
    <glyph glyph-name="ninesuperior" unicode="&#x2079;" 
d="M233 463l242 375q-37 -20 -84 -20q-135 0 -232.5 91.5t-97.5 227.5q0 137 100.5 229t238.5 92q140 0 240.5 -92t100.5 -229q0 -94 -48 -167l-325 -507h-135zM187 1137q0 -91 62.5 -153t152.5 -62q89 0 151 62.5t62 152.5q0 92 -62 154.5t-151 62.5q-90 0 -152.5 -62.5
t-62.5 -154.5z" />
    <glyph glyph-name="uni207A" unicode="&#x207a;" 
d="M727 894h-263v-269h-125v269h-263v108h263v270h125v-270h263v-108z" />
    <glyph glyph-name="uni207B" unicode="&#x207b;" 
d="M727 894h-651v108h651v-108z" />
    <glyph glyph-name="uni207C" unicode="&#x207c;" 
d="M727 735h-651v109h651v-109zM727 1053h-651v108h651v-108z" />
    <glyph glyph-name="uni207D" unicode="&#x207d;" 
d="M309 948q0 167 62.5 321t173.5 275l88 -60q-94 -111 -145.5 -249.5t-51.5 -286.5t51.5 -286t145.5 -250l-88 -60q-111 121 -173.5 275t-62.5 321z" />
    <glyph glyph-name="uni207E" unicode="&#x207e;" 
d="M494 948q0 -167 -62.5 -321t-173.5 -275l-88 60q94 112 145.5 250t51.5 286t-51.5 286.5t-145.5 249.5l88 60q111 -121 173.5 -275t62.5 -321z" />
    <glyph glyph-name="uni207F" unicode="&#x207f;" 
d="M231 910v-447h-122v686h122v-97q80 111 199 111q118 0 193.5 -78t75.5 -199v-423h-122v420q0 74 -46 123.5t-116 49.5q-116 0 -184 -146z" />
    <glyph glyph-name="zeroinferior" unicode="&#x2080;" 
d="M66 217q0 146 36 259.5t113 182t186 68.5t186 -68.5t113.5 -182t36.5 -259.5t-36.5 -259.5t-113.5 -182t-186 -68.5t-186 68.5t-113 182t-36 259.5zM190 217q0 -180 53.5 -290.5t157.5 -110.5t157.5 110.5t53.5 290.5q0 117 -22 205.5t-70.5 142t-118.5 53.5
t-118.5 -53.5t-70.5 -142t-22 -205.5z" />
    <glyph glyph-name="oneinferior" unicode="&#x2081;" 
d="M420 702h107v-970h-126v841l-195 -108l-50 93z" />
    <glyph glyph-name="twoinferior" unicode="&#x2082;" 
d="M563 169l-299 -333h422v-104h-590v93l370 408q104 115 104 223q0 71 -51.5 119t-129.5 48q-72 0 -122 -43t-71 -123l-110 42q24 104 106 166t197 62q132 0 219.5 -76.5t87.5 -194.5q0 -74 -32 -142.5t-101 -144.5z" />
    <glyph glyph-name="threeinferior" unicode="&#x2083;" 
d="M586 25q0 89 -64.5 150.5t-156.5 61.5q-35 0 -76 -13l-49 62l272 311h-396v105h552v-96l-253 -283q126 -11 211.5 -97t85.5 -210q0 -126 -97 -217.5t-247 -91.5q-98 0 -176.5 44.5t-129.5 122.5l85 75q87 -137 218 -137q93 0 157 61.5t64 151.5z" />
    <glyph glyph-name="fourinferior" unicode="&#x2084;" 
d="M43 -62v98l457 666h118v-656h124v-108h-124v-206h-124v206h-451zM184 45h310v458z" />
    <glyph glyph-name="fiveinferior" unicode="&#x2085;" 
d="M373 -293q-95 0 -174 43.5t-130 119.5l88 73q87 -131 214 -131q93 0 155.5 61t62.5 153q0 91 -62.5 152.5t-155.5 61.5q-52 0 -96.5 -26t-70.5 -67l-91 13l59 542h507v-105h-393l-37 -299q57 44 143 44q134 0 228.5 -88t94.5 -226q0 -140 -95.5 -230.5t-246.5 -90.5z" />
    <glyph glyph-name="sixinferior" unicode="&#x2086;" 
d="M569 702l-241 -374q35 19 84 19q135 0 232 -91t97 -227q0 -137 -100.5 -229.5t-238.5 -92.5q-140 0 -240.5 92.5t-100.5 229.5q0 93 49 167l325 506h134zM615 29q0 91 -62.5 153t-152.5 62q-89 0 -151 -62.5t-62 -152.5q0 -92 62 -154.5t151 -62.5q90 0 152.5 62.5
t62.5 154.5z" />
    <glyph glyph-name="seveninferior" unicode="&#x2087;" 
d="M98 702h610v-92l-374 -878h-140l370 865h-466v105z" />
    <glyph glyph-name="eightinferior" unicode="&#x2088;" 
d="M401 -293q-142 0 -239 87t-97 215q0 84 49 153t133 103q-61 28 -97 83.5t-36 120.5q0 108 82 183t205 75t205.5 -75t82.5 -183q0 -65 -36 -120.5t-97 -83.5q84 -34 133 -103t49 -153q0 -128 -97.5 -215t-239.5 -87zM401 210q-89 0 -150 -58.5t-61 -141.5q0 -84 60.5 -141
t150.5 -57t150.5 57t60.5 141q0 83 -61 141.5t-150 58.5zM401 311q69 0 117 46t48 111t-47.5 110t-117.5 45t-117 -45t-47 -110t47.5 -111t116.5 -46z" />
    <glyph glyph-name="nineinferior" unicode="&#x2089;" 
d="M233 -268l242 374q-35 -19 -84 -19q-135 0 -232.5 91.5t-97.5 227.5q0 137 100.5 229t238.5 92q140 0 240.5 -92t100.5 -229q0 -94 -48 -167l-325 -507h-135zM187 406q0 -91 62.5 -153.5t152.5 -62.5q89 0 151 62.5t62 153.5q0 92 -62 154.5t-151 62.5
q-90 0 -152.5 -62.5t-62.5 -154.5z" />
    <glyph glyph-name="uni208A" unicode="&#x208a;" 
d="M727 163h-263v-269h-125v269h-263v108h263v270h125v-270h263v-108z" />
    <glyph glyph-name="uni208B" unicode="&#x208b;" 
d="M727 163h-651v108h651v-108z" />
    <glyph glyph-name="uni208C" unicode="&#x208c;" 
d="M727 4h-651v109h651v-109zM727 322h-651v108h651v-108z" />
    <glyph glyph-name="uni208D" unicode="&#x208d;" 
d="M309 217q0 167 62.5 321t173.5 275l88 -60q-94 -111 -145.5 -249.5t-51.5 -286.5t51.5 -286t145.5 -250l-88 -60q-111 121 -173.5 275t-62.5 321z" />
    <glyph glyph-name="uni208E" unicode="&#x208e;" 
d="M494 217q0 -167 -62.5 -321t-173.5 -275l-88 60q94 112 145.5 250t51.5 286t-51.5 286.5t-145.5 249.5l88 60q111 -121 173.5 -275t62.5 -321z" />
    <glyph glyph-name="uni2090" unicode="&#x2090;" 
d="M387 -293q-144 0 -242.5 104t-98.5 255t98.5 254.5t242.5 103.5q126 0 210 -94v80h124v-689h-124v80q-84 -94 -210 -94zM597 -66v263q-31 55 -83.5 87t-115.5 32q-97 0 -162.5 -72t-65.5 -178t65.5 -178.5t162.5 -72.5q63 0 115.5 32t83.5 87z" />
    <glyph glyph-name="uni2091" unicode="&#x2091;" 
d="M738 27h-554q10 -92 74 -154t157 -62q59 0 115 29.5t97 81.5l78 -77q-53 -65 -128.5 -101.5t-160.5 -36.5q-157 0 -256.5 104t-99.5 255q0 150 100 254t248 104q146 0 240 -99t94 -243q0 -34 -4 -55zM408 321q-83 0 -144 -56t-76 -139h428q-11 87 -68 141t-140 54z" />
    <glyph glyph-name="uni2092" unicode="&#x2092;" 
d="M401 -185q96 0 163 73t67 178q0 104 -66.5 177t-163.5 73q-96 0 -162.5 -72.5t-66.5 -177.5t66.5 -178t162.5 -73zM401 424q150 0 252 -103.5t102 -254.5t-102 -255t-252 -104t-251.5 104t-101.5 255t101.5 254.5t251.5 103.5z" />
    <glyph glyph-name="uni2093" unicode="&#x2093;" 
d="M214 -279h-140l255 356l-239 333h139l172 -239l172 239h141l-240 -334l255 -355h-138l-189 262z" />
    <glyph glyph-name="uni2094" unicode="&#x2094;" 
d="M65 104h553q-10 92 -74 154.5t-156 62.5q-59 0 -115 -30t-97 -82l-78 77q53 65 128.5 101.5t160.5 36.5q157 0 256 -103.5t99 -254.5q0 -150 -99.5 -254.5t-247.5 -104.5q-146 0 -240.5 99t-94.5 243q0 28 5 55zM395 -189q83 0 143.5 55.5t75.5 138.5h-428
q11 -87 68.5 -140.5t140.5 -53.5z" />
    <glyph glyph-name="uni20A0" unicode="&#x20a0;" horiz-adv-x="1580" 
d="M67 944q0 216 150.5 365t369.5 149q191 0 347 -128l-68 -102q-138 109 -279 109q-161 0 -272 -113.5t-111 -279.5q0 -164 111 -277.5t272 -113.5q135 0 248 77v363h606v-119h-470v-315h437v-119h-437v-321h482v-119h-618v494q-117 -62 -248 -62q-219 0 -369.5 148.5
t-150.5 363.5z" />
    <glyph glyph-name="colonmonetary" unicode="&#x20a1;" horiz-adv-x="1387" 
d="M670 -209l33 195q-73 12 -144 38l-41 -233h-103l48 276q-173 95 -275.5 267.5t-102.5 382.5q0 281 176.5 485.5t446.5 246.5l34 193h104l-33 -184h15q67 0 135 -11l34 195h104l-39 -220q121 -39 231 -122l-73 -108q-86 63 -182 100l-210 -1190q222 0 406 153l77 -109
q-206 -171 -483 -171q-4 0 -11.5 0.5t-10.5 0.5l-33 -185h-103zM230 717q0 -157 69 -290t189 -218l196 1105q-199 -50 -326.5 -215.5t-127.5 -381.5zM583 156q74 -33 143 -45l214 1209q-57 11 -112 11q-13 0 -37 -2z" />
    <glyph glyph-name="uni20A2" unicode="&#x20a2;" horiz-adv-x="1387" 
d="M841 594v-492q216 4 393 153l77 -109q-206 -171 -483 -171q-155 0 -292.5 57.5t-236.5 156.5t-156.5 236.5t-57.5 291.5t57.5 291.5t156.5 236t236.5 156t292.5 57.5q261 0 465 -158l-73 -108q-189 139 -392 139q-123 0 -234 -48t-191 -130t-126.5 -196t-46.5 -240
q0 -224 136 -393t346 -210v736h129v-125q41 60 95 99.5t111 39.5q53 0 99 -21l-11 -111q-55 22 -94 22q-52 0 -105.5 -44.5t-94.5 -115.5z" />
    <glyph glyph-name="franc" unicode="&#x20a3;" horiz-adv-x="1122" 
d="M266 0v499h-206v91h206v131h-206v91h206v622h801v-125h-657v-497h377v-91h-377v-131h377v-91h-377v-499h-144z" />
    <glyph glyph-name="lira" unicode="&#x20a4;" horiz-adv-x="1167" 
d="M344 473v15h-261v92h250q-11 58 -40 131h-210v91h169q-55 131 -55 245q0 173 123 292t303 119q143 0 249.5 -75.5t148.5 -187.5l-122 -63q-35 92 -106.5 145.5t-169.5 53.5q-119 0 -200 -82t-81 -202q0 -89 65 -245h403v-91h-367q27 -79 36 -131h331v-92h-321v-15
q0 -101 -44 -190.5t-118 -155.5h724v-127h-895v124q87 66 137.5 157.5t50.5 191.5z" />
    <glyph glyph-name="uni20A6" unicode="&#x20a6;" horiz-adv-x="1480" 
d="M1420 565h-148v-565h-135l-372 565h-419v-565h-137v565h-149v86h149v131h-149v86h149v566h135l371 -566h420v566h137v-566h148v-86h-148v-131h148v-86zM771 782l86 -131h278v131h-364zM346 782v-131h363l-86 131h-277zM346 1204v-336h220zM913 565l222 -336v336h-222z
" />
    <glyph glyph-name="peseta" unicode="&#x20a7;" horiz-adv-x="2395" 
d="M1517 121h440q92 0 155.5 51.5t63.5 128.5q0 84 -65.5 128.5t-227.5 93.5q-126 37 -191 108.5t-65 172.5q0 120 91 200.5t237 80.5q184 0 315 -140l-70 -100q-120 120 -237 120q-83 0 -140.5 -46.5t-57.5 -116.5q0 -74 64.5 -117t215.5 -87q270 -80 270 -299
q0 -131 -94 -215t-256 -84h-458q-179 0 -252 84.5t-73 263.5v590h-191q-23 -158 -145 -267.5t-299 -109.5h-224v-561h-143v1434h367q182 0 304 -103.5t142 -269.5h189v294l138 13v-307h274v-123h-274v-596q0 -113 47 -167t150 -54zM853 997q0 137 -86 224.5t-225 87.5h-219
v-623h219q139 0 225 87t86 224z" />
    <glyph glyph-name="uni20A8" unicode="&#x20a8;" horiz-adv-x="1951" 
d="M544 561h-220v-561h-144v1434h413q213 0 340 -119.5t127 -317.5q0 -171 -97 -284.5t-264 -142.5l382 -570h-157zM914 997q0 142 -87.5 227t-237.5 85h-265v-623h265q151 0 238 84.5t87 226.5zM1122 152l78 99q54 -71 132 -113t166 -42q107 0 171 51.5t64 135.5
q0 75 -65 129.5t-185 80.5q-159 34 -244 112.5t-85 192.5q0 123 95 205t247 82q192 0 330 -140l-74 -98q-121 118 -248 118q-89 0 -149.5 -47.5t-60.5 -121.5q0 -66 61 -116.5t172 -74.5q168 -36 256.5 -117.5t88.5 -206.5q0 -134 -98.5 -220t-267.5 -86q-121 0 -220 47.5
t-164 129.5z" />
    <glyph glyph-name="uni20A9" unicode="&#x20a9;" horiz-adv-x="2007" 
d="M1966 569h-292l-165 -569h-145l-165 569h-392l-164 -569h-145l-165 569h-292v86h266l-38 131h-228v86h204l-163 562h149l156 -562h383l162 562h143l162 -562h382l157 562h149l-163 -562h204v-86h-229l-38 -131h267v-86zM1004 1247l-109 -375h217zM870 786l-37 -131h342
l-38 131h-267zM1324 569l108 -370l103 370h-211zM472 569l103 -370l107 370h-210zM1262 786l37 -131h260l36 131h-333zM412 786l35 -131h260l37 131h-332z" />
    <glyph glyph-name="afii57636" unicode="&#x20aa;" horiz-adv-x="1761" 
d="M180 0v1434h490q210 0 353 -143t143 -352v-402h-143v402q0 157 -100.5 263.5t-252.5 106.5h-346v-1309h-144zM1581 1434v-1434h-489q-210 0 -353.5 143t-143.5 352v402h143v-402q0 -157 101 -263.5t253 -106.5h346v1309h143z" />
    <glyph glyph-name="dong" unicode="&#x20ab;" horiz-adv-x="1356" 
d="M367 -313v110h706v-110h-706zM640 1214v103h378v178h139v-178h164v-103h-164v-1214h-139v160q-72 -88 -174 -136.5t-221 -48.5q-153 0 -278.5 76t-195 203t-69.5 276t69.5 276t195 203t278.5 76q119 0 221 -48t174 -136v313h-378zM643 100q122 0 221.5 63t153.5 168v397
q-54 105 -153.5 169t-221.5 64q-178 0 -300 -127t-122 -304t122 -303.5t300 -126.5z" />
    <glyph glyph-name="Euro" unicode="&#x20ac;" horiz-adv-x="1466" 
d="M983 540h-649q55 -194 212.5 -316t360.5 -122q222 0 406 153l77 -109q-206 -171 -483 -171q-265 0 -465 158t-258 407h-153v93h137q-4 37 -4 84t4 84h-137v93h152q59 249 258.5 406.5t465.5 157.5q261 0 465 -158l-74 -108q-189 139 -391 139q-203 0 -360.5 -122
t-212.5 -315h649v-93h-669q-5 -47 -5 -84t5 -84h669v-93z" />
    <glyph glyph-name="afii61248" unicode="&#x2105;" horiz-adv-x="2103" 
d="M516 590q-189 0 -317.5 126t-128.5 308t128.5 308t317.5 126q178 0 312 -121l-69 -102q-114 106 -243 106q-131 0 -221 -92t-90 -225t90 -225t221 -92q140 0 249 115l80 -95q-135 -137 -329 -137zM1587 91q131 0 221 92.5t90 225.5t-90 225t-221 92t-221 -92t-90 -225
t90 -225.5t221 -92.5zM1587 843q189 0 318 -126t129 -308t-129 -308.5t-318 -126.5t-317.5 126.5t-128.5 308.5t128.5 308t317.5 126zM600 0l700 1434h136l-699 -1434h-137z" />
    <glyph glyph-name="uni2109" unicode="&#x2109;" horiz-adv-x="1611" 
d="M725 0v1434h801v-125h-658v-525h603v-125h-603v-659h-143zM154 1182q0 -71 49 -121t120 -50t120 50t49 121t-49 121t-120 50t-120 -50t-49 -121zM46 1182q0 114 80 192.5t197 78.5q116 0 196 -78.5t80 -192.5q0 -115 -80 -193.5t-196 -78.5q-117 0 -197 78.5t-80 193.5z
" />
    <glyph glyph-name="afii61289" unicode="&#x2113;" horiz-adv-x="1137" 
d="M676 -25q-164 0 -266 105t-102 264v33q-73 -31 -185 -74l-41 119q145 57 226 92v584q0 153 106 256.5t261 103.5t260.5 -103.5t105.5 -256.5v-47q0 -178 -146 -324t-443 -287v-97q0 -103 66 -173t158 -70q84 0 149 51t103 145l118 -70q-53 -119 -149 -185t-221 -66z
M898 1061v28q0 104 -64.5 174t-158.5 70t-158.5 -70t-64.5 -174v-505q230 114 338 224.5t108 252.5z" />
    <glyph glyph-name="afii61352" unicode="&#x2116;" horiz-adv-x="2240" 
d="M180 0v1434h138l670 -1163v1163h139v-1434h-138l-671 1162v-1162h-138zM2084 368h-778v120h778v-120zM1285 1067q0 164 119 277.5t291 113.5t290.5 -113.5t118.5 -277.5t-118.5 -277.5t-290.5 -113.5t-291 113.5t-119 277.5zM1422 1067q0 -115 78.5 -192.5t194.5 -77.5
t194 77.5t78 192.5t-78 192.5t-194 77.5t-194.5 -77.5t-78.5 -192.5z" />
    <glyph glyph-name="uni2117" unicode="&#x2117;" horiz-adv-x="1634" 
d="M865 615h-155v-288h-111v777h266q121 0 198.5 -68t77.5 -176t-78 -176.5t-198 -68.5zM1029 860q0 63 -46.5 102t-120.5 39h-152v-283h152q74 0 120.5 39.5t46.5 102.5zM76 717q0 153 58 290t157 236t236 157t290 58t290.5 -58t236.5 -157t157 -236t58 -290t-58 -290.5
t-157 -236.5t-236.5 -157t-290.5 -58t-290 58t-236 157t-157 236.5t-58 290.5zM166 717q0 -181 86.5 -332t236.5 -238.5t328 -87.5q179 0 329 87.5t236 238.5t86 332q0 135 -51 257t-137.5 209.5t-207.5 139t-255 51.5q-133 0 -254 -51.5t-208 -139t-138 -209.5t-51 -257z
" />
    <glyph glyph-name="uni2120" unicode="&#x2120;" horiz-adv-x="1585" 
d="M77 795l71 77q42 -51 97 -82.5t106 -31.5q69 0 114 33.5t45 87.5q0 102 -172 141q-118 26 -180 82t-62 137q0 91 68.5 149t177.5 58q145 0 248 -108l-65 -80q-98 94 -179 94q-59 0 -97 -31t-38 -77q0 -92 165 -132q250 -59 250 -232q0 -95 -75 -155.5t-198 -60.5
q-80 0 -153 36t-123 95zM1125 913h-71l-221 324v-561h-112v758h101l268 -394l266 394h102v-758h-112v559z" />
    <glyph glyph-name="uni2121" unicode="&#x2121;" horiz-adv-x="2187" 
d="M953 489q8 -166 100.5 -279.5t228.5 -113.5q78 0 151.5 46t130.5 129l97 -89q-67 -99 -163.5 -153t-212.5 -54q-137 0 -245 75t-166.5 201.5t-58.5 278.5q0 151 59 278t164.5 202t234.5 75q127 0 228.5 -71t157.5 -191.5t56 -265.5q0 -41 -6 -68h-756zM1273 965
q-120 0 -209 -104t-107 -255h617q-13 156 -97 257.5t-204 101.5zM471 0v1309h-405v125h950v-125h-406v-1309h-139zM1873 0v1495h134v-1495h-134z" />
    <glyph glyph-name="trademark" unicode="&#x2122;" horiz-adv-x="1563" 
d="M278 676v664h-215v94h542v-94h-214v-664h-113zM1105 913h-72l-221 324v-561h-113v758h103l266 -394l267 394h102v-758h-112v559z" />
    <glyph glyph-name="Omega" unicode="&#x2126;" horiz-adv-x="1609" 
d="M1368 749q0 120 -44 228t-119.5 185.5t-179.5 123t-220 45.5t-220 -45.5t-179.5 -123t-119.5 -185.5t-44 -228q0 -125 44 -235.5t145 -212.5t255 -178v-123h-573v127h380q-200 114 -298.5 276.5t-98.5 355.5q0 143 55.5 272.5t150 223t226 148.5t277.5 55t277.5 -55
t226 -148.5t149.5 -222.5t55 -273q0 -193 -98.5 -355.5t-297.5 -276.5h380v-127h-573v123q154 76 255 178t145 212.5t44 235.5z" />
    <glyph glyph-name="estimated" unicode="&#x212e;" horiz-adv-x="1646" 
d="M399 675v-459q180 -157 424 -157q161 0 301 73t231 202l72 -50q-104 -147 -263.5 -228t-340.5 -81q-153 0 -290 58t-236 157t-157 236.5t-58 290.5t58 290t157 236t236 157t290 58t290.5 -58t236.5 -157t157 -236t58 -290v-42h-1166zM823 1374q-244 0 -424 -157v-459h848
v459q-180 157 -424 157z" />
    <glyph glyph-name="onethird" unicode="&#x2153;" horiz-adv-x="1937" 
d="M420 1434h107v-971h-126v842l-195 -109l-50 93zM556 0l700 1434h125l-699 -1434h-126zM1720 293q0 89 -64.5 150.5t-156.5 61.5q-39 0 -76 -12l-49 61l273 311h-397v106h552v-97l-253 -283q126 -11 211.5 -96.5t85.5 -209.5q0 -126 -97 -218t-247 -92q-98 0 -176 44.5
t-129 122.5l85 75q87 -137 217 -137q93 0 157 61.5t64 151.5z" />
    <glyph glyph-name="twothirds" unicode="&#x2154;" horiz-adv-x="1937" 
d="M563 900l-299 -333h422v-104h-590v93l370 409q104 115 104 222q0 71 -51.5 119t-129.5 48q-72 0 -122 -43t-71 -123l-110 42q24 104 106 166t197 62q132 0 219.5 -76.5t87.5 -194.5q0 -74 -32 -142.5t-101 -144.5zM556 0l700 1434h125l-699 -1434h-126zM1720 293
q0 89 -64.5 150.5t-156.5 61.5q-39 0 -76 -12l-49 61l273 311h-397v106h552v-97l-253 -283q126 -11 211.5 -96.5t85.5 -209.5q0 -126 -97 -218t-247 -92q-98 0 -176 44.5t-129 122.5l85 75q87 -137 217 -137q93 0 157 61.5t64 151.5z" />
    <glyph glyph-name="onefifth" unicode="&#x2155;" horiz-adv-x="1937" 
d="M420 1434h107v-971h-126v842l-195 -109l-50 93zM556 0l700 1434h125l-699 -1434h-126zM1507 -27q-95 0 -174 43.5t-130 119.5l88 73q87 -131 214 -131q93 0 155.5 61t62.5 153q0 91 -62.5 152.5t-155.5 61.5q-52 0 -96.5 -25.5t-70.5 -66.5l-91 12l60 543h507v-106h-394
l-37 -299q57 44 144 44q133 0 227.5 -88t94.5 -226q0 -140 -95.5 -230.5t-246.5 -90.5z" />
    <glyph glyph-name="twofifths" unicode="&#x2156;" horiz-adv-x="1937" 
d="M563 900l-299 -333h422v-104h-590v93l370 409q104 115 104 222q0 71 -51.5 119t-129.5 48q-72 0 -122 -43t-71 -123l-110 42q24 104 106 166t197 62q132 0 219.5 -76.5t87.5 -194.5q0 -74 -32 -142.5t-101 -144.5zM556 0l700 1434h125l-699 -1434h-126zM1507 -27
q-95 0 -174 43.5t-130 119.5l88 73q87 -131 214 -131q93 0 155.5 61t62.5 153q0 91 -62.5 152.5t-155.5 61.5q-52 0 -96.5 -25.5t-70.5 -66.5l-91 12l60 543h507v-106h-394l-37 -299q57 44 144 44q133 0 227.5 -88t94.5 -226q0 -140 -95.5 -230.5t-246.5 -90.5z" />
    <glyph glyph-name="threefifths" unicode="&#x2157;" horiz-adv-x="1937" 
d="M586 756q0 89 -64.5 150.5t-156.5 61.5q-35 0 -76 -13l-49 62l272 311h-396v106h552v-97l-253 -283q126 -11 211.5 -96.5t85.5 -209.5q0 -126 -97 -218t-247 -92q-98 0 -176.5 44.5t-129.5 122.5l85 75q87 -137 218 -137q93 0 157 61.5t64 151.5zM556 0l700 1434h125
l-699 -1434h-126zM1507 -27q-95 0 -174 43.5t-130 119.5l88 73q87 -131 214 -131q93 0 155.5 61t62.5 153q0 91 -62.5 152.5t-155.5 61.5q-52 0 -96.5 -25.5t-70.5 -66.5l-91 12l60 543h507v-106h-394l-37 -299q57 44 144 44q133 0 227.5 -88t94.5 -226q0 -140 -95.5 -230.5
t-246.5 -90.5z" />
    <glyph glyph-name="fourfifths" unicode="&#x2158;" horiz-adv-x="1937" 
d="M43 669v98l457 667h118v-657h124v-108h-124v-206h-124v206h-451zM184 776h310v458zM556 0l700 1434h125l-699 -1434h-126zM1507 -27q-95 0 -174 43.5t-130 119.5l88 73q87 -131 214 -131q93 0 155.5 61t62.5 153q0 91 -62.5 152.5t-155.5 61.5q-52 0 -96.5 -25.5
t-70.5 -66.5l-91 12l60 543h507v-106h-394l-37 -299q57 44 144 44q133 0 227.5 -88t94.5 -226q0 -140 -95.5 -230.5t-246.5 -90.5z" />
    <glyph glyph-name="onesixth" unicode="&#x2159;" horiz-adv-x="1937" 
d="M420 1434h107v-971h-126v842l-195 -109l-50 93zM556 0l700 1434h125l-699 -1434h-126zM1703 971l-242 -375q35 19 84 19q135 0 232.5 -91t97.5 -227q0 -137 -100.5 -229.5t-238.5 -92.5q-140 0 -240.5 92.5t-100.5 229.5q0 94 48 167l326 507h134zM1749 297
q0 91 -62.5 153t-152.5 62q-89 0 -151 -62.5t-62 -152.5q0 -92 62 -154.5t151 -62.5q90 0 152.5 62.5t62.5 154.5z" />
    <glyph glyph-name="fivesixths" unicode="&#x215a;" horiz-adv-x="1937" 
d="M373 438q-95 0 -174 43.5t-130 119.5l88 73q87 -131 214 -131q93 0 155.5 61t62.5 153q0 91 -62.5 152.5t-155.5 61.5q-52 0 -96.5 -25.5t-70.5 -66.5l-91 12l59 543h507v-106h-393l-37 -299q57 44 143 44q134 0 228.5 -88t94.5 -226q0 -140 -95.5 -230.5t-246.5 -90.5z
M556 0l700 1434h125l-699 -1434h-126zM1703 971l-242 -375q35 19 84 19q135 0 232.5 -91t97.5 -227q0 -137 -100.5 -229.5t-238.5 -92.5q-140 0 -240.5 92.5t-100.5 229.5q0 94 48 167l326 507h134zM1749 297q0 91 -62.5 153t-152.5 62q-89 0 -151 -62.5t-62 -152.5
q0 -92 62 -154.5t151 -62.5q90 0 152.5 62.5t62.5 154.5z" />
    <glyph glyph-name="oneeighth" unicode="&#x215b;" horiz-adv-x="1937" 
d="M420 1434h107v-971h-126v842l-195 -109l-50 93zM556 0l700 1434h125l-699 -1434h-126zM1536 -27q-142 0 -239.5 87t-97.5 215q0 84 49 153t133 103q-61 28 -97 83.5t-36 120.5q0 108 82.5 183t205.5 75t205.5 -75t82.5 -183q0 -65 -36 -120.5t-97 -83.5q84 -34 133 -103
t49 -153q0 -128 -97.5 -215t-239.5 -87zM1536 476q-89 0 -150 -58.5t-61 -141.5q0 -84 60.5 -141t150.5 -57t150.5 57t60.5 141q0 83 -61 141.5t-150 58.5zM1536 578q69 0 117 45.5t48 110.5t-47.5 110t-117.5 45t-117.5 -45t-47.5 -110t48 -110.5t117 -45.5z" />
    <glyph glyph-name="threeeighths" unicode="&#x215c;" horiz-adv-x="1937" 
d="M586 756q0 89 -64.5 150.5t-156.5 61.5q-35 0 -76 -13l-49 62l272 311h-396v106h552v-97l-253 -283q126 -11 211.5 -96.5t85.5 -209.5q0 -126 -97 -218t-247 -92q-98 0 -176.5 44.5t-129.5 122.5l85 75q87 -137 218 -137q93 0 157 61.5t64 151.5zM556 0l700 1434h125
l-699 -1434h-126zM1536 -27q-142 0 -239.5 87t-97.5 215q0 84 49 153t133 103q-61 28 -97 83.5t-36 120.5q0 108 82.5 183t205.5 75t205.5 -75t82.5 -183q0 -65 -36 -120.5t-97 -83.5q84 -34 133 -103t49 -153q0 -128 -97.5 -215t-239.5 -87zM1536 476q-89 0 -150 -58.5
t-61 -141.5q0 -84 60.5 -141t150.5 -57t150.5 57t60.5 141q0 83 -61 141.5t-150 58.5zM1536 578q69 0 117 45.5t48 110.5t-47.5 110t-117.5 45t-117.5 -45t-47.5 -110t48 -110.5t117 -45.5z" />
    <glyph glyph-name="fiveeighths" unicode="&#x215d;" horiz-adv-x="1937" 
d="M373 438q-95 0 -174 43.5t-130 119.5l88 73q87 -131 214 -131q93 0 155.5 61t62.5 153q0 91 -62.5 152.5t-155.5 61.5q-52 0 -96.5 -25.5t-70.5 -66.5l-91 12l59 543h507v-106h-393l-37 -299q57 44 143 44q134 0 228.5 -88t94.5 -226q0 -140 -95.5 -230.5t-246.5 -90.5z
M556 0l700 1434h125l-699 -1434h-126zM1536 -27q-142 0 -239.5 87t-97.5 215q0 84 49 153t133 103q-61 28 -97 83.5t-36 120.5q0 108 82.5 183t205.5 75t205.5 -75t82.5 -183q0 -65 -36 -120.5t-97 -83.5q84 -34 133 -103t49 -153q0 -128 -97.5 -215t-239.5 -87zM1536 476
q-89 0 -150 -58.5t-61 -141.5q0 -84 60.5 -141t150.5 -57t150.5 57t60.5 141q0 83 -61 141.5t-150 58.5zM1536 578q69 0 117 45.5t48 110.5t-47.5 110t-117.5 45t-117.5 -45t-47.5 -110t48 -110.5t117 -45.5z" />
    <glyph glyph-name="seveneighths" unicode="&#x215e;" horiz-adv-x="1937" 
d="M98 1434h610v-93l-374 -878h-140l370 865h-466v106zM556 0l700 1434h125l-699 -1434h-126zM1536 -27q-142 0 -239.5 87t-97.5 215q0 84 49 153t133 103q-61 28 -97 83.5t-36 120.5q0 108 82.5 183t205.5 75t205.5 -75t82.5 -183q0 -65 -36 -120.5t-97 -83.5
q84 -34 133 -103t49 -153q0 -128 -97.5 -215t-239.5 -87zM1536 476q-89 0 -150 -58.5t-61 -141.5q0 -84 60.5 -141t150.5 -57t150.5 57t60.5 141q0 83 -61 141.5t-150 58.5zM1536 578q69 0 117 45.5t48 110.5t-47.5 110t-117.5 45t-117.5 -45t-47.5 -110t48 -110.5
t117 -45.5z" />
    <glyph glyph-name="uni215F" unicode="&#x215f;" horiz-adv-x="1937" 
d="M420 1434h107v-971h-126v842l-195 -109l-50 93zM556 0l700 1434h125l-699 -1434h-126z" />
    <glyph glyph-name="arrowleft" unicode="&#x2190;" horiz-adv-x="1761" 
d="M1688 737v-114h-1285v-185l-329 242l329 242v-185h1285z" />
    <glyph glyph-name="arrowup" unicode="&#x2191;" horiz-adv-x="1761" 
d="M938 -78h-115v1282h-184l242 332l241 -332h-184v-1282z" />
    <glyph glyph-name="arrowright" unicode="&#x2192;" horiz-adv-x="1761" 
d="M74 623v114h1284v185l330 -242l-330 -242v185h-1284z" />
    <glyph glyph-name="arrowdown" unicode="&#x2193;" horiz-adv-x="1761" 
d="M823 1536h115v-1282h184l-241 -332l-242 332h184v1282z" />
    <glyph glyph-name="arrowboth" unicode="&#x2194;" horiz-adv-x="1761" 
d="M403 623v-185l-329 242l329 242v-185h955v185l330 -242l-330 -242v185h-955z" />
    <glyph glyph-name="arrowupdn" unicode="&#x2195;" horiz-adv-x="1761" 
d="M639 254h184v950h-184l242 332l241 -332h-184v-950h184l-241 -332z" />
    <glyph glyph-name="arrowupdnbse" unicode="&#x21a8;" horiz-adv-x="1761" 
d="M639 254h184v950h-184l242 332l241 -332h-184v-950h184l-233 -320h213v-114h-443v114h211z" />
    <glyph glyph-name="partialdiff" unicode="&#x2202;" horiz-adv-x="1235" 
d="M80 449q0 129 68 238.5t183 172t250 62.5q124 0 228.5 -56t180.5 -140q-2 132 -28.5 240.5t-76.5 191.5t-130 129t-183 46q-183 0 -321 -143l-63 112q154 156 384 156q264 0 414.5 -203t150.5 -542q0 -344 -151 -541t-398 -197q-213 0 -360.5 138t-147.5 336zM588 797
q-154 0 -259.5 -100.5t-105.5 -247.5t105.5 -248t259.5 -101q164 0 269.5 123t129.5 359q-79 100 -180.5 157.5t-218.5 57.5z" />
    <glyph glyph-name="Delta" unicode="&#x2206;" horiz-adv-x="1380" 
d="M769 1434l554 -1434h-1266l554 1434h158zM690 1273l-433 -1148h866z" />
    <glyph glyph-name="product" unicode="&#x220f;" horiz-adv-x="1375" 
d="M1195 1516v-1743h-143v1618h-728v-1618h-144v1743h1015z" />
    <glyph glyph-name="summation" unicode="&#x2211;" horiz-adv-x="1316" 
d="M135 -106l567 761l-567 740v121h1047v-125h-873l539 -703v-65l-538 -725h872v-125h-1047v121z" />
    <glyph glyph-name="minus" unicode="&#x2212;" horiz-adv-x="1163" 
d="M1042 620h-921v120h921v-120z" />
    <glyph glyph-name="uni2215" unicode="&#x2215;" horiz-adv-x="333" 
d="M-246 0l701 1434h125l-700 -1434h-126z" />
    <glyph glyph-name="uni2219" unicode="&#x2219;" horiz-adv-x="602" 
d="M197 672q0 44 30 74t74 30t74.5 -30t30.5 -74t-30.5 -74.5t-74.5 -30.5t-74 30.5t-30 74.5z" />
    <glyph glyph-name="radical" unicode="&#x221a;" horiz-adv-x="1132" 
d="M571 0h-147l-369 768h156l275 -587l442 1396h149z" />
    <glyph glyph-name="infinity" unicode="&#x221e;" horiz-adv-x="1538" 
d="M400 871q-87 0 -144 -54t-57 -137t57 -137.5t144 -54.5q78 0 141.5 44.5t150.5 147.5q-87 103 -150.5 147t-141.5 44zM769 599q-98 -112 -185 -166.5t-189 -54.5q-136 0 -229.5 86t-93.5 216q0 129 93.5 215.5t229.5 86.5q102 0 189 -55t185 -167q98 112 185 167t189 55
q136 0 229.5 -86.5t93.5 -215.5q0 -130 -93.5 -216t-229.5 -86q-102 0 -189 54.5t-185 166.5zM1138 871q-78 0 -141.5 -44t-150.5 -147q87 -103 150.5 -147.5t141.5 -44.5q87 0 144 54.5t57 137.5t-57 137t-144 54z" />
    <glyph glyph-name="orthogonal" unicode="&#x221f;" horiz-adv-x="1233" 
d="M1179 125v-125h-1004v1178h143v-1053h861z" />
    <glyph glyph-name="intersection" unicode="&#x2229;" horiz-adv-x="1292" 
d="M646 1264q209 0 352.5 -145t143.5 -355v-764h-144v754q0 163 -101.5 274t-250.5 111t-250.5 -111t-101.5 -274v-754h-143v764q0 210 143 355t352 145z" />
    <glyph glyph-name="integral" unicode="&#x222b;" horiz-adv-x="868" 
d="M504 1210v-1321q0 -364 -359 -364q-54 0 -104 8v121q36 -6 94 -6q120 0 175 61.5t55 181.5v1321q0 365 358 365q54 0 104 -8v-121q-36 6 -94 6q-120 0 -174.5 -61.5t-54.5 -182.5z" />
    <glyph glyph-name="approxequal" unicode="&#x2248;" horiz-adv-x="1163" 
d="M553 837q-37 37 -60.5 57t-62 41t-71.5 21q-130 0 -164 -202l-129 32q23 141 94.5 218t187.5 77q134 0 262 -126q37 -37 60.5 -57t62 -41t71.5 -21q131 0 165 202l129 -32q-23 -141 -95 -218t-188 -77q-134 0 -262 126zM553 386q-38 38 -60.5 57.5t-61.5 41t-72 21.5
q-130 0 -164 -203l-129 33q23 141 94.5 218t187.5 77q134 0 262 -126q38 -37 60.5 -57t61.5 -41.5t72 -21.5q131 0 165 203l129 -33q-23 -141 -95 -218t-188 -77q-134 0 -262 126z" />
    <glyph glyph-name="notequal" unicode="&#x2260;" horiz-adv-x="1163" 
d="M1042 383h-550l-161 -307h-119l160 307h-251v121h314l185 352h-499v121h561l148 283h119l-147 -283h240v-121h-304l-184 -352h488v-121z" />
    <glyph glyph-name="equivalence" unicode="&#x2261;" horiz-adv-x="1163" 
d="M1042 952h-921v121h921v-121zM1042 287h-921v121h921v-121zM1042 620h-921v120h921v-120z" />
    <glyph glyph-name="lessequal" unicode="&#x2264;" horiz-adv-x="1163" 
d="M1042 0h-921v121h921v-121zM1022 450v-133l-886 416v109l886 415v-132l-713 -338z" />
    <glyph glyph-name="greaterequal" unicode="&#x2265;" horiz-adv-x="1163" 
d="M1042 0h-921v121h921v-121zM141 317v133l713 337l-713 338v132l886 -415v-109z" />
    <glyph glyph-name="house" unicode="&#x2302;" horiz-adv-x="1292" 
d="M289 125h715v543l-358 426l-357 -426v-543zM1147 0h-1002v713l501 590l501 -590v-713z" />
    <glyph glyph-name="revlogicalnot" unicode="&#x2310;" horiz-adv-x="1163" 
d="M260 620v-374h-139v494h921v-120h-782z" />
    <glyph glyph-name="uni2318" unicode="&#x2318;" horiz-adv-x="1650" 
d="M684 520h283v283h-283v-283zM1083 1075v-168h174q74 0 124.5 48t50.5 120t-50.5 120t-124.5 48t-124 -48t-50 -120zM393 907h174v168q0 72 -50 120t-124 48t-124 -48t-50 -120t50 -120t124 -48zM567 520v283h-174q-123 0 -207 78.5t-84 193.5t84 194t207 79t207 -79
t84 -194v-168h283v168q0 116 83.5 194.5t206.5 78.5t207 -79t84 -194t-84 -193.5t-207 -78.5h-174v-283h174q123 0 207 -78.5t84 -193.5t-84 -194t-207 -79t-206.5 78.5t-83.5 194.5v168h-283v-168q0 -115 -84 -194t-207 -79t-207 79t-84 194t84 193.5t207 78.5h174z
M1083 416v-168q0 -72 50 -120t124 -48t124.5 48t50.5 120t-50.5 120t-124.5 48h-174zM567 416h-174q-74 0 -124 -48t-50 -120t50 -120t124 -48t124 48t50 120v168z" />
    <glyph glyph-name="lozenge" unicode="&#x25ca;" horiz-adv-x="1155" 
d="M1057 618l-479 -940l-480 940l480 941zM908 618l-330 660l-331 -660l331 -659z" />
    <glyph glyph-name="H18533" unicode="&#x25cf;" horiz-adv-x="2048" 
d="M332 668q0 187 93 346.5t252.5 252.5t346.5 93t346.5 -93t252.5 -252.5t93 -346.5t-93 -347t-252.5 -253t-346.5 -93t-346.5 93t-252.5 253t-93 347z" />
    <glyph glyph-name="commaaccent" horiz-adv-x="843" 
d="M385 -469h-129l161 350h142z" />
    <glyph glyph-name="zero.tnum" horiz-adv-x="1124" 
d="M86 717q0 213 51 377.5t160 264t265 99.5q155 0 264 -99.5t160.5 -264t51.5 -377.5q0 -158 -30 -292t-88 -235t-149.5 -158t-208.5 -57t-209 57t-150 158t-87.5 234.5t-29.5 292.5zM227 717q0 -179 34.5 -314t111.5 -217t189 -82t189 82t111.5 217t34.5 314t-34.5 314
t-111.5 216.5t-189 81.5t-189 -81.5t-111.5 -216.5t-34.5 -314z" />
    <glyph glyph-name="one.tnum" horiz-adv-x="947" 
d="M484 1434h131v-1434h-141v1291l-302 -170l-60 107z" />
    <glyph glyph-name="two.tnum" horiz-adv-x="1045" 
d="M756 649l-469 -526h647v-123h-834v118l545 607q86 95 124 176.5t38 165.5q0 116 -82.5 192t-209.5 76q-115 0 -196 -63.5t-111 -177.5l-120 51q34 139 149 226t278 87q187 0 310 -109.5t123 -280.5q0 -109 -46 -208t-146 -211z" />
    <glyph glyph-name="three.tnum" horiz-adv-x="1101" 
d="M857 434q0 141 -102.5 238.5t-251.5 97.5q-55 0 -102 -15l-57 72l419 482h-608v125h779v-125l-393 -447q197 0 327 -126t130 -313q0 -87 -36 -168.5t-99 -143.5t-156 -99t-200 -37q-139 0 -249 60.5t-181 170.5l97 83q57 -89 141.5 -140t187.5 -51q149 0 251.5 97.5
t102.5 238.5z" />
    <glyph glyph-name="four.tnum" horiz-adv-x="1167" 
d="M76 311v128l672 995h141v-994h184v-129h-184v-311h-141v311h-672zM234 439h514v762z" />
    <glyph glyph-name="five.tnum" horiz-adv-x="1112" 
d="M519 -25q-133 0 -245 60.5t-182 165.5l99 84q59 -88 142 -137.5t182 -49.5q149 0 248.5 96.5t99.5 241.5t-99.5 241.5t-248.5 96.5q-85 0 -154.5 -37t-107.5 -97l-98 12l86 782h710v-125h-584l-60 -504q90 90 240 90q124 0 228 -56t167 -161.5t63 -238.5
q0 -203 -136 -333.5t-350 -130.5z" />
    <glyph glyph-name="six.tnum" horiz-adv-x="1179" 
d="M806 1434l-375 -583q73 50 175 50q126 0 233 -59t171 -166t64 -237t-66.5 -237.5t-177 -167t-238.5 -59.5q-130 0 -241.5 59.5t-178.5 167t-67 237.5q0 133 69 243l479 752h153zM933 439q0 143 -100 242t-243 99t-243 -99t-100 -242t100 -242t243 -99t243 99t100 242z
" />
    <glyph glyph-name="seven.tnum" horiz-adv-x="985" 
d="M67 1434h862v-120l-557 -1314h-160l557 1309h-702v125z" />
    <glyph glyph-name="eight.tnum" horiz-adv-x="1161" 
d="M581 -25q-202 0 -341 125.5t-139 308.5q0 132 79.5 235t215.5 143q-99 33 -160 119t-61 187q0 154 116 259.5t290 105.5t289.5 -105.5t115.5 -259.5q0 -101 -61 -187t-160 -119q136 -40 215.5 -143t79.5 -235q0 -183 -138.5 -308.5t-340.5 -125.5zM581 723
q-142 0 -240 -91.5t-98 -220.5t98 -221t240 -92t240 92t98 221t-98 220.5t-240 91.5zM581 842q113 0 190.5 73t77.5 175q0 103 -77.5 174t-190.5 71q-114 0 -191.5 -71.5t-77.5 -173.5t78 -175t191 -73z" />
    <glyph glyph-name="nine.tnum" horiz-adv-x="1179" 
d="M374 0l375 583q-74 -51 -176 -51q-126 0 -233 59t-171 166t-64 237t67 237.5t177.5 167t238.5 59.5q130 0 241.5 -59.5t178 -167t66.5 -237.5q0 -133 -68 -242l-480 -752h-152zM247 994q0 -143 100 -242t243 -99t243 99t100 242t-100 242t-243 99t-243 -99t-100 -242z
" />
    <glyph glyph-name="parenleft.case" horiz-adv-x="841" 
d="M256 717q0 275 101.5 526.5t279.5 425.5l98 -77q-159 -166 -247.5 -396.5t-88.5 -478.5t88.5 -479t247.5 -397l-98 -77q-178 174 -279.5 426t-101.5 527z" />
    <glyph glyph-name="parenright.case" horiz-adv-x="841" 
d="M586 717q0 -275 -101.5 -527t-279.5 -426l-99 77q159 166 247.5 397t88.5 479t-88.5 478.5t-247.5 396.5l99 77q178 -174 279.5 -425.5t101.5 -526.5z" />
    <glyph glyph-name="hyphen.case" horiz-adv-x="815" 
d="M695 664h-575v131h575v-131z" />
    <glyph glyph-name="at.case" horiz-adv-x="1947" 
d="M967 403q91 0 164.5 53t108.5 140v270q-35 87 -108.5 140t-164.5 53q-127 0 -213.5 -95t-86.5 -233t86.5 -233t213.5 -95zM1481 295q-77 0 -141.5 47.5t-90.5 120.5q-48 -76 -126 -122t-173 -46q-172 0 -288.5 127t-116.5 309t116.5 309t288.5 127q92 0 166 -41.5
t124 -112.5v134h120v-629q12 -52 48.5 -83.5t85.5 -31.5q107 0 181.5 108.5t74.5 281.5q0 153 -61.5 290t-166 235t-248 155t-302.5 57t-302 -61.5t-246.5 -166.5t-164.5 -251t-61 -308q0 -163 60.5 -308t165 -250t253 -166.5t316.5 -61.5q283 0 509 161l48 -102
q-258 -168 -557 -168q-193 0 -363.5 69t-291.5 187.5t-191 284.5t-70 354q0 249 119.5 455t325 323t450.5 117q252 0 458 -110t323.5 -304t117.5 -431q0 -219 -110.5 -358.5t-279.5 -139.5z" />
    <glyph glyph-name="bracketleft.case" horiz-adv-x="841" 
d="M246 -195v1823h534v-125h-391v-1573h391v-125h-534z" />
    <glyph glyph-name="bracketright.case" horiz-adv-x="841" 
d="M596 1628v-1823h-535v125h392v1573h-392v125h535z" />
    <glyph glyph-name="braceleft.case" horiz-adv-x="841" 
d="M158 654v125q98 0 157.5 56t59.5 148v334q0 132 92.5 221.5t230.5 89.5h90v-125h-81q-82 0 -135.5 -55.5t-53.5 -138.5v-344q0 -97 -48.5 -160t-137.5 -88q89 -25 137.5 -88t48.5 -160v-344q0 -84 53.5 -139.5t135.5 -55.5h81v-125h-90q-138 0 -230.5 90t-92.5 222v334
q0 92 -59.5 147.5t-157.5 55.5z" />
    <glyph glyph-name="braceright.case" horiz-adv-x="841" 
d="M684 779v-125q-98 0 -157.5 -55.5t-59.5 -147.5v-334q0 -132 -93 -222t-231 -90h-90v125h82q82 0 135.5 55.5t53.5 139.5v344q0 97 48.5 160t137.5 88q-89 25 -137.5 88t-48.5 160v344q0 83 -53.5 138.5t-135.5 55.5h-82v125h90q138 0 231 -89.5t93 -221.5v-334
q0 -92 59.5 -148t157.5 -56z" />
    <glyph glyph-name="exclamdown.case" horiz-adv-x="626" 
d="M242 0v1040h143v-1040h-143zM211 1356q0 44 29.5 73t72.5 29q44 0 73.5 -29.5t29.5 -72.5q0 -44 -30 -73.5t-73 -29.5t-72.5 29.5t-29.5 73.5z" />
    <glyph glyph-name="guillemotleft.case" horiz-adv-x="1288" 
d="M109 651v74l550 352v-131l-408 -258l408 -258v-131zM610 651v74l551 352v-131l-408 -258l408 -258v-131z" />
    <glyph glyph-name="periodcentered.case" horiz-adv-x="602" 
d="M197 721q0 44 30 74t74 30t74.5 -30t30.5 -74t-30.5 -74.5t-74.5 -30.5t-74 30.5t-30 74.5z" />
    <glyph glyph-name="guillemotright.case" horiz-adv-x="1288" 
d="M1180 725v-74l-551 -352v131l408 258l-408 258v131zM678 725v-74l-551 -352v131l409 258l-409 258v131z" />
    <glyph glyph-name="questiondown.case" horiz-adv-x="1107" 
d="M700 1030v-355q-194 0 -309 -84.5t-115 -216.5q0 -116 98.5 -194t248.5 -78q172 0 321 131l76 -104q-179 -154 -412 -154q-137 0 -247 55t-170 146.5t-60 198.5q0 154 117.5 264t308.5 131v260h143zM727 1356q0 -44 -29.5 -73.5t-72.5 -29.5t-73 29.5t-30 73.5
q0 43 29.5 72.5t73.5 29.5q43 0 72.5 -29t29.5 -73z" />
    <glyph glyph-name="endash.case" horiz-adv-x="1024" 
d="M1024 664h-1024v131h1024v-131z" />
    <glyph glyph-name="emdash.case" horiz-adv-x="2048" 
d="M2048 664h-2048v131h2048v-131z" />
    <glyph glyph-name="bullet.case" horiz-adv-x="819" 
d="M410 492q-100 0 -170 69t-70 168t70 168.5t170 69.5t169.5 -69.5t69.5 -168.5t-69.5 -168t-169.5 -69z" />
    <glyph glyph-name="guilsinglleft.case" horiz-adv-x="786" 
d="M109 651v74l550 352v-131l-408 -258l408 -258v-131z" />
    <glyph glyph-name="guilsinglright.case" horiz-adv-x="786" 
d="M678 725v-74l-551 -352v131l409 258l-409 258v131z" />
    <glyph glyph-name="zero.numerator" 
d="M66 948q0 146 36 259.5t113 182t186 68.5t186 -68.5t113.5 -182t36.5 -259.5t-36.5 -259.5t-113.5 -182t-186 -68.5t-186 68.5t-113 182t-36 259.5zM190 948q0 -180 53.5 -290.5t157.5 -110.5t157.5 110.5t53.5 290.5q0 117 -22 206t-70.5 142.5t-118.5 53.5
t-118.5 -53.5t-70.5 -142.5t-22 -206z" />
    <glyph glyph-name="one.numerator" 
d="M420 1434h107v-971h-126v842l-195 -109l-50 93z" />
    <glyph glyph-name="two.numerator" 
d="M563 900l-299 -333h422v-104h-590v93l370 409q104 115 104 222q0 71 -51.5 119t-129.5 48q-72 0 -122 -43t-71 -123l-110 42q24 104 106 166t197 62q132 0 219.5 -76.5t87.5 -194.5q0 -74 -32 -142.5t-101 -144.5z" />
    <glyph glyph-name="three.numerator" 
d="M586 756q0 89 -64.5 150.5t-156.5 61.5q-35 0 -76 -13l-49 62l272 311h-396v106h552v-97l-253 -283q126 -11 211.5 -96.5t85.5 -209.5q0 -126 -97 -218t-247 -92q-98 0 -176.5 44.5t-129.5 122.5l85 75q87 -137 218 -137q93 0 157 61.5t64 151.5z" />
    <glyph glyph-name="four.numerator" 
d="M43 669v98l457 667h118v-657h124v-108h-124v-206h-124v206h-451zM184 776h310v458z" />
    <glyph glyph-name="five.numerator" 
d="M373 438q-95 0 -174 43.5t-130 119.5l88 73q87 -131 214 -131q93 0 155.5 61t62.5 153q0 91 -62.5 152.5t-155.5 61.5q-52 0 -96.5 -25.5t-70.5 -66.5l-91 12l59 543h507v-106h-393l-37 -299q57 44 143 44q134 0 228.5 -88t94.5 -226q0 -140 -95.5 -230.5t-246.5 -90.5z
" />
    <glyph glyph-name="six.numerator" 
d="M569 1434l-241 -375q35 19 84 19q135 0 232 -91t97 -227q0 -137 -100.5 -229.5t-238.5 -92.5q-140 0 -240.5 92.5t-100.5 229.5q0 93 49 167l325 507h134zM615 760q0 91 -62.5 153t-152.5 62q-89 0 -151 -62.5t-62 -152.5q0 -92 62 -154.5t151 -62.5q90 0 152.5 62.5
t62.5 154.5z" />
    <glyph glyph-name="seven.numerator" 
d="M98 1434h610v-93l-374 -878h-140l370 865h-466v106z" />
    <glyph glyph-name="eight.numerator" 
d="M401 438q-142 0 -239 87t-97 215q0 84 49 153t133 103q-61 28 -97 83.5t-36 120.5q0 108 82 183t205 75t205.5 -75t82.5 -183q0 -65 -36 -120.5t-97 -83.5q84 -34 133 -103t49 -153q0 -128 -97.5 -215t-239.5 -87zM401 941q-89 0 -150 -58.5t-61 -141.5q0 -84 60.5 -141
t150.5 -57t150.5 57t60.5 141q0 83 -61 141.5t-150 58.5zM401 1042q69 0 117 46t48 111t-47.5 110t-117.5 45t-117 -45t-47 -110t47.5 -111t116.5 -46z" />
    <glyph glyph-name="nine.numerator" 
d="M233 463l242 375q-37 -20 -84 -20q-135 0 -232.5 91.5t-97.5 227.5q0 137 100.5 229t238.5 92q140 0 240.5 -92t100.5 -229q0 -94 -48 -167l-325 -507h-135zM187 1137q0 -91 62.5 -153t152.5 -62q89 0 151 62.5t62 152.5q0 92 -62 154.5t-151 62.5q-90 0 -152.5 -62.5
t-62.5 -154.5z" />
    <glyph glyph-name="zero.denominator" 
d="M66 485q0 146 36 259.5t113 182t186 68.5t186 -68.5t113.5 -182t36.5 -259.5t-36.5 -259.5t-113.5 -182t-186 -68.5t-186 68.5t-113 182t-36 259.5zM190 485q0 -180 53.5 -290.5t157.5 -110.5t157.5 110.5t53.5 290.5q0 117 -22 206t-70.5 142.5t-118.5 53.5
t-118.5 -53.5t-70.5 -142.5t-22 -206z" />
    <glyph glyph-name="one.denominator" 
d="M420 971h107v-971h-126v842l-195 -109l-50 93z" />
    <glyph glyph-name="two.denominator" 
d="M563 437l-299 -333h422v-104h-590v93l370 409q104 115 104 222q0 71 -51.5 119t-129.5 48q-72 0 -122 -43t-71 -123l-110 42q24 104 106 166t197 62q132 0 219.5 -76.5t87.5 -194.5q0 -74 -32 -142.5t-101 -144.5z" />
    <glyph glyph-name="three.denominator" 
d="M586 293q0 89 -64.5 150.5t-156.5 61.5q-39 0 -76 -12l-49 61l272 311h-396v106h552v-97l-253 -283q126 -11 211.5 -96.5t85.5 -209.5q0 -126 -97 -218t-247 -92q-98 0 -176.5 44.5t-129.5 122.5l85 75q87 -137 218 -137q93 0 157 61.5t64 151.5z" />
    <glyph glyph-name="four.denominator" 
d="M43 206v98l457 667h118v-657h124v-108h-124v-206h-124v206h-451zM184 313h310v458z" />
    <glyph glyph-name="five.denominator" 
d="M373 -25q-95 0 -174 43.5t-130 119.5l88 73q87 -131 214 -131q93 0 155.5 61t62.5 153q0 91 -62.5 152.5t-155.5 61.5q-52 0 -96.5 -25.5t-70.5 -66.5l-91 12l59 543h507v-106h-393l-37 -299q57 44 143 44q134 0 228.5 -88t94.5 -226q0 -140 -95.5 -230.5t-246.5 -90.5z
" />
    <glyph glyph-name="six.denominator" 
d="M569 971l-241 -375q35 19 84 19q135 0 232 -91t97 -227q0 -137 -100.5 -229.5t-238.5 -92.5q-140 0 -240.5 92.5t-100.5 229.5q0 93 49 167l325 507h134zM615 297q0 91 -62.5 153t-152.5 62q-89 0 -151 -62.5t-62 -152.5q0 -92 62 -154.5t151 -62.5q90 0 152.5 62.5
t62.5 154.5z" />
    <glyph glyph-name="seven.denominator" 
d="M98 971h610v-92l-374 -879h-140l370 865h-466v106z" />
    <glyph glyph-name="eight.denominator" 
d="M401 -25q-142 0 -239 87.5t-97 215.5q0 84 49 153t133 103q-61 28 -97 83t-36 120q0 108 82 183t205 75t205.5 -75t82.5 -183q0 -65 -36 -120t-97 -83q84 -34 133 -103t49 -153q0 -128 -97.5 -215.5t-239.5 -87.5zM401 478q-89 0 -150 -58t-61 -141q0 -84 60.5 -141.5
t150.5 -57.5t150.5 57.5t60.5 141.5q0 83 -61 141t-150 58zM401 580q69 0 117 45.5t48 110.5t-47.5 110t-117.5 45t-117 -45t-47 -110t47.5 -110.5t116.5 -45.5z" />
    <glyph glyph-name="nine.denominator" 
d="M233 0l242 375q-37 -20 -84 -20q-135 0 -232.5 91.5t-97.5 227.5q0 137 100.5 229t238.5 92q140 0 240.5 -92t100.5 -229q0 -94 -48 -167l-325 -507h-135zM187 674q0 -91 62.5 -153t152.5 -62q89 0 151 62.5t62 152.5q0 92 -62 154.5t-151 62.5q-90 0 -152.5 -62.5
t-62.5 -154.5z" />
    <glyph glyph-name="dollar_osf" horiz-adv-x="1053" 
d="M94 175l91 93q59 -68 139.5 -113.5t167.5 -54.5v463q-179 41 -274 127t-95 210q0 137 102.5 226.5t266.5 95.5v158h100v-162q172 -23 314 -155l-84 -98q-116 105 -230 126v-419q376 -91 376 -358q0 -137 -102.5 -229.5t-273.5 -106.5v-162h-100v161q-117 8 -222 61
t-176 137zM828 312q0 156 -236 227v-436q106 14 171 70.5t65 138.5zM263 908q0 -143 229 -212v401q-103 -7 -166 -59.5t-63 -129.5z" />
    <glyph glyph-name="zero_osf" horiz-adv-x="999" 
d="M75 550q0 168 47.5 296t144.5 203t233 75t233 -75t144.5 -203t47.5 -296t-47.5 -296.5t-144.5 -203.5t-233 -75t-233 75t-144.5 203.5t-47.5 296.5zM215 550q0 -204 74 -327.5t211 -123.5t210.5 123.5t73.5 327.5t-73.5 326.5t-210.5 122.5t-211 -123t-74 -326z" />
    <glyph glyph-name="one_osf" horiz-adv-x="852" 
d="M432 1100h126v-1100h-141v955l-271 -139l-54 112z" />
    <glyph glyph-name="two_osf" horiz-adv-x="929" 
d="M671 488l-377 -364h535v-124h-744v114l478 455q137 131 137 245q0 79 -69 132t-175 53q-100 0 -170.5 -49t-96.5 -135l-120 48q39 122 140 191.5t247 69.5q167 0 276.5 -87t109.5 -222q0 -86 -42 -164.5t-129 -162.5z" />
    <glyph glyph-name="three_osf" horiz-adv-x="991" 
d="M758 186q0 126 -89 212.5t-218 86.5q-50 0 -93 -15l-58 73l367 431h-534v126h709v-121l-343 -395q171 -13 285.5 -131t114.5 -277q0 -81 -32.5 -155.5t-89.5 -131.5t-141 -91t-181 -34q-125 0 -226 57.5t-167 160.5l99 83q52 -82 126 -129.5t164 -47.5q130 0 218.5 86.5
t88.5 211.5z" />
    <glyph glyph-name="four_osf" horiz-adv-x="1051" 
d="M66 73v120l601 907h137v-902h164v-125h-164v-284h-140v284h-598zM227 198h437v666z" />
    <glyph glyph-name="five_osf" horiz-adv-x="1000" 
d="M466 -236q-121 0 -222.5 56.5t-167.5 155.5l101 85q114 -173 285 -173q130 0 216 85.5t86 214.5q0 128 -86 213.5t-216 85.5q-74 0 -135 -33.5t-94 -87.5l-100 12l79 722h646v-125h-521l-50 -438q81 73 203 73q112 0 206.5 -51t151.5 -148.5t57 -220.5
q0 -186 -122.5 -306t-316.5 -120z" />
    <glyph glyph-name="six_osf" horiz-adv-x="1061" 
d="M737 1313l-328 -521q55 36 137 36q114 0 210.5 -54.5t154.5 -152.5t58 -218q0 -181 -129.5 -304.5t-307.5 -123.5q-181 0 -310.5 123t-129.5 305q0 122 63 224l429 686h153zM827 403q0 127 -86.5 215t-210.5 88t-210.5 -88t-86.5 -215t86.5 -215.5t210.5 -88.5
q125 0 211 88.5t86 215.5z" />
    <glyph glyph-name="seven_osf" horiz-adv-x="886" 
d="M54 1100h783v-115l-499 -1196h-158l497 1186h-623v125z" />
    <glyph glyph-name="eight_osf" horiz-adv-x="1043" 
d="M521 -25q-183 0 -308 116t-125 285q0 117 68 211t183 134q-83 34 -134 110.5t-51 165.5q0 143 104.5 241.5t262.5 98.5t263.5 -98.5t105.5 -241.5q0 -89 -51.5 -165.5t-135.5 -110.5q115 -40 183.5 -134t68.5 -211q0 -169 -125.5 -285t-308.5 -116zM521 655
q-124 0 -208.5 -81t-84.5 -196q0 -116 84.5 -197.5t208.5 -81.5t209 81.5t85 197.5q0 115 -85 196t-209 81zM521 775q97 0 165 65t68 155t-68 154t-165 64t-164 -64t-67 -154q0 -91 67 -155.5t164 -64.5z" />
    </font>
</defs>
</svg>
