<?xml version="1.0" standalone="no"?>
<!DOCTYPE svg PUBLIC "-//W3C//DTD SVG 1.1//EN" "http://www.w3.org/Graphics/SVG/1.1/DTD/svg11.dtd" >
<svg xmlns="http://www.w3.org/2000/svg" xmlns:xlink="http://www.w3.org/1999/xlink" version="1.1">
<metadata>
Created by FontForge 20170731 at Wed Nov 17 17:19:23 2021
 By Aleksey,,,
Copyright (c) 2016 by S-Core Co., Ltd.. All rights reserved.
</metadata>
<defs>
<font id="CoreSansC-25ExtraLightIt" horiz-adv-x="794" >
  <font-face 
    font-family="Core Sans C 25 ExtraLight"
    font-weight="200"
    font-style="italic"
    font-stretch="normal"
    units-per-em="2048"
    panose-1="2 11 6 3 3 3 2 2 2 4"
    ascent="1638"
    descent="-410"
    x-height="1061"
    cap-height="1434"
    bbox="-818 -532 2462 1997"
    underline-thickness="49"
    underline-position="-472"
    unicode-range="U+0009-FB04"
  />
<missing-glyph horiz-adv-x="1024" 
d="M891 0h-717v1536h717v-1536zM257 77h551v1381h-551v-1381z" />
    <glyph glyph-name="ff" unicode="ff" horiz-adv-x="1445" 
d="M1583 1487l-16 -81q-35 7 -93 7q-250 0 -305 -279l-14 -73h345l-16 -82h-345l-283 -1454h-92l283 1454h-605l-282 -1454h-92l282 1454h-214l17 82h214l14 75q34 174 139 266.5t278 92.5q78 0 145 -20l-34 -81q-56 19 -127 19q-254 0 -309 -279l-14 -73h604l14 75
q34 174 137 266.5t270 92.5q49 0 99 -8z" />
    <glyph glyph-name="fi" unicode="fi" horiz-adv-x="1267" 
d="M442 979l-282 -1454h-92l282 1454h-214l17 82h214l14 75q34 174 138.5 266.5t276.5 92.5q50 0 106 -8l-16 -81q-39 7 -101 7q-257 0 -312 -279l-14 -73h696l-206 -1061h-92l190 979h-605zM1096 1380q8 30 33.5 49.5t55.5 19.5q29 0 45.5 -16t16.5 -44q0 -12 -2 -21
q-7 -32 -33 -52t-57 -20q-28 0 -45 17t-17 44q0 13 3 23z" />
    <glyph glyph-name="fl" unicode="fl" horiz-adv-x="1266" 
d="M887 1487l-17 -81q-35 7 -93 7q-249 0 -304 -279l-14 -73h345l-17 -82h-345l-282 -1454h-92l282 1454h-214l17 82h214l14 75q34 174 136.5 266.5t269.5 92.5q50 0 100 -8zM857 0l290 1495h92l-290 -1495h-92z" />
    <glyph glyph-name="ffi" unicode="ffi" horiz-adv-x="1964" 
d="M367 1061l14 75q34 174 139 266.5t278 92.5q78 0 145 -20l-34 -81q-56 19 -127 19q-254 0 -309 -279l-14 -73h604l14 75q34 174 139 266.5t275 92.5q53 0 107 -8l-16 -81q-36 7 -101 7q-257 0 -312 -279l-14 -73h696l-205 -1061h-93l190 979h-604l-283 -1454h-92
l283 1454h-605l-282 -1454h-92l282 1454h-214l17 82h214zM1792 1380q8 30 33.5 49.5t55.5 19.5q29 0 46 -16t17 -44q0 -12 -2 -21q-7 -32 -33.5 -52t-57.5 -20q-28 0 -45 17t-17 44q0 13 3 23z" />
    <glyph glyph-name="ffl" unicode="ffl" horiz-adv-x="1963" 
d="M1583 1487l-16 -81q-35 7 -93 7q-250 0 -305 -279l-14 -73h345l-16 -82h-345l-283 -1454h-92l283 1454h-605l-282 -1454h-92l282 1454h-214l17 82h214l14 75q34 174 139 266.5t278 92.5q78 0 145 -20l-34 -81q-56 19 -127 19q-254 0 -309 -279l-14 -73h604l14 75
q34 174 137 266.5t270 92.5q49 0 99 -8zM1553 0l290 1495h92l-289 -1495h-93z" />
    <glyph glyph-name=".notdef" horiz-adv-x="1024" 
d="M891 0h-717v1536h717v-1536zM257 77h551v1381h-551v-1381z" />
    <glyph glyph-name=".null" horiz-adv-x="0" 
 />
    <glyph glyph-name=".null" horiz-adv-x="0" 
 />
    <glyph glyph-name="nonmarkingreturn" horiz-adv-x="682" 
 />
    <glyph glyph-name="CR" unicode="&#x9;" horiz-adv-x="0" 
 />
    <glyph glyph-name="space" unicode=" " horiz-adv-x="595" 
 />
    <glyph glyph-name="exclam" unicode="!" horiz-adv-x="620" 
d="M234 383l205 1051h95l-205 -1051h-95zM141 58q8 32 33.5 52.5t57.5 20.5q29 0 47 -16.5t18 -44.5q0 -14 -3 -25q-8 -30 -33.5 -50t-57.5 -20q-29 0 -47 17t-18 44q0 10 3 22z" />
    <glyph glyph-name="quotedbl" unicode="&#x22;" horiz-adv-x="949" 
d="M332 854l112 580h93l-113 -580h-92zM652 854l113 580h92l-113 -580h-92z" />
    <glyph glyph-name="numbersign" unicode="#" horiz-adv-x="1369" 
d="M668 0l144 398h-417l-144 -398h-94l144 398h-239l16 80h253l175 477h-259l15 80h273l146 399h94l-146 -399h417l146 399h94l-146 -399h239l-15 -80h-253l-175 -477h259l-15 -80h-274l-144 -398h-94zM600 955l-175 -477h417l175 477h-417z" />
    <glyph glyph-name="dollar" unicode="$" horiz-adv-x="1179" 
d="M56 204l76 66q54 -88 144.5 -146.5t201.5 -64.5l125 644q-172 40 -262.5 122.5t-90.5 200.5q0 31 6 64q31 158 168.5 261.5t325.5 106.5l35 184h80l-36 -188q192 -23 320 -178l-72 -70q-115 141 -265 163l-116 -595q360 -87 360 -336q0 -33 -8 -76q-30 -158 -170 -265
t-336 -120l-36 -186h-80l36 185q-133 7 -240.5 69.5t-165.5 158.5zM952 359q5 24 5 56q0 192 -277 270l-122 -624q152 14 261 95.5t133 202.5zM353 1097q-5 -27 -5 -48q0 -90 71 -154t202 -102l112 581q-148 -4 -252.5 -82t-127.5 -195z" />
    <glyph glyph-name="percent" unicode="%" horiz-adv-x="1817" 
d="M388 0l1017 1434h98l-1017 -1434h-98zM217 1099q27 140 148 244.5t274 104.5q134 0 213.5 -81.5t79.5 -202.5q0 -32 -6 -65q-27 -140 -148 -244.5t-274 -104.5q-134 0 -213.5 81.5t-79.5 201.5q0 33 6 66zM308 1099q-5 -28 -5 -51q0 -92 58 -155.5t158 -63.5
q115 0 205 82t111 188q5 28 5 52q0 91 -58 154t-158 63q-115 0 -205 -81.5t-111 -187.5zM965 335q27 140 147.5 244.5t273.5 104.5q134 0 213.5 -81.5t79.5 -202.5q0 -32 -6 -65q-27 -140 -148 -244.5t-274 -104.5q-134 0 -213.5 81.5t-79.5 201.5q0 27 7 66zM1056 335
q-5 -28 -5 -51q0 -91 58 -154.5t158 -63.5q115 0 204.5 81.5t110.5 187.5q5 28 5 52q0 91 -58 154t-158 63q-115 0 -204.5 -81.5t-110.5 -187.5z" />
    <glyph glyph-name="ampersand" unicode="&#x26;" horiz-adv-x="1469" 
d="M1114 1212l-89 -34q-22 96 -89.5 148.5t-169.5 52.5q-112 0 -204 -72.5t-112 -173.5q-5 -25 -5 -39q0 -60 36.5 -117t122.5 -153l424 -466q124 159 192 369l88 -13q-72 -235 -224 -419l270 -295h-127l-209 225q-115 -118 -250.5 -184t-277.5 -66q-170 0 -276 93t-106 235
q0 33 6 69q25 127 126 235t259 188q-76 88 -111 150.5t-35 130.5q0 32 5 56q27 136 150.5 231t272.5 95q135 0 220.5 -65t112.5 -181zM506 57q119 0 237.5 60t220.5 169l-411 449q-145 -71 -235.5 -163.5t-110.5 -195.5q-5 -22 -5 -54q0 -112 85 -188.5t219 -76.5z" />
    <glyph glyph-name="quotesingle" unicode="'" horiz-adv-x="628" 
d="M332 854l112 580h93l-113 -580h-92z" />
    <glyph glyph-name="parenleft" unicode="(" horiz-adv-x="833" 
d="M286 625q54 277 206 530t362 422l54 -53q-198 -164 -338 -402.5t-190 -496.5q-26 -135 -26 -260q0 -187 52.5 -352t151.5 -287l-75 -54q-107 127 -165 304.5t-58 379.5q0 130 26 269z" />
    <glyph glyph-name="parenright" unicode=")" horiz-adv-x="833" 
d="M585 625q-53 -276 -205.5 -529.5t-363.5 -423.5l-54 54q198 164 338 402.5t190 496.5q26 135 26 260q0 187 -52.5 352t-151.5 287l75 53q107 -127 165.5 -304.5t58.5 -378.5q0 -130 -26 -269z" />
    <glyph glyph-name="asterisk" unicode="*" horiz-adv-x="1112" 
d="M205 943l333 -194l-2 384h81l-2 -384l333 194l41 -72l-336 -191l336 -192l-41 -71l-333 194l2 -384h-81l2 384l-333 -194l-41 71l336 192l-336 191z" />
    <glyph glyph-name="plus" unicode="+" horiz-adv-x="1150" 
d="M550 215v424h-410v81h410v425h92v-425h410v-81h-410v-424h-92z" />
    <glyph glyph-name="comma" unicode="," horiz-adv-x="595" 
d="M124 40q0 17 5 31q11 29 36.5 47.5t56.5 18.5q30 0 48.5 -17.5t18.5 -45.5q0 -26 -16 -52l-165 -263h-72l137 218q-49 11 -49 63z" />
    <glyph glyph-name="hyphen" unicode="-" horiz-adv-x="806" 
d="M710 637h-572l18 86h571z" />
    <glyph glyph-name="period" unicode="." horiz-adv-x="595" 
d="M126 61q8 32 35 54t61 22q30 0 48.5 -17.5t18.5 -44.5q0 -14 -3 -24q-8 -33 -35.5 -54.5t-60.5 -21.5q-30 0 -48.5 18t-18.5 47q0 10 3 21z" />
    <glyph glyph-name="slash" unicode="/" horiz-adv-x="916" 
d="M1054 1536l-1054 -1823h-100l1053 1823h101z" />
    <glyph glyph-name="zero" unicode="0" horiz-adv-x="1191" 
d="M164 717q31 158 86.5 292t132 234.5t177.5 157.5t216 57q176 0 264.5 -127.5t88.5 -347.5q0 -125 -27 -266q-42 -213 -124.5 -377.5t-210 -264.5t-279.5 -100q-176 0 -264.5 127.5t-88.5 346.5q0 115 29 268zM257 717q-28 -143 -28 -260q0 -184 68.5 -290.5t207.5 -106.5
q94 0 176.5 50.5t145.5 140.5t109 208t73 258q26 141 26 258q0 185 -68 291.5t-207 106.5q-94 0 -176.5 -50.5t-145 -140.5t-108.5 -207.5t-73 -257.5z" />
    <glyph glyph-name="one" unicode="1" horiz-adv-x="1191" 
d="M818 1434h88l-278 -1434h-93l260 1338l-372 -191l-26 73z" />
    <glyph glyph-name="two" unicode="2" horiz-adv-x="1191" 
d="M869 679l-642 -597h694l-16 -82h-817l14 79l704 650q197 183 230 355q5 23 5 55q0 103 -75 170t-198 67q-127 0 -232 -71.5t-155 -191.5l-76 32q54 136 185.5 224.5t292.5 88.5q158 0 256 -84.5t98 -218.5q0 -31 -8 -71q-40 -201 -260 -405z" />
    <glyph glyph-name="three" unicode="3" horiz-adv-x="1191" 
d="M902 424q7 42 7 69q0 130 -90.5 214t-235.5 84q-63 0 -122 -19l-30 51l570 528h-649l17 83h761l-16 -83l-543 -498q12 1 36 1q178 0 286.5 -98t108.5 -254q0 -38 -8 -84q-36 -184 -198 -313.5t-370 -129.5q-136 0 -231 59.5t-142 165.5l76 57q38 -92 118 -146t192 -54
q165 0 299 106t164 261z" />
    <glyph glyph-name="four" unicode="4" horiz-adv-x="1191" 
d="M45 332l16 84l888 1018h93l-197 -1017h199l-17 -85h-200l-63 -332h-93l63 332h-689zM170 416h581l168 863z" />
    <glyph glyph-name="five" unicode="5" horiz-adv-x="1191" 
d="M450 -25q-128 0 -225 60t-146 159l76 57q42 -90 122 -142t186 -52q163 0 293.5 106t161.5 265q7 36 7 75q0 131 -88 213.5t-230 82.5q-95 0 -179.5 -43t-140.5 -112l-63 8l239 782h690l-16 -83h-608l-182 -583q126 112 293 112q166 0 273 -100t107 -260q0 -43 -9 -91
q-38 -196 -197.5 -325t-363.5 -129z" />
    <glyph glyph-name="six" unicode="6" horiz-adv-x="1191" 
d="M952 1434l-514 -616q108 69 234 69q169 0 277 -103t108 -263q0 -43 -9 -89q-38 -193 -202 -325t-359 -132q-171 0 -281.5 103.5t-110.5 264.5q0 43 9 89q24 130 113 238l632 764h103zM954 432q8 40 8 72q0 131 -88 216.5t-227 85.5q-158 0 -288.5 -108.5t-160.5 -265.5
q-8 -42 -8 -74q0 -131 87 -216t225 -85q158 0 289.5 109t162.5 266z" />
    <glyph glyph-name="seven" unicode="7" horiz-adv-x="1191" 
d="M352 1434h847l-16 -81l-852 -1353h-97l852 1351h-750z" />
    <glyph glyph-name="eight" unicode="8" horiz-adv-x="1191" 
d="M488 -25q-174 0 -284 98.5t-110 249.5q0 39 7 75q26 136 133.5 242t260.5 145q-89 27 -139 96t-50 158q0 37 5 62q29 151 163 254t302 103q149 0 241 -82.5t92 -209.5q0 -25 -7 -65q-21 -107 -104 -195.5t-200 -120.5q118 -33 183.5 -116.5t65.5 -195.5q0 -33 -8 -75
q-35 -178 -194.5 -300.5t-356.5 -122.5zM637 742q-158 0 -286 -100.5t-156 -242.5q-7 -35 -7 -60q0 -121 88.5 -201.5t227.5 -80.5q158 0 286.5 100.5t155.5 241.5q6 30 6 62q0 121 -88 201t-227 80zM653 822q128 0 231.5 81t126.5 197q5 28 5 50q0 98 -71 162t-184 64
q-129 0 -232.5 -80t-126.5 -196q-5 -28 -5 -50q0 -99 71 -163.5t185 -64.5z" />
    <glyph glyph-name="nine" unicode="9" horiz-adv-x="1191" 
d="M313 0l513 615q-106 -68 -233 -68q-169 0 -276.5 102.5t-107.5 262.5q0 43 9 89q25 128 109 233.5t203.5 164.5t246.5 59q172 0 282 -104t110 -265q0 -48 -8 -88q-26 -130 -112 -237l-632 -764h-104zM311 1001q-7 -35 -7 -72q0 -131 87.5 -216t225.5 -85q158 0 289 108
t162 265q7 35 7 73q0 132 -87 217t-225 85q-159 0 -290.5 -109t-161.5 -266z" />
    <glyph glyph-name="colon" unicode=":" horiz-adv-x="595" 
d="M126 61q8 32 35 54t61 22q30 0 48.5 -17.5t18.5 -44.5q0 -14 -3 -24q-8 -33 -35.5 -54.5t-60.5 -21.5q-30 0 -48.5 18t-18.5 47q0 10 3 21zM310 1010q8 32 35.5 53.5t61.5 21.5q30 0 48 -17.5t18 -44.5q0 -14 -3 -24q-8 -33 -35 -54t-60 -21q-30 0 -49 18t-19 46
q0 12 3 22z" />
    <glyph glyph-name="semicolon" unicode=";" horiz-adv-x="595" 
d="M310 1010q8 32 35.5 53.5t61.5 21.5q30 0 48 -17.5t18 -44.5q0 -14 -3 -24q-8 -33 -35 -54t-60 -21q-30 0 -49 18t-19 46q0 12 3 22zM124 40q0 17 5 31q11 29 36.5 47.5t56.5 18.5q30 0 48.5 -17.5t18.5 -45.5q0 -26 -16 -52l-165 -263h-72l137 218q-49 11 -49 63z" />
    <glyph glyph-name="less" unicode="&#x3c;" horiz-adv-x="1150" 
d="M1018 246v-106l-854 506v68l854 506v-106l-739 -434z" />
    <glyph glyph-name="equal" unicode="=" horiz-adv-x="1150" 
d="M1052 881h-912v81h912v-81zM1052 398h-912v81h912v-81z" />
    <glyph glyph-name="greater" unicode="&#x3e;" horiz-adv-x="1150" 
d="M174 140v106l739 434l-739 434v106l854 -506v-68z" />
    <glyph glyph-name="question" unicode="?" horiz-adv-x="1096" 
d="M399 398l68 347q201 0 339 90.5t165 231.5q5 28 5 51q0 111 -90.5 183.5t-235.5 72.5q-191 0 -369 -139l-37 71q202 152 430 152q179 0 288.5 -92.5t109.5 -232.5q0 -31 -6 -66q-31 -158 -176 -267t-342 -122l-54 -280h-95zM309 58q8 32 33.5 52.5t57.5 20.5
q29 0 47 -16.5t18 -44.5q0 -14 -3 -25q-8 -30 -33.5 -50t-57.5 -20q-29 0 -47 17t-18 44q0 10 3 22z" />
    <glyph glyph-name="at" unicode="@" horiz-adv-x="1927" 
d="M889 189q100 0 192.5 60t149.5 158l55 288q-18 98 -87 157.5t-169 59.5q-137 0 -251 -104t-144 -257q-8 -45 -8 -81q0 -123 72.5 -202t189.5 -79zM1402 115q-81 0 -131 53t-53 136q-61 -83 -154.5 -136t-197.5 -53q-146 0 -235 96t-89 246q0 45 9 94q36 184 176 310
t309 126q101 0 170.5 -48.5t102.5 -127.5l30 156h82l-122 -629v-8q0 -65 33 -103t91 -38q117 0 221.5 122.5t140.5 305.5q14 70 14 147q0 177 -84 318t-237.5 221t-349.5 80q-221 0 -426.5 -108.5t-348.5 -297t-187 -414.5q-16 -83 -16 -167q0 -188 82.5 -336t237.5 -232.5
t358 -84.5q291 0 552 164l20 -70q-280 -169 -586 -169q-168 0 -308.5 53.5t-236.5 148t-149.5 226.5t-53.5 286q0 93 17 181q36 186 137.5 352.5t243 285t319 188t360.5 69.5q218 0 387.5 -87.5t261.5 -241.5t92 -350q0 -82 -16 -162q-42 -215 -175.5 -358.5t-290.5 -143.5z
" />
    <glyph glyph-name="A" unicode="A" horiz-adv-x="1366" 
d="M1198 0h-105l-81 418h-701l-242 -418h-106l846 1434h100zM997 501l-159 823l-480 -823h639z" />
    <glyph glyph-name="B" unicode="B" horiz-adv-x="1242" 
d="M583 0h-497l279 1434h462q157 0 246 -79t89 -209q0 -34 -8 -77q-23 -122 -108.5 -207t-197.5 -111q116 -17 190 -92t74 -193q0 -39 -7 -75q-34 -172 -179 -281.5t-343 -109.5zM1059 1066q6 30 6 60q0 103 -70.5 164t-190.5 61h-362l-110 -568h361q138 0 239.5 78
t126.5 205zM1010 393q6 33 6 62q0 113 -82.5 180t-223.5 67h-394l-120 -619h393q161 0 277.5 85.5t143.5 224.5z" />
    <glyph glyph-name="C" unicode="C" horiz-adv-x="1374" 
d="M729 59q236 0 454 159l37 -73q-235 -170 -507 -170q-269 0 -436.5 166t-167.5 424q0 74 15 152q40 206 169 376t316.5 267.5t390.5 97.5q257 0 427 -156l-64 -72q-161 144 -379 144q-176 0 -339.5 -88t-277 -238.5t-148.5 -330.5q-13 -65 -13 -132q0 -228 145.5 -377
t377.5 -149z" />
    <glyph glyph-name="D" unicode="D" horiz-adv-x="1405" 
d="M365 1434h451q264 0 410.5 -146t146.5 -395q0 -90 -17 -176q-63 -322 -285.5 -519.5t-532.5 -197.5h-452zM800 1350h-358l-246 -1266h357q265 0 458.5 173t249.5 460q16 81 16 161q0 219 -126 345.5t-351 126.5z" />
    <glyph glyph-name="E" unicode="E" horiz-adv-x="1133" 
d="M86 0l279 1434h795l-16 -83h-702l-114 -589h644l-17 -83h-644l-115 -596h719l-15 -83h-814z" />
    <glyph glyph-name="F" unicode="F" horiz-adv-x="1051" 
d="M86 0l279 1434h775l-17 -83h-681l-113 -587h623l-16 -83h-624l-132 -681h-94z" />
    <glyph glyph-name="G" unicode="G" horiz-adv-x="1454" 
d="M984 1374q-176 0 -339.5 -88t-277 -238.5t-148.5 -330.5q-13 -65 -13 -132q0 -228 145.5 -377t377.5 -149q109 0 219.5 38t204.5 105l83 430h-480l16 83h575l-108 -555q-113 -87 -248.5 -136t-277.5 -49q-269 0 -436.5 166t-167.5 424q0 74 15 152q40 206 169 376
t316.5 267.5t390.5 97.5q257 0 427 -156l-64 -72q-161 144 -379 144z" />
    <glyph glyph-name="H" unicode="H" horiz-adv-x="1398" 
d="M86 0l279 1434h94l-131 -672h833l131 672h94l-278 -1434h-94l131 679h-834l-131 -679h-94z" />
    <glyph glyph-name="I" unicode="I" horiz-adv-x="571" 
d="M415 1434h94l-279 -1434h-94z" />
    <glyph glyph-name="J" unicode="J" horiz-adv-x="903" 
d="M615 412l199 1022h94l-198 -1022q-42 -216 -164 -326.5t-307 -110.5q-72 0 -144.5 19t-123.5 51l48 83q44 -31 109 -50t123 -19q141 0 235.5 89.5t128.5 263.5z" />
    <glyph glyph-name="K" unicode="K" horiz-adv-x="1200" 
d="M459 1434l-131 -672h195l632 672h112l-668 -712l471 -722h-114l-446 679h-199l-131 -679h-94l279 1434h94z" />
    <glyph glyph-name="L" unicode="L" horiz-adv-x="1054" 
d="M86 0l279 1434h94l-263 -1351h709l-15 -83h-804z" />
    <glyph glyph-name="M" unicode="M" horiz-adv-x="1710" 
d="M879 484h-66l-388 786l-247 -1270h-92l279 1434h88l414 -842l743 842h88l-279 -1434h-92l247 1270z" />
    <glyph glyph-name="N" unicode="N" horiz-adv-x="1414" 
d="M86 0l279 1434h89l609 -1268l247 1268h92l-279 -1434h-89l-610 1268l-246 -1268h-92z" />
    <glyph glyph-name="O" unicode="O" horiz-adv-x="1640" 
d="M729 59q176 0 340 88t277.5 239t148.5 331q13 65 13 132q0 227 -146 376t-378 149q-176 0 -339.5 -88t-277 -238.5t-148.5 -330.5q-13 -65 -13 -132q0 -228 145.5 -377t377.5 -149zM1000 1458q269 0 437 -166t168 -425q0 -73 -15 -150q-30 -154 -114 -291.5
t-200.5 -236.5t-263.5 -156.5t-299 -57.5q-269 0 -436.5 166t-167.5 424q0 74 15 152q40 206 169 376t316.5 267.5t390.5 97.5z" />
    <glyph glyph-name="P" unicode="P" horiz-adv-x="1165" 
d="M606 582h-313l-113 -582h-94l279 1434h407q192 0 302.5 -90t110.5 -246q0 -42 -9 -90q-37 -193 -193.5 -309.5t-376.5 -116.5zM1080 1008q7 36 7 71q0 126 -88.5 199t-244.5 73h-312l-133 -686h312q179 0 304 93.5t155 249.5z" />
    <glyph glyph-name="Q" unicode="Q" horiz-adv-x="1640" 
d="M1000 1458q269 0 437 -166t168 -425q0 -73 -15 -150q-32 -163 -121.5 -304.5t-220.5 -244.5l167 -226l-75 -59l-169 231q-219 -139 -458 -139q-269 0 -436.5 166t-167.5 424q0 74 15 152q40 206 169 376t316.5 267.5t390.5 97.5zM729 59q205 0 394 120l-247 338l73 58
l250 -341q112 91 190 216.5t106 266.5q13 65 13 132q0 227 -146 376t-378 149q-176 0 -339.5 -88t-277 -238.5t-148.5 -330.5q-13 -65 -13 -132q0 -228 145.5 -377t377.5 -149z" />
    <glyph glyph-name="R" unicode="R" horiz-adv-x="1201" 
d="M895 0l-306 582h-296l-113 -582h-94l279 1434h407q192 0 302.5 -90t110.5 -246q0 -42 -9 -90q-34 -173 -164.5 -285.5t-319.5 -135.5l309 -587h-106zM1080 1008q7 36 7 71q0 126 -88.5 199t-244.5 73h-312l-133 -686h312q179 0 304 93.5t155 249.5z" />
    <glyph glyph-name="S" unicode="S" horiz-adv-x="1179" 
d="M56 204l76 66q57 -93 155 -152t216 -59q170 0 296.5 84t152.5 216q6 28 6 56q0 212 -336 284q-181 39 -276.5 122.5t-95.5 204.5q0 31 6 64q32 160 172 264t330 104q242 0 391 -182l-72 -70q-135 168 -328 168q-153 0 -263 -78.5t-133 -198.5q-5 -27 -5 -48
q0 -99 85 -167t241 -103q382 -86 382 -340q0 -34 -8 -77q-33 -168 -187.5 -277.5t-367.5 -109.5q-143 0 -259 63.5t-178 165.5z" />
    <glyph glyph-name="T" unicode="T" horiz-adv-x="1101" 
d="M401 0l263 1351h-437l17 83h966l-16 -83h-436l-262 -1351h-95z" />
    <glyph glyph-name="U" unicode="U" horiz-adv-x="1339" 
d="M1346 1434l-185 -948q-44 -227 -211.5 -368t-387.5 -141q-189 0 -300.5 106t-111.5 286q0 55 12 117l184 948h94l-186 -955q-9 -49 -9 -94q0 -147 90.5 -235.5t243.5 -88.5q178 0 314 116.5t172 301.5l186 955h95z" />
    <glyph glyph-name="V" unicode="V" horiz-adv-x="1359" 
d="M600 119l769 1315h105l-845 -1434h-103l-287 1434h104z" />
    <glyph glyph-name="W" unicode="W" horiz-adv-x="1927" 
d="M1089 1434h102l124 -1298l625 1298h101l-699 -1434h-102l-126 1303l-632 -1303h-102l-141 1434h100l120 -1298z" />
    <glyph glyph-name="X" unicode="X" horiz-adv-x="1263" 
d="M63 0h-108l658 729l-361 705h108l325 -632l570 632h109l-636 -705l376 -729h-109l-339 656z" />
    <glyph glyph-name="Y" unicode="Y" horiz-adv-x="1304" 
d="M346 1434l336 -752l629 752h107l-707 -846l-114 -588h-94l113 588l-377 846h107z" />
    <glyph glyph-name="Z" unicode="Z" horiz-adv-x="1205" 
d="M39 83l1078 1268h-801l17 83h910l-16 -83l-1079 -1268h852l-15 -83h-961z" />
    <glyph glyph-name="bracketleft" unicode="[" horiz-adv-x="833" 
d="M96 -287l355 1823h508l-16 -83h-415l-321 -1657h415l-17 -83h-509z" />
    <glyph glyph-name="backslash" unicode="\" horiz-adv-x="916" 
d="M599 -287l-345 1823h100l345 -1823h-100z" />
    <glyph glyph-name="bracketright" unicode="]" horiz-adv-x="833" 
d="M774 1536l-354 -1823h-509l16 83h415l322 1657h-415l16 83h509z" />
    <glyph glyph-name="asciicircum" unicode="^" horiz-adv-x="1230" 
d="M587 1434h98l437 -637h-110l-376 549l-376 -549h-110z" />
    <glyph glyph-name="underscore" unicode="_" horiz-adv-x="1024" 
d="M-164 -316l16 75h1022l-15 -75h-1023z" />
    <glyph glyph-name="grave" unicode="`" horiz-adv-x="835" 
d="M452 1495l222 -335h-101l-224 335h103z" />
    <glyph glyph-name="a" unicode="a" horiz-adv-x="1296" 
d="M997 299l90 463q-46 112 -137.5 176t-221.5 64q-194 0 -354.5 -140t-197.5 -332q-9 -48 -9 -92q0 -162 104.5 -271t273.5 -109q130 0 246 64t206 177zM734 1085q127 0 224.5 -54.5t151.5 -151.5l36 182h92l-206 -1061h-92l35 182q-92 -97 -211 -152t-246 -55
q-201 0 -323 128t-122 319q0 55 10 108q29 148 123 275t234.5 203.5t293.5 76.5z" />
    <glyph glyph-name="b" unicode="b" horiz-adv-x="1296" 
d="M299 762l-90 -463q47 -113 138.5 -177t221.5 -64q96 0 189.5 38.5t166.5 102.5t125 150.5t70 180.5q9 48 9 93q0 162 -103.5 270.5t-272.5 108.5q-130 0 -246.5 -63.5t-207.5 -176.5zM779 1085q201 0 323.5 -127t122.5 -317q0 -46 -12 -111q-28 -148 -122.5 -275
t-234.5 -203.5t-293 -76.5q-127 0 -225 55t-152 152l-34 -182h-93l290 1495h92l-119 -616q91 97 210.5 151.5t246.5 54.5z" />
    <glyph glyph-name="c" unicode="c" horiz-adv-x="1111" 
d="M528 -25q-206 0 -330.5 127t-124.5 320q0 55 10 108q22 111 83.5 213t149 177.5t199.5 120t229 44.5q223 0 351 -149l-63 -75q-114 141 -304 141q-194 0 -354.5 -140t-197.5 -332q-9 -48 -9 -92q0 -162 104.5 -271t273.5 -109q100 0 196.5 41t176.5 114l43 -69
q-91 -80 -203 -124.5t-230 -44.5z" />
    <glyph glyph-name="d" unicode="d" horiz-adv-x="1296" 
d="M997 299l90 463q-46 112 -137.5 176t-221.5 64q-194 0 -354.5 -140t-197.5 -332q-9 -48 -9 -92q0 -162 104.5 -271t273.5 -109q130 0 246 64t206 177zM734 1085q127 0 224.5 -54.5t151.5 -151.5l120 616h92l-290 -1495h-92l35 182q-92 -97 -211 -152t-246 -55
q-201 0 -323 128t-122 319q0 55 10 108q29 148 123 275t234.5 203.5t293.5 76.5z" />
    <glyph glyph-name="e" unicode="e" horiz-adv-x="1226" 
d="M173 507q-6 -39 -6 -79q0 -161 102 -266.5t275 -105.5q109 0 214.5 48t192.5 135l53 -61q-94 -95 -218.5 -149t-256.5 -54q-210 0 -333.5 125t-123.5 318q0 51 11 112q29 150 123 277t233.5 202.5t292.5 75.5q195 0 311.5 -116.5t116.5 -299.5q0 -56 -10 -109
q-4 -22 -15 -53h-962zM716 1005q-174 0 -324 -122.5t-201 -296.5h869q4 29 4 63q0 158 -95 257t-253 99z" />
    <glyph glyph-name="f" unicode="f" horiz-adv-x="749" 
d="M887 1487l-17 -81q-35 7 -93 7q-249 0 -304 -279l-14 -73h345l-17 -82h-345l-282 -1454h-92l282 1454h-214l17 82h214l14 75q34 174 136.5 266.5t269.5 92.5q50 0 100 -8z" />
    <glyph glyph-name="g" unicode="g" horiz-adv-x="1296" 
d="M997 299l90 463q-46 112 -137.5 176t-221.5 64q-194 0 -354.5 -140t-197.5 -332q-9 -48 -9 -92q0 -162 104.5 -271t273.5 -109q130 0 246 64t206 177zM1110 879l36 182h92l-209 -1073q-40 -207 -199 -335t-380 -128q-141 0 -245.5 56t-169.5 151l74 63q56 -87 146 -138
t210 -51q177 0 307.5 104.5t163.5 273.5l39 198q-92 -97 -211 -152t-246 -55q-201 0 -323 128t-122 319q0 55 10 108q29 148 123 275t234.5 203.5t293.5 76.5q127 0 224.5 -54.5t151.5 -151.5z" />
    <glyph glyph-name="h" unicode="h" horiz-adv-x="1211" 
d="M288 702l-136 -702h-93l290 1495h92l-131 -676q204 266 452 266q155 0 248.5 -91t93.5 -236q0 -47 -8 -87l-130 -671h-93l129 665q8 38 8 69q0 118 -76 193t-203 75q-227 0 -443 -300z" />
    <glyph glyph-name="i" unicode="i" horiz-adv-x="523" 
d="M113 0l205 1061h93l-206 -1061h-92zM351 1380q8 30 33.5 49.5t55.5 19.5q29 0 46 -16t17 -44q0 -12 -2 -21q-7 -32 -33 -52t-57 -20q-28 0 -45.5 17t-17.5 44q0 13 3 23z" />
    <glyph glyph-name="j" unicode="j" horiz-adv-x="523" 
d="M74 -200l244 1261h93l-245 -1260q-27 -136 -107.5 -206t-196.5 -70q-46 0 -75 4l15 81q28 -3 69 -3q76 0 130 48.5t73 144.5zM351 1380q8 30 33.5 49.5t55.5 19.5q29 0 46 -16t17 -44q0 -12 -2 -21q-7 -32 -33 -52t-57 -20q-28 0 -45.5 17t-17.5 44q0 13 3 23z" />
    <glyph glyph-name="k" unicode="k" horiz-adv-x="1031" 
d="M792 0l-341 549h-193l-106 -549h-93l290 1495h92l-168 -865h195l472 431h115l-516 -471l365 -590h-112z" />
    <glyph glyph-name="l" unicode="l" horiz-adv-x="522" 
d="M113 0l289 1495h93l-290 -1495h-92z" />
    <glyph glyph-name="m" unicode="m" horiz-adv-x="1886" 
d="M290 714l-138 -714h-93l206 1061h92l-45 -230q187 254 414 254q132 0 214 -75.5t92 -197.5q196 273 438 273q144 0 228 -86.5t84 -224.5q0 -47 -8 -87l-134 -687h-92l132 681q8 40 8 71q0 110 -65.5 180t-179.5 70q-212 0 -410 -290q-1 -4 -2.5 -13t-1.5 -12l-133 -687
h-92l132 681q7 35 7 71q0 110 -65.5 180t-179.5 70q-208 0 -408 -288z" />
    <glyph glyph-name="n" unicode="n" horiz-adv-x="1211" 
d="M288 702l-136 -702h-93l206 1061h92l-47 -242q204 266 452 266q155 0 248.5 -91t93.5 -236q0 -47 -8 -87l-130 -671h-93l129 665q8 38 8 69q0 118 -76 193t-203 75q-227 0 -443 -300z" />
    <glyph glyph-name="o" unicode="o" horiz-adv-x="1271" 
d="M545 58q96 0 189.5 38.5t166.5 102.5t125 150.5t70 180.5q9 48 9 93q0 162 -104 270.5t-273 108.5q-194 0 -354.5 -140t-197.5 -332q-9 -48 -9 -92q0 -162 104.5 -271t273.5 -109zM744 1085q206 0 330.5 -127t124.5 -319q0 -56 -10 -109q-22 -111 -83.5 -213t-149 -177.5
t-199.5 -120t-229 -44.5q-206 0 -330.5 127t-124.5 320q0 55 10 108q22 111 83.5 213t149 177.5t199.5 120t229 44.5z" />
    <glyph glyph-name="p" unicode="p" horiz-adv-x="1296" 
d="M299 762l-90 -463q47 -113 138.5 -177t221.5 -64q96 0 189.5 38.5t166.5 102.5t125 150.5t70 180.5q9 48 9 93q0 162 -103.5 270.5t-272.5 108.5q-130 0 -246.5 -63.5t-207.5 -176.5zM779 1085q201 0 323.5 -127t122.5 -317q0 -46 -12 -111q-28 -148 -122.5 -275
t-234.5 -203.5t-293 -76.5q-127 0 -225 55t-152 152l-128 -657h-92l299 1536h92l-35 -182q91 97 210.5 151.5t246.5 54.5z" />
    <glyph glyph-name="q" unicode="q" horiz-adv-x="1296" 
d="M997 299l90 463q-46 112 -137.5 176t-221.5 64q-194 0 -354.5 -140t-197.5 -332q-9 -48 -9 -92q0 -162 104.5 -271t273.5 -109q130 0 246 64t206 177zM734 1085q127 0 224.5 -54.5t151.5 -151.5l36 182h92l-299 -1536h-92l128 657q-92 -97 -211 -152t-246 -55
q-201 0 -323 128t-122 319q0 55 10 108q29 148 123 275t234.5 203.5t293.5 76.5z" />
    <glyph glyph-name="r" unicode="r" horiz-adv-x="776" 
d="M702 1002q-95 0 -208.5 -91.5t-209.5 -227.5l-132 -683h-93l206 1061h92l-49 -252q91 115 202.5 195.5t218.5 80.5q53 0 101 -20l-25 -84q-53 21 -103 21z" />
    <glyph glyph-name="s" unicode="s" horiz-adv-x="934" 
d="M9 152l66 66q44 -75 123.5 -118.5t182.5 -43.5q130 0 220 60t109 156q3 18 3 35q0 75 -67 128t-190 77q-145 28 -218.5 91t-73.5 153q0 20 5 47q23 119 137 200.5t267 81.5q197 0 309 -137l-64 -65q-101 122 -256 122q-114 0 -199 -59t-102 -144q-3 -14 -3 -28
q0 -65 62 -113t180 -72q149 -29 228 -95t79 -167q0 -32 -5 -56q-25 -130 -141.5 -213t-290.5 -83q-125 0 -216.5 47.5t-144.5 129.5z" />
    <glyph glyph-name="t" unicode="t" horiz-adv-x="763" 
d="M451 979l-129 -667q-10 -50 -10 -82q0 -173 203 -173q55 0 103 8l-16 -81q-56 -9 -107 -9q-276 0 -276 235q0 50 10 101l129 668h-222l17 82h222l58 299l93 8l-59 -307h333l-17 -82h-332z" />
    <glyph glyph-name="u" unicode="u" horiz-adv-x="1211" 
d="M924 357l137 704h92l-206 -1061h-92l46 241q-204 -266 -449 -266q-155 0 -249 91.5t-94 236.5q0 47 8 87l130 671h92l-129 -665q-7 -34 -7 -69q0 -118 76 -193.5t203 -75.5q224 0 442 299z" />
    <glyph glyph-name="v" unicode="v" horiz-adv-x="1047" 
d="M1109 1061l-640 -1061h-95l-229 1061h101l198 -936l565 936h100z" />
    <glyph glyph-name="w" unicode="w" horiz-adv-x="1564" 
d="M839 1061h94l110 -922l483 922h100l-562 -1061h-94l-111 923l-469 -923h-94l-151 1061h101l124 -922z" />
    <glyph glyph-name="x" unicode="x" horiz-adv-x="1047" 
d="M47 0h-107l529 545l-297 516h108l259 -451l436 451h107l-497 -516l318 -545h-107l-283 479z" />
    <glyph glyph-name="y" unicode="y" horiz-adv-x="1062" 
d="M88 -475l299 488l-242 1048h101l213 -928l565 928h100l-936 -1536h-100z" />
    <glyph glyph-name="z" unicode="z" horiz-adv-x="1015" 
d="M3 0l15 82l841 897h-640l17 82h752l-16 -82l-840 -897h686l-15 -82h-800z" />
    <glyph glyph-name="braceleft" unicode="{" horiz-adv-x="833" 
d="M174 584l16 82q100 0 175.5 60.5t94.5 154.5l68 354q25 127 129 214t233 87h80l-17 -83h-75q-91 0 -164 -64t-92 -158l-70 -360q-19 -94 -81 -157.5t-153 -88.5q68 -21 106 -69.5t38 -119.5q0 -28 -6 -58l-70 -360q-5 -27 -5 -47q0 -76 48.5 -125.5t126.5 -49.5h76
l-17 -83h-79q-112 0 -181.5 68t-69.5 173q0 30 6 60l68 355q6 30 6 45q0 76 -52 123t-139 47z" />
    <glyph glyph-name="bar" unicode="|" horiz-adv-x="651" 
d="M301 -287v1823h90v-1823h-90z" />
    <glyph glyph-name="braceright" unicode="}" horiz-adv-x="833" 
d="M696 666l-16 -82q-99 0 -174.5 -60.5t-94.5 -154.5l-69 -355q-25 -127 -128.5 -214t-232.5 -87h-80l16 83h76q91 0 164 64t92 158l69 360q19 94 81 158t153 89q-68 21 -105.5 69t-37.5 119q0 28 6 58l69 360q5 27 5 47q0 76 -48.5 125.5t-126.5 49.5h-75l16 83h80
q112 0 181.5 -68t69.5 -173q0 -30 -6 -60l-69 -354q-5 -25 -5 -45q0 -76 51.5 -123t138.5 -47z" />
    <glyph glyph-name="asciitilde" unicode="~" horiz-adv-x="1150" 
d="M573 633q-38 38 -64 61.5t-68.5 46t-80.5 22.5q-152 0 -188 -221l-86 21q21 135 89.5 209t179.5 74q130 0 263 -137q38 -38 64 -61.5t68.5 -46t80.5 -22.5q153 0 189 221l86 -22q-21 -135 -89 -208.5t-180 -73.5q-131 0 -264 137z" />
    <glyph glyph-name="uni00A0" unicode="&#xa0;" horiz-adv-x="595" 
 />
    <glyph glyph-name="exclamdown" unicode="&#xa1;" horiz-adv-x="620" 
d="M386 678l-204 -1051h-94l204 1051h94zM479 1002q-8 -32 -33.5 -52t-57.5 -20q-29 0 -46.5 16.5t-17.5 44.5q0 15 3 25q8 30 33.5 49.5t57.5 19.5q29 0 46.5 -16.5t17.5 -43.5q0 -11 -3 -23z" />
    <glyph glyph-name="cent" unicode="&#xa2;" horiz-adv-x="1111" 
d="M811 1249l-33 -165q198 -12 317 -148l-63 -75q-101 126 -270 139l-182 -941q182 13 338 154l43 -69q-177 -155 -398 -168l-32 -164h-81l31 165q-186 15 -297 139.5t-111 305.5q0 55 10 108q42 216 216.5 375.5t396.5 177.5l33 166h82zM176 530q-9 -48 -9 -92
q0 -151 90.5 -256.5t240.5 -121.5l182 939q-181 -19 -325 -154t-179 -315z" />
    <glyph glyph-name="sterling" unicode="&#xa3;" horiz-adv-x="1152" 
d="M339 611h-175l15 79h153q-6 28 -14 53q-32 108 -32 207q0 49 9 97q34 172 178.5 291.5t319.5 119.5q140 0 230 -76.5t109 -188.5l-89 -41q-19 100 -88 161t-179 61q-135 0 -247 -95t-139 -232q-7 -36 -7 -77q0 -68 30 -199q13 -55 17 -81h442l-15 -79h-422q4 -52 4 -77
q0 -45 -7 -81q-21 -106 -84.5 -204t-151.5 -165h750l-15 -84h-880l16 81q106 72 178 170.5t92 201.5q7 34 7 74q0 37 -5 84z" />
    <glyph glyph-name="currency" unicode="&#xa4;" horiz-adv-x="1254" 
d="M200 668q0 163 103 282l-199 199l61 60l202 -199q123 100 280 100q159 0 282 -100l201 199l61 -60l-199 -199q104 -120 104 -282q0 -164 -104 -285l199 -198l-61 -60l-201 200q-121 -100 -282 -100q-159 0 -280 100l-202 -200l-61 60l199 198q-103 120 -103 285zM291 668
q0 -151 103 -256.5t253 -105.5t254 105.5t104 256.5t-104 256t-254 105t-253 -105t-103 -256z" />
    <glyph glyph-name="yen" unicode="&#xa5;" horiz-adv-x="1304" 
d="M346 1434l336 -752l629 752h107l-628 -752h353l-15 -74h-400l-17 -20l-24 -122h414l-15 -74h-413l-76 -392h-94l76 392h-414l14 74h414l23 122l-9 20h-400l14 74h353l-335 752h107z" />
    <glyph glyph-name="brokenbar" unicode="&#xa6;" horiz-adv-x="651" 
d="M301 717v819h90v-819h-90zM301 -287v819h90v-819h-90z" />
    <glyph glyph-name="section" unicode="&#xa7;" horiz-adv-x="1011" 
d="M933 519q-19 -99 -103.5 -174.5t-202.5 -102.5q127 -79 127 -201q0 -20 -5 -47q-25 -128 -145 -214.5t-272 -86.5q-132 0 -217 67.5t-88 177.5l88 21q4 -87 68.5 -136.5t163.5 -49.5q113 0 203 64t108 157q4 22 4 34q0 105 -140 171l-216 101q-215 102 -215 277
q0 32 5 54q20 99 103.5 174t200.5 102q-125 82 -125 202q0 16 6 48q25 128 144 214.5t272 86.5q131 0 216.5 -68t88.5 -178l-88 -20q-4 86 -69 136t-163 50q-113 0 -202.5 -64t-108.5 -157q-3 -17 -3 -34q0 -108 138 -172l216 -100q216 -102 216 -278q0 -24 -5 -54zM668 778
l-168 77q-115 -3 -205 -67t-109 -157q-4 -17 -4 -40q0 -138 178 -218l168 -78q115 3 206 67t109 157q4 17 4 39q0 68 -46.5 124.5t-132.5 95.5z" />
    <glyph glyph-name="dieresis" unicode="&#xa8;" horiz-adv-x="835" 
d="M670 1328q8 32 33.5 52t56.5 20q29 0 46 -17.5t17 -44.5q0 -13 -3 -22q-9 -29 -34 -49.5t-56 -20.5q-28 0 -45.5 17t-17.5 44q0 11 3 21zM324 1328q8 32 33.5 52t56.5 20q29 0 46 -17.5t17 -44.5q0 -13 -3 -22q-9 -29 -34 -49.5t-56 -20.5q-28 0 -45.5 17t-17.5 44
q0 11 3 21z" />
    <glyph glyph-name="copyright" unicode="&#xa9;" horiz-adv-x="1630" 
d="M869 390q120 0 225 88l36 -65q-115 -97 -261 -97q-166 0 -280.5 115.5t-114.5 283.5t114.5 283t280.5 115q138 0 252 -89l-36 -63q-103 78 -216 78q-132 0 -223 -94.5t-91 -229.5t91 -230t223 -95zM94 717q0 153 58 290t157 236t236.5 157t290.5 58t290 -58t236 -157
t157 -236t58 -290t-58 -290.5t-157 -236.5t-236 -157t-290 -58t-290.5 58t-236.5 157t-157 236.5t-58 290.5zM162 717q0 -186 89.5 -342t244.5 -246.5t340 -90.5t339.5 90.5t244 246.5t89.5 342t-89.5 342t-244 246.5t-339.5 90.5t-340 -90.5t-244.5 -246.5t-89.5 -342z" />
    <glyph glyph-name="ordfeminine" unicode="&#xaa;" horiz-adv-x="915" 
d="M481 672q-138 0 -224.5 88t-86.5 223q0 35 8 78q21 107 88.5 196.5t165 141t201.5 51.5q82 0 145.5 -34t100.5 -95l22 113h85l-145 -746h-85l22 113q-129 -129 -297 -129zM798 904l61 314q-27 70 -88.5 112t-145.5 42q-126 0 -231.5 -90.5t-130.5 -220.5q-6 -33 -6 -64
q0 -108 68.5 -177.5t178.5 -69.5q84 0 162 42t132 112z" />
    <glyph glyph-name="guillemotleft" unicode="&#xab;" horiz-adv-x="1274" 
d="M126 614l9 50l604 349l-17 -89l-497 -285l386 -285l-17 -89zM628 614l9 50l604 349l-17 -89l-497 -285l386 -285l-17 -89z" />
    <glyph glyph-name="logicalnot" unicode="&#xac;" horiz-adv-x="1150" 
d="M959 251v388h-819v81h912v-469h-93z" />
    <glyph glyph-name="uni00AD" unicode="&#xad;" horiz-adv-x="806" 
d="M710 637h-572l18 86h571z" />
    <glyph glyph-name="registered" unicode="&#xae;" horiz-adv-x="1630" 
d="M830 633h-137v-303h-78v771h232q119 0 192.5 -65t73.5 -169q0 -89 -54.5 -149.5t-146.5 -77.5l220 -310h-89zM1036 865q0 73 -53 118.5t-140 45.5h-150v-329h150q87 0 140 45.5t53 119.5zM94 717q0 153 58 290t157 236t236.5 157t290.5 58t290 -58t236 -157t157 -236
t58 -290t-58 -290.5t-157 -236.5t-236 -157t-290 -58t-290.5 58t-236.5 157t-157 236.5t-58 290.5zM162 717q0 -186 89.5 -342t244.5 -246.5t340 -90.5t339.5 90.5t244 246.5t89.5 342t-89.5 342t-244 246.5t-339.5 90.5t-340 -90.5t-244.5 -246.5t-89.5 -342z" />
    <glyph glyph-name="macron" unicode="&#xaf;" horiz-adv-x="835" 
d="M288 1283l14 76h553l-14 -76h-553z" />
    <glyph glyph-name="degree" unicode="&#xb0;" 
d="M223 1182q0 -83 56.5 -140.5t138.5 -57.5t138 57.5t56 140.5t-56 140t-138 57t-138.5 -57t-56.5 -140zM146 1182q0 112 79 190t193 78t192.5 -77.5t78.5 -190.5t-78.5 -191t-192.5 -78t-193 78t-79 191z" />
    <glyph glyph-name="plusminus" unicode="&#xb1;" horiz-adv-x="1150" 
d="M550 292v422h-410v81h410v422h92v-422h410v-81h-410v-422h-92zM1052 0h-912v81h912v-81z" />
    <glyph glyph-name="twosuperior" unicode="&#xb2;" 
d="M632 922l-418 -386h459l-15 -73h-574l13 64l477 439q131 120 152 233q3 17 3 34q0 66 -48.5 109t-128.5 43q-82 0 -150 -48.5t-102 -132.5l-71 29q39 100 132 162.5t205 62.5t181.5 -59.5t69.5 -152.5q0 -20 -5 -47q-26 -135 -180 -277z" />
    <glyph glyph-name="threesuperior" unicode="&#xb3;" 
d="M654 748q4 20 4 44q0 84 -58.5 138t-150.5 54q-43 0 -89 -13l-26 44l377 345h-429l14 74h535l-13 -67l-352 -320q123 -4 201.5 -71t78.5 -175q0 -28 -6 -58q-25 -127 -138 -216t-258 -89q-96 0 -162 43t-100 117l68 54q28 -66 80.5 -103.5t125.5 -37.5q105 0 192 68.5
t106 168.5z" />
    <glyph glyph-name="acute" unicode="&#xb4;" horiz-adv-x="835" 
d="M408 1160l351 335h102l-353 -335h-100z" />
    <glyph glyph-name="mu" unicode="&#xb5;" horiz-adv-x="1229" 
d="M-34 -475l299 1536h92l-145 -747q22 -111 100 -183.5t187 -72.5q117 0 231.5 79.5t209.5 207.5l139 716h92l-205 -1061h-93l43 225q-86 -106 -201.5 -178t-238.5 -72q-106 0 -182.5 59t-108.5 143l-127 -652h-92z" />
    <glyph glyph-name="paragraph" unicode="&#xb6;" horiz-adv-x="1163" 
d="M653 549h-74q-192 0 -323.5 127.5t-131.5 314.5t131.5 315t323.5 128h412v-1702h-77v1630h-184v-1630h-77v817z" />
    <glyph glyph-name="periodcentered" unicode="&#xb7;" horiz-adv-x="595" 
d="M247 680q8 32 35 54t61 22q30 0 48.5 -18t18.5 -45q0 -13 -3 -23q-8 -33 -35.5 -54.5t-60.5 -21.5q-30 0 -48.5 17.5t-18.5 46.5q0 12 3 22z" />
    <glyph glyph-name="cedilla" unicode="&#xb8;" horiz-adv-x="835" 
d="M231 -199q-33 0 -58 -5l-15 24l140 180h78l-113 -140q87 -4 136.5 -49.5t49.5 -112.5q0 -12 -4 -34q-16 -84 -95.5 -140t-180.5 -56q-96 0 -158 56l47 56q49 -47 121 -47q69 0 123.5 38t65.5 94q2 14 2 23q0 48 -38.5 80.5t-100.5 32.5z" />
    <glyph glyph-name="onesuperior" unicode="&#xb9;" 
d="M611 1434h73l-189 -971h-85l172 880l-245 -122l-23 64z" />
    <glyph glyph-name="ordmasculine" unicode="&#xba;" horiz-adv-x="915" 
d="M174 1061q21 107 90 196.5t168 141t205 51.5q141 0 229.5 -88.5t88.5 -223.5q0 -39 -7 -77q-21 -107 -90 -196.5t-168 -141t-205 -51.5q-141 0 -229.5 88.5t-88.5 223.5q0 39 7 77zM260 1061q-6 -33 -6 -64q0 -108 69 -178t178 -70q126 0 231 90.5t130 221.5q6 33 6 63
q0 108 -68.5 178t-177.5 70q-126 0 -231.5 -90t-130.5 -221z" />
    <glyph glyph-name="guillemotright" unicode="&#xbb;" horiz-adv-x="1274" 
d="M1191 664l-9 -50l-603 -349l17 89l497 285l-386 285l17 89zM689 664l-9 -50l-603 -349l17 89l497 285l-386 285l17 89z" />
    <glyph glyph-name="onequarter" unicode="&#xbc;" horiz-adv-x="1917" 
d="M463 0l978 1434h88l-978 -1434h-88zM611 1434h73l-189 -971h-85l172 880l-245 -122l-23 64zM1109 219l13 68l603 684h80l-132 -677h135l-14 -75h-135l-43 -219h-85l43 219h-465zM1223 294h365l105 536z" />
    <glyph glyph-name="onehalf" unicode="&#xbd;" horiz-adv-x="1917" 
d="M611 1434h73l-189 -971h-85l172 880l-245 -122l-23 64zM463 0l978 1434h88l-978 -1434h-88zM1665 459l-418 -386h459l-14 -73h-575l13 65l478 438q130 119 151 233q3 16 3 34q0 67 -48.5 110t-128.5 43q-82 0 -150 -49t-102 -133l-70 29q39 100 131.5 162.5t204.5 62.5
t181.5 -59.5t69.5 -152.5q0 -20 -5 -47q-26 -135 -180 -277z" />
    <glyph glyph-name="threequarters" unicode="&#xbe;" horiz-adv-x="1917" 
d="M654 748q4 20 4 44q0 84 -58.5 138t-150.5 54q-43 0 -89 -13l-26 44l377 345h-429l14 74h535l-13 -67l-352 -320q123 -4 201.5 -71t78.5 -175q0 -28 -6 -58q-25 -127 -138 -216t-258 -89q-96 0 -162 43t-100 117l68 54q28 -66 80.5 -103.5t125.5 -37.5q105 0 192 68.5
t106 168.5zM463 0l978 1434h88l-978 -1434h-88zM1109 219l13 68l603 684h80l-132 -677h135l-14 -75h-135l-43 -219h-85l43 219h-465zM1223 294h365l105 536z" />
    <glyph glyph-name="questiondown" unicode="&#xbf;" horiz-adv-x="1096" 
d="M697 663l-67 -348q-201 0 -339 -90t-165 -231q-5 -28 -5 -51q0 -111 90 -183.5t235 -72.5q192 0 370 139l37 -71q-202 -152 -430 -152q-179 0 -288.5 92.5t-109.5 232.5q0 32 6 66q31 158 176 267t342 122l54 280h94zM787 1002q-8 -32 -33.5 -52t-57.5 -20
q-29 0 -46.5 16.5t-17.5 44.5q0 15 3 25q8 30 33.5 49.5t57.5 19.5q29 0 47 -16.5t18 -43.5q0 -7 -4 -23z" />
    <glyph glyph-name="Agrave" unicode="&#xc0;" horiz-adv-x="1366" 
d="M1198 0h-105l-81 418h-701l-242 -418h-106l846 1434h100zM997 501l-159 823l-480 -823h639zM778 1886l222 -335h-100l-224 335h102z" />
    <glyph glyph-name="Aacute" unicode="&#xc1;" horiz-adv-x="1366" 
d="M1198 0h-105l-81 418h-701l-242 -418h-106l846 1434h100zM997 501l-159 823l-480 -823h639zM762 1551l351 335h102l-353 -335h-100z" />
    <glyph glyph-name="Acircumflex" unicode="&#xc2;" horiz-adv-x="1366" 
d="M1198 0h-105l-81 418h-701l-242 -418h-106l846 1434h100zM997 501l-159 823l-480 -823h639zM981 1886l233 -335h-96l-185 264l-288 -264h-96l364 335h68z" />
    <glyph glyph-name="Atilde" unicode="&#xc3;" horiz-adv-x="1366" 
d="M1198 0h-105l-81 418h-701l-242 -418h-106l846 1434h100zM997 501l-159 823l-480 -823h639zM897 1644l-20 26q-28 37 -50.5 56t-51.5 19q-74 0 -133 -149l-77 17q84 208 217 208q77 0 139 -80l23 -31q26 -35 48.5 -53t50.5 -18q75 0 134 149l76 -16q-84 -208 -218 -208
q-77 0 -138 80z" />
    <glyph glyph-name="Adieresis" unicode="&#xc4;" horiz-adv-x="1366" 
d="M1198 0h-105l-81 418h-701l-242 -418h-106l846 1434h100zM997 501l-159 823l-480 -823h639zM1009 1709q8 32 33.5 52t56.5 20q29 0 46 -17.5t17 -44.5q0 -13 -3 -22q-9 -29 -34 -49.5t-56 -20.5q-28 0 -45.5 17t-17.5 44q0 10 3 21zM663 1709q8 32 33.5 52t56.5 20
q29 0 46 -17.5t17 -44.5q0 -13 -3 -22q-9 -29 -34 -49.5t-56 -20.5q-28 0 -46 17.5t-18 43.5q0 7 4 21z" />
    <glyph glyph-name="Aring" unicode="&#xc5;" horiz-adv-x="1366" 
d="M1198 0h-105l-81 418h-701l-242 -418h-106l846 1434h100zM997 501l-159 823l-480 -823h639zM783 1725q-2 -9 -2 -25q0 -46 30.5 -76.5t78.5 -30.5q55 0 101.5 38.5t56.5 94.5q2 9 2 26q0 46 -30.5 76t-78.5 30q-55 0 -101.5 -38.5t-56.5 -94.5zM1122 1764q0 -20 -4 -39
q-17 -83 -86 -139t-154 -56q-75 0 -122 44.5t-47 113.5q0 17 4 37q17 83 86 139.5t154 56.5q75 0 122 -44t47 -113z" />
    <glyph glyph-name="AE" unicode="&#xc6;" horiz-adv-x="1883" 
d="M62 0h-109l1128 1434h829l-17 -83h-688l-114 -589h631l-16 -83h-632l-116 -596h707l-15 -83h-801l81 418h-540zM454 501h492l161 831z" />
    <glyph glyph-name="Ccedilla" unicode="&#xc7;" horiz-adv-x="1374" 
d="M626 -199q-34 0 -59 -5l-15 24l121 156q-253 13 -408.5 176.5t-155.5 412.5q0 74 15 152q40 206 169 376t316.5 267.5t390.5 97.5q257 0 427 -156l-64 -72q-161 144 -379 144q-176 0 -339.5 -88t-277 -238.5t-148.5 -330.5q-13 -65 -13 -132q0 -228 145.5 -377
t377.5 -149q236 0 454 159l37 -73q-218 -157 -469 -169l-94 -116q87 -4 136.5 -49.5t49.5 -112.5q0 -18 -3 -34q-16 -84 -96 -140t-181 -56q-95 0 -157 56l47 56q49 -47 120 -47q69 0 123.5 38t65.5 94q2 14 2 23q0 48 -38 80.5t-100 32.5z" />
    <glyph glyph-name="Egrave" unicode="&#xc8;" horiz-adv-x="1133" 
d="M86 0l279 1434h795l-16 -83h-702l-114 -589h644l-17 -83h-644l-115 -596h719l-15 -83h-814zM679 1886l222 -335h-100l-224 335h102z" />
    <glyph glyph-name="Eacute" unicode="&#xc9;" horiz-adv-x="1133" 
d="M86 0l279 1434h795l-16 -83h-702l-114 -589h644l-17 -83h-644l-115 -596h719l-15 -83h-814zM668 1551l351 335h102l-353 -335h-100z" />
    <glyph glyph-name="Ecircumflex" unicode="&#xca;" horiz-adv-x="1133" 
d="M86 0l279 1434h795l-16 -83h-702l-114 -589h644l-17 -83h-644l-115 -596h719l-15 -83h-814zM884 1886l233 -335h-96l-185 264l-288 -264h-96l364 335h68z" />
    <glyph glyph-name="Edieresis" unicode="&#xcb;" horiz-adv-x="1133" 
d="M86 0l279 1434h795l-16 -83h-702l-114 -589h644l-17 -83h-644l-115 -596h719l-15 -83h-814zM904 1709q8 32 33.5 52t56.5 20q29 0 46.5 -17.5t17.5 -44.5q0 -13 -3 -22q-9 -29 -34 -49.5t-56 -20.5q-28 0 -46 17.5t-18 43.5q0 10 3 21zM558 1709q8 32 33.5 52t56.5 20
q29 0 46.5 -17.5t17.5 -44.5q0 -13 -3 -22q-8 -29 -34 -49.5t-57 -20.5q-28 0 -45.5 17t-17.5 44q0 10 3 21z" />
    <glyph glyph-name="Igrave" unicode="&#xcc;" horiz-adv-x="571" 
d="M415 1434h94l-279 -1434h-94zM381 1886l222 -335h-100l-224 335h102z" />
    <glyph glyph-name="Iacute" unicode="&#xcd;" horiz-adv-x="571" 
d="M415 1434h94l-279 -1434h-94zM368 1551l351 335h102l-353 -335h-100z" />
    <glyph glyph-name="Icircumflex" unicode="&#xce;" horiz-adv-x="571" 
d="M415 1434h94l-279 -1434h-94zM584 1886l233 -335h-96l-185 264l-288 -264h-96l364 335h68z" />
    <glyph glyph-name="Idieresis" unicode="&#xcf;" horiz-adv-x="571" 
d="M415 1434h94l-279 -1434h-94zM611 1709q8 32 33.5 52t56.5 20q29 0 46.5 -17.5t17.5 -44.5q0 -13 -3 -22q-9 -29 -34 -49.5t-56 -20.5q-28 0 -46 17.5t-18 43.5q0 10 3 21zM265 1709q8 32 33.5 52t56.5 20q29 0 46.5 -17.5t17.5 -44.5q0 -13 -3 -22q-9 -29 -34 -49.5
t-56 -20.5q-28 0 -46 17.5t-18 43.5q0 10 3 21z" />
    <glyph glyph-name="Eth" unicode="&#xd0;" horiz-adv-x="1464" 
d="M423 1434h451q264 0 411 -146t147 -395q0 -85 -18 -176q-63 -322 -285.5 -519.5t-532.5 -197.5h-452l131 678h-192l15 78h193zM858 1350h-357l-116 -594h361l-15 -78h-361l-116 -594h357q265 0 458.5 173t249.5 460q16 81 16 161q0 219 -126 345.5t-351 126.5z" />
    <glyph glyph-name="Ntilde" unicode="&#xd1;" horiz-adv-x="1414" 
d="M86 0l279 1434h89l609 -1268l247 1268h92l-279 -1434h-89l-610 1268l-246 -1268h-92zM921 1644l-21 26q-19 25 -31 38.5t-31 25t-39 11.5q-74 0 -133 -149l-77 17q84 208 217 208q76 0 138 -80l24 -31q26 -35 48.5 -53t50.5 -18q74 0 133 149l77 -16q-84 -208 -218 -208
q-77 0 -138 80z" />
    <glyph glyph-name="Ograve" unicode="&#xd2;" horiz-adv-x="1640" 
d="M729 59q176 0 340 88t277.5 239t148.5 331q13 65 13 132q0 227 -146 376t-378 149q-176 0 -339.5 -88t-277 -238.5t-148.5 -330.5q-13 -65 -13 -132q0 -228 145.5 -377t377.5 -149zM1000 1458q269 0 437 -166t168 -425q0 -73 -15 -150q-30 -154 -114 -291.5
t-200.5 -236.5t-263.5 -156.5t-299 -57.5q-269 0 -436.5 166t-167.5 424q0 74 15 152q40 206 169 376t316.5 267.5t390.5 97.5zM902 1886l222 -335h-100l-224 335h102z" />
    <glyph glyph-name="Oacute" unicode="&#xd3;" horiz-adv-x="1640" 
d="M729 59q176 0 340 88t277.5 239t148.5 331q13 65 13 132q0 227 -146 376t-378 149q-176 0 -339.5 -88t-277 -238.5t-148.5 -330.5q-13 -65 -13 -132q0 -228 145.5 -377t377.5 -149zM1000 1458q269 0 437 -166t168 -425q0 -73 -15 -150q-30 -154 -114 -291.5
t-200.5 -236.5t-263.5 -156.5t-299 -57.5q-269 0 -436.5 166t-167.5 424q0 74 15 152q40 206 169 376t316.5 267.5t390.5 97.5zM916 1551l352 335h102l-353 -335h-101z" />
    <glyph glyph-name="Ocircumflex" unicode="&#xd4;" horiz-adv-x="1640" 
d="M729 59q176 0 340 88t277.5 239t148.5 331q13 65 13 132q0 227 -146 376t-378 149q-176 0 -339.5 -88t-277 -238.5t-148.5 -330.5q-13 -65 -13 -132q0 -228 145.5 -377t377.5 -149zM1000 1458q269 0 437 -166t168 -425q0 -73 -15 -150q-30 -154 -114 -291.5
t-200.5 -236.5t-263.5 -156.5t-299 -57.5q-269 0 -436.5 166t-167.5 424q0 74 15 152q40 206 169 376t316.5 267.5t390.5 97.5zM1118 1886l234 -335h-97l-185 264l-288 -264h-96l365 335h67z" />
    <glyph glyph-name="Otilde" unicode="&#xd5;" horiz-adv-x="1640" 
d="M729 59q176 0 340 88t277.5 239t148.5 331q13 65 13 132q0 227 -146 376t-378 149q-176 0 -339.5 -88t-277 -238.5t-148.5 -330.5q-13 -65 -13 -132q0 -228 145.5 -377t377.5 -149zM1000 1458q269 0 437 -166t168 -425q0 -73 -15 -150q-30 -154 -114 -291.5
t-200.5 -236.5t-263.5 -156.5t-299 -57.5q-269 0 -436.5 166t-167.5 424q0 74 15 152q40 206 169 376t316.5 267.5t390.5 97.5zM1034 1644l-20 26q-28 37 -50.5 56t-51.5 19q-74 0 -133 -149l-77 17q84 208 218 208q76 0 138 -80l23 -31q54 -71 100 -71q74 0 133 149l77 -16
q-84 -208 -219 -208q-77 0 -138 80z" />
    <glyph glyph-name="Odieresis" unicode="&#xd6;" horiz-adv-x="1640" 
d="M729 59q176 0 340 88t277.5 239t148.5 331q13 65 13 132q0 227 -146 376t-378 149q-176 0 -339.5 -88t-277 -238.5t-148.5 -330.5q-13 -65 -13 -132q0 -228 145.5 -377t377.5 -149zM1000 1458q269 0 437 -166t168 -425q0 -73 -15 -150q-30 -154 -114 -291.5
t-200.5 -236.5t-263.5 -156.5t-299 -57.5q-269 0 -436.5 166t-167.5 424q0 74 15 152q40 206 169 376t316.5 267.5t390.5 97.5zM1146 1709q8 32 33.5 52t56.5 20q29 0 46 -17.5t17 -44.5q0 -13 -3 -22q-9 -29 -34 -49.5t-56 -20.5q-28 0 -45.5 17t-17.5 44q0 10 3 21z
M800 1709q8 32 33.5 52t56.5 20q29 0 46 -17.5t17 -44.5q0 -13 -3 -22q-9 -29 -34 -49.5t-56 -20.5q-28 0 -45.5 17t-17.5 44q0 10 3 21z" />
    <glyph glyph-name="multiply" unicode="&#xd7;" horiz-adv-x="1150" 
d="M248 255l-63 64l347 355l-346 354l63 65l347 -356l347 356l63 -65l-348 -354l348 -355l-63 -64l-347 354z" />
    <glyph glyph-name="Oslash" unicode="&#xd8;" horiz-adv-x="1640" 
d="M1000 1458q235 0 395 -129l161 166h99l-208 -213q158 -164 158 -417q0 -71 -15 -148q-30 -154 -114 -291.5t-200.5 -236.5t-263.5 -156.5t-299 -57.5q-246 0 -410 142l-175 -178h-98l223 227q-145 161 -145 400q0 73 15 151q40 206 169.5 376t317 267.5t390.5 97.5z
M729 59q176 0 340 88t277.5 239t148.5 331q13 73 13 132q0 217 -133 361l-1003 -1023q142 -128 357 -128zM219 717q-13 -65 -13 -132q0 -203 118 -346l1002 1021q-139 114 -342 114q-176 0 -339.5 -88t-277 -238.5t-148.5 -330.5z" />
    <glyph glyph-name="Ugrave" unicode="&#xd9;" horiz-adv-x="1339" 
d="M1346 1434l-185 -948q-44 -227 -211.5 -368t-387.5 -141q-189 0 -300.5 106t-111.5 286q0 55 12 117l184 948h94l-186 -955q-9 -49 -9 -94q0 -147 90.5 -235.5t243.5 -88.5q178 0 314 116.5t172 301.5l186 955h95zM751 1886l222 -335h-101l-224 335h103z" />
    <glyph glyph-name="Uacute" unicode="&#xda;" horiz-adv-x="1339" 
d="M1346 1434l-185 -948q-44 -227 -211.5 -368t-387.5 -141q-189 0 -300.5 106t-111.5 286q0 55 12 117l184 948h94l-186 -955q-9 -49 -9 -94q0 -147 90.5 -235.5t243.5 -88.5q178 0 314 116.5t172 301.5l186 955h95zM767 1551l351 335h103l-354 -335h-100z" />
    <glyph glyph-name="Ucircumflex" unicode="&#xdb;" horiz-adv-x="1339" 
d="M1346 1434l-185 -948q-44 -227 -211.5 -368t-387.5 -141q-189 0 -300.5 106t-111.5 286q0 55 12 117l184 948h94l-186 -955q-9 -49 -9 -94q0 -147 90.5 -235.5t243.5 -88.5q178 0 314 116.5t172 301.5l186 955h95zM968 1886l233 -335h-96l-185 264l-288 -264h-96l364 335
h68z" />
    <glyph glyph-name="Udieresis" unicode="&#xdc;" horiz-adv-x="1339" 
d="M1346 1434l-185 -948q-44 -227 -211.5 -368t-387.5 -141q-189 0 -300.5 106t-111.5 286q0 55 12 117l184 948h94l-186 -955q-9 -49 -9 -94q0 -147 90.5 -235.5t243.5 -88.5q178 0 314 116.5t172 301.5l186 955h95zM995 1709q8 32 33.5 52t56.5 20q29 0 46.5 -17.5
t17.5 -44.5q0 -13 -3 -22q-9 -29 -34 -49.5t-56 -20.5q-28 0 -46 17.5t-18 43.5q0 10 3 21zM649 1709q8 32 33.5 52t56.5 20q29 0 46.5 -17.5t17.5 -44.5q0 -13 -3 -22q-9 -29 -34 -49.5t-56 -20.5q-28 0 -46 17.5t-18 43.5q0 10 3 21z" />
    <glyph glyph-name="Yacute" unicode="&#xdd;" horiz-adv-x="1304" 
d="M346 1434l336 -752l629 752h107l-707 -846l-114 -588h-94l113 588l-377 846h107zM758 1551l351 335h102l-353 -335h-100z" />
    <glyph glyph-name="Thorn" unicode="&#xde;" horiz-adv-x="1165" 
d="M550 291h-313l-57 -291h-94l279 1434h94l-58 -291h314q192 0 302.5 -90t110.5 -246q0 -42 -9 -90q-37 -193 -193 -309.5t-376 -116.5zM1024 717q7 36 7 71q0 125 -89 198.5t-245 73.5h-311l-134 -686h311q179 0 304.5 93.5t156.5 249.5z" />
    <glyph glyph-name="germandbls" unicode="&#xdf;" horiz-adv-x="1221" 
d="M68 0l204 1056q34 172 171 287t310 115q145 0 235 -84.5t90 -209.5q0 -30 -6 -63q-23 -121 -123 -209t-226 -120q164 -23 265 -114.5t101 -224.5q0 -19 -8 -67q-31 -165 -186 -278t-356 -113q-71 0 -138 23t-111 58l45 84q39 -35 99 -58.5t121 -23.5q154 0 280.5 90
t150.5 218q5 28 5 53q0 62 -29 116t-84 96.5t-143.5 67t-200.5 25.5l15 81q156 2 280 87t148 206q5 27 5 50q0 96 -68 161.5t-177 65.5q-132 0 -238 -90.5t-132 -225.5l-205 -1059h-94z" />
    <glyph glyph-name="agrave" unicode="&#xe0;" horiz-adv-x="1296" 
d="M997 299l90 463q-46 112 -137.5 176t-221.5 64q-194 0 -354.5 -140t-197.5 -332q-9 -48 -9 -92q0 -162 104.5 -271t273.5 -109q130 0 246 64t206 177zM734 1085q127 0 224.5 -54.5t151.5 -151.5l36 182h92l-206 -1061h-92l35 182q-92 -97 -211 -152t-246 -55
q-201 0 -323 128t-122 319q0 55 10 108q29 148 123 275t234.5 203.5t293.5 76.5zM663 1554l222 -334h-101l-224 334h103z" />
    <glyph glyph-name="aacute" unicode="&#xe1;" horiz-adv-x="1296" 
d="M997 299l90 463q-46 112 -137.5 176t-221.5 64q-194 0 -354.5 -140t-197.5 -332q-9 -48 -9 -92q0 -162 104.5 -271t273.5 -109q130 0 246 64t206 177zM734 1085q127 0 224.5 -54.5t151.5 -151.5l36 182h92l-206 -1061h-92l35 182q-92 -97 -211 -152t-246 -55
q-201 0 -323 128t-122 319q0 55 10 108q29 148 123 275t234.5 203.5t293.5 76.5zM635 1220l351 334h103l-354 -334h-100z" />
    <glyph glyph-name="acircumflex" unicode="&#xe2;" horiz-adv-x="1296" 
d="M997 299l90 463q-46 112 -137.5 176t-221.5 64q-194 0 -354.5 -140t-197.5 -332q-9 -48 -9 -92q0 -162 104.5 -271t273.5 -109q130 0 246 64t206 177zM734 1085q127 0 224.5 -54.5t151.5 -151.5l36 182h92l-206 -1061h-92l35 182q-92 -97 -211 -152t-246 -55
q-201 0 -323 128t-122 319q0 55 10 108q29 148 123 275t234.5 203.5t293.5 76.5zM862 1554l234 -334h-97l-185 263l-288 -263h-96l365 334h67z" />
    <glyph glyph-name="atilde" unicode="&#xe3;" horiz-adv-x="1296" 
d="M997 299l90 463q-46 112 -137.5 176t-221.5 64q-194 0 -354.5 -140t-197.5 -332q-9 -48 -9 -92q0 -162 104.5 -271t273.5 -109q130 0 246 64t206 177zM734 1085q127 0 224.5 -54.5t151.5 -151.5l36 182h92l-206 -1061h-92l35 182q-92 -97 -211 -152t-246 -55
q-201 0 -323 128t-122 319q0 55 10 108q29 148 123 275t234.5 203.5t293.5 76.5zM778 1312l-20 26q-28 37 -50.5 56t-51.5 19q-74 0 -133 -148l-77 16q84 208 218 208q76 0 138 -80l23 -31q53 -70 100 -70q74 0 133 148l77 -16q-84 -208 -219 -208q-77 0 -138 80z" />
    <glyph glyph-name="adieresis" unicode="&#xe4;" horiz-adv-x="1296" 
d="M997 299l90 463q-46 112 -137.5 176t-221.5 64q-194 0 -354.5 -140t-197.5 -332q-9 -48 -9 -92q0 -162 104.5 -271t273.5 -109q130 0 246 64t206 177zM734 1085q127 0 224.5 -54.5t151.5 -151.5l36 182h92l-206 -1061h-92l35 182q-92 -97 -211 -152t-246 -55
q-201 0 -323 128t-122 319q0 55 10 108q29 148 123 275t234.5 203.5t293.5 76.5zM886 1377q8 32 33.5 52t56.5 20q29 0 46 -17t17 -44q0 -14 -3 -23q-9 -29 -34 -49.5t-56 -20.5q-28 0 -45.5 17t-17.5 44q0 10 3 21zM540 1377q8 32 33.5 52t56.5 20q29 0 46 -17t17 -44
q0 -14 -3 -23q-9 -29 -34 -49.5t-56 -20.5q-28 0 -45.5 17t-17.5 44q0 10 3 21z" />
    <glyph glyph-name="aring" unicode="&#xe5;" horiz-adv-x="1296" 
d="M997 299l90 463q-46 112 -137.5 176t-221.5 64q-194 0 -354.5 -140t-197.5 -332q-9 -48 -9 -92q0 -162 104.5 -271t273.5 -109q130 0 246 64t206 177zM734 1085q127 0 224.5 -54.5t151.5 -151.5l36 182h92l-206 -1061h-92l35 182q-92 -97 -211 -152t-246 -55
q-201 0 -323 128t-122 319q0 55 10 108q29 148 123 275t234.5 203.5t293.5 76.5zM659 1394q-2 -9 -2 -26q0 -46 30.5 -76t78.5 -30q55 0 101.5 38.5t56.5 94.5q2 9 2 25q0 46 -30.5 76t-78.5 30q-55 0 -101.5 -38t-56.5 -94zM998 1433q0 -20 -4 -39q-17 -83 -86 -139.5
t-154 -56.5q-75 0 -122 44.5t-47 113.5q0 18 4 38q17 83 86 139t154 56q75 0 122 -44t47 -112z" />
    <glyph glyph-name="ae" unicode="&#xe6;" horiz-adv-x="2052" 
d="M1028 507q-6 -42 -6 -81q0 -161 97 -265.5t264 -104.5q209 0 394 183l52 -61q-95 -95 -214 -149t-245 -54q-158 0 -266.5 78.5t-147.5 208.5q-92 -134 -228 -210.5t-284 -76.5q-179 0 -293.5 81t-114.5 205q0 26 4 47q27 138 181 233.5t348 95.5q106 0 209 -32.5
t166 -85.5q0 4 1.5 14t2.5 15q3 16 20 73q3 30 3 57q0 157 -91 242t-237 85q-196 0 -377 -135l-24 76q204 139 418 139q156 0 263 -81.5t124 -230.5q88 140 228.5 226t297.5 86q189 0 301.5 -116t112.5 -297q0 -47 -12 -112q-3 -16 -16 -53h-931zM463 56q134 0 261 75.5
t212 209.5q-5 37 -5 70q0 21 1 31q-61 57 -161.5 88t-204.5 31q-162 0 -287.5 -73.5t-146.5 -179.5q-3 -16 -3 -33q0 -94 94 -156.5t240 -62.5zM1556 1005q-168 0 -313 -122.5t-196 -296.5h837q4 32 4 67q0 157 -90 254.5t-242 97.5z" />
    <glyph glyph-name="ccedilla" unicode="&#xe7;" horiz-adv-x="1111" 
d="M438 -199q-33 0 -58 -5l-15 24l121 157q-188 13 -300.5 138t-112.5 307q0 55 10 108q22 111 83.5 213t149 177.5t199.5 120t229 44.5q223 0 351 -149l-63 -75q-114 141 -304 141q-194 0 -354.5 -140t-197.5 -332q-9 -48 -9 -92q0 -162 104.5 -271t273.5 -109
q100 0 196.5 41t176.5 114l43 -69q-177 -154 -398 -168l-93 -116q87 -4 136 -49.5t49 -112.5q0 -18 -3 -34q-16 -84 -95.5 -140t-180.5 -56q-96 0 -158 56l47 56q49 -47 121 -47q69 0 123 38t65 94q3 21 3 23q0 48 -38.5 80.5t-100.5 32.5z" />
    <glyph glyph-name="egrave" unicode="&#xe8;" horiz-adv-x="1226" 
d="M173 507q-6 -39 -6 -79q0 -161 102 -266.5t275 -105.5q109 0 214.5 48t192.5 135l53 -61q-94 -95 -218.5 -149t-256.5 -54q-210 0 -333.5 125t-123.5 318q0 51 11 112q29 150 123 277t233.5 202.5t292.5 75.5q195 0 311.5 -116.5t116.5 -299.5q0 -56 -10 -109
q-4 -22 -15 -53h-962zM716 1005q-174 0 -324 -122.5t-201 -296.5h869q4 29 4 63q0 158 -95 257t-253 99zM639 1554l222 -334h-100l-224 334h102z" />
    <glyph glyph-name="eacute" unicode="&#xe9;" horiz-adv-x="1226" 
d="M173 507q-6 -39 -6 -79q0 -161 102 -266.5t275 -105.5q109 0 214.5 48t192.5 135l53 -61q-94 -95 -218.5 -149t-256.5 -54q-210 0 -333.5 125t-123.5 318q0 51 11 112q29 150 123 277t233.5 202.5t292.5 75.5q195 0 311.5 -116.5t116.5 -299.5q0 -56 -10 -109
q-4 -22 -15 -53h-962zM716 1005q-174 0 -324 -122.5t-201 -296.5h869q4 29 4 63q0 158 -95 257t-253 99zM636 1220l351 334h103l-354 -334h-100z" />
    <glyph glyph-name="ecircumflex" unicode="&#xea;" horiz-adv-x="1226" 
d="M173 507q-6 -39 -6 -79q0 -161 102 -266.5t275 -105.5q109 0 214.5 48t192.5 135l53 -61q-94 -95 -218.5 -149t-256.5 -54q-210 0 -333.5 125t-123.5 318q0 51 11 112q29 150 123 277t233.5 202.5t292.5 75.5q195 0 311.5 -116.5t116.5 -299.5q0 -56 -10 -109
q-4 -22 -15 -53h-962zM716 1005q-174 0 -324 -122.5t-201 -296.5h869q4 29 4 63q0 158 -95 257t-253 99zM847 1554l233 -334h-96l-185 263l-288 -263h-96l364 334h68z" />
    <glyph glyph-name="edieresis" unicode="&#xeb;" horiz-adv-x="1226" 
d="M173 507q-6 -39 -6 -79q0 -161 102 -266.5t275 -105.5q109 0 214.5 48t192.5 135l53 -61q-94 -95 -218.5 -149t-256.5 -54q-210 0 -333.5 125t-123.5 318q0 51 11 112q29 150 123 277t233.5 202.5t292.5 75.5q195 0 311.5 -116.5t116.5 -299.5q0 -56 -10 -109
q-4 -22 -15 -53h-962zM716 1005q-174 0 -324 -122.5t-201 -296.5h869q4 29 4 63q0 158 -95 257t-253 99zM874 1377q8 31 33.5 51.5t57.5 20.5q29 0 46 -17t17 -44q0 -14 -3 -23q-9 -29 -34 -49.5t-56 -20.5q-28 0 -46 17.5t-18 43.5q0 10 3 21zM528 1377q8 32 33.5 52
t56.5 20q29 0 46.5 -17t17.5 -44q0 -14 -3 -23q-9 -29 -34 -49.5t-56 -20.5q-28 0 -46 17.5t-18 43.5q0 10 3 21z" />
    <glyph glyph-name="igrave" unicode="&#xec;" horiz-adv-x="523" 
d="M113 0l205 1061h93l-206 -1061h-92zM289 1554l222 -334h-100l-225 334h103z" />
    <glyph glyph-name="iacute" unicode="&#xed;" horiz-adv-x="523" 
d="M113 0l205 1061h93l-206 -1061h-92zM283 1220l351 334h102l-353 -334h-100z" />
    <glyph glyph-name="icircumflex" unicode="&#xee;" horiz-adv-x="523" 
d="M113 0l205 1061h93l-206 -1061h-92zM495 1554l233 -334h-96l-186 263l-287 -263h-97l365 334h68z" />
    <glyph glyph-name="idieresis" unicode="&#xef;" horiz-adv-x="523" 
d="M113 0l205 1061h93l-206 -1061h-92zM523 1377q8 32 33.5 52t56.5 20q29 0 46.5 -17t17.5 -44q0 -14 -3 -23q-9 -29 -34 -49.5t-56 -20.5q-28 0 -46 17.5t-18 43.5q0 10 3 21zM177 1377q8 32 33.5 52t56.5 20q29 0 46.5 -17t17.5 -44q0 -14 -3 -23q-9 -29 -34 -49.5
t-56 -20.5q-28 0 -46 17.5t-18 43.5q0 10 3 21z" />
    <glyph glyph-name="eth" unicode="&#xf0;" horiz-adv-x="1232" 
d="M392 1091l-18 63l356 156q-91 70 -217 133l80 52q123 -59 230 -144l273 118l17 -63l-236 -103q129 -114 200.5 -276.5t71.5 -352.5q0 -88 -19 -193q-27 -139 -119.5 -255.5t-227 -183.5t-279.5 -67q-194 0 -316.5 116t-122.5 294q0 47 9 96q27 138 119 254t224.5 183
t273.5 67q128 0 226.5 -59.5t134.5 -160.5q-44 309 -265 499zM685 906q-119 0 -230 -56.5t-188 -154t-100 -213.5q-8 -45 -8 -81q0 -149 101 -246t260 -97q182 0 332.5 123.5t185.5 300.5q9 50 9 81q0 149 -101.5 246t-260.5 97z" />
    <glyph glyph-name="ntilde" unicode="&#xf1;" horiz-adv-x="1211" 
d="M288 702l-136 -702h-93l206 1061h92l-47 -242q204 266 452 266q155 0 248.5 -91t93.5 -236q0 -47 -8 -87l-130 -671h-93l129 665q8 38 8 69q0 118 -76 193t-203 75q-227 0 -443 -300zM764 1312l-21 26q-19 25 -31 38.5t-31 25t-39 11.5q-74 0 -133 -148l-77 16
q84 208 217 208q76 0 138 -80l24 -31q53 -70 99 -70q74 0 133 148l77 -16q-84 -208 -218 -208q-77 0 -138 80z" />
    <glyph glyph-name="ograve" unicode="&#xf2;" horiz-adv-x="1271" 
d="M545 58q96 0 189.5 38.5t166.5 102.5t125 150.5t70 180.5q9 48 9 93q0 162 -104 270.5t-273 108.5q-194 0 -354.5 -140t-197.5 -332q-9 -48 -9 -92q0 -162 104.5 -271t273.5 -109zM744 1085q206 0 330.5 -127t124.5 -319q0 -56 -10 -109q-22 -111 -83.5 -213t-149 -177.5
t-199.5 -120t-229 -44.5q-206 0 -330.5 127t-124.5 320q0 55 10 108q22 111 83.5 213t149 177.5t199.5 120t229 44.5zM665 1554l222 -334h-101l-224 334h103z" />
    <glyph glyph-name="oacute" unicode="&#xf3;" horiz-adv-x="1271" 
d="M545 58q96 0 189.5 38.5t166.5 102.5t125 150.5t70 180.5q9 48 9 93q0 162 -104 270.5t-273 108.5q-194 0 -354.5 -140t-197.5 -332q-9 -48 -9 -92q0 -162 104.5 -271t273.5 -109zM744 1085q206 0 330.5 -127t124.5 -319q0 -56 -10 -109q-22 -111 -83.5 -213t-149 -177.5
t-199.5 -120t-229 -44.5q-206 0 -330.5 127t-124.5 320q0 55 10 108q22 111 83.5 213t149 177.5t199.5 120t229 44.5zM656 1220l352 334h102l-353 -334h-101z" />
    <glyph glyph-name="ocircumflex" unicode="&#xf4;" horiz-adv-x="1271" 
d="M545 58q96 0 189.5 38.5t166.5 102.5t125 150.5t70 180.5q9 48 9 93q0 162 -104 270.5t-273 108.5q-194 0 -354.5 -140t-197.5 -332q-9 -48 -9 -92q0 -162 104.5 -271t273.5 -109zM744 1085q206 0 330.5 -127t124.5 -319q0 -56 -10 -109q-22 -111 -83.5 -213t-149 -177.5
t-199.5 -120t-229 -44.5q-206 0 -330.5 127t-124.5 320q0 55 10 108q22 111 83.5 213t149 177.5t199.5 120t229 44.5zM869 1554l234 -334h-96l-186 263l-287 -263h-97l365 334h67z" />
    <glyph glyph-name="otilde" unicode="&#xf5;" horiz-adv-x="1271" 
d="M545 58q96 0 189.5 38.5t166.5 102.5t125 150.5t70 180.5q9 48 9 93q0 162 -104 270.5t-273 108.5q-194 0 -354.5 -140t-197.5 -332q-9 -48 -9 -92q0 -162 104.5 -271t273.5 -109zM744 1085q206 0 330.5 -127t124.5 -319q0 -56 -10 -109q-22 -111 -83.5 -213t-149 -177.5
t-199.5 -120t-229 -44.5q-206 0 -330.5 127t-124.5 320q0 55 10 108q22 111 83.5 213t149 177.5t199.5 120t229 44.5zM786 1312l-20 26q-19 25 -31 38.5t-31 25t-39 11.5q-75 0 -134 -148l-76 16q84 208 217 208q76 0 138 -80l24 -31q53 -70 99 -70q74 0 133 148l77 -16
q-84 -208 -218 -208q-78 0 -139 80z" />
    <glyph glyph-name="odieresis" unicode="&#xf6;" horiz-adv-x="1271" 
d="M545 58q96 0 189.5 38.5t166.5 102.5t125 150.5t70 180.5q9 48 9 93q0 162 -104 270.5t-273 108.5q-194 0 -354.5 -140t-197.5 -332q-9 -48 -9 -92q0 -162 104.5 -271t273.5 -109zM744 1085q206 0 330.5 -127t124.5 -319q0 -56 -10 -109q-22 -111 -83.5 -213t-149 -177.5
t-199.5 -120t-229 -44.5q-206 0 -330.5 127t-124.5 320q0 55 10 108q22 111 83.5 213t149 177.5t199.5 120t229 44.5zM897 1377q8 32 33.5 52t56.5 20q29 0 46.5 -17t17.5 -44q0 -14 -3 -23q-8 -29 -34 -49.5t-57 -20.5q-28 0 -45.5 17t-17.5 44q0 10 3 21zM551 1377
q8 32 33.5 52t56.5 20q29 0 46.5 -17t17.5 -44q0 -11 -4 -23q-9 -29 -34 -49.5t-56 -20.5q-28 0 -45.5 17t-17.5 44q0 10 3 21z" />
    <glyph glyph-name="divide" unicode="&#xf7;" horiz-adv-x="1150" 
d="M1052 639h-912v81h912v-81zM515 1067q0 35 23.5 58t57.5 23t57.5 -23t23.5 -58t-23.5 -58t-57.5 -23t-57.5 23t-23.5 58zM515 292q0 34 23.5 57.5t57.5 23.5t57.5 -23.5t23.5 -57.5t-23.5 -57.5t-57.5 -23.5t-57.5 23.5t-23.5 57.5z" />
    <glyph glyph-name="oslash" unicode="&#xf8;" horiz-adv-x="1271" 
d="M744 1085q180 0 299 -100l140 137h95l-184 -184q105 -120 105 -299q0 -56 -10 -109q-22 -111 -83.5 -213t-149 -177.5t-199.5 -120t-229 -44.5q-179 0 -302 101l-137 -137h-95l185 184q-106 121 -106 299q0 55 10 108q22 111 83.5 213t149 177.5t199.5 120t229 44.5z
M545 58q96 0 189.5 38.5t166.5 102.5t125 150.5t70 180.5q9 48 9 93q0 142 -83 245l-727 -724q104 -86 250 -86zM176 530q-8 -41 -8 -91q0 -142 81 -246l726 723q-99 86 -247 86q-194 0 -354.5 -140t-197.5 -332z" />
    <glyph glyph-name="ugrave" unicode="&#xf9;" horiz-adv-x="1211" 
d="M924 357l137 704h92l-206 -1061h-92l46 241q-204 -266 -449 -266q-155 0 -249 91.5t-94 236.5q0 47 8 87l130 671h92l-129 -665q-7 -34 -7 -69q0 -118 76 -193.5t203 -75.5q224 0 442 299zM604 1554l222 -334h-100l-224 334h102z" />
    <glyph glyph-name="uacute" unicode="&#xfa;" horiz-adv-x="1211" 
d="M924 357l137 704h92l-206 -1061h-92l46 241q-204 -266 -449 -266q-155 0 -249 91.5t-94 236.5q0 47 8 87l130 671h92l-129 -665q-7 -34 -7 -69q0 -118 76 -193.5t203 -75.5q224 0 442 299zM617 1220l352 334h102l-353 -334h-101z" />
    <glyph glyph-name="ucircumflex" unicode="&#xfb;" horiz-adv-x="1211" 
d="M924 357l137 704h92l-206 -1061h-92l46 241q-204 -266 -449 -266q-155 0 -249 91.5t-94 236.5q0 47 8 87l130 671h92l-129 -665q-7 -34 -7 -69q0 -118 76 -193.5t203 -75.5q224 0 442 299zM829 1554l234 -334h-96l-186 263l-287 -263h-97l365 334h67z" />
    <glyph glyph-name="udieresis" unicode="&#xfc;" horiz-adv-x="1211" 
d="M924 357l137 704h92l-206 -1061h-92l46 241q-204 -266 -449 -266q-155 0 -249 91.5t-94 236.5q0 47 8 87l130 671h92l-129 -665q-7 -34 -7 -69q0 -118 76 -193.5t203 -75.5q224 0 442 299zM857 1377q8 32 33.5 52t56.5 20q29 0 46.5 -17t17.5 -44q0 -14 -3 -23
q-9 -29 -34 -49.5t-56 -20.5q-28 0 -46 17.5t-18 43.5q0 10 3 21zM511 1377q8 32 33.5 52t56.5 20q29 0 46.5 -17t17.5 -44q0 -14 -3 -23q-8 -29 -34 -49.5t-57 -20.5q-28 0 -45.5 17t-17.5 44q0 10 3 21z" />
    <glyph glyph-name="yacute" unicode="&#xfd;" horiz-adv-x="1062" 
d="M88 -475l299 488l-242 1048h101l213 -928l565 928h100l-936 -1536h-100zM566 1220l352 334h102l-353 -334h-101z" />
    <glyph glyph-name="thorn" unicode="&#xfe;" horiz-adv-x="1296" 
d="M299 762l-90 -463q47 -113 138.5 -177t221.5 -64q96 0 189.5 38.5t166.5 102.5t125 150.5t70 180.5q9 48 9 93q0 162 -103.5 270.5t-272.5 108.5q-130 0 -246.5 -63.5t-207.5 -176.5zM779 1085q201 0 323.5 -127t122.5 -317q0 -46 -12 -111q-28 -148 -122.5 -275
t-234.5 -203.5t-293 -76.5q-127 0 -225 55t-152 152l-128 -657h-92l383 1970h92l-119 -616q91 97 210.5 151.5t246.5 54.5z" />
    <glyph glyph-name="ydieresis" unicode="&#xff;" horiz-adv-x="1062" 
d="M88 -475l299 488l-242 1048h101l213 -928l565 928h100l-936 -1536h-100zM793 1377q8 32 33.5 52t56.5 20q29 0 46 -17t17 -44q0 -14 -3 -23q-9 -29 -34 -49.5t-56 -20.5q-28 0 -45.5 17t-17.5 44q0 10 3 21zM446 1377q8 31 33.5 51.5t57.5 20.5q29 0 46 -17t17 -44
q0 -14 -3 -23q-9 -29 -34 -49.5t-56 -20.5q-28 0 -46 17.5t-18 43.5q0 10 3 21z" />
    <glyph glyph-name="Amacron" unicode="&#x100;" horiz-adv-x="1366" 
d="M1198 0h-105l-81 418h-701l-242 -418h-106l846 1434h100zM997 501l-159 823l-480 -823h639zM627 1662l14 76h553l-14 -76h-553z" />
    <glyph glyph-name="amacron" unicode="&#x101;" horiz-adv-x="1296" 
d="M997 299l90 463q-46 112 -137.5 176t-221.5 64q-194 0 -354.5 -140t-197.5 -332q-9 -48 -9 -92q0 -162 104.5 -271t273.5 -109q130 0 246 64t206 177zM734 1085q127 0 224.5 -54.5t151.5 -151.5l36 182h92l-206 -1061h-92l35 182q-92 -97 -211 -152t-246 -55
q-201 0 -323 128t-122 319q0 55 10 108q29 148 123 275t234.5 203.5t293.5 76.5zM515 1330l14 76h553l-14 -76h-553z" />
    <glyph glyph-name="Abreve" unicode="&#x102;" horiz-adv-x="1366" 
d="M1198 0h-105l-81 418h-701l-242 -418h-106l846 1434h100zM997 501l-159 823l-480 -823h639zM878 1531q-116 0 -184.5 70.5t-68.5 182.5q0 29 4 53h86q-3 -23 -3 -46q0 -84 46.5 -135t133.5 -51q98 0 170 65.5t97 166.5h86q-32 -132 -134.5 -219t-232.5 -87z" />
    <glyph glyph-name="abreve" unicode="&#x103;" horiz-adv-x="1296" 
d="M997 299l90 463q-46 112 -137.5 176t-221.5 64q-194 0 -354.5 -140t-197.5 -332q-9 -48 -9 -92q0 -162 104.5 -271t273.5 -109q130 0 246 64t206 177zM734 1085q127 0 224.5 -54.5t151.5 -151.5l36 182h92l-206 -1061h-92l35 182q-92 -97 -211 -152t-246 -55
q-201 0 -323 128t-122 319q0 55 10 108q29 148 123 275t234.5 203.5t293.5 76.5zM765 1199q-116 0 -184.5 70.5t-68.5 182.5q0 29 4 53h86q-3 -23 -3 -46q0 -84 46.5 -135t133.5 -51q98 0 170.5 65.5t97.5 166.5h86q-32 -132 -135 -219t-233 -87z" />
    <glyph glyph-name="Aogonek" unicode="&#x104;" horiz-adv-x="1366" 
d="M1115 0h-22l-81 418h-701l-242 -418h-106l846 1434h100l289 -1434q-120 -83 -179.5 -140t-71.5 -121q-3 -15 -3 -30q0 -50 31 -80.5t82 -30.5q68 0 130 40l11 -60q-75 -47 -165 -47q-75 0 -122 45t-47 115q0 22 4 41q15 77 77.5 139t169.5 129zM997 501l-159 823
l-480 -823h639z" />
    <glyph glyph-name="aogonek" unicode="&#x105;" horiz-adv-x="1296" 
d="M734 1085q127 0 224.5 -54.5t151.5 -151.5l36 182h92l-206 -1061q-120 -83 -179.5 -140t-71.5 -121q-3 -15 -3 -30q0 -50 31 -80.5t82 -30.5q68 0 130 40l11 -60q-75 -47 -165 -47q-75 0 -122 45t-47 115q0 22 4 41q15 77 77.5 139t169.5 129h-9l35 182
q-92 -97 -211 -152t-246 -55q-201 0 -323 128t-122 319q0 55 10 108q29 148 123 275t234.5 203.5t293.5 76.5zM997 299l90 463q-46 112 -137.5 176t-221.5 64q-194 0 -354.5 -140t-197.5 -332q-9 -48 -9 -92q0 -162 104.5 -271t273.5 -109q130 0 246 64t206 177z" />
    <glyph glyph-name="Cacute" unicode="&#x106;" horiz-adv-x="1374" 
d="M729 59q236 0 454 159l37 -73q-235 -170 -507 -170q-269 0 -436.5 166t-167.5 424q0 74 15 152q40 206 169 376t316.5 267.5t390.5 97.5q257 0 427 -156l-64 -72q-161 144 -379 144q-176 0 -339.5 -88t-277 -238.5t-148.5 -330.5q-13 -65 -13 -132q0 -228 145.5 -377
t377.5 -149zM862 1551l351 335h103l-353 -335h-101z" />
    <glyph glyph-name="cacute" unicode="&#x107;" horiz-adv-x="1111" 
d="M528 -25q-206 0 -330.5 127t-124.5 320q0 55 10 108q22 111 83.5 213t149 177.5t199.5 120t229 44.5q223 0 351 -149l-63 -75q-114 141 -304 141q-194 0 -354.5 -140t-197.5 -332q-9 -48 -9 -92q0 -162 104.5 -271t273.5 -109q100 0 196.5 41t176.5 114l43 -69
q-91 -80 -203 -124.5t-230 -44.5zM624 1220l351 334h102l-353 -334h-100z" />
    <glyph glyph-name="Ccircumflex" unicode="&#x108;" horiz-adv-x="1374" 
d="M729 59q236 0 454 159l37 -73q-235 -170 -507 -170q-269 0 -436.5 166t-167.5 424q0 74 15 152q40 206 169 376t316.5 267.5t390.5 97.5q257 0 427 -156l-64 -72q-161 144 -379 144q-176 0 -339.5 -88t-277 -238.5t-148.5 -330.5q-13 -65 -13 -132q0 -228 145.5 -377
t377.5 -149zM1076 1886l234 -335h-97l-185 264l-288 -264h-96l365 335h67z" />
    <glyph glyph-name="ccircumflex" unicode="&#x109;" horiz-adv-x="1111" 
d="M528 -25q-206 0 -330.5 127t-124.5 320q0 55 10 108q22 111 83.5 213t149 177.5t199.5 120t229 44.5q223 0 351 -149l-63 -75q-114 141 -304 141q-194 0 -354.5 -140t-197.5 -332q-9 -48 -9 -92q0 -162 104.5 -271t273.5 -109q100 0 196.5 41t176.5 114l43 -69
q-91 -80 -203 -124.5t-230 -44.5zM834 1554l233 -334h-96l-186 263l-287 -263h-97l365 334h68z" />
    <glyph glyph-name="Cdotaccent" unicode="&#x10a;" horiz-adv-x="1374" 
d="M729 59q236 0 454 159l37 -73q-235 -170 -507 -170q-269 0 -436.5 166t-167.5 424q0 74 15 152q40 206 169 376t316.5 267.5t390.5 97.5q257 0 427 -156l-64 -72q-161 144 -379 144q-176 0 -339.5 -88t-277 -238.5t-148.5 -330.5q-13 -65 -13 -132q0 -228 145.5 -377
t377.5 -149zM934 1709q8 32 33.5 52t56.5 20q29 0 46 -17.5t17 -44.5q0 -13 -3 -22q-9 -29 -34 -49.5t-56 -20.5q-28 0 -45.5 17t-17.5 44q0 10 3 21z" />
    <glyph glyph-name="cdotaccent" unicode="&#x10b;" horiz-adv-x="1111" 
d="M528 -25q-206 0 -330.5 127t-124.5 320q0 55 10 108q22 111 83.5 213t149 177.5t199.5 120t229 44.5q223 0 351 -149l-63 -75q-114 141 -304 141q-194 0 -354.5 -140t-197.5 -332q-9 -48 -9 -92q0 -162 104.5 -271t273.5 -109q100 0 196.5 41t176.5 114l43 -69
q-91 -80 -203 -124.5t-230 -44.5zM700 1377q8 31 33.5 51.5t57.5 20.5q29 0 46 -17t17 -44q0 -14 -3 -23q-9 -29 -34 -49.5t-56 -20.5q-28 0 -46 17.5t-18 43.5q0 10 3 21z" />
    <glyph glyph-name="Ccaron" unicode="&#x10c;" horiz-adv-x="1374" 
d="M729 59q236 0 454 159l37 -73q-235 -170 -507 -170q-269 0 -436.5 166t-167.5 424q0 74 15 152q40 206 169 376t316.5 267.5t390.5 97.5q257 0 427 -156l-64 -72q-161 144 -379 144q-176 0 -339.5 -88t-277 -238.5t-148.5 -330.5q-13 -65 -13 -132q0 -228 145.5 -377
t377.5 -149zM1375 1886l-364 -335h-68l-233 335h96l185 -263l288 263h96z" />
    <glyph glyph-name="ccaron" unicode="&#x10d;" horiz-adv-x="1111" 
d="M528 -25q-206 0 -330.5 127t-124.5 320q0 55 10 108q22 111 83.5 213t149 177.5t199.5 120t229 44.5q223 0 351 -149l-63 -75q-114 141 -304 141q-194 0 -354.5 -140t-197.5 -332q-9 -48 -9 -92q0 -162 104.5 -271t273.5 -109q100 0 196.5 41t176.5 114l43 -69
q-91 -80 -203 -124.5t-230 -44.5zM1129 1534l-364 -335h-68l-233 335h96l185 -263l288 263h96z" />
    <glyph glyph-name="Dcaron" unicode="&#x10e;" horiz-adv-x="1405" 
d="M365 1434h451q264 0 410.5 -146t146.5 -395q0 -90 -17 -176q-63 -322 -285.5 -519.5t-532.5 -197.5h-452zM800 1350h-358l-246 -1266h357q265 0 458.5 173t249.5 460q16 81 16 161q0 219 -126 345.5t-351 126.5zM1272 1886l-365 -335h-67l-234 335h96l186 -263l288 263
h96z" />
    <glyph glyph-name="dcaron" unicode="&#x10f;" horiz-adv-x="1594" 
d="M997 299l90 463q-46 112 -137.5 176t-221.5 64q-194 0 -354.5 -140t-197.5 -332q-9 -48 -9 -92q0 -162 104.5 -271t273.5 -109q130 0 246 64t206 177zM734 1085q127 0 224.5 -54.5t151.5 -151.5l120 616h92l-290 -1495h-92l35 182q-92 -97 -211 -152t-246 -55
q-201 0 -323 128t-122 319q0 55 10 108q29 148 123 275t234.5 203.5t293.5 76.5zM1550 1448q9 31 35.5 51.5t58.5 20.5q29 0 47 -17.5t18 -45.5q0 -6 -2 -18q-4 -18 -13 -33l-164 -259h-71l135 216q-22 5 -34.5 21.5t-12.5 39.5q0 15 3 24z" />
    <glyph glyph-name="Dcroat" unicode="&#x110;" horiz-adv-x="1464" 
d="M423 1434h451q264 0 411 -146t147 -395q0 -85 -18 -176q-63 -322 -285.5 -519.5t-532.5 -197.5h-452l131 678h-192l15 78h193zM858 1350h-357l-116 -594h361l-15 -78h-361l-116 -594h357q265 0 458.5 173t249.5 460q16 81 16 161q0 219 -126 345.5t-351 126.5z" />
    <glyph glyph-name="dcroat" unicode="&#x111;" horiz-adv-x="1351" 
d="M777 1229l15 75h401l37 191h92l-37 -191h174l-14 -75h-174l-239 -1229h-92l35 182q-92 -97 -211 -152t-246 -55q-201 0 -323 128t-122 319q0 55 10 108q29 148 123 275t234.5 203.5t293.5 76.5q127 0 224.5 -54.5t151.5 -151.5l69 350h-402zM997 299l90 463
q-46 112 -137.5 176t-221.5 64q-194 0 -354.5 -140t-197.5 -332q-9 -48 -9 -92q0 -162 104.5 -271t273.5 -109q130 0 246 64t206 177z" />
    <glyph glyph-name="Emacron" unicode="&#x112;" horiz-adv-x="1133" 
d="M86 0l279 1434h795l-16 -83h-702l-114 -589h644l-17 -83h-644l-115 -596h719l-15 -83h-814zM521 1662l15 76h553l-15 -76h-553z" />
    <glyph glyph-name="emacron" unicode="&#x113;" horiz-adv-x="1226" 
d="M173 507q-6 -39 -6 -79q0 -161 102 -266.5t275 -105.5q109 0 214.5 48t192.5 135l53 -61q-94 -95 -218.5 -149t-256.5 -54q-210 0 -333.5 125t-123.5 318q0 51 11 112q29 150 123 277t233.5 202.5t292.5 75.5q195 0 311.5 -116.5t116.5 -299.5q0 -56 -10 -109
q-4 -22 -15 -53h-962zM716 1005q-174 0 -324 -122.5t-201 -296.5h869q4 29 4 63q0 158 -95 257t-253 99zM493 1330l14 76h553l-14 -76h-553z" />
    <glyph glyph-name="Ebreve" unicode="&#x114;" horiz-adv-x="1133" 
d="M86 0l279 1434h795l-16 -83h-702l-114 -589h644l-17 -83h-644l-115 -596h719l-15 -83h-814zM773 1531q-116 0 -184.5 70.5t-68.5 182.5q0 29 4 53h86q-3 -23 -3 -46q0 -84 46.5 -135t133.5 -51q98 0 170.5 65.5t97.5 166.5h86q-32 -132 -135 -219t-233 -87z" />
    <glyph glyph-name="ebreve" unicode="&#x115;" horiz-adv-x="1226" 
d="M173 507q-6 -39 -6 -79q0 -161 102 -266.5t275 -105.5q109 0 214.5 48t192.5 135l53 -61q-94 -95 -218.5 -149t-256.5 -54q-210 0 -333.5 125t-123.5 318q0 51 11 112q29 150 123 277t233.5 202.5t292.5 75.5q195 0 311.5 -116.5t116.5 -299.5q0 -56 -10 -109
q-4 -22 -15 -53h-962zM716 1005q-174 0 -324 -122.5t-201 -296.5h869q4 29 4 63q0 158 -95 257t-253 99zM743 1199q-116 0 -184.5 70.5t-68.5 182.5q0 23 5 53h86q-3 -23 -3 -46q0 -84 46.5 -135t133.5 -51q98 0 170 65.5t97 166.5h86q-32 -132 -135 -219t-233 -87z" />
    <glyph glyph-name="Edotaccent" unicode="&#x116;" horiz-adv-x="1133" 
d="M86 0l279 1434h795l-16 -83h-702l-114 -589h644l-17 -83h-644l-115 -596h719l-15 -83h-814zM737 1709q8 32 33.5 52t56.5 20q29 0 46.5 -17.5t17.5 -44.5q0 -13 -3 -22q-9 -29 -34 -49.5t-56 -20.5q-28 0 -46 17.5t-18 43.5q0 10 3 21z" />
    <glyph glyph-name="edotaccent" unicode="&#x117;" horiz-adv-x="1226" 
d="M173 507q-6 -39 -6 -79q0 -161 102 -266.5t275 -105.5q109 0 214.5 48t192.5 135l53 -61q-94 -95 -218.5 -149t-256.5 -54q-210 0 -333.5 125t-123.5 318q0 51 11 112q29 150 123 277t233.5 202.5t292.5 75.5q195 0 311.5 -116.5t116.5 -299.5q0 -56 -10 -109
q-4 -22 -15 -53h-962zM716 1005q-174 0 -324 -122.5t-201 -296.5h869q4 29 4 63q0 158 -95 257t-253 99zM702 1377q8 31 33.5 51.5t57.5 20.5q29 0 46 -17t17 -44q0 -14 -3 -23q-9 -29 -34 -49.5t-56 -20.5q-28 0 -46 17.5t-18 43.5q0 10 3 21z" />
    <glyph glyph-name="Eogonek" unicode="&#x118;" horiz-adv-x="1133" 
d="M86 0l279 1434h795l-16 -83h-702l-114 -589h644l-17 -83h-644l-115 -596h719l-15 -83h-173q-120 -83 -179.5 -140t-71.5 -121q-3 -15 -3 -30q0 -50 31 -80.5t82 -30.5q68 0 130 40l11 -60q-75 -47 -165 -47q-75 0 -122 45t-47 115q0 22 4 41q15 77 77.5 139t169.5 129
h-558z" />
    <glyph glyph-name="eogonek" unicode="&#x119;" horiz-adv-x="1226" 
d="M173 507q-6 -41 -6 -79q0 -161 102 -266.5t275 -105.5q109 0 214.5 48t192.5 135l53 -61q-86 -86 -196.5 -138.5t-230.5 -62.5q-103 -73 -155 -125.5t-63 -112.5q-3 -15 -3 -30q0 -50 31 -80.5t82 -30.5q68 0 130 40l11 -60q-75 -47 -165 -47q-75 0 -122 45t-47 115
q0 18 5 41q13 69 66.5 127t142.5 118q-193 12 -305.5 134.5t-112.5 305.5q0 52 11 113q29 150 123 277t233.5 202.5t292.5 75.5q195 0 311.5 -116.5t116.5 -299.5q0 -56 -10 -109q-4 -22 -15 -53h-962zM716 1005q-174 0 -324 -122.5t-201 -296.5h869q4 29 4 63
q0 158 -95 257t-253 99z" />
    <glyph glyph-name="Ecaron" unicode="&#x11a;" horiz-adv-x="1133" 
d="M86 0l279 1434h795l-16 -83h-702l-114 -589h644l-17 -83h-644l-115 -596h719l-15 -83h-814zM1179 1886l-365 -335h-68l-233 335h96l186 -263l287 263h97z" />
    <glyph glyph-name="ecaron" unicode="&#x11b;" horiz-adv-x="1226" 
d="M173 507q-6 -39 -6 -79q0 -161 102 -266.5t275 -105.5q109 0 214.5 48t192.5 135l53 -61q-94 -95 -218.5 -149t-256.5 -54q-210 0 -333.5 125t-123.5 318q0 51 11 112q29 150 123 277t233.5 202.5t292.5 75.5q195 0 311.5 -116.5t116.5 -299.5q0 -56 -10 -109
q-4 -22 -15 -53h-962zM716 1005q-174 0 -324 -122.5t-201 -296.5h869q4 29 4 63q0 158 -95 257t-253 99zM1142 1534l-365 -335h-67l-234 335h96l186 -263l288 263h96z" />
    <glyph glyph-name="Gcircumflex" unicode="&#x11c;" horiz-adv-x="1454" 
d="M984 1374q-176 0 -339.5 -88t-277 -238.5t-148.5 -330.5q-13 -65 -13 -132q0 -228 145.5 -377t377.5 -149q109 0 219.5 38t204.5 105l83 430h-480l16 83h575l-108 -555q-113 -87 -248.5 -136t-277.5 -49q-269 0 -436.5 166t-167.5 424q0 74 15 152q40 206 169 376
t316.5 267.5t390.5 97.5q257 0 427 -156l-64 -72q-161 144 -379 144zM1076 1886l234 -335h-97l-185 264l-288 -264h-96l365 335h67z" />
    <glyph glyph-name="gcircumflex" unicode="&#x11d;" horiz-adv-x="1296" 
d="M997 299l90 463q-46 112 -137.5 176t-221.5 64q-194 0 -354.5 -140t-197.5 -332q-9 -48 -9 -92q0 -162 104.5 -271t273.5 -109q130 0 246 64t206 177zM1110 879l36 182h92l-209 -1073q-40 -207 -199 -335t-380 -128q-141 0 -245.5 56t-169.5 151l74 63q56 -87 146 -138
t210 -51q177 0 307.5 104.5t163.5 273.5l39 198q-92 -97 -211 -152t-246 -55q-201 0 -323 128t-122 319q0 55 10 108q29 148 123 275t234.5 203.5t293.5 76.5q127 0 224.5 -54.5t151.5 -151.5zM863 1554l234 -334h-97l-185 263l-288 -263h-96l365 334h67z" />
    <glyph glyph-name="Gbreve" unicode="&#x11e;" horiz-adv-x="1454" 
d="M984 1374q-176 0 -339.5 -88t-277 -238.5t-148.5 -330.5q-13 -65 -13 -132q0 -228 145.5 -377t377.5 -149q109 0 219.5 38t204.5 105l83 430h-480l16 83h575l-108 -555q-113 -87 -248.5 -136t-277.5 -49q-269 0 -436.5 166t-167.5 424q0 74 15 152q40 206 169 376
t316.5 267.5t390.5 97.5q257 0 427 -156l-64 -72q-161 144 -379 144zM974 1531q-116 0 -184.5 70.5t-68.5 182.5q0 29 4 53h86q-3 -22 -3 -46q0 -84 46.5 -135t133.5 -51q98 0 170 65.5t97 166.5h86q-32 -132 -134.5 -219t-232.5 -87z" />
    <glyph glyph-name="gbreve" unicode="&#x11f;" horiz-adv-x="1296" 
d="M997 299l90 463q-46 112 -137.5 176t-221.5 64q-194 0 -354.5 -140t-197.5 -332q-9 -48 -9 -92q0 -162 104.5 -271t273.5 -109q130 0 246 64t206 177zM1110 879l36 182h92l-209 -1073q-40 -207 -199 -335t-380 -128q-141 0 -245.5 56t-169.5 151l74 63q56 -87 146 -138
t210 -51q177 0 307.5 104.5t163.5 273.5l39 198q-92 -97 -211 -152t-246 -55q-201 0 -323 128t-122 319q0 55 10 108q29 148 123 275t234.5 203.5t293.5 76.5q127 0 224.5 -54.5t151.5 -151.5zM758 1199q-116 0 -184.5 70.5t-68.5 182.5q0 29 4 53h86q-3 -23 -3 -46
q0 -84 46.5 -135t133.5 -51q98 0 170 65.5t97 166.5h86q-32 -132 -134.5 -219t-232.5 -87z" />
    <glyph glyph-name="Gdotaccent" unicode="&#x120;" horiz-adv-x="1454" 
d="M984 1374q-176 0 -339.5 -88t-277 -238.5t-148.5 -330.5q-13 -65 -13 -132q0 -228 145.5 -377t377.5 -149q109 0 219.5 38t204.5 105l83 430h-480l16 83h575l-108 -555q-113 -87 -248.5 -136t-277.5 -49q-269 0 -436.5 166t-167.5 424q0 74 15 152q40 206 169 376
t316.5 267.5t390.5 97.5q257 0 427 -156l-64 -72q-161 144 -379 144zM930 1709q8 32 33.5 52t56.5 20q29 0 46 -17.5t17 -44.5q0 -13 -3 -22q-9 -29 -34 -49.5t-56 -20.5q-28 0 -45.5 17t-17.5 44q0 10 3 21z" />
    <glyph glyph-name="gdotaccent" unicode="&#x121;" horiz-adv-x="1296" 
d="M997 299l90 463q-46 112 -137.5 176t-221.5 64q-194 0 -354.5 -140t-197.5 -332q-9 -48 -9 -92q0 -162 104.5 -271t273.5 -109q130 0 246 64t206 177zM1110 879l36 182h92l-209 -1073q-40 -207 -199 -335t-380 -128q-141 0 -245.5 56t-169.5 151l74 63q56 -87 146 -138
t210 -51q177 0 307.5 104.5t163.5 273.5l39 198q-92 -97 -211 -152t-246 -55q-201 0 -323 128t-122 319q0 55 10 108q29 148 123 275t234.5 203.5t293.5 76.5q127 0 224.5 -54.5t151.5 -151.5zM713 1377q8 32 33.5 52t56.5 20q29 0 46 -17t17 -44q0 -14 -3 -23
q-9 -29 -34 -49.5t-56 -20.5q-28 0 -45.5 17t-17.5 44q0 10 3 21z" />
    <glyph glyph-name="Gcommaaccent" unicode="&#x122;" horiz-adv-x="1454" 
d="M984 1374q-176 0 -339.5 -88t-277 -238.5t-148.5 -330.5q-13 -65 -13 -132q0 -228 145.5 -377t377.5 -149q109 0 219.5 38t204.5 105l83 430h-480l16 83h575l-108 -555q-113 -87 -248.5 -136t-277.5 -49q-269 0 -436.5 166t-167.5 424q0 74 15 152q40 206 169 376
t316.5 267.5t390.5 97.5q257 0 427 -156l-64 -72q-161 144 -379 144zM516 -481h-88l230 350h97z" />
    <glyph glyph-name="gcommaaccent" unicode="&#x123;" horiz-adv-x="1296" 
d="M997 299l90 463q-46 112 -137.5 176t-221.5 64q-194 0 -354.5 -140t-197.5 -332q-9 -48 -9 -92q0 -162 104.5 -271t273.5 -109q130 0 246 64t206 177zM1110 879l36 182h92l-209 -1073q-40 -207 -199 -335t-380 -128q-141 0 -245.5 56t-169.5 151l74 63q56 -87 146 -138
t210 -51q177 0 307.5 104.5t163.5 273.5l39 198q-92 -97 -211 -152t-246 -55q-201 0 -323 128t-122 319q0 55 10 108q29 148 123 275t234.5 203.5t293.5 76.5q127 0 224.5 -54.5t151.5 -151.5zM927 1550h88l-231 -350h-96z" />
    <glyph glyph-name="Hcircumflex" unicode="&#x124;" horiz-adv-x="1398" 
d="M86 0l279 1434h94l-131 -672h833l131 672h94l-278 -1434h-94l131 679h-834l-131 -679h-94zM997 1886l234 -335h-96l-186 264l-287 -264h-97l365 335h67z" />
    <glyph glyph-name="hcircumflex" unicode="&#x125;" horiz-adv-x="1211" 
d="M288 702l-136 -702h-93l290 1495h92l-131 -676q204 266 452 266q155 0 248.5 -91t93.5 -236q0 -47 -8 -87l-130 -671h-93l129 665q8 38 8 69q0 118 -76 193t-203 75q-227 0 -443 -300zM518 1948l234 -335h-97l-185 263l-288 -263h-96l365 335h67z" />
    <glyph glyph-name="Hbar" unicode="&#x126;" horiz-adv-x="1427" 
d="M100 0l215 1107h-138l14 76h139l49 251h94l-49 -251h833l50 251h94l-49 -251h138l-14 -76h-139l-215 -1107h-94l131 679h-833l-131 -679h-95zM342 762h834l67 345h-833z" />
    <glyph glyph-name="hbar" unicode="&#x127;" horiz-adv-x="1266" 
d="M179 1229l15 75h174l36 191h93l-37 -191h401l-14 -75h-402l-79 -410q204 266 451 266q155 0 248.5 -91t93.5 -236q0 -47 -8 -87l-130 -671h-92l129 665q7 34 7 69q0 118 -76 193t-203 75q-227 0 -443 -300l-136 -702h-92l238 1229h-174z" />
    <glyph glyph-name="Itilde" unicode="&#x128;" horiz-adv-x="571" 
d="M415 1434h94l-279 -1434h-94zM500 1644l-21 26q-19 25 -31 38.5t-31 25t-39 11.5q-74 0 -133 -149l-77 17q84 208 217 208q76 0 138 -80l24 -31q26 -35 48.5 -53t50.5 -18q74 0 133 149l77 -16q-84 -208 -218 -208q-77 0 -138 80z" />
    <glyph glyph-name="itilde" unicode="&#x129;" horiz-adv-x="523" 
d="M113 0l205 1061h93l-206 -1061h-92zM412 1312l-21 26q-19 25 -31 38.5t-31 25t-39 11.5q-74 0 -133 -148l-77 16q84 208 217 208q76 0 138 -80l24 -31q53 -70 99 -70q74 0 133 148l77 -16q-84 -208 -218 -208q-77 0 -138 80z" />
    <glyph glyph-name="Imacron" unicode="&#x12a;" horiz-adv-x="571" 
d="M415 1434h94l-279 -1434h-94zM229 1662l15 76h553l-15 -76h-553z" />
    <glyph glyph-name="imacron" unicode="&#x12b;" horiz-adv-x="523" 
d="M113 0l205 1061h93l-206 -1061h-92zM141 1330l15 76h553l-15 -76h-553z" />
    <glyph glyph-name="Ibreve" unicode="&#x12c;" horiz-adv-x="571" 
d="M415 1434h94l-279 -1434h-94zM480 1531q-116 0 -184.5 70.5t-68.5 182.5q0 29 4 53h86q-3 -23 -3 -46q0 -84 47 -135t134 -51q98 0 170 65.5t97 166.5h86q-32 -132 -135 -219t-233 -87z" />
    <glyph glyph-name="ibreve" unicode="&#x12d;" horiz-adv-x="523" 
d="M113 0l205 1061h93l-206 -1061h-92zM392 1199q-116 0 -184.5 70.5t-68.5 182.5q0 29 4 53h86q-3 -23 -3 -46q0 -84 47 -135t134 -51q98 0 170 65.5t97 166.5h86q-32 -132 -135 -219t-233 -87z" />
    <glyph glyph-name="Iogonek" unicode="&#x12e;" horiz-adv-x="571" 
d="M147 0h-11l279 1434h94l-279 -1434q-119 -83 -178.5 -140t-71.5 -121q-4 -20 -4 -30q0 -50 31 -80.5t82 -30.5q68 0 130 40l11 -60q-75 -47 -164 -47q-75 0 -122 45.5t-47 116.5q0 22 4 39q15 77 77.5 139t168.5 129z" />
    <glyph glyph-name="iogonek" unicode="&#x12f;" horiz-adv-x="523" 
d="M113 0l205 1061h93l-206 -1061q-120 -83 -179.5 -140t-71.5 -121q-3 -15 -3 -30q0 -50 30.5 -80.5t81.5 -30.5q69 0 131 40l11 -60q-75 -47 -165 -47q-75 0 -121.5 45t-46.5 115q0 22 4 41q15 77 77.5 139t168.5 129h-9zM351 1380q8 30 33.5 49.5t55.5 19.5q29 0 46 -16
t17 -44q0 -12 -2 -21q-7 -32 -33 -52t-57 -20q-28 0 -45.5 17t-17.5 44q0 13 3 23z" />
    <glyph glyph-name="Idotaccent" unicode="&#x130;" horiz-adv-x="571" 
d="M415 1434h94l-279 -1434h-94zM438 1709q8 32 33.5 52t56.5 20q29 0 46.5 -17.5t17.5 -44.5q0 -13 -3 -22q-9 -29 -34 -49.5t-56 -20.5q-28 0 -46 17.5t-18 43.5q0 10 3 21z" />
    <glyph glyph-name="dotlessi" unicode="&#x131;" horiz-adv-x="523" 
d="M113 0l205 1061h93l-206 -1061h-92z" />
    <glyph glyph-name="IJ" unicode="&#x132;" horiz-adv-x="1464" 
d="M415 1434h94l-279 -1434h-94zM1177 412l198 1022h94l-198 -1022q-42 -216 -164 -326.5t-307 -110.5q-72 0 -144.5 19t-123.5 51l49 83q44 -31 108.5 -50t122.5 -19q141 0 236 89.5t129 263.5z" />
    <glyph glyph-name="ij" unicode="&#x133;" horiz-adv-x="1046" 
d="M113 0l205 1061h93l-206 -1061h-92zM351 1380q8 30 33.5 49.5t55.5 19.5q29 0 46 -16t17 -44q0 -12 -2 -21q-7 -32 -33 -52t-57 -20q-28 0 -45.5 17t-17.5 44q0 13 3 23zM597 -200l245 1261h92l-245 -1260q-27 -136 -107.5 -206t-196.5 -70q-46 0 -75 4l16 81
q29 -3 68 -3q76 0 130 48.5t73 144.5zM874 1380q8 30 34 49.5t56 19.5q29 0 45.5 -16t16.5 -44q0 -12 -2 -21q-7 -32 -33 -52t-57 -20q-28 0 -45.5 17t-17.5 44q0 13 3 23z" />
    <glyph glyph-name="Jcircumflex" unicode="&#x134;" horiz-adv-x="903" 
d="M615 412l199 1022h94l-198 -1022q-42 -216 -164 -326.5t-307 -110.5q-72 0 -144.5 19t-123.5 51l48 83q44 -31 109 -50t123 -19q141 0 235.5 89.5t128.5 263.5zM982 1886l233 -335h-96l-185 264l-288 -264h-96l364 335h68z" />
    <glyph glyph-name="jcircumflex" unicode="&#x135;" horiz-adv-x="523" 
d="M74 -200l244 1261h93l-245 -1260q-27 -136 -107.5 -206t-196.5 -70q-46 0 -75 4l15 81q28 -3 69 -3q76 0 130 48.5t73 144.5zM495 1554l233 -334h-96l-186 263l-287 -263h-97l365 334h68z" />
    <glyph glyph-name="Kcommaaccent" unicode="&#x136;" horiz-adv-x="1200" 
d="M459 1434l-131 -672h195l632 672h112l-668 -712l471 -722h-114l-446 679h-199l-131 -679h-94l279 1434h94zM334 -481h-88l230 350h96z" />
    <glyph glyph-name="kcommaaccent" unicode="&#x137;" horiz-adv-x="1031" 
d="M792 0l-341 549h-193l-106 -549h-93l290 1495h92l-168 -865h195l472 431h115l-516 -471l365 -590h-112zM230 -481h-88l231 350h96z" />
    <glyph glyph-name="kgreenlandic" unicode="&#x138;" horiz-adv-x="1031" 
d="M792 0l-345 534h-192l-103 -534h-93l206 1061h92l-87 -447h194l476 447h115l-518 -487l367 -574h-112z" />
    <glyph glyph-name="Lacute" unicode="&#x139;" horiz-adv-x="1054" 
d="M86 0l279 1434h94l-263 -1351h709l-15 -83h-804zM388 1551l351 335h103l-354 -335h-100z" />
    <glyph glyph-name="lacute" unicode="&#x13a;" horiz-adv-x="522" 
d="M113 0l289 1495h93l-290 -1495h-92zM349 1613l351 335h103l-353 -335h-101z" />
    <glyph glyph-name="Lcommaaccent" unicode="&#x13b;" horiz-adv-x="1054" 
d="M86 0l279 1434h94l-263 -1351h709l-15 -83h-804zM296 -481h-88l230 350h97z" />
    <glyph glyph-name="lcommaaccent" unicode="&#x13c;" horiz-adv-x="522" 
d="M113 0l289 1495h93l-290 -1495h-92zM-37 -481h-88l230 350h97z" />
    <glyph glyph-name="Lcaron" unicode="&#x13d;" horiz-adv-x="1054" 
d="M86 0l279 1434h94l-263 -1351h709l-15 -83h-804zM820 1386q9 31 35 51.5t58 20.5q29 0 47.5 -17t18.5 -45q0 -7 -2 -19q-4 -16 -13 -32l-164 -260h-71l135 217q-22 5 -34.5 21.5t-12.5 39.5q0 14 3 23z" />
    <glyph glyph-name="lcaron" unicode="&#x13e;" horiz-adv-x="768" 
d="M113 0l289 1495h93l-290 -1495h-92zM725 1448q9 31 35 51.5t58 20.5q29 0 47.5 -17.5t18.5 -45.5q0 -6 -2 -18q-3 -15 -14 -33l-163 -259h-71l135 216q-22 5 -34.5 21.5t-12.5 39.5q0 15 3 24z" />
    <glyph glyph-name="Ldot" unicode="&#x13f;" horiz-adv-x="1054" 
d="M86 0l279 1434h94l-263 -1351h709l-15 -83h-804zM695 775q8 32 33.5 52t56.5 20q29 0 46.5 -17.5t17.5 -44.5q0 -13 -3 -22q-9 -29 -34 -49.5t-56 -20.5q-28 0 -46 17.5t-18 43.5q0 10 3 21z" />
    <glyph glyph-name="ldot" unicode="&#x140;" horiz-adv-x="775" 
d="M113 0l289 1495h93l-290 -1495h-92zM606 775q8 32 33.5 52t56.5 20q29 0 46.5 -17.5t17.5 -44.5q0 -13 -3 -22q-9 -29 -34 -49.5t-56 -20.5q-28 0 -46 17.5t-18 43.5q0 10 3 21z" />
    <glyph glyph-name="Lslash" unicode="&#x141;" horiz-adv-x="1089" 
d="M494 1434l-136 -692l488 228l-17 -84l-487 -228l-112 -575h710l-15 -83h-804l118 609l-174 -81l16 84l174 81l144 741h95z" />
    <glyph glyph-name="lslash" unicode="&#x142;" horiz-adv-x="599" 
d="M151 0l138 716l-232 -106l17 81l231 106l135 698h92l-125 -651l232 106l-15 -81l-234 -106l-147 -763h-92z" />
    <glyph glyph-name="Nacute" unicode="&#x143;" horiz-adv-x="1414" 
d="M86 0l279 1434h89l609 -1268l247 1268h92l-279 -1434h-89l-610 1268l-246 -1268h-92zM793 1551l351 335h102l-353 -335h-100z" />
    <glyph glyph-name="nacute" unicode="&#x144;" horiz-adv-x="1211" 
d="M288 702l-136 -702h-93l206 1061h92l-47 -242q204 266 452 266q155 0 248.5 -91t93.5 -236q0 -47 -8 -87l-130 -671h-93l129 665q8 38 8 69q0 118 -76 193t-203 75q-227 0 -443 -300zM636 1220l351 334h103l-354 -334h-100z" />
    <glyph glyph-name="Ncommaaccent" unicode="&#x145;" horiz-adv-x="1414" 
d="M86 0l279 1434h89l609 -1268l247 1268h92l-279 -1434h-89l-610 1268l-246 -1268h-92zM418 -481h-88l230 350h96z" />
    <glyph glyph-name="ncommaaccent" unicode="&#x146;" horiz-adv-x="1211" 
d="M288 702l-136 -702h-93l206 1061h92l-47 -242q204 266 452 266q155 0 248.5 -91t93.5 -236q0 -47 -8 -87l-130 -671h-93l129 665q8 38 8 69q0 118 -76 193t-203 75q-227 0 -443 -300zM324 -481h-88l230 350h96z" />
    <glyph glyph-name="Ncaron" unicode="&#x147;" horiz-adv-x="1414" 
d="M86 0l279 1434h89l609 -1268l247 1268h92l-279 -1434h-89l-610 1268l-246 -1268h-92zM1304 1886l-365 -335h-68l-233 335h96l186 -263l287 263h97z" />
    <glyph glyph-name="ncaron" unicode="&#x148;" horiz-adv-x="1211" 
d="M288 702l-136 -702h-93l206 1061h92l-47 -242q204 266 452 266q155 0 248.5 -91t93.5 -236q0 -47 -8 -87l-130 -671h-93l129 665q8 38 8 69q0 118 -76 193t-203 75q-227 0 -443 -300zM1143 1534l-365 -335h-67l-234 335h96l186 -263l288 263h96z" />
    <glyph glyph-name="napostrophe" unicode="&#x149;" horiz-adv-x="1399" 
d="M476 702l-136 -702h-92l206 1061h92l-47 -242q204 266 451 266q155 0 248.5 -91t93.5 -236q0 -47 -8 -87l-130 -671h-92l129 665q7 34 7 69q0 118 -76 193t-202 75q-228 0 -444 -300zM274 1448q9 31 35.5 51.5t58.5 20.5q29 0 47 -17.5t18 -45.5q0 -6 -2 -18
q-4 -18 -13 -33l-164 -259h-71l135 216q-22 5 -34.5 21.5t-12.5 39.5q0 15 3 24z" />
    <glyph glyph-name="Eng" unicode="&#x14a;" horiz-adv-x="1414" 
d="M1402 1434l-301 -1550q-33 -172 -139.5 -265.5t-273.5 -93.5q-53 0 -93 8l15 81q36 -7 95 -7q249 0 304 279l22 119l-607 1263l-246 -1268h-92l279 1434h89l609 -1268l247 1268h92z" />
    <glyph glyph-name="eng" unicode="&#x14b;" horiz-adv-x="1211" 
d="M851 -114l151 779q8 38 8 69q0 118 -76 193t-203 75q-227 0 -443 -300l-136 -702h-93l206 1061h92l-47 -242q204 266 452 266q155 0 248.5 -91t93.5 -236q0 -47 -8 -87l-153 -787q-34 -174 -137 -266.5t-270 -92.5q-47 0 -99 8l16 81q36 -7 94 -7q249 0 304 279z" />
    <glyph glyph-name="Omacron" unicode="&#x14c;" horiz-adv-x="1640" 
d="M729 59q176 0 340 88t277.5 239t148.5 331q13 65 13 132q0 227 -146 376t-378 149q-176 0 -339.5 -88t-277 -238.5t-148.5 -330.5q-13 -65 -13 -132q0 -228 145.5 -377t377.5 -149zM1000 1458q269 0 437 -166t168 -425q0 -73 -15 -150q-30 -154 -114 -291.5
t-200.5 -236.5t-263.5 -156.5t-299 -57.5q-269 0 -436.5 166t-167.5 424q0 74 15 152q40 206 169 376t316.5 267.5t390.5 97.5zM764 1662l14 76h553l-14 -76h-553z" />
    <glyph glyph-name="omacron" unicode="&#x14d;" horiz-adv-x="1271" 
d="M545 58q96 0 189.5 38.5t166.5 102.5t125 150.5t70 180.5q9 48 9 93q0 162 -104 270.5t-273 108.5q-194 0 -354.5 -140t-197.5 -332q-9 -48 -9 -92q0 -162 104.5 -271t273.5 -109zM744 1085q206 0 330.5 -127t124.5 -319q0 -56 -10 -109q-22 -111 -83.5 -213t-149 -177.5
t-199.5 -120t-229 -44.5q-206 0 -330.5 127t-124.5 320q0 55 10 108q22 111 83.5 213t149 177.5t199.5 120t229 44.5zM515 1330l14 76h553l-14 -76h-553z" />
    <glyph glyph-name="Obreve" unicode="&#x14e;" horiz-adv-x="1640" 
d="M729 59q176 0 340 88t277.5 239t148.5 331q13 65 13 132q0 227 -146 376t-378 149q-176 0 -339.5 -88t-277 -238.5t-148.5 -330.5q-13 -65 -13 -132q0 -228 145.5 -377t377.5 -149zM1000 1458q269 0 437 -166t168 -425q0 -73 -15 -150q-30 -154 -114 -291.5
t-200.5 -236.5t-263.5 -156.5t-299 -57.5q-269 0 -436.5 166t-167.5 424q0 74 15 152q40 206 169 376t316.5 267.5t390.5 97.5zM1015 1531q-116 0 -184.5 70.5t-68.5 182.5q0 29 4 53h86q-3 -22 -3 -46q0 -84 46.5 -135t133.5 -51q98 0 170 65.5t97 166.5h86
q-32 -132 -134.5 -219t-232.5 -87z" />
    <glyph glyph-name="obreve" unicode="&#x14f;" horiz-adv-x="1271" 
d="M545 58q96 0 189.5 38.5t166.5 102.5t125 150.5t70 180.5q9 48 9 93q0 162 -104 270.5t-273 108.5q-194 0 -354.5 -140t-197.5 -332q-9 -48 -9 -92q0 -162 104.5 -271t273.5 -109zM744 1085q206 0 330.5 -127t124.5 -319q0 -56 -10 -109q-22 -111 -83.5 -213t-149 -177.5
t-199.5 -120t-229 -44.5q-206 0 -330.5 127t-124.5 320q0 55 10 108q22 111 83.5 213t149 177.5t199.5 120t229 44.5zM766 1199q-116 0 -184.5 70.5t-68.5 182.5q0 29 4 53h86q-3 -23 -3 -46q0 -84 46.5 -135t133.5 -51q98 0 170.5 65.5t97.5 166.5h86q-32 -132 -135 -219
t-233 -87z" />
    <glyph glyph-name="Ohungarumlaut" unicode="&#x150;" horiz-adv-x="1640" 
d="M729 59q176 0 340 88t277.5 239t148.5 331q13 65 13 132q0 227 -146 376t-378 149q-176 0 -339.5 -88t-277 -238.5t-148.5 -330.5q-13 -65 -13 -132q0 -228 145.5 -377t377.5 -149zM1000 1458q269 0 437 -166t168 -425q0 -73 -15 -150q-30 -154 -114 -291.5
t-200.5 -236.5t-263.5 -156.5t-299 -57.5q-269 0 -436.5 166t-167.5 424q0 74 15 152q40 206 169 376t316.5 267.5t390.5 97.5zM775 1551l350 335h103l-354 -335h-99zM1071 1551l350 335h103l-354 -335h-99z" />
    <glyph glyph-name="ohungarumlaut" unicode="&#x151;" horiz-adv-x="1271" 
d="M545 58q96 0 189.5 38.5t166.5 102.5t125 150.5t70 180.5q9 48 9 93q0 162 -104 270.5t-273 108.5q-194 0 -354.5 -140t-197.5 -332q-9 -48 -9 -92q0 -162 104.5 -271t273.5 -109zM744 1085q206 0 330.5 -127t124.5 -319q0 -56 -10 -109q-22 -111 -83.5 -213t-149 -177.5
t-199.5 -120t-229 -44.5q-206 0 -330.5 127t-124.5 320q0 55 10 108q22 111 83.5 213t149 177.5t199.5 120t229 44.5zM527 1220l351 334h102l-353 -334h-100zM823 1220l351 334h102l-353 -334h-100z" />
    <glyph glyph-name="OE" unicode="&#x152;" horiz-adv-x="1818" 
d="M791 84h9l247 1266h-10q-192 0 -368 -83.5t-296 -229t-154 -320.5q-11 -55 -11 -117q0 -225 162.5 -370.5t420.5 -145.5zM1585 0h-810q-194 0 -345.5 75.5t-235 209t-83.5 301.5q0 66 13 131q38 198 175 363t337 259.5t418 94.5h791l-16 -83h-688l-115 -589h632l-17 -83
h-631l-116 -596h707z" />
    <glyph glyph-name="oe" unicode="&#x153;" horiz-adv-x="2160" 
d="M720 1085q164 0 276.5 -97.5t137.5 -253.5q84 155 232 253t315 98q189 0 301.5 -116t112.5 -297q0 -52 -11 -112q-2 -11 -17 -53h-930q-7 -49 -7 -81q0 -161 97.5 -265.5t264.5 -104.5q208 0 393 183l52 -61q-95 -95 -213.5 -149t-244.5 -54q-176 0 -289 97t-137 253
q-85 -156 -235 -253t-314 -97q-192 0 -312 124.5t-120 316.5q0 59 11 114q45 232 230 393.5t407 161.5zM520 58q183 0 336 137t191 335q10 50 10 101q0 162 -98 266.5t-256 104.5q-90 0 -178 -37t-158 -100t-121 -150.5t-70 -184.5q-10 -50 -10 -100q0 -162 98 -267
t256 -105zM1665 1005q-168 0 -313.5 -122.5t-196.5 -296.5h838q4 31 4 66q0 157 -90 255t-242 98z" />
    <glyph glyph-name="Racute" unicode="&#x154;" horiz-adv-x="1201" 
d="M895 0l-306 582h-296l-113 -582h-94l279 1434h407q192 0 302.5 -90t110.5 -246q0 -42 -9 -90q-34 -173 -164.5 -285.5t-319.5 -135.5l309 -587h-106zM1080 1008q7 36 7 71q0 126 -88.5 199t-244.5 73h-312l-133 -686h312q179 0 304 93.5t155 249.5zM662 1551l351 335h102
l-353 -335h-100z" />
    <glyph glyph-name="racute" unicode="&#x155;" horiz-adv-x="776" 
d="M702 1002q-95 0 -208.5 -91.5t-209.5 -227.5l-132 -683h-93l206 1061h92l-49 -252q91 115 202.5 195.5t218.5 80.5q53 0 101 -20l-25 -84q-53 21 -103 21zM397 1220l352 334h102l-353 -334h-101z" />
    <glyph glyph-name="Rcommaaccent" unicode="&#x156;" horiz-adv-x="1201" 
d="M895 0l-306 582h-296l-113 -582h-94l279 1434h407q192 0 302.5 -90t110.5 -246q0 -42 -9 -90q-34 -173 -164.5 -285.5t-319.5 -135.5l309 -587h-106zM1080 1008q7 36 7 71q0 126 -88.5 199t-244.5 73h-312l-133 -686h312q179 0 304 93.5t155 249.5zM308 -481h-88l231 350
h96z" />
    <glyph glyph-name="rcommaaccent" unicode="&#x157;" horiz-adv-x="776" 
d="M702 1002q-95 0 -208.5 -91.5t-209.5 -227.5l-132 -683h-93l206 1061h92l-49 -252q91 115 202.5 195.5t218.5 80.5q53 0 101 -20l-25 -84q-53 21 -103 21zM-90 -481h-88l230 350h96z" />
    <glyph glyph-name="Rcaron" unicode="&#x158;" horiz-adv-x="1201" 
d="M895 0l-306 582h-296l-113 -582h-94l279 1434h407q192 0 302.5 -90t110.5 -246q0 -42 -9 -90q-34 -173 -164.5 -285.5t-319.5 -135.5l309 -587h-106zM1080 1008q7 36 7 71q0 126 -88.5 199t-244.5 73h-312l-133 -686h312q179 0 304 93.5t155 249.5zM1152 1886l-365 -335
h-67l-234 335h97l185 -263l288 263h96z" />
    <glyph glyph-name="rcaron" unicode="&#x159;" horiz-adv-x="776" 
d="M702 1002q-95 0 -208.5 -91.5t-209.5 -227.5l-132 -683h-93l206 1061h92l-49 -252q91 115 202.5 195.5t218.5 80.5q53 0 101 -20l-25 -84q-53 21 -103 21zM912 1534l-364 -335h-68l-233 335h96l185 -263l288 263h96z" />
    <glyph glyph-name="Sacute" unicode="&#x15a;" horiz-adv-x="1179" 
d="M56 204l76 66q57 -93 155 -152t216 -59q170 0 296.5 84t152.5 216q6 28 6 56q0 212 -336 284q-181 39 -276.5 122.5t-95.5 204.5q0 31 6 64q32 160 172 264t330 104q242 0 391 -182l-72 -70q-135 168 -328 168q-153 0 -263 -78.5t-133 -198.5q-5 -27 -5 -48
q0 -99 85 -167t241 -103q382 -86 382 -340q0 -34 -8 -77q-33 -168 -187.5 -277.5t-367.5 -109.5q-143 0 -259 63.5t-178 165.5zM667 1551l351 335h102l-353 -335h-100z" />
    <glyph glyph-name="sacute" unicode="&#x15b;" horiz-adv-x="934" 
d="M9 152l66 66q44 -75 123.5 -118.5t182.5 -43.5q130 0 220 60t109 156q3 18 3 35q0 75 -67 128t-190 77q-145 28 -218.5 91t-73.5 153q0 20 5 47q23 119 137 200.5t267 81.5q197 0 309 -137l-64 -65q-101 122 -256 122q-114 0 -199 -59t-102 -144q-3 -14 -3 -28
q0 -65 62 -113t180 -72q149 -29 228 -95t79 -167q0 -32 -5 -56q-25 -130 -141.5 -213t-290.5 -83q-125 0 -216.5 47.5t-144.5 129.5zM460 1220l351 334h102l-353 -334h-100z" />
    <glyph glyph-name="Scircumflex" unicode="&#x15c;" horiz-adv-x="1179" 
d="M56 204l76 66q57 -93 155 -152t216 -59q170 0 296.5 84t152.5 216q6 28 6 56q0 212 -336 284q-181 39 -276.5 122.5t-95.5 204.5q0 31 6 64q32 160 172 264t330 104q242 0 391 -182l-72 -70q-135 168 -328 168q-153 0 -263 -78.5t-133 -198.5q-5 -27 -5 -48
q0 -99 85 -167t241 -103q382 -86 382 -340q0 -34 -8 -77q-33 -168 -187.5 -277.5t-367.5 -109.5q-143 0 -259 63.5t-178 165.5zM879 1886l233 -335h-96l-186 264l-287 -264h-97l365 335h68z" />
    <glyph glyph-name="scircumflex" unicode="&#x15d;" horiz-adv-x="934" 
d="M9 152l66 66q44 -75 123.5 -118.5t182.5 -43.5q130 0 220 60t109 156q3 18 3 35q0 75 -67 128t-190 77q-145 28 -218.5 91t-73.5 153q0 20 5 47q23 119 137 200.5t267 81.5q197 0 309 -137l-64 -65q-101 122 -256 122q-114 0 -199 -59t-102 -144q-3 -14 -3 -28
q0 -65 62 -113t180 -72q149 -29 228 -95t79 -167q0 -32 -5 -56q-25 -130 -141.5 -213t-290.5 -83q-125 0 -216.5 47.5t-144.5 129.5zM686 1554l234 -334h-97l-185 263l-288 -263h-96l364 334h68z" />
    <glyph glyph-name="Scedilla" unicode="&#x15e;" horiz-adv-x="1179" 
d="M421 -199q-34 0 -59 -5l-15 24l120 156q-135 6 -244 68.5t-167 159.5l76 66q57 -93 155 -152t216 -59q170 0 296.5 84t152.5 216q6 28 6 56q0 212 -336 284q-181 39 -276.5 122.5t-95.5 204.5q0 31 6 64q32 160 172 264t330 104q242 0 391 -182l-72 -70
q-135 168 -328 168q-153 0 -263 -78.5t-133 -198.5q-5 -27 -5 -48q0 -99 85 -167t241 -103q382 -86 382 -340q0 -34 -8 -77q-31 -157 -170 -264.5t-333 -120.5l-92 -117q87 -4 136 -49.5t49 -112.5q0 -18 -3 -34q-16 -84 -96 -140t-181 -56q-95 0 -157 56l47 56
q49 -47 121 -47q69 0 123 38t65 94q2 14 2 23q0 48 -38 80.5t-100 32.5z" />
    <glyph glyph-name="scedilla" unicode="&#x15f;" horiz-adv-x="934" 
d="M294 -199q-33 0 -58 -5l-16 24l121 156q-115 5 -199 52t-133 124l66 66q44 -75 123.5 -118.5t182.5 -43.5q130 0 220 60t109 156q3 18 3 35q0 75 -67 128t-190 77q-145 28 -218.5 91t-73.5 153q0 20 5 47q23 119 137 200.5t267 81.5q197 0 309 -137l-64 -65
q-101 122 -256 122q-114 0 -199 -59t-102 -144q-3 -14 -3 -28q0 -65 62 -113t180 -72q149 -29 228 -95t79 -167q0 -32 -5 -56q-24 -120 -126.5 -201t-257.5 -93l-92 -117q87 -4 136 -49.5t49 -112.5q0 -18 -3 -34q-16 -84 -96 -140t-181 -56q-95 0 -157 56l47 56
q49 -47 121 -47q69 0 123 38t65 94q2 14 2 23q0 48 -38 80.5t-100 32.5z" />
    <glyph glyph-name="Scaron" unicode="&#x160;" horiz-adv-x="1179" 
d="M56 204l76 66q57 -93 155 -152t216 -59q170 0 296.5 84t152.5 216q6 28 6 56q0 212 -336 284q-181 39 -276.5 122.5t-95.5 204.5q0 31 6 64q32 160 172 264t330 104q242 0 391 -182l-72 -70q-135 168 -328 168q-153 0 -263 -78.5t-133 -198.5q-5 -27 -5 -48
q0 -99 85 -167t241 -103q382 -86 382 -340q0 -34 -8 -77q-33 -168 -187.5 -277.5t-367.5 -109.5q-143 0 -259 63.5t-178 165.5zM1178 1886l-365 -335h-68l-233 335h96l186 -263l287 263h97z" />
    <glyph glyph-name="scaron" unicode="&#x161;" horiz-adv-x="934" 
d="M9 152l66 66q44 -75 123.5 -118.5t182.5 -43.5q130 0 220 60t109 156q3 18 3 35q0 75 -67 128t-190 77q-145 28 -218.5 91t-73.5 153q0 20 5 47q23 119 137 200.5t267 81.5q197 0 309 -137l-64 -65q-101 122 -256 122q-114 0 -199 -59t-102 -144q-3 -14 -3 -28
q0 -65 62 -113t180 -72q149 -29 228 -95t79 -167q0 -32 -5 -56q-25 -130 -141.5 -213t-290.5 -83q-125 0 -216.5 47.5t-144.5 129.5zM987 1534l-364 -335h-68l-233 335h96l185 -263l288 263h96z" />
    <glyph glyph-name="Tcommaaccent" unicode="&#x162;" horiz-adv-x="1100" 
d="M401 0l263 1351h-437l17 83h966l-16 -83h-436l-262 -1351l-113 -140q87 -4 136 -49.5t49 -112.5q0 -18 -3 -34q-16 -84 -95.5 -140t-180.5 -56q-96 0 -158 56l47 56q49 -47 121 -47q69 0 123 38t65 94q2 10 2 23q0 48 -38 80.5t-100 32.5q-33 0 -58 -5l-15 24l140 180
h-17z" />
    <glyph glyph-name="tcommaaccent" unicode="&#x163;" horiz-adv-x="763" 
d="M236 -199q-34 0 -59 -5l-15 24l150 195q-94 57 -94 193q0 43 11 103l129 668h-222l17 82h222l58 299l93 8l-59 -307h333l-17 -82h-332l-129 -667q-10 -50 -10 -82q0 -173 203 -173q55 0 103 8l-16 -81q-56 -9 -107 -9q-67 0 -123 16l-105 -131q87 -4 136.5 -49.5
t49.5 -112.5q0 -18 -3 -34q-16 -84 -96 -140t-181 -56q-96 0 -158 56l47 56q49 -47 121 -47q69 0 123.5 38t65.5 94q2 14 2 23q0 48 -38 80.5t-100 32.5z" />
    <glyph glyph-name="Tcaron" unicode="&#x164;" horiz-adv-x="1101" 
d="M401 0l263 1351h-437l17 83h966l-16 -83h-436l-262 -1351h-95zM1147 1886l-365 -335h-67l-234 335h97l185 -263l288 263h96z" />
    <glyph glyph-name="tcaron" unicode="&#x165;" horiz-adv-x="1042" 
d="M451 979l-129 -667q-10 -50 -10 -82q0 -173 203 -173q55 0 103 8l-16 -81q-56 -9 -107 -9q-276 0 -276 235q0 50 10 101l129 668h-222l17 82h222l58 299l93 8l-59 -307h333l-17 -82h-332zM999 1448q9 31 35.5 51.5t58.5 20.5q29 0 47 -17.5t18 -45.5q0 -6 -2 -18
q-4 -18 -13 -33l-164 -259h-71l135 216q-22 5 -34.5 21.5t-12.5 39.5q0 15 3 24z" />
    <glyph glyph-name="Tbar" unicode="&#x166;" horiz-adv-x="1100" 
d="M401 0l131 678h-301l16 77h301l116 596h-437l17 83h966l-16 -83h-436l-116 -596h301l-15 -77h-301l-131 -678h-95z" />
    <glyph glyph-name="tbar" unicode="&#x167;" horiz-adv-x="763" 
d="M451 979l-76 -393h284l-14 -73h-285l-38 -201q-10 -50 -10 -82q0 -173 203 -173q55 0 103 8l-16 -81q-56 -9 -107 -9q-276 0 -276 235q0 48 10 101l39 202h-191l14 73h192l75 393h-222l17 82h222l58 299l93 8l-59 -307h333l-17 -82h-332z" />
    <glyph glyph-name="Utilde" unicode="&#x168;" horiz-adv-x="1339" 
d="M1346 1434l-185 -948q-44 -227 -211.5 -368t-387.5 -141q-189 0 -300.5 106t-111.5 286q0 55 12 117l184 948h94l-186 -955q-9 -49 -9 -94q0 -147 90.5 -235.5t243.5 -88.5q178 0 314 116.5t172 301.5l186 955h95zM884 1644l-21 26q-19 25 -31 38.5t-31 25t-39 11.5
q-74 0 -133 -149l-77 17q84 208 217 208q76 0 138 -80l24 -31q26 -35 48.5 -53t50.5 -18q74 0 133 149l77 -16q-84 -208 -218 -208q-77 0 -138 80z" />
    <glyph glyph-name="utilde" unicode="&#x169;" horiz-adv-x="1211" 
d="M924 357l137 704h92l-206 -1061h-92l46 241q-204 -266 -449 -266q-155 0 -249 91.5t-94 236.5q0 47 8 87l130 671h92l-129 -665q-7 -34 -7 -69q0 -118 76 -193.5t203 -75.5q224 0 442 299zM746 1312l-20 26q-19 25 -31 38.5t-31 25t-39 11.5q-74 0 -133 -148l-77 16
q84 208 217 208q76 0 138 -80l24 -31q53 -70 99 -70q74 0 133 148l77 -16q-84 -208 -218 -208q-78 0 -139 80z" />
    <glyph glyph-name="Umacron" unicode="&#x16a;" horiz-adv-x="1339" 
d="M1346 1434l-185 -948q-44 -227 -211.5 -368t-387.5 -141q-189 0 -300.5 106t-111.5 286q0 55 12 117l184 948h94l-186 -955q-9 -49 -9 -94q0 -147 90.5 -235.5t243.5 -88.5q178 0 314 116.5t172 301.5l186 955h95zM613 1662l15 76h553l-15 -76h-553z" />
    <glyph glyph-name="umacron" unicode="&#x16b;" horiz-adv-x="1211" 
d="M924 357l137 704h92l-206 -1061h-92l46 241q-204 -266 -449 -266q-155 0 -249 91.5t-94 236.5q0 47 8 87l130 671h92l-129 -665q-7 -34 -7 -69q0 -118 76 -193.5t203 -75.5q224 0 442 299zM475 1330l14 76h553l-14 -76h-553z" />
    <glyph glyph-name="Ubreve" unicode="&#x16c;" horiz-adv-x="1339" 
d="M1346 1434l-185 -948q-44 -227 -211.5 -368t-387.5 -141q-189 0 -300.5 106t-111.5 286q0 55 12 117l184 948h94l-186 -955q-9 -49 -9 -94q0 -147 90.5 -235.5t243.5 -88.5q178 0 314 116.5t172 301.5l186 955h95zM864 1531q-116 0 -184.5 70.5t-68.5 182.5q0 29 4 53h86
q-3 -23 -3 -46q0 -84 47 -135t134 -51q98 0 170 65.5t97 166.5h86q-32 -132 -135 -219t-233 -87z" />
    <glyph glyph-name="ubreve" unicode="&#x16d;" horiz-adv-x="1211" 
d="M924 357l137 704h92l-206 -1061h-92l46 241q-204 -266 -449 -266q-155 0 -249 91.5t-94 236.5q0 47 8 87l130 671h92l-129 -665q-7 -34 -7 -69q0 -118 76 -193.5t203 -75.5q224 0 442 299zM726 1199q-116 0 -184.5 70.5t-68.5 182.5q0 29 4 53h86q-3 -23 -3 -46
q0 -84 46.5 -135t133.5 -51q98 0 170.5 65.5t97.5 166.5h86q-32 -132 -135 -219t-233 -87z" />
    <glyph glyph-name="Uring" unicode="&#x16e;" horiz-adv-x="1339" 
d="M1346 1434l-185 -948q-44 -227 -211.5 -368t-387.5 -141q-189 0 -300.5 106t-111.5 286q0 55 12 117l184 948h94l-186 -955q-9 -49 -9 -94q0 -147 90.5 -235.5t243.5 -88.5q178 0 314 116.5t172 301.5l186 955h95zM770 1725q-2 -9 -2 -25q0 -46 30.5 -76.5t78.5 -30.5
q55 0 101 38.5t56 94.5q2 9 2 26q0 46 -30 76t-78 30q-55 0 -101.5 -38.5t-56.5 -94.5zM1109 1764q0 -20 -4 -39q-17 -83 -86.5 -139t-154.5 -56q-75 0 -122 44.5t-47 113.5q0 17 4 37q17 83 86.5 139.5t154.5 56.5q75 0 122 -44t47 -113z" />
    <glyph glyph-name="uring" unicode="&#x16f;" horiz-adv-x="1211" 
d="M924 357l137 704h92l-206 -1061h-92l46 241q-204 -266 -449 -266q-155 0 -249 91.5t-94 236.5q0 47 8 87l130 671h92l-129 -665q-7 -34 -7 -69q0 -118 76 -193.5t203 -75.5q224 0 442 299zM632 1394q-2 -9 -2 -26q0 -46 30 -76t78 -30q55 0 101.5 38.5t56.5 94.5
q2 9 2 25q0 46 -30 76t-78 30q-55 0 -101.5 -38t-56.5 -94zM971 1433q0 -20 -4 -39q-17 -83 -86.5 -139.5t-154.5 -56.5q-75 0 -122 44.5t-47 113.5q0 18 4 38q17 83 86 139t155 56q75 0 122 -44t47 -112z" />
    <glyph glyph-name="Uhungarumlaut" unicode="&#x170;" horiz-adv-x="1339" 
d="M1346 1434l-185 -948q-44 -227 -211.5 -368t-387.5 -141q-189 0 -300.5 106t-111.5 286q0 55 12 117l184 948h94l-186 -955q-9 -49 -9 -94q0 -147 90.5 -235.5t243.5 -88.5q178 0 314 116.5t172 301.5l186 955h95zM623 1551l350 335h102l-353 -335h-99zM919 1551l350 335
h102l-353 -335h-99z" />
    <glyph glyph-name="uhungarumlaut" unicode="&#x171;" horiz-adv-x="1211" 
d="M924 357l137 704h92l-206 -1061h-92l46 241q-204 -266 -449 -266q-155 0 -249 91.5t-94 236.5q0 47 8 87l130 671h92l-129 -665q-7 -34 -7 -69q0 -118 76 -193.5t203 -75.5q224 0 442 299zM476 1220l350 334h103l-354 -334h-99zM772 1220l350 334h103l-354 -334h-99z" />
    <glyph glyph-name="Uogonek" unicode="&#x172;" horiz-adv-x="1339" 
d="M1346 1434l-185 -948q-40 -207 -183.5 -343t-338.5 -160q-104 -73 -158 -128t-66 -116q-3 -15 -3 -30q0 -50 30.5 -80.5t81.5 -30.5q68 0 130 40l12 -60q-75 -47 -165 -47q-75 0 -122 45t-47 115q0 22 4 41q13 70 67 127.5t144 118.5q-182 4 -289.5 109.5t-107.5 281.5
q0 55 12 117l184 948h94l-186 -955q-9 -49 -9 -94q0 -147 90.5 -235.5t243.5 -88.5q178 0 314 116.5t172 301.5l186 955h95z" />
    <glyph glyph-name="uogonek" unicode="&#x173;" horiz-adv-x="1211" 
d="M864 0h-9l46 241q-204 -266 -449 -266q-155 0 -249 91.5t-94 236.5q0 47 8 87l130 671h92l-129 -665q-7 -34 -7 -69q0 -118 76 -193.5t203 -75.5q224 0 442 299l137 704h92l-206 -1061q-120 -83 -179.5 -140t-71.5 -121q-3 -15 -3 -30q0 -50 31 -80.5t82 -30.5
q68 0 130 40l11 -60q-75 -47 -165 -47q-75 0 -122 45t-47 115q0 22 4 41q15 77 77.5 139t169.5 129z" />
    <glyph glyph-name="Wcircumflex" unicode="&#x174;" horiz-adv-x="1927" 
d="M1089 1434h102l124 -1298l625 1298h101l-699 -1434h-102l-126 1303l-632 -1303h-102l-141 1434h100l120 -1298zM1262 1886l233 -335h-96l-186 264l-287 -264h-97l365 335h68z" />
    <glyph glyph-name="wcircumflex" unicode="&#x175;" horiz-adv-x="1564" 
d="M839 1061h94l110 -922l483 922h100l-562 -1061h-94l-111 923l-469 -923h-94l-151 1061h101l124 -922zM1016 1554l233 -334h-96l-185 263l-288 -263h-96l364 334h68z" />
    <glyph glyph-name="Ycircumflex" unicode="&#x176;" horiz-adv-x="1304" 
d="M346 1434l336 -752l629 752h107l-707 -846l-114 -588h-94l113 588l-377 846h107zM950 1886l234 -335h-97l-185 264l-288 -264h-96l365 335h67z" />
    <glyph glyph-name="ycircumflex" unicode="&#x177;" horiz-adv-x="1062" 
d="M88 -475l299 488l-242 1048h101l213 -928l565 928h100l-936 -1536h-100zM769 1554l233 -334h-96l-185 263l-288 -263h-96l364 334h68z" />
    <glyph glyph-name="Ydieresis" unicode="&#x178;" horiz-adv-x="1304" 
d="M346 1434l336 -752l629 752h107l-707 -846l-114 -588h-94l113 588l-377 846h107zM978 1709q8 32 33.5 52t56.5 20q29 0 46.5 -17.5t17.5 -44.5q0 -10 -4 -22q-9 -29 -34 -49.5t-56 -20.5q-28 0 -45.5 17t-17.5 44q0 10 3 21zM632 1709q8 32 33.5 52t56.5 20
q29 0 46 -17.5t17 -44.5q0 -13 -3 -22q-9 -29 -34 -49.5t-56 -20.5q-28 0 -45.5 17t-17.5 44q0 10 3 21z" />
    <glyph glyph-name="Zacute" unicode="&#x179;" horiz-adv-x="1205" 
d="M39 83l1078 1268h-801l17 83h910l-16 -83l-1079 -1268h852l-15 -83h-961zM673 1551l351 335h102l-353 -335h-100z" />
    <glyph glyph-name="zacute" unicode="&#x17a;" horiz-adv-x="1015" 
d="M3 0l15 82l841 897h-640l17 82h752l-16 -82l-840 -897h686l-15 -82h-800zM505 1220l351 334h102l-353 -334h-100z" />
    <glyph glyph-name="Zdotaccent" unicode="&#x17b;" horiz-adv-x="1205" 
d="M39 83l1078 1268h-801l17 83h910l-16 -83l-1079 -1268h852l-15 -83h-961zM760 1709q8 32 33.5 52t56.5 20q29 0 46 -17.5t17 -44.5q0 -13 -3 -22q-9 -29 -34 -49.5t-56 -20.5q-28 0 -45.5 17t-17.5 44q0 10 3 21z" />
    <glyph glyph-name="zdotaccent" unicode="&#x17c;" horiz-adv-x="1015" 
d="M3 0l15 82l841 897h-640l17 82h752l-16 -82l-840 -897h686l-15 -82h-800zM601 1377q8 32 33.5 52t56.5 20q29 0 46.5 -17t17.5 -44q0 -14 -3 -23q-9 -29 -34 -49.5t-56 -20.5q-28 0 -46 17.5t-18 43.5q0 10 3 21z" />
    <glyph glyph-name="Zcaron" unicode="&#x17d;" horiz-adv-x="1205" 
d="M39 83l1078 1268h-801l17 83h910l-16 -83l-1079 -1268h852l-15 -83h-961zM1207 1886l-364 -335h-68l-233 335h96l185 -263l288 263h96z" />
    <glyph glyph-name="zcaron" unicode="&#x17e;" horiz-adv-x="1015" 
d="M3 0l15 82l841 897h-640l17 82h752l-16 -82l-840 -897h686l-15 -82h-800zM1037 1534l-364 -335h-68l-233 335h96l185 -263l288 263h96z" />
    <glyph glyph-name="longs" unicode="&#x17f;" horiz-adv-x="749" 
d="M887 1487l-17 -81q-35 7 -93 7q-249 0 -304 -279l-220 -1134h-92l189 979h-214l17 82h214l14 75q34 174 136.5 266.5t269.5 92.5q50 0 100 -8z" />
    <glyph glyph-name="uni0191" unicode="&#x191;" horiz-adv-x="1051" 
d="M63 -114l302 1548h775l-17 -83h-681l-113 -587h623l-16 -83h-624l-154 -797q-34 -173 -137 -266t-268 -93q-45 0 -97 8l15 81q36 -7 92 -7q245 0 300 279z" />
    <glyph glyph-name="florin" unicode="&#x192;" horiz-adv-x="749" 
d="M138 -114l212 1093h-214l17 82h214l14 75q34 174 136.5 266.5t269.5 92.5q50 0 100 -8l-17 -81q-35 7 -93 7q-249 0 -304 -279l-14 -73h345l-17 -82h-345l-212 -1095q-34 -174 -136.5 -266.5t-269.5 -92.5q-48 0 -98 8l15 81q35 -7 94 -7q248 0 303 279z" />
    <glyph glyph-name="Aringacute" unicode="&#x1fa;" horiz-adv-x="1366" 
d="M997 501l-159 823l-480 -823h639zM900 1645q-53 0 -93.5 -32t-49.5 -78q-2 -14 -2 -22q0 -39 28 -63.5t74 -24.5q53 0 93.5 31.5t49.5 78.5q2 14 2 20q0 39 -28 64.5t-74 25.5zM912 1708q72 0 117 -39t45 -101q0 -16 -3 -33q-10 -56 -51 -99t-99 -61l277 -1375h-105
l-81 418h-701l-242 -418h-106l812 1375q-43 15 -67.5 49t-24.5 79q0 16 3 32q14 74 79 123.5t147 49.5zM953 1749h-98l260 248h100z" />
    <glyph glyph-name="aringacute" unicode="&#x1fb;" horiz-adv-x="1296" 
d="M675 1362q-2 -9 -2 -26q0 -46 30 -76t78 -30q55 0 101.5 38t56.5 94q2 9 2 26q0 46 -30 75.5t-78 29.5q-55 0 -101.5 -37.5t-56.5 -93.5zM1014 1400q0 -20 -4 -39q-17 -83 -86.5 -139t-154.5 -56q-75 0 -122 44.5t-47 113.5q0 18 4 38q17 83 86 138.5t155 55.5
q75 0 122 -44t47 -112zM882 1606h-99l282 268h100zM997 299l90 463q-46 112 -137.5 176t-221.5 64q-194 0 -354.5 -140t-197.5 -332q-9 -48 -9 -92q0 -162 104.5 -271t273.5 -109q130 0 246 64t206 177zM734 1085q127 0 224.5 -54.5t151.5 -151.5l36 182h92l-206 -1061h-92
l35 182q-92 -97 -211 -152t-246 -55q-201 0 -323 128t-122 319q0 55 10 108q29 148 123 275t234.5 203.5t293.5 76.5z" />
    <glyph glyph-name="AEacute" unicode="&#x1fc;" horiz-adv-x="1883" 
d="M62 0h-109l1128 1434h829l-17 -83h-688l-114 -589h631l-16 -83h-632l-116 -596h707l-15 -83h-801l81 418h-540zM454 501h492l161 831zM1055 1551l351 335h102l-353 -335h-100z" />
    <glyph glyph-name="aeacute" unicode="&#x1fd;" horiz-adv-x="2052" 
d="M1028 507q-6 -42 -6 -81q0 -161 97 -265.5t264 -104.5q209 0 394 183l52 -61q-95 -95 -214 -149t-245 -54q-158 0 -266.5 78.5t-147.5 208.5q-92 -134 -228 -210.5t-284 -76.5q-179 0 -293.5 81t-114.5 205q0 26 4 47q27 138 181 233.5t348 95.5q106 0 209 -32.5
t166 -85.5q0 4 1.5 14t2.5 15q3 16 20 73q3 30 3 57q0 157 -91 242t-237 85q-196 0 -377 -135l-24 76q204 139 418 139q156 0 263 -81.5t124 -230.5q88 140 228.5 226t297.5 86q189 0 301.5 -116t112.5 -297q0 -47 -12 -112q-3 -16 -16 -53h-931zM463 56q134 0 261 75.5
t212 209.5q-5 37 -5 70q0 21 1 31q-61 57 -161.5 88t-204.5 31q-162 0 -287.5 -73.5t-146.5 -179.5q-3 -16 -3 -33q0 -94 94 -156.5t240 -62.5zM1556 1005q-168 0 -313 -122.5t-196 -296.5h837q4 32 4 67q0 157 -90 254.5t-242 97.5zM1032 1220l351 334h103l-353 -334h-101z
" />
    <glyph glyph-name="Oslashacute" unicode="&#x1fe;" horiz-adv-x="1640" 
d="M1000 1458q235 0 395 -129l161 166h99l-208 -213q158 -164 158 -417q0 -71 -15 -148q-30 -154 -114 -291.5t-200.5 -236.5t-263.5 -156.5t-299 -57.5q-246 0 -410 142l-175 -178h-98l223 227q-145 161 -145 400q0 73 15 151q40 206 169.5 376t317 267.5t390.5 97.5z
M729 59q176 0 340 88t277.5 239t148.5 331q13 73 13 132q0 217 -133 361l-1003 -1023q142 -128 357 -128zM219 717q-13 -65 -13 -132q0 -203 118 -346l1002 1021q-139 114 -342 114q-176 0 -339.5 -88t-277 -238.5t-148.5 -330.5zM916 1551l352 335h102l-353 -335h-101z" />
    <glyph glyph-name="oslashacute" unicode="&#x1ff;" horiz-adv-x="1271" 
d="M744 1085q180 0 299 -100l140 137h95l-184 -184q105 -120 105 -299q0 -56 -10 -109q-22 -111 -83.5 -213t-149 -177.5t-199.5 -120t-229 -44.5q-179 0 -302 101l-137 -137h-95l185 184q-106 121 -106 299q0 55 10 108q22 111 83.5 213t149 177.5t199.5 120t229 44.5z
M545 58q96 0 189.5 38.5t166.5 102.5t125 150.5t70 180.5q9 48 9 93q0 142 -83 245l-727 -724q104 -86 250 -86zM176 530q-8 -41 -8 -91q0 -142 81 -246l726 723q-99 86 -247 86q-194 0 -354.5 -140t-197.5 -332zM657 1220l352 334h102l-353 -334h-101z" />
    <glyph glyph-name="Scommaaccent" unicode="&#x218;" horiz-adv-x="1179" 
d="M56 204l76 66q57 -93 155 -152t216 -59q170 0 296.5 84t152.5 216q6 28 6 56q0 212 -336 284q-181 39 -276.5 122.5t-95.5 204.5q0 31 6 64q32 160 172 264t330 104q242 0 391 -182l-72 -70q-135 168 -328 168q-153 0 -263 -78.5t-133 -198.5q-5 -27 -5 -48
q0 -99 85 -167t241 -103q382 -86 382 -340q0 -34 -8 -77q-33 -168 -187.5 -277.5t-367.5 -109.5q-143 0 -259 63.5t-178 165.5zM333 -481h-88l230 350h96z" />
    <glyph glyph-name="scommaaccent" unicode="&#x219;" horiz-adv-x="934" 
d="M9 152l66 66q44 -75 123.5 -118.5t182.5 -43.5q130 0 220 60t109 156q3 18 3 35q0 75 -67 128t-190 77q-145 28 -218.5 91t-73.5 153q0 20 5 47q23 119 137 200.5t267 81.5q197 0 309 -137l-64 -65q-101 122 -256 122q-114 0 -199 -59t-102 -144q-3 -14 -3 -28
q0 -65 62 -113t180 -72q149 -29 228 -95t79 -167q0 -32 -5 -56q-25 -130 -141.5 -213t-290.5 -83q-125 0 -216.5 47.5t-144.5 129.5zM196 -481h-88l230 350h96z" />
    <glyph glyph-name="uni021A" unicode="&#x21a;" horiz-adv-x="1101" 
d="M401 0l263 1351h-437l17 83h966l-16 -83h-436l-262 -1351h-95zM269 -481h-88l231 350h96z" />
    <glyph glyph-name="uni021B" unicode="&#x21b;" horiz-adv-x="763" 
d="M451 979l-129 -667q-10 -50 -10 -82q0 -173 203 -173q55 0 103 8l-16 -81q-56 -9 -107 -9q-276 0 -276 235q0 50 10 101l129 668h-222l17 82h222l58 299l93 8l-59 -307h333l-17 -82h-332zM123 -481h-88l230 350h96z" />
    <glyph glyph-name="dotlessj" unicode="&#x237;" horiz-adv-x="523" 
d="M74 -200l244 1261h93l-245 -1260q-27 -136 -107.5 -206t-196.5 -70q-46 0 -75 4l15 81q28 -3 69 -3q76 0 130 48.5t73 144.5z" />
    <glyph glyph-name="apostrophe" unicode="&#x2bc;" horiz-adv-x="835" 
d="M509 1402q9 31 35 51.5t58 20.5q29 0 47.5 -17.5t18.5 -45.5q0 -6 -2 -18q-3 -15 -14 -33l-164 -259h-70l135 216q-22 5 -34.5 21.5t-12.5 39.5q0 15 3 24z" />
    <glyph glyph-name="circumflex" unicode="&#x2c6;" horiz-adv-x="835" 
d="M638 1487l233 -335h-96l-185 263l-288 -263h-96l364 335h68z" />
    <glyph glyph-name="caron" unicode="&#x2c7;" horiz-adv-x="835" 
d="M937 1487l-365 -335h-67l-234 335h97l185 -263l288 263h96z" />
    <glyph glyph-name="uni02C9" unicode="&#x2c9;" horiz-adv-x="835" 
d="M288 1283l14 76h553l-14 -76h-553z" />
    <glyph glyph-name="breve" unicode="&#x2d8;" horiz-adv-x="835" 
d="M541 1160q-116 0 -184.5 70.5t-68.5 182.5q0 29 4 53h86q-3 -22 -3 -46q0 -84 46.5 -135t133.5 -51q98 0 170 65.5t97 166.5h86q-32 -132 -134.5 -219t-232.5 -87z" />
    <glyph glyph-name="dotaccent" unicode="&#x2d9;" horiz-adv-x="835" 
d="M497 1328q8 32 33.5 52t56.5 20q29 0 46 -17.5t17 -44.5q0 -13 -3 -22q-9 -29 -34 -49.5t-56 -20.5q-28 0 -45.5 17t-17.5 44q0 11 3 21z" />
    <glyph glyph-name="ring" unicode="&#x2da;" horiz-adv-x="835" 
d="M438 1316q-2 -9 -2 -26q0 -46 30.5 -76t78.5 -30q55 0 101 38.5t56 94.5q3 13 3 25q0 46 -30.5 76t-78.5 30q-55 0 -101.5 -38t-56.5 -94zM777 1355q0 -20 -4 -39q-17 -83 -86.5 -139.5t-154.5 -56.5q-74 0 -121 44.5t-47 113.5q0 18 4 38q17 83 86 139t154 56
q75 0 122 -44t47 -112z" />
    <glyph glyph-name="ogonek" unicode="&#x2db;" horiz-adv-x="835" 
d="M340 0h83q-120 -83 -179.5 -140t-71.5 -121q-3 -15 -3 -30q0 -50 31 -80.5t82 -30.5q68 0 130 40l11 -60q-75 -47 -165 -47q-75 0 -122 45t-47 115q0 22 4 41q15 77 77.5 139t169.5 129z" />
    <glyph glyph-name="tilde" unicode="&#x2dc;" horiz-adv-x="835" 
d="M558 1265l-20 26q-28 37 -50.5 56t-51.5 19q-74 0 -133 -148l-77 16q84 208 217 208q77 0 139 -80l23 -31q53 -70 100 -70q74 0 133 148l76 -16q-84 -208 -218 -208q-77 0 -138 80z" />
    <glyph glyph-name="hungarumlaut" unicode="&#x2dd;" horiz-adv-x="835" 
d="M256 1160l350 335h103l-354 -335h-99zM552 1160l350 335h103l-354 -335h-99z" />
    <glyph glyph-name="gravecomb" unicode="&#x300;" horiz-adv-x="0" 
d="M-383 1495l222 -335h-100l-224 335h102z" />
    <glyph glyph-name="acutecomb" unicode="&#x301;" horiz-adv-x="0" 
d="M-426 1160l351 335h103l-354 -335h-100z" />
    <glyph glyph-name="uni0302" unicode="&#x302;" horiz-adv-x="0" 
d="M-197 1487l234 -335h-96l-186 263l-287 -263h-97l365 335h67z" />
    <glyph glyph-name="tildecomb" unicode="&#x303;" horiz-adv-x="0" 
d="M-278 1265l-20 26q-19 25 -31 38.5t-31 25t-39 11.5q-74 0 -133 -148l-77 16q84 208 217 208q76 0 138 -80l24 -31q53 -70 99 -70q74 0 133 148l77 -16q-84 -208 -218 -208q-78 0 -139 80z" />
    <glyph glyph-name="uni0304" unicode="&#x304;" horiz-adv-x="0" 
d="M-547 1285l15 76h552l-14 -76h-553z" />
    <glyph glyph-name="uni0306" unicode="&#x306;" horiz-adv-x="0" 
d="M-294 1160q-116 0 -184.5 70.5t-68.5 182.5q0 29 4 53h86q-3 -22 -3 -46q0 -84 46.5 -135t133.5 -51q98 0 170.5 65.5t97.5 166.5h86q-32 -132 -135 -219t-233 -87z" />
    <glyph glyph-name="uni0307" unicode="&#x307;" horiz-adv-x="0" 
d="M-338 1328q8 32 33.5 52t56.5 20q29 0 46.5 -17.5t17.5 -44.5q0 -13 -3 -22q-8 -29 -34 -49.5t-57 -20.5q-28 0 -45.5 17t-17.5 44q0 11 3 21z" />
    <glyph glyph-name="uni0308" unicode="&#x308;" horiz-adv-x="0" 
d="M-164 1328q8 32 33.5 52t56.5 20q29 0 46.5 -17.5t17.5 -44.5q0 -13 -3 -22q-9 -29 -34 -49.5t-56 -20.5q-28 0 -46 17.5t-18 43.5q0 11 3 21zM-510 1328q8 32 33.5 52t56.5 20q29 0 46.5 -17.5t17.5 -44.5q0 -13 -3 -22q-8 -29 -34 -49.5t-57 -20.5q-28 0 -45.5 17
t-17.5 44q0 11 3 21z" />
    <glyph glyph-name="uni030A" unicode="&#x30a;" horiz-adv-x="0" 
d="M-397 1316q-2 -9 -2 -26q0 -46 30 -76t78 -30q55 0 101.5 38.5t56.5 94.5q2 9 2 25q0 46 -30.5 76t-78.5 30q-55 0 -101 -38t-56 -94zM-58 1355q0 -20 -4 -39q-17 -83 -86.5 -139.5t-154.5 -56.5q-75 0 -122 44.5t-47 113.5q0 18 4 38q17 83 86 139t155 56q75 0 122 -44
t47 -112z" />
    <glyph glyph-name="uni030C" unicode="&#x30c;" horiz-adv-x="0" 
d="M101 1487l-364 -335h-68l-233 335h96l185 -263l288 263h96z" />
    <glyph glyph-name="uni0327" unicode="&#x327;" horiz-adv-x="0" 
d="M-598 -199q-33 0 -58 -5l-16 24l141 180h77l-112 -140q87 -4 136 -49.5t49 -112.5q0 -18 -3 -34q-16 -84 -95.5 -140t-180.5 -56q-96 0 -158 56l47 56q49 -47 121 -47q69 0 123 38t65 94q2 14 2 23q0 48 -38 80.5t-100 32.5z" />
    <glyph glyph-name="tonos" unicode="&#x384;" horiz-adv-x="835" 
d="M412 1114l243 381h97l-252 -381h-88z" />
    <glyph glyph-name="dieresistonos" unicode="&#x385;" horiz-adv-x="835" 
d="M604 1346h-98l281 268h101zM293 1172q8 32 33.5 52t56.5 20q29 0 46 -17t17 -44q0 -14 -3 -23q-8 -29 -33.5 -49t-56.5 -20q-28 0 -45.5 17t-17.5 43q0 11 3 21zM640 1172q8 32 33.5 52t56.5 20q29 0 46.5 -17t17.5 -44q0 -14 -3 -23q-8 -29 -33.5 -49t-57.5 -20
q-28 0 -45.5 17t-17.5 43q0 11 3 21z" />
    <glyph glyph-name="Alphatonos" unicode="&#x386;" horiz-adv-x="1378" 
d="M1210 0h-105l-81 418h-700l-243 -418h-106l846 1434h101zM1010 501l-160 823l-479 -823h639zM174 1053l244 381h96l-252 -381h-88z" />
    <glyph glyph-name="anoteleia" unicode="&#x387;" horiz-adv-x="595" 
d="M230 600q8 32 35.5 54t61.5 22q30 0 48 -18t18 -45q0 -13 -3 -23q-8 -33 -35 -54.5t-60 -21.5q-30 0 -49 18t-19 47q0 11 3 21z" />
    <glyph glyph-name="Epsilontonos" unicode="&#x388;" horiz-adv-x="1455" 
d="M408 0l278 1434h796l-17 -83h-701l-115 -589h644l-16 -83h-644l-116 -596h720l-15 -83h-814zM174 1053l244 381h96l-252 -381h-88z" />
    <glyph glyph-name="Etatonos" unicode="&#x389;" horiz-adv-x="1720" 
d="M408 0l278 1434h94l-131 -672h834l131 672h94l-278 -1434h-95l131 679h-833l-131 -679h-94zM174 1053l244 381h96l-252 -381h-88z" />
    <glyph glyph-name="Iotatonos" unicode="&#x38a;" horiz-adv-x="842" 
d="M686 1434h94l-278 -1434h-94zM174 1053l244 381h96l-252 -381h-88z" />
    <glyph glyph-name="Omicrontonos" unicode="&#x38c;" horiz-adv-x="1853" 
d="M942 59q176 0 340 88t277.5 239t148.5 331q13 65 13 132q0 227 -146 376t-378 149q-176 0 -339.5 -88t-277 -238.5t-148.5 -330.5q-13 -65 -13 -132q0 -228 145.5 -377t377.5 -149zM1213 1458q269 0 437 -166t168 -425q0 -73 -15 -150q-30 -154 -114 -291.5
t-200.5 -236.5t-263.5 -156.5t-299 -57.5q-269 0 -436.5 166t-167.5 424q0 74 15 152q40 206 169 376t316.5 267.5t390.5 97.5zM174 1053l244 381h96l-252 -381h-88z" />
    <glyph glyph-name="Upsilontonos" unicode="&#x38e;" horiz-adv-x="1692" 
d="M734 1434l336 -752l629 752h107l-707 -846l-114 -588h-94l114 588l-378 846h107zM174 1053l244 381h96l-252 -381h-88z" />
    <glyph glyph-name="Omegatonos" unicode="&#x38f;" horiz-adv-x="1809" 
d="M1658 745q12 66 12 128q0 218 -137 359.5t-356 141.5q-124 0 -245.5 -49.5t-218 -133.5t-166.5 -200.5t-95 -245.5q-14 -77 -14 -132q0 -331 369 -531l-15 -82h-564l16 84h425q-326 191 -326 525q0 67 14 142q38 194 162 356.5t303 256.5t371 94q255 0 415 -160t160 -406
q0 -66 -14 -141q-40 -204 -180 -376t-391 -291h425l-16 -84h-563l15 82q532 237 614 663zM174 1053l244 381h96l-252 -381h-88z" />
    <glyph glyph-name="iotadieresistonos" unicode="&#x390;" horiz-adv-x="559" 
d="M154 213l164 848h93l-162 -831q-5 -28 -5 -48q0 -52 28.5 -76t87.5 -24h63l-15 -80q-40 -2 -75 -2q-186 0 -186 152q0 21 7 61zM475 1483h-98l281 268h101zM164 1310q8 31 33 51t57 20q29 0 46 -17t17 -44q0 -14 -3 -23q-8 -29 -33.5 -49t-56.5 -20q-28 0 -45.5 17
t-17.5 43q0 12 3 22zM511 1310q8 31 33 51t57 20q29 0 46.5 -17t17.5 -44q0 -14 -3 -23q-8 -29 -33.5 -49t-57.5 -20q-28 0 -45.5 17t-17.5 43q0 12 3 22z" />
    <glyph glyph-name="Alpha" unicode="&#x391;" horiz-adv-x="1366" 
d="M1198 0h-105l-81 418h-701l-242 -418h-106l846 1434h100zM997 501l-159 823l-480 -823h639z" />
    <glyph glyph-name="Beta" unicode="&#x392;" horiz-adv-x="1242" 
d="M583 0h-497l279 1434h462q157 0 246 -79t89 -209q0 -34 -8 -77q-23 -122 -108.5 -207t-197.5 -111q116 -17 190 -92t74 -193q0 -39 -7 -75q-34 -172 -179 -281.5t-343 -109.5zM1059 1066q6 30 6 60q0 103 -70.5 164t-190.5 61h-362l-110 -568h361q138 0 239.5 78
t126.5 205zM1010 393q6 33 6 62q0 113 -82.5 180t-223.5 67h-394l-120 -619h393q161 0 277.5 85.5t143.5 224.5z" />
    <glyph glyph-name="Gamma" unicode="&#x393;" horiz-adv-x="1048" 
d="M86 0l279 1434h797l-16 -83h-704l-262 -1351h-94z" />
    <glyph glyph-name="uni0394" unicode="&#x394;" horiz-adv-x="1366" 
d="M909 1434l289 -1434h-1235l846 1434h100zM838 1324l-724 -1241h964z" />
    <glyph glyph-name="Epsilon" unicode="&#x395;" horiz-adv-x="1133" 
d="M86 0l279 1434h795l-16 -83h-702l-114 -589h644l-17 -83h-644l-115 -596h719l-15 -83h-814z" />
    <glyph glyph-name="Zeta" unicode="&#x396;" horiz-adv-x="1205" 
d="M39 83l1078 1268h-801l17 83h910l-16 -83l-1079 -1268h852l-15 -83h-961z" />
    <glyph glyph-name="Eta" unicode="&#x397;" horiz-adv-x="1398" 
d="M86 0l279 1434h94l-131 -672h833l131 672h94l-278 -1434h-94l131 679h-834l-131 -679h-94z" />
    <glyph glyph-name="Theta" unicode="&#x398;" horiz-adv-x="1640" 
d="M554 675l15 83h590l-15 -83h-590zM729 59q176 0 340 88t277.5 239t148.5 331q13 65 13 132q0 227 -146 376t-378 149q-176 0 -339.5 -88t-277 -238.5t-148.5 -330.5q-13 -65 -13 -132q0 -228 145.5 -377t377.5 -149zM1000 1458q269 0 437 -166t168 -425q0 -73 -15 -150
q-30 -154 -114 -291.5t-200.5 -236.5t-263.5 -156.5t-299 -57.5q-269 0 -436.5 166t-167.5 424q0 74 15 152q40 206 169 376t316.5 267.5t390.5 97.5z" />
    <glyph glyph-name="Iota" unicode="&#x399;" horiz-adv-x="571" 
d="M415 1434h94l-279 -1434h-94z" />
    <glyph glyph-name="Kappa" unicode="&#x39a;" horiz-adv-x="1200" 
d="M459 1434l-131 -672h195l632 672h112l-668 -712l471 -722h-114l-446 679h-199l-131 -679h-94l279 1434h94z" />
    <glyph glyph-name="Lambda" unicode="&#x39b;" horiz-adv-x="1366" 
d="M1093 0l-256 1319l-768 -1319h-106l846 1434h100l289 -1434h-105z" />
    <glyph glyph-name="Mu" unicode="&#x39c;" horiz-adv-x="1710" 
d="M879 484h-66l-388 786l-247 -1270h-92l279 1434h88l414 -842l743 842h88l-279 -1434h-92l247 1270z" />
    <glyph glyph-name="Nu" unicode="&#x39d;" horiz-adv-x="1414" 
d="M86 0l279 1434h89l609 -1268l247 1268h92l-279 -1434h-89l-610 1268l-246 -1268h-92z" />
    <glyph glyph-name="Xi" unicode="&#x39e;" horiz-adv-x="1188" 
d="M309 1351l17 83h889l-16 -83h-890zM29 0l15 83h927l-16 -83h-926zM998 676h-771l17 83h771z" />
    <glyph glyph-name="Omicron" unicode="&#x39f;" horiz-adv-x="1640" 
d="M729 59q176 0 340 88t277.5 239t148.5 331q13 65 13 132q0 227 -146 376t-378 149q-176 0 -339.5 -88t-277 -238.5t-148.5 -330.5q-13 -65 -13 -132q0 -228 145.5 -377t377.5 -149zM1000 1458q269 0 437 -166t168 -425q0 -73 -15 -150q-30 -154 -114 -291.5
t-200.5 -236.5t-263.5 -156.5t-299 -57.5q-269 0 -436.5 166t-167.5 424q0 74 15 152q40 206 169 376t316.5 267.5t390.5 97.5z" />
    <glyph glyph-name="Pi" unicode="&#x3a0;" horiz-adv-x="1368" 
d="M1356 1434l-279 -1434h-94l262 1351h-803l-262 -1351h-94l279 1434h991z" />
    <glyph glyph-name="Rho" unicode="&#x3a1;" horiz-adv-x="1165" 
d="M606 582h-313l-113 -582h-94l279 1434h407q192 0 302.5 -90t110.5 -246q0 -42 -9 -90q-37 -193 -193.5 -309.5t-376.5 -116.5zM1080 1008q7 36 7 71q0 126 -88.5 199t-244.5 73h-312l-133 -686h312q179 0 304 93.5t155 249.5z" />
    <glyph glyph-name="Sigma" unicode="&#x3a3;" horiz-adv-x="1161" 
d="M40 82l628 637l-381 633l16 82h906l-16 -83h-790l370 -612l-8 -42l-609 -614h790l-15 -83h-906z" />
    <glyph glyph-name="Tau" unicode="&#x3a4;" horiz-adv-x="1101" 
d="M401 0l263 1351h-437l17 83h966l-16 -83h-436l-262 -1351h-95z" />
    <glyph glyph-name="Upsilon" unicode="&#x3a5;" horiz-adv-x="1304" 
d="M346 1434l336 -752l629 752h107l-707 -846l-114 -588h-94l113 588l-377 846h107z" />
    <glyph glyph-name="Phi" unicode="&#x3a6;" horiz-adv-x="1507" 
d="M658 280l169 870q-221 0 -399 -127t-215 -308q-7 -34 -7 -71q0 -157 127 -260.5t325 -103.5zM698 0h-94l38 197q-232 0 -382 123t-150 310q0 39 8 85q28 142 134.5 261t264 188t327.5 69l39 201h94l-39 -201q232 0 381.5 -123t149.5 -310q0 -46 -8 -85
q-28 -142 -134 -261.5t-263 -188t-328 -68.5zM922 1150l-169 -870q145 0 278 58t222.5 158t112.5 219q7 34 7 70q0 157 -126.5 261t-324.5 104z" />
    <glyph glyph-name="Chi" unicode="&#x3a7;" horiz-adv-x="1263" 
d="M63 0h-108l658 729l-361 705h108l325 -632l570 632h109l-636 -705l376 -729h-109l-339 656z" />
    <glyph glyph-name="Psi" unicode="&#x3a8;" horiz-adv-x="1386" 
d="M916 1434l-194 -1001q177 15 320 145t180 321l104 535h94l-104 -537q-28 -147 -118.5 -269.5t-220 -196.5t-272.5 -85l-67 -346h-94l66 346q-184 14 -295.5 134.5t-111.5 302.5q0 53 11 114l104 537h95l-105 -535q-10 -50 -10 -101q0 -154 91 -253.5t239 -111.5l194 1001
h94z" />
    <glyph glyph-name="uni03A9" unicode="&#x3a9;" horiz-adv-x="1593" 
d="M1442 745q12 66 12 128q0 218 -137 359.5t-356 141.5q-124 0 -245.5 -49.5t-218 -133.5t-166.5 -200.5t-95 -245.5q-14 -77 -14 -132q0 -331 369 -531l-16 -82h-563l16 84h425q-326 191 -326 525q0 67 14 142q38 194 162 356.5t303 256.5t371 94q255 0 415 -160t160 -406
q0 -66 -14 -141q-40 -204 -180 -376t-391 -291h425l-16 -84h-563l15 82q532 237 614 663z" />
    <glyph glyph-name="Iotadieresis" unicode="&#x3aa;" horiz-adv-x="571" 
d="M415 1434h94l-279 -1434h-94zM611 1709q8 32 33.5 52t56.5 20q29 0 46.5 -17.5t17.5 -44.5q0 -13 -3 -22q-9 -29 -34 -49.5t-56 -20.5q-28 0 -46 17.5t-18 43.5q0 10 3 21zM265 1709q8 32 33.5 52t56.5 20q29 0 46.5 -17.5t17.5 -44.5q0 -13 -3 -22q-9 -29 -34 -49.5
t-56 -20.5q-28 0 -46 17.5t-18 43.5q0 10 3 21z" />
    <glyph glyph-name="Upsilondieresis" unicode="&#x3ab;" horiz-adv-x="1304" 
d="M346 1434l336 -752l629 752h107l-707 -846l-114 -588h-94l113 588l-377 846h107zM978 1709q8 32 33.5 52t56.5 20q29 0 46.5 -17.5t17.5 -44.5q0 -10 -4 -22q-9 -29 -34 -49.5t-56 -20.5q-28 0 -45.5 17t-17.5 44q0 10 3 21zM632 1709q8 32 33.5 52t56.5 20
q29 0 46 -17.5t17 -44.5q0 -13 -3 -22q-9 -29 -34 -49.5t-56 -20.5q-28 0 -45.5 17t-17.5 44q0 10 3 21z" />
    <glyph glyph-name="alphatonos" unicode="&#x3ac;" horiz-adv-x="1396" 
d="M1170 0q-193 0 -193 151q0 17 3 37q-94 -101 -213.5 -157t-248.5 -56q-201 0 -323 128t-122 319q0 55 10 108q29 148 123 275t234.5 203.5t293.5 76.5q127 0 224.5 -54.5t151.5 -151.5l36 182h92l-161 -825q-5 -28 -5 -48q0 -106 121 -106h68l-16 -80q-40 -2 -75 -2z
M997 299l90 463q-46 112 -137.5 176t-221.5 64q-194 0 -354.5 -140t-197.5 -332q-9 -48 -9 -92q0 -162 104.5 -271t273.5 -109q130 0 246 64t206 177zM635 1220l351 334h103l-354 -334h-100z" />
    <glyph glyph-name="epsilontonos" unicode="&#x3ad;" horiz-adv-x="961" 
d="M401 57q200 0 358 156l55 -54q-181 -184 -428 -184q-156 0 -255 75.5t-99 191.5q0 21 5 48q21 104 112 180t201 101q-84 25 -129 78.5t-45 121.5q0 20 4 40q23 116 143 195t273 79q115 0 198.5 -48t116.5 -136l-85 -47q-24 73 -91 112t-155 39q-113 0 -202.5 -57
t-105.5 -141q-3 -15 -3 -31q0 -73 66 -120t168 -47h157l-15 -79h-151q-134 0 -239.5 -68.5t-125.5 -167.5q-3 -18 -3 -36q0 -87 77 -144t198 -57zM471 1220l351 334h103l-354 -334h-100z" />
    <glyph glyph-name="etatonos" unicode="&#x3ae;" horiz-adv-x="1211" 
d="M288 702l-136 -702h-93l206 1061h92l-47 -242q204 266 452 266q155 0 248.5 -91t93.5 -236q0 -47 -8 -87l-224 -1146h-92l222 1140q8 38 8 69q0 118 -76 193t-203 75q-227 0 -443 -300zM636 1220l351 334h103l-354 -334h-100z" />
    <glyph glyph-name="iotatonos" unicode="&#x3af;" horiz-adv-x="559" 
d="M154 213l164 848h93l-162 -831q-5 -28 -5 -48q0 -52 28.5 -76t87.5 -24h63l-15 -80q-40 -2 -75 -2q-186 0 -186 152q0 21 7 61zM283 1220l351 334h102l-353 -334h-100z" />
    <glyph glyph-name="upsilondieresistonos" unicode="&#x3b0;" horiz-adv-x="1155" 
d="M470 -25q-159 0 -258.5 98t-99.5 250q0 46 8 86l127 652h92l-126 -649q-7 -36 -7 -73q0 -123 78 -202t202 -79q144 0 263 102t148 252l126 649h92l-127 -652q-35 -183 -185 -308.5t-333 -125.5zM791 1483h-99l282 268h100zM479 1310q8 31 33 51t57 20q29 0 46.5 -17
t17.5 -44q0 -14 -3 -23q-8 -29 -33.5 -49t-56.5 -20q-28 0 -46 17t-18 43q0 12 3 22zM826 1310q8 31 33 51t57 20q29 0 46.5 -17t17.5 -44q0 -14 -3 -23q-8 -29 -33.5 -49t-56.5 -20q-28 0 -46 17t-18 43q0 12 3 22z" />
    <glyph glyph-name="alpha" unicode="&#x3b1;" horiz-adv-x="1396" 
d="M1170 0q-193 0 -193 151q0 17 3 37q-94 -101 -213.5 -157t-248.5 -56q-201 0 -323 128t-122 319q0 55 10 108q29 148 123 275t234.5 203.5t293.5 76.5q127 0 224.5 -54.5t151.5 -151.5l36 182h92l-161 -825q-5 -28 -5 -48q0 -106 121 -106h68l-16 -80q-40 -2 -75 -2z
M997 299l90 463q-46 112 -137.5 176t-221.5 64q-194 0 -354.5 -140t-197.5 -332q-9 -48 -9 -92q0 -162 104.5 -271t273.5 -109q130 0 246 64t206 177z" />
    <glyph glyph-name="beta" unicode="&#x3b2;" horiz-adv-x="1210" 
d="M-26 -475l298 1534q33 170 171 284.5t310 114.5q149 0 243.5 -85t94.5 -211q0 -26 -7 -61q-23 -117 -124.5 -207.5t-232.5 -118.5q157 -23 253.5 -112.5t96.5 -222.5q0 -36 -7 -71q-32 -166 -183.5 -280t-342.5 -114q-125 0 -216.5 60t-129.5 153l-129 -663h-95z
M367 1056l-147 -753q39 -114 124 -179.5t202 -65.5q157 0 280.5 90.5t149.5 224.5q6 30 6 58q0 131 -116.5 212t-334.5 81l16 81q177 0 297.5 85t144.5 208q5 27 5 49q0 99 -72 164t-186 65q-130 0 -236 -92t-133 -228z" />
    <glyph glyph-name="gamma" unicode="&#x3b3;" horiz-adv-x="1062" 
d="M290 -475l95 486l-240 1050h101l209 -929l569 929h100l-647 -1050l-95 -486h-92z" />
    <glyph glyph-name="delta" unicode="&#x3b4;" horiz-adv-x="1128" 
d="M62 455q38 198 204 335t364 137q62 0 122 -21l-380 448l16 80h713l-17 -83h-589l460 -552q89 -110 89 -256q0 -48 -8 -88q-40 -202 -209.5 -341t-371.5 -139q-175 0 -288.5 108.5t-113.5 276.5q0 46 9 95zM156 455q-9 -50 -9 -80q0 -139 90 -228.5t234 -89.5
q165 0 302.5 116t169.5 282q8 43 8 79q0 138 -90.5 228t-234.5 90q-165 0 -301.5 -115.5t-168.5 -281.5z" />
    <glyph glyph-name="epsilon" unicode="&#x3b5;" horiz-adv-x="961" 
d="M401 57q200 0 358 156l55 -54q-181 -184 -428 -184q-156 0 -255 75.5t-99 191.5q0 21 5 48q21 104 112 180t201 101q-84 25 -129 78.5t-45 121.5q0 20 4 40q23 116 143 195t273 79q115 0 198.5 -48t116.5 -136l-85 -47q-24 73 -91 112t-155 39q-113 0 -202.5 -57
t-105.5 -141q-3 -15 -3 -31q0 -73 66 -120t168 -47h157l-15 -79h-151q-134 0 -239.5 -68.5t-125.5 -167.5q-3 -18 -3 -36q0 -87 77 -144t198 -57z" />
    <glyph glyph-name="zeta" unicode="&#x3b6;" horiz-adv-x="936" 
d="M55 384q19 96 83 183t176 197l599 587h-573l16 83h683l-16 -80l-646 -635q-100 -99 -157.5 -177t-73.5 -158q-5 -28 -5 -49q0 -150 177 -231l212 -98q181 -85 181 -208q0 -17 -3 -35q-22 -111 -137 -238h-96q117 123 138 229q2 10 2 22q0 90 -149 158l-208 97
q-210 97 -210 285q0 26 7 68z" />
    <glyph glyph-name="eta" unicode="&#x3b7;" horiz-adv-x="1211" 
d="M288 702l-136 -702h-93l206 1061h92l-47 -242q204 266 452 266q155 0 248.5 -91t93.5 -236q0 -47 -8 -87l-224 -1146h-92l222 1140q8 38 8 69q0 118 -76 193t-203 75q-227 0 -443 -300z" />
    <glyph glyph-name="theta" unicode="&#x3b8;" horiz-adv-x="1290" 
d="M121 717q40 203 145.5 373t253.5 269t305 99q198 0 318 -155t120 -396q0 -88 -20 -190q-40 -203 -146 -373t-254 -269.5t-305 -99.5q-198 0 -317.5 154.5t-119.5 395.5q0 89 20 192zM554 58q125 0 246 82.5t210.5 224t129.5 311.5h-932q-11 -67 -11 -141
q0 -209 97.5 -343t259.5 -134zM810 1375q-125 0 -246.5 -82.5t-211.5 -224t-129 -311.5h932q11 75 11 141q0 210 -97 343.5t-259 133.5z" />
    <glyph glyph-name="iota" unicode="&#x3b9;" horiz-adv-x="559" 
d="M154 213l164 848h93l-162 -831q-5 -28 -5 -48q0 -52 28.5 -76t87.5 -24h63l-15 -80q-40 -2 -75 -2q-186 0 -186 152q0 21 7 61z" />
    <glyph glyph-name="kappa" unicode="&#x3ba;" horiz-adv-x="1031" 
d="M792 0l-345 534h-192l-103 -534h-93l206 1061h92l-87 -447h194l476 447h115l-518 -487l367 -574h-112z" />
    <glyph glyph-name="lambda" unicode="&#x3bb;" horiz-adv-x="1062" 
d="M585 1034l-104 461h101l337 -1495h-101l-208 914l-570 -914h-100z" />
    <glyph glyph-name="uni03BC" unicode="&#x3bc;" horiz-adv-x="1229" 
d="M-34 -475l299 1536h92l-145 -747q22 -111 100 -183.5t187 -72.5q117 0 231.5 79.5t209.5 207.5l139 716h92l-205 -1061h-93l43 225q-86 -106 -201.5 -178t-238.5 -72q-106 0 -182.5 59t-108.5 143l-127 -652h-92z" />
    <glyph glyph-name="nu" unicode="&#x3bd;" horiz-adv-x="1047" 
d="M1109 1061l-640 -1061h-95l-229 1061h101l198 -936l565 936h100z" />
    <glyph glyph-name="xi" unicode="&#x3be;" horiz-adv-x="947" 
d="M154 386q-7 -38 -7 -63q0 -86 49.5 -153t150.5 -105l184 -71q199 -76 199 -199q0 -17 -3 -35q-21 -107 -149 -235h-99q133 125 154 220q3 14 3 30q0 48 -40.5 82.5t-118.5 63.5l-182 69q-120 44 -181 128.5t-61 190.5q0 39 7 75q27 137 136 246t256 153q-89 31 -141 101
t-52 162q0 29 6 62q29 147 160 248.5t293 101.5q98 0 172 -38t117 -107l-74 -63q-36 60 -95.5 94.5t-135.5 34.5q-124 0 -224.5 -80t-122.5 -198q-5 -28 -5 -52q0 -98 68 -162t177 -64h201l-16 -79h-179q-159 0 -288.5 -103.5t-158.5 -254.5z" />
    <glyph glyph-name="omicron" unicode="&#x3bf;" horiz-adv-x="1271" 
d="M545 58q96 0 189.5 38.5t166.5 102.5t125 150.5t70 180.5q9 48 9 93q0 162 -104 270.5t-273 108.5q-194 0 -354.5 -140t-197.5 -332q-9 -48 -9 -92q0 -162 104.5 -271t273.5 -109zM744 1085q206 0 330.5 -127t124.5 -319q0 -56 -10 -109q-22 -111 -83.5 -213t-149 -177.5
t-199.5 -120t-229 -44.5q-206 0 -330.5 127t-124.5 320q0 55 10 108q22 111 83.5 213t149 177.5t199.5 120t229 44.5z" />
    <glyph glyph-name="pi" unicode="&#x3c0;" horiz-adv-x="1148" 
d="M422 978l-190 -978h-92l190 978h-192l17 83h1046l-16 -83h-192l-189 -978h-92l189 978h-479z" />
    <glyph glyph-name="rho" unicode="&#x3c1;" horiz-adv-x="1292" 
d="M234 530l-17 -92v-6q0 -169 103.5 -271.5t259.5 -102.5q187 0 342.5 137t193.5 335q10 50 10 101q0 162 -99 266.5t-259 104.5q-122 0 -236 -62.5t-193.5 -171t-104.5 -238.5zM573 -25q-150 0 -252 78t-140 201l-142 -729h-92l195 1005q30 152 124.5 279.5t232 201.5
t285.5 74q195 0 316 -123.5t121 -315.5q0 -56 -12 -116q-29 -151 -123 -278.5t-230.5 -202t-282.5 -74.5z" />
    <glyph glyph-name="sigma1" unicode="&#x3c2;" horiz-adv-x="1091" 
d="M83 530q22 111 83.5 213t149 177.5t199.5 120t229 44.5q223 0 351 -149l-63 -75q-114 141 -304 141q-194 0 -354.5 -140t-197.5 -332q-9 -48 -9 -91q0 -117 63.5 -202.5t183.5 -136.5l235 -100q176 -74 176 -197q0 -23 -4 -40q-23 -115 -149 -238h-100q136 127 156 230
q3 13 3 27q0 47 -35.5 80.5t-108.5 65.5l-230 99q-136 58 -210 159.5t-74 239.5q0 53 10 104z" />
    <glyph glyph-name="sigma" unicode="&#x3c3;" horiz-adv-x="1304" 
d="M727 1061h630l-17 -83h-378q98 -52 153.5 -148t55.5 -217q0 -50 -10 -100q-29 -147 -124.5 -271t-234 -195.5t-286.5 -71.5q-197 0 -321 123t-124 313q0 54 10 107q29 149 125 274t234.5 197t286.5 72zM174 518q-9 -48 -9 -93q0 -160 102 -263.5t265 -103.5
q188 0 343.5 133.5t193.5 326.5q9 48 9 92q0 160 -102 264t-265 104q-187 0 -343.5 -134t-193.5 -326z" />
    <glyph glyph-name="tau" unicode="&#x3c4;" horiz-adv-x="980" 
d="M378 245l142 733h-383l17 83h880l-16 -83h-406l-142 -733q-6 -29 -6 -54q0 -110 125 -110h67l-15 -80q-40 -2 -76 -2q-99 0 -147 40t-48 125q0 41 8 81z" />
    <glyph glyph-name="upsilon" unicode="&#x3c5;" horiz-adv-x="1155" 
d="M470 -25q-159 0 -258.5 98t-99.5 250q0 46 8 86l127 652h92l-126 -649q-7 -36 -7 -73q0 -123 78 -202t202 -79q144 0 263 102t148 252l126 649h92l-127 -652q-35 -183 -185 -308.5t-333 -125.5z" />
    <glyph glyph-name="phi" unicode="&#x3c6;" horiz-adv-x="1392" 
d="M362 953l54 -59q-92 -69 -155.5 -163.5t-84.5 -200.5q-9 -46 -9 -90q0 -162 109 -269.5t283 -111.5l200 1026h78q215 0 349 -127t134 -322q0 -55 -10 -106q-29 -151 -128 -277.5t-244 -200.5t-303 -77l-88 -450h-92l88 450q-209 4 -339.5 130.5t-130.5 319.5q0 54 10 105
q25 127 99 237t180 186zM1217 530q9 46 9 91q0 162 -109 268.5t-283 110.5l-183 -941q132 3 253 66t204.5 170.5t108.5 234.5z" />
    <glyph glyph-name="chi" unicode="&#x3c7;" horiz-adv-x="1052" 
d="M1105 1061l-570 -751l291 -785h-102l-258 695l-528 -695h-102l596 785l-277 751h102l245 -660l500 660h103z" />
    <glyph glyph-name="psi" unicode="&#x3c8;" horiz-adv-x="1389" 
d="M634 -22l-88 -453h-93l88 453q-184 13 -297 134t-113 301q0 54 10 107l106 541h93l-104 -538q-10 -55 -10 -94q0 -150 91.5 -252t239.5 -115l195 999h93l-195 -999q179 15 322.5 146.5t179.5 314.5l104 538h94l-106 -541q-42 -217 -217 -372t-393 -170z" />
    <glyph glyph-name="omega" unicode="&#x3c9;" horiz-adv-x="1599" 
d="M741 230q-68 -111 -167.5 -183t-205.5 -72q-136 0 -218.5 111t-82.5 287q0 76 14 147q51 261 288 541h94q-238 -283 -289 -541q-13 -68 -13 -135q0 -145 62 -236t165 -91q106 0 210.5 105.5t130.5 240.5l85 434h92l-85 -434q-7 -35 -7 -71q0 -114 62.5 -194.5
t153.5 -80.5q127 0 240.5 133.5t150.5 328.5q15 75 15 147q0 185 -91 394h93q91 -200 91 -391q0 -72 -15 -150q-29 -151 -104.5 -276t-179.5 -197t-212 -72q-107 0 -179 71.5t-98 183.5z" />
    <glyph glyph-name="iotadieresis" unicode="&#x3ca;" horiz-adv-x="559" 
d="M154 213l164 848h93l-162 -831q-5 -28 -5 -48q0 -52 28.5 -76t87.5 -24h63l-15 -80q-40 -2 -75 -2q-186 0 -186 152q0 21 7 61zM523 1377q8 32 33.5 52t56.5 20q29 0 46.5 -17t17.5 -44q0 -14 -3 -23q-9 -29 -34 -49.5t-56 -20.5q-28 0 -46 17.5t-18 43.5q0 10 3 21z
M177 1377q8 32 33.5 52t56.5 20q29 0 46.5 -17t17.5 -44q0 -14 -3 -23q-9 -29 -34 -49.5t-56 -20.5q-28 0 -46 17.5t-18 43.5q0 10 3 21z" />
    <glyph glyph-name="upsilondieresis" unicode="&#x3cb;" horiz-adv-x="1155" 
d="M470 -25q-159 0 -258.5 98t-99.5 250q0 46 8 86l127 652h92l-126 -649q-7 -36 -7 -73q0 -123 78 -202t202 -79q144 0 263 102t148 252l126 649h92l-127 -652q-35 -183 -185 -308.5t-333 -125.5zM839 1377q8 32 33.5 52t56.5 20q29 0 46 -17t17 -44q0 -14 -3 -23
q-9 -29 -34 -49.5t-56 -20.5q-28 0 -45.5 17t-17.5 44q0 10 3 21zM493 1377q8 32 33.5 52t56.5 20q29 0 46 -17t17 -44q0 -14 -3 -23q-9 -29 -34 -49.5t-56 -20.5q-28 0 -46 17.5t-18 43.5q0 7 4 21z" />
    <glyph glyph-name="omicrontonos" unicode="&#x3cc;" horiz-adv-x="1271" 
d="M545 58q96 0 189.5 38.5t166.5 102.5t125 150.5t70 180.5q9 48 9 93q0 162 -104 270.5t-273 108.5q-194 0 -354.5 -140t-197.5 -332q-9 -48 -9 -92q0 -162 104.5 -271t273.5 -109zM744 1085q206 0 330.5 -127t124.5 -319q0 -56 -10 -109q-22 -111 -83.5 -213t-149 -177.5
t-199.5 -120t-229 -44.5q-206 0 -330.5 127t-124.5 320q0 55 10 108q22 111 83.5 213t149 177.5t199.5 120t229 44.5zM657 1220l352 334h102l-353 -334h-101z" />
    <glyph glyph-name="upsilontonos" unicode="&#x3cd;" horiz-adv-x="1155" 
d="M470 -25q-159 0 -258.5 98t-99.5 250q0 46 8 86l127 652h92l-126 -649q-7 -36 -7 -73q0 -123 78 -202t202 -79q144 0 263 102t148 252l126 649h92l-127 -652q-35 -183 -185 -308.5t-333 -125.5zM583 1220l351 334h102l-353 -334h-100z" />
    <glyph glyph-name="omegatonos" unicode="&#x3ce;" horiz-adv-x="1599" 
d="M741 230q-68 -111 -167.5 -183t-205.5 -72q-136 0 -218.5 111t-82.5 287q0 76 14 147q51 261 288 541h94q-238 -283 -289 -541q-13 -68 -13 -135q0 -145 62 -236t165 -91q106 0 210.5 105.5t130.5 240.5l85 434h92l-85 -434q-7 -35 -7 -71q0 -114 62.5 -194.5
t153.5 -80.5q127 0 240.5 133.5t150.5 328.5q15 75 15 147q0 185 -91 394h93q91 -200 91 -391q0 -72 -15 -150q-29 -151 -104.5 -276t-179.5 -197t-212 -72q-107 0 -179 71.5t-98 183.5zM819 1220l351 334h103l-353 -334h-101z" />
    <glyph glyph-name="uni0400" unicode="&#x400;" horiz-adv-x="1133" 
d="M86 0l279 1434h795l-16 -83h-702l-114 -589h644l-17 -83h-644l-115 -596h719l-15 -83h-814zM679 1886l222 -335h-100l-224 335h102z" />
    <glyph glyph-name="afii10023" unicode="&#x401;" horiz-adv-x="1133" 
d="M86 0l279 1434h795l-16 -83h-702l-114 -589h644l-17 -83h-644l-115 -596h719l-15 -83h-814zM904 1709q8 32 33.5 52t56.5 20q29 0 46.5 -17.5t17.5 -44.5q0 -13 -3 -22q-9 -29 -34 -49.5t-56 -20.5q-28 0 -46 17.5t-18 43.5q0 10 3 21zM558 1709q8 32 33.5 52t56.5 20
q29 0 46.5 -17.5t17.5 -44.5q0 -13 -3 -22q-8 -29 -34 -49.5t-57 -20.5q-28 0 -45.5 17t-17.5 44q0 10 3 21z" />
    <glyph glyph-name="afii10051" unicode="&#x402;" horiz-adv-x="1437" 
d="M400 0l263 1351h-436l17 83h965l-16 -83h-436l-118 -605q73 78 176 127t207 49q150 0 242.5 -89.5t92.5 -228.5q0 -41 -7 -79l-26 -135q-32 -166 -170.5 -280t-309.5 -114q-53 0 -85 4l15 81q24 -3 78 -3q134 0 243 90.5t135 223.5l25 130q7 39 7 63q0 111 -73 182.5
t-191 71.5q-102 0 -202.5 -52.5t-177.5 -148.5l-123 -638h-95z" />
    <glyph glyph-name="afii10052" unicode="&#x403;" horiz-adv-x="1048" 
d="M86 0l279 1434h797l-16 -83h-704l-262 -1351h-94zM691 1598l351 335h103l-353 -335h-101z" />
    <glyph glyph-name="afii10053" unicode="&#x404;" horiz-adv-x="1374" 
d="M729 59q236 0 454 159l37 -73q-235 -170 -507 -170q-269 0 -436.5 166t-167.5 424q0 74 15 152q40 206 169 376t316.5 267.5t390.5 97.5q257 0 427 -156l-64 -72q-161 144 -379 144q-169 0 -328 -82t-272 -223t-157 -311h804l-15 -83h-804q-6 -47 -6 -91
q0 -227 145.5 -376t377.5 -149z" />
    <glyph glyph-name="afii10054" unicode="&#x405;" horiz-adv-x="1179" 
d="M56 204l76 66q57 -93 155 -152t216 -59q170 0 296.5 84t152.5 216q6 28 6 56q0 212 -336 284q-181 39 -276.5 122.5t-95.5 204.5q0 31 6 64q32 160 172 264t330 104q242 0 391 -182l-72 -70q-135 168 -328 168q-153 0 -263 -78.5t-133 -198.5q-5 -27 -5 -48
q0 -99 85 -167t241 -103q382 -86 382 -340q0 -34 -8 -77q-33 -168 -187.5 -277.5t-367.5 -109.5q-143 0 -259 63.5t-178 165.5z" />
    <glyph glyph-name="afii10055" unicode="&#x406;" horiz-adv-x="571" 
d="M415 1434h94l-279 -1434h-94z" />
    <glyph glyph-name="afii10056" unicode="&#x407;" horiz-adv-x="571" 
d="M415 1434h94l-279 -1434h-94zM611 1709q8 32 33.5 52t56.5 20q29 0 46.5 -17.5t17.5 -44.5q0 -13 -3 -22q-9 -29 -34 -49.5t-56 -20.5q-28 0 -46 17.5t-18 43.5q0 10 3 21zM265 1709q8 32 33.5 52t56.5 20q29 0 46.5 -17.5t17.5 -44.5q0 -13 -3 -22q-9 -29 -34 -49.5
t-56 -20.5q-28 0 -46 17.5t-18 43.5q0 10 3 21z" />
    <glyph glyph-name="afii10057" unicode="&#x408;" horiz-adv-x="903" 
d="M615 412l199 1022h94l-198 -1022q-42 -216 -164 -326.5t-307 -110.5q-72 0 -144.5 19t-123.5 51l48 83q44 -31 109 -50t123 -19q141 0 235.5 89.5t128.5 263.5z" />
    <glyph glyph-name="afii10058" unicode="&#x409;" horiz-adv-x="2052" 
d="M1107 83h262q183 0 322 106.5t170 267.5q7 35 7 72q0 134 -96.5 217.5t-257.5 83.5h-262zM1356 0h-359l263 1351h-708l-209 -1077q-25 -130 -108 -204t-200 -74q-41 0 -75 4l15 82q28 -3 69 -3q76 0 130.5 48.5t73.5 144.5l226 1162h896l-101 -521h264q197 0 314 -102
t117 -265q0 -42 -9 -89q-38 -197 -206.5 -327t-392.5 -130z" />
    <glyph glyph-name="afii10059" unicode="&#x40a;" horiz-adv-x="2061" 
d="M86 0l279 1434h94l-131 -672h820l131 672h94l-101 -521h270q197 0 314 -102t117 -265q0 -42 -9 -89q-38 -197 -206.5 -327t-392.5 -130h-365l132 679h-821l-131 -679h-94zM1110 83h267q184 0 323 106.5t170 267.5q7 35 7 72q0 134 -96 217.5t-258 83.5h-268z" />
    <glyph glyph-name="afii10060" unicode="&#x40b;" horiz-adv-x="1494" 
d="M400 0l263 1351h-436l17 83h965l-16 -83h-436l-118 -605q73 78 176 127t207 49q150 0 243 -90t93 -229q0 -35 -8 -78l-102 -525h-94l101 522q7 39 7 63q0 111 -73 182.5t-191 71.5q-102 0 -202.5 -52.5t-177.5 -148.5l-123 -638h-95z" />
    <glyph glyph-name="afii10061" unicode="&#x40c;" horiz-adv-x="1200" 
d="M459 1434l-131 -672h195l632 672h112l-668 -712l471 -722h-114l-446 679h-199l-131 -679h-94l279 1434h94zM639 1551l351 335h103l-354 -335h-100z" />
    <glyph glyph-name="uni040D" unicode="&#x40d;" horiz-adv-x="1414" 
d="M1402 1434l-279 -1434h-92l246 1268l-1102 -1268h-89l279 1434h92l-247 -1268l1103 1268h89zM780 1886l222 -335h-100l-224 335h102z" />
    <glyph glyph-name="afii10062" unicode="&#x40e;" horiz-adv-x="1304" 
d="M435 207l149 205l-345 1022h104l311 -923l660 923h104l-907 -1267q-120 -167 -289 -167h-104l15 83h97q116 0 205 124zM853 1531q-116 0 -184.5 70.5t-68.5 182.5q0 29 4 53h86q-3 -23 -3 -46q0 -84 46.5 -135t133.5 -51q98 0 170.5 65.5t97.5 166.5h86
q-32 -132 -135 -219t-233 -87z" />
    <glyph glyph-name="afii10145" unicode="&#x40f;" horiz-adv-x="1368" 
d="M1356 1434l-279 -1434h-448l-57 -287h-94l57 287h-449l279 1434h94l-263 -1351h802l264 1351h94z" />
    <glyph glyph-name="afii10017" unicode="&#x410;" horiz-adv-x="1366" 
d="M1198 0h-105l-81 418h-701l-242 -418h-106l846 1434h100zM997 501l-159 823l-480 -823h639z" />
    <glyph glyph-name="afii10018" unicode="&#x411;" horiz-adv-x="1184" 
d="M86 0l279 1434h772l-17 -83h-678l-85 -438h280q197 0 314 -102t117 -265q0 -42 -9 -89q-38 -197 -206.5 -327t-392.5 -130h-374zM196 83h277q183 0 321.5 106.5t169.5 267.5q7 35 7 72q0 133 -96.5 217t-256.5 84h-277z" />
    <glyph glyph-name="afii10019" unicode="&#x412;" horiz-adv-x="1242" 
d="M583 0h-497l279 1434h462q157 0 246 -79t89 -209q0 -34 -8 -77q-23 -122 -108.5 -207t-197.5 -111q116 -17 190 -92t74 -193q0 -39 -7 -75q-34 -172 -179 -281.5t-343 -109.5zM1059 1066q6 30 6 60q0 103 -70.5 164t-190.5 61h-362l-110 -568h361q138 0 239.5 78
t126.5 205zM1010 393q6 33 6 62q0 113 -82.5 180t-223.5 67h-394l-120 -619h393q161 0 277.5 85.5t143.5 224.5z" />
    <glyph glyph-name="afii10020" unicode="&#x413;" horiz-adv-x="1048" 
d="M86 0l279 1434h797l-16 -83h-704l-262 -1351h-94z" />
    <glyph glyph-name="afii10021" unicode="&#x414;" horiz-adv-x="1318" 
d="M1161 83l-71 -370h-95l57 287h-990l-56 -287h-94l72 370h115q274 450 436 1279l14 72h737l-263 -1351h138zM202 83h727l247 1268h-550q-157 -810 -424 -1268z" />
    <glyph glyph-name="afii10022" unicode="&#x415;" horiz-adv-x="1133" 
d="M86 0l279 1434h795l-16 -83h-702l-114 -589h644l-17 -83h-644l-115 -596h719l-15 -83h-814z" />
    <glyph glyph-name="afii10024" unicode="&#x416;" horiz-adv-x="1847" 
d="M396 1434l350 -672h176l131 672h94l-131 -672h175l612 672h111l-649 -712l452 -722h-112l-427 679h-179l-131 -679h-94l131 679h-178l-689 -679h-113l733 722l-372 712h110z" />
    <glyph glyph-name="afii10025" unicode="&#x417;" horiz-adv-x="1058" 
d="M851 399q6 33 6 63q0 123 -91.5 201.5t-240.5 78.5h-159l16 80h165q135 0 240 80t128 198q6 34 6 50q0 98 -73 162t-189 64q-176 0 -328 -152l-48 60q174 174 397 174q149 0 241 -82.5t92 -209.5q0 -30 -6 -65q-21 -107 -105 -193.5t-203 -123.5q115 -33 183.5 -116
t68.5 -197q0 -38 -7 -73q-34 -178 -195.5 -300.5t-361.5 -122.5q-132 0 -234 59t-147 165l76 60q37 -96 122.5 -149t197.5 -53q160 0 290.5 99.5t158.5 242.5z" />
    <glyph glyph-name="afii10026" unicode="&#x418;" horiz-adv-x="1414" 
d="M1402 1434l-279 -1434h-92l246 1268l-1102 -1268h-89l279 1434h92l-247 -1268l1103 1268h89z" />
    <glyph glyph-name="afii10027" unicode="&#x419;" horiz-adv-x="1414" 
d="M1402 1434l-279 -1434h-92l246 1268l-1102 -1268h-89l279 1434h92l-247 -1268l1103 1268h89zM901 1531q-116 0 -184.5 70.5t-68.5 182.5q0 29 4 53h86q-3 -23 -3 -46q0 -84 46.5 -135t133.5 -51q98 0 170.5 65.5t97.5 166.5h86q-32 -132 -135 -219t-233 -87z" />
    <glyph glyph-name="afii10028" unicode="&#x41a;" horiz-adv-x="1200" 
d="M459 1434l-131 -672h195l632 672h112l-668 -712l471 -722h-114l-446 679h-199l-131 -679h-94l279 1434h94z" />
    <glyph glyph-name="afii10029" unicode="&#x41b;" horiz-adv-x="1422" 
d="M552 1351l-209 -1077q-25 -130 -108 -204t-200 -74q-41 0 -75 4l15 82q28 -3 69 -3q76 0 130.5 48.5t73.5 144.5l226 1162h936l-278 -1434h-95l262 1351h-747z" />
    <glyph glyph-name="afii10030" unicode="&#x41c;" horiz-adv-x="1710" 
d="M879 484h-66l-388 786l-247 -1270h-92l279 1434h88l414 -842l743 842h88l-279 -1434h-92l247 1270z" />
    <glyph glyph-name="afii10031" unicode="&#x41d;" horiz-adv-x="1398" 
d="M86 0l279 1434h94l-131 -672h833l131 672h94l-278 -1434h-94l131 679h-834l-131 -679h-94z" />
    <glyph glyph-name="afii10032" unicode="&#x41e;" horiz-adv-x="1640" 
d="M729 59q176 0 340 88t277.5 239t148.5 331q13 65 13 132q0 227 -146 376t-378 149q-176 0 -339.5 -88t-277 -238.5t-148.5 -330.5q-13 -65 -13 -132q0 -228 145.5 -377t377.5 -149zM1000 1458q269 0 437 -166t168 -425q0 -73 -15 -150q-30 -154 -114 -291.5
t-200.5 -236.5t-263.5 -156.5t-299 -57.5q-269 0 -436.5 166t-167.5 424q0 74 15 152q40 206 169 376t316.5 267.5t390.5 97.5z" />
    <glyph glyph-name="afii10033" unicode="&#x41f;" horiz-adv-x="1368" 
d="M1356 1434l-279 -1434h-94l262 1351h-803l-262 -1351h-94l279 1434h991z" />
    <glyph glyph-name="afii10034" unicode="&#x420;" horiz-adv-x="1165" 
d="M606 582h-313l-113 -582h-94l279 1434h407q192 0 302.5 -90t110.5 -246q0 -42 -9 -90q-37 -193 -193.5 -309.5t-376.5 -116.5zM1080 1008q7 36 7 71q0 126 -88.5 199t-244.5 73h-312l-133 -686h312q179 0 304 93.5t155 249.5z" />
    <glyph glyph-name="afii10035" unicode="&#x421;" horiz-adv-x="1374" 
d="M729 59q236 0 454 159l37 -73q-235 -170 -507 -170q-269 0 -436.5 166t-167.5 424q0 74 15 152q40 206 169 376t316.5 267.5t390.5 97.5q257 0 427 -156l-64 -72q-161 144 -379 144q-176 0 -339.5 -88t-277 -238.5t-148.5 -330.5q-13 -65 -13 -132q0 -228 145.5 -377
t377.5 -149z" />
    <glyph glyph-name="afii10036" unicode="&#x422;" horiz-adv-x="1101" 
d="M401 0l263 1351h-437l17 83h966l-16 -83h-436l-262 -1351h-95z" />
    <glyph glyph-name="afii10037" unicode="&#x423;" horiz-adv-x="1304" 
d="M435 207l149 205l-345 1022h104l311 -923l660 923h104l-907 -1267q-120 -167 -289 -167h-104l15 83h97q116 0 205 124z" />
    <glyph glyph-name="afii10038" unicode="&#x424;" horiz-adv-x="1507" 
d="M658 280l169 870q-221 0 -399 -127t-215 -308q-7 -34 -7 -71q0 -157 127 -260.5t325 -103.5zM698 0h-94l38 197q-232 0 -382 123t-150 310q0 39 8 85q28 142 134.5 261t264 188t327.5 69l39 201h94l-39 -201q232 0 381.5 -123t149.5 -310q0 -46 -8 -85
q-28 -142 -134 -261.5t-263 -188t-328 -68.5zM922 1150l-169 -870q145 0 278 58t222.5 158t112.5 219q7 34 7 70q0 157 -126.5 261t-324.5 104z" />
    <glyph glyph-name="afii10039" unicode="&#x425;" horiz-adv-x="1263" 
d="M63 0h-108l658 729l-361 705h108l325 -632l570 632h109l-636 -705l376 -729h-109l-339 656z" />
    <glyph glyph-name="afii10040" unicode="&#x426;" horiz-adv-x="1381" 
d="M1356 1434l-263 -1351h131l-72 -370h-94l56 287h-1028l279 1434h94l-263 -1351h802l264 1351h94z" />
    <glyph glyph-name="afii10041" unicode="&#x427;" horiz-adv-x="1220" 
d="M930 0h-94l134 694q-73 -78 -184 -130t-221 -52q-157 0 -255 95t-98 238q0 40 7 76l100 513h95l-100 -510q-6 -33 -6 -62q0 -115 78.5 -191t203.5 -76q107 0 215 55.5t186 152.5l123 631h94z" />
    <glyph glyph-name="afii10042" unicode="&#x428;" horiz-adv-x="1925" 
d="M1555 83l264 1351h94l-279 -1434h-1548l279 1434h94l-263 -1351h632l264 1351h94l-263 -1351h632z" />
    <glyph glyph-name="afii10043" unicode="&#x429;" horiz-adv-x="1937" 
d="M86 0l279 1434h94l-263 -1351h632l264 1351h94l-263 -1351h632l264 1351h94l-263 -1351h130l-72 -370h-94l56 287h-1584z" />
    <glyph glyph-name="afii10044" unicode="&#x42a;" horiz-adv-x="1429" 
d="M622 1351h-395l17 83h488l-101 -521h279q197 0 314 -102t117 -265q0 -42 -9 -89q-38 -197 -206.5 -327t-392.5 -130h-374zM469 83h277q183 0 322 106.5t170 267.5q7 35 7 72q0 134 -96 217.5t-257 83.5h-278z" />
    <glyph glyph-name="afii10045" unicode="&#x42b;" horiz-adv-x="1592" 
d="M196 83h277q183 0 322 106.5t170 267.5q7 35 7 72q0 134 -96.5 217.5t-257.5 83.5h-277zM1486 1434h94l-278 -1434h-95zM460 0h-374l279 1434h94l-102 -521h280q197 0 314 -102t117 -265q0 -42 -9 -89q-38 -197 -206.5 -327t-392.5 -130z" />
    <glyph glyph-name="afii10046" unicode="&#x42c;" horiz-adv-x="1156" 
d="M196 83h277q183 0 322 106.5t170 267.5q7 35 7 72q0 134 -96.5 217.5t-257.5 83.5h-277zM460 0h-374l279 1434h94l-102 -521h280q197 0 314 -102t117 -265q0 -42 -9 -89q-38 -197 -206.5 -327t-392.5 -130z" />
    <glyph glyph-name="afii10047" unicode="&#x42d;" horiz-adv-x="1374" 
d="M463 59q169 0 327.5 82t271.5 223t157 311h-803l15 83h803q6 48 6 93q0 149 -65 268t-184.5 187t-272.5 68q-219 0 -434 -144l-36 72q227 156 486 156q269 0 436.5 -166t167.5 -425q0 -79 -14 -150q-40 -206 -170 -376.5t-317.5 -268t-390.5 -97.5q-135 0 -248 44.5
t-193 125.5l66 73q156 -159 392 -159z" />
    <glyph glyph-name="afii10048" unicode="&#x42e;" horiz-adv-x="2104" 
d="M311 676l-131 -676h-94l279 1434h94l-131 -675h270q48 196 177 356t311 251.5t378 91.5q269 0 436.5 -166t167.5 -425q0 -79 -14 -150q-30 -154 -114 -291.5t-200.5 -236.5t-263.5 -156.5t-299 -57.5q-269 0 -436.5 165.5t-167.5 423.5q0 44 9 112h-271zM1193 59
q176 0 340 88t277.5 239t148.5 331q13 65 13 132q0 227 -146 376t-378 149q-176 0 -339.5 -88t-277 -238.5t-148.5 -330.5q-13 -65 -13 -132q0 -228 145.5 -377t377.5 -149z" />
    <glyph glyph-name="afii10049" unicode="&#x42f;" horiz-adv-x="1201" 
d="M633 582l-532 -582h-106l536 587q-155 20 -241.5 107t-86.5 224q0 42 9 90q37 193 193 309.5t376 116.5h408l-279 -1434h-94l113 582h-296zM307 1008q-7 -36 -7 -72q0 -125 88.5 -198t245.5 -73h311l133 686h-311q-179 0 -304.5 -94t-155.5 -249z" />
    <glyph glyph-name="afii10065" unicode="&#x430;" horiz-adv-x="1296" 
d="M997 299l90 463q-46 112 -137.5 176t-221.5 64q-194 0 -354.5 -140t-197.5 -332q-9 -48 -9 -92q0 -162 104.5 -271t273.5 -109q130 0 246 64t206 177zM734 1085q127 0 224.5 -54.5t151.5 -151.5l36 182h92l-206 -1061h-92l35 182q-92 -97 -211 -152t-246 -55
q-201 0 -323 128t-122 319q0 55 10 108q29 148 123 275t234.5 203.5t293.5 76.5z" />
    <glyph glyph-name="afii10066" unicode="&#x431;" horiz-adv-x="1219" 
d="M109 551q32 165 71.5 290t96 229t128.5 176.5t169.5 125.5t218.5 82t277 41l-3 -83q-137 -11 -242.5 -35t-189 -65.5t-145 -95.5t-109 -132t-81.5 -167.5t-63 -209.5q94 109 219.5 175t264.5 66q182 0 297 -110.5t115 -280.5q0 -40 -10 -95q-26 -135 -115 -246.5
t-219.5 -176t-275.5 -64.5q-194 0 -306.5 117.5t-112.5 314.5q0 69 15 144zM210 592l-8 -41q-14 -72 -14 -131q0 -165 89 -263.5t252 -98.5q178 0 323 117t178 287q8 43 8 79q0 142 -95.5 233t-246.5 91q-135 0 -259 -73.5t-227 -199.5z" />
    <glyph glyph-name="afii10067" unicode="&#x432;" horiz-adv-x="1037" 
d="M471 0h-412l206 1061h384q127 0 207 -64.5t80 -162.5q0 -24 -4 -43q-16 -80 -80 -142.5t-151 -92.5q84 -19 135.5 -80t51.5 -141q0 -25 -4 -45q-24 -122 -143 -206t-270 -84zM265 589h288q105 0 187 56t98 139q3 16 3 32q0 71 -58.5 117.5t-152.5 46.5h-288zM167 81h316
q114 0 203 61.5t106 152.5q3 18 3 36q0 78 -64 128.5t-165 50.5h-316z" />
    <glyph glyph-name="afii10068" unicode="&#x433;" horiz-adv-x="825" 
d="M862 978h-521l-189 -978h-93l206 1061h614z" />
    <glyph glyph-name="afii10069" unicode="&#x434;" horiz-adv-x="1103" 
d="M957 82l-58 -299h-92l43 217h-801l-43 -217h-92l58 299h111q229 344 353 979h565l-190 -979h146zM182 82h538l174 897h-385q-48 -246 -132 -485t-195 -412z" />
    <glyph glyph-name="afii10070" unicode="&#x435;" horiz-adv-x="1226" 
d="M173 507q-6 -39 -6 -79q0 -161 102 -266.5t275 -105.5q109 0 214.5 48t192.5 135l53 -61q-94 -95 -218.5 -149t-256.5 -54q-210 0 -333.5 125t-123.5 318q0 51 11 112q29 150 123 277t233.5 202.5t292.5 75.5q195 0 311.5 -116.5t116.5 -299.5q0 -56 -10 -109
q-4 -22 -15 -53h-962zM716 1005q-174 0 -324 -122.5t-201 -296.5h869q4 29 4 63q0 158 -95 257t-253 99z" />
    <glyph glyph-name="afii10072" unicode="&#x436;" horiz-adv-x="1585" 
d="M1348 0l-331 528h-178l-103 -528h-92l102 528h-178l-535 -528h-111l576 569l-315 492h113l288 -452h178l88 452h92l-88 -452h178l464 452h113l-505 -492l354 -569h-110z" />
    <glyph glyph-name="afii10073" unicode="&#x437;" horiz-adv-x="961" 
d="M376 57q134 0 239 69t125 168q3 18 3 36q0 87 -77 143.5t-198 56.5h-152l16 79h157q114 0 203 57t106 141q3 15 3 30q0 73 -66 120.5t-169 47.5q-88 0 -170 -39t-134 -112l-66 47q66 88 168.5 136t218.5 48q137 0 224 -65.5t87 -165.5q0 -24 -4 -43q-15 -81 -85 -146
t-177 -94q89 -22 149 -84.5t60 -149.5q0 -15 -6 -47q-17 -87 -85 -159.5t-170.5 -114t-215.5 -41.5q-247 0 -356 184l76 54q98 -156 296 -156z" />
    <glyph glyph-name="afii10074" unicode="&#x438;" horiz-adv-x="1229" 
d="M1171 1061l-205 -1061h-90l179 926l-907 -926h-89l206 1061h90l-180 -926l907 926h89z" />
    <glyph glyph-name="afii10075" unicode="&#x439;" horiz-adv-x="1229" 
d="M1171 1061l-205 -1061h-90l179 926l-907 -926h-89l206 1061h90l-180 -926l907 926h89zM744 1199q-116 0 -184 70.5t-68 182.5q0 29 4 53h86q-3 -23 -3 -46q0 -84 46.5 -135t133.5 -51q98 0 170 65.5t97 166.5h86q-32 -132 -135 -219t-233 -87z" />
    <glyph glyph-name="afii10076" unicode="&#x43a;" horiz-adv-x="1031" 
d="M792 0l-345 534h-192l-103 -534h-93l206 1061h92l-87 -447h194l476 447h115l-518 -487l367 -574h-112z" />
    <glyph glyph-name="afii10077" unicode="&#x43b;" horiz-adv-x="1247" 
d="M212 256l157 805h820l-206 -1061h-92l189 978h-636l-141 -726q-23 -116 -103 -186.5t-181 -70.5q-38 0 -71 5l15 82q27 -3 60 -3q69 0 120.5 46.5t68.5 130.5z" />
    <glyph glyph-name="afii10078" unicode="&#x43c;" horiz-adv-x="1354" 
d="M353 1061l304 -633l551 633h88l-205 -1061h-91l178 912l-509 -581h-61l-281 581l-177 -912h-91l206 1061h88z" />
    <glyph glyph-name="afii10079" unicode="&#x43d;" horiz-adv-x="1229" 
d="M1171 1061l-205 -1061h-93l99 507h-722l-98 -507h-93l206 1061h92l-92 -471h722l92 471h92z" />
    <glyph glyph-name="afii10080" unicode="&#x43e;" horiz-adv-x="1271" 
d="M545 58q96 0 189.5 38.5t166.5 102.5t125 150.5t70 180.5q9 48 9 93q0 162 -104 270.5t-273 108.5q-194 0 -354.5 -140t-197.5 -332q-9 -48 -9 -92q0 -162 104.5 -271t273.5 -109zM744 1085q206 0 330.5 -127t124.5 -319q0 -56 -10 -109q-22 -111 -83.5 -213t-149 -177.5
t-199.5 -120t-229 -44.5q-206 0 -330.5 127t-124.5 320q0 55 10 108q22 111 83.5 213t149 177.5t199.5 120t229 44.5z" />
    <glyph glyph-name="afii10081" unicode="&#x43f;" horiz-adv-x="1229" 
d="M1171 1061l-205 -1061h-93l190 978h-722l-189 -978h-93l206 1061h906z" />
    <glyph glyph-name="afii10082" unicode="&#x440;" horiz-adv-x="1296" 
d="M299 762l-90 -463q47 -113 138.5 -177t221.5 -64q96 0 189.5 38.5t166.5 102.5t125 150.5t70 180.5q9 48 9 93q0 162 -103.5 270.5t-272.5 108.5q-130 0 -246.5 -63.5t-207.5 -176.5zM779 1085q201 0 323.5 -127t122.5 -317q0 -46 -12 -111q-28 -148 -122.5 -275
t-234.5 -203.5t-293 -76.5q-127 0 -225 55t-152 152l-128 -657h-92l299 1536h92l-35 -182q91 97 210.5 151.5t246.5 54.5z" />
    <glyph glyph-name="afii10083" unicode="&#x441;" horiz-adv-x="1111" 
d="M528 -25q-206 0 -330.5 127t-124.5 320q0 55 10 108q22 111 83.5 213t149 177.5t199.5 120t229 44.5q223 0 351 -149l-63 -75q-114 141 -304 141q-194 0 -354.5 -140t-197.5 -332q-9 -48 -9 -92q0 -162 104.5 -271t273.5 -109q100 0 196.5 41t176.5 114l43 -69
q-91 -80 -203 -124.5t-230 -44.5z" />
    <glyph glyph-name="afii10084" unicode="&#x442;" horiz-adv-x="950" 
d="M516 978h-379l17 83h850l-17 -83h-379l-189 -978h-92z" />
    <glyph glyph-name="afii10085" unicode="&#x443;" horiz-adv-x="1062" 
d="M88 -475l299 488l-242 1048h101l213 -928l565 928h100l-936 -1536h-100z" />
    <glyph glyph-name="afii10086" unicode="&#x444;" horiz-adv-x="2177" 
d="M1067 182l-128 -657h-92l128 657q-92 -97 -211 -152t-246 -55q-201 0 -323 128t-122 319q0 55 10 108q29 148 123 275t234.5 203.5t293.5 76.5q127 0 224.5 -54.5t151.5 -151.5l120 616h92l-120 -616q91 97 211 151.5t247 54.5q201 0 323 -127t122 -317q0 -51 -11 -111
q-28 -148 -122.5 -275t-234.5 -203.5t-293 -76.5q-127 0 -225 55t-152 152zM997 299l90 463q-46 112 -137.5 176t-221.5 64q-194 0 -354.5 -140t-197.5 -332q-9 -48 -9 -92q0 -162 104.5 -271t273.5 -109q130 0 246 64t206 177zM1180 762l-90 -463q47 -113 138.5 -177
t221.5 -64q96 0 189.5 38.5t166.5 102.5t125 150.5t70 180.5q9 48 9 93q0 162 -104 270.5t-273 108.5q-130 0 -246 -63.5t-207 -176.5z" />
    <glyph glyph-name="afii10087" unicode="&#x445;" horiz-adv-x="1047" 
d="M47 0h-107l529 545l-297 516h108l259 -451l436 451h107l-497 -516l318 -545h-107l-283 479z" />
    <glyph glyph-name="afii10088" unicode="&#x446;" horiz-adv-x="1258" 
d="M948 -287l57 287h-946l206 1061h92l-190 -978h722l190 978h92l-190 -978h131l-72 -370h-92z" />
    <glyph glyph-name="afii10089" unicode="&#x447;" horiz-adv-x="1099" 
d="M743 0l101 518q-75 -99 -176 -161t-216 -62q-139 0 -226.5 89.5t-87.5 227.5q0 45 8 84l71 365h92l-70 -362q-8 -48 -8 -67q0 -111 69 -182.5t179 -71.5q221 0 389 268l81 415h92l-205 -1061h-93z" />
    <glyph glyph-name="afii10090" unicode="&#x448;" horiz-adv-x="1587" 
d="M1529 1061l-206 -1061h-1264l206 1061h92l-190 -978h493l191 978h92l-190 -978h493l191 978h92z" />
    <glyph glyph-name="afii10091" unicode="&#x449;" horiz-adv-x="1615" 
d="M59 0l206 1061h92l-190 -978h493l191 978h92l-190 -978h493l191 978h92l-191 -978h131l-71 -370h-92l56 287h-1303z" />
    <glyph glyph-name="afii10092" unicode="&#x44a;" horiz-adv-x="1197" 
d="M654 0h-385l191 980h-322l16 81h413l-70 -363h293q138 0 225 -80.5t87 -203.5q0 -31 -6 -65q-29 -147 -156.5 -248t-285.5 -101zM1004 349q5 28 5 49q0 95 -67 157t-173 62h-288l-104 -536h288q121 0 219 77t120 191z" />
    <glyph glyph-name="afii10093" unicode="&#x44b;" horiz-adv-x="1378" 
d="M444 0h-385l206 1061h92l-70 -363h293q138 0 225 -80.5t87 -203.5q0 -31 -6 -65q-29 -147 -156.5 -248t-285.5 -101zM794 349q5 28 5 49q0 95 -67 157t-173 62h-288l-104 -536h288q121 0 219 77t120 191zM1022 0l206 1061h92l-206 -1061h-92z" />
    <glyph glyph-name="afii10094" unicode="&#x44c;" horiz-adv-x="987" 
d="M444 0h-385l206 1061h92l-70 -363h293q138 0 225 -80.5t87 -203.5q0 -31 -6 -65q-29 -147 -156.5 -248t-285.5 -101zM794 349q5 28 5 49q0 95 -67 157t-173 62h-288l-104 -536h288q121 0 219 77t120 191z" />
    <glyph glyph-name="afii10095" unicode="&#x44d;" horiz-adv-x="1111" 
d="M368 -25q-118 0 -212.5 44.5t-154.5 124.5l70 69q53 -73 133 -114t180 -41q183 0 337.5 126t204.5 306h-592l15 79h592q3 26 3 54q0 162 -104 270.5t-273 108.5q-191 0 -359 -141l-34 75q188 149 410 149q206 0 330 -127t124 -319q0 -56 -10 -109q-29 -149 -124.5 -276
t-238 -203t-297.5 -76z" />
    <glyph glyph-name="afii10096" unicode="&#x44e;" horiz-adv-x="1639" 
d="M1112 1085q206 0 330.5 -127t124.5 -319q0 -51 -11 -109q-29 -149 -124.5 -276t-238 -203t-297.5 -76q-206 0 -331.5 127.5t-125.5 320.5q0 35 4 66h-197l-94 -489h-93l206 1061h92l-95 -489h198q58 215 243 364t409 149zM912 58q96 0 189.5 38.5t166.5 102.5t125 150.5
t70 180.5q10 53 10 93q0 162 -104 270.5t-273 108.5q-194 0 -354.5 -140t-197.5 -332q-9 -48 -9 -92q0 -162 104 -271t273 -109z" />
    <glyph glyph-name="afii10097" unicode="&#x44f;" horiz-adv-x="1100" 
d="M821 395h-346l-390 -395h-107l399 404q-108 23 -172.5 94.5t-64.5 170.5q0 29 6 59q27 140 157.5 236.5t293.5 96.5h445l-205 -1061h-93zM485 476h352l98 504h-351q-125 0 -224 -72.5t-121 -179.5q-6 -30 -6 -45q0 -91 70.5 -149t181.5 -58z" />
    <glyph glyph-name="uni0450" unicode="&#x450;" horiz-adv-x="1226" 
d="M173 507q-6 -39 -6 -79q0 -161 102 -266.5t275 -105.5q109 0 214.5 48t192.5 135l53 -61q-94 -95 -218.5 -149t-256.5 -54q-210 0 -333.5 125t-123.5 318q0 51 11 112q29 150 123 277t233.5 202.5t292.5 75.5q195 0 311.5 -116.5t116.5 -299.5q0 -56 -10 -109
q-4 -22 -15 -53h-962zM716 1005q-174 0 -324 -122.5t-201 -296.5h869q4 29 4 63q0 158 -95 257t-253 99zM640 1554l222 -334h-100l-224 334h102z" />
    <glyph glyph-name="afii10071" unicode="&#x451;" horiz-adv-x="1226" 
d="M173 507q-6 -39 -6 -79q0 -161 102 -266.5t275 -105.5q109 0 214.5 48t192.5 135l53 -61q-94 -95 -218.5 -149t-256.5 -54q-210 0 -333.5 125t-123.5 318q0 51 11 112q29 150 123 277t233.5 202.5t292.5 75.5q195 0 311.5 -116.5t116.5 -299.5q0 -56 -10 -109
q-4 -22 -15 -53h-962zM716 1005q-174 0 -324 -122.5t-201 -296.5h869q4 29 4 63q0 158 -95 257t-253 99zM874 1377q8 31 33.5 51.5t57.5 20.5q29 0 46 -17t17 -44q0 -14 -3 -23q-9 -29 -34 -49.5t-56 -20.5q-28 0 -46 17.5t-18 43.5q0 10 3 21zM528 1377q8 32 33.5 52
t56.5 20q29 0 46.5 -17t17.5 -44q0 -14 -3 -23q-9 -29 -34 -49.5t-56 -20.5q-28 0 -46 17.5t-18 43.5q0 10 3 21z" />
    <glyph glyph-name="afii10099" unicode="&#x452;" horiz-adv-x="1266" 
d="M179 1229l15 75h174l36 191h93l-37 -191h401l-14 -75h-402l-79 -410q204 266 451 266q155 0 248.5 -91t93.5 -236q0 -47 -8 -87l-153 -787q-35 -176 -138.5 -267.5t-272.5 -91.5q-42 0 -94 8l15 81q38 -7 94 -7q249 0 304 279l152 779q7 34 7 69q0 118 -76 193t-203 75
q-227 0 -443 -300l-136 -702h-92l238 1229h-174z" />
    <glyph glyph-name="afii10100" unicode="&#x453;" horiz-adv-x="825" 
d="M862 978h-521l-189 -978h-93l206 1061h614zM423 1220l351 334h103l-354 -334h-100z" />
    <glyph glyph-name="afii10101" unicode="&#x454;" horiz-adv-x="1111" 
d="M528 -25q-206 0 -330.5 127t-124.5 320q0 55 10 108q22 111 83.5 213t149 177.5t199.5 120t229 44.5q223 0 351 -149l-63 -75q-114 141 -304 141q-184 0 -338.5 -126.5t-204.5 -306.5h593l-15 -79h-593q-3 -25 -3 -52q0 -162 104.5 -271t273.5 -109q100 0 196.5 41
t176.5 114l43 -69q-91 -80 -203 -124.5t-230 -44.5z" />
    <glyph glyph-name="afii10102" unicode="&#x455;" horiz-adv-x="934" 
d="M9 152l66 66q44 -75 123.5 -118.5t182.5 -43.5q130 0 220 60t109 156q3 18 3 35q0 75 -67 128t-190 77q-145 28 -218.5 91t-73.5 153q0 20 5 47q23 119 137 200.5t267 81.5q197 0 309 -137l-64 -65q-101 122 -256 122q-114 0 -199 -59t-102 -144q-3 -14 -3 -28
q0 -65 62 -113t180 -72q149 -29 228 -95t79 -167q0 -32 -5 -56q-25 -130 -141.5 -213t-290.5 -83q-125 0 -216.5 47.5t-144.5 129.5z" />
    <glyph glyph-name="afii10103" unicode="&#x456;" horiz-adv-x="523" 
d="M113 0l205 1061h93l-206 -1061h-92zM351 1380q8 30 33.5 49.5t55.5 19.5q29 0 46 -16t17 -44q0 -12 -2 -21q-7 -32 -33 -52t-57 -20q-28 0 -45.5 17t-17.5 44q0 13 3 23z" />
    <glyph glyph-name="afii10104" unicode="&#x457;" horiz-adv-x="523" 
d="M113 0l205 1061h93l-206 -1061h-92zM523 1377q8 32 33.5 52t56.5 20q29 0 46.5 -17t17.5 -44q0 -14 -3 -23q-9 -29 -34 -49.5t-56 -20.5q-28 0 -46 17.5t-18 43.5q0 10 3 21zM177 1377q8 32 33.5 52t56.5 20q29 0 46.5 -17t17.5 -44q0 -14 -3 -23q-9 -29 -34 -49.5
t-56 -20.5q-28 0 -46 17.5t-18 43.5q0 10 3 21z" />
    <glyph glyph-name="afii10105" unicode="&#x458;" horiz-adv-x="523" 
d="M74 -200l244 1261h93l-245 -1260q-27 -136 -107.5 -206t-196.5 -70q-46 0 -75 4l15 81q28 -3 69 -3q76 0 130 48.5t73 144.5zM351 1380q8 30 33.5 49.5t55.5 19.5q29 0 46 -16t17 -44q0 -12 -2 -21q-7 -32 -33 -52t-57 -20q-28 0 -45.5 17t-17.5 44q0 13 3 23z" />
    <glyph glyph-name="afii10106" unicode="&#x459;" horiz-adv-x="1762" 
d="M444 978l-141 -726q-23 -116 -103 -186.5t-181 -70.5q-38 0 -71 5l15 82q27 -3 60 -3q69 0 120.5 46.5t68.5 130.5l157 805h779l-71 -363h278q138 0 225 -80.5t87 -203.5q0 -31 -6 -65q-29 -147 -156 -248t-285 -101h-370l189 978h-595zM957 81h273q121 0 219 77t120 191
q5 28 5 49q0 95 -67 157t-173 62h-272z" />
    <glyph glyph-name="afii10107" unicode="&#x45a;" horiz-adv-x="1744" 
d="M1202 0h-369l98 507h-681l-98 -507h-93l206 1061h92l-92 -471h681l92 471h92l-70 -363h277q138 0 225.5 -80.5t87.5 -203.5q0 -31 -6 -65q-29 -147 -156.5 -248t-285.5 -101zM1551 349q5 28 5 49q0 95 -66.5 157t-172.5 62h-273l-104 -536h272q121 0 219 77t120 191z" />
    <glyph glyph-name="afii10108" unicode="&#x45b;" horiz-adv-x="1266" 
d="M179 1229l15 75h174l36 191h93l-37 -191h401l-14 -75h-402l-79 -410q204 266 451 266q155 0 248.5 -91t93.5 -236q0 -47 -8 -87l-130 -671h-92l129 665q7 34 7 69q0 118 -76 193t-203 75q-227 0 -443 -300l-136 -702h-92l238 1229h-174z" />
    <glyph glyph-name="afii10109" unicode="&#x45c;" horiz-adv-x="1031" 
d="M792 0l-345 534h-192l-103 -534h-93l206 1061h92l-87 -447h194l476 447h115l-518 -487l367 -574h-112zM498 1220l351 334h102l-353 -334h-100z" />
    <glyph glyph-name="uni045D" unicode="&#x45d;" horiz-adv-x="1229" 
d="M1171 1061l-205 -1061h-90l179 926l-907 -926h-89l206 1061h90l-180 -926l907 926h89zM627 1554l222 -334h-100l-225 334h103z" />
    <glyph glyph-name="afii10110" unicode="&#x45e;" horiz-adv-x="1062" 
d="M88 -475l299 488l-242 1048h101l213 -928l565 928h100l-936 -1536h-100zM663 1199q-116 0 -184.5 70.5t-68.5 182.5q0 29 4 53h86q-3 -23 -3 -46q0 -84 46.5 -135t133.5 -51q98 0 170 65.5t97 166.5h86q-32 -132 -134.5 -219t-232.5 -87z" />
    <glyph glyph-name="afii10193" unicode="&#x45f;" horiz-adv-x="1230" 
d="M1172 1061l-205 -1061h-408l-56 -287h-92l56 287h-408l206 1061h92l-190 -978h723l190 978h92z" />
    <glyph glyph-name="afii10050" unicode="&#x490;" horiz-adv-x="1048" 
d="M86 0l279 1434h703l55 286h95l-72 -369h-704l-262 -1351h-94z" />
    <glyph glyph-name="afii10098" unicode="&#x491;" horiz-adv-x="825" 
d="M862 978h-521l-189 -978h-93l206 1061h521l56 287h92z" />
    <glyph glyph-name="Wgrave" unicode="&#x1e80;" horiz-adv-x="1927" 
d="M1089 1434h102l124 -1298l625 1298h101l-699 -1434h-102l-126 1303l-632 -1303h-102l-141 1434h100l120 -1298zM1062 1886l222 -335h-100l-225 335h103z" />
    <glyph glyph-name="wgrave" unicode="&#x1e81;" horiz-adv-x="1564" 
d="M839 1061h94l110 -922l483 922h100l-562 -1061h-94l-111 923l-469 -923h-94l-151 1061h101l124 -922zM796 1554l222 -334h-100l-225 334h103z" />
    <glyph glyph-name="Wacute" unicode="&#x1e82;" horiz-adv-x="1927" 
d="M1089 1434h102l124 -1298l625 1298h101l-699 -1434h-102l-126 1303l-632 -1303h-102l-141 1434h100l120 -1298zM1044 1551l352 335h102l-353 -335h-101z" />
    <glyph glyph-name="wacute" unicode="&#x1e83;" horiz-adv-x="1564" 
d="M839 1061h94l110 -922l483 922h100l-562 -1061h-94l-111 923l-469 -923h-94l-151 1061h101l124 -922zM815 1220l351 334h103l-354 -334h-100z" />
    <glyph glyph-name="Wdieresis" unicode="&#x1e84;" horiz-adv-x="1927" 
d="M1089 1434h102l124 -1298l625 1298h101l-699 -1434h-102l-126 1303l-632 -1303h-102l-141 1434h100l120 -1298zM1289 1709q8 32 33.5 52t56.5 20q29 0 46.5 -17.5t17.5 -44.5q0 -13 -3 -22q-9 -29 -34 -49.5t-56 -20.5q-28 0 -46 17.5t-18 43.5q0 10 3 21zM943 1709
q8 32 33.5 52t56.5 20q29 0 46.5 -17.5t17.5 -44.5q0 -13 -3 -22q-9 -29 -34 -49.5t-56 -20.5q-28 0 -46 17.5t-18 43.5q0 10 3 21z" />
    <glyph glyph-name="wdieresis" unicode="&#x1e85;" horiz-adv-x="1564" 
d="M839 1061h94l110 -922l483 922h100l-562 -1061h-94l-111 923l-469 -923h-94l-151 1061h101l124 -922zM1043 1377q8 31 33.5 51.5t57.5 20.5q29 0 46 -17t17 -44q0 -14 -3 -23q-9 -29 -34 -49.5t-56 -20.5q-28 0 -46 17.5t-18 43.5q0 10 3 21zM697 1377q8 32 33.5 52
t56.5 20q29 0 46.5 -17t17.5 -44q0 -14 -3 -23q-9 -29 -34 -49.5t-56 -20.5q-28 0 -46 17.5t-18 43.5q0 10 3 21z" />
    <glyph glyph-name="Ygrave" unicode="&#x1ef2;" horiz-adv-x="1304" 
d="M346 1434l336 -752l629 752h107l-707 -846l-114 -588h-94l113 588l-377 846h107zM724 1886l222 -335h-100l-224 335h102z" />
    <glyph glyph-name="ygrave" unicode="&#x1ef3;" horiz-adv-x="1062" 
d="M88 -475l299 488l-242 1048h101l213 -928l565 928h100l-936 -1536h-100zM536 1554l222 -334h-101l-224 334h103z" />
    <glyph glyph-name="thinspace" unicode="&#x2009;" horiz-adv-x="409" 
 />
    <glyph glyph-name="uni2010" unicode="&#x2010;" horiz-adv-x="806" 
d="M710 637h-572l18 86h571z" />
    <glyph glyph-name="figuredash" unicode="&#x2012;" horiz-adv-x="1228" 
d="M1147 637h-1024l17 86h1024z" />
    <glyph glyph-name="endash" unicode="&#x2013;" horiz-adv-x="1024" 
d="M1044 637h-1024l18 86h1024z" />
    <glyph glyph-name="emdash" unicode="&#x2014;" horiz-adv-x="2048" 
d="M2068 637h-2048l18 86h2048z" />
    <glyph glyph-name="afii00208" unicode="&#x2015;" horiz-adv-x="2048" 
d="M1864 637h-1639l18 86h1638z" />
    <glyph glyph-name="uni2016" unicode="&#x2016;" horiz-adv-x="921" 
d="M87 -287l354 1823h88l-354 -1823h-88zM429 -287l354 1823h88l-354 -1823h-88z" />
    <glyph glyph-name="underscoredbl" unicode="&#x2017;" horiz-adv-x="1228" 
d="M-84 -428l15 78h1024l-15 -78h-1024zM-30 -150l16 78h1024l-16 -78h-1024z" />
    <glyph glyph-name="quoteleft" unicode="&#x2018;" horiz-adv-x="595" 
d="M518 1257q0 -16 -5 -30q-11 -29 -36.5 -48t-56.5 -19q-30 0 -48.5 18t-18.5 46q0 26 16 52l166 262h71l-137 -218q49 -11 49 -63z" />
    <glyph glyph-name="quoteright" unicode="&#x2019;" horiz-adv-x="595" 
d="M396 1441q0 16 5 30q11 29 37 48t57 19q30 0 48 -17.5t18 -45.5q0 -29 -15 -53l-166 -262h-72l137 218q-49 11 -49 63z" />
    <glyph glyph-name="quotesinglbase" unicode="&#x201a;" horiz-adv-x="595" 
d="M124 40q0 17 5 31q11 29 36.5 47.5t56.5 18.5q30 0 48.5 -17.5t18.5 -45.5q0 -26 -16 -52l-165 -263h-72l137 218q-49 11 -49 63z" />
    <glyph glyph-name="quotereversed" unicode="&#x201b;" horiz-adv-x="595" 
d="M558 1452q-6 -27 -26.5 -47t-51.5 -27l54 -218h-72l-64 258q-3 12 -3 21q0 10 3 22q8 33 35 55t61 22q30 0 48.5 -17.5t18.5 -46.5q0 -10 -3 -22z" />
    <glyph glyph-name="quotedblleft" unicode="&#x201c;" horiz-adv-x="868" 
d="M791 1257q0 -13 -6 -30q-11 -29 -36.5 -48t-56.5 -19q-30 0 -48 18t-18 46t15 52l166 262h72l-138 -218q50 -11 50 -63zM518 1257q0 -16 -5 -30q-11 -29 -36.5 -48t-56.5 -19q-30 0 -48.5 18t-18.5 46q0 26 16 52l166 262h71l-137 -218q49 -11 49 -63z" />
    <glyph glyph-name="quotedblright" unicode="&#x201d;" horiz-adv-x="868" 
d="M669 1441q0 16 5 30q11 29 36.5 48t56.5 19q30 0 48.5 -17.5t18.5 -45.5q0 -27 -16 -53l-166 -262h-71l137 218q-49 11 -49 63zM396 1441q0 16 5 30q11 29 37 48t57 19q30 0 48 -17.5t18 -45.5q0 -29 -15 -53l-166 -262h-72l137 218q-49 11 -49 63z" />
    <glyph glyph-name="quotedblbase" unicode="&#x201e;" horiz-adv-x="868" 
d="M124 40q0 17 5 31q11 29 36.5 47.5t56.5 18.5q30 0 48.5 -17.5t18.5 -45.5q0 -26 -16 -52l-165 -263h-72l137 218q-49 11 -49 63zM396 40q0 17 5 31q10 29 36.5 47.5t57.5 18.5q30 0 48 -17.5t18 -45.5t-15 -52l-166 -263h-72l137 218q-49 11 -49 63z" />
    <glyph glyph-name="uni201F" unicode="&#x201f;" horiz-adv-x="868" 
d="M558 1452q-6 -27 -26.5 -47t-51.5 -27l54 -218h-72l-64 258q-3 12 -3 21q0 10 3 22q8 33 35 55t61 22q30 0 48.5 -17.5t18.5 -46.5q0 -10 -3 -22zM830 1452q-14 -60 -77 -74l53 -218h-72l-63 258q-3 12 -3 21q0 10 3 22q8 33 34.5 55t60.5 22q30 0 49 -18t19 -46
q0 -6 -4 -22z" />
    <glyph glyph-name="dagger" unicode="&#x2020;" horiz-adv-x="1146" 
d="M372 -268l257 1323h-369l15 83h369l77 394h94l-77 -394h369l-15 -83h-369l-257 -1323h-94z" />
    <glyph glyph-name="daggerdbl" unicode="&#x2021;" horiz-adv-x="1146" 
d="M464 209l165 846h-369l15 83h369l77 394h94l-77 -394h369l-15 -83h-369l-165 -846h369l-17 -83h-368l-76 -394h-94l75 394h-368l16 83h369z" />
    <glyph glyph-name="bullet" unicode="&#x2022;" horiz-adv-x="819" 
d="M430 458q-95 0 -159.5 64t-64.5 158q0 93 65 157.5t159 64.5t159 -64.5t65 -157.5q0 -94 -64.5 -158t-159.5 -64z" />
    <glyph glyph-name="onedotenleader" unicode="&#x2024;" horiz-adv-x="595" 
d="M126 61q8 32 35 54t61 22q30 0 48.5 -17.5t18.5 -44.5q0 -14 -3 -24q-8 -33 -35.5 -54.5t-60.5 -21.5q-30 0 -48.5 18t-18.5 47q0 10 3 21z" />
    <glyph glyph-name="twodotenleader" unicode="&#x2025;" horiz-adv-x="1191" 
d="M126 61q8 32 35 54t61 22q30 0 48.5 -17.5t18.5 -44.5q0 -14 -3 -24q-8 -33 -35.5 -54.5t-60.5 -21.5q-30 0 -48.5 18t-18.5 47q0 10 3 21zM722 61q8 32 35 54t61 22q30 0 48.5 -17.5t18.5 -44.5q0 -14 -3 -24q-8 -33 -35.5 -54.5t-60.5 -21.5q-30 0 -48.5 18t-18.5 47
q0 10 3 21z" />
    <glyph glyph-name="ellipsis" unicode="&#x2026;" horiz-adv-x="1787" 
d="M126 61q8 32 35 54t61 22q30 0 48.5 -17.5t18.5 -44.5q0 -14 -3 -24q-8 -33 -35.5 -54.5t-60.5 -21.5q-30 0 -48.5 18t-18.5 47q0 10 3 21zM1318 61q8 32 35 54t61 22q30 0 48.5 -17.5t18.5 -44.5q0 -14 -3 -24q-8 -33 -35.5 -54.5t-60.5 -21.5q-30 0 -48.5 18t-18.5 47
q0 10 3 21zM722 61q8 32 35 54t61 22q30 0 48.5 -17.5t18.5 -44.5q0 -14 -3 -24q-8 -33 -35.5 -54.5t-60.5 -21.5q-30 0 -48.5 18t-18.5 47q0 10 3 21z" />
    <glyph glyph-name="perthousand" unicode="&#x2030;" horiz-adv-x="2598" 
d="M376 0l1017 1434h98l-1017 -1434h-98zM308 1099q-6 -29 -6 -57q0 -93 58.5 -153t152.5 -60q108 0 197 78.5t112 191.5q6 29 6 56q0 93 -58.5 153t-152.5 60q-108 0 -197 -78t-112 -191zM217 1099q28 147 149 248t267 101q127 0 207.5 -79.5t80.5 -201.5q0 -20 -8 -68
q-28 -147 -148.5 -248t-266.5 -101q-127 0 -207.5 79t-80.5 201q0 27 7 69zM1043 335q-6 -29 -6 -56q0 -93 58.5 -153t152.5 -60q108 0 198 78t112 191q6 29 6 56q0 93 -58.5 153t-152.5 60q-108 0 -198 -78t-112 -191zM952 335q28 147 149 248t267 101q127 0 207.5 -79.5
t80.5 -201.5q0 -26 -7 -68q-28 -147 -149 -248t-267 -101q-127 0 -207.5 79t-80.5 201q0 27 7 69zM1849 335q-6 -28 -6 -56q0 -93 58.5 -153t152.5 -60q108 0 197 78t112 191q7 33 7 56q0 93 -58.5 153t-152.5 60q-108 0 -198 -78t-112 -191zM1758 335q28 147 149 248
t267 101q127 0 207.5 -79.5t80.5 -201.5q0 -26 -7 -68q-28 -147 -149 -248t-267 -101q-127 0 -207.5 79t-80.5 201q0 27 7 69z" />
    <glyph glyph-name="minute" unicode="&#x2032;" horiz-adv-x="556" 
d="M246 1053l263 381h97l-272 -381h-88z" />
    <glyph glyph-name="second" unicode="&#x2033;" horiz-adv-x="846" 
d="M246 1053l263 381h97l-272 -381h-88zM537 1053l263 381h97l-272 -381h-88z" />
    <glyph glyph-name="guilsinglleft" unicode="&#x2039;" horiz-adv-x="773" 
d="M126 614l9 50l604 349l-17 -89l-497 -285l386 -285l-17 -89z" />
    <glyph glyph-name="guilsinglright" unicode="&#x203a;" horiz-adv-x="773" 
d="M689 664l-9 -50l-603 -349l17 89l497 285l-386 285l17 89z" />
    <glyph glyph-name="exclamdbl" unicode="&#x203c;" horiz-adv-x="1022" 
d="M234 383l205 1051h95l-205 -1051h-95zM141 58q8 32 33.5 52.5t57.5 20.5q29 0 47 -16.5t18 -44.5q0 -14 -3 -25q-8 -30 -33.5 -50t-57.5 -20q-29 0 -47 17t-18 44q0 10 3 22zM637 383l205 1051h94l-205 -1051h-94zM544 58q8 32 33.5 52.5t57.5 20.5q29 0 46.5 -16.5
t17.5 -44.5q0 -14 -3 -25q-8 -30 -33.5 -50t-57.5 -20q-29 0 -46.5 17t-17.5 44q0 10 3 22z" />
    <glyph glyph-name="uni203E" unicode="&#x203e;" horiz-adv-x="835" 
d="M288 1283l14 76h553l-14 -76h-553z" />
    <glyph glyph-name="fraction" unicode="&#x2044;" horiz-adv-x="330" 
d="M-331 0l978 1434h88l-978 -1434h-88z" />
    <glyph glyph-name="zerosuperior" unicode="&#x2070;" 
d="M150 948q29 146 86.5 259.5t146 182t195.5 68.5q124 0 186 -89t62 -242q0 -85 -18 -179q-29 -147 -86.5 -260t-146 -181.5t-195.5 -68.5q-124 0 -186.5 89t-62.5 241q0 80 19 180zM234 948q-18 -93 -18 -174q0 -122 44 -191.5t134 -69.5q120 0 205.5 121t122.5 314
q18 93 18 175q0 121 -44 190.5t-133 69.5q-119 0 -205 -121t-124 -314z" />
    <glyph glyph-name="uni2071" unicode="&#x2071;" 
d="M341 463l134 686h86l-134 -686h-86zM624 1385q0 -10 -6 -24q-8 -21 -26.5 -34t-41.5 -13t-37 13.5t-14 34.5q0 12 5 24q8 21 27 34.5t42 13.5t37 -13.5t14 -35.5z" />
    <glyph glyph-name="foursuperior" unicode="&#x2074;" 
d="M76 682l13 68l603 684h80l-132 -677h135l-14 -75h-135l-43 -219h-85l43 219h-465zM189 757h366l104 536z" />
    <glyph glyph-name="fivesuperior" unicode="&#x2075;" 
d="M350 438q-90 0 -158.5 42t-103.5 113l70 51q30 -63 82.5 -98t121.5 -35q105 0 189.5 68t104.5 171q6 32 6 48q0 85 -57 138t-149 53q-60 0 -116 -29.5t-94 -75.5l-60 9l165 541h488l-15 -74h-410l-114 -360q78 61 182 61q116 0 191.5 -69t75.5 -179q0 -23 -7 -62
q-26 -135 -137.5 -224t-254.5 -89z" />
    <glyph glyph-name="sixsuperior" unicode="&#x2076;" 
d="M713 1434l-333 -397q62 30 126 30q118 0 193.5 -71t75.5 -182q0 -35 -5 -60q-26 -134 -140 -225t-250 -91q-120 0 -197.5 71.5t-77.5 182.5q0 24 7 62q16 89 76 162l432 518h93zM685 754q4 20 4 46q0 85 -56.5 139.5t-146.5 54.5q-102 0 -186 -69.5t-103 -170.5
q-6 -32 -6 -48q0 -85 56 -140t145 -55q102 0 187.5 70.5t105.5 172.5z" />
    <glyph glyph-name="sevensuperior" unicode="&#x2077;" 
d="M278 1434h593l-12 -64l-571 -907h-91l567 897h-501z" />
    <glyph glyph-name="eightsuperior" unicode="&#x2078;" 
d="M380 438q-123 0 -200.5 68.5t-77.5 173.5q0 16 6 52q17 87 84.5 158.5t164.5 104.5q-53 22 -81.5 67t-28.5 102q0 24 4 43q20 106 114 178.5t213 72.5q105 0 169.5 -58t64.5 -148q0 -25 -4 -45q-13 -68 -65 -126.5t-126 -85.5q72 -28 112.5 -85.5t40.5 -128.5
q0 -22 -5 -49q-24 -124 -135 -209t-250 -85zM480 956q-102 0 -184.5 -65t-100.5 -158q-5 -23 -5 -42q0 -78 56.5 -129t146.5 -51q102 0 185 64.5t102 157.5q4 17 4 40q0 79 -57 131t-147 52zM494 1027q83 0 149.5 52.5t80.5 127.5q3 17 3 33q0 63 -45.5 104t-118.5 41
q-83 0 -148.5 -51.5t-79.5 -126.5q-3 -17 -3 -33q0 -64 44.5 -105.5t117.5 -41.5z" />
    <glyph glyph-name="ninesuperior" unicode="&#x2079;" 
d="M245 463l333 396q-62 -30 -126 -30q-118 0 -194 71.5t-76 181.5q0 36 5 61q27 134 141 224.5t250 90.5q120 0 197 -71.5t77 -182.5q0 -28 -6 -61q-16 -89 -77 -163l-431 -517h-93zM272 1143q-4 -20 -4 -46q0 -85 56.5 -140t146.5 -55q102 0 186.5 70t103.5 171q5 27 5 48
q0 85 -56.5 139.5t-145.5 54.5q-102 0 -187 -70t-105 -172z" />
    <glyph glyph-name="uni207A" unicode="&#x207a;" 
d="M800 911h-278v-286h-85v286h-278v75h278v286h85v-286h278v-75z" />
    <glyph glyph-name="uni207B" unicode="&#x207b;" 
d="M800 911h-641v75h641v-75z" />
    <glyph glyph-name="uni207C" unicode="&#x207c;" 
d="M800 756h-641v74h641v-74zM800 1067h-641v75h641v-75z" />
    <glyph glyph-name="uni207D" unicode="&#x207d;" 
d="M402 948q33 166 124 318.5t223 272.5l52 -41q-119 -115 -201 -256.5t-112 -293.5q-15 -80 -15 -155q0 -222 114 -395l-69 -41q-132 188 -132 428q0 83 16 163z" />
    <glyph glyph-name="uni207E" unicode="&#x207e;" 
d="M554 948q-32 -166 -122.5 -318.5t-222.5 -272.5l-52 41q119 115 200.5 257t110.5 293q15 80 15 157q0 220 -112 393l68 41q131 -187 131 -426q0 -84 -16 -165z" />
    <glyph glyph-name="uni207F" unicode="&#x207f;" 
d="M270 912l-88 -449h-84l134 686h84l-24 -125q114 139 253 139q100 0 160 -59t60 -154q0 -28 -6 -57l-84 -430h-84l83 427q4 20 4 44q0 68 -43 111.5t-113 43.5q-137 0 -252 -177z" />
    <glyph glyph-name="zeroinferior" unicode="&#x2080;" 
d="M8 217q29 146 86.5 259.5t146 182t195.5 68.5q124 0 186.5 -89.5t62.5 -241.5q0 -84 -18 -179q-29 -147 -86.5 -260t-146 -181.5t-195.5 -68.5q-124 0 -186.5 89t-62.5 241q0 85 18 180zM93 217q-18 -93 -18 -174q0 -122 44 -191.5t134 -69.5q120 0 205.5 121t122.5 314
q18 93 18 175q0 121 -44 190.5t-133 69.5q-119 0 -205 -121t-124 -314z" />
    <glyph glyph-name="oneinferior" unicode="&#x2081;" 
d="M469 702h73l-190 -970h-85l172 880l-244 -123l-23 65z" />
    <glyph glyph-name="twoinferior" unicode="&#x2082;" 
d="M489 190l-417 -386h458l-14 -72h-574l13 64l477 438q131 120 152 234q3 17 3 34q0 66 -48.5 109t-128.5 43q-82 0 -150 -48.5t-102 -132.5l-71 29q39 100 132 162.5t205 62.5t181.5 -59.5t69.5 -152.5q0 -20 -5 -47q-26 -135 -181 -278z" />
    <glyph glyph-name="threeinferior" unicode="&#x2083;" 
d="M512 16q4 20 4 44q0 84 -59 138.5t-151 54.5q-42 0 -88 -13l-27 44l377 345h-429l15 73h535l-13 -66l-352 -321q123 -4 201.5 -70.5t78.5 -174.5q0 -28 -6 -58q-25 -127 -138 -216t-258 -89q-96 0 -162 43t-100 117l67 54q28 -66 81 -103.5t126 -37.5q105 0 192 68
t106 168z" />
    <glyph glyph-name="fourinferior" unicode="&#x2084;" 
d="M-67 -49l14 67l603 684h80l-132 -676h135l-15 -75h-135l-43 -219h-85l43 219h-465zM47 26h366l104 536z" />
    <glyph glyph-name="fiveinferior" unicode="&#x2085;" 
d="M208 -293q-90 0 -158.5 42t-103.5 113l69 51q30 -63 83 -98t122 -35q106 0 190 67.5t104 170.5q5 27 5 49q0 85 -57 138t-149 53q-60 0 -116 -29.5t-94 -75.5l-59 9l165 540h487l-14 -73h-411l-113 -360q78 61 182 61q116 0 191 -69t75 -179q0 -30 -6 -63
q-26 -135 -137.5 -223.5t-254.5 -88.5z" />
    <glyph glyph-name="sixinferior" unicode="&#x2086;" 
d="M570 702l-332 -396q62 30 126 30q118 0 193.5 -71t75.5 -182q0 -35 -5 -60q-26 -134 -140 -225t-250 -91q-120 0 -197.5 71.5t-77.5 182.5q0 29 6 62q16 87 77 162l431 517h93zM543 23q4 20 4 46q0 85 -56.5 139.5t-146.5 54.5q-102 0 -186.5 -69.5t-103.5 -170.5
q-5 -27 -5 -49q0 -85 56 -139.5t145 -54.5q102 0 187.5 70.5t105.5 172.5z" />
    <glyph glyph-name="seveninferior" unicode="&#x2087;" 
d="M135 702h594l-12 -63l-572 -907h-91l568 897h-501z" />
    <glyph glyph-name="eightinferior" unicode="&#x2088;" 
d="M239 -293q-123 0 -200.5 68.5t-77.5 173.5q0 22 5 52q17 87 85 158.5t165 104.5q-54 22 -82.5 67t-28.5 102q0 20 5 43q20 106 113.5 178.5t212.5 72.5q105 0 170 -58.5t65 -147.5q0 -25 -4 -45q-13 -68 -65 -126.5t-126 -85.5q72 -28 112.5 -85.5t40.5 -128.5
q0 -22 -5 -49q-24 -124 -135 -209t-250 -85zM339 225q-102 0 -185 -65t-101 -158q-4 -19 -4 -42q0 -78 56.5 -129t146.5 -51q102 0 185 64.5t102 157.5q4 17 4 40q0 79 -57 131t-147 52zM352 296q83 0 150 52.5t81 127.5q3 17 3 33q0 63 -45.5 104t-118.5 41
q-83 0 -148.5 -51.5t-79.5 -126.5q-4 -22 -4 -34q0 -64 44.5 -105t117.5 -41z" />
    <glyph glyph-name="nineinferior" unicode="&#x2089;" 
d="M103 -268l333 396q-62 -30 -126 -30q-118 0 -193.5 71t-75.5 182q0 36 5 61q27 134 140.5 224.5t249.5 90.5q120 0 197.5 -71.5t77.5 -182.5q0 -28 -6 -61q-16 -89 -77 -163l-431 -517h-94zM131 412q-4 -20 -4 -46q0 -85 56.5 -140t146.5 -55q102 0 186.5 70t103.5 171
q5 27 5 48q0 85 -56.5 139.5t-145.5 54.5q-102 0 -187 -70t-105 -172z" />
    <glyph glyph-name="uni208A" unicode="&#x208a;" 
d="M656 180h-277v-286h-85v286h-279v75h279v286h85v-286h277v-75z" />
    <glyph glyph-name="uni208B" unicode="&#x208b;" 
d="M656 180h-641v75h641v-75z" />
    <glyph glyph-name="uni208C" unicode="&#x208c;" 
d="M656 25h-641v74h641v-74zM656 336h-641v75h641v-75z" />
    <glyph glyph-name="uni208D" unicode="&#x208d;" 
d="M260 217q33 166 123.5 318.5t222.5 272.5l52 -41q-119 -114 -200.5 -256t-111.5 -294q-15 -79 -15 -156q0 -222 113 -394l-68 -41q-132 188 -132 428q0 83 16 163z" />
    <glyph glyph-name="uni208E" unicode="&#x208e;" 
d="M412 217q-32 -166 -122.5 -318.5t-222.5 -272.5l-53 41q119 115 201 257t111 293q15 79 15 157q0 219 -113 393l69 41q131 -187 131 -426q0 -84 -16 -165z" />
    <glyph glyph-name="uni2090" unicode="&#x2090;" 
d="M231 -293q-125 0 -202.5 80.5t-77.5 204.5q0 38 7 74q29 150 148.5 254t264.5 104q141 0 213 -109l18 95h85l-133 -689h-85l18 95q-116 -109 -256 -109zM507 -84l57 299q-24 62 -77 98t-126 36q-110 0 -202.5 -82t-115.5 -201q-6 -30 -6 -61q0 -98 59.5 -160.5
t154.5 -62.5q73 0 140.5 36t115.5 98z" />
    <glyph glyph-name="uni2091" unicode="&#x2091;" 
d="M634 40h-583q-2 -13 -2 -39q0 -96 58 -158.5t158 -62.5q134 0 250 119l44 -54q-63 -64 -143 -101t-164 -37q-133 0 -210.5 79.5t-77.5 203.5q0 40 7 76q29 149 147.5 253.5t264.5 104.5q124 0 197 -74.5t73 -192.5q0 -38 -7 -73q-4 -24 -12 -44zM369 351
q-99 0 -184 -69.5t-118 -171.5h498q2 22 2 33q0 94 -54 151t-144 57z" />
    <glyph glyph-name="uni2092" unicode="&#x2092;" 
d="M252 -219q110 0 202.5 83t115.5 202q7 35 7 60q0 97 -60 160t-155 63q-111 0 -203.5 -82t-115.5 -201q-6 -30 -6 -61q0 -98 59.5 -161t155.5 -63zM377 424q127 0 206.5 -81t79.5 -205q0 -32 -8 -72q-29 -150 -149.5 -254.5t-267.5 -104.5q-128 0 -207.5 81t-79.5 205
q0 38 7 73q29 150 150.5 254t268.5 104z" />
    <glyph glyph-name="uni2093" unicode="&#x2093;" 
d="M20 -279h-97l336 355l-187 334h97l153 -270l257 270h97l-317 -334l199 -355h-97l-164 290z" />
    <glyph glyph-name="uni2094" unicode="&#x2094;" 
d="M-19 91h582q2 13 2 39q0 96 -58 158.5t-158 62.5q-134 0 -250 -119l-44 54q63 64 143 101t164 37q133 0 210.5 -79.5t77.5 -203.5q0 -39 -7 -75q-29 -149 -147.5 -254t-264.5 -105q-124 0 -197.5 75t-73.5 194q0 27 7 71q4 25 14 44zM246 -220q99 0 184 70t118 172h-499
q-2 -22 -2 -34q0 -93 54.5 -150.5t144.5 -57.5z" />
    <glyph glyph-name="uni20A0" unicode="&#x20a0;" horiz-adv-x="1563" 
d="M144 944q27 141 118 259.5t223 186.5t274 68q193 0 318 -128l-59 -68q-113 115 -275 115q-178 0 -325 -125.5t-182 -307.5q-9 -45 -9 -87q0 -150 97 -247t251 -97q145 0 274 80l78 400h591l-16 -80h-500l-72 -373h467l-16 -80h-467l-73 -380h512l-16 -80h-603l96 500
q-132 -68 -270 -68q-189 0 -307.5 116t-118.5 295q0 51 10 101z" />
    <glyph glyph-name="colonmonetary" unicode="&#x20a1;" horiz-adv-x="1374" 
d="M729 59q236 0 454 159l37 -73q-235 -170 -507 -170q-23 0 -34 1l-69 -185h-79l71 193q-77 11 -156 44l-88 -237h-78l100 270q-128 75 -199.5 207t-71.5 297q0 74 15 152q36 188 149 347.5t276 261t347 125.5l71 191h79l-69 -185q7 1 23 1q74 0 146 -14l73 198h78
l-80 -217q119 -40 210 -123l-64 -72q-80 72 -178 108l-475 -1279h19zM219 717q-13 -66 -13 -133q0 -136 55 -248t154 -182l447 1209q-234 -43 -415.5 -224.5t-227.5 -421.5zM478 116q68 -35 156 -49l480 1293q-66 14 -120 14q-37 0 -49 -1z" />
    <glyph glyph-name="uni20A2" unicode="&#x20a2;" horiz-adv-x="1374" 
d="M729 59q236 0 454 159l37 -73q-235 -170 -507 -170q-269 0 -436.5 166t-167.5 424q0 74 15 152q40 206 169 376t316.5 267.5t390.5 97.5q257 0 427 -156l-64 -72q-161 144 -379 144q-176 0 -339.5 -88t-277 -238.5t-148.5 -330.5q-13 -66 -13 -133q0 -202 117 -344
t311 -173l152 783h87l-28 -147q59 69 126.5 115t129.5 46q50 0 94 -19l-24 -76q-41 19 -89 19q-55 0 -124 -51.5t-133 -132.5l-105 -545h9z" />
    <glyph glyph-name="franc" unicode="&#x20a3;" horiz-adv-x="1119" 
d="M179 0l99 510h-218l15 71h217l29 149h-218l14 70h217l124 634h775l-16 -83h-681l-108 -551h400l-13 -70h-400l-29 -149h400l-14 -71h-400l-99 -510h-94z" />
    <glyph glyph-name="lira" unicode="&#x20a4;" horiz-adv-x="1154" 
d="M790 500h-348q-2 -33 -5 -47q-21 -106 -84.5 -204t-153.5 -165h752l-15 -84h-880l16 81q106 72 178 170.5t92 201.5q5 23 5 47h-269l14 69h258q-4 74 -21 151h-208l13 70h176q-19 85 -19 158q0 50 9 99q34 172 178.5 291.5t319.5 119.5q140 0 230 -76.5t109 -188.5
l-88 -41q-19 100 -88.5 161t-179.5 61q-135 0 -247 -95t-139 -232q-7 -38 -7 -83q0 -74 24 -174h434l-13 -70h-405q15 -76 18 -151h358z" />
    <glyph glyph-name="uni20A6" unicode="&#x20a6;" horiz-adv-x="1468" 
d="M86 642h152l29 150h-151l13 67h152l111 575h89l275 -575h470l111 575h93l-112 -575h150l-13 -67h-150l-30 -150h150l-12 -68h-150l-112 -574h-89l-276 574h-469l-111 -574h-92l111 574h-151zM453 1272l-80 -413h277zM893 574l197 -412l80 412h-277zM359 792l-29 -150h424
l-71 150h-324zM788 792l71 -150h324l29 150h-424z" />
    <glyph glyph-name="peseta" unicode="&#x20a7;" horiz-adv-x="2363" 
d="M1403 81h446q111 0 192.5 58.5t100.5 151.5q4 19 4 41q0 73 -59.5 120t-181.5 76q-117 28 -180 89.5t-63 146.5q0 25 4 45q23 117 128 196.5t245 79.5q177 0 276 -138l-60 -67q-93 125 -229 125q-101 0 -176 -56.5t-92 -140.5q-3 -16 -3 -33q0 -63 55.5 -104.5
t174.5 -73.5q121 -32 187.5 -96.5t66.5 -158.5q0 -22 -5 -52q-25 -128 -132 -209t-264 -81h-455q-129 0 -189.5 54.5t-60.5 163.5q0 50 12 112l126 649h-210q-40 -168 -187 -282.5t-334 -114.5h-248l-113 -582h-93l279 1434h341q168 0 270 -94.5t102 -244.5q0 -23 -1 -34
h210l58 298l93 9l-60 -307h296l-16 -82h-296l-126 -652q-9 -48 -9 -86q0 -160 176 -160zM976 1008q7 34 7 69q0 121 -81.5 197.5t-215.5 76.5h-245l-133 -686h245q155 0 274.5 97.5t148.5 245.5z" />
    <glyph glyph-name="uni20A8" unicode="&#x20a8;" horiz-adv-x="1927" 
d="M565 582h-272l-113 -582h-94l279 1434h387q181 0 284 -89t103 -243q0 -39 -10 -94q-34 -172 -157.5 -285t-300.5 -136l282 -587h-105zM1034 1008q8 43 8 76q0 123 -82 195t-227 72h-291l-133 -686h291q167 0 285.5 94t148.5 249zM1040 152l68 68q41 -76 115 -120t170 -44
q122 0 206 60t103 156q3 17 3 34q0 73 -63 127t-174 79q-132 29 -202.5 93t-70.5 153q0 25 4 45q23 119 132 200.5t255 81.5q187 0 291 -138l-62 -66q-96 124 -241 124q-106 0 -186 -58.5t-97 -144.5q-3 -14 -3 -28q0 -63 59 -112t164 -73q138 -31 213 -98t75 -166
q0 -31 -5 -54q-25 -130 -136.5 -213t-276.5 -83q-118 0 -205 47.5t-136 129.5z" />
    <glyph glyph-name="uni20A9" unicode="&#x20a9;" horiz-adv-x="1986" 
d="M63 647h282l-14 149h-238l12 67h219l-56 571h101l51 -571h422l276 571h103l53 -571h422l274 571h101l-279 -571h218l-12 -67h-239l-72 -149h281l-12 -67h-302l-282 -580h-102l-56 580h-422l-280 -580h-102l-58 580h-301zM1146 1313l-218 -450h259zM446 580l41 -450
l219 450h-260zM1302 580l41 -450l217 450h-258zM896 796l-73 -149h384l-13 149h-298zM1281 796l13 -149h297l73 149h-383zM427 796l12 -149h298l73 149h-383z" />
    <glyph glyph-name="afii57636" unicode="&#x20aa;" horiz-adv-x="1746" 
d="M86 0l279 1434h463q183 0 292.5 -110.5t109.5 -284.5q0 -50 -11 -108l-77 -394h-94l76 394q10 53 10 91q0 144 -88.5 236.5t-233.5 92.5h-370l-262 -1351h-94zM1735 1434l-279 -1434h-464q-183 0 -292.5 110.5t-109.5 284.5q0 50 11 108l77 394h94l-77 -394
q-9 -48 -9 -91q0 -144 88.5 -236.5t233.5 -92.5h369l263 1351h95z" />
    <glyph glyph-name="dong" unicode="&#x20ab;" horiz-adv-x="1351" 
d="M777 1229l15 75h401l37 191h92l-37 -191h174l-14 -75h-174l-239 -1229h-92l35 182q-92 -97 -211 -152t-246 -55q-201 0 -323 128t-122 319q0 55 10 108q29 148 123 275t234.5 203.5t293.5 76.5q127 0 224.5 -54.5t151.5 -151.5l69 350h-402zM997 299l90 463
q-46 112 -137.5 176t-221.5 64q-194 0 -354.5 -140t-197.5 -332q-9 -48 -9 -92q0 -162 104.5 -271t273.5 -109q130 0 246 64t206 177zM204 -296l15 76h691l-15 -76h-691z" />
    <glyph glyph-name="Euro" unicode="&#x20ac;" horiz-adv-x="1461" 
d="M816 59q236 0 454 159l37 -73q-235 -170 -507 -170q-265 0 -432 161.5t-172 414.5h-156l13 71h144q5 53 14 95q6 32 22 94h-143l14 71h156q103 253 332.5 414.5t494.5 161.5q257 0 427 -156l-64 -72q-161 144 -379 144q-224 0 -421.5 -138t-292.5 -354h684l-14 -71h-697
q-18 -62 -24 -94q-10 -47 -13 -95h697l-13 -71h-683q11 -216 154.5 -354t367.5 -138z" />
    <glyph glyph-name="afii61248" unicode="&#x2105;" horiz-adv-x="2082" 
d="M529 590q-185 0 -312 126t-127 308t127 308t312 126q180 0 309 -123l-48 -68q-112 112 -261 112q-147 0 -248 -103t-101 -252q0 -150 101 -252.5t248 -102.5q77 0 147.5 32.5t122.5 91.5l55 -64q-62 -66 -146 -102.5t-179 -36.5zM1595 53q146 0 247.5 103t101.5 253
q0 149 -101.5 252t-247.5 103q-147 0 -248 -103t-101 -252q0 -150 101 -253t248 -103zM1595 843q185 0 312 -126t127 -308q0 -183 -127 -309t-312 -126t-312 126t-127 309q0 182 127 308t312 126zM632 0l699 1434h93l-699 -1434h-93z" />
    <glyph glyph-name="uni2109" unicode="&#x2109;" horiz-adv-x="1591" 
d="M749 0v1434h775v-83h-681v-587h623v-83h-623v-681h-94zM146 1182q0 -83 56.5 -140.5t138.5 -57.5t138.5 57.5t56.5 140.5t-56.5 140t-138.5 57t-138.5 -57t-56.5 -140zM70 1182q0 113 78.5 190.5t192.5 77.5t192.5 -77.5t78.5 -190.5t-78.5 -191t-192.5 -78t-192.5 78
t-78.5 191z" />
    <glyph glyph-name="afii61289" unicode="&#x2113;" horiz-adv-x="1125" 
d="M691 -25q-155 0 -256 104.5t-101 260.5v64q-35 -14 -107 -43t-91 -37l-28 79q106 42 226 95v600q0 152 103 256t253 104q151 0 254 -104t103 -256v-42q0 -180 -151.5 -322.5t-467.5 -288.5v-106q0 -118 77 -199.5t186 -81.5q93 0 165 56t114 162l79 -46
q-52 -123 -144 -189t-214 -66zM952 1061v32q0 120 -76 201t-186 81t-186 -81t-76 -201v-550q134 63 227 119.5t162 119t102 131.5t33 148z" />
    <glyph glyph-name="afii61352" unicode="&#x2116;" horiz-adv-x="2224" 
d="M209 0v1434h91l743 -1256v1256h93v-1434h-92l-743 1255v-1255h-92zM2087 385h-768v81h768v-81zM1298 1067q0 164 117.5 277.5t287.5 113.5t287 -113.5t117 -277.5t-117 -277.5t-287 -113.5t-287.5 113.5t-117.5 277.5zM1390 1067q0 -131 90 -220.5t223 -89.5
q132 0 222.5 89.5t90.5 220.5t-90.5 220.5t-222.5 89.5q-133 0 -223 -89.5t-90 -220.5z" />
    <glyph glyph-name="uni2117" unicode="&#x2117;" horiz-adv-x="1630" 
d="M877 631h-165v-301h-78v771h243q119 0 194 -65t75 -170t-75 -170t-194 -65zM1068 866q0 73 -53 118t-139 45h-164v-327h164q86 0 139 45.5t53 118.5zM94 717q0 153 58 290t157 236t236.5 157t290.5 58t290 -58t236 -157t157 -236t58 -290t-58 -290.5t-157 -236.5
t-236 -157t-290 -58t-290.5 58t-236.5 157t-157 236.5t-58 290.5zM162 717q0 -186 89.5 -342t244.5 -246.5t340 -90.5t339.5 90.5t244 246.5t89.5 342t-89.5 342t-244 246.5t-339.5 90.5t-340 -90.5t-244.5 -246.5t-89.5 -342z" />
    <glyph glyph-name="uni2120" unicode="&#x2120;" horiz-adv-x="1568" 
d="M100 793l52 56q42 -52 99 -85t114 -33q80 0 132.5 39.5t52.5 100.5q0 116 -192 161q-115 26 -177 81t-62 132q0 87 65.5 144t170.5 57q133 0 239 -106l-45 -58q-98 96 -190 96q-71 0 -115.5 -37.5t-44.5 -91.5q0 -104 184 -149q122 -29 185 -87t63 -140q0 -91 -73 -150
t-190 -59q-79 0 -150.5 36t-117.5 93zM1126 923h-51l-255 366v-613h-79v758h71l289 -419l289 419h70v-758h-79v613z" />
    <glyph glyph-name="uni2121" unicode="&#x2121;" horiz-adv-x="2159" 
d="M928 507q3 -123 49 -225.5t129.5 -164t186.5 -61.5q86 0 164.5 49.5t136.5 138.5l65 -62q-63 -97 -158 -152t-206 -55q-133 0 -238.5 75.5t-163 202t-57.5 277.5q0 150 57.5 277t160.5 202.5t230 75.5q123 0 222.5 -70.5t154.5 -190.5t55 -264q0 -34 -4 -53h-784z
M1284 1005q-92 0 -170.5 -57.5t-126.5 -153t-57 -208.5h693q-10 182 -105 300.5t-234 118.5zM512 0v1351h-424v83h940v-83h-424v-1351h-92zM1902 0v1495h90v-1495h-90z" />
    <glyph glyph-name="trademark" unicode="&#x2122;" horiz-adv-x="1546" 
d="M310 676v690h-225v68h529v-68h-225v-690h-79zM1107 923h-51l-255 366v-613h-79v758h71l288 -419l289 419h71v-758h-79v613z" />
    <glyph glyph-name="Omega" unicode="&#x2126;" horiz-adv-x="1593" 
d="M1420 745q0 172 -80 317t-218.5 228.5t-304.5 83.5t-304.5 -83.5t-218.5 -228.5t-80 -317q0 -427 484 -663v-82h-563v84h425q-227 119 -334 291t-107 376q0 145 54.5 276t147.5 225.5t222.5 150t273.5 55.5t273.5 -55.5t223 -150t148 -225.5t54.5 -276
q0 -204 -107.5 -376t-334.5 -291h425v-84h-563v82q484 236 484 663z" />
    <glyph glyph-name="estimated" unicode="&#x212e;" horiz-adv-x="1646" 
d="M420 685v-498q180 -149 424 -149q166 0 310 75t240 209l54 -38q-104 -147 -263.5 -228t-340.5 -81q-153 0 -290.5 58t-236.5 157t-157 236.5t-58 290.5t58 290t157 236t236.5 157t290.5 58t290 -58t236 -157t157 -236t58 -290v-32h-1165zM844 1396q-241 0 -424 -151v-497
h848v497q-183 151 -424 151z" />
    <glyph glyph-name="onethird" unicode="&#x2153;" horiz-adv-x="1917" 
d="M611 1434h73l-189 -971h-85l172 880l-245 -122l-23 64zM463 0l978 1434h88l-978 -1434h-88zM1688 285q4 20 4 44q0 84 -59 138t-151 54q-42 0 -88 -13l-27 44l377 345h-429l14 74h536l-14 -67l-352 -320q123 -4 202 -71t79 -175q0 -27 -6 -57q-25 -127 -138.5 -216.5
t-258.5 -89.5q-96 0 -162 43t-100 117l68 54q28 -66 81 -103.5t126 -37.5q105 0 192 68.5t106 168.5z" />
    <glyph glyph-name="twothirds" unicode="&#x2154;" horiz-adv-x="1917" 
d="M632 922l-418 -386h459l-15 -73h-574l13 64l477 439q131 120 152 233q3 17 3 34q0 66 -48.5 109t-128.5 43q-82 0 -150 -48.5t-102 -132.5l-71 29q39 100 132 162.5t205 62.5t181.5 -59.5t69.5 -152.5q0 -20 -5 -47q-26 -135 -180 -277zM463 0l978 1434h88l-978 -1434
h-88zM1688 285q4 20 4 44q0 84 -59 138t-151 54q-42 0 -88 -13l-27 44l377 345h-429l14 74h536l-14 -67l-352 -320q123 -4 202 -71t79 -175q0 -27 -6 -57q-25 -127 -138.5 -216.5t-258.5 -89.5q-96 0 -162 43t-100 117l68 54q28 -66 81 -103.5t126 -37.5q105 0 192 68.5
t106 168.5z" />
    <glyph glyph-name="onefifth" unicode="&#x2155;" horiz-adv-x="1917" 
d="M611 1434h73l-189 -971h-85l172 880l-245 -122l-23 64zM463 0l978 1434h88l-978 -1434h-88zM1382 -27q-90 0 -158.5 42t-103.5 113l70 51q30 -63 83 -98t122 -35q105 0 189.5 68t104.5 171q5 27 5 48q0 85 -57 138t-149 53q-60 0 -116 -29.5t-94 -75.5l-59 9l164 541h488
l-14 -74h-411l-114 -359q77 60 182 60q116 0 191.5 -69t75.5 -179q0 -29 -6 -62q-26 -135 -138 -224t-255 -89z" />
    <glyph glyph-name="twofifths" unicode="&#x2156;" horiz-adv-x="1917" 
d="M632 922l-418 -386h459l-15 -73h-574l13 64l477 439q131 120 152 233q3 17 3 34q0 66 -48.5 109t-128.5 43q-82 0 -150 -48.5t-102 -132.5l-71 29q39 100 132 162.5t205 62.5t181.5 -59.5t69.5 -152.5q0 -20 -5 -47q-26 -135 -180 -277zM463 0l978 1434h88l-978 -1434
h-88zM1382 -27q-90 0 -158.5 42t-103.5 113l70 51q30 -63 83 -98t122 -35q105 0 189.5 68t104.5 171q5 27 5 48q0 85 -57 138t-149 53q-60 0 -116 -29.5t-94 -75.5l-59 9l164 541h488l-14 -74h-411l-114 -359q77 60 182 60q116 0 191.5 -69t75.5 -179q0 -29 -6 -62
q-26 -135 -138 -224t-255 -89z" />
    <glyph glyph-name="threefifths" unicode="&#x2157;" horiz-adv-x="1917" 
d="M654 748q4 20 4 44q0 84 -58.5 138t-150.5 54q-43 0 -89 -13l-26 44l377 345h-429l14 74h535l-13 -67l-352 -320q123 -4 201.5 -71t78.5 -175q0 -28 -6 -58q-25 -127 -138 -216t-258 -89q-96 0 -162 43t-100 117l68 54q28 -66 80.5 -103.5t125.5 -37.5q105 0 192 68.5
t106 168.5zM463 0l978 1434h88l-978 -1434h-88zM1382 -27q-90 0 -158.5 42t-103.5 113l70 51q30 -63 83 -98t122 -35q105 0 189.5 68t104.5 171q5 27 5 48q0 85 -57 138t-149 53q-60 0 -116 -29.5t-94 -75.5l-59 9l164 541h488l-14 -74h-411l-114 -359q77 60 182 60
q116 0 191.5 -69t75.5 -179q0 -29 -6 -62q-26 -135 -138 -224t-255 -89z" />
    <glyph glyph-name="fourfifths" unicode="&#x2158;" horiz-adv-x="1917" 
d="M76 682l13 68l603 684h80l-132 -677h135l-14 -75h-135l-43 -219h-85l43 219h-465zM189 757h366l104 536zM463 0l978 1434h88l-978 -1434h-88zM1382 -27q-90 0 -158.5 42t-103.5 113l70 51q30 -63 83 -98t122 -35q105 0 189.5 68t104.5 171q5 27 5 48q0 85 -57 138
t-149 53q-60 0 -116 -29.5t-94 -75.5l-59 9l164 541h488l-14 -74h-411l-114 -359q77 60 182 60q116 0 191.5 -69t75.5 -179q0 -29 -6 -62q-26 -135 -138 -224t-255 -89z" />
    <glyph glyph-name="onesixth" unicode="&#x2159;" horiz-adv-x="1917" 
d="M611 1434h73l-189 -971h-85l172 880l-245 -122l-23 64zM463 0l978 1434h88l-978 -1434h-88zM1745 971l-333 -397q62 30 126 30q118 0 193.5 -71t75.5 -182q0 -35 -5 -60q-26 -134 -140 -225t-250 -91q-120 0 -197 71.5t-77 182.5q0 29 6 62q16 89 77 163l431 517h93z
M1717 291q4 20 4 46q0 85 -56 139.5t-146 54.5q-102 0 -186.5 -69.5t-103.5 -170.5q-5 -27 -5 -48q0 -85 55.5 -140t144.5 -55q102 0 187.5 70.5t105.5 172.5z" />
    <glyph glyph-name="fivesixths" unicode="&#x215a;" horiz-adv-x="1917" 
d="M350 438q-90 0 -158.5 42t-103.5 113l70 51q30 -63 82.5 -98t121.5 -35q105 0 189.5 68t104.5 171q6 32 6 48q0 85 -57 138t-149 53q-60 0 -116 -29.5t-94 -75.5l-60 9l165 541h488l-15 -74h-410l-114 -360q78 61 182 61q116 0 191.5 -69t75.5 -179q0 -23 -7 -62
q-26 -135 -137.5 -224t-254.5 -89zM463 0l978 1434h88l-978 -1434h-88zM1745 971l-333 -397q62 30 126 30q118 0 193.5 -71t75.5 -182q0 -35 -5 -60q-26 -134 -140 -225t-250 -91q-120 0 -197 71.5t-77 182.5q0 29 6 62q16 89 77 163l431 517h93zM1717 291q4 20 4 46
q0 85 -56 139.5t-146 54.5q-102 0 -186.5 -69.5t-103.5 -170.5q-5 -27 -5 -48q0 -85 55.5 -140t144.5 -55q102 0 187.5 70.5t105.5 172.5z" />
    <glyph glyph-name="oneeighth" unicode="&#x215b;" horiz-adv-x="1917" 
d="M611 1434h73l-189 -971h-85l172 880l-245 -122l-23 64zM463 0l978 1434h88l-978 -1434h-88zM1412 -27q-123 0 -200 68.5t-77 173.5q0 22 5 52q17 87 85 158.5t165 104.5q-54 22 -82.5 67t-28.5 102q0 24 4 43q20 106 114 178.5t213 72.5q105 0 169.5 -58t64.5 -148
q0 -25 -4 -45q-13 -69 -64.5 -127t-125.5 -85q72 -28 112 -85t40 -129q0 -22 -5 -49q-24 -124 -135 -209t-250 -85zM1512 492q-102 0 -184.5 -65.5t-100.5 -158.5q-4 -19 -4 -42q0 -78 56 -129t146 -51q102 0 185 64.5t102 157.5q4 17 4 40q0 79 -57 131.5t-147 52.5z
M1526 562q83 0 149.5 52.5t80.5 127.5q3 17 3 33q0 64 -45.5 105t-118.5 41q-83 0 -148.5 -52t-79.5 -127q-3 -16 -3 -33q0 -64 44.5 -105.5t117.5 -41.5z" />
    </font>
</defs>
</svg>
