<?xml version="1.0" standalone="no"?>
<!DOCTYPE svg PUBLIC "-//W3C//DTD SVG 1.1//EN" "http://www.w3.org/Graphics/SVG/1.1/DTD/svg11.dtd" >
<svg xmlns="http://www.w3.org/2000/svg" xmlns:xlink="http://www.w3.org/1999/xlink" version="1.1">
<metadata>
Created by FontForge 20170731 at Wed Nov 17 17:19:44 2021
 By Aleksey,,,
Copyright (c) 2016 by S-Core Co., Ltd.. All rights reserved.
</metadata>
<defs>
<font id="CoreSansC-55MediumIt" horiz-adv-x="819" >
  <font-face 
    font-family="Core Sans C 55 Medium"
    font-weight="500"
    font-style="italic"
    font-stretch="normal"
    units-per-em="2048"
    panose-1="2 11 6 3 3 3 2 2 2 4"
    ascent="1638"
    descent="-410"
    x-height="1061"
    cap-height="1434"
    bbox="-847 -532 2541 1997"
    underline-thickness="49"
    underline-position="-472"
    unicode-range="U+0009-FB04"
  />
<missing-glyph horiz-adv-x="1024" 
d="M922 0h-779v1536h779v-1536zM338 186h389v1164h-389v-1164z" />
    <glyph glyph-name="ff" unicode="ff" horiz-adv-x="1468" 
d="M1610 1487l-39 -201q-40 4 -92 4q-103 0 -153.5 -40.5t-68.5 -131.5l-11 -57h281l-40 -205h-281l-259 -1331h-233l259 1331h-463l-259 -1331h-234l259 1331h-167l39 205h168l12 59q38 195 153.5 285t330.5 90q89 0 153 -14l-67 -201q-55 10 -116 10q-103 0 -153 -40.5
t-68 -131.5l-11 -57h463l11 59q38 195 152.5 285t321.5 90q68 0 112 -8z" />
    <glyph glyph-name="fi" unicode="fi" horiz-adv-x="1296" 
d="M316 1061l12 59q38 195 152.5 285t321.5 90q67 0 111 -8l-39 -201q-40 4 -92 4q-103 0 -153 -40.5t-68 -131.5l-11 -57h696l-206 -1061h-233l166 856h-463l-259 -1331h-234l259 1331h-167l39 205h168zM1040 1350q11 61 61 103t112 42q54 0 87.5 -33t33.5 -84
q0 -13 -3 -28q-12 -62 -62.5 -104t-111.5 -42q-54 0 -87 32.5t-33 83.5q0 15 3 30z" />
    <glyph glyph-name="fl" unicode="fl" horiz-adv-x="1296" 
d="M913 1487l-39 -201q-40 4 -92 4q-103 0 -153 -40.5t-68 -131.5l-11 -57h280l-39 -205h-281l-259 -1331h-234l259 1331h-167l39 205h168l12 59q38 195 152.5 285t321.5 90q67 0 111 -8zM807 0l290 1495h233l-290 -1495h-233z" />
    <glyph glyph-name="ffi" unicode="ffi" horiz-adv-x="1992" 
d="M561 1118l-11 -57h463l11 59q38 195 152.5 285t321.5 90q68 0 112 -8l-39 -201q-40 4 -92 4q-103 0 -153.5 -40.5t-68.5 -131.5l-11 -57h697l-206 -1061h-234l166 856h-463l-259 -1331h-233l259 1331h-463l-259 -1331h-234l259 1331h-167l39 205h168l12 59
q38 195 153.5 285t330.5 90q89 0 153 -14l-67 -201q-55 10 -116 10q-103 0 -153 -40.5t-68 -131.5zM1737 1350q11 61 61 103t112 42q54 0 87.5 -33t33.5 -84q0 -13 -3 -28q-12 -61 -62.5 -103.5t-112.5 -42.5q-53 0 -86 32.5t-33 83.5q0 15 3 30z" />
    <glyph glyph-name="ffl" unicode="ffl" horiz-adv-x="1992" 
d="M1503 0l290 1495h233l-289 -1495h-234zM1610 1487l-39 -201q-40 4 -92 4q-103 0 -153.5 -40.5t-68.5 -131.5l-11 -57h281l-40 -205h-281l-259 -1331h-233l259 1331h-463l-259 -1331h-234l259 1331h-167l39 205h168l12 59q38 195 153.5 285t330.5 90q89 0 153 -14
l-67 -201q-55 10 -116 10q-103 0 -153 -40.5t-68 -131.5l-11 -57h463l11 59q38 195 152.5 285t321.5 90q68 0 112 -8z" />
    <glyph glyph-name=".notdef" horiz-adv-x="1024" 
d="M922 0h-779v1536h779v-1536zM338 186h389v1164h-389v-1164z" />
    <glyph glyph-name=".null" horiz-adv-x="0" 
 />
    <glyph glyph-name=".null" horiz-adv-x="0" 
 />
    <glyph glyph-name="nonmarkingreturn" horiz-adv-x="682" 
 />
    <glyph glyph-name="CR" unicode="&#x9;" horiz-adv-x="0" 
 />
    <glyph glyph-name="space" unicode=" " horiz-adv-x="614" 
 />
    <glyph glyph-name="exclam" unicode="!" horiz-adv-x="638" 
d="M176 414l199 1020h241l-198 -1020h-242zM90 127q12 65 64 108.5t116 43.5q57 0 91.5 -33.5t34.5 -87.5q0 -16 -3 -31q-13 -65 -65 -108.5t-116 -43.5q-56 0 -90.5 33.5t-34.5 86.5q0 15 3 32z" />
    <glyph glyph-name="quotedbl" unicode="&#x22;" horiz-adv-x="1005" 
d="M627 854l112 580h234l-113 -580h-233zM272 854l113 580h233l-112 -580h-234z" />
    <glyph glyph-name="numbersign" unicode="#" horiz-adv-x="1413" 
d="M1020 1077l131 357h227l-131 -357h201l-38 -194h-233l-125 -340h217l-38 -195h-250l-127 -348h-227l127 348h-289l-127 -348h-227l127 348h-201l38 195h233l125 340h-217l38 194h250l131 357h227l-131 -357h289zM660 883l-124 -340h288l125 340h-289z" />
    <glyph glyph-name="dollar" unicode="$" horiz-adv-x="1216" 
d="M38 207l180 162q112 -155 266 -181l89 459q-347 85 -347 336q0 35 8 78q32 166 169.5 274t327.5 121l36 186h156l-37 -192q204 -29 320 -174l-175 -170q-91 100 -187 129l-79 -404q185 -50 269 -134.5t84 -209.5q0 -39 -10 -94q-33 -169 -168 -280t-340 -132l-37 -190
h-155l36 189q-131 12 -238.5 71.5t-167.5 155.5zM866 393q4 17 4 40q0 113 -149 172l-80 -410q90 21 150.5 72.5t74.5 125.5zM479 1077q-4 -20 -4 -38q0 -105 143 -163l72 368q-82 -12 -140 -57t-71 -110z" />
    <glyph glyph-name="percent" unicode="%" horiz-adv-x="1873" 
d="M344 0l1018 1434h242l-1016 -1434h-244zM196 1083q30 154 160.5 259.5t294.5 105.5q145 0 233.5 -83t88.5 -211q0 -36 -7 -71q-29 -153 -160 -258.5t-296 -105.5q-145 0 -233.5 83t-88.5 212q0 21 8 69zM423 1083q-3 -18 -3 -34q0 -57 34.5 -95.5t93.5 -38.5q69 0 123 50
t67 118q3 18 3 35q0 57 -34.5 95t-93.5 38q-69 0 -123 -50t-67 -118zM981 350q29 153 160 259t296 106q145 0 233 -83t88 -212q0 -28 -7 -70q-30 -153 -160.5 -258.5t-295.5 -105.5q-144 0 -232.5 83t-88.5 211q0 35 7 70zM1208 350q-3 -18 -3 -35q0 -57 34.5 -95t93.5 -38
q69 0 123.5 50t67.5 118q3 18 3 35q0 57 -34.5 95t-93.5 38q-69 0 -123.5 -50t-67.5 -118z" />
    <glyph glyph-name="ampersand" unicode="&#x26;" horiz-adv-x="1515" 
d="M1162 1208l-226 -80q-5 63 -47 100.5t-113 37.5q-73 0 -133 -47t-72 -111q-4 -20 -4 -35q0 -50 33.5 -109t112.5 -149l303 -343q79 120 122 273l219 -32q-59 -223 -201 -401l278 -312h-326l-126 142q-222 -167 -473 -167q-192 0 -309.5 95t-117.5 246q0 38 7 73
q24 126 105 222.5t226 179.5q-87 125 -87 234q0 36 8 81q19 100 90.5 181.5t172.5 126t209 44.5q149 0 240.5 -67t108.5 -183zM549 180q153 0 301 112l-312 355q-186 -106 -212 -241q-4 -20 -4 -41q0 -81 61.5 -133t165.5 -52z" />
    <glyph glyph-name="quotesingle" unicode="'" horiz-adv-x="651" 
d="M272 854l113 580h233l-112 -580h-234z" />
    <glyph glyph-name="parenleft" unicode="(" horiz-adv-x="860" 
d="M254 625q53 272 199.5 520t362.5 432l141 -125q-179 -169 -298 -384t-163 -443q-25 -131 -25 -250q0 -332 165 -578l-191 -125q-106 137 -162 311.5t-56 368.5q0 135 27 273z" />
    <glyph glyph-name="parenright" unicode=")" horiz-adv-x="860" 
d="M643 625q-53 -272 -199.5 -520.5t-362.5 -432.5l-141 125q179 168 298 384t163 444q25 131 25 249q0 332 -165 578l191 125q106 -137 162 -311.5t56 -368.5q0 -134 -27 -272z" />
    <glyph glyph-name="asterisk" unicode="*" horiz-adv-x="1146" 
d="M252 993l248 -149l-4 289h196l-4 -289l248 149l98 -170l-254 -143l254 -143l-98 -170l-248 147l4 -287h-196l4 287l-248 -147l-98 170l254 143l-254 143z" />
    <glyph glyph-name="plus" unicode="+" horiz-adv-x="1187" 
d="M498 215v365h-355v200h355v365h233v-365h354v-200h-354v-365h-233z" />
    <glyph glyph-name="comma" unicode="," horiz-adv-x="614" 
d="M78 127q12 65 64 108.5t116 43.5q57 0 91.5 -33.5t34.5 -87.5q0 -16 -3 -31q-6 -35 -31 -70l-206 -313h-149l155 240q-35 13 -55 42.5t-20 68.5q0 15 3 32z" />
    <glyph glyph-name="hyphen" unicode="-" horiz-adv-x="831" 
d="M717 569h-586l43 222h586z" />
    <glyph glyph-name="period" unicode="." horiz-adv-x="614" 
d="M78 127q12 65 64 108.5t116 43.5q57 0 91.5 -33.5t34.5 -87.5q0 -16 -3 -31q-13 -65 -65 -108.5t-116 -43.5q-56 0 -90.5 33.5t-34.5 86.5q0 15 3 32z" />
    <glyph glyph-name="slash" unicode="/" horiz-adv-x="946" 
d="M1142 1536l-1053 -1823h-247l1056 1823h244z" />
    <glyph glyph-name="zero" unicode="0" horiz-adv-x="1228" 
d="M160 717q30 158 86.5 291.5t135.5 234.5t185 158t228 57q126 0 211.5 -62.5t124 -169t38.5 -252.5q0 -118 -26 -257q-31 -158 -87.5 -291.5t-135.5 -235t-185.5 -158.5t-227.5 -57q-188 0 -281.5 129.5t-93.5 351.5q0 118 28 261zM397 717q-28 -146 -28 -252
q0 -272 180 -272q130 0 219 139t137 385q28 145 28 250q0 274 -180 274q-130 0 -219.5 -139t-136.5 -385z" />
    <glyph glyph-name="one" unicode="1" horiz-adv-x="1228" 
d="M760 1434h217l-279 -1434h-237l232 1196l-265 -127l-67 174z" />
    <glyph glyph-name="two" unicode="2" horiz-adv-x="1228" 
d="M869 590l-429 -385h555l-39 -205h-866l37 195l584 522q107 96 157.5 167.5t64.5 147.5q5 30 5 51q0 79 -49.5 124.5t-135.5 45.5q-88 0 -157 -47.5t-129 -145.5l-181 85q77 146 207.5 229.5t299.5 83.5q176 0 282 -89.5t106 -243.5q0 -38 -10 -91q-24 -121 -92.5 -218.5
t-209.5 -225.5z" />
    <glyph glyph-name="three" unicode="3" horiz-adv-x="1228" 
d="M815 455q5 30 5 52q0 96 -63.5 159t-168.5 63q-30 0 -70 -10l-69 117l395 389h-527l41 209h816l-41 -209l-358 -344q136 -22 210 -115.5t74 -229.5q0 -53 -10 -104q-16 -84 -67.5 -165.5t-128.5 -146.5t-182.5 -105t-220.5 -40q-145 0 -250 63t-161 180l190 135
q86 -173 252 -173q120 0 215.5 80.5t118.5 194.5z" />
    <glyph glyph-name="four" unicode="4" horiz-adv-x="1228" 
d="M30 270l42 215l821 949h237l-184 -947h154l-42 -217h-154l-52 -270h-238l53 270h-637zM332 485h377l108 559z" />
    <glyph glyph-name="five" unicode="5" horiz-adv-x="1228" 
d="M468 -25q-145 0 -251.5 61t-159.5 179l198 137q80 -172 245 -172q121 0 215.5 78.5t117.5 194.5q6 28 6 55q0 95 -64.5 156t-169.5 61q-65 0 -125 -26t-98 -68l-164 20l239 783h751l-41 -209h-540l-109 -346q76 47 185 47q165 0 272 -98t107 -266q0 -50 -10 -103
q-42 -215 -206 -349.5t-398 -134.5z" />
    <glyph glyph-name="six" unicode="6" horiz-adv-x="1228" 
d="M1073 1434l-436 -516q38 12 86 12q169 0 281.5 -105t112.5 -275q0 -46 -9 -95q-27 -137 -121 -248.5t-221 -171.5t-257 -60q-182 0 -306 109t-124 281q0 43 9 90q25 135 121 252l612 727h252zM870 455q6 36 6 54q0 96 -63 158t-162 62q-113 0 -208 -79t-117 -195
q-5 -24 -5 -56q0 -96 63 -157.5t161 -61.5q113 0 207.5 79.5t117.5 195.5z" />
    <glyph glyph-name="seven" unicode="7" horiz-adv-x="1228" 
d="M348 1434h893l-39 -199l-751 -1235h-267l750 1225h-627z" />
    <glyph glyph-name="eight" unicode="8" horiz-adv-x="1228" 
d="M507 -25q-186 0 -303 103.5t-117 265.5q0 38 8 84q24 125 110 222.5t211 140.5q-57 31 -92 92.5t-35 134.5q0 28 6 57q31 161 173 272t327 111q163 0 261 -88.5t98 -223.5q0 -37 -7 -71q-18 -90 -83.5 -168t-148.5 -116q90 -36 139 -111t49 -173q0 -34 -8 -79
q-25 -127 -111 -231t-212 -163t-265 -59zM644 684q-111 0 -200 -74t-110 -178q-5 -27 -5 -48q0 -88 60.5 -146t157.5 -58q111 0 200.5 74t110.5 178q4 21 4 47q0 88 -60.5 146.5t-157.5 58.5zM683 881q82 0 150 56.5t82 131.5q4 22 4 33q0 65 -45.5 108t-118.5 43
q-83 0 -151 -54t-82 -130q-3 -15 -3 -32q0 -65 46 -110.5t118 -45.5z" />
    <glyph glyph-name="nine" unicode="9" horiz-adv-x="1228" 
d="M229 0l436 516q-38 -12 -86 -12q-169 0 -282 105.5t-113 274.5q0 40 10 95q27 137 121 248.5t221 171t257 59.5q183 0 306.5 -108.5t123.5 -280.5q0 -38 -10 -90q-26 -140 -119 -252l-613 -727h-252zM431 979q-5 -30 -5 -54q0 -96 62.5 -158t161.5 -62q113 0 208.5 79
t117.5 195q5 24 5 55q0 96 -63 157.5t-161 61.5q-113 0 -208 -79t-118 -195z" />
    <glyph glyph-name="colon" unicode=":" horiz-adv-x="614" 
d="M78 127q12 65 64 108.5t116 43.5q57 0 91.5 -33.5t34.5 -87.5q0 -16 -3 -31q-13 -65 -65 -108.5t-116 -43.5q-56 0 -90.5 33.5t-34.5 86.5q0 15 3 32zM234 934q12 64 64 107.5t117 43.5q57 0 91.5 -33.5t34.5 -86.5q0 -16 -3 -31q-13 -65 -65.5 -108.5t-116.5 -43.5
q-56 0 -90.5 33.5t-34.5 86.5q0 16 3 32z" />
    <glyph glyph-name="semicolon" unicode=";" horiz-adv-x="614" 
d="M234 934q12 64 64 107.5t117 43.5q57 0 91.5 -33.5t34.5 -86.5q0 -16 -3 -31q-13 -65 -65.5 -108.5t-116.5 -43.5q-56 0 -90.5 33.5t-34.5 86.5q0 16 3 32zM78 127q12 65 64 108.5t116 43.5q57 0 91.5 -33.5t34.5 -87.5q0 -16 -3 -31q-6 -35 -31 -70l-206 -313h-149
l155 240q-35 13 -55 42.5t-20 68.5q0 15 3 32z" />
    <glyph glyph-name="less" unicode="&#x3c;" horiz-adv-x="1187" 
d="M147 596v168l902 493v-263l-605 -314l605 -314v-264z" />
    <glyph glyph-name="equal" unicode="=" horiz-adv-x="1187" 
d="M1085 807h-942v201h942v-201zM1085 352h-942v201h942v-201z" />
    <glyph glyph-name="greater" unicode="&#x3e;" horiz-adv-x="1187" 
d="M1081 764v-168l-901 -494v264l604 314l-604 314v263z" />
    <glyph glyph-name="question" unicode="?" horiz-adv-x="1130" 
d="M350 414l72 370q181 0 299.5 73t140.5 187q3 16 3 33q0 75 -65 121.5t-177 46.5q-139 0 -302 -119l-94 173q221 159 465 159q195 0 308.5 -99.5t113.5 -246.5q0 -28 -7 -70q-28 -147 -156 -259.5t-316 -147.5l-43 -221h-242zM264 127q12 65 64 108.5t116 43.5
q57 0 91.5 -33.5t34.5 -87.5q0 -16 -3 -31q-13 -65 -65 -108.5t-116 -43.5q-56 0 -90.5 33.5t-34.5 86.5q0 15 3 32z" />
    <glyph glyph-name="at" unicode="@" horiz-adv-x="1986" 
d="M941 291q73 0 140 39t111 104l45 234q-19 65 -71 104t-125 39q-105 0 -191.5 -75.5t-108.5 -184.5q-5 -25 -5 -54q0 -90 57 -148t148 -58zM1394 115q-71 0 -134.5 35t-93.5 90q-136 -125 -293 -125q-154 0 -246.5 98.5t-92.5 248.5q0 42 9 89q35 180 179 308t321 128
q147 0 235 -113l17 93h195l-122 -629q10 -20 34.5 -33.5t52.5 -13.5q90 0 167 80t107 231q12 63 12 124q0 241 -172.5 398.5t-432.5 157.5q-194 0 -377 -95t-312 -260.5t-168 -363.5q-14 -75 -14 -140q0 -253 170.5 -416t447.5 -163q267 0 517 154l46 -164
q-153 -82 -296.5 -124t-300.5 -42q-351 0 -567.5 200t-216.5 518q0 91 17 177q37 189 142 356t250.5 285t327 186t367.5 68q347 0 560 -191t213 -497q0 -80 -17 -168q-44 -224 -190 -355.5t-341 -131.5z" />
    <glyph glyph-name="A" unicode="A" horiz-adv-x="1409" 
d="M1016 1434l250 -1434h-262l-53 346h-565l-185 -346h-262l806 1434h271zM828 1169l-329 -614h422z" />
    <glyph glyph-name="B" unicode="B" horiz-adv-x="1275" 
d="M662 0h-601l279 1434h524q168 0 258 -76.5t90 -214.5q0 -47 -10 -96q-20 -104 -79 -174.5t-143 -106.5q85 -25 137.5 -96t52.5 -173q0 -34 -8 -79q-36 -188 -171.5 -303t-328.5 -115zM954 1034q5 30 5 51q0 68 -40.5 104t-111.5 36h-266l-74 -381h266q84 0 143.5 48.5
t77.5 141.5zM918 426q6 30 6 58q0 75 -42.5 117t-115.5 42h-338l-85 -434h338q87 0 152.5 59t84.5 158z" />
    <glyph glyph-name="C" unicode="C" horiz-adv-x="1415" 
d="M1178 328l91 -181q-243 -172 -531 -172q-187 0 -332 77t-223.5 212t-78.5 306q0 72 15 147q40 206 173 376t327 267.5t407 97.5q269 0 451 -160l-157 -182q-83 64 -159 96.5t-176 32.5q-218 0 -397.5 -152.5t-222.5 -375.5q-12 -63 -12 -109q0 -185 118.5 -302.5
t307.5 -117.5q196 0 399 140z" />
    <glyph glyph-name="D" unicode="D" horiz-adv-x="1468" 
d="M340 1434h504q283 0 440.5 -142.5t157.5 -396.5q0 -80 -19 -178q-65 -332 -296 -524.5t-562 -192.5h-504zM802 1221h-262l-196 -1008h262q105 0 196.5 30.5t167 90.5t129.5 157.5t79 225.5q15 78 15 144q0 180 -104.5 270t-286.5 90z" />
    <glyph glyph-name="E" unicode="E" horiz-adv-x="1167" 
d="M61 0l279 1434h872l-41 -209h-630l-78 -400h581l-39 -209h-582l-80 -407h649l-40 -209h-891z" />
    <glyph glyph-name="F" unicode="F" horiz-adv-x="1097" 
d="M61 0l279 1434h852l-41 -209h-610l-78 -400h561l-40 -209h-561l-120 -616h-242z" />
    <glyph glyph-name="G" unicode="G" horiz-adv-x="1484" 
d="M985 1245q-218 0 -397.5 -152.5t-222.5 -375.5q-12 -63 -12 -109q0 -185 118.5 -302.5t307.5 -117.5q149 0 279 72l60 309h-348l40 209h590l-121 -622q-116 -85 -256 -133t-285 -48q-187 0 -332 77t-223.5 212t-78.5 306q0 72 15 147q40 206 173 376t327 267.5t407 97.5
q269 0 451 -160l-157 -182q-83 64 -159 96.5t-176 32.5z" />
    <glyph glyph-name="H" unicode="H" horiz-adv-x="1441" 
d="M61 0l279 1434h242l-119 -609h631l118 609h242l-278 -1434h-242l120 616h-631l-120 -616h-242z" />
    <glyph glyph-name="I" unicode="I" horiz-adv-x="589" 
d="M350 1434h242l-279 -1434h-241z" />
    <glyph glyph-name="J" unicode="J" horiz-adv-x="946" 
d="M537 457l190 977h242l-191 -977q-49 -249 -187.5 -365.5t-370.5 -116.5q-74 0 -149 19t-124 51l118 203q38 -26 90.5 -43t101.5 -17q113 0 182.5 63.5t97.5 205.5z" />
    <glyph glyph-name="K" unicode="K" horiz-adv-x="1245" 
d="M582 1434l-119 -609h87l525 609h275l-616 -709l419 -725h-283l-353 616h-94l-120 -616h-242l279 1434h242z" />
    <glyph glyph-name="L" unicode="L" horiz-adv-x="1054" 
d="M61 0l279 1434h242l-239 -1225h608l-40 -209h-850z" />
    <glyph glyph-name="M" unicode="M" horiz-adv-x="1753" 
d="M935 438h-152l-286 600l-202 -1038h-234l279 1434h225l345 -729l630 729h225l-278 -1434h-234l202 1038z" />
    <glyph glyph-name="N" unicode="N" horiz-adv-x="1441" 
d="M61 0l279 1434h233l450 -1016l198 1016h233l-278 -1434h-234l-450 1016l-197 -1016h-234z" />
    <glyph glyph-name="O" unicode="O" horiz-adv-x="1691" 
d="M779 188q143 0 275.5 69.5t225.5 191t121 268.5q10 53 10 106q0 185 -118.5 303.5t-307.5 118.5q-218 0 -397.5 -152.5t-222.5 -375.5q-12 -63 -12 -109q0 -185 118.5 -302.5t307.5 -117.5zM1026 1458q283 0 459 -167.5t176 -428.5q0 -67 -14 -145q-30 -154 -116 -291.5
t-207 -236.5t-274 -156.5t-312 -57.5q-187 0 -332 77t-223.5 212t-78.5 306q0 72 15 147q40 206 173 376t327 267.5t407 97.5z" />
    <glyph glyph-name="P" unicode="P" horiz-adv-x="1214" 
d="M645 520h-242l-100 -520h-242l279 1434h483q199 0 308 -94.5t109 -258.5q0 -51 -10 -104q-41 -209 -198 -333t-387 -124zM984 977q6 35 6 63q0 88 -55.5 136.5t-162.5 48.5h-231l-97 -496h232q125 0 205 66t103 182z" />
    <glyph glyph-name="Q" unicode="Q" horiz-adv-x="1691" 
d="M1329 -145l-167 227q-205 -107 -424 -107q-187 0 -332 77t-223.5 212t-78.5 306q0 72 15 147q40 206 173 376t327 267.5t407 97.5q283 0 459 -167.5t176 -428.5q0 -67 -14 -145q-29 -147 -105.5 -275.5t-190.5 -228.5l159 -217zM779 188q132 0 260 63l-175 238l182 142
l179 -246q137 142 176 332q10 53 10 106q0 185 -118.5 303.5t-307.5 118.5q-218 0 -397.5 -152.5t-222.5 -375.5q-12 -63 -12 -109q0 -185 118.5 -302.5t307.5 -117.5z" />
    <glyph glyph-name="R" unicode="R" horiz-adv-x="1243" 
d="M340 1434h483q199 0 308 -94.5t109 -258.5q0 -51 -10 -104q-33 -170 -145.5 -286t-282.5 -154l267 -537h-266l-257 520h-143l-100 -520h-242zM772 1225h-231l-97 -496h232q125 0 205 66t103 182q6 35 6 63q0 88 -55.5 136.5t-162.5 48.5z" />
    <glyph glyph-name="S" unicode="S" horiz-adv-x="1216" 
d="M38 207l183 164q60 -82 142 -132.5t179 -50.5q126 0 213.5 55.5t106.5 149.5q4 19 4 43q0 71 -61.5 122.5t-207.5 82.5q-186 41 -278.5 127.5t-92.5 213.5q0 34 8 79q23 117 100 208t192.5 140t251.5 49q285 0 428 -182l-177 -172q-61 67 -128 104t-153 37
q-101 0 -176 -46.5t-89 -121.5q-4 -17 -4 -39q0 -70 62 -118t197 -81q200 -48 290 -134.5t90 -216.5q0 -38 -10 -95q-37 -188 -197.5 -303t-399.5 -115q-151 0 -277.5 62t-195.5 170z" />
    <glyph glyph-name="T" unicode="T" horiz-adv-x="1134" 
d="M344 0l238 1225h-385l41 209h1011l-41 -209h-385l-237 -1225h-242z" />
    <glyph glyph-name="U" unicode="U" horiz-adv-x="1368" 
d="M1391 1434l-181 -926q-23 -119 -84 -219.5t-146 -168t-189.5 -105.5t-213.5 -38q-195 0 -317.5 112.5t-122.5 301.5q0 50 13 117l180 926h241l-186 -955q-6 -33 -6 -62q0 -103 66.5 -165t172.5 -62q123 0 221.5 80t123.5 209l186 955h242z" />
    <glyph glyph-name="V" unicode="V" horiz-adv-x="1409" 
d="M475 1434l185 -1129l626 1129h258l-807 -1434h-270l-250 1434h258z" />
    <glyph glyph-name="W" unicode="W" horiz-adv-x="2007" 
d="M1061 1434h237l100 -1080l490 1080h254l-686 -1434h-237l-104 1102l-531 -1102h-238l-129 1434h254l71 -1080z" />
    <glyph glyph-name="X" unicode="X" horiz-adv-x="1302" 
d="M907 0l-251 555l-466 -555h-262l619 729l-322 705h262l237 -531l443 531h263l-596 -705l335 -729h-262z" />
    <glyph glyph-name="Y" unicode="Y" horiz-adv-x="1323" 
d="M475 1434l244 -611l481 611h258l-664 -846l-114 -588h-242l114 588l-335 846h258z" />
    <glyph glyph-name="Z" unicode="Z" horiz-adv-x="1243" 
d="M60 209l894 1016h-665l41 209h956l-41 -209l-894 -1016h717l-40 -209h-1008z" />
    <glyph glyph-name="bracketleft" unicode="[" horiz-adv-x="860" 
d="M75 -287l354 1823h586l-41 -209h-344l-273 -1405h344l-41 -209h-585z" />
    <glyph glyph-name="backslash" unicode="\" horiz-adv-x="946" 
d="M540 -287l-344 1823h243l348 -1823h-247z" />
    <glyph glyph-name="bracketright" unicode="]" horiz-adv-x="860" 
d="M822 1536l-354 -1823h-585l40 209h344l273 1405h-344l41 209h585z" />
    <glyph glyph-name="asciicircum" unicode="^" horiz-adv-x="1269" 
d="M532 1434h246l410 -637h-258l-275 432l-274 -432h-258z" />
    <glyph glyph-name="underscore" unicode="_" horiz-adv-x="1024" 
d="M-173 -369l35 181h1023l-35 -181h-1023z" />
    <glyph glyph-name="grave" unicode="`" horiz-adv-x="860" 
d="M535 1495l210 -350h-227l-218 350h235z" />
    <glyph glyph-name="a" unicode="a" horiz-adv-x="1343" 
d="M588 184q102 0 196 52t153 139l59 309q-25 87 -98.5 140t-174.5 53q-146 0 -265.5 -100.5t-148.5 -246.5q-7 -34 -7 -69q0 -121 79.5 -199t206.5 -78zM723 1085q213 0 325 -139l22 115h234l-206 -1061h-234l22 115q-168 -140 -379 -140q-202 0 -324.5 126t-122.5 318
q0 46 12 111q29 150 123 276.5t234 202.5t294 76z" />
    <glyph glyph-name="b" unicode="b" horiz-adv-x="1343" 
d="M621 184q146 0 265 100t148 246q7 34 7 70q0 121 -79 199t-206 78q-101 0 -195.5 -53t-153.5 -140l-60 -309q25 -87 98.5 -139t175.5 -52zM838 1085q202 0 323.5 -125t121.5 -317q0 -53 -11 -113q-29 -150 -122.5 -276.5t-233.5 -202.5t-294 -76q-213 0 -326 140
l-22 -115h-233l290 1495h233l-106 -549q167 139 380 139z" />
    <glyph glyph-name="c" unicode="c" horiz-adv-x="1130" 
d="M548 -25q-219 0 -353 126.5t-134 321.5q0 49 11 107q30 153 130 280t248.5 201t313.5 74q224 0 362 -135l-156 -182q-113 109 -247 109q-146 0 -265.5 -100.5t-148.5 -246.5q-7 -34 -7 -69q0 -121 79.5 -199t206.5 -78q148 0 295 115l104 -170q-197 -154 -439 -154z" />
    <glyph glyph-name="d" unicode="d" horiz-adv-x="1343" 
d="M588 184q102 0 196 52t153 139l59 309q-25 87 -98.5 140t-174.5 53q-146 0 -265.5 -100.5t-148.5 -246.5q-7 -34 -7 -69q0 -121 79.5 -199t206.5 -78zM723 1085q213 0 325 -139l106 549h234l-290 -1495h-234l22 115q-168 -140 -379 -140q-202 0 -324.5 126t-122.5 318
q0 46 12 111q29 150 123 276.5t234 202.5t294 76z" />
    <glyph glyph-name="e" unicode="e" horiz-adv-x="1265" 
d="M1169 455h-873v-11q0 -118 80.5 -193t208.5 -75q180 0 342 139l131 -147q-214 -193 -506 -193q-227 0 -359.5 124.5t-132.5 319.5q0 46 12 111q30 153 128.5 280t244.5 201t307 74q209 0 332.5 -120.5t123.5 -307.5q0 -55 -10 -106q-9 -47 -29 -96zM712 885
q-110 0 -213 -66.5t-157 -171.5h630q-7 104 -77.5 171t-182.5 67z" />
    <glyph glyph-name="f" unicode="f" horiz-adv-x="772" 
d="M913 1487l-39 -201q-40 4 -92 4q-103 0 -153 -40.5t-68 -131.5l-11 -57h280l-39 -205h-281l-259 -1331h-234l259 1331h-167l39 205h168l12 59q38 195 152.5 285t321.5 90q67 0 111 -8z" />
    <glyph glyph-name="g" unicode="g" horiz-adv-x="1343" 
d="M588 184q102 0 196 52t153 139l59 309q-25 87 -98.5 140t-174.5 53q-146 0 -265.5 -100.5t-148.5 -246.5q-7 -34 -7 -69q0 -121 79.5 -199t206.5 -78zM1304 1061l-196 -1004q-48 -246 -219 -389t-444 -143q-150 0 -265.5 56.5t-185.5 158.5l183 149q118 -163 305 -163
q151 0 255.5 83t133.5 232l15 74q-168 -140 -379 -140q-202 0 -324.5 126t-122.5 318q0 46 12 111q29 150 123 276.5t234 202.5t294 76q213 0 325 -139l22 115h234z" />
    <glyph glyph-name="h" unicode="h" horiz-adv-x="1249" 
d="M411 705l-137 -705h-233l290 1495h233l-107 -557q73 66 165 106.5t181 40.5q165 0 260.5 -90.5t95.5 -246.5q0 -52 -10 -105l-125 -643h-233l121 631q6 30 6 55q0 87 -54 139t-147 52q-75 0 -160 -51t-146 -121z" />
    <glyph glyph-name="i" unicode="i" horiz-adv-x="540" 
d="M51 0l206 1061h233l-205 -1061h-234zM285 1350q11 61 61 103t112 42q54 0 87.5 -33t33.5 -84q0 -8 -4 -28q-12 -62 -62.5 -104t-111.5 -42q-53 0 -86 32.5t-33 83.5q0 15 3 30z" />
    <glyph glyph-name="j" unicode="j" horiz-adv-x="540" 
d="M30 -111l227 1172h233l-227 -1167q-38 -198 -135.5 -283.5t-281.5 -85.5q-44 0 -80 4l38 201h54q74 0 114.5 35.5t57.5 123.5zM285 1350q11 61 61 103t112 42q54 0 87.5 -33t33.5 -84q0 -8 -4 -28q-12 -62 -62.5 -104t-111.5 -42q-53 0 -86 32.5t-33 83.5q0 15 3 30z" />
    <glyph glyph-name="k" unicode="k" horiz-adv-x="1064" 
d="M696 0l-227 489h-100l-95 -489h-233l290 1495h233l-155 -805h103l327 371h274l-430 -471l280 -590h-267z" />
    <glyph glyph-name="l" unicode="l" horiz-adv-x="540" 
d="M51 0l290 1495h233l-289 -1495h-234z" />
    <glyph glyph-name="m" unicode="m" horiz-adv-x="1933" 
d="M247 1061h233l-23 -123q67 65 154 106t173 41q117 0 198.5 -50t117.5 -140q77 87 185.5 138.5t215.5 51.5q160 0 251 -90.5t91 -242.5q0 -52 -10 -105l-125 -647h-233l122 635q7 35 7 59q0 83 -47.5 133t-131.5 50q-74 0 -154.5 -51t-146.5 -130q-2 -19 -8 -49l-125 -647
h-233l123 635q6 30 6 59q0 83 -47 133t-131 50q-73 0 -152.5 -50t-146.5 -127l-136 -700h-233z" />
    <glyph glyph-name="n" unicode="n" horiz-adv-x="1249" 
d="M411 705l-137 -705h-233l206 1061h233l-23 -123q73 66 165 106.5t181 40.5q165 0 260.5 -90.5t95.5 -246.5q0 -52 -10 -105l-125 -643h-233l121 631q6 29 6 55q0 87 -54 139t-147 52q-75 0 -160 -51t-146 -121z" />
    <glyph glyph-name="o" unicode="o" horiz-adv-x="1310" 
d="M588 184q146 0 265 100t148 246q8 38 8 70q0 121 -79.5 199t-206.5 78q-146 0 -265.5 -100.5t-148.5 -246.5q-7 -34 -7 -69q0 -121 79.5 -199t206.5 -78zM764 1085q219 0 352 -125.5t133 -321.5q0 -55 -10 -108q-30 -153 -129.5 -280t-248 -201t-313.5 -74
q-219 0 -353 126.5t-134 321.5q0 49 11 107q30 153 130 280t248.5 201t313.5 74z" />
    <glyph glyph-name="p" unicode="p" horiz-adv-x="1343" 
d="M621 184q146 0 265 100t148 246q7 34 7 70q0 121 -79 199t-206 78q-101 0 -195.5 -53t-153.5 -140l-60 -309q25 -87 98.5 -139t175.5 -52zM838 1085q202 0 323.5 -125t121.5 -317q0 -53 -11 -113q-29 -150 -122.5 -276.5t-233.5 -202.5t-294 -76q-213 0 -326 140
l-115 -590h-233l299 1536h233l-22 -115q167 139 380 139z" />
    <glyph glyph-name="q" unicode="q" horiz-adv-x="1343" 
d="M588 184q102 0 196 52t153 139l59 309q-25 87 -98.5 140t-174.5 53q-146 0 -265.5 -100.5t-148.5 -246.5q-7 -34 -7 -69q0 -121 79.5 -199t206.5 -78zM723 1085q213 0 325 -139l22 115h234l-299 -1536h-234l115 590q-168 -140 -379 -140q-202 0 -324.5 126t-122.5 318
q0 46 12 111q29 150 123 276.5t234 202.5t294 76z" />
    <glyph glyph-name="r" unicode="r" horiz-adv-x="829" 
d="M725 877q-84 0 -167 -52.5t-151 -144.5l-133 -680h-233l206 1061h233l-26 -135q166 159 343 159q54 0 92 -20l-60 -207q-51 19 -104 19z" />
    <glyph glyph-name="s" unicode="s" horiz-adv-x="964" 
d="M-2 152l162 155q39 -60 104 -95.5t145 -35.5q84 0 139.5 34t66.5 93q3 15 3 27q0 45 -41 74t-136 49q-147 31 -217 96t-70 168q0 35 7 70q26 131 144 214.5t287 83.5q106 0 193.5 -39t144.5 -104l-156 -158q-52 50 -99 75.5t-105 25.5q-69 0 -118.5 -28t-58.5 -75
q-2 -10 -2 -19q0 -92 162 -126q155 -33 228.5 -98t73.5 -169q0 -36 -7 -71q-28 -142 -152.5 -233t-309.5 -91q-129 0 -231 47t-157 130z" />
    <glyph glyph-name="t" unicode="t" horiz-adv-x="791" 
d="M518 856l-98 -504q-6 -30 -6 -56q0 -61 38 -88.5t123 -27.5q53 0 93 4l-39 -200q-52 -9 -114 -9q-174 0 -257.5 62.5t-83.5 196.5q0 53 12 116l99 506h-176l39 205h177l55 287l237 20l-59 -307h268l-40 -205h-268z" />
    <glyph glyph-name="u" unicode="u" horiz-adv-x="1249" 
d="M839 356l137 705h233l-205 -1061h-234l24 123q-74 -67 -166.5 -107.5t-180.5 -40.5q-165 0 -260.5 91t-95.5 246q0 53 10 106l125 643h234l-123 -631q-5 -24 -5 -55q0 -87 53.5 -139t146.5 -52q75 0 161 51t146 121z" />
    <glyph glyph-name="v" unicode="v" horiz-adv-x="1081" 
d="M1164 1061l-605 -1061h-242l-193 1061h242l131 -758l426 758h241z" />
    <glyph glyph-name="w" unicode="w" horiz-adv-x="1613" 
d="M790 1061h241l64 -756l360 756h242l-538 -1061h-241l-66 762l-360 -762h-242l-126 1061h242l65 -756z" />
    <glyph glyph-name="x" unicode="x" horiz-adv-x="1081" 
d="M700 0l-187 385l-337 -385h-258l477 541l-244 520h258l164 -365l307 365h258l-448 -520l268 -541h-258z" />
    <glyph glyph-name="y" unicode="y" horiz-adv-x="1081" 
d="M44 -475l273 475l-193 1061h242l127 -766l430 766h241l-878 -1536h-242z" />
    <glyph glyph-name="z" unicode="z" horiz-adv-x="1046" 
d="M-4 0l39 205l672 651h-519l40 205h799l-40 -205l-672 -651h566l-39 -205h-846z" />
    <glyph glyph-name="braceleft" unicode="{" horiz-adv-x="860" 
d="M145 520l41 209q94 0 154.5 46.5t77.5 135.5l57 293q27 141 149.5 236.5t279.5 95.5h111l-41 -209h-94q-61 0 -107.5 -38.5t-58.5 -100.5l-61 -314q-40 -199 -237 -249q147 -41 147 -183q0 -32 -7 -67l-61 -314q-3 -15 -3 -30q0 -50 30.5 -79.5t84.5 -29.5h94l-41 -209
h-110q-138 0 -222 76t-84 194q0 29 6 62l57 293q5 27 5 46q0 67 -43 101.5t-124 34.5z" />
    <glyph glyph-name="bar" unicode="|" horiz-adv-x="671" 
d="M246 -287v1823h221v-1823h-221z" />
    <glyph glyph-name="braceright" unicode="}" horiz-adv-x="860" 
d="M752 729l-41 -209q-94 0 -154.5 -46.5t-77.5 -135.5l-57 -293q-27 -141 -149.5 -236.5t-279.5 -95.5h-110l40 209h94q62 0 108.5 39t57.5 100l62 314q40 201 236 250q-146 41 -146 181q0 33 7 68l60 314q4 22 4 32q0 49 -31.5 78t-84.5 29h-94l41 209h110
q138 0 222 -75.5t84 -193.5q0 -30 -6 -63l-57 -293q-5 -27 -5 -46q0 -67 43 -101.5t124 -34.5z" />
    <glyph glyph-name="asciitilde" unicode="~" horiz-adv-x="1187" 
d="M582 567q-35 33 -54 50t-48.5 34t-53.5 17q-88 0 -117 -166l-222 56q27 154 105.5 236.5t202.5 82.5q70 0 136.5 -28t115.5 -75q34 -33 54 -50t49 -33.5t53 -16.5q88 0 117 166l222 -57q-27 -153 -105.5 -235.5t-202.5 -82.5q-70 0 -136.5 28t-115.5 74z" />
    <glyph glyph-name="uni00A0" unicode="&#xa0;" horiz-adv-x="614" 
 />
    <glyph glyph-name="exclamdown" unicode="&#xa1;" horiz-adv-x="638" 
d="M24 -373l197 1020h242l-198 -1020h-241zM247 934q12 64 63.5 107.5t116.5 43.5q57 0 91.5 -33.5t34.5 -86.5q0 -16 -3 -31q-13 -65 -65 -108.5t-116 -43.5q-56 0 -90.5 33.5t-34.5 86.5q0 16 3 32z" />
    <glyph glyph-name="cent" unicode="&#xa2;" horiz-adv-x="1130" 
d="M420 -188l33 171q-180 28 -286 148t-106 292q0 49 11 107q41 209 207.5 363t386.5 185l33 171h156l-33 -167q185 -16 304 -132l-156 -182q-88 84 -189 103l-133 -682q116 18 235 110l104 -170q-171 -133 -380 -151l-32 -166h-155zM309 530q-7 -34 -7 -69q0 -96 52 -167
t141 -97l129 666q-116 -30 -203.5 -121.5t-111.5 -211.5z" />
    <glyph glyph-name="sterling" unicode="&#xa3;" horiz-adv-x="1187" 
d="M322 559h-172l35 184h130q-3 13 -8 31q-25 93 -25 173q0 55 9 100q34 174 184.5 292.5t339.5 118.5q148 0 244 -73.5t120 -184.5l-226 -108q-29 153 -179 153q-86 0 -153 -56t-84 -142q-5 -28 -5 -55q0 -63 25 -173q8 -37 12 -76h356l-36 -184h-322q-4 -33 -7 -45
q-34 -177 -195 -301h649l-41 -213h-926l40 209q88 53 148.5 132t78.5 173q5 25 8 45z" />
    <glyph glyph-name="currency" unicode="&#xa4;" horiz-adv-x="1294" 
d="M92 240l180 182q-75 109 -75 246q0 136 75 245l-180 183l150 149l192 -190q107 55 234 55q125 0 233 -55l193 190l149 -149l-180 -183q76 -111 76 -245q0 -135 -76 -246l180 -182l-149 -150l-193 191q-107 -56 -233 -56q-128 0 -234 56l-192 -191zM426 668
q0 -100 70 -171t172 -71t171.5 70.5t69.5 171.5q0 100 -69.5 170.5t-171.5 70.5t-172 -70.5t-70 -170.5z" />
    <glyph glyph-name="yen" unicode="&#xa5;" horiz-adv-x="1323" 
d="M475 1434l244 -611l481 611h258l-534 -680h273l-29 -144h-357l-17 -22l-16 -80h371l-28 -143h-370l-71 -365h-242l71 365h-371l28 143h371l15 80l-9 22h-358l29 144h272l-269 680h258z" />
    <glyph glyph-name="brokenbar" unicode="&#xa6;" horiz-adv-x="671" 
d="M246 717v819h221v-819h-221zM246 -287v819h221v-819h-221z" />
    <glyph glyph-name="section" unicode="&#xa7;" horiz-adv-x="1042" 
d="M983 541q-18 -91 -83 -165.5t-163 -116.5q70 -73 70 -174q0 -27 -6 -60q-28 -141 -157.5 -236.5t-296.5 -95.5q-142 0 -234.5 72t-96.5 196l225 47q2 -55 40 -87t105 -32q70 0 124 38.5t65 97.5q3 12 3 24q0 64 -61 94l-244 117q-100 48 -150.5 121.5t-50.5 163.5
q0 31 6 65q18 92 82.5 165.5t163.5 115.5q-71 73 -71 175q0 30 6 60q28 141 157.5 236.5t296.5 95.5q142 0 234 -72t96 -196l-224 -47q-2 55 -39.5 87t-104.5 32q-71 0 -125.5 -39t-65.5 -97q-2 -8 -2 -23q0 -65 62 -95l243 -117q99 -48 150.5 -121.5t51.5 -163.5
q0 -30 -6 -65zM647 717l-136 64q-77 -5 -136 -53.5t-73 -117.5q-3 -14 -3 -27q0 -93 115 -149l134 -65q78 6 137.5 54.5t72.5 117.5q3 15 3 29q0 92 -114 147z" />
    <glyph glyph-name="dieresis" unicode="&#xa8;" horiz-adv-x="860" 
d="M261 1323q10 57 57 96t104 39q50 0 81 -30.5t31 -77.5q0 -14 -3 -27q-11 -57 -57.5 -96t-103.5 -39q-50 0 -81 30t-31 77q0 15 3 28zM638 1323q10 57 57 96t104 39q50 0 80.5 -30.5t30.5 -77.5q0 -18 -2 -27q-11 -57 -58 -96t-104 -39q-50 0 -80.5 30t-30.5 77q0 15 3 28
z" />
    <glyph glyph-name="copyright" unicode="&#xa9;" horiz-adv-x="1646" 
d="M883 479q108 0 204 76l70 -152q-116 -96 -274 -96q-177 0 -298.5 118t-121.5 290t121.5 289.5t298.5 117.5q146 0 264 -88l-66 -153q-99 69 -198 69q-98 0 -165 -67.5t-67 -167.5t67 -168t165 -68zM102 717q0 153 58 290t157 236t236.5 157t290.5 58t290 -58t236 -157
t157 -236t58 -290t-58 -290.5t-157 -236.5t-236 -157t-290 -58t-290.5 58t-236.5 157t-157 236.5t-58 290.5zM238 717q0 -169 80.5 -310.5t220 -223t305.5 -81.5t305.5 81.5t220 223t80.5 310.5t-80.5 310.5t-220 222.5t-305.5 81t-305.5 -81t-220 -222.5t-80.5 -310.5z" />
    <glyph glyph-name="ordfeminine" unicode="&#xaa;" horiz-adv-x="942" 
d="M678 688l14 74q-88 -90 -224 -90q-139 0 -225 86.5t-86 221.5q0 36 8 81q32 164 163 276.5t292 112.5q135 0 189 -90l14 74h203l-145 -746h-203zM730 958l40 205q-15 44 -57 72.5t-102 28.5q-87 0 -156.5 -58t-86.5 -145q-4 -19 -4 -42q0 -71 46 -116t122 -45
q60 0 112.5 28t85.5 72z" />
    <glyph glyph-name="guillemotleft" unicode="&#xab;" horiz-adv-x="1314" 
d="M116 578l23 122l652 359l-41 -215l-384 -205l304 -205l-42 -215zM617 578l24 122l651 359l-41 -215l-384 -205l304 -205l-42 -215z" />
    <glyph glyph-name="logicalnot" unicode="&#xac;" horiz-adv-x="1187" 
d="M852 236v344h-709v200h942v-544h-233z" />
    <glyph glyph-name="uni00AD" unicode="&#xad;" horiz-adv-x="831" 
d="M717 569h-586l43 222h586z" />
    <glyph glyph-name="registered" unicode="&#xae;" horiz-adv-x="1646" 
d="M102 717q0 153 58 290t157 236t236.5 157t290.5 58t290 -58t236 -157t157 -236t58 -290t-58 -290.5t-157 -236.5t-236 -157t-290 -58t-290.5 58t-236.5 157t-157 236.5t-58 290.5zM238 717q0 -169 80.5 -310.5t220 -223t305.5 -81.5t305.5 81.5t220 223t80.5 310.5
t-80.5 310.5t-220 222.5t-305.5 81t-305.5 -81t-220 -222.5t-80.5 -310.5zM582 1110h301q121 0 199.5 -73.5t78.5 -184.5q0 -83 -46.5 -147.5t-123.5 -92.5l187 -290h-193l-173 272h-54v-272h-176v788zM866 946h-108v-205h108q53 0 86 29t33 74t-33 73.5t-86 28.5z" />
    <glyph glyph-name="macron" unicode="&#xaf;" horiz-adv-x="860" 
d="M259 1229l35 180h614l-35 -180h-614z" />
    <glyph glyph-name="degree" unicode="&#xb0;" 
d="M313 1182q0 -50 33 -83.5t84 -33.5t84 33.5t33 83.5t-33 83t-84 33t-84 -33t-33 -83zM143 1182q0 117 82.5 196.5t204.5 79.5t204.5 -79.5t82.5 -196.5t-83 -197t-204 -80t-204 80t-83 197z" />
    <glyph glyph-name="plusminus" unicode="&#xb1;" horiz-adv-x="1187" 
d="M498 307v355h-355v200h355v355h233v-355h354v-200h-354v-355h-233zM1085 0h-942v201h942v-201z" />
    <glyph glyph-name="twosuperior" unicode="&#xb2;" 
d="M641 858l-255 -227h348l-33 -168h-620l30 149l391 351q67 60 98 104.5t41 93.5q3 17 3 32q0 45 -27 71t-74 26q-52 0 -91.5 -31.5t-79.5 -103.5l-164 69q56 115 150.5 174.5t216.5 59.5q126 0 202.5 -63t76.5 -171q0 -30 -6 -63q-16 -82 -63 -149t-144 -154z" />
    <glyph glyph-name="threesuperior" unicode="&#xb3;" 
d="M580 772q3 16 3 34q0 57 -35.5 93.5t-95.5 36.5q-21 0 -58 -10l-59 96l246 242h-332l34 170h585l-30 -156l-223 -215q83 -23 129.5 -87.5t46.5 -152.5q0 -19 -8 -67q-25 -125 -144 -221.5t-278 -96.5q-104 0 -179.5 47.5t-112.5 132.5l161 117q64 -129 158 -129
q69 0 124 48.5t68 117.5z" />
    <glyph glyph-name="acute" unicode="&#xb4;" horiz-adv-x="860" 
d="M354 1145l346 350h235l-353 -350h-228z" />
    <glyph glyph-name="mu" unicode="&#xb5;" horiz-adv-x="1269" 
d="M-52 -475l299 1536h233l-138 -713q8 -73 67.5 -118.5t143.5 -45.5q75 0 160.5 51t145.5 121l137 705h234l-206 -1061h-233l23 123q-69 -67 -155.5 -107.5t-170.5 -40.5q-62 0 -114 27.5t-85 73.5l-108 -551h-233z" />
    <glyph glyph-name="paragraph" unicode="&#xb6;" horiz-adv-x="1200" 
d="M608 549h-51q-192 0 -323.5 127.5t-131.5 314.5t131.5 315t323.5 128h490v-1702h-173v1540h-94v-1540h-172v817z" />
    <glyph glyph-name="periodcentered" unicode="&#xb7;" horiz-adv-x="614" 
d="M182 666q12 64 63.5 107.5t116.5 43.5q57 0 91.5 -33.5t34.5 -87.5q0 -15 -3 -30q-13 -65 -65 -108.5t-116 -43.5q-56 0 -90.5 33.5t-34.5 86.5q0 16 3 32z" />
    <glyph glyph-name="cedilla" unicode="&#xb8;" horiz-adv-x="860" 
d="M227 -221q-26 0 -58 -4l-33 45l132 180h178l-91 -106q65 -19 102 -64t37 -104q0 -7 -5 -37q-19 -95 -107.5 -158t-203.5 -63q-114 0 -178 61l99 111q38 -33 95 -33q45 0 78 24.5t40 61.5q2 12 2 17q0 31 -23.5 50t-63.5 19z" />
    <glyph glyph-name="onesuperior" unicode="&#xb9;" 
d="M565 1434h176l-189 -971h-207l149 764l-163 -80l-50 151z" />
    <glyph glyph-name="ordmasculine" unicode="&#xba;" horiz-adv-x="942" 
d="M165 1061q32 163 172.5 276t312.5 113q151 0 246 -89.5t95 -226.5q0 -38 -7 -73q-32 -163 -172.5 -276t-312.5 -113q-151 0 -246 89.5t-95 226.5q0 38 7 73zM372 1061q-4 -20 -4 -43q0 -71 46 -115.5t121 -44.5q88 0 156.5 57.5t85.5 145.5q4 19 4 43q0 71 -46 115.5
t-122 44.5q-88 0 -156 -57.5t-85 -145.5z" />
    <glyph glyph-name="guillemotright" unicode="&#xbb;" horiz-adv-x="1314" 
d="M1241 700l-23 -122l-652 -359l42 215l384 205l-304 205l41 215zM739 700l-23 -122l-651 -359l41 215l384 205l-304 205l41 215z" />
    <glyph glyph-name="onequarter" unicode="&#xbc;" horiz-adv-x="1976" 
d="M565 1434h176l-189 -971h-207l149 764l-163 -80l-50 151zM1125 178l32 160l553 633h197l-120 -617h100l-35 -176h-100l-35 -178h-207l35 178h-420zM1384 352h195l58 297zM436 0l979 1434h201l-977 -1434h-203z" />
    <glyph glyph-name="onehalf" unicode="&#xbd;" horiz-adv-x="1976" 
d="M1708 395l-255 -227h348l-33 -168h-620l30 150l391 350q67 60 98 104.5t41 93.5q3 17 3 32q0 45 -27 71t-74 26q-52 0 -91.5 -31.5t-79.5 -103.5l-164 69q56 115 150.5 174.5t216.5 59.5q126 0 202.5 -63t76.5 -171q0 -30 -6 -63q-16 -82 -63 -149t-144 -154zM565 1434
h176l-189 -971h-207l149 764l-163 -80l-50 151zM436 0l979 1434h201l-977 -1434h-203z" />
    <glyph glyph-name="threequarters" unicode="&#xbe;" horiz-adv-x="1976" 
d="M1125 178l32 160l553 633h197l-120 -617h100l-35 -176h-100l-35 -178h-207l35 178h-420zM1384 352h195l58 297zM580 772q3 16 3 34q0 57 -35.5 93.5t-95.5 36.5q-21 0 -58 -10l-59 96l246 242h-332l34 170h585l-30 -156l-223 -215q83 -23 129.5 -87.5t46.5 -152.5
q0 -19 -8 -67q-25 -125 -144 -221.5t-278 -96.5q-104 0 -179.5 47.5t-112.5 132.5l161 117q64 -129 158 -129q69 0 124 48.5t68 117.5zM436 0l979 1434h201l-977 -1434h-203z" />
    <glyph glyph-name="questiondown" unicode="&#xbf;" horiz-adv-x="1130" 
d="M780 647l-71 -371q-181 0 -299.5 -73t-140.5 -187q-3 -16 -3 -32q0 -75 65.5 -121.5t177.5 -46.5q140 0 301 118l93 -173q-218 -158 -465 -158q-195 0 -308.5 99.5t-113.5 246.5q0 21 8 69q29 148 156.5 260.5t315.5 147.5l43 221h241zM867 934q-13 -65 -65 -108.5
t-116 -43.5q-56 0 -90.5 33.5t-34.5 86.5q0 16 3 32q12 64 64 107.5t117 43.5q57 0 91 -33t34 -87q0 -16 -3 -31z" />
    <glyph glyph-name="Agrave" unicode="&#xc0;" horiz-adv-x="1409" 
d="M1016 1434l250 -1434h-262l-53 346h-565l-185 -346h-262l806 1434h271zM828 1169l-329 -614h422zM864 1894l211 -350h-227l-218 350h234z" />
    <glyph glyph-name="Aacute" unicode="&#xc1;" horiz-adv-x="1409" 
d="M1016 1434l250 -1434h-262l-53 346h-565l-185 -346h-262l806 1434h271zM828 1169l-329 -614h422zM726 1544l346 350h235l-354 -350h-227z" />
    <glyph glyph-name="Acircumflex" unicode="&#xc2;" horiz-adv-x="1409" 
d="M1016 1434l250 -1434h-262l-53 346h-565l-185 -346h-262l806 1434h271zM828 1169l-329 -614h422zM1050 1894l231 -350h-227l-118 174l-185 -174h-228l367 350h160z" />
    <glyph glyph-name="Atilde" unicode="&#xc3;" horiz-adv-x="1409" 
d="M1016 1434l250 -1434h-262l-53 346h-565l-185 -346h-262l806 1434h271zM828 1169l-329 -614h422zM928 1604q-68 41 -99 41q-48 0 -80 -79l-191 40q88 223 242 223q61 0 134 -47q68 -41 98 -41q47 0 81 79l190 -40q-88 -224 -241 -224q-61 0 -134 48z" />
    <glyph glyph-name="Adieresis" unicode="&#xc4;" horiz-adv-x="1409" 
d="M1016 1434l250 -1434h-262l-53 346h-565l-185 -346h-262l806 1434h271zM828 1169l-329 -614h422zM609 1704q10 57 57 96t104 39q50 0 81 -30.5t31 -77.5q0 -18 -2 -27q-11 -57 -58 -96t-104 -39q-50 0 -81 30t-31 77q0 14 3 28zM986 1704q10 57 57 96t104 39
q50 0 80.5 -30.5t30.5 -77.5q0 -18 -2 -27q-11 -57 -57.5 -96t-103.5 -39q-50 0 -81 30t-31 77q0 14 3 28z" />
    <glyph glyph-name="Aring" unicode="&#xc5;" horiz-adv-x="1409" 
d="M1016 1434l250 -1434h-262l-53 346h-565l-185 -346h-262l806 1434h271zM828 1169l-329 -614h422zM863 1726q-1 -5 -1 -13q0 -26 17 -42t45 -16q32 0 57 20t30 51q2 10 2 16q0 25 -17 40.5t-45 15.5q-32 0 -57 -20.5t-31 -51.5zM715 1721q14 88 90 148t172 60
q84 0 134.5 -46t50.5 -118q0 -18 -4 -39q-17 -86 -91 -144t-169 -58q-84 0 -135 46t-51 119q0 14 3 32z" />
    <glyph glyph-name="AE" unicode="&#xc6;" horiz-adv-x="1894" 
d="M172 0h-274l1089 1434h952l-41 -209h-610l-78 -400h562l-40 -209h-562l-79 -407h628l-40 -209h-870l67 346h-448zM1034 1159l-450 -604h332z" />
    <glyph glyph-name="Ccedilla" unicode="&#xc7;" horiz-adv-x="1415" 
d="M631 -221q-27 0 -59 -4l-32 45l116 160q-250 25 -401 187.5t-151 402.5q0 72 15 147q40 206 173 376t327 267.5t407 97.5q269 0 451 -160l-157 -182q-83 64 -159 96.5t-176 32.5q-218 0 -397.5 -152.5t-222.5 -375.5q-12 -63 -12 -109q0 -185 118.5 -302.5t307.5 -117.5
q196 0 399 140l91 -181q-197 -140 -436 -166l-74 -87q65 -19 101.5 -64t36.5 -104q0 -13 -4 -37q-19 -95 -107.5 -158t-203.5 -63t-179 61l100 111q38 -33 94 -33q45 0 78.5 24.5t40.5 61.5q2 12 2 17q0 31 -23.5 50t-63.5 19z" />
    <glyph glyph-name="Egrave" unicode="&#xc8;" horiz-adv-x="1167" 
d="M61 0l279 1434h872l-41 -209h-630l-78 -400h581l-39 -209h-582l-80 -407h649l-40 -209h-891zM739 1894l211 -350h-227l-218 350h234z" />
    <glyph glyph-name="Eacute" unicode="&#xc9;" horiz-adv-x="1167" 
d="M61 0l279 1434h872l-41 -209h-630l-78 -400h581l-39 -209h-582l-80 -407h649l-40 -209h-891zM654 1544l346 350h235l-353 -350h-228z" />
    <glyph glyph-name="Ecircumflex" unicode="&#xca;" horiz-adv-x="1167" 
d="M61 0l279 1434h872l-41 -209h-630l-78 -400h581l-39 -209h-582l-80 -407h649l-40 -209h-891zM947 1894l232 -350h-228l-117 174l-186 -174h-227l366 350h160z" />
    <glyph glyph-name="Edieresis" unicode="&#xcb;" horiz-adv-x="1167" 
d="M61 0l279 1434h872l-41 -209h-630l-78 -400h581l-39 -209h-582l-80 -407h649l-40 -209h-891zM507 1704q10 57 57 96t104 39q50 0 80.5 -30.5t30.5 -77.5q0 -18 -2 -27q-11 -57 -58 -96t-104 -39q-50 0 -80.5 30t-30.5 77q0 14 3 28zM884 1704q10 57 56.5 96t103.5 39
q50 0 81 -30.5t31 -77.5q0 -18 -2 -27q-11 -57 -58 -96t-104 -39q-50 0 -80.5 30t-30.5 77q0 14 3 28z" />
    <glyph glyph-name="Igrave" unicode="&#xcc;" horiz-adv-x="589" 
d="M350 1434h242l-279 -1434h-241zM453 1894l211 -350h-228l-218 350h235z" />
    <glyph glyph-name="Iacute" unicode="&#xcd;" horiz-adv-x="589" 
d="M350 1434h242l-279 -1434h-241zM321 1544l346 350h234l-353 -350h-227z" />
    <glyph glyph-name="Icircumflex" unicode="&#xce;" horiz-adv-x="589" 
d="M350 1434h242l-279 -1434h-241zM640 1894l231 -350h-227l-118 174l-185 -174h-227l366 350h160z" />
    <glyph glyph-name="Idieresis" unicode="&#xcf;" horiz-adv-x="589" 
d="M350 1434h242l-279 -1434h-241zM200 1704q10 57 56.5 96t103.5 39q50 0 81 -30.5t31 -77.5q0 -18 -2 -27q-11 -57 -58 -96t-104 -39q-50 0 -80.5 30t-30.5 77q0 14 3 28zM577 1704q10 57 56.5 96t103.5 39q50 0 81 -30.5t31 -77.5q0 -18 -2 -27q-11 -57 -58 -96t-104 -39
q-50 0 -81 30t-31 77q0 10 4 28z" />
    <glyph glyph-name="Eth" unicode="&#xd0;" horiz-adv-x="1499" 
d="M371 1434h503q283 0 441 -142.5t158 -396.5q0 -80 -19 -178q-65 -332 -296 -524.5t-562 -192.5h-504l122 629h-184l33 176h185zM746 629h-290l-81 -416h262q216 0 368.5 126t202.5 378q16 83 16 144q0 180 -104.5 270t-286.5 90h-263l-81 -416h291z" />
    <glyph glyph-name="Ntilde" unicode="&#xd1;" horiz-adv-x="1441" 
d="M944 1604q-68 41 -98 41q-49 0 -81 -79l-191 40q88 223 242 223q61 0 134 -47q68 -41 99 -41q46 0 80 79l190 -40q-88 -224 -241 -224q-61 0 -134 48zM61 0l279 1434h233l450 -1016l198 1016h233l-278 -1434h-234l-450 1016l-197 -1016h-234z" />
    <glyph glyph-name="Ograve" unicode="&#xd2;" horiz-adv-x="1691" 
d="M779 188q143 0 275.5 69.5t225.5 191t121 268.5q10 53 10 106q0 185 -118.5 303.5t-307.5 118.5q-218 0 -397.5 -152.5t-222.5 -375.5q-12 -63 -12 -109q0 -185 118.5 -302.5t307.5 -117.5zM1026 1458q283 0 459 -167.5t176 -428.5q0 -67 -14 -145q-30 -154 -116 -291.5
t-207 -236.5t-274 -156.5t-312 -57.5q-187 0 -332 77t-223.5 212t-78.5 306q0 72 15 147q40 206 173 376t327 267.5t407 97.5zM1004 1894l210 -350h-227l-218 350h235z" />
    <glyph glyph-name="Oacute" unicode="&#xd3;" horiz-adv-x="1691" 
d="M779 188q143 0 275.5 69.5t225.5 191t121 268.5q10 53 10 106q0 185 -118.5 303.5t-307.5 118.5q-218 0 -397.5 -152.5t-222.5 -375.5q-12 -63 -12 -109q0 -185 118.5 -302.5t307.5 -117.5zM1026 1458q283 0 459 -167.5t176 -428.5q0 -67 -14 -145q-30 -154 -116 -291.5
t-207 -236.5t-274 -156.5t-312 -57.5q-187 0 -332 77t-223.5 212t-78.5 306q0 72 15 147q40 206 173 376t327 267.5t407 97.5zM872 1544l347 350h234l-353 -350h-228z" />
    <glyph glyph-name="Ocircumflex" unicode="&#xd4;" horiz-adv-x="1691" 
d="M779 188q143 0 275.5 69.5t225.5 191t121 268.5q10 53 10 106q0 185 -118.5 303.5t-307.5 118.5q-218 0 -397.5 -152.5t-222.5 -375.5q-12 -63 -12 -109q0 -185 118.5 -302.5t307.5 -117.5zM1026 1458q283 0 459 -167.5t176 -428.5q0 -67 -14 -145q-30 -154 -116 -291.5
t-207 -236.5t-274 -156.5t-312 -57.5q-187 0 -332 77t-223.5 212t-78.5 306q0 72 15 147q40 206 173 376t327 267.5t407 97.5zM1191 1894l231 -350h-227l-118 174l-185 -174h-227l366 350h160z" />
    <glyph glyph-name="Otilde" unicode="&#xd5;" horiz-adv-x="1691" 
d="M779 188q143 0 275.5 69.5t225.5 191t121 268.5q10 53 10 106q0 185 -118.5 303.5t-307.5 118.5q-218 0 -397.5 -152.5t-222.5 -375.5q-12 -63 -12 -109q0 -185 118.5 -302.5t307.5 -117.5zM1026 1458q283 0 459 -167.5t176 -428.5q0 -67 -14 -145q-30 -154 -116 -291.5
t-207 -236.5t-274 -156.5t-312 -57.5q-187 0 -332 77t-223.5 212t-78.5 306q0 72 15 147q40 206 173 376t327 267.5t407 97.5zM1069 1604q-68 41 -98 41q-49 0 -81 -79l-191 40q88 223 242 223q61 0 134 -47q68 -41 99 -41q46 0 80 79l190 -40q-88 -224 -241 -224
q-61 0 -134 48z" />
    <glyph glyph-name="Odieresis" unicode="&#xd6;" horiz-adv-x="1691" 
d="M779 188q143 0 275.5 69.5t225.5 191t121 268.5q10 53 10 106q0 185 -118.5 303.5t-307.5 118.5q-218 0 -397.5 -152.5t-222.5 -375.5q-12 -63 -12 -109q0 -185 118.5 -302.5t307.5 -117.5zM1026 1458q283 0 459 -167.5t176 -428.5q0 -67 -14 -145q-30 -154 -116 -291.5
t-207 -236.5t-274 -156.5t-312 -57.5q-187 0 -332 77t-223.5 212t-78.5 306q0 72 15 147q40 206 173 376t327 267.5t407 97.5zM751 1704q10 57 56.5 96t103.5 39q50 0 81 -30.5t31 -77.5q0 -18 -2 -27q-11 -57 -58 -96t-104 -39q-50 0 -80.5 30t-30.5 77q0 14 3 28z
M1127 1704q10 57 57 96t104 39q50 0 81 -30.5t31 -77.5q0 -18 -2 -27q-11 -57 -58 -96t-104 -39q-50 0 -81 30t-31 77q0 14 3 28z" />
    <glyph glyph-name="multiply" unicode="&#xd7;" horiz-adv-x="1187" 
d="M322 1124l286 -288l299 299l158 -158l-299 -299l299 -299l-158 -158l-299 299l-289 -289l-157 158l289 289l-287 289z" />
    <glyph glyph-name="Oslash" unicode="&#xd8;" horiz-adv-x="1691" 
d="M1026 1458q209 0 369 -98l132 135h211l-228 -231q150 -163 150 -402q0 -80 -13 -145q-30 -154 -116 -291.5t-206.5 -236.5t-274 -156.5t-312.5 -57.5q-227 0 -387 109l-142 -145h-211l241 245q-136 161 -136 387q0 59 16 146q39 205 172 375t327.5 268t407.5 98zM779 188
q143 0 275.5 69.5t225.5 191t121 268.5q10 53 10 106q0 147 -80 258l-805 -820q110 -73 253 -73zM365 717q-12 -65 -12 -110q0 -133 68 -237l799 813q-101 62 -235 62q-218 0 -397.5 -152.5t-222.5 -375.5z" />
    <glyph glyph-name="Ugrave" unicode="&#xd9;" horiz-adv-x="1368" 
d="M831 1894l211 -350h-227l-218 350h234zM1391 1434l-181 -926q-23 -119 -84 -219.5t-146 -168t-189.5 -105.5t-213.5 -38q-195 0 -317.5 112.5t-122.5 301.5q0 50 13 117l180 926h241l-186 -955q-6 -33 -6 -62q0 -103 66.5 -165t172.5 -62q123 0 221.5 80t123.5 209
l186 955h242z" />
    <glyph glyph-name="Uacute" unicode="&#xda;" horiz-adv-x="1368" 
d="M726 1544l346 350h235l-354 -350h-227zM1391 1434l-181 -926q-23 -119 -84 -219.5t-146 -168t-189.5 -105.5t-213.5 -38q-195 0 -317.5 112.5t-122.5 301.5q0 50 13 117l180 926h241l-186 -955q-6 -33 -6 -62q0 -103 66.5 -165t172.5 -62q123 0 221.5 80t123.5 209
l186 955h242z" />
    <glyph glyph-name="Ucircumflex" unicode="&#xdb;" horiz-adv-x="1368" 
d="M1029 1894l232 -350h-228l-118 174l-185 -174h-227l366 350h160zM1391 1434l-181 -926q-23 -119 -84 -219.5t-146 -168t-189.5 -105.5t-213.5 -38q-195 0 -317.5 112.5t-122.5 301.5q0 50 13 117l180 926h241l-186 -955q-6 -33 -6 -62q0 -103 66.5 -165t172.5 -62
q123 0 221.5 80t123.5 209l186 955h242z" />
    <glyph glyph-name="Udieresis" unicode="&#xdc;" horiz-adv-x="1368" 
d="M589 1704q10 57 57 96t104 39q50 0 80.5 -30.5t30.5 -77.5q0 -18 -2 -27q-11 -57 -58 -96t-104 -39q-50 0 -80.5 30t-30.5 77q0 14 3 28zM966 1704q10 57 56.5 96t103.5 39q50 0 81 -30.5t31 -77.5q0 -18 -2 -27q-11 -57 -58 -96t-104 -39q-50 0 -80.5 30t-30.5 77
q0 14 3 28zM1391 1434l-181 -926q-23 -119 -84 -219.5t-146 -168t-189.5 -105.5t-213.5 -38q-195 0 -317.5 112.5t-122.5 301.5q0 50 13 117l180 926h241l-186 -955q-6 -33 -6 -62q0 -103 66.5 -165t172.5 -62q123 0 221.5 80t123.5 209l186 955h242z" />
    <glyph glyph-name="Yacute" unicode="&#xdd;" horiz-adv-x="1323" 
d="M475 1434l244 -611l481 611h258l-664 -846l-114 -588h-242l114 588l-335 846h258zM705 1544l346 350h234l-353 -350h-227z" />
    <glyph glyph-name="Thorn" unicode="&#xde;" horiz-adv-x="1214" 
d="M595 260h-242l-50 -260h-242l279 1434h242l-52 -260h242q199 0 308.5 -94.5t109.5 -258.5q0 -51 -10 -104q-41 -209 -198 -333t-387 -124zM934 717q6 33 6 62q0 88 -55.5 137t-162.5 49h-232l-96 -496h232q125 0 205 66t103 182z" />
    <glyph glyph-name="germandbls" unicode="&#xdf;" horiz-adv-x="1255" 
d="M51 0l204 1049q24 122 98 216t180.5 143.5t228.5 49.5q162 0 264 -87.5t102 -221.5q0 -31 -6 -64q-20 -100 -93 -182.5t-185 -122.5q139 -24 224 -111t85 -211q0 -27 -7 -69q-34 -175 -193.5 -294.5t-361.5 -119.5q-131 0 -220 50l98 211q68 -52 162 -52q98 0 175 58.5
t94 146.5q4 20 4 46q0 103 -92.5 165t-252.5 66l39 200q107 11 183 66t93 143q4 22 4 32q0 62 -43.5 102t-112.5 40q-81 0 -144 -52.5t-80 -137.5l-205 -1059h-242z" />
    <glyph glyph-name="agrave" unicode="&#xe0;" horiz-adv-x="1343" 
d="M588 184q102 0 196 52t153 139l59 309q-25 87 -98.5 140t-174.5 53q-146 0 -265.5 -100.5t-148.5 -246.5q-7 -34 -7 -69q0 -121 79.5 -199t206.5 -78zM723 1085q213 0 325 -139l22 115h234l-206 -1061h-234l22 115q-168 -140 -379 -140q-202 0 -324.5 126t-122.5 318
q0 46 12 111q29 150 123 276.5t234 202.5t294 76zM736 1563l211 -351h-227l-218 351h234z" />
    <glyph glyph-name="aacute" unicode="&#xe1;" horiz-adv-x="1343" 
d="M588 184q102 0 196 52t153 139l59 309q-25 87 -98.5 140t-174.5 53q-146 0 -265.5 -100.5t-148.5 -246.5q-7 -34 -7 -69q0 -121 79.5 -199t206.5 -78zM723 1085q213 0 325 -139l22 115h234l-206 -1061h-234l22 115q-168 -140 -379 -140q-202 0 -324.5 126t-122.5 318
q0 46 12 111q29 150 123 276.5t234 202.5t294 76zM589 1212l346 351h234l-353 -351h-227z" />
    <glyph glyph-name="acircumflex" unicode="&#xe2;" horiz-adv-x="1343" 
d="M588 184q102 0 196 52t153 139l59 309q-25 87 -98.5 140t-174.5 53q-146 0 -265.5 -100.5t-148.5 -246.5q-7 -34 -7 -69q0 -121 79.5 -199t206.5 -78zM723 1085q213 0 325 -139l22 115h234l-206 -1061h-234l22 115q-168 -140 -379 -140q-202 0 -324.5 126t-122.5 318
q0 46 12 111q29 150 123 276.5t234 202.5t294 76zM936 1563l231 -351h-227l-118 174l-185 -174h-227l366 351h160z" />
    <glyph glyph-name="atilde" unicode="&#xe3;" horiz-adv-x="1343" 
d="M588 184q102 0 196 52t153 139l59 309q-25 87 -98.5 140t-174.5 53q-146 0 -265.5 -100.5t-148.5 -246.5q-7 -34 -7 -69q0 -121 79.5 -199t206.5 -78zM723 1085q213 0 325 -139l22 115h234l-206 -1061h-234l22 115q-168 -140 -379 -140q-202 0 -324.5 126t-122.5 318
q0 46 12 111q29 150 123 276.5t234 202.5t294 76zM794 1272q-68 41 -99 41q-49 0 -81 -79l-190 40q88 223 242 223q61 0 134 -47q68 -41 98 -41q47 0 81 79l189 -40q-88 -223 -240 -223q-63 0 -134 47z" />
    <glyph glyph-name="adieresis" unicode="&#xe4;" horiz-adv-x="1343" 
d="M588 184q102 0 196 52t153 139l59 309q-25 87 -98.5 140t-174.5 53q-146 0 -265.5 -100.5t-148.5 -246.5q-7 -34 -7 -69q0 -121 79.5 -199t206.5 -78zM723 1085q213 0 325 -139l22 115h234l-206 -1061h-234l22 115q-168 -140 -379 -140q-202 0 -324.5 126t-122.5 318
q0 46 12 111q29 150 123 276.5t234 202.5t294 76zM475 1372q10 57 57 96t104 39q50 0 81 -30.5t31 -77.5q0 -13 -3 -27q-11 -57 -57.5 -96t-103.5 -39q-50 0 -81 30.5t-31 77.5q0 13 3 27zM852 1372q10 57 57 96t104 39q50 0 80.5 -30.5t30.5 -77.5q0 -18 -2 -27
q-11 -57 -57.5 -96t-103.5 -39q-50 0 -81 30.5t-31 77.5q0 13 3 27z" />
    <glyph glyph-name="aring" unicode="&#xe5;" horiz-adv-x="1343" 
d="M588 184q102 0 196 52t153 139l59 309q-25 87 -98.5 140t-174.5 53q-146 0 -265.5 -100.5t-148.5 -246.5q-7 -34 -7 -69q0 -121 79.5 -199t206.5 -78zM723 1085q213 0 325 -139l22 115h234l-206 -1061h-234l22 115q-168 -140 -379 -140q-202 0 -324.5 126t-122.5 318
q0 46 12 111q29 150 123 276.5t234 202.5t294 76zM729 1395q-1 -5 -1 -14q0 -26 17 -42t45 -16q32 0 57 20.5t30 51.5q2 10 2 15q0 25 -17 40.5t-45 15.5q-32 0 -57 -20t-31 -51zM581 1390q14 88 90 147.5t172 59.5q84 0 134.5 -45.5t50.5 -117.5q0 -18 -4 -39
q-17 -86 -91 -144.5t-169 -58.5q-84 0 -135 46t-51 119q0 15 3 33z" />
    <glyph glyph-name="ae" unicode="&#xe6;" horiz-adv-x="2082" 
d="M1987 455h-874v-11q0 -118 80.5 -193t208.5 -75q180 0 342 139l131 -147q-214 -193 -506 -193q-142 0 -251 54.5t-165 146.5q-88 -93 -214 -147t-263 -54q-200 0 -324 86t-124 219q0 24 5 52q28 143 187.5 239.5t359.5 96.5q94 0 180.5 -24t138.5 -62l9 47q4 19 4 43
q0 92 -73 152.5t-193 60.5q-91 0 -188 -35t-176 -92l-54 176q103 72 223.5 111.5t240.5 39.5q138 0 243.5 -54t156.5 -148q91 94 217 148t260 54q209 0 332.5 -120.5t123.5 -307.5q0 -55 -10 -106q-10 -52 -28 -96zM266 333q-2 -12 -2 -19q0 -60 72 -99t191 -39
q209 0 316 125l19 101q-93 85 -274 85q-127 0 -217.5 -44.5t-104.5 -109.5zM1529 885q-110 0 -213 -66.5t-157 -171.5h630q-7 104 -77.5 171t-182.5 67z" />
    <glyph glyph-name="ccedilla" unicode="&#xe7;" horiz-adv-x="1136" 
d="M432 -221q-26 0 -58 -4l-33 45l118 162q-182 25 -290 146t-108 295q0 49 11 107q30 153 130 280t248.5 201t313.5 74q224 0 362 -135l-156 -182q-113 109 -247 109q-146 0 -265.5 -100.5t-148.5 -246.5q-7 -34 -7 -69q0 -121 79.5 -199t206.5 -78q148 0 295 115l104 -170
q-157 -123 -352 -147l-75 -88q65 -19 101.5 -64t36.5 -104q0 -13 -4 -37q-19 -95 -107.5 -158t-203.5 -63q-114 0 -178 61l99 111q38 -33 94 -33q45 0 78.5 24.5t40.5 61.5q2 12 2 17q0 31 -23.5 50t-63.5 19z" />
    <glyph glyph-name="egrave" unicode="&#xe8;" horiz-adv-x="1265" 
d="M1169 455h-873v-11q0 -118 80.5 -193t208.5 -75q180 0 342 139l131 -147q-214 -193 -506 -193q-227 0 -359.5 124.5t-132.5 319.5q0 46 12 111q30 153 128.5 280t244.5 201t307 74q209 0 332.5 -120.5t123.5 -307.5q0 -55 -10 -106q-9 -47 -29 -96zM712 885
q-110 0 -213 -66.5t-157 -171.5h630q-7 104 -77.5 171t-182.5 67zM744 1563l211 -351h-227l-218 351h234z" />
    <glyph glyph-name="eacute" unicode="&#xe9;" horiz-adv-x="1265" 
d="M1169 455h-873v-11q0 -118 80.5 -193t208.5 -75q180 0 342 139l131 -147q-214 -193 -506 -193q-227 0 -359.5 124.5t-132.5 319.5q0 46 12 111q30 153 128.5 280t244.5 201t307 74q209 0 332.5 -120.5t123.5 -307.5q0 -55 -10 -106q-9 -47 -29 -96zM712 885
q-110 0 -213 -66.5t-157 -171.5h630q-7 104 -77.5 171t-182.5 67zM581 1212l346 351h234l-353 -351h-227z" />
    <glyph glyph-name="ecircumflex" unicode="&#xea;" horiz-adv-x="1265" 
d="M1169 455h-873v-11q0 -118 80.5 -193t208.5 -75q180 0 342 139l131 -147q-214 -193 -506 -193q-227 0 -359.5 124.5t-132.5 319.5q0 46 12 111q30 153 128.5 280t244.5 201t307 74q209 0 332.5 -120.5t123.5 -307.5q0 -55 -10 -106q-9 -47 -29 -96zM712 885
q-110 0 -213 -66.5t-157 -171.5h630q-7 104 -77.5 171t-182.5 67zM913 1563l232 -351h-227l-118 174l-186 -174h-227l367 351h159z" />
    <glyph glyph-name="edieresis" unicode="&#xeb;" horiz-adv-x="1265" 
d="M1169 455h-873v-11q0 -118 80.5 -193t208.5 -75q180 0 342 139l131 -147q-214 -193 -506 -193q-227 0 -359.5 124.5t-132.5 319.5q0 46 12 111q30 153 128.5 280t244.5 201t307 74q209 0 332.5 -120.5t123.5 -307.5q0 -55 -10 -106q-9 -47 -29 -96zM712 885
q-110 0 -213 -66.5t-157 -171.5h630q-7 104 -77.5 171t-182.5 67zM473 1372q10 57 57 96t104 39q50 0 80.5 -30.5t30.5 -77.5q0 -18 -2 -27q-11 -57 -57.5 -96t-103.5 -39q-50 0 -81 30.5t-31 77.5q0 13 3 27zM850 1372q10 57 57 96t104 39q50 0 80.5 -30.5t30.5 -77.5
q0 -18 -2 -27q-11 -57 -58 -96t-104 -39q-50 0 -80.5 30.5t-30.5 77.5q0 13 3 27z" />
    <glyph glyph-name="igrave" unicode="&#xec;" horiz-adv-x="540" 
d="M51 0l206 1061h233l-205 -1061h-234zM350 1563l211 -351h-227l-218 351h234z" />
    <glyph glyph-name="iacute" unicode="&#xed;" horiz-adv-x="540" 
d="M51 0l206 1061h233l-205 -1061h-234zM246 1212l346 351h234l-353 -351h-227z" />
    <glyph glyph-name="icircumflex" unicode="&#xee;" horiz-adv-x="540" 
d="M51 0l206 1061h233l-205 -1061h-234zM551 1563l231 -351h-227l-118 174l-185 -174h-227l366 351h160z" />
    <glyph glyph-name="idieresis" unicode="&#xef;" horiz-adv-x="540" 
d="M51 0l206 1061h233l-205 -1061h-234zM111 1372q10 57 56.5 96t103.5 39q50 0 81 -30.5t31 -77.5q0 -18 -2 -27q-11 -57 -58 -96t-104 -39q-50 0 -80.5 30.5t-30.5 77.5q0 13 3 27zM487 1372q10 57 57 96t104 39q50 0 81 -30.5t31 -77.5q0 -18 -2 -27q-11 -57 -58 -96
t-104 -39q-50 0 -81 30.5t-31 77.5q0 13 3 27z" />
    <glyph glyph-name="eth" unicode="&#xf0;" horiz-adv-x="1271" 
d="M429 1049l-37 137l234 99q-80 55 -173 99l207 111q102 -46 191 -115l244 105l37 -137l-167 -72q113 -123 174 -279t61 -325q0 -89 -16 -172q-43 -221 -234.5 -373t-426.5 -152q-207 0 -337.5 120t-130.5 306q0 37 11 99q28 142 125 261.5t230.5 187t270.5 67.5
q139 0 229 -74q-64 137 -173 243zM304 504q-6 -33 -6 -64q0 -112 74 -184t193 -72q137 0 248.5 92.5t137.5 227.5q6 33 6 63q0 112 -74 184t-193 72q-137 0 -248.5 -92t-137.5 -227z" />
    <glyph glyph-name="ntilde" unicode="&#xf1;" horiz-adv-x="1249" 
d="M411 705l-137 -705h-233l206 1061h233l-23 -123q73 66 165 106.5t181 40.5q165 0 260.5 -90.5t95.5 -246.5q0 -52 -10 -105l-125 -643h-233l121 631q6 29 6 55q0 87 -54 139t-147 52q-75 0 -160 -51t-146 -121zM794 1272q-68 41 -99 41q-49 0 -81 -79l-190 40
q88 223 242 223q61 0 134 -47q68 -41 98 -41q47 0 81 79l189 -40q-88 -223 -240 -223q-63 0 -134 47z" />
    <glyph glyph-name="ograve" unicode="&#xf2;" horiz-adv-x="1310" 
d="M746 1563l211 -351h-227l-218 351h234zM588 184q146 0 265 100t148 246q8 38 8 70q0 121 -79.5 199t-206.5 78q-146 0 -265.5 -100.5t-148.5 -246.5q-7 -34 -7 -69q0 -121 79.5 -199t206.5 -78zM764 1085q219 0 352 -125.5t133 -321.5q0 -55 -10 -108
q-30 -153 -129.5 -280t-248 -201t-313.5 -74q-219 0 -353 126.5t-134 321.5q0 49 11 107q30 153 130 280t248.5 201t313.5 74z" />
    <glyph glyph-name="oacute" unicode="&#xf3;" horiz-adv-x="1310" 
d="M625 1212l346 351h234l-353 -351h-227zM588 184q146 0 265 100t148 246q8 38 8 70q0 121 -79.5 199t-206.5 78q-146 0 -265.5 -100.5t-148.5 -246.5q-7 -34 -7 -69q0 -121 79.5 -199t206.5 -78zM764 1085q219 0 352 -125.5t133 -321.5q0 -55 -10 -108
q-30 -153 -129.5 -280t-248 -201t-313.5 -74q-219 0 -353 126.5t-134 321.5q0 49 11 107q30 153 130 280t248.5 201t313.5 74z" />
    <glyph glyph-name="ocircumflex" unicode="&#xf4;" horiz-adv-x="1310" 
d="M936 1563l231 -351h-227l-118 174l-185 -174h-227l366 351h160zM588 184q146 0 265 100t148 246q8 38 8 70q0 121 -79.5 199t-206.5 78q-146 0 -265.5 -100.5t-148.5 -246.5q-7 -34 -7 -69q0 -121 79.5 -199t206.5 -78zM764 1085q219 0 352 -125.5t133 -321.5
q0 -55 -10 -108q-30 -153 -129.5 -280t-248 -201t-313.5 -74q-219 0 -353 126.5t-134 321.5q0 49 11 107q30 153 130 280t248.5 201t313.5 74z" />
    <glyph glyph-name="otilde" unicode="&#xf5;" horiz-adv-x="1310" 
d="M814 1272q-68 41 -98 41q-49 0 -81 -79l-191 40q88 223 242 223q61 0 134 -47q68 -41 99 -41q46 0 80 79l190 -40q-88 -223 -241 -223q-63 0 -134 47zM588 184q146 0 265 100t148 246q8 38 8 70q0 121 -79.5 199t-206.5 78q-146 0 -265.5 -100.5t-148.5 -246.5
q-7 -34 -7 -69q0 -121 79.5 -199t206.5 -78zM764 1085q219 0 352 -125.5t133 -321.5q0 -55 -10 -108q-30 -153 -129.5 -280t-248 -201t-313.5 -74q-219 0 -353 126.5t-134 321.5q0 49 11 107q30 153 130 280t248.5 201t313.5 74z" />
    <glyph glyph-name="odieresis" unicode="&#xf6;" horiz-adv-x="1310" 
d="M496 1372q10 57 56.5 96t103.5 39q50 0 81 -30.5t31 -77.5q0 -18 -2 -27q-11 -57 -58 -96t-104 -39q-50 0 -80.5 30.5t-30.5 77.5q0 13 3 27zM872 1372q10 57 57 96t104 39q50 0 81 -30.5t31 -77.5q0 -18 -2 -27q-11 -57 -58 -96t-104 -39q-50 0 -81 30.5t-31 77.5
q0 13 3 27zM588 184q146 0 265 100t148 246q8 38 8 70q0 121 -79.5 199t-206.5 78q-146 0 -265.5 -100.5t-148.5 -246.5q-7 -34 -7 -69q0 -121 79.5 -199t206.5 -78zM764 1085q219 0 352 -125.5t133 -321.5q0 -55 -10 -108q-30 -153 -129.5 -280t-248 -201t-313.5 -74
q-219 0 -353 126.5t-134 321.5q0 49 11 107q30 153 130 280t248.5 201t313.5 74z" />
    <glyph glyph-name="divide" unicode="&#xf7;" horiz-adv-x="1187" 
d="M1085 580h-942v200h942v-200zM463 1067q0 65 43.5 108.5t107.5 43.5t108 -43.5t44 -108.5t-44 -108.5t-108 -43.5t-107.5 43.5t-43.5 108.5zM463 293q0 65 43.5 108t107.5 43q65 0 108.5 -43.5t43.5 -107.5q0 -65 -44 -108.5t-108 -43.5t-107.5 43.5t-43.5 108.5z" />
    <glyph glyph-name="oslash" unicode="&#xf8;" horiz-adv-x="1310" 
d="M1136 1122h202l-191 -194q103 -118 103 -289q0 -51 -11 -109q-30 -153 -129.5 -280t-248 -201t-313.5 -74q-152 0 -273 67l-101 -103h-203l193 195q-103 120 -103 289q0 49 11 107q30 153 130 280t248.5 201t313.5 74q153 0 269 -66zM588 184q146 0 265 100t148 246
q8 38 8 69q0 84 -40 149l-522 -532q64 -32 141 -32zM309 530q-7 -35 -7 -70q0 -84 38 -146l522 531q-64 32 -139 32q-146 0 -265.5 -100.5t-148.5 -246.5z" />
    <glyph glyph-name="ugrave" unicode="&#xf9;" horiz-adv-x="1249" 
d="M839 356l137 705h233l-205 -1061h-234l24 123q-74 -67 -166.5 -107.5t-180.5 -40.5q-165 0 -260.5 91t-95.5 246q0 53 10 106l125 643h234l-123 -631q-5 -24 -5 -55q0 -87 53.5 -139t146.5 -52q75 0 161 51t146 121zM685 1563l211 -351h-227l-218 351h234z" />
    <glyph glyph-name="uacute" unicode="&#xfa;" horiz-adv-x="1249" 
d="M839 356l137 705h233l-205 -1061h-234l24 123q-74 -67 -166.5 -107.5t-180.5 -40.5q-165 0 -260.5 91t-95.5 246q0 53 10 106l125 643h234l-123 -631q-5 -24 -5 -55q0 -87 53.5 -139t146.5 -52q75 0 161 51t146 121zM589 1212l346 351h234l-353 -351h-227z" />
    <glyph glyph-name="ucircumflex" unicode="&#xfb;" horiz-adv-x="1249" 
d="M839 356l137 705h233l-205 -1061h-234l24 123q-74 -67 -166.5 -107.5t-180.5 -40.5q-165 0 -260.5 91t-95.5 246q0 53 10 106l125 643h234l-123 -631q-5 -24 -5 -55q0 -87 53.5 -139t146.5 -52q75 0 161 51t146 121zM889 1563l231 -351h-227l-118 174l-185 -174h-228
l367 351h160z" />
    <glyph glyph-name="udieresis" unicode="&#xfc;" horiz-adv-x="1249" 
d="M839 356l137 705h233l-205 -1061h-234l24 123q-74 -67 -166.5 -107.5t-180.5 -40.5q-165 0 -260.5 91t-95.5 246q0 53 10 106l125 643h234l-123 -631q-5 -24 -5 -55q0 -87 53.5 -139t146.5 -52q75 0 161 51t146 121zM449 1372q10 57 56.5 96t103.5 39q50 0 81 -30.5
t31 -77.5q0 -18 -2 -27q-11 -57 -58 -96t-104 -39q-50 0 -81 30.5t-31 77.5q0 9 4 27zM825 1372q10 57 57 96t104 39q50 0 81 -30.5t31 -77.5q0 -18 -2 -27q-11 -57 -58 -96t-104 -39q-50 0 -81 30.5t-31 77.5q0 13 3 27z" />
    <glyph glyph-name="yacute" unicode="&#xfd;" horiz-adv-x="1081" 
d="M44 -475l273 475l-193 1061h242l127 -766l430 766h241l-878 -1536h-242zM507 1212l346 351h234l-353 -351h-227z" />
    <glyph glyph-name="thorn" unicode="&#xfe;" horiz-adv-x="1343" 
d="M621 184q146 0 265 100t148 246q7 34 7 70q0 121 -79 199t-206 78q-101 0 -195.5 -53t-153.5 -140l-60 -309q25 -87 98.5 -139t175.5 -52zM838 1085q202 0 323.5 -125t121.5 -317q0 -53 -11 -113q-29 -150 -122.5 -276.5t-233.5 -202.5t-294 -76q-213 0 -326 140
l-115 -590h-233l383 1970h233l-106 -549q167 139 380 139z" />
    <glyph glyph-name="ydieresis" unicode="&#xff;" horiz-adv-x="1081" 
d="M381 1372q10 57 57 96t104 39q50 0 80.5 -30.5t30.5 -77.5q0 -18 -2 -27q-11 -57 -58 -96t-104 -39q-50 0 -80.5 30.5t-30.5 77.5q0 13 3 27zM758 1372q10 57 57 96t104 39q50 0 80.5 -30.5t30.5 -77.5q0 -18 -2 -27q-11 -57 -58 -96t-104 -39q-50 0 -80.5 30.5
t-30.5 77.5q0 13 3 27zM44 -475l273 475l-193 1061h242l127 -766l430 766h241l-878 -1536h-242z" />
    <glyph glyph-name="Amacron" unicode="&#x100;" horiz-adv-x="1409" 
d="M1016 1434l250 -1434h-262l-53 346h-565l-185 -346h-262l806 1434h271zM828 1169l-329 -614h422zM607 1608l35 180h614l-34 -180h-615z" />
    <glyph glyph-name="amacron" unicode="&#x101;" horiz-adv-x="1343" 
d="M588 184q102 0 196 52t153 139l59 309q-25 87 -98.5 140t-174.5 53q-146 0 -265.5 -100.5t-148.5 -246.5q-7 -34 -7 -69q0 -121 79.5 -199t206.5 -78zM723 1085q213 0 325 -139l22 115h234l-206 -1061h-234l22 115q-168 -140 -379 -140q-202 0 -324.5 126t-122.5 318
q0 46 12 111q29 150 123 276.5t234 202.5t294 76zM483 1276l35 180h615l-35 -180h-615z" />
    <glyph glyph-name="Abreve" unicode="&#x102;" horiz-adv-x="1409" 
d="M1016 1434l250 -1434h-262l-53 346h-565l-185 -346h-262l806 1434h271zM828 1169l-329 -614h422zM898 1524q-125 0 -206 76.5t-81 197.5q0 23 3 47h205q-2 -10 -2 -28q0 -54 32 -87.5t83 -33.5q59 0 108 42.5t62 106.5h205q-34 -139 -153 -230t-256 -91z" />
    <glyph glyph-name="abreve" unicode="&#x103;" horiz-adv-x="1343" 
d="M588 184q102 0 196 52t153 139l59 309q-25 87 -98.5 140t-174.5 53q-146 0 -265.5 -100.5t-148.5 -246.5q-7 -34 -7 -69q0 -121 79.5 -199t206.5 -78zM723 1085q213 0 325 -139l22 115h234l-206 -1061h-234l22 115q-168 -140 -379 -140q-202 0 -324.5 126t-122.5 318
q0 46 12 111q29 150 123 276.5t234 202.5t294 76zM774 1192q-125 0 -206 76.5t-81 197.5q0 23 3 47h205q-2 -10 -2 -28q0 -54 32 -87.5t83 -33.5q59 0 108 42.5t62 106.5h205q-34 -139 -153 -230t-256 -91z" />
    <glyph glyph-name="Aogonek" unicode="&#x104;" horiz-adv-x="1409" 
d="M1098 0h-94l-53 346h-565l-185 -346h-262l806 1434h271l250 -1434q-189 -134 -207 -227q-2 -10 -2 -21q0 -34 23 -55t59 -21q42 0 80 23l27 -121q-78 -47 -177 -47q-88 0 -143 48.5t-55 124.5q0 15 5 40q14 70 72.5 135.5t149.5 120.5zM828 1169l-329 -614h422z" />
    <glyph glyph-name="aogonek" unicode="&#x105;" horiz-adv-x="1343" 
d="M930 0h-66l22 115q-168 -140 -379 -140q-202 0 -324.5 126t-122.5 318q0 46 12 111q29 150 123 276.5t234 202.5t294 76q213 0 325 -139l22 115h234l-206 -1061q-189 -134 -207 -227q-2 -14 -2 -21q0 -34 23 -55t59 -21q42 0 80 23l27 -121q-78 -47 -177 -47
q-88 0 -143 48.5t-55 124.5q0 13 5 40q13 70 72 135.5t150 120.5zM588 184q102 0 196 52t153 139l59 309q-25 87 -98.5 140t-174.5 53q-146 0 -265.5 -100.5t-148.5 -246.5q-7 -34 -7 -69q0 -121 79.5 -199t206.5 -78z" />
    <glyph glyph-name="Cacute" unicode="&#x106;" horiz-adv-x="1415" 
d="M1178 328l91 -181q-243 -172 -531 -172q-187 0 -332 77t-223.5 212t-78.5 306q0 72 15 147q40 206 173 376t327 267.5t407 97.5q269 0 451 -160l-157 -182q-83 64 -159 96.5t-176 32.5q-218 0 -397.5 -152.5t-222.5 -375.5q-12 -63 -12 -109q0 -185 118.5 -302.5
t307.5 -117.5q196 0 399 140zM821 1544l346 350h235l-353 -350h-228z" />
    <glyph glyph-name="cacute" unicode="&#x107;" horiz-adv-x="1130" 
d="M548 -25q-219 0 -353 126.5t-134 321.5q0 49 11 107q30 153 130 280t248.5 201t313.5 74q224 0 362 -135l-156 -182q-113 109 -247 109q-146 0 -265.5 -100.5t-148.5 -246.5q-7 -34 -7 -69q0 -121 79.5 -199t206.5 -78q148 0 295 115l104 -170q-197 -154 -439 -154z
M566 1212l346 351h235l-353 -351h-228z" />
    <glyph glyph-name="Ccircumflex" unicode="&#x108;" horiz-adv-x="1415" 
d="M1178 328l91 -181q-243 -172 -531 -172q-187 0 -332 77t-223.5 212t-78.5 306q0 72 15 147q40 206 173 376t327 267.5t407 97.5q269 0 451 -160l-157 -182q-83 64 -159 96.5t-176 32.5q-218 0 -397.5 -152.5t-222.5 -375.5q-12 -63 -12 -109q0 -185 118.5 -302.5
t307.5 -117.5q196 0 399 140zM1132 1894l231 -350h-227l-118 174l-185 -174h-228l367 350h160z" />
    <glyph glyph-name="ccircumflex" unicode="&#x109;" horiz-adv-x="1130" 
d="M548 -25q-219 0 -353 126.5t-134 321.5q0 49 11 107q30 153 130 280t248.5 201t313.5 74q224 0 362 -135l-156 -182q-113 109 -247 109q-146 0 -265.5 -100.5t-148.5 -246.5q-7 -34 -7 -69q0 -121 79.5 -199t206.5 -78q148 0 295 115l104 -170q-197 -154 -439 -154z
M872 1563l232 -351h-227l-118 174l-186 -174h-227l367 351h159z" />
    <glyph glyph-name="Cdotaccent" unicode="&#x10a;" horiz-adv-x="1415" 
d="M1178 328l91 -181q-243 -172 -531 -172q-187 0 -332 77t-223.5 212t-78.5 306q0 72 15 147q40 206 173 376t327 267.5t407 97.5q269 0 451 -160l-157 -182q-83 64 -159 96.5t-176 32.5q-218 0 -397.5 -152.5t-222.5 -375.5q-12 -63 -12 -109q0 -185 118.5 -302.5
t307.5 -117.5q196 0 399 140zM880 1704q10 57 56.5 96t103.5 39q50 0 81 -30.5t31 -77.5q0 -17 -3 -31q-12 -55 -58 -93t-103 -38q-50 0 -80.5 30t-30.5 77q0 14 3 28z" />
    <glyph glyph-name="cdotaccent" unicode="&#x10b;" horiz-adv-x="1130" 
d="M548 -25q-219 0 -353 126.5t-134 321.5q0 49 11 107q30 153 130 280t248.5 201t313.5 74q224 0 362 -135l-156 -182q-113 109 -247 109q-146 0 -265.5 -100.5t-148.5 -246.5q-7 -34 -7 -69q0 -121 79.5 -199t206.5 -78q148 0 295 115l104 -170q-197 -154 -439 -154z
M646 1372q10 57 57 96t104 39q50 0 81 -30.5t31 -77.5q0 -13 -4 -31q-12 -55 -57.5 -93t-102.5 -38q-50 0 -81 30.5t-31 77.5q0 13 3 27z" />
    <glyph glyph-name="Ccaron" unicode="&#x10c;" horiz-adv-x="1415" 
d="M1178 328l91 -181q-243 -172 -531 -172q-187 0 -332 77t-223.5 212t-78.5 306q0 72 15 147q40 206 173 376t327 267.5t407 97.5q269 0 451 -160l-157 -182q-83 64 -159 96.5t-176 32.5q-218 0 -397.5 -152.5t-222.5 -375.5q-12 -63 -12 -109q0 -185 118.5 -302.5
t307.5 -117.5q196 0 399 140zM1431 1894l-367 -350h-160l-231 350h227l118 -174l185 174h228z" />
    <glyph glyph-name="ccaron" unicode="&#x10d;" horiz-adv-x="1130" 
d="M548 -25q-219 0 -353 126.5t-134 321.5q0 49 11 107q30 153 130 280t248.5 201t313.5 74q224 0 362 -135l-156 -182q-113 109 -247 109q-146 0 -265.5 -100.5t-148.5 -246.5q-7 -34 -7 -69q0 -121 79.5 -199t206.5 -78q148 0 295 115l104 -170q-197 -154 -439 -154z
M1169 1542l-366 -350h-160l-231 350h227l118 -174l185 174h227z" />
    <glyph glyph-name="Dcaron" unicode="&#x10e;" horiz-adv-x="1468" 
d="M340 1434h504q283 0 440.5 -142.5t157.5 -396.5q0 -80 -19 -178q-65 -332 -296 -524.5t-562 -192.5h-504zM802 1221h-262l-196 -1008h262q105 0 196.5 30.5t167 90.5t129.5 157.5t79 225.5q15 78 15 144q0 180 -104.5 270t-286.5 90zM1328 1894l-366 -350h-160l-232 350
h228l117 -174l186 174h227z" />
    <glyph glyph-name="dcaron" unicode="&#x10f;" horiz-adv-x="1662" 
d="M588 184q102 0 196 52t153 139l59 309q-25 87 -98.5 140t-174.5 53q-146 0 -265.5 -100.5t-148.5 -246.5q-7 -34 -7 -69q0 -121 79.5 -199t206.5 -78zM723 1085q213 0 325 -139l106 549h234l-290 -1495h-234l22 115q-168 -140 -379 -140q-202 0 -324.5 126t-122.5 318
q0 46 12 111q29 150 123 276.5t234 202.5t294 76zM1495 1374q12 62 62.5 104t111.5 42q54 0 87 -33t33 -84q0 -14 -3 -29q-6 -29 -29 -67l-198 -301h-148l150 231q-32 13 -50.5 41.5t-18.5 66.5q0 14 3 29z" />
    <glyph glyph-name="Dcroat" unicode="&#x110;" horiz-adv-x="1499" 
d="M371 1434h503q283 0 441 -142.5t158 -396.5q0 -80 -19 -178q-65 -332 -296 -524.5t-562 -192.5h-504l122 629h-184l33 176h185zM746 629h-290l-81 -416h262q216 0 368.5 126t202.5 378q16 83 16 144q0 180 -104.5 270t-286.5 90h-263l-81 -416h291z" />
    <glyph glyph-name="dcroat" unicode="&#x111;" horiz-adv-x="1363" 
d="M765 1188l31 155h329l29 152h234l-29 -152h143l-31 -155h-143l-230 -1188h-234l22 115q-168 -140 -379 -140q-202 0 -324.5 126t-122.5 318q0 46 12 111q29 150 123 276.5t234 202.5t294 76q213 0 325 -139l47 242h-330zM588 184q102 0 196 52t153 139l59 309
q-25 87 -98.5 140t-174.5 53q-146 0 -265.5 -100.5t-148.5 -246.5q-7 -34 -7 -69q0 -121 79.5 -199t206.5 -78z" />
    <glyph glyph-name="Emacron" unicode="&#x112;" horiz-adv-x="1167" 
d="M61 0l279 1434h872l-41 -209h-630l-78 -400h581l-39 -209h-582l-80 -407h649l-40 -209h-891zM505 1608l35 180h614l-35 -180h-614z" />
    <glyph glyph-name="emacron" unicode="&#x113;" horiz-adv-x="1265" 
d="M1169 455h-873v-11q0 -118 80.5 -193t208.5 -75q180 0 342 139l131 -147q-214 -193 -506 -193q-227 0 -359.5 124.5t-132.5 319.5q0 46 12 111q30 153 128.5 280t244.5 201t307 74q209 0 332.5 -120.5t123.5 -307.5q0 -55 -10 -106q-9 -47 -29 -96zM712 885
q-110 0 -213 -66.5t-157 -171.5h630q-7 104 -77.5 171t-182.5 67zM473 1276l35 180h614l-35 -180h-614z" />
    <glyph glyph-name="Ebreve" unicode="&#x114;" horiz-adv-x="1167" 
d="M61 0l279 1434h872l-41 -209h-630l-78 -400h581l-39 -209h-582l-80 -407h649l-40 -209h-891zM794 1524q-125 0 -206 76.5t-81 197.5q0 23 3 47h205q-2 -10 -2 -28q0 -54 31.5 -87.5t82.5 -33.5q59 0 108 42.5t62 106.5h205q-34 -139 -152.5 -230t-255.5 -91z" />
    <glyph glyph-name="ebreve" unicode="&#x115;" horiz-adv-x="1265" 
d="M1169 455h-873v-11q0 -118 80.5 -193t208.5 -75q180 0 342 139l131 -147q-214 -193 -506 -193q-227 0 -359.5 124.5t-132.5 319.5q0 46 12 111q30 153 128.5 280t244.5 201t307 74q209 0 332.5 -120.5t123.5 -307.5q0 -55 -10 -106q-9 -47 -29 -96zM712 885
q-110 0 -213 -66.5t-157 -171.5h630q-7 104 -77.5 171t-182.5 67zM762 1192q-125 0 -206 76.5t-81 197.5q0 23 3 47h205q-2 -10 -2 -28q0 -54 32 -87.5t83 -33.5q59 0 108 42.5t62 106.5h204q-34 -139 -152.5 -230t-255.5 -91z" />
    <glyph glyph-name="Edotaccent" unicode="&#x116;" horiz-adv-x="1167" 
d="M61 0l279 1434h872l-41 -209h-630l-78 -400h581l-39 -209h-582l-80 -407h649l-40 -209h-891zM703 1704q10 57 57 96t104 39q50 0 81 -30.5t31 -77.5q0 -17 -3 -31q-12 -55 -58 -93t-103 -38q-50 0 -81 30t-31 77q0 14 3 28z" />
    <glyph glyph-name="edotaccent" unicode="&#x117;" horiz-adv-x="1265" 
d="M1169 455h-873v-11q0 -118 80.5 -193t208.5 -75q180 0 342 139l131 -147q-214 -193 -506 -193q-227 0 -359.5 124.5t-132.5 319.5q0 46 12 111q30 153 128.5 280t244.5 201t307 74q209 0 332.5 -120.5t123.5 -307.5q0 -55 -10 -106q-9 -47 -29 -96zM712 885
q-110 0 -213 -66.5t-157 -171.5h630q-7 104 -77.5 171t-182.5 67zM666 1372q10 57 56.5 96t103.5 39q50 0 81 -30.5t31 -77.5q0 -17 -3 -31q-12 -55 -58 -93t-103 -38q-50 0 -80.5 30.5t-30.5 77.5q0 13 3 27z" />
    <glyph glyph-name="Eogonek" unicode="&#x118;" horiz-adv-x="1167" 
d="M61 0l279 1434h872l-41 -209h-630l-78 -400h581l-39 -209h-582l-80 -407h649l-40 -209h-180q-189 -134 -207 -227q-2 -14 -2 -21q0 -34 23 -55t59 -21q42 0 80 23l28 -121q-78 -47 -178 -47q-88 0 -142.5 48.5t-54.5 124.5q0 19 4 40q13 70 72 135.5t150 120.5h-543z" />
    <glyph glyph-name="eogonek" unicode="&#x119;" horiz-adv-x="1265" 
d="M1169 455h-873v-11q0 -118 80.5 -193t208.5 -75q180 0 342 139l131 -147q-177 -161 -418 -187q-160 -119 -177 -208q-2 -14 -2 -21q0 -34 23 -55t59 -21q42 0 80 23l27 -121q-78 -47 -177 -47q-88 0 -143 48.5t-55 124.5q0 13 5 40q23 125 190 237q-191 22 -300.5 142
t-109.5 296q0 46 12 111q30 153 128.5 280t244.5 201t307 74q209 0 332.5 -120.5t123.5 -307.5q0 -55 -10 -106q-9 -47 -29 -96zM712 885q-110 0 -213 -66.5t-157 -171.5h630q-7 104 -77.5 171t-182.5 67z" />
    <glyph glyph-name="Ecaron" unicode="&#x11a;" horiz-adv-x="1167" 
d="M61 0l279 1434h872l-41 -209h-630l-78 -400h581l-39 -209h-582l-80 -407h649l-40 -209h-891zM1246 1894l-366 -350h-160l-232 350h228l118 -174l185 174h227z" />
    <glyph glyph-name="ecaron" unicode="&#x11b;" horiz-adv-x="1265" 
d="M1169 455h-873v-11q0 -118 80.5 -193t208.5 -75q180 0 342 139l131 -147q-214 -193 -506 -193q-227 0 -359.5 124.5t-132.5 319.5q0 46 12 111q30 153 128.5 280t244.5 201t307 74q209 0 332.5 -120.5t123.5 -307.5q0 -55 -10 -106q-9 -47 -29 -96zM712 885
q-110 0 -213 -66.5t-157 -171.5h630q-7 104 -77.5 171t-182.5 67zM1212 1542l-366 -350h-160l-231 350h227l118 -174l185 174h227z" />
    <glyph glyph-name="Gcircumflex" unicode="&#x11c;" horiz-adv-x="1484" 
d="M985 1245q-218 0 -397.5 -152.5t-222.5 -375.5q-12 -63 -12 -109q0 -185 118.5 -302.5t307.5 -117.5q149 0 279 72l60 309h-348l40 209h590l-121 -622q-116 -85 -256 -133t-285 -48q-187 0 -332 77t-223.5 212t-78.5 306q0 72 15 147q40 206 173 376t327 267.5t407 97.5
q269 0 451 -160l-157 -182q-83 64 -159 96.5t-176 32.5zM1132 1894l231 -350h-227l-118 174l-185 -174h-228l367 350h160z" />
    <glyph glyph-name="gcircumflex" unicode="&#x11d;" horiz-adv-x="1343" 
d="M588 184q102 0 196 52t153 139l59 309q-25 87 -98.5 140t-174.5 53q-146 0 -265.5 -100.5t-148.5 -246.5q-7 -34 -7 -69q0 -121 79.5 -199t206.5 -78zM1304 1061l-196 -1004q-48 -246 -219 -389t-444 -143q-150 0 -265.5 56.5t-185.5 158.5l183 149q118 -163 305 -163
q151 0 255.5 83t133.5 232l15 74q-168 -140 -379 -140q-202 0 -324.5 126t-122.5 318q0 46 12 111q29 150 123 276.5t234 202.5t294 76q213 0 325 -139l22 115h234zM936 1563l231 -351h-227l-118 174l-185 -174h-227l366 351h160z" />
    <glyph glyph-name="Gbreve" unicode="&#x11e;" horiz-adv-x="1484" 
d="M985 1245q-218 0 -397.5 -152.5t-222.5 -375.5q-12 -63 -12 -109q0 -185 118.5 -302.5t307.5 -117.5q149 0 279 72l60 309h-348l40 209h590l-121 -622q-116 -85 -256 -133t-285 -48q-187 0 -332 77t-223.5 212t-78.5 306q0 72 15 147q40 206 173 376t327 267.5t407 97.5
q269 0 451 -160l-157 -182q-83 64 -159 96.5t-176 32.5zM980 1524q-125 0 -206 76.5t-81 197.5q0 23 3 47h205q-2 -10 -2 -28q0 -54 32 -87.5t83 -33.5q59 0 108 42.5t62 106.5h205q-34 -139 -153 -230t-256 -91z" />
    <glyph glyph-name="gbreve" unicode="&#x11f;" horiz-adv-x="1343" 
d="M588 184q102 0 196 52t153 139l59 309q-25 87 -98.5 140t-174.5 53q-146 0 -265.5 -100.5t-148.5 -246.5q-7 -34 -7 -69q0 -121 79.5 -199t206.5 -78zM1304 1061l-196 -1004q-48 -246 -219 -389t-444 -143q-150 0 -265.5 56.5t-185.5 158.5l183 149q118 -163 305 -163
q151 0 255.5 83t133.5 232l15 74q-168 -140 -379 -140q-202 0 -324.5 126t-122.5 318q0 46 12 111q29 150 123 276.5t234 202.5t294 76q213 0 325 -139l22 115h234zM774 1192q-125 0 -206 76.5t-81 197.5q0 23 3 47h205q-2 -10 -2 -28q0 -54 32 -87.5t83 -33.5
q59 0 108 42.5t62 106.5h205q-34 -139 -153 -230t-256 -91z" />
    <glyph glyph-name="Gdotaccent" unicode="&#x120;" horiz-adv-x="1484" 
d="M985 1245q-218 0 -397.5 -152.5t-222.5 -375.5q-12 -63 -12 -109q0 -185 118.5 -302.5t307.5 -117.5q149 0 279 72l60 309h-348l40 209h590l-121 -622q-116 -85 -256 -133t-285 -48q-187 0 -332 77t-223.5 212t-78.5 306q0 72 15 147q40 206 173 376t327 267.5t407 97.5
q269 0 451 -160l-157 -182q-83 64 -159 96.5t-176 32.5zM880 1704q10 57 56.5 96t103.5 39q50 0 81 -30.5t31 -77.5q0 -17 -3 -31q-12 -55 -58 -93t-103 -38q-50 0 -80.5 30t-30.5 77q0 14 3 28z" />
    <glyph glyph-name="gdotaccent" unicode="&#x121;" horiz-adv-x="1343" 
d="M588 184q102 0 196 52t153 139l59 309q-25 87 -98.5 140t-174.5 53q-146 0 -265.5 -100.5t-148.5 -246.5q-7 -34 -7 -69q0 -121 79.5 -199t206.5 -78zM1304 1061l-196 -1004q-48 -246 -219 -389t-444 -143q-150 0 -265.5 56.5t-185.5 158.5l183 149q118 -163 305 -163
q151 0 255.5 83t133.5 232l15 74q-168 -140 -379 -140q-202 0 -324.5 126t-122.5 318q0 46 12 111q29 150 123 276.5t234 202.5t294 76q213 0 325 -139l22 115h234zM664 1372q10 57 56.5 96t103.5 39q50 0 81 -30.5t31 -77.5q0 -17 -3 -31q-12 -55 -58 -93t-103 -38
q-50 0 -81 30.5t-31 77.5q0 9 4 27z" />
    <glyph glyph-name="Gcommaaccent" unicode="&#x122;" horiz-adv-x="1484" 
d="M985 1245q-218 0 -397.5 -152.5t-222.5 -375.5q-12 -63 -12 -109q0 -185 118.5 -302.5t307.5 -117.5q149 0 279 72l60 309h-348l40 209h590l-121 -622q-116 -85 -256 -133t-285 -48q-187 0 -332 77t-223.5 212t-78.5 306q0 72 15 147q40 206 173 376t327 267.5t407 97.5
q269 0 451 -160l-157 -182q-83 64 -159 96.5t-176 32.5zM592 -481h-210l226 350h235z" />
    <glyph glyph-name="gcommaaccent" unicode="&#x123;" horiz-adv-x="1343" 
d="M588 184q102 0 196 52t153 139l59 309q-25 87 -98.5 140t-174.5 53q-146 0 -265.5 -100.5t-148.5 -246.5q-7 -34 -7 -69q0 -121 79.5 -199t206.5 -78zM1304 1061l-196 -1004q-48 -246 -219 -389t-444 -143q-150 0 -265.5 56.5t-185.5 158.5l183 149q118 -163 305 -163
q151 0 255.5 83t133.5 232l15 74q-168 -140 -379 -140q-202 0 -324.5 126t-122.5 318q0 46 12 111q29 150 123 276.5t234 202.5t294 76q213 0 325 -139l22 115h234zM893 1550h210l-226 -350h-235z" />
    <glyph glyph-name="Hcircumflex" unicode="&#x124;" horiz-adv-x="1441" 
d="M1066 1894l231 -350h-227l-118 174l-185 -174h-227l366 350h160zM61 0l279 1434h242l-119 -609h631l118 609h242l-278 -1434h-242l120 616h-631l-120 -616h-242z" />
    <glyph glyph-name="hcircumflex" unicode="&#x125;" horiz-adv-x="1249" 
d="M411 705l-137 -705h-233l290 1495h233l-107 -557q73 66 165 106.5t181 40.5q165 0 260.5 -90.5t95.5 -246.5q0 -52 -10 -105l-125 -643h-233l121 631q6 30 6 55q0 87 -54 139t-147 52q-75 0 -160 -51t-146 -121zM616 1956l232 -350h-227l-118 174l-186 -174h-227l367 350
h159z" />
    <glyph glyph-name="Hbar" unicode="&#x126;" horiz-adv-x="1462" 
d="M72 0l204 1057h-122l34 176h123l39 201h242l-39 -201h631l39 201h241l-39 -201h123l-35 -176h-122l-205 -1057h-242l120 616h-631l-120 -616h-241zM473 825h631l45 232h-631z" />
    <glyph glyph-name="hbar" unicode="&#x127;" horiz-adv-x="1269" 
d="M148 1188l31 155h144l28 152h234l-29 -152h330l-31 -155h-330l-48 -250q73 66 165 106.5t181 40.5q165 0 261 -90.5t96 -246.5q0 -47 -11 -105l-125 -643h-233l122 631q5 24 5 55q0 87 -54 139t-147 52q-75 0 -160 -51t-146 -121l-136 -705h-234l231 1188h-144z" />
    <glyph glyph-name="Itilde" unicode="&#x128;" horiz-adv-x="589" 
d="M350 1434h242l-279 -1434h-241zM518 1604q-68 41 -98 41q-49 0 -81 -79l-191 40q88 223 242 223q61 0 134 -47q68 -41 99 -41q46 0 80 79l190 -40q-88 -224 -241 -224q-61 0 -134 48z" />
    <glyph glyph-name="itilde" unicode="&#x129;" horiz-adv-x="540" 
d="M51 0l206 1061h233l-205 -1061h-234zM429 1272q-68 41 -98 41q-49 0 -81 -79l-191 40q88 223 242 223q61 0 134 -47q68 -41 99 -41q46 0 80 79l190 -40q-88 -223 -241 -223q-63 0 -134 47z" />
    <glyph glyph-name="Imacron" unicode="&#x12a;" horiz-adv-x="589" 
d="M350 1434h242l-279 -1434h-241zM198 1608l34 180h615l-35 -180h-614z" />
    <glyph glyph-name="imacron" unicode="&#x12b;" horiz-adv-x="540" 
d="M51 0l206 1061h233l-205 -1061h-234zM109 1276l34 180h615l-35 -180h-614z" />
    <glyph glyph-name="Ibreve" unicode="&#x12c;" horiz-adv-x="589" 
d="M350 1434h242l-279 -1434h-241zM488 1524q-125 0 -205.5 76.5t-80.5 197.5q0 23 3 47h205q-2 -10 -2 -28q0 -54 31.5 -87.5t82.5 -33.5q59 0 108 42.5t62 106.5h205q-34 -139 -153 -230t-256 -91z" />
    <glyph glyph-name="ibreve" unicode="&#x12d;" horiz-adv-x="540" 
d="M51 0l206 1061h233l-205 -1061h-234zM399 1192q-125 0 -205.5 76.5t-80.5 197.5q0 23 3 47h205q-3 -15 -3 -28q0 -54 32 -87.5t83 -33.5q59 0 108 42.5t62 106.5h205q-34 -139 -153 -230t-256 -91z" />
    <glyph glyph-name="Iogonek" unicode="&#x12e;" horiz-adv-x="589" 
d="M145 0h-73l278 1434h242l-279 -1434q-189 -134 -207 -227q-2 -10 -2 -21q0 -34 23 -55t59 -21q42 0 80 23l28 -121q-78 -47 -177 -47q-88 0 -143 48.5t-55 124.5q0 20 4 40q14 70 72.5 135.5t149.5 120.5z" />
    <glyph glyph-name="iogonek" unicode="&#x12f;" horiz-adv-x="540" 
d="M51 0l206 1061h233l-205 -1061q-189 -134 -207 -227q-2 -14 -2 -21q0 -34 23 -55t59 -21q42 0 80 23l27 -121q-78 -47 -177 -47q-88 0 -143 48.5t-55 124.5q0 13 5 40q13 70 72 135.5t150 120.5h-66zM285 1350q11 61 61 103t112 42q54 0 87.5 -33t33.5 -84q0 -8 -4 -28
q-12 -62 -62.5 -104t-111.5 -42q-53 0 -86 32.5t-33 83.5q0 15 3 30z" />
    <glyph glyph-name="Idotaccent" unicode="&#x130;" horiz-adv-x="589" 
d="M350 1434h242l-279 -1434h-241zM388 1704q10 57 57 96t104 39q50 0 80.5 -30.5t30.5 -77.5q0 -17 -3 -31q-12 -55 -57.5 -93t-102.5 -38q-50 0 -81 30t-31 77q0 14 3 28z" />
    <glyph glyph-name="dotlessi" unicode="&#x131;" horiz-adv-x="540" 
d="M51 0l206 1061h233l-205 -1061h-234z" />
    <glyph glyph-name="IJ" unicode="&#x132;" horiz-adv-x="1495" 
d="M350 1434h242l-279 -1434h-241zM1085 457l191 977h242l-191 -977q-49 -249 -187.5 -365.5t-370.5 -116.5q-74 0 -149 19t-124 51l117 203q37 -26 90.5 -43t102.5 -17q113 0 182 63.5t97 205.5z" />
    <glyph glyph-name="ij" unicode="&#x133;" horiz-adv-x="1081" 
d="M51 0l206 1061h233l-205 -1061h-234zM285 1350q11 61 61 103t112 42q54 0 87.5 -33t33.5 -84q0 -8 -4 -28q-12 -62 -62.5 -104t-111.5 -42q-53 0 -86 32.5t-33 83.5q0 15 3 30zM570 -111l228 1172h233l-227 -1167q-38 -198 -135.5 -283.5t-281.5 -85.5q-45 0 -81 4
l39 201h53q74 0 114.5 35.5t57.5 123.5zM825 1350q11 61 61 103t112 42q54 0 87.5 -33t33.5 -84q0 -13 -3 -28q-12 -62 -62.5 -104t-111.5 -42q-54 0 -87 32.5t-33 83.5q0 15 3 30z" />
    <glyph glyph-name="Jcircumflex" unicode="&#x134;" horiz-adv-x="946" 
d="M537 457l190 977h242l-191 -977q-49 -249 -187.5 -365.5t-370.5 -116.5q-74 0 -149 19t-124 51l118 203q38 -26 90.5 -43t101.5 -17q113 0 182.5 63.5t97.5 205.5zM1017 1894l231 -350h-227l-118 174l-185 -174h-228l367 350h160z" />
    <glyph glyph-name="jcircumflex" unicode="&#x135;" horiz-adv-x="540" 
d="M30 -111l227 1172h233l-227 -1167q-38 -198 -135.5 -283.5t-281.5 -85.5q-44 0 -80 4l38 201h54q74 0 114.5 35.5t57.5 123.5zM551 1563l231 -351h-227l-118 174l-185 -174h-227l366 351h160z" />
    <glyph glyph-name="Kcommaaccent" unicode="&#x136;" horiz-adv-x="1245" 
d="M582 1434l-119 -609h87l525 609h275l-616 -709l419 -725h-283l-353 616h-94l-120 -616h-242l279 1434h242zM426 -481h-210l226 350h235z" />
    <glyph glyph-name="kcommaaccent" unicode="&#x137;" horiz-adv-x="1064" 
d="M696 0l-227 489h-100l-95 -489h-233l290 1495h233l-155 -805h103l327 371h274l-430 -471l280 -590h-267zM307 -481h-210l227 350h234z" />
    <glyph glyph-name="kgreenlandic" unicode="&#x138;" horiz-adv-x="1064" 
d="M696 0l-227 489h-100l-95 -489h-233l206 1061h233l-71 -371h103l327 371h274l-430 -471l280 -590h-267z" />
    <glyph glyph-name="Lacute" unicode="&#x139;" horiz-adv-x="1054" 
d="M61 0l279 1434h242l-239 -1225h608l-40 -209h-850zM361 1544l347 350h234l-353 -350h-228z" />
    <glyph glyph-name="lacute" unicode="&#x13a;" horiz-adv-x="540" 
d="M51 0l290 1495h233l-289 -1495h-234zM311 1606l346 350h235l-353 -350h-228z" />
    <glyph glyph-name="Lcommaaccent" unicode="&#x13b;" horiz-adv-x="1054" 
d="M61 0l279 1434h242l-239 -1225h608l-40 -209h-850zM365 -481h-210l226 350h234z" />
    <glyph glyph-name="lcommaaccent" unicode="&#x13c;" horiz-adv-x="540" 
d="M51 0l290 1495h233l-289 -1495h-234zM33 -481h-210l226 350h235z" />
    <glyph glyph-name="Lcaron" unicode="&#x13d;" horiz-adv-x="1054" 
d="M61 0l279 1434h242l-239 -1225h608l-40 -209h-850zM794 1313q12 61 62 103t112 42q54 0 86.5 -33t32.5 -84q0 -13 -3 -28q-7 -33 -28 -68l-199 -301h-147l149 232q-68 28 -68 107q0 15 3 30z" />
    <glyph glyph-name="lcaron" unicode="&#x13e;" horiz-adv-x="849" 
d="M51 0l290 1495h233l-289 -1495h-234zM682 1374q12 62 62.5 104t111.5 42q54 0 87 -33t33 -84q0 -14 -3 -29q-6 -29 -29 -67l-199 -301h-147l150 231q-32 13 -50.5 41.5t-18.5 66.5q0 14 3 29z" />
    <glyph glyph-name="Ldot" unicode="&#x13f;" horiz-adv-x="1054" 
d="M61 0l279 1434h242l-239 -1225h608l-40 -209h-850zM664 770q10 57 56.5 96t103.5 39q50 0 81 -30.5t31 -77.5q0 -17 -3 -31q-12 -55 -58 -93t-103 -38q-50 0 -81 30t-31 77q0 10 4 28z" />
    <glyph glyph-name="ldot" unicode="&#x140;" horiz-adv-x="845" 
d="M51 0l290 1495h233l-289 -1495h-234zM573 770q10 57 57 96t104 39q50 0 81 -30.5t31 -77.5q0 -17 -3 -31q-12 -55 -58 -93t-103 -38q-50 0 -81 30t-31 77q0 14 3 28z" />
    <glyph glyph-name="Lslash" unicode="&#x141;" horiz-adv-x="1085" 
d="M92 0l105 541l-158 -74l38 192l157 74l137 701h241l-112 -577l392 183l-38 -192l-391 -183l-89 -456h608l-40 -209h-850z" />
    <glyph glyph-name="lslash" unicode="&#x142;" horiz-adv-x="602" 
d="M640 831l-179 -82l-146 -749h-233l122 631l-179 -82l33 176l181 82l133 688h233l-110 -570l180 83z" />
    <glyph glyph-name="Nacute" unicode="&#x143;" horiz-adv-x="1441" 
d="M61 0l279 1434h233l450 -1016l198 1016h233l-278 -1434h-234l-450 1016l-197 -1016h-234zM746 1544l347 350h234l-353 -350h-228z" />
    <glyph glyph-name="nacute" unicode="&#x144;" horiz-adv-x="1249" 
d="M411 705l-137 -705h-233l206 1061h233l-23 -123q73 66 165 106.5t181 40.5q165 0 260.5 -90.5t95.5 -246.5q0 -52 -10 -105l-125 -643h-233l121 631q6 29 6 55q0 87 -54 139t-147 52q-75 0 -160 -51t-146 -121zM597 1212l346 351h235l-354 -351h-227z" />
    <glyph glyph-name="Ncommaaccent" unicode="&#x145;" horiz-adv-x="1441" 
d="M61 0l279 1434h233l450 -1016l198 1016h233l-278 -1434h-234l-450 1016l-197 -1016h-234zM504 -481h-210l226 350h235z" />
    <glyph glyph-name="ncommaaccent" unicode="&#x146;" horiz-adv-x="1249" 
d="M411 705l-137 -705h-233l206 1061h233l-23 -123q73 66 165 106.5t181 40.5q165 0 260.5 -90.5t95.5 -246.5q0 -52 -10 -105l-125 -643h-233l121 631q6 29 6 55q0 87 -54 139t-147 52q-75 0 -160 -51t-146 -121zM410 -481h-210l226 350h234z" />
    <glyph glyph-name="Ncaron" unicode="&#x147;" horiz-adv-x="1441" 
d="M1365 1894l-367 -350h-159l-232 350h228l117 -174l186 174h227zM61 0l279 1434h233l450 -1016l198 1016h233l-278 -1434h-234l-450 1016l-197 -1016h-234z" />
    <glyph glyph-name="ncaron" unicode="&#x148;" horiz-adv-x="1249" 
d="M411 705l-137 -705h-233l206 1061h233l-23 -123q73 66 165 106.5t181 40.5q165 0 260.5 -90.5t95.5 -246.5q0 -52 -10 -105l-125 -643h-233l121 631q6 29 6 55q0 87 -54 139t-147 52q-75 0 -160 -51t-146 -121zM1176 1542l-367 -350h-160l-231 350h227l118 -174l185 174
h228z" />
    <glyph glyph-name="napostrophe" unicode="&#x149;" horiz-adv-x="1454" 
d="M615 705l-136 -705h-233l206 1061h233l-23 -123q73 66 165 106.5t181 40.5q165 0 260.5 -90.5t95.5 -246.5q0 -52 -10 -105l-125 -643h-234l122 631q5 24 5 55q0 87 -53.5 139t-146.5 52q-75 0 -160.5 -51t-146.5 -121zM225 1374q12 62 62.5 104t111.5 42q54 0 87 -33
t33 -84q0 -14 -3 -29q-6 -29 -29 -67l-198 -301h-148l150 231q-32 13 -50.5 41.5t-18.5 66.5q0 14 3 29z" />
    <glyph glyph-name="Eng" unicode="&#x14a;" horiz-adv-x="1441" 
d="M923 -98l19 98l-450 1016l-197 -1016h-234l279 1434h233l450 -1016l198 1016h233l-299 -1534q-37 -195 -151.5 -285t-322.5 -90q-67 0 -111 8l39 201q54 -4 91 -4q103 0 154 40.5t69 131.5z" />
    <glyph glyph-name="eng" unicode="&#x14b;" horiz-adv-x="1249" 
d="M771 -98l141 729q6 30 6 55q0 87 -54 139t-147 52q-75 0 -160 -51t-146 -121l-137 -705h-233l206 1061h233l-23 -123q73 66 165 106.5t181 40.5q165 0 260.5 -90.5t95.5 -245.5q0 -53 -10 -106l-145 -743q-37 -194 -152 -284.5t-323 -90.5q-66 0 -110 8l39 201
q40 -4 91 -4q102 0 153 40.5t69 131.5z" />
    <glyph glyph-name="Omacron" unicode="&#x14c;" horiz-adv-x="1691" 
d="M779 188q143 0 275.5 69.5t225.5 191t121 268.5q10 53 10 106q0 185 -118.5 303.5t-307.5 118.5q-218 0 -397.5 -152.5t-222.5 -375.5q-12 -63 -12 -109q0 -185 118.5 -302.5t307.5 -117.5zM1026 1458q283 0 459 -167.5t176 -428.5q0 -67 -14 -145q-30 -154 -116 -291.5
t-207 -236.5t-274 -156.5t-312 -57.5q-187 0 -332 77t-223.5 212t-78.5 306q0 72 15 147q40 206 173 376t327 267.5t407 97.5zM749 1608l34 180h615l-35 -180h-614z" />
    <glyph glyph-name="omacron" unicode="&#x14d;" horiz-adv-x="1310" 
d="M494 1276l34 180h615l-35 -180h-614zM588 184q146 0 265 100t148 246q8 38 8 70q0 121 -79.5 199t-206.5 78q-146 0 -265.5 -100.5t-148.5 -246.5q-7 -34 -7 -69q0 -121 79.5 -199t206.5 -78zM764 1085q219 0 352 -125.5t133 -321.5q0 -55 -10 -108q-30 -153 -129.5 -280
t-248 -201t-313.5 -74q-219 0 -353 126.5t-134 321.5q0 49 11 107q30 153 130 280t248.5 201t313.5 74z" />
    <glyph glyph-name="Obreve" unicode="&#x14e;" horiz-adv-x="1691" 
d="M1039 1524q-125 0 -205.5 76.5t-80.5 197.5q0 23 3 47h205q-3 -15 -3 -28q0 -54 32 -87.5t83 -33.5q59 0 108 42.5t62 106.5h205q-34 -139 -153 -230t-256 -91zM779 188q143 0 275.5 69.5t225.5 191t121 268.5q10 53 10 106q0 185 -118.5 303.5t-307.5 118.5
q-218 0 -397.5 -152.5t-222.5 -375.5q-12 -63 -12 -109q0 -185 118.5 -302.5t307.5 -117.5zM1026 1458q283 0 459 -167.5t176 -428.5q0 -67 -14 -145q-30 -154 -116 -291.5t-207 -236.5t-274 -156.5t-312 -57.5q-187 0 -332 77t-223.5 212t-78.5 306q0 72 15 147
q40 206 173 376t327 267.5t407 97.5z" />
    <glyph glyph-name="obreve" unicode="&#x14f;" horiz-adv-x="1310" 
d="M784 1192q-125 0 -205.5 76.5t-80.5 197.5q0 23 3 47h205q-3 -15 -3 -28q0 -54 32 -87.5t83 -33.5q59 0 108 42.5t62 106.5h205q-34 -139 -153 -230t-256 -91zM588 184q146 0 265 100t148 246q8 38 8 70q0 121 -79.5 199t-206.5 78q-146 0 -265.5 -100.5t-148.5 -246.5
q-7 -34 -7 -69q0 -121 79.5 -199t206.5 -78zM764 1085q219 0 352 -125.5t133 -321.5q0 -55 -10 -108q-30 -153 -129.5 -280t-248 -201t-313.5 -74q-219 0 -353 126.5t-134 321.5q0 49 11 107q30 153 130 280t248.5 201t313.5 74z" />
    <glyph glyph-name="Ohungarumlaut" unicode="&#x150;" horiz-adv-x="1691" 
d="M779 188q143 0 275.5 69.5t225.5 191t121 268.5q10 53 10 106q0 185 -118.5 303.5t-307.5 118.5q-218 0 -397.5 -152.5t-222.5 -375.5q-12 -63 -12 -109q0 -185 118.5 -302.5t307.5 -117.5zM1026 1458q283 0 459 -167.5t176 -428.5q0 -67 -14 -145q-30 -154 -116 -291.5
t-207 -236.5t-274 -156.5t-312 -57.5q-187 0 -332 77t-223.5 212t-78.5 306q0 72 15 147q40 206 173 376t327 267.5t407 97.5zM731 1544l346 350h235l-354 -350h-227zM1069 1544l346 350h235l-354 -350h-227z" />
    <glyph glyph-name="ohungarumlaut" unicode="&#x151;" horiz-adv-x="1310" 
d="M588 184q146 0 265 100t148 246q8 38 8 70q0 121 -79.5 199t-206.5 78q-146 0 -265.5 -100.5t-148.5 -246.5q-7 -34 -7 -69q0 -121 79.5 -199t206.5 -78zM764 1085q219 0 352 -125.5t133 -321.5q0 -55 -10 -108q-30 -153 -129.5 -280t-248 -201t-313.5 -74
q-219 0 -353 126.5t-134 321.5q0 49 11 107q30 153 130 280t248.5 201t313.5 74zM454 1212l346 351h234l-353 -351h-227zM792 1212l346 351h234l-353 -351h-227z" />
    <glyph glyph-name="OE" unicode="&#x152;" horiz-adv-x="1849" 
d="M784 213h21l195 1008h-20q-144 0 -275.5 -65.5t-222 -181.5t-117.5 -257q-11 -55 -11 -101q0 -178 119.5 -290.5t310.5 -112.5zM1634 0h-891q-186 0 -331.5 74.5t-226 207.5t-80.5 300q0 63 14 135q39 200 172.5 364.5t327 258.5t403.5 94h872l-41 -209h-610l-78 -400
h561l-39 -209h-562l-79 -407h628z" />
    <glyph glyph-name="oe" unicode="&#x153;" horiz-adv-x="2197" 
d="M764 1085q143 0 253.5 -63t165.5 -170q93 104 227 168.5t273 64.5q209 0 333 -121t124 -307q0 -55 -10 -106q-9 -47 -29 -96h-874v-11q0 -118 81 -193t209 -75q180 0 342 139l131 -147q-214 -193 -506 -193q-150 0 -263.5 64t-164.5 168q-98 -107 -231.5 -169.5
t-276.5 -62.5q-219 0 -353 126.5t-134 321.5q0 49 11 107q30 153 130 280t248.5 201t313.5 74zM588 184q146 0 265 100t148 246q8 38 8 70q0 121 -79.5 199t-206.5 78q-146 0 -265.5 -100.5t-148.5 -246.5q-7 -34 -7 -69q0 -121 79.5 -199t206.5 -78zM1644 885
q-110 0 -213.5 -66.5t-156.5 -171.5h629q-8 104 -78 171t-181 67z" />
    <glyph glyph-name="Racute" unicode="&#x154;" horiz-adv-x="1243" 
d="M340 1434h483q199 0 308 -94.5t109 -258.5q0 -51 -10 -104q-33 -170 -145.5 -286t-282.5 -154l267 -537h-266l-257 520h-143l-100 -520h-242zM772 1225h-231l-97 -496h232q125 0 205 66t103 182q6 35 6 63q0 88 -55.5 136.5t-162.5 48.5zM637 1544l346 350h235l-354 -350
h-227z" />
    <glyph glyph-name="racute" unicode="&#x155;" horiz-adv-x="829" 
d="M725 877q-84 0 -167 -52.5t-151 -144.5l-133 -680h-233l206 1061h233l-26 -135q166 159 343 159q54 0 92 -20l-60 -207q-51 19 -104 19zM372 1212l346 351h234l-353 -351h-227z" />
    <glyph glyph-name="Rcommaaccent" unicode="&#x156;" horiz-adv-x="1243" 
d="M340 1434h483q199 0 308 -94.5t109 -258.5q0 -51 -10 -104q-33 -170 -145.5 -286t-282.5 -154l267 -537h-266l-257 520h-143l-100 -520h-242zM772 1225h-231l-97 -496h232q125 0 205 66t103 182q6 35 6 63q0 88 -55.5 136.5t-162.5 48.5zM385 -481h-210l226 350h235z" />
    <glyph glyph-name="rcommaaccent" unicode="&#x157;" horiz-adv-x="829" 
d="M725 877q-84 0 -167 -52.5t-151 -144.5l-133 -680h-233l206 1061h233l-26 -135q166 159 343 159q54 0 92 -20l-60 -207q-51 19 -104 19zM23 -481h-210l226 350h234z" />
    <glyph glyph-name="Rcaron" unicode="&#x158;" horiz-adv-x="1243" 
d="M340 1434h483q199 0 308 -94.5t109 -258.5q0 -51 -10 -104q-33 -170 -145.5 -286t-282.5 -154l267 -537h-266l-257 520h-143l-100 -520h-242zM772 1225h-231l-97 -496h232q125 0 205 66t103 182q6 35 6 63q0 88 -55.5 136.5t-162.5 48.5zM1246 1894l-366 -350h-160
l-232 350h228l118 -174l185 174h227z" />
    <glyph glyph-name="rcaron" unicode="&#x159;" horiz-adv-x="829" 
d="M725 877q-84 0 -167 -52.5t-151 -144.5l-133 -680h-233l206 1061h233l-26 -135q166 159 343 159q54 0 92 -20l-60 -207q-51 19 -104 19zM991 1542l-366 -350h-160l-232 350h228l118 -174l185 174h227z" />
    <glyph glyph-name="Sacute" unicode="&#x15a;" horiz-adv-x="1216" 
d="M38 207l183 164q60 -82 142 -132.5t179 -50.5q126 0 213.5 55.5t106.5 149.5q4 19 4 43q0 71 -61.5 122.5t-207.5 82.5q-186 41 -278.5 127.5t-92.5 213.5q0 34 8 79q23 117 100 208t192.5 140t251.5 49q285 0 428 -182l-177 -172q-61 67 -128 104t-153 37
q-101 0 -176 -46.5t-89 -121.5q-4 -17 -4 -39q0 -70 62 -118t197 -81q200 -48 290 -134.5t90 -216.5q0 -38 -10 -95q-37 -188 -197.5 -303t-399.5 -115q-151 0 -277.5 62t-195.5 170zM647 1544l346 350h235l-354 -350h-227z" />
    <glyph glyph-name="sacute" unicode="&#x15b;" horiz-adv-x="964" 
d="M-2 152l162 155q39 -60 104 -95.5t145 -35.5q84 0 139.5 34t66.5 93q3 15 3 27q0 45 -41 74t-136 49q-147 31 -217 96t-70 168q0 35 7 70q26 131 144 214.5t287 83.5q106 0 193.5 -39t144.5 -104l-156 -158q-52 50 -99 75.5t-105 25.5q-69 0 -118.5 -28t-58.5 -75
q-2 -10 -2 -19q0 -92 162 -126q155 -33 228.5 -98t73.5 -169q0 -36 -7 -71q-28 -142 -152.5 -233t-309.5 -91q-129 0 -231 47t-157 130zM443 1212l347 351h234l-353 -351h-228z" />
    <glyph glyph-name="Scircumflex" unicode="&#x15c;" horiz-adv-x="1216" 
d="M38 207l183 164q60 -82 142 -132.5t179 -50.5q126 0 213.5 55.5t106.5 149.5q4 19 4 43q0 71 -61.5 122.5t-207.5 82.5q-186 41 -278.5 127.5t-92.5 213.5q0 34 8 79q23 117 100 208t192.5 140t251.5 49q285 0 428 -182l-177 -172q-61 67 -128 104t-153 37
q-101 0 -176 -46.5t-89 -121.5q-4 -17 -4 -39q0 -70 62 -118t197 -81q200 -48 290 -134.5t90 -216.5q0 -38 -10 -95q-37 -188 -197.5 -303t-399.5 -115q-151 0 -277.5 62t-195.5 170zM939 1894l231 -350h-227l-118 174l-185 -174h-227l366 350h160z" />
    <glyph glyph-name="scircumflex" unicode="&#x15d;" horiz-adv-x="964" 
d="M-2 152l162 155q39 -60 104 -95.5t145 -35.5q84 0 139.5 34t66.5 93q3 15 3 27q0 45 -41 74t-136 49q-147 31 -217 96t-70 168q0 35 7 70q26 131 144 214.5t287 83.5q106 0 193.5 -39t144.5 -104l-156 -158q-52 50 -99 75.5t-105 25.5q-69 0 -118.5 -28t-58.5 -75
q-2 -10 -2 -19q0 -92 162 -126q155 -33 228.5 -98t73.5 -169q0 -36 -7 -71q-28 -142 -152.5 -233t-309.5 -91q-129 0 -231 47t-157 130zM752 1563l231 -351h-227l-118 174l-185 -174h-228l367 351h160z" />
    <glyph glyph-name="Scedilla" unicode="&#x15e;" horiz-adv-x="1216" 
d="M422 -221q-26 0 -58 -4l-33 45l115 158q-131 12 -239 72t-169 157l183 164q60 -82 142 -132.5t179 -50.5q126 0 213.5 55.5t106.5 149.5q4 19 4 43q0 71 -61.5 122.5t-207.5 82.5q-186 41 -278.5 127.5t-92.5 213.5q0 34 8 79q23 117 100 208t192.5 140t251.5 49
q285 0 428 -182l-177 -172q-61 67 -128 104t-153 37q-101 0 -176 -46.5t-89 -121.5q-4 -17 -4 -39q0 -70 62 -118t197 -81q200 -48 290 -134.5t90 -216.5q0 -38 -10 -95q-33 -164 -160.5 -274t-322.5 -136l-75 -89q65 -19 101.5 -64t36.5 -104q0 -13 -4 -37
q-19 -95 -107.5 -158t-203.5 -63q-114 0 -178 61l99 111q38 -33 94 -33q45 0 78.5 24.5t40.5 61.5q2 12 2 17q0 31 -23.5 50t-63.5 19z" />
    <glyph glyph-name="scedilla" unicode="&#x15f;" horiz-adv-x="964" 
d="M285 -221q-27 0 -59 -4l-32 45l116 161q-104 12 -185.5 56.5t-126.5 114.5l162 155q39 -60 104 -95.5t145 -35.5q84 0 139.5 34t66.5 93q3 15 3 27q0 45 -41 74t-136 49q-147 31 -217 96t-70 168q0 35 7 70q26 131 144 214.5t287 83.5q106 0 193.5 -39t144.5 -104
l-156 -158q-52 50 -99 75.5t-105 25.5q-69 0 -118.5 -28t-58.5 -75q-2 -10 -2 -19q0 -92 162 -126q155 -33 228.5 -98t73.5 -169q0 -36 -7 -71q-24 -120 -119 -205t-240 -109l-76 -91q65 -19 101.5 -64t36.5 -104q0 -13 -4 -37q-19 -95 -107.5 -158t-203.5 -63t-179 61
l100 111q38 -33 94 -33q45 0 78.5 24.5t40.5 61.5q2 12 2 17q0 31 -23.5 50t-63.5 19z" />
    <glyph glyph-name="Scaron" unicode="&#x160;" horiz-adv-x="1216" 
d="M38 207l183 164q60 -82 142 -132.5t179 -50.5q126 0 213.5 55.5t106.5 149.5q4 19 4 43q0 71 -61.5 122.5t-207.5 82.5q-186 41 -278.5 127.5t-92.5 213.5q0 34 8 79q23 117 100 208t192.5 140t251.5 49q285 0 428 -182l-177 -172q-61 67 -128 104t-153 37
q-101 0 -176 -46.5t-89 -121.5q-4 -17 -4 -39q0 -70 62 -118t197 -81q200 -48 290 -134.5t90 -216.5q0 -38 -10 -95q-37 -188 -197.5 -303t-399.5 -115q-151 0 -277.5 62t-195.5 170zM1238 1894l-367 -350h-159l-232 350h228l117 -174l186 174h227z" />
    <glyph glyph-name="scaron" unicode="&#x161;" horiz-adv-x="964" 
d="M-2 152l162 155q39 -60 104 -95.5t145 -35.5q84 0 139.5 34t66.5 93q3 15 3 27q0 45 -41 74t-136 49q-147 31 -217 96t-70 168q0 35 7 70q26 131 144 214.5t287 83.5q106 0 193.5 -39t144.5 -104l-156 -158q-52 50 -99 75.5t-105 25.5q-69 0 -118.5 -28t-58.5 -75
q-2 -10 -2 -19q0 -92 162 -126q155 -33 228.5 -98t73.5 -169q0 -36 -7 -71q-28 -142 -152.5 -233t-309.5 -91q-129 0 -231 47t-157 130zM1047 1542l-367 -350h-160l-231 350h227l118 -174l185 174h228z" />
    <glyph glyph-name="Tcommaaccent" unicode="&#x162;" horiz-adv-x="1134" 
d="M344 0l238 1225h-385l41 209h1011l-41 -209h-385l-237 -1225l-91 -106q65 -19 101.5 -64t36.5 -104q0 -13 -4 -37q-19 -95 -107.5 -158t-204.5 -63q-114 0 -178 61l100 111q38 -33 94 -33q45 0 78.5 24.5t40.5 61.5q2 12 2 17q0 31 -23.5 50t-63.5 19q-27 0 -59 -4
l-33 45l133 180h-64z" />
    <glyph glyph-name="tcommaaccent" unicode="&#x163;" horiz-adv-x="786" 
d="M217 -221q-26 0 -58 -4l-33 45l149 206q-101 60 -101 208q0 53 12 116l99 506h-176l39 205h177l55 287l237 20l-59 -307h268l-40 -205h-268l-98 -504q-6 -30 -6 -56q0 -61 38 -88.5t123 -27.5q53 0 93 4l-39 -200q-52 -9 -114 -9q-43 0 -96 7l-74 -88q65 -19 101.5 -64
t36.5 -104q0 -13 -4 -37q-19 -95 -107.5 -158t-203.5 -63q-114 0 -178 61l99 111q38 -33 94 -33q45 0 78.5 24.5t40.5 61.5q2 12 2 17q0 31 -23.5 50t-63.5 19z" />
    <glyph glyph-name="Tcaron" unicode="&#x164;" horiz-adv-x="1134" 
d="M1211 1894l-366 -350h-160l-231 350h227l118 -174l185 174h227zM344 0l238 1225h-385l41 209h1011l-41 -209h-385l-237 -1225h-242z" />
    <glyph glyph-name="tcaron" unicode="&#x165;" horiz-adv-x="1126" 
d="M518 856l-98 -504q-6 -30 -6 -56q0 -61 38 -88.5t123 -27.5q53 0 93 4l-39 -200q-52 -9 -114 -9q-174 0 -257.5 62.5t-83.5 196.5q0 53 12 116l99 506h-176l39 205h177l55 287l237 20l-59 -307h268l-40 -205h-268zM958 1374q12 61 62.5 103.5t112.5 42.5q53 0 86 -33
t33 -84q0 -14 -3 -29q-6 -31 -28 -67l-199 -301h-148l150 231q-32 13 -50.5 41.5t-18.5 66.5q0 14 3 29z" />
    <glyph glyph-name="Tbar" unicode="&#x166;" horiz-adv-x="1134" 
d="M966 629h-258l-122 -629h-242l122 629h-258l34 176h258l82 420h-385l41 209h1011l-41 -209h-385l-82 -420h258z" />
    <glyph glyph-name="tbar" unicode="&#x167;" horiz-adv-x="786" 
d="M56 471l30 156h154l45 229h-176l39 205h177l55 287l237 20l-59 -307h268l-40 -205h-268l-45 -229h227l-29 -156h-228l-23 -119q-6 -30 -6 -56q0 -61 38 -88.5t123 -27.5q53 0 93 4l-39 -200q-52 -9 -114 -9q-174 0 -257.5 62.5t-83.5 196.5q0 53 12 116l24 121h-154z" />
    <glyph glyph-name="Utilde" unicode="&#x168;" horiz-adv-x="1368" 
d="M907 1604q-68 41 -98 41q-49 0 -81 -79l-190 40q88 223 241 223q61 0 134 -47q68 -41 99 -41q47 0 81 79l189 -40q-88 -224 -241 -224q-61 0 -134 48zM1391 1434l-181 -926q-23 -119 -84 -219.5t-146 -168t-189.5 -105.5t-213.5 -38q-195 0 -317.5 112.5t-122.5 301.5
q0 50 13 117l180 926h241l-186 -955q-6 -33 -6 -62q0 -103 66.5 -165t172.5 -62q123 0 221.5 80t123.5 209l186 955h242z" />
    <glyph glyph-name="utilde" unicode="&#x169;" horiz-adv-x="1249" 
d="M839 356l137 705h233l-205 -1061h-234l24 123q-74 -67 -166.5 -107.5t-180.5 -40.5q-165 0 -260.5 91t-95.5 246q0 53 10 106l125 643h234l-123 -631q-5 -24 -5 -55q0 -87 53.5 -139t146.5 -52q75 0 161 51t146 121zM763 1272q-68 41 -98 41q-49 0 -81 -79l-191 40
q88 223 242 223q61 0 134 -47q68 -41 98 -41q47 0 81 79l190 -40q-88 -223 -241 -223q-63 0 -134 47z" />
    <glyph glyph-name="Umacron" unicode="&#x16a;" horiz-adv-x="1368" 
d="M587 1608l35 180h614l-35 -180h-614zM1391 1434l-181 -926q-23 -119 -84 -219.5t-146 -168t-189.5 -105.5t-213.5 -38q-195 0 -317.5 112.5t-122.5 301.5q0 50 13 117l180 926h241l-186 -955q-6 -33 -6 -62q0 -103 66.5 -165t172.5 -62q123 0 221.5 80t123.5 209l186 955
h242z" />
    <glyph glyph-name="umacron" unicode="&#x16b;" horiz-adv-x="1249" 
d="M839 356l137 705h233l-205 -1061h-234l24 123q-74 -67 -166.5 -107.5t-180.5 -40.5q-165 0 -260.5 91t-95.5 246q0 53 10 106l125 643h234l-123 -631q-5 -24 -5 -55q0 -87 53.5 -139t146.5 -52q75 0 161 51t146 121zM449 1276l34 180h615l-35 -180h-614z" />
    <glyph glyph-name="Ubreve" unicode="&#x16c;" horiz-adv-x="1368" 
d="M878 1524q-125 0 -206 76.5t-81 197.5q0 23 3 47h205q-2 -10 -2 -28q0 -54 31.5 -87.5t82.5 -33.5q59 0 108 42.5t62 106.5h205q-34 -139 -152.5 -230t-255.5 -91zM1391 1434l-181 -926q-23 -119 -84 -219.5t-146 -168t-189.5 -105.5t-213.5 -38q-195 0 -317.5 112.5
t-122.5 301.5q0 50 13 117l180 926h241l-186 -955q-6 -33 -6 -62q0 -103 66.5 -165t172.5 -62q123 0 221.5 80t123.5 209l186 955h242z" />
    <glyph glyph-name="ubreve" unicode="&#x16d;" horiz-adv-x="1249" 
d="M839 356l137 705h233l-205 -1061h-234l24 123q-74 -67 -166.5 -107.5t-180.5 -40.5q-165 0 -260.5 91t-95.5 246q0 53 10 106l125 643h234l-123 -631q-5 -24 -5 -55q0 -87 53.5 -139t146.5 -52q75 0 161 51t146 121zM733 1192q-125 0 -206 76.5t-81 197.5q0 15 4 47h204
q-2 -10 -2 -28q0 -54 32 -87.5t83 -33.5q59 0 108 42.5t62 106.5h205q-34 -139 -153 -230t-256 -91z" />
    <glyph glyph-name="Uring" unicode="&#x16e;" horiz-adv-x="1368" 
d="M843 1726q-1 -5 -1 -13q0 -26 16.5 -42t44.5 -16q32 0 57 20t30 51q2 10 2 16q0 25 -16.5 40.5t-44.5 15.5q-32 0 -57 -20.5t-31 -51.5zM694 1721q14 88 90 148t172 60q84 0 135 -46t51 -118q0 -18 -4 -39q-17 -86 -91 -144t-169 -58q-84 0 -135.5 46t-51.5 119
q0 14 3 32zM1391 1434l-181 -926q-23 -119 -84 -219.5t-146 -168t-189.5 -105.5t-213.5 -38q-195 0 -317.5 112.5t-122.5 301.5q0 50 13 117l180 926h241l-186 -955q-6 -33 -6 -62q0 -103 66.5 -165t172.5 -62q123 0 221.5 80t123.5 209l186 955h242z" />
    <glyph glyph-name="uring" unicode="&#x16f;" horiz-adv-x="1249" 
d="M839 356l137 705h233l-205 -1061h-234l24 123q-74 -67 -166.5 -107.5t-180.5 -40.5q-165 0 -260.5 91t-95.5 246q0 53 10 106l125 643h234l-123 -631q-5 -24 -5 -55q0 -87 53.5 -139t146.5 -52q75 0 161 51t146 121zM688 1395q-1 -5 -1 -14q0 -26 17 -42t45 -16
q32 0 57 20.5t30 51.5q2 10 2 15q0 25 -17 40.5t-45 15.5q-32 0 -57 -20t-31 -51zM540 1390q14 88 90 147.5t172 59.5q84 0 134.5 -45.5t50.5 -117.5q0 -18 -4 -39q-17 -86 -91 -144.5t-169 -58.5q-84 0 -135 46t-51 119q0 15 3 33z" />
    <glyph glyph-name="Uhungarumlaut" unicode="&#x170;" horiz-adv-x="1368" 
d="M1391 1434l-181 -926q-23 -119 -84 -219.5t-146 -168t-189.5 -105.5t-213.5 -38q-195 0 -317.5 112.5t-122.5 301.5q0 50 13 117l180 926h241l-186 -955q-6 -33 -6 -62q0 -103 66.5 -165t172.5 -62q123 0 221.5 80t123.5 209l186 955h242zM580 1544l346 350h234
l-353 -350h-227zM918 1544l346 350h234l-353 -350h-227z" />
    <glyph glyph-name="uhungarumlaut" unicode="&#x171;" horiz-adv-x="1249" 
d="M839 356l137 705h233l-205 -1061h-234l24 123q-74 -67 -166.5 -107.5t-180.5 -40.5q-165 0 -260.5 91t-95.5 246q0 53 10 106l125 643h234l-123 -631q-5 -24 -5 -55q0 -87 53.5 -139t146.5 -52q75 0 161 51t146 121zM423 1212l346 351h235l-354 -351h-227zM761 1212
l346 351h234l-353 -351h-227z" />
    <glyph glyph-name="Uogonek" unicode="&#x172;" horiz-adv-x="1368" 
d="M1391 1434l-181 -926q-40 -201 -178.5 -339t-324.5 -177q-176 -130 -193 -219q-2 -14 -2 -21q0 -34 23 -55t59 -21q42 0 80 23l27 -121q-78 -47 -177 -47q-88 0 -142.5 48.5t-54.5 124.5q0 19 4 40q23 126 189 237q-172 15 -277.5 124.5t-105.5 285.5q0 50 13 117
l180 926h241l-186 -955q-6 -33 -6 -62q0 -103 66.5 -165t172.5 -62q123 0 221.5 80t123.5 209l186 955h242z" />
    <glyph glyph-name="uogonek" unicode="&#x173;" horiz-adv-x="1249" 
d="M836 0h-66l24 123q-74 -67 -166.5 -107.5t-180.5 -40.5q-165 0 -260.5 91t-95.5 246q0 53 10 106l125 643h234l-123 -631q-5 -24 -5 -55q0 -87 53.5 -139t146.5 -52q75 0 161 51t146 121l137 705h233l-205 -1061q-189 -134 -207 -227q-2 -14 -2 -21q0 -34 23 -55t59 -21
q41 0 79 23l28 -121q-78 -47 -177 -47q-88 0 -143 48.5t-55 124.5q0 19 4 40q26 138 223 256z" />
    <glyph glyph-name="Wcircumflex" unicode="&#x174;" horiz-adv-x="2007" 
d="M1061 1434h237l100 -1080l490 1080h254l-686 -1434h-237l-104 1102l-531 -1102h-238l-129 1434h254l71 -1080zM1349 1894l231 -350h-227l-118 174l-185 -174h-228l367 350h160z" />
    <glyph glyph-name="wcircumflex" unicode="&#x175;" horiz-adv-x="1613" 
d="M790 1061h241l64 -756l360 756h242l-538 -1061h-241l-66 762l-360 -762h-242l-126 1061h242l65 -756zM1087 1563l232 -351h-227l-118 174l-186 -174h-227l367 351h159z" />
    <glyph glyph-name="Ycircumflex" unicode="&#x176;" horiz-adv-x="1323" 
d="M475 1434l244 -611l481 611h258l-664 -846l-114 -588h-242l114 588l-335 846h258zM1007 1894l231 -350h-227l-118 174l-185 -174h-228l367 350h160z" />
    <glyph glyph-name="ycircumflex" unicode="&#x177;" horiz-adv-x="1081" 
d="M44 -475l273 475l-193 1061h242l127 -766l430 766h241l-878 -1536h-242zM819 1563l232 -351h-228l-117 174l-186 -174h-227l366 351h160z" />
    <glyph glyph-name="Ydieresis" unicode="&#x178;" horiz-adv-x="1323" 
d="M475 1434l244 -611l481 611h258l-664 -846l-114 -588h-242l114 588l-335 846h258zM566 1704q10 57 57 96t104 39q50 0 81 -30.5t31 -77.5q0 -18 -2 -27q-11 -57 -58 -96t-104 -39q-50 0 -81 30t-31 77q0 14 3 28zM943 1704q10 57 57 96t104 39q50 0 80.5 -30.5
t30.5 -77.5q0 -18 -2 -27q-11 -57 -57.5 -96t-103.5 -39q-50 0 -81 30t-31 77q0 14 3 28z" />
    <glyph glyph-name="Zacute" unicode="&#x179;" horiz-adv-x="1243" 
d="M60 209l894 1016h-665l41 209h956l-41 -209l-894 -1016h717l-40 -209h-1008zM629 1544l346 350h234l-353 -350h-227z" />
    <glyph glyph-name="zacute" unicode="&#x17a;" horiz-adv-x="1046" 
d="M-4 0l39 205l672 651h-519l40 205h799l-40 -205l-672 -651h566l-39 -205h-846zM466 1212l346 351h235l-354 -351h-227z" />
    <glyph glyph-name="Zdotaccent" unicode="&#x17b;" horiz-adv-x="1243" 
d="M60 209l894 1016h-665l41 209h956l-41 -209l-894 -1016h717l-40 -209h-1008zM716 1704q10 57 57 96t104 39q50 0 80.5 -30.5t30.5 -77.5q0 -17 -3 -31q-12 -55 -58 -93t-103 -38q-50 0 -80.5 30t-30.5 77q0 14 3 28z" />
    <glyph glyph-name="zdotaccent" unicode="&#x17c;" horiz-adv-x="1046" 
d="M-4 0l39 205l672 651h-519l40 205h799l-40 -205l-672 -651h566l-39 -205h-846zM553 1372q10 57 57 96t104 39q50 0 80.5 -30.5t30.5 -77.5q0 -17 -3 -31q-12 -55 -57.5 -93t-102.5 -38q-50 0 -81 30.5t-31 77.5q0 13 3 27z" />
    <glyph glyph-name="Zcaron" unicode="&#x17d;" horiz-adv-x="1243" 
d="M60 209l894 1016h-665l41 209h956l-41 -209l-894 -1016h717l-40 -209h-1008zM1267 1894l-367 -350h-160l-231 350h227l118 -174l185 174h228z" />
    <glyph glyph-name="zcaron" unicode="&#x17e;" horiz-adv-x="1046" 
d="M-4 0l39 205l672 651h-519l40 205h799l-40 -205l-672 -651h566l-39 -205h-846zM1087 1542l-366 -350h-160l-231 350h227l118 -174l185 174h227z" />
    <glyph glyph-name="longs" unicode="&#x17f;" horiz-adv-x="772" 
d="M913 1487l-39 -201q-40 4 -92 4q-103 0 -153 -40.5t-68 -131.5l-217 -1118h-233l165 856h-167l39 205h168l12 59q38 195 152.5 285t321.5 90q67 0 111 -8z" />
    <glyph glyph-name="uni0191" unicode="&#x191;" horiz-adv-x="1097" 
d="M423 616l-140 -716q-37 -192 -151.5 -283.5t-313.5 -91.5q-55 0 -107 8l39 201q40 -4 83 -4q93 0 142 41t67 131l298 1532h852l-41 -209h-610l-78 -400h561l-40 -209h-561z" />
    <glyph glyph-name="florin" unicode="&#x192;" horiz-adv-x="772" 
d="M510 856l-186 -956q-37 -194 -152 -284.5t-322 -90.5q-66 0 -110 8l39 201q40 -4 91 -4q102 0 152.5 40.5t68.5 131.5l185 954h-167l39 205h168l12 59q38 195 152.5 285t321.5 90q67 0 111 -8l-39 -201q-40 4 -92 4q-103 0 -153 -40.5t-68 -131.5l-11 -57h280l-39 -205
h-281z" />
    <glyph glyph-name="Aringacute" unicode="&#x1fa;" horiz-adv-x="1409" 
d="M673 1505q17 87 91.5 145t169.5 58q84 0 134.5 -46t50.5 -118q0 -22 -4 -39q-15 -82 -88 -142l239 -1363h-262l-53 346h-565l-185 -346h-262l767 1363q-36 43 -36 104q0 19 3 38zM828 1169l-329 -614h422zM1035 1749h-223l242 248h232zM820 1505q-1 -5 -1 -14
q0 -24 14.5 -39.5t40.5 -17.5h7q32 0 56.5 20t30.5 51q2 10 2 16q0 25 -17 40.5t-45 15.5q-32 0 -57 -20.5t-31 -51.5z" />
    <glyph glyph-name="aringacute" unicode="&#x1fb;" horiz-adv-x="1343" 
d="M735 1362q-2 -10 -2 -15q0 -25 17 -41t45 -16q32 0 57 20.5t31 51.5q2 10 2 15q0 25 -17 41t-45 16q-32 0 -57 -20.5t-31 -51.5zM588 1362q17 87 91.5 145t169.5 58q84 0 134.5 -46t50.5 -118q0 -22 -4 -39q-17 -87 -91 -145t-169 -58q-84 0 -135 46t-51 118q0 22 4 39z
M945 1606h-223l262 268h233zM588 184q102 0 196 52t153 139l59 309q-25 87 -98.5 140t-174.5 53q-146 0 -265.5 -100.5t-148.5 -246.5q-7 -34 -7 -69q0 -121 79.5 -199t206.5 -78zM723 1085q213 0 325 -139l22 115h234l-206 -1061h-234l22 115q-168 -140 -379 -140
q-202 0 -324.5 126t-122.5 318q0 46 12 111q29 150 123 276.5t234 202.5t294 76z" />
    <glyph glyph-name="AEacute" unicode="&#x1fc;" horiz-adv-x="1894" 
d="M172 0h-274l1089 1434h952l-41 -209h-610l-78 -400h562l-40 -209h-562l-79 -407h628l-40 -209h-870l67 346h-448zM1034 1159l-450 -604h332zM975 1544l346 350h234l-353 -350h-227z" />
    <glyph glyph-name="aeacute" unicode="&#x1fd;" horiz-adv-x="2082" 
d="M1987 455h-874v-11q0 -118 80.5 -193t208.5 -75q180 0 342 139l131 -147q-214 -193 -506 -193q-142 0 -251 54.5t-165 146.5q-88 -93 -214 -147t-263 -54q-200 0 -324 86t-124 219q0 24 5 52q28 143 187.5 239.5t359.5 96.5q94 0 180.5 -24t138.5 -62l9 47q4 19 4 43
q0 92 -73 152.5t-193 60.5q-91 0 -188 -35t-176 -92l-54 176q103 72 223.5 111.5t240.5 39.5q138 0 243.5 -54t156.5 -148q91 94 217 148t260 54q209 0 332.5 -120.5t123.5 -307.5q0 -55 -10 -106q-10 -52 -28 -96zM266 333q-2 -12 -2 -19q0 -60 72 -99t191 -39
q209 0 316 125l19 101q-93 85 -274 85q-127 0 -217.5 -44.5t-104.5 -109.5zM1529 885q-110 0 -213 -66.5t-157 -171.5h630q-7 104 -77.5 171t-182.5 67zM991 1212l346 351h235l-353 -351h-228z" />
    <glyph glyph-name="Oslashacute" unicode="&#x1fe;" horiz-adv-x="1691" 
d="M1026 1458q209 0 369 -98l132 135h211l-228 -231q150 -163 150 -402q0 -80 -13 -145q-30 -154 -116 -291.5t-206.5 -236.5t-274 -156.5t-312.5 -57.5q-227 0 -387 109l-142 -145h-211l241 245q-136 161 -136 387q0 59 16 146q39 205 172 375t327.5 268t407.5 98zM779 188
q143 0 275.5 69.5t225.5 191t121 268.5q10 53 10 106q0 147 -80 258l-805 -820q110 -73 253 -73zM365 717q-12 -65 -12 -110q0 -133 68 -237l799 813q-101 62 -235 62q-218 0 -397.5 -152.5t-222.5 -375.5zM872 1544l347 350h234l-353 -350h-228z" />
    <glyph glyph-name="oslashacute" unicode="&#x1ff;" horiz-adv-x="1310" 
d="M1136 1122h202l-191 -194q103 -118 103 -289q0 -51 -11 -109q-30 -153 -129.5 -280t-248 -201t-313.5 -74q-152 0 -273 67l-101 -103h-203l193 195q-103 120 -103 289q0 49 11 107q30 153 130 280t248.5 201t313.5 74q153 0 269 -66zM588 184q146 0 265 100t148 246
q8 38 8 69q0 84 -40 149l-522 -532q64 -32 141 -32zM309 530q-7 -35 -7 -70q0 -84 38 -146l522 531q-64 32 -139 32q-146 0 -265.5 -100.5t-148.5 -246.5zM625 1212l346 351h234l-353 -351h-227z" />
    <glyph glyph-name="Scommaaccent" unicode="&#x218;" horiz-adv-x="1216" 
d="M38 207l183 164q60 -82 142 -132.5t179 -50.5q126 0 213.5 55.5t106.5 149.5q4 19 4 43q0 71 -61.5 122.5t-207.5 82.5q-186 41 -278.5 127.5t-92.5 213.5q0 34 8 79q23 117 100 208t192.5 140t251.5 49q285 0 428 -182l-177 -172q-61 67 -128 104t-153 37
q-101 0 -176 -46.5t-89 -121.5q-4 -17 -4 -39q0 -70 62 -118t197 -81q200 -48 290 -134.5t90 -216.5q0 -38 -10 -95q-37 -188 -197.5 -303t-399.5 -115q-151 0 -277.5 62t-195.5 170zM408 -481h-210l226 350h234z" />
    <glyph glyph-name="scommaaccent" unicode="&#x219;" horiz-adv-x="964" 
d="M-2 152l162 155q39 -60 104 -95.5t145 -35.5q84 0 139.5 34t66.5 93q3 15 3 27q0 45 -41 74t-136 49q-147 31 -217 96t-70 168q0 35 7 70q26 131 144 214.5t287 83.5q106 0 193.5 -39t144.5 -104l-156 -158q-52 50 -99 75.5t-105 25.5q-69 0 -118.5 -28t-58.5 -75
q-2 -10 -2 -19q0 -92 162 -126q155 -33 228.5 -98t73.5 -169q0 -36 -7 -71q-28 -142 -152.5 -233t-309.5 -91q-129 0 -231 47t-157 130zM266 -481h-210l227 350h234z" />
    <glyph glyph-name="uni021A" unicode="&#x21a;" horiz-adv-x="1134" 
d="M344 0l238 1225h-385l41 209h1011l-41 -209h-385l-237 -1225h-242zM346 -481h-210l226 350h235z" />
    <glyph glyph-name="uni021B" unicode="&#x21b;" horiz-adv-x="786" 
d="M518 856l-98 -504q-6 -30 -6 -56q0 -61 38 -88.5t123 -27.5q53 0 93 4l-39 -200q-52 -9 -114 -9q-174 0 -257.5 62.5t-83.5 196.5q0 53 12 116l99 506h-176l39 205h177l55 287l237 20l-59 -307h268l-40 -205h-268zM184 -481h-210l227 350h234z" />
    <glyph glyph-name="dotlessj" unicode="&#x237;" horiz-adv-x="540" 
d="M30 -111l227 1172h233l-227 -1167q-38 -198 -135.5 -283.5t-281.5 -85.5q-44 0 -80 4l38 201h54q74 0 114.5 35.5t57.5 123.5z" />
    <glyph glyph-name="apostrophe" unicode="&#x2bc;" horiz-adv-x="860" 
d="M455 1374q12 62 62.5 104t111.5 42q54 0 87 -33t33 -84q0 -9 -4 -29q-6 -31 -28 -67l-199 -301h-147l149 231q-68 28 -68 108q0 14 3 29z" />
    <glyph glyph-name="circumflex" unicode="&#x2c6;" horiz-adv-x="860" 
d="M697 1495l232 -350h-228l-117 174l-186 -174h-227l367 350h159z" />
    <glyph glyph-name="caron" unicode="&#x2c7;" horiz-adv-x="860" 
d="M996 1495l-366 -350h-160l-231 350h227l118 -174l185 174h227z" />
    <glyph glyph-name="uni02C9" unicode="&#x2c9;" horiz-adv-x="860" 
d="M259 1229l35 180h614l-35 -180h-614z" />
    <glyph glyph-name="breve" unicode="&#x2d8;" horiz-adv-x="860" 
d="M551 1153q-125 0 -206 76.5t-81 197.5q0 24 3 48h205q-2 -10 -2 -29q0 -54 32 -87.5t83 -33.5q59 0 108 43t62 107h204q-34 -139 -152.5 -230.5t-255.5 -91.5z" />
    <glyph glyph-name="dotaccent" unicode="&#x2d9;" horiz-adv-x="860" 
d="M450 1323q10 57 56.5 96t103.5 39q50 0 81 -30.5t31 -77.5q0 -18 -3 -31q-12 -55 -58 -93t-103 -38q-50 0 -81 30t-31 77q0 10 4 28z" />
    <glyph glyph-name="ring" unicode="&#x2da;" horiz-adv-x="860" 
d="M509 1317q-1 -5 -1 -13q0 -26 16.5 -42.5t44.5 -16.5q32 0 57 20.5t30 51.5q2 10 2 15q0 25 -16.5 41t-44.5 16q-32 0 -57 -20.5t-31 -51.5zM360 1312q14 88 90.5 148t172.5 60q84 0 134.5 -46t50.5 -118q0 -18 -4 -39q-17 -86 -91 -144.5t-169 -58.5q-84 0 -135.5 46
t-51.5 119q0 15 3 33z" />
    <glyph glyph-name="ogonek" unicode="&#x2db;" horiz-adv-x="860" 
d="M309 0h168q-189 -134 -207 -227q-2 -14 -2 -21q0 -34 23 -55t59 -21q42 0 80 23l28 -121q-78 -47 -177 -47q-88 0 -143 48.5t-55 124.5q0 19 4 40q13 70 72 135.5t150 120.5z" />
    <glyph glyph-name="tilde" unicode="&#x2dc;" horiz-adv-x="860" 
d="M580 1225q-68 41 -99 41q-49 0 -81 -79l-190 40q88 223 242 223q61 0 134 -47q68 -41 98 -41q47 0 81 79l189 -40q-88 -223 -240 -223q-63 0 -134 47z" />
    <glyph glyph-name="hungarumlaut" unicode="&#x2dd;" horiz-adv-x="860" 
d="M180 1145l346 350h235l-353 -350h-228zM518 1145l346 350h235l-354 -350h-227z" />
    <glyph glyph-name="gravecomb" unicode="&#x300;" horiz-adv-x="0" 
d="M-325 1495l211 -350h-227l-218 350h234z" />
    <glyph glyph-name="acutecomb" unicode="&#x301;" horiz-adv-x="0" 
d="M-506 1145l346 350h235l-354 -350h-227z" />
    <glyph glyph-name="uni0302" unicode="&#x302;" horiz-adv-x="0" 
d="M-163 1495l232 -350h-228l-117 174l-186 -174h-227l366 350h160z" />
    <glyph glyph-name="tildecomb" unicode="&#x303;" horiz-adv-x="0" 
d="M-281 1225q-68 41 -98 41q-49 0 -81 -79l-190 40q88 223 241 223q62 0 135 -47q68 -41 98 -41q47 0 81 79l189 -40q-88 -223 -240 -223q-64 0 -135 47z" />
    <glyph glyph-name="uni0304" unicode="&#x304;" horiz-adv-x="0" 
d="M-601 1231l35 180h614l-35 -180h-614z" />
    <glyph glyph-name="uni0306" unicode="&#x306;" horiz-adv-x="0" 
d="M-309 1153q-125 0 -206 76.5t-81 197.5q0 24 3 48h205q-2 -10 -2 -29q0 -54 32 -87.5t83 -33.5q59 0 108 43t62 107h204q-34 -139 -152.5 -230.5t-255.5 -91.5z" />
    <glyph glyph-name="uni0307" unicode="&#x307;" horiz-adv-x="0" 
d="M-410 1323q10 57 57 96t104 39q50 0 81 -30.5t31 -77.5q0 -18 -3 -31q-12 -55 -58 -93t-103 -38q-50 0 -81 30t-31 77q0 15 3 28z" />
    <glyph glyph-name="uni0308" unicode="&#x308;" horiz-adv-x="0" 
d="M-599 1323q10 57 57 96t104 39q50 0 80.5 -30.5t30.5 -77.5q0 -18 -2 -27q-11 -57 -57.5 -96t-103.5 -39q-50 0 -81 30t-31 77q0 15 3 28zM-222 1323q10 57 57 96t104 39q50 0 80.5 -30.5t30.5 -77.5q0 -18 -2 -27q-11 -57 -58 -96t-104 -39q-50 0 -80.5 30t-30.5 77
q0 15 3 28z" />
    <glyph glyph-name="uni030A" unicode="&#x30a;" horiz-adv-x="0" 
d="M-351 1317q-1 -5 -1 -13q0 -26 16.5 -42.5t44.5 -16.5q32 0 57 20.5t30 51.5q2 10 2 15q0 25 -16.5 41t-44.5 16q-32 0 -57 -20.5t-31 -51.5zM-500 1312q14 88 90 148t172 60q84 0 135 -46t51 -118q0 -18 -4 -39q-17 -86 -91 -144.5t-169 -58.5q-84 0 -135.5 46
t-51.5 119q0 15 3 33z" />
    <glyph glyph-name="uni030C" unicode="&#x30c;" horiz-adv-x="0" 
d="M136 1495l-366 -350h-160l-232 350h228l118 -174l185 174h227z" />
    <glyph glyph-name="uni0327" unicode="&#x327;" horiz-adv-x="0" 
d="M-620 -221q-26 0 -58 -4l-33 45l132 180h179l-92 -106q65 -19 102 -64t37 -104q0 -13 -4 -37q-19 -95 -107.5 -158t-204.5 -63q-114 0 -178 61l99 111q38 -33 95 -33q45 0 78 24.5t40 61.5q0 1 1.5 7.5t1.5 9.5q0 30 -24 49.5t-64 19.5z" />
    <glyph glyph-name="tonos" unicode="&#x384;" horiz-adv-x="860" 
d="M572 1114h-210l232 381h234z" />
    <glyph glyph-name="dieresistonos" unicode="&#x385;" horiz-adv-x="860" 
d="M222 1167q11 60 59.5 101t111.5 41q55 0 87 -31t32 -81q0 -15 -3 -30q-11 -60 -59.5 -100.5t-111.5 -40.5q-55 0 -87 31t-32 81q0 14 3 29zM599 1167q11 60 59.5 101t111.5 41q55 0 87 -31t32 -81q0 -15 -3 -30q-11 -60 -59.5 -100.5t-111.5 -40.5q-55 0 -87 31t-32 81
q0 14 3 29zM678 1346h-223l262 268h232z" />
    <glyph glyph-name="Alphatonos" unicode="&#x386;" horiz-adv-x="1429" 
d="M1036 1434l250 -1434h-262l-52 346h-565l-186 -346h-262l807 1434h270zM849 1169l-330 -614h422zM338 1053h-210l231 381h235z" />
    <glyph glyph-name="anoteleia" unicode="&#x387;" horiz-adv-x="614" 
d="M182 666q12 64 63.5 107.5t116.5 43.5q57 0 91.5 -33.5t34.5 -87.5q0 -15 -3 -30q-13 -65 -65 -108.5t-116 -43.5q-56 0 -90.5 33.5t-34.5 86.5q0 16 3 32z" />
    <glyph glyph-name="Epsilontonos" unicode="&#x388;" horiz-adv-x="1501" 
d="M395 0l279 1434h872l-41 -209h-631l-77 -400h581l-40 -209h-581l-80 -407h649l-40 -209h-891zM337 1053h-210l231 381h235z" />
    <glyph glyph-name="Etatonos" unicode="&#x389;" horiz-adv-x="1775" 
d="M395 0l279 1434h241l-118 -609h630l119 609h242l-279 -1434h-241l120 616h-631l-120 -616h-242zM337 1053h-210l231 381h235z" />
    <glyph glyph-name="Iotatonos" unicode="&#x38a;" horiz-adv-x="913" 
d="M674 1434h241l-278 -1434h-242zM337 1053h-210l231 381h235z" />
    <glyph glyph-name="Omicrontonos" unicode="&#x38c;" horiz-adv-x="1898" 
d="M986 188q143 0 275.5 69.5t225.5 191t121 268.5q10 53 10 106q0 185 -118.5 303.5t-307.5 118.5q-218 0 -398 -152.5t-223 -375.5q-11 -58 -11 -109q0 -185 118.5 -302.5t307.5 -117.5zM1233 1458q283 0 459 -167.5t176 -428.5q0 -62 -15 -145q-30 -154 -116 -291.5
t-206.5 -236.5t-273.5 -156.5t-312 -57.5q-187 0 -332 77t-223.5 212t-78.5 306q0 72 15 147q40 206 173 376t327 267.5t407 97.5zM337 1053h-210l231 381h235z" />
    <glyph glyph-name="Upsilontonos" unicode="&#x38e;" horiz-adv-x="1738" 
d="M891 1434l244 -611l481 611h258l-665 -846l-113 -588h-242l114 588l-335 846h258zM337 1053h-210l231 381h235z" />
    <glyph glyph-name="Omegatonos" unicode="&#x38f;" horiz-adv-x="1867" 
d="M1378 213h310l-41 -213h-594l39 205q184 84 311 231t161 318q9 51 9 98q0 171 -110 282t-287 111q-203 0 -371 -143t-208 -348q-10 -51 -10 -107q0 -139 70.5 -255.5t196.5 -186.5l-39 -205h-594l41 213h309q-229 173 -229 438q0 60 12 123q28 141 109.5 267.5t196 218
t260.5 145t297 53.5q178 0 317 -72.5t215 -199t76 -284.5q0 -57 -13 -128q-33 -173 -145 -315.5t-289 -245.5zM337 1053h-210l231 381h235z" />
    <glyph glyph-name="iotadieresistonos" unicode="&#x390;" horiz-adv-x="565" 
d="M97 240l160 821h233l-147 -758q-3 -15 -3 -28q0 -70 82 -70h35l-39 -201q-36 -4 -82 -4q-245 0 -245 179q0 28 6 61zM87 1305q11 60 59.5 100.5t111.5 40.5q55 0 87 -31t32 -81q0 -14 -3 -29q-11 -60 -59.5 -101t-111.5 -41q-55 0 -87 31t-32 81q0 15 3 30zM464 1305
q11 60 59.5 100.5t111.5 40.5q55 0 87 -31t32 -81q0 -14 -3 -29q-11 -60 -59.5 -101t-111.5 -41q-55 0 -87 31t-32 81q0 15 3 30zM543 1483h-224l263 268h232z" />
    <glyph glyph-name="Alpha" unicode="&#x391;" horiz-adv-x="1409" 
d="M1016 1434l250 -1434h-262l-53 346h-565l-185 -346h-262l806 1434h271zM828 1169l-329 -614h422z" />
    <glyph glyph-name="Beta" unicode="&#x392;" horiz-adv-x="1275" 
d="M662 0h-601l279 1434h524q168 0 258 -76.5t90 -214.5q0 -47 -10 -96q-20 -104 -79 -174.5t-143 -106.5q85 -25 137.5 -96t52.5 -173q0 -34 -8 -79q-36 -188 -171.5 -303t-328.5 -115zM954 1034q5 30 5 51q0 68 -40.5 104t-111.5 36h-266l-74 -381h266q84 0 143.5 48.5
t77.5 141.5zM918 426q6 30 6 58q0 75 -42.5 117t-115.5 42h-338l-85 -434h338q87 0 152.5 59t84.5 158z" />
    <glyph glyph-name="Gamma" unicode="&#x393;" horiz-adv-x="1056" 
d="M61 0l279 1434h852l-41 -209h-610l-238 -1225h-242z" />
    <glyph glyph-name="uni0394" unicode="&#x394;" horiz-adv-x="1409" 
d="M1016 1434l250 -1434h-1327l806 1434h271zM828 1169l-520 -960h668z" />
    <glyph glyph-name="Epsilon" unicode="&#x395;" horiz-adv-x="1167" 
d="M61 0l279 1434h872l-41 -209h-630l-78 -400h581l-39 -209h-582l-80 -407h649l-40 -209h-891z" />
    <glyph glyph-name="Zeta" unicode="&#x396;" horiz-adv-x="1243" 
d="M60 209l894 1016h-665l41 209h956l-41 -209l-894 -1016h717l-40 -209h-1008z" />
    <glyph glyph-name="Eta" unicode="&#x397;" horiz-adv-x="1441" 
d="M61 0l279 1434h242l-119 -609h631l118 609h242l-278 -1434h-242l120 616h-631l-120 -616h-242z" />
    <glyph glyph-name="Theta" unicode="&#x398;" horiz-adv-x="1691" 
d="M568 616l39 201h590l-39 -201h-590zM779 188q143 0 275.5 69.5t225.5 191t121 268.5q10 53 10 106q0 185 -118.5 303.5t-307.5 118.5q-218 0 -397.5 -152.5t-222.5 -375.5q-12 -63 -12 -109q0 -185 118.5 -302.5t307.5 -117.5zM1026 1458q283 0 459 -167.5t176 -428.5
q0 -67 -14 -145q-30 -154 -116 -291.5t-207 -236.5t-274 -156.5t-312 -57.5q-187 0 -332 77t-223.5 212t-78.5 306q0 72 15 147q40 206 173 376t327 267.5t407 97.5z" />
    <glyph glyph-name="Iota" unicode="&#x399;" horiz-adv-x="589" 
d="M350 1434h242l-279 -1434h-241z" />
    <glyph glyph-name="Kappa" unicode="&#x39a;" horiz-adv-x="1245" 
d="M582 1434l-119 -609h87l525 609h275l-616 -709l419 -725h-283l-353 616h-94l-120 -616h-242l279 1434h242z" />
    <glyph glyph-name="Lambda" unicode="&#x39b;" horiz-adv-x="1409" 
d="M1004 0l-179 1149l-624 -1149h-262l806 1434h271l250 -1434h-262z" />
    <glyph glyph-name="Mu" unicode="&#x39c;" horiz-adv-x="1753" 
d="M935 438h-152l-286 600l-202 -1038h-234l279 1434h225l345 -729l630 729h225l-278 -1434h-234l202 1038z" />
    <glyph glyph-name="Nu" unicode="&#x39d;" horiz-adv-x="1441" 
d="M61 0l279 1434h233l450 -1016l198 1016h233l-278 -1434h-234l-450 1016l-197 -1016h-234z" />
    <glyph glyph-name="Xi" unicode="&#x39e;" horiz-adv-x="1198" 
d="M266 1225l41 209h936l-41 -209h-936zM10 0l40 209h973l-40 -209h-973zM1015 616h-817l40 209h817z" />
    <glyph glyph-name="Omicron" unicode="&#x39f;" horiz-adv-x="1691" 
d="M779 188q143 0 275.5 69.5t225.5 191t121 268.5q10 53 10 106q0 185 -118.5 303.5t-307.5 118.5q-218 0 -397.5 -152.5t-222.5 -375.5q-12 -63 -12 -109q0 -185 118.5 -302.5t307.5 -117.5zM1026 1458q283 0 459 -167.5t176 -428.5q0 -67 -14 -145q-30 -154 -116 -291.5
t-207 -236.5t-274 -156.5t-312 -57.5q-187 0 -332 77t-223.5 212t-78.5 306q0 72 15 147q40 206 173 376t327 267.5t407 97.5z" />
    <glyph glyph-name="Pi" unicode="&#x3a0;" horiz-adv-x="1388" 
d="M1401 1434l-279 -1434h-241l237 1225h-577l-238 -1225h-242l279 1434h1061z" />
    <glyph glyph-name="Rho" unicode="&#x3a1;" horiz-adv-x="1214" 
d="M645 520h-242l-100 -520h-242l279 1434h483q199 0 308 -94.5t109 -258.5q0 -51 -10 -104q-41 -209 -198 -333t-387 -124zM984 977q6 35 6 63q0 88 -55.5 136.5t-162.5 48.5h-231l-97 -496h232q125 0 205 66t103 182z" />
    <glyph glyph-name="Sigma" unicode="&#x3a3;" horiz-adv-x="1198" 
d="M59 205l492 514l-292 510l40 205h952l-41 -209h-657l265 -459l-18 -96l-447 -461h660l-40 -209h-953z" />
    <glyph glyph-name="Tau" unicode="&#x3a4;" horiz-adv-x="1134" 
d="M344 0l238 1225h-385l41 209h1011l-41 -209h-385l-237 -1225h-242z" />
    <glyph glyph-name="Upsilon" unicode="&#x3a5;" horiz-adv-x="1323" 
d="M475 1434l244 -611l481 611h258l-664 -846l-114 -588h-242l114 588l-335 846h258z" />
    <glyph glyph-name="Phi" unicode="&#x3a6;" horiz-adv-x="1572" 
d="M563 0l38 197q-221 0 -362 120.5t-141 307.5q0 38 10 90q28 144 130.5 263t252 187t312.5 68l39 201h241l-39 -201q220 0 361 -120.5t141 -306.5q0 -43 -9 -91q-28 -144 -130 -263t-251.5 -187t-312.5 -68l-38 -197h-242zM1291 715q5 30 5 53q0 110 -81.5 183t-210.5 73
l-121 -618q146 0 264.5 90.5t143.5 218.5zM353 715q-5 -30 -5 -53q0 -110 82 -183t211 -73l121 618q-146 0 -265 -90.5t-144 -218.5z" />
    <glyph glyph-name="Chi" unicode="&#x3a7;" horiz-adv-x="1302" 
d="M907 0l-251 555l-466 -555h-262l619 729l-322 705h262l237 -531l443 531h263l-596 -705l335 -729h-262z" />
    <glyph glyph-name="Psi" unicode="&#x3a8;" horiz-adv-x="1429" 
d="M1012 1434l-173 -886q106 38 184 128.5t100 204.5l108 553h242l-111 -568q-39 -201 -197.5 -352t-368.5 -189l-63 -325h-241l62 325q-167 33 -266.5 152t-99.5 285q0 47 11 104l110 568h242l-108 -553q-7 -36 -7 -74q0 -90 43 -158.5t118 -100.5l173 886h242z" />
    <glyph glyph-name="uni03A9" unicode="&#x3a9;" horiz-adv-x="1642" 
d="M1163 213h310l-41 -213h-594l39 205q184 84 311 231t161 318q9 51 9 98q0 171 -110 282t-287 111q-203 0 -371 -143t-208 -348q-10 -51 -10 -107q0 -139 70.5 -255.5t196.5 -186.5l-39 -205h-594l41 213h309q-229 173 -229 438q0 60 12 123q37 188 163.5 345t311.5 248
t387 91q269 0 439 -157.5t170 -398.5q0 -57 -13 -128q-33 -173 -145 -315.5t-289 -245.5z" />
    <glyph glyph-name="Iotadieresis" unicode="&#x3aa;" horiz-adv-x="589" 
d="M350 1434h242l-279 -1434h-241zM200 1704q10 57 56.5 96t103.5 39q50 0 81 -30.5t31 -77.5q0 -18 -2 -27q-11 -57 -58 -96t-104 -39q-50 0 -80.5 30t-30.5 77q0 14 3 28zM577 1704q10 57 56.5 96t103.5 39q50 0 81 -30.5t31 -77.5q0 -18 -2 -27q-11 -57 -58 -96t-104 -39
q-50 0 -81 30t-31 77q0 10 4 28z" />
    <glyph glyph-name="Upsilondieresis" unicode="&#x3ab;" horiz-adv-x="1323" 
d="M475 1434l244 -611l481 611h258l-664 -846l-114 -588h-242l114 588l-335 846h258zM566 1704q10 57 57 96t104 39q50 0 81 -30.5t31 -77.5q0 -18 -2 -27q-11 -57 -58 -96t-104 -39q-50 0 -81 30t-31 77q0 14 3 28zM943 1704q10 57 57 96t104 39q50 0 80.5 -30.5
t30.5 -77.5q0 -18 -2 -27q-11 -57 -57.5 -96t-103.5 -39q-50 0 -81 30t-31 77q0 14 3 28z" />
    <glyph glyph-name="alphatonos" unicode="&#x3ac;" horiz-adv-x="1419" 
d="M1190 0q-145 0 -208.5 28t-72.5 109q-171 -162 -402 -162q-202 0 -324.5 126t-122.5 318q0 46 12 111q29 150 123 276.5t234 202.5t294 76q213 0 325 -139l22 115h234l-144 -737q-3 -14 -3 -27q0 -42 27 -67t73 -25h54l-39 -201q-36 -4 -82 -4zM588 184q102 0 196 52
t153 139l59 309q-25 87 -98.5 140t-174.5 53q-146 0 -265.5 -100.5t-148.5 -246.5q-7 -34 -7 -69q0 -121 79.5 -199t206.5 -78zM589 1212l346 351h234l-353 -351h-227z" />
    <glyph glyph-name="epsilontonos" unicode="&#x3ad;" horiz-adv-x="976" 
d="M265 326q-2 -10 -2 -23q0 -55 48.5 -91t125.5 -36q158 0 274 121l134 -131q-76 -89 -193.5 -140t-253.5 -51q-165 0 -269.5 79.5t-104.5 201.5q0 28 5 53q19 93 92.5 166t166.5 100q-61 22 -93.5 69.5t-32.5 107.5q0 24 4 43q24 123 151 206.5t291 83.5q134 0 219 -50
t114 -140l-208 -115q-14 48 -57 76.5t-108 28.5t-114 -31.5t-58 -77.5q-2 -10 -2 -17q0 -40 36.5 -65.5t95.5 -25.5h158l-37 -193h-151q-86 0 -152 -42.5t-79 -106.5zM425 1212l346 351h235l-354 -351h-227z" />
    <glyph glyph-name="etatonos" unicode="&#x3ae;" horiz-adv-x="1249" 
d="M411 705l-137 -705h-233l206 1061h233l-23 -123q73 66 165 106.5t181 40.5q165 0 260.5 -90.5t95.5 -246.5q0 -52 -10 -105l-218 -1118h-234l215 1106q6 29 6 55q0 87 -54 139t-147 52q-75 0 -160 -51t-146 -121zM597 1212l346 351h235l-354 -351h-227z" />
    <glyph glyph-name="iotatonos" unicode="&#x3af;" horiz-adv-x="565" 
d="M97 240l160 821h233l-147 -758q-3 -15 -3 -28q0 -70 82 -70h35l-39 -201q-36 -4 -82 -4q-245 0 -245 179q0 28 6 61zM246 1212l346 351h234l-353 -351h-227z" />
    <glyph glyph-name="upsilondieresistonos" unicode="&#x3b0;" horiz-adv-x="1175" 
d="M480 -25q-172 0 -279.5 101.5t-107.5 257.5q0 38 8 84l125 643h234l-123 -631q-5 -30 -5 -52q0 -86 51.5 -140t136.5 -54q98 0 179 71t101 175l123 631h233l-125 -643q-36 -186 -195.5 -314.5t-355.5 -128.5zM411 1305q11 60 59.5 100.5t111.5 40.5q55 0 86.5 -31
t31.5 -81q0 -14 -3 -29q-11 -60 -59.5 -101t-111.5 -41q-55 0 -86.5 31t-31.5 81q0 15 3 30zM787 1305q11 60 59.5 100.5t111.5 40.5q55 0 87 -31t32 -81q0 -14 -3 -29q-11 -60 -59.5 -101t-111.5 -41q-55 0 -87 31t-32 81q0 15 3 30zM866 1483h-223l262 268h233z" />
    <glyph glyph-name="alpha" unicode="&#x3b1;" horiz-adv-x="1419" 
d="M1190 0q-145 0 -208.5 28t-72.5 109q-171 -162 -402 -162q-202 0 -324.5 126t-122.5 318q0 46 12 111q29 150 123 276.5t234 202.5t294 76q213 0 325 -139l22 115h234l-144 -737q-3 -14 -3 -27q0 -42 27 -67t73 -25h54l-39 -201q-36 -4 -82 -4zM588 184q102 0 196 52
t153 139l59 309q-25 87 -98.5 140t-174.5 53q-146 0 -265.5 -100.5t-148.5 -246.5q-7 -34 -7 -69q0 -121 79.5 -199t206.5 -78z" />
    <glyph glyph-name="beta" unicode="&#x3b2;" horiz-adv-x="1239" 
d="M1140 1071q-18 -91 -93 -167t-183 -113q119 -20 197.5 -105t78.5 -210q0 -39 -7 -75q-35 -181 -186 -303.5t-336 -122.5q-109 0 -188.5 47t-100.5 128l-122 -625h-242l299 1536q34 173 180.5 285t336.5 112q167 0 270 -89t103 -228q0 -28 -7 -70zM892 1061q4 17 4 39
q0 68 -45.5 110.5t-118.5 42.5q-84 0 -150.5 -56.5t-84.5 -147.5l-115 -586q-7 -35 -7 -69q0 -100 61 -155t160 -55q106 0 190 66.5t104 167.5q4 20 4 45q0 91 -71 147t-192 56h-49l39 202q116 0 185.5 55t85.5 138z" />
    <glyph glyph-name="gamma" unicode="&#x3b3;" horiz-adv-x="1081" 
d="M228 -475l93 471l-197 1065h242l129 -766l428 766h241l-610 -1065l-92 -471h-234z" />
    <glyph glyph-name="delta" unicode="&#x3b4;" horiz-adv-x="1163" 
d="M295 455q-5 -24 -5 -56q0 -96 63 -157.5t161 -61.5q113 0 208 79.5t118 195.5q5 30 5 54q0 96 -62.5 158t-161.5 62q-113 0 -208.5 -79t-117.5 -195zM598 930l-246 307l39 197h744l-41 -209h-445l366 -459q70 -86 70 -224q0 -41 -8 -87q-27 -137 -121 -248.5t-223 -171.5
t-263 -60q-177 0 -299.5 109.5t-122.5 280.5q0 43 9 90q19 96 72 180.5t126.5 145.5t162.5 100t180 49z" />
    <glyph glyph-name="epsilon" unicode="&#x3b5;" horiz-adv-x="976" 
d="M265 326q-2 -10 -2 -23q0 -55 48.5 -91t125.5 -36q158 0 274 121l134 -131q-76 -89 -193.5 -140t-253.5 -51q-165 0 -269.5 79.5t-104.5 201.5q0 28 5 53q19 93 92.5 166t166.5 100q-61 22 -93.5 69.5t-32.5 107.5q0 24 4 43q24 123 151 206.5t291 83.5q134 0 219 -50
t114 -140l-208 -115q-14 48 -57 76.5t-108 28.5t-114 -31.5t-58 -77.5q-2 -10 -2 -17q0 -40 36.5 -65.5t95.5 -25.5h158l-37 -193h-151q-86 0 -152 -42.5t-79 -106.5z" />
    <glyph glyph-name="zeta" unicode="&#x3b6;" horiz-adv-x="966" 
d="M42 377q13 67 55.5 139t88.5 125.5t116 122.5l466 461h-457l41 209h729l-39 -197l-579 -580q-79 -79 -128 -146t-62 -134q-4 -17 -4 -39q0 -111 133 -176l228 -113q135 -67 135 -208q0 -29 -6 -62q-23 -124 -139 -254h-228q110 117 129 219q3 15 3 28q0 38 -20 68t-53 45
l-207 99q-103 49 -156.5 129t-53.5 182q0 37 8 82z" />
    <glyph glyph-name="eta" unicode="&#x3b7;" horiz-adv-x="1249" 
d="M411 705l-137 -705h-233l206 1061h233l-23 -123q73 66 165 106.5t181 40.5q165 0 260.5 -90.5t95.5 -246.5q0 -52 -10 -105l-218 -1118h-234l215 1106q6 29 6 55q0 87 -54 139t-147 52q-75 0 -160 -51t-146 -121z" />
    <glyph glyph-name="theta" unicode="&#x3b8;" horiz-adv-x="1310" 
d="M109 717q39 201 142 369t257.5 270t327.5 102q109 0 197 -42t145 -116t87 -173.5t30 -217.5q0 -94 -19 -192q-30 -150 -98 -285t-162 -236.5t-216 -161t-252 -59.5q-216 0 -337.5 153t-121.5 394q0 92 20 195zM588 184q136 0 251 122.5t174 309.5h-681q-3 -33 -3 -63
q0 -162 68 -265.5t191 -103.5zM796 1249q-136 0 -251.5 -123t-173.5 -309h681q2 20 2 62q0 164 -67 267t-191 103z" />
    <glyph glyph-name="iota" unicode="&#x3b9;" horiz-adv-x="565" 
d="M97 240l160 821h233l-147 -758q-3 -15 -3 -28q0 -70 82 -70h35l-39 -201q-36 -4 -82 -4q-245 0 -245 179q0 28 6 61z" />
    <glyph glyph-name="kappa" unicode="&#x3ba;" horiz-adv-x="1064" 
d="M696 0l-227 489h-100l-95 -489h-233l206 1061h233l-71 -371h103l327 371h274l-430 -471l280 -590h-267z" />
    <glyph glyph-name="lambda" unicode="&#x3bb;" horiz-adv-x="1081" 
d="M522 1044l-85 451h242l279 -1495h-241l-138 745l-419 -745h-242z" />
    <glyph glyph-name="uni03BC" unicode="&#x3bc;" horiz-adv-x="1269" 
d="M-52 -475l299 1536h233l-138 -713q8 -73 67.5 -118.5t143.5 -45.5q75 0 160.5 51t145.5 121l137 705h234l-206 -1061h-233l23 123q-69 -67 -155.5 -107.5t-170.5 -40.5q-62 0 -114 27.5t-85 73.5l-108 -551h-233z" />
    <glyph glyph-name="nu" unicode="&#x3bd;" horiz-adv-x="1081" 
d="M1164 1061l-605 -1061h-242l-193 1061h242l131 -758l426 758h241z" />
    <glyph glyph-name="xi" unicode="&#x3be;" horiz-adv-x="976" 
d="M286 385q-6 -29 -6 -55q0 -137 158 -201l176 -72q77 -32 119 -90t42 -134q0 -31 -5 -54q-25 -125 -140 -254h-228q110 117 129 219q4 22 4 33q0 80 -74 108l-168 66q-118 46 -183 139.5t-65 208.5q0 40 7 76q26 133 132.5 242t245.5 161q-83 35 -131 106t-48 158
q0 34 5 58q30 152 167.5 255t309.5 103q214 0 313 -141l-186 -164q-67 113 -164 113q-74 0 -135 -55t-77 -138q-4 -20 -4 -43q0 -66 39 -107.5t103 -41.5h231l-38 -193h-188q-121 0 -219 -88t-122 -215z" />
    <glyph glyph-name="omicron" unicode="&#x3bf;" horiz-adv-x="1310" 
d="M588 184q146 0 265 100t148 246q8 38 8 70q0 121 -79.5 199t-206.5 78q-146 0 -265.5 -100.5t-148.5 -246.5q-7 -34 -7 -69q0 -121 79.5 -199t206.5 -78zM764 1085q219 0 352 -125.5t133 -321.5q0 -55 -10 -108q-30 -153 -129.5 -280t-248 -201t-313.5 -74
q-219 0 -353 126.5t-134 321.5q0 49 11 107q30 153 130 280t248.5 201t313.5 74z" />
    <glyph glyph-name="pi" unicode="&#x3c0;" horiz-adv-x="1179" 
d="M493 852l-165 -852h-234l165 852h-145l41 209h1077l-41 -209h-145l-165 -852h-234l165 852h-319z" />
    <glyph glyph-name="rho" unicode="&#x3c1;" horiz-adv-x="1323" 
d="M-73 -475l196 1005q46 235 236.5 395t437.5 160q214 0 340 -123t126 -317q0 -48 -12 -115q-29 -150 -122.5 -276.5t-233.5 -202.5t-294 -76q-213 0 -326 140l-114 -590h-234zM356 530l-29 -155q25 -87 98 -139t175 -52q146 0 266 100t148 246q7 36 7 76
q0 120 -72.5 195.5t-194.5 75.5q-143 0 -256 -99.5t-142 -247.5z" />
    <glyph glyph-name="sigma1" unicode="&#x3c2;" horiz-adv-x="1105" 
d="M72 530q30 153 130 280t248.5 201t313.5 74q224 0 362 -135l-156 -182q-113 109 -247 109q-146 0 -265.5 -100.5t-148.5 -246.5q-7 -36 -7 -75q0 -89 43 -159.5t128 -111.5l271 -133q137 -68 137 -209q0 -23 -7 -63q-23 -122 -140 -254h-227q110 117 129 219q3 13 3 28
q0 38 -20 68t-54 45l-251 121q-120 57 -187 163.5t-67 245.5q0 55 12 115z" />
    <glyph glyph-name="sigma" unicode="&#x3c3;" horiz-adv-x="1361" 
d="M70 518q29 149 128.5 274t245 197t302.5 72h668l-41 -209h-248q93 -112 93 -262q0 -39 -10 -92q-27 -141 -126 -261.5t-244 -191t-302 -70.5q-211 0 -344 125t-133 316q0 47 11 102zM975 518q7 42 7 68q0 117 -76.5 191.5t-199.5 74.5q-141 0 -256.5 -96.5t-142.5 -237.5
q-7 -38 -7 -67q0 -117 76 -192t199 -75q141 0 256.5 96.5t143.5 237.5z" />
    <glyph glyph-name="tau" unicode="&#x3c4;" horiz-adv-x="1001" 
d="M341 365l94 487h-327l40 209h912l-41 -209h-350l-96 -492q-7 -42 -7 -61q0 -54 28.5 -76t89.5 -22h53l-39 -201q-38 -4 -83 -4q-150 0 -219.5 55t-69.5 179q0 60 15 135z" />
    <glyph glyph-name="upsilon" unicode="&#x3c5;" horiz-adv-x="1175" 
d="M480 -25q-172 0 -279.5 101.5t-107.5 257.5q0 38 8 84l125 643h234l-123 -631q-5 -30 -5 -52q0 -86 51.5 -140t136.5 -54q98 0 179 71t101 175l123 631h233l-125 -643q-36 -186 -195.5 -314.5t-355.5 -128.5z" />
    <glyph glyph-name="phi" unicode="&#x3c6;" horiz-adv-x="1433" 
d="M357 969l138 -148q-152 -126 -186 -291q-7 -35 -7 -68q0 -107 64 -182.5t170 -91.5l175 897h176q219 0 352 -125.5t133 -321.5q0 -55 -10 -108q-42 -219 -221.5 -376t-412.5 -176l-88 -453h-233l88 453q-197 15 -315.5 139t-118.5 307q0 48 11 106q27 135 104 249
t181 190zM1124 530q8 48 8 69q0 106 -63 180.5t-167 91.5l-133 -683q129 20 229.5 116t125.5 226z" />
    <glyph glyph-name="chi" unicode="&#x3c7;" horiz-adv-x="1052" 
d="M1136 1061l-519 -748l240 -788h-250l-167 563l-386 -563h-249l546 788l-227 748h250l153 -524l359 524h250z" />
    <glyph glyph-name="psi" unicode="&#x3c8;" horiz-adv-x="1409" 
d="M927 1061l-167 -858q107 33 185 115.5t99 189.5l108 553h238l-110 -563q-37 -192 -194.5 -334.5t-367.5 -177.5l-90 -461h-238l90 461q-170 31 -271 144t-101 272q0 46 9 96l109 563h238l-108 -553q-6 -33 -6 -63q0 -86 45.5 -150t126.5 -92l167 858h238z" />
    <glyph glyph-name="omega" unicode="&#x3c9;" horiz-adv-x="1638" 
d="M996 838l-62 -318q-11 -55 -11 -112q0 -101 38 -162.5t104 -61.5q84 0 159 96.5t103 239.5q13 68 13 140q0 180 -86 401h234q91 -218 91 -391q0 -77 -14 -150q-44 -230 -195.5 -387.5t-328.5 -157.5q-110 0 -184.5 64t-100.5 164q-65 -100 -164.5 -164t-209.5 -64
q-148 0 -237.5 113t-89.5 293q0 59 15 139q16 81 47.5 160.5t76.5 151.5t80 120.5t83 108.5h234q-238 -304 -284 -541q-11 -63 -11 -112q0 -101 38 -162.5t104 -61.5q84 0 159 96.5t103 239.5l63 318h233z" />
    <glyph glyph-name="iotadieresis" unicode="&#x3ca;" horiz-adv-x="565" 
d="M97 240l160 821h233l-147 -758q-3 -15 -3 -28q0 -70 82 -70h35l-39 -201q-36 -4 -82 -4q-245 0 -245 179q0 28 6 61zM111 1372q10 57 56.5 96t103.5 39q50 0 81 -30.5t31 -77.5q0 -18 -2 -27q-11 -57 -58 -96t-104 -39q-50 0 -80.5 30.5t-30.5 77.5q0 13 3 27zM487 1372
q10 57 57 96t104 39q50 0 81 -30.5t31 -77.5q0 -18 -2 -27q-11 -57 -58 -96t-104 -39q-50 0 -81 30.5t-31 77.5q0 13 3 27z" />
    <glyph glyph-name="upsilondieresis" unicode="&#x3cb;" horiz-adv-x="1175" 
d="M428 1372q10 57 57 96t104 39q50 0 80.5 -30.5t30.5 -77.5q0 -18 -2 -27q-11 -57 -57.5 -96t-103.5 -39q-50 0 -81 30.5t-31 77.5q0 13 3 27zM805 1372q10 57 57 96t104 39q50 0 80.5 -30.5t30.5 -77.5q0 -18 -2 -27q-11 -57 -58 -96t-104 -39q-50 0 -80.5 30.5
t-30.5 77.5q0 13 3 27zM480 -25q-172 0 -279.5 101.5t-107.5 257.5q0 38 8 84l125 643h234l-123 -631q-5 -30 -5 -52q0 -86 51.5 -140t136.5 -54q98 0 179 71t101 175l123 631h233l-125 -643q-36 -186 -195.5 -314.5t-355.5 -128.5z" />
    <glyph glyph-name="omicrontonos" unicode="&#x3cc;" horiz-adv-x="1310" 
d="M588 184q146 0 265 100t148 246q8 38 8 70q0 121 -79.5 199t-206.5 78q-146 0 -265.5 -100.5t-148.5 -246.5q-7 -34 -7 -69q0 -121 79.5 -199t206.5 -78zM764 1085q219 0 352 -125.5t133 -321.5q0 -55 -10 -108q-30 -153 -129.5 -280t-248 -201t-313.5 -74
q-219 0 -353 126.5t-134 321.5q0 49 11 107q30 153 130 280t248.5 201t313.5 74zM625 1212l346 351h234l-353 -351h-227z" />
    <glyph glyph-name="upsilontonos" unicode="&#x3cd;" horiz-adv-x="1175" 
d="M480 -25q-172 0 -279.5 101.5t-107.5 257.5q0 38 8 84l125 643h234l-123 -631q-5 -30 -5 -52q0 -86 51.5 -140t136.5 -54q98 0 179 71t101 175l123 631h233l-125 -643q-36 -186 -195.5 -314.5t-355.5 -128.5zM546 1212l346 351h234l-353 -351h-227z" />
    <glyph glyph-name="omegatonos" unicode="&#x3ce;" horiz-adv-x="1638" 
d="M996 838l-62 -318q-11 -55 -11 -112q0 -101 38 -162.5t104 -61.5q84 0 159 96.5t103 239.5q13 68 13 140q0 180 -86 401h234q91 -218 91 -391q0 -77 -14 -150q-44 -230 -195.5 -387.5t-328.5 -157.5q-110 0 -184.5 64t-100.5 164q-65 -100 -164.5 -164t-209.5 -64
q-148 0 -237.5 113t-89.5 293q0 59 15 139q16 81 47.5 160.5t76.5 151.5t80 120.5t83 108.5h234q-238 -304 -284 -541q-11 -63 -11 -112q0 -101 38 -162.5t104 -61.5q84 0 159 96.5t103 239.5l63 318h233zM800 1212l346 351h234l-353 -351h-227z" />
    <glyph glyph-name="uni0400" unicode="&#x400;" horiz-adv-x="1167" 
d="M61 0l279 1434h872l-41 -209h-630l-78 -400h581l-39 -209h-582l-80 -407h649l-40 -209h-891zM739 1894l211 -350h-227l-218 350h234z" />
    <glyph glyph-name="afii10023" unicode="&#x401;" horiz-adv-x="1167" 
d="M61 0l279 1434h872l-41 -209h-630l-78 -400h581l-39 -209h-582l-80 -407h649l-40 -209h-891zM507 1704q10 57 57 96t104 39q50 0 80.5 -30.5t30.5 -77.5q0 -18 -2 -27q-11 -57 -58 -96t-104 -39q-50 0 -80.5 30t-30.5 77q0 14 3 28zM884 1704q10 57 56.5 96t103.5 39
q50 0 81 -30.5t31 -77.5q0 -18 -2 -27q-11 -57 -58 -96t-104 -39q-50 0 -80.5 30t-30.5 77q0 14 3 28z" />
    <glyph glyph-name="afii10051" unicode="&#x402;" horiz-adv-x="1470" 
d="M1395 510l-21 -109q-33 -170 -176 -287.5t-318 -117.5q-47 0 -81 4l39 201h53q86 0 156 60t87 149l17 88q4 20 4 44q0 75 -48.5 123t-126.5 48q-176 0 -286 -152l-108 -561h-242l238 1225h-385l41 209h1011l-41 -209h-385l-83 -426q64 59 146.5 91t168.5 32
q154 0 251 -93.5t97 -237.5q0 -36 -8 -81z" />
    <glyph glyph-name="afii10052" unicode="&#x403;" horiz-adv-x="1056" 
d="M61 0l279 1434h852l-41 -209h-610l-238 -1225h-242zM567 1544l346 350h235l-353 -350h-228z" />
    <glyph glyph-name="afii10053" unicode="&#x404;" horiz-adv-x="1415" 
d="M1491 1286l-163 -180q-146 139 -343 139q-190 0 -355 -119.5t-237 -304.5h704l-40 -209h-704q0 -187 118 -305.5t308 -118.5q100 0 189 32.5t197 96.5l85 -182q-243 -160 -512 -160q-187 0 -332 77t-223.5 212t-78.5 306q0 72 15 147q40 206 173 376t327 267.5t407 97.5
q287 0 465 -172z" />
    <glyph glyph-name="afii10054" unicode="&#x405;" horiz-adv-x="1216" 
d="M38 207l183 164q60 -82 142 -132.5t179 -50.5q126 0 213.5 55.5t106.5 149.5q4 19 4 43q0 71 -61.5 122.5t-207.5 82.5q-186 41 -278.5 127.5t-92.5 213.5q0 34 8 79q23 117 100 208t192.5 140t251.5 49q285 0 428 -182l-177 -172q-61 67 -128 104t-153 37
q-101 0 -176 -46.5t-89 -121.5q-4 -17 -4 -39q0 -70 62 -118t197 -81q200 -48 290 -134.5t90 -216.5q0 -38 -10 -95q-37 -188 -197.5 -303t-399.5 -115q-151 0 -277.5 62t-195.5 170z" />
    <glyph glyph-name="afii10055" unicode="&#x406;" horiz-adv-x="589" 
d="M350 1434h242l-279 -1434h-241z" />
    <glyph glyph-name="afii10056" unicode="&#x407;" horiz-adv-x="589" 
d="M350 1434h242l-279 -1434h-241zM200 1704q10 57 56.5 96t103.5 39q50 0 81 -30.5t31 -77.5q0 -18 -2 -27q-11 -57 -58 -96t-104 -39q-50 0 -80.5 30t-30.5 77q0 14 3 28zM577 1704q10 57 56.5 96t103.5 39q50 0 81 -30.5t31 -77.5q0 -18 -2 -27q-11 -57 -58 -96t-104 -39
q-50 0 -81 30t-31 77q0 10 4 28z" />
    <glyph glyph-name="afii10057" unicode="&#x408;" horiz-adv-x="946" 
d="M537 457l190 977h242l-191 -977q-49 -249 -187.5 -365.5t-370.5 -116.5q-74 0 -149 19t-124 51l118 203q38 -26 90.5 -43t101.5 -17q113 0 182.5 63.5t97.5 205.5z" />
    <glyph glyph-name="afii10058" unicode="&#x409;" horiz-adv-x="2052" 
d="M1419 1434l-101 -521h242q199 0 308 -93.5t109 -257.5q0 -47 -11 -105q-40 -209 -197 -333t-387 -124h-483l238 1225h-521l-166 -860q-38 -197 -141.5 -283t-289.5 -86q-46 0 -80 4l38 205h58q74 0 114.5 36t58.5 124l208 1069h1003zM1720 457q6 35 6 63
q0 88 -55.5 136.5t-162.5 48.5h-231l-96 -496h231q125 0 205 66t103 182z" />
    <glyph glyph-name="afii10059" unicode="&#x40a;" horiz-adv-x="2066" 
d="M1434 1434l-102 -521h242q199 0 308.5 -93.5t109.5 -257.5q0 -42 -12 -105q-40 -209 -196.5 -333t-386.5 -124h-484l120 616h-610l-120 -616h-242l279 1434h242l-119 -609h610l119 609h242zM1735 457q6 35 6 63q0 88 -55.5 136.5t-162.5 48.5h-232l-96 -496h231
q126 0 206 66t103 182z" />
    <glyph glyph-name="afii10060" unicode="&#x40b;" horiz-adv-x="1521" 
d="M1395 510l-99 -510h-241l96 498q4 20 4 44q0 75 -48.5 123t-126.5 48q-176 0 -286 -152l-108 -561h-242l238 1225h-385l41 209h1011l-41 -209h-385l-83 -426q64 59 146.5 91t168.5 32q154 0 251 -93.5t97 -237.5q0 -36 -8 -81z" />
    <glyph glyph-name="afii10061" unicode="&#x40c;" horiz-adv-x="1245" 
d="M582 1434l-119 -609h87l525 609h275l-616 -709l419 -725h-283l-353 616h-94l-120 -616h-242l279 1434h242zM629 1544l346 350h234l-353 -350h-227z" />
    <glyph glyph-name="uni040D" unicode="&#x40d;" horiz-adv-x="1441" 
d="M1454 1434l-278 -1434h-234l197 1016l-844 -1016h-234l279 1434h233l-197 -1016l845 1016h233zM872 1894l211 -350h-227l-218 350h234z" />
    <glyph glyph-name="afii10062" unicode="&#x40e;" horiz-adv-x="1323" 
d="M1458 1434l-832 -1227q-140 -207 -352 -207h-170l40 209h136q91 0 157 94l83 121l-303 1010h252l222 -770l515 770h252zM859 1524q-125 0 -206 76.5t-81 197.5q0 23 3 47h205q-2 -10 -2 -28q0 -54 32 -87.5t83 -33.5q59 0 108 42.5t62 106.5h205q-34 -139 -153 -230
t-256 -91z" />
    <glyph glyph-name="afii10145" unicode="&#x40f;" horiz-adv-x="1388" 
d="M921 209l238 1225h242l-279 -1434h-409l-57 -287h-241l56 287h-410l279 1434h242l-239 -1225h578z" />
    <glyph glyph-name="afii10017" unicode="&#x410;" horiz-adv-x="1409" 
d="M1016 1434l250 -1434h-262l-53 346h-565l-185 -346h-262l806 1434h271zM828 1169l-329 -614h422z" />
    <glyph glyph-name="afii10018" unicode="&#x411;" horiz-adv-x="1224" 
d="M480 913h242q199 0 308.5 -93.5t109.5 -257.5q0 -42 -12 -105q-40 -209 -196.5 -333t-386.5 -124h-484l279 1434h866l-41 -209h-624zM883 457q6 35 6 63q0 88 -55.5 136.5t-162.5 48.5h-232l-96 -496h231q126 0 206 66t103 182z" />
    <glyph glyph-name="afii10019" unicode="&#x412;" horiz-adv-x="1275" 
d="M662 0h-601l279 1434h524q168 0 258 -76.5t90 -214.5q0 -47 -10 -96q-20 -104 -79 -174.5t-143 -106.5q85 -25 137.5 -96t52.5 -173q0 -34 -8 -79q-36 -188 -171.5 -303t-328.5 -115zM954 1034q5 30 5 51q0 68 -40.5 104t-111.5 36h-266l-74 -381h266q84 0 143.5 48.5
t77.5 141.5zM918 426q6 30 6 58q0 75 -42.5 117t-115.5 42h-338l-85 -434h338q87 0 152.5 59t84.5 158z" />
    <glyph glyph-name="afii10020" unicode="&#x413;" horiz-adv-x="1056" 
d="M61 0l279 1434h852l-41 -209h-610l-238 -1225h-242z" />
    <glyph glyph-name="afii10021" unicode="&#x414;" horiz-adv-x="1361" 
d="M1238 209l-96 -496h-242l56 287h-755l-57 -287h-241l96 496h109q255 404 385 1061l31 164h830l-239 -1225h123zM361 209h512l198 1016h-350q-52 -265 -146.5 -536t-213.5 -480z" />
    <glyph glyph-name="afii10022" unicode="&#x415;" horiz-adv-x="1167" 
d="M61 0l279 1434h872l-41 -209h-630l-78 -400h581l-39 -209h-582l-80 -407h649l-40 -209h-891z" />
    <glyph glyph-name="afii10024" unicode="&#x416;" horiz-adv-x="1839" 
d="M522 1434l271 -609h63l119 609h242l-119 -609h63l508 609h275l-595 -709l398 -725h-283l-335 616h-71l-120 -616h-242l120 616h-72l-574 -616h-283l679 725l-318 709h274z" />
    <glyph glyph-name="afii10025" unicode="&#x417;" horiz-adv-x="1093" 
d="M384 1147l-115 145q175 166 423 166q165 0 262.5 -86.5t97.5 -222.5q0 -32 -8 -74q-18 -94 -87 -170.5t-164 -113.5q96 -39 151 -116.5t55 -177.5q0 -27 -7 -69q-38 -192 -207 -322.5t-381 -130.5q-139 0 -246 62.5t-159 171.5l181 151q86 -180 264 -180q112 0 201.5 73
t110.5 179q5 27 5 48q0 92 -68.5 148t-191.5 56h-144l39 197h144q108 0 183 52.5t90 135.5q3 17 3 34q0 67 -51 108.5t-133 41.5q-131 0 -248 -106z" />
    <glyph glyph-name="afii10026" unicode="&#x418;" horiz-adv-x="1441" 
d="M1454 1434l-278 -1434h-234l197 1016l-844 -1016h-234l279 1434h233l-197 -1016l845 1016h233z" />
    <glyph glyph-name="afii10027" unicode="&#x419;" horiz-adv-x="1441" 
d="M914 1524q-125 0 -205.5 76.5t-80.5 197.5q0 23 3 47h205q-2 -10 -2 -28q0 -54 31.5 -87.5t82.5 -33.5q59 0 108 42.5t62 106.5h205q-34 -139 -153 -230t-256 -91zM1454 1434l-278 -1434h-234l197 1016l-844 -1016h-234l279 1434h233l-197 -1016l845 1016h233z" />
    <glyph glyph-name="afii10028" unicode="&#x41a;" horiz-adv-x="1245" 
d="M582 1434l-119 -609h87l525 609h275l-616 -709l419 -725h-283l-353 616h-94l-120 -616h-242l279 1434h242z" />
    <glyph glyph-name="afii10029" unicode="&#x41b;" horiz-adv-x="1443" 
d="M1456 1434l-278 -1434h-242l238 1225h-558l-166 -860q-38 -197 -141.5 -283t-289.5 -86q-46 0 -80 4l38 205h58q74 0 114.5 36t58.5 124l208 1069h1040z" />
    <glyph glyph-name="afii10030" unicode="&#x41c;" horiz-adv-x="1753" 
d="M935 438h-152l-286 600l-202 -1038h-234l279 1434h225l345 -729l630 729h225l-278 -1434h-234l202 1038z" />
    <glyph glyph-name="afii10031" unicode="&#x41d;" horiz-adv-x="1441" 
d="M61 0l279 1434h242l-119 -609h631l118 609h242l-278 -1434h-242l120 616h-631l-120 -616h-242z" />
    <glyph glyph-name="afii10032" unicode="&#x41e;" horiz-adv-x="1691" 
d="M779 188q143 0 275.5 69.5t225.5 191t121 268.5q10 53 10 106q0 185 -118.5 303.5t-307.5 118.5q-218 0 -397.5 -152.5t-222.5 -375.5q-12 -63 -12 -109q0 -185 118.5 -302.5t307.5 -117.5zM1026 1458q283 0 459 -167.5t176 -428.5q0 -67 -14 -145q-30 -154 -116 -291.5
t-207 -236.5t-274 -156.5t-312 -57.5q-187 0 -332 77t-223.5 212t-78.5 306q0 72 15 147q40 206 173 376t327 267.5t407 97.5z" />
    <glyph glyph-name="afii10033" unicode="&#x41f;" horiz-adv-x="1388" 
d="M1401 1434l-279 -1434h-241l237 1225h-577l-238 -1225h-242l279 1434h1061z" />
    <glyph glyph-name="afii10034" unicode="&#x420;" horiz-adv-x="1214" 
d="M645 520h-242l-100 -520h-242l279 1434h483q199 0 308 -94.5t109 -258.5q0 -51 -10 -104q-41 -209 -198 -333t-387 -124zM984 977q6 35 6 63q0 88 -55.5 136.5t-162.5 48.5h-231l-97 -496h232q125 0 205 66t103 182z" />
    <glyph glyph-name="afii10035" unicode="&#x421;" horiz-adv-x="1415" 
d="M1178 328l91 -181q-243 -172 -531 -172q-187 0 -332 77t-223.5 212t-78.5 306q0 72 15 147q40 206 173 376t327 267.5t407 97.5q269 0 451 -160l-157 -182q-83 64 -159 96.5t-176 32.5q-218 0 -397.5 -152.5t-222.5 -375.5q-12 -63 -12 -109q0 -185 118.5 -302.5
t307.5 -117.5q196 0 399 140z" />
    <glyph glyph-name="afii10036" unicode="&#x422;" horiz-adv-x="1134" 
d="M344 0l238 1225h-385l41 209h1011l-41 -209h-385l-237 -1225h-242z" />
    <glyph glyph-name="afii10037" unicode="&#x423;" horiz-adv-x="1323" 
d="M1458 1434l-832 -1227q-140 -207 -352 -207h-170l40 209h136q91 0 157 94l83 121l-303 1010h252l222 -770l515 770h252z" />
    <glyph glyph-name="afii10038" unicode="&#x424;" horiz-adv-x="1572" 
d="M563 0l38 197q-221 0 -362 120.5t-141 307.5q0 38 10 90q28 144 130.5 263t252 187t312.5 68l39 201h241l-39 -201q220 0 361 -120.5t141 -306.5q0 -43 -9 -91q-28 -144 -130 -263t-251.5 -187t-312.5 -68l-38 -197h-242zM1291 715q5 30 5 53q0 110 -81.5 183t-210.5 73
l-121 -618q146 0 264.5 90.5t143.5 218.5zM353 715q-5 -30 -5 -53q0 -110 82 -183t211 -73l121 618q-146 0 -265 -90.5t-144 -218.5z" />
    <glyph glyph-name="afii10039" unicode="&#x425;" horiz-adv-x="1302" 
d="M907 0l-251 555l-466 -555h-262l619 729l-322 705h262l237 -531l443 531h263l-596 -705l335 -729h-262z" />
    <glyph glyph-name="afii10040" unicode="&#x426;" horiz-adv-x="1409" 
d="M1004 0h-943l279 1434h242l-239 -1225h578l238 1225h242l-239 -1225h123l-96 -496h-242z" />
    <glyph glyph-name="afii10041" unicode="&#x427;" horiz-adv-x="1280" 
d="M204 944l95 490h242l-94 -478q-5 -27 -5 -48q0 -83 53 -135t140 -52q89 0 172.5 45t135.5 117l108 551h241l-278 -1434h-242l125 645q-64 -59 -157 -96t-180 -37q-162 0 -263 97t-101 249q0 46 8 86z" />
    <glyph glyph-name="afii10042" unicode="&#x428;" horiz-adv-x="1998" 
d="M1531 209l238 1225h242l-278 -1434h-1672l279 1434h242l-239 -1225h473l239 1225h241l-238 -1225h473z" />
    <glyph glyph-name="afii10043" unicode="&#x429;" horiz-adv-x="2019" 
d="M1614 0h-1553l279 1434h242l-239 -1225h473l239 1225h241l-238 -1225h473l238 1225h242l-238 -1225h122l-96 -496h-241z" />
    <glyph glyph-name="afii10044" unicode="&#x42a;" horiz-adv-x="1460" 
d="M726 913h242q199 0 308 -93.5t109 -257.5q0 -47 -11 -105q-40 -209 -196.5 -333t-386.5 -124h-484l238 1225h-348l41 209h589zM1128 457q7 40 7 63q0 88 -56 136.5t-163 48.5h-231l-96 -496h231q125 0 205 66t103 182z" />
    <glyph glyph-name="afii10045" unicode="&#x42b;" horiz-adv-x="1705" 
d="M340 1434h242l-102 -521h242q199 0 308.5 -93.5t109.5 -257.5q0 -42 -12 -105q-40 -209 -196.5 -333t-386.5 -124h-484zM883 457q6 35 6 63q0 88 -55.5 136.5t-162.5 48.5h-232l-96 -496h231q126 0 206 66t103 182zM1477 1434h241l-278 -1434h-242z" />
    <glyph glyph-name="afii10046" unicode="&#x42c;" horiz-adv-x="1214" 
d="M340 1434h242l-102 -521h242q199 0 308.5 -93.5t109.5 -257.5q0 -42 -12 -105q-40 -209 -196.5 -333t-386.5 -124h-484zM883 457q6 35 6 63q0 88 -55.5 136.5t-162.5 48.5h-232l-96 -496h231q126 0 206 66t103 182z" />
    <glyph glyph-name="afii10047" unicode="&#x42d;" horiz-adv-x="1415" 
d="M310 1106l-91 180q243 172 531 172q283 0 458.5 -167.5t175.5 -428.5q0 -67 -14 -145q-30 -154 -116 -291.5t-206.5 -236.5t-273.5 -156.5t-312 -57.5q-269 0 -451 160l157 182q83 -64 159 -96.5t176 -32.5q190 0 355 119t236 305h-703l40 209h703v4q0 184 -118 302
t-307 118q-196 0 -399 -139z" />
    <glyph glyph-name="afii10048" unicode="&#x42e;" horiz-adv-x="2193" 
d="M423 616l-120 -616h-242l279 1434h242l-119 -609h185q61 180 193.5 324.5t312.5 226.5t374 82q283 0 459 -167.5t176 -428.5q0 -62 -15 -145q-30 -154 -116 -291.5t-206.5 -236.5t-273.5 -156.5t-312 -57.5q-283 0 -458.5 167.5t-175.5 429.5q0 29 1 44h-184zM1281 188
q143 0 275.5 69.5t225.5 191t121 268.5q10 53 10 106q0 185 -118.5 303.5t-307.5 118.5q-218 0 -398 -152.5t-223 -375.5q-11 -58 -11 -109q0 -185 118.5 -302.5t307.5 -117.5z" />
    <glyph glyph-name="afii10049" unicode="&#x42f;" horiz-adv-x="1243" 
d="M772 1434h483l-278 -1434h-242l101 520h-143l-457 -520h-267l474 537q-129 32 -197.5 118.5t-68.5 215.5q0 53 10 106q40 208 197.5 332.5t387.5 124.5zM973 1225h-232q-125 0 -205 -66t-103 -182q-6 -35 -6 -64q0 -88 55.5 -136t162.5 -48h232z" />
    <glyph glyph-name="afii10065" unicode="&#x430;" horiz-adv-x="1343" 
d="M588 184q102 0 196 52t153 139l59 309q-25 87 -98.5 140t-174.5 53q-146 0 -265.5 -100.5t-148.5 -246.5q-7 -34 -7 -69q0 -121 79.5 -199t206.5 -78zM723 1085q213 0 325 -139l22 115h234l-206 -1061h-234l22 115q-168 -140 -379 -140q-202 0 -324.5 126t-122.5 318
q0 46 12 111q29 150 123 276.5t234 202.5t294 76z" />
    <glyph glyph-name="afii10066" unicode="&#x431;" horiz-adv-x="1257" 
d="M407 842q77 63 173 100t193 37q183 0 298 -112.5t115 -287.5q0 -52 -10 -102q-42 -218 -223.5 -360t-421.5 -142q-203 0 -324 115t-121 331q0 74 17 167q38 194 94 336.5t135 246.5t190 170.5t249 103t322 50.5l-8 -209q-139 -12 -237.5 -34t-170.5 -54t-122.5 -84
t-84 -115t-63.5 -157zM341 588q-13 -66 -13 -127q0 -135 66 -206t177 -71q134 0 238.5 84t128.5 209q6 30 6 60q0 103 -69 168t-179 65q-97 0 -188.5 -49.5t-166.5 -132.5z" />
    <glyph glyph-name="afii10067" unicode="&#x432;" horiz-adv-x="1064" 
d="M508 0h-467l206 1061h434q131 0 213.5 -66.5t82.5 -169.5q0 -22 -5 -49q-13 -71 -65.5 -130.5t-122.5 -86.5q68 -17 109 -75t41 -132q0 -21 -5 -48q-26 -129 -147 -216.5t-274 -87.5zM583 449h-222l-48 -248h222q61 0 107.5 35t56.5 88q2 16 2 22q0 45 -32 74t-86 29z
M398 641h185q57 0 99 31.5t51 79.5q2 14 2 19q0 40 -30 64.5t-79 24.5h-185z" />
    <glyph glyph-name="afii10068" unicode="&#x433;" horiz-adv-x="847" 
d="M865 852h-426l-165 -852h-233l206 1061h659z" />
    <glyph glyph-name="afii10069" unicode="&#x434;" horiz-adv-x="1136" 
d="M1028 205l-82 -422h-233l43 217h-580l-43 -217h-233l82 422h110q113 167 187.5 376.5t127.5 479.5h657l-167 -856h131zM340 205h328l127 651h-207q-31 -157 -98 -335t-150 -316z" />
    <glyph glyph-name="afii10070" unicode="&#x435;" horiz-adv-x="1265" 
d="M1169 455h-873v-11q0 -118 80.5 -193t208.5 -75q180 0 342 139l131 -147q-214 -193 -506 -193q-227 0 -359.5 124.5t-132.5 319.5q0 46 12 111q30 153 128.5 280t244.5 201t307 74q209 0 332.5 -120.5t123.5 -307.5q0 -55 -10 -106q-9 -47 -29 -96zM712 885
q-110 0 -213 -66.5t-157 -171.5h630q-7 104 -77.5 171t-182.5 67z" />
    <glyph glyph-name="afii10072" unicode="&#x436;" horiz-adv-x="1609" 
d="M1241 0l-228 469h-103l-91 -469h-233l91 469h-105l-408 -469h-266l503 569l-242 492h274l180 -391h103l76 391h233l-76 -391h101l333 391h275l-433 -492l282 -569h-266z" />
    <glyph glyph-name="afii10073" unicode="&#x437;" horiz-adv-x="1001" 
d="M636 326q2 8 2 23q0 55 -48 90.5t-125 35.5h-152l37 193h158q66 0 115 31t58 77q2 10 2 17q0 40 -37 66t-96 26q-64 0 -117.5 -28t-86.5 -77l-165 115q65 90 170 140t239 50q148 0 240 -69t92 -176q0 -25 -4 -45q-14 -73 -69.5 -133.5t-136.5 -86.5q71 -24 115 -83
t44 -135q0 -21 -5 -48q-28 -141 -171 -237.5t-327 -96.5q-136 0 -233.5 51t-139.5 140l185 131q32 -57 91 -89t136 -32q86 0 151.5 43.5t77.5 106.5z" />
    <glyph glyph-name="afii10074" unicode="&#x438;" horiz-adv-x="1269" 
d="M1230 1061l-206 -1061h-225l142 735l-679 -735h-221l206 1061h225l-143 -735l680 735h221z" />
    <glyph glyph-name="afii10075" unicode="&#x439;" horiz-adv-x="1269" 
d="M764 1192q-125 0 -206 76.5t-81 197.5q0 23 3 47h205q-2 -10 -2 -28q0 -54 32 -87.5t83 -33.5q59 0 108 42.5t62 106.5h204q-34 -139 -152.5 -230t-255.5 -91zM1230 1061l-206 -1061h-225l142 735l-679 -735h-221l206 1061h225l-143 -735l680 735h221z" />
    <glyph glyph-name="afii10076" unicode="&#x43a;" horiz-adv-x="1064" 
d="M696 0l-227 489h-100l-95 -489h-233l206 1061h233l-71 -371h103l327 371h274l-430 -471l280 -590h-267z" />
    <glyph glyph-name="afii10077" unicode="&#x43b;" horiz-adv-x="1263" 
d="M1224 1061l-206 -1061h-234l165 852h-430l-104 -541q-26 -135 -134.5 -227t-241.5 -92q-57 0 -96 8l40 207h51q56 0 98 35t52 90l143 729h897z" />
    <glyph glyph-name="afii10078" unicode="&#x43c;" horiz-adv-x="1394" 
d="M462 1061l236 -522l442 522h215l-206 -1061h-225l137 707l-337 -392h-137l-184 392l-137 -707h-225l206 1061h215z" />
    <glyph glyph-name="afii10079" unicode="&#x43d;" horiz-adv-x="1269" 
d="M1230 1061l-206 -1061h-233l86 444h-517l-86 -444h-233l206 1061h233l-79 -408h517l78 408h234z" />
    <glyph glyph-name="afii10080" unicode="&#x43e;" horiz-adv-x="1310" 
d="M588 184q146 0 265 100t148 246q8 38 8 70q0 121 -79.5 199t-206.5 78q-146 0 -265.5 -100.5t-148.5 -246.5q-7 -34 -7 -69q0 -121 79.5 -199t206.5 -78zM764 1085q219 0 352 -125.5t133 -321.5q0 -55 -10 -108q-30 -153 -129.5 -280t-248 -201t-313.5 -74
q-219 0 -353 126.5t-134 321.5q0 49 11 107q30 153 130 280t248.5 201t313.5 74z" />
    <glyph glyph-name="afii10081" unicode="&#x43f;" horiz-adv-x="1269" 
d="M1230 1061l-206 -1061h-233l164 852h-516l-165 -852h-233l206 1061h983z" />
    <glyph glyph-name="afii10082" unicode="&#x440;" horiz-adv-x="1343" 
d="M621 184q146 0 265 100t148 246q7 34 7 70q0 121 -79 199t-206 78q-101 0 -195.5 -53t-153.5 -140l-60 -309q25 -87 98.5 -139t175.5 -52zM838 1085q202 0 323.5 -125t121.5 -317q0 -53 -11 -113q-29 -150 -122.5 -276.5t-233.5 -202.5t-294 -76q-213 0 -326 140
l-115 -590h-233l299 1536h233l-22 -115q167 139 380 139z" />
    <glyph glyph-name="afii10083" unicode="&#x441;" horiz-adv-x="1130" 
d="M548 -25q-219 0 -353 126.5t-134 321.5q0 49 11 107q30 153 130 280t248.5 201t313.5 74q224 0 362 -135l-156 -182q-113 109 -247 109q-146 0 -265.5 -100.5t-148.5 -246.5q-7 -34 -7 -69q0 -121 79.5 -199t206.5 -78q148 0 295 115l104 -170q-197 -154 -439 -154z" />
    <glyph glyph-name="afii10084" unicode="&#x442;" horiz-adv-x="970" 
d="M431 852h-323l40 209h881l-41 -209h-323l-165 -852h-234z" />
    <glyph glyph-name="afii10085" unicode="&#x443;" horiz-adv-x="1081" 
d="M44 -475l273 475l-193 1061h242l127 -766l430 766h241l-878 -1536h-242z" />
    <glyph glyph-name="afii10086" unicode="&#x444;" horiz-adv-x="2166" 
d="M1444 184q146 0 266 100t148 246q7 34 7 70q0 121 -79.5 199t-206.5 78q-101 0 -195.5 -53t-153.5 -140l-60 -309q25 -87 98.5 -139t175.5 -52zM588 184q102 0 196 52t153 139l59 309q-25 87 -98.5 140t-174.5 53q-146 0 -265.5 -100.5t-148.5 -246.5q-7 -34 -7 -69
q0 -121 79.5 -199t206.5 -78zM1048 946l106 549h234l-107 -549q167 139 380 139q202 0 323.5 -125t121.5 -317q0 -53 -11 -113q-29 -150 -122.5 -276.5t-233.5 -202.5t-294 -76q-213 0 -326 140l-114 -590h-234l115 590q-168 -140 -379 -140q-202 0 -324.5 126t-122.5 318
q0 46 12 111q29 150 123 276.5t234 202.5t294 76q213 0 325 -139z" />
    <glyph glyph-name="afii10087" unicode="&#x445;" horiz-adv-x="1081" 
d="M700 0l-187 385l-337 -385h-258l477 541l-244 520h258l164 -365l307 365h258l-448 -520l268 -541h-258z" />
    <glyph glyph-name="afii10088" unicode="&#x446;" horiz-adv-x="1294" 
d="M1230 1061l-166 -852h123l-96 -496h-234l56 287h-872l206 1061h233l-166 -852h516l166 852h234z" />
    <glyph glyph-name="afii10089" unicode="&#x447;" horiz-adv-x="1136" 
d="M657 0l82 426q-61 -62 -139.5 -96.5t-162.5 -34.5q-142 0 -231 89.5t-89 228.5q0 37 8 83l71 365h233l-69 -352q-4 -20 -4 -43q0 -71 46 -116.5t121 -45.5q152 0 261 151l79 406h234l-206 -1061h-234z" />
    <glyph glyph-name="afii10090" unicode="&#x448;" horiz-adv-x="1626" 
d="M1586 1061l-206 -1061h-1339l206 1061h233l-166 -852h320l166 852h233l-166 -852h320l166 852h233z" />
    <glyph glyph-name="afii10091" unicode="&#x449;" horiz-adv-x="1650" 
d="M1270 0h-1229l206 1061h233l-166 -852h320l166 852h233l-166 -852h320l166 852h233l-166 -852h123l-96 -496h-234z" />
    <glyph glyph-name="afii10092" unicode="&#x44a;" horiz-adv-x="1232" 
d="M680 0h-447l167 860h-290l38 201h525l-65 -332h213q145 0 235 -84t90 -213q0 -31 -6 -67q-30 -153 -162.5 -259t-297.5 -106zM906 365q3 17 3 31q0 59 -41 95.5t-106 36.5h-193l-63 -327h192q74 0 134.5 47t73.5 117z" />
    <glyph glyph-name="afii10093" unicode="&#x44b;" horiz-adv-x="1482" 
d="M487 0h-446l206 1061h233l-64 -332h213q145 0 234.5 -84t89.5 -213q0 -31 -6 -67q-30 -153 -162.5 -259t-297.5 -106zM714 365q3 17 3 31q0 58 -41.5 95t-106.5 37h-192l-64 -327h193q74 0 134.5 47t73.5 117zM1004 0l205 1061h234l-206 -1061h-233z" />
    <glyph glyph-name="afii10094" unicode="&#x44c;" horiz-adv-x="1040" 
d="M487 0h-446l206 1061h233l-64 -332h213q145 0 234.5 -84t89.5 -213q0 -31 -6 -67q-30 -153 -162.5 -259t-297.5 -106zM714 365q3 17 3 31q0 58 -41.5 95t-106.5 37h-192l-64 -327h193q74 0 134.5 47t73.5 117z" />
    <glyph glyph-name="afii10095" unicode="&#x44d;" horiz-adv-x="1130" 
d="M368 -25q-242 0 -380 154l170 170q101 -115 250 -115q119 0 224 69t158 179h-471l37 193h471q-8 112 -86 182t-198 70q-133 0 -290 -109l-85 182q191 135 416 135q219 0 352 -125.5t133 -321.5q0 -55 -10 -108q-30 -153 -129.5 -280t-248 -201t-313.5 -74z" />
    <glyph glyph-name="afii10096" unicode="&#x44e;" horiz-adv-x="1751" 
d="M1204 1085q219 0 352.5 -126t133.5 -321q0 -50 -11 -108q-30 -153 -129.5 -280t-248 -201t-313.5 -74q-219 0 -352.5 126t-133.5 321v6h-145l-83 -428h-233l206 1061h233l-83 -424h146q75 196 258 322t403 126zM1028 184q146 0 266 100t148 246q7 34 7 70
q0 121 -79.5 199t-206.5 78q-146 0 -265 -100.5t-148 -246.5q-8 -38 -8 -69q0 -121 79.5 -199t206.5 -78z" />
    <glyph glyph-name="afii10097" unicode="&#x44f;" horiz-adv-x="1128" 
d="M128 713q19 97 87 177t169 125.5t213 45.5h492l-206 -1061h-234l71 365h-142l-359 -365h-256l376 381q-101 29 -159 100.5t-58 168.5q0 30 6 63zM816 860h-250q-76 0 -134.5 -41.5t-70.5 -105.5q-3 -13 -3 -28q0 -54 42 -87t109 -33h250z" />
    <glyph glyph-name="uni0450" unicode="&#x450;" horiz-adv-x="1265" 
d="M1169 455h-873v-11q0 -118 80.5 -193t208.5 -75q180 0 342 139l131 -147q-214 -193 -506 -193q-227 0 -359.5 124.5t-132.5 319.5q0 46 12 111q30 153 128.5 280t244.5 201t307 74q209 0 332.5 -120.5t123.5 -307.5q0 -55 -10 -106q-9 -47 -29 -96zM712 885
q-110 0 -213 -66.5t-157 -171.5h630q-7 104 -77.5 171t-182.5 67zM744 1563l211 -351h-227l-218 351h234z" />
    <glyph glyph-name="afii10071" unicode="&#x451;" horiz-adv-x="1265" 
d="M1169 455h-873v-11q0 -118 80.5 -193t208.5 -75q180 0 342 139l131 -147q-214 -193 -506 -193q-227 0 -359.5 124.5t-132.5 319.5q0 46 12 111q30 153 128.5 280t244.5 201t307 74q209 0 332.5 -120.5t123.5 -307.5q0 -55 -10 -106q-9 -47 -29 -96zM712 885
q-110 0 -213 -66.5t-157 -171.5h630q-7 104 -77.5 171t-182.5 67zM473 1372q10 57 57 96t104 39q50 0 80.5 -30.5t30.5 -77.5q0 -18 -2 -27q-11 -57 -57.5 -96t-103.5 -39q-50 0 -81 30.5t-31 77.5q0 13 3 27zM850 1372q10 57 57 96t104 39q50 0 80.5 -30.5t30.5 -77.5
q0 -18 -2 -27q-11 -57 -58 -96t-104 -39q-50 0 -80.5 30.5t-30.5 77.5q0 13 3 27z" />
    <glyph glyph-name="afii10099" unicode="&#x452;" horiz-adv-x="1269" 
d="M148 1188l31 155h144l28 152h234l-29 -152h330l-31 -155h-330l-48 -250q73 66 165 106.5t181 40.5q165 0 261 -90.5t96 -245.5q0 -48 -11 -106l-145 -743q-37 -195 -151.5 -285t-322.5 -90q-67 0 -111 8l39 201q40 -4 91 -4q103 0 154 40.5t69 131.5l141 729q5 24 5 55
q0 87 -54 139t-147 52q-75 0 -160 -51t-146 -121l-136 -705h-234l231 1188h-144z" />
    <glyph glyph-name="afii10100" unicode="&#x453;" horiz-adv-x="847" 
d="M865 852h-426l-165 -852h-233l206 1061h659zM361 1212l347 351h234l-353 -351h-228z" />
    <glyph glyph-name="afii10101" unicode="&#x454;" horiz-adv-x="1130" 
d="M542 -25q-219 0 -353 126.5t-134 321.5q0 49 11 107q30 153 130 280t248.5 201t313.5 74q224 0 362 -135l-156 -182q-113 109 -247 109q-120 0 -225.5 -70t-157.5 -182h471l-37 -193h-470q9 -110 86.5 -179t197.5 -69q148 0 295 115l104 -170q-197 -154 -439 -154z" />
    <glyph glyph-name="afii10102" unicode="&#x455;" horiz-adv-x="964" 
d="M-2 152l162 155q39 -60 104 -95.5t145 -35.5q84 0 139.5 34t66.5 93q3 15 3 27q0 45 -41 74t-136 49q-147 31 -217 96t-70 168q0 35 7 70q26 131 144 214.5t287 83.5q106 0 193.5 -39t144.5 -104l-156 -158q-52 50 -99 75.5t-105 25.5q-69 0 -118.5 -28t-58.5 -75
q-2 -10 -2 -19q0 -92 162 -126q155 -33 228.5 -98t73.5 -169q0 -36 -7 -71q-28 -142 -152.5 -233t-309.5 -91q-129 0 -231 47t-157 130z" />
    <glyph glyph-name="afii10103" unicode="&#x456;" horiz-adv-x="540" 
d="M51 0l206 1061h233l-205 -1061h-234zM285 1350q11 61 61 103t112 42q54 0 87.5 -33t33.5 -84q0 -8 -4 -28q-12 -62 -62.5 -104t-111.5 -42q-53 0 -86 32.5t-33 83.5q0 15 3 30z" />
    <glyph glyph-name="afii10104" unicode="&#x457;" horiz-adv-x="540" 
d="M51 0l206 1061h233l-205 -1061h-234zM111 1372q10 57 56.5 96t103.5 39q50 0 81 -30.5t31 -77.5q0 -18 -2 -27q-11 -57 -58 -96t-104 -39q-50 0 -80.5 30.5t-30.5 77.5q0 13 3 27zM487 1372q10 57 57 96t104 39q50 0 81 -30.5t31 -77.5q0 -18 -2 -27q-11 -57 -58 -96
t-104 -39q-50 0 -81 30.5t-31 77.5q0 13 3 27z" />
    <glyph glyph-name="afii10105" unicode="&#x458;" horiz-adv-x="540" 
d="M30 -111l227 1172h233l-227 -1167q-38 -198 -135.5 -283.5t-281.5 -85.5q-44 0 -80 4l38 201h54q74 0 114.5 35.5t57.5 123.5zM285 1350q11 61 61 103t112 42q54 0 87.5 -33t33.5 -84q0 -8 -4 -28q-12 -62 -62.5 -104t-111.5 -42q-53 0 -86 32.5t-33 83.5q0 15 3 30z" />
    <glyph glyph-name="afii10106" unicode="&#x459;" horiz-adv-x="1742" 
d="M1190 0h-447l165 852h-389l-104 -541q-26 -135 -134.5 -227t-241.5 -92q-57 0 -96 8l40 207h51q56 0 98 35t52 90l143 729h856l-65 -332h213q145 0 235 -84t90 -213q0 -31 -6 -67q-30 -153 -162.5 -259t-297.5 -106zM1416 365q3 16 3 31q0 59 -41 95.5t-106 36.5h-193
l-63 -327h192q74 0 134.5 47t73.5 117z" />
    <glyph glyph-name="afii10107" unicode="&#x45a;" horiz-adv-x="1748" 
d="M1196 0h-446l86 444h-476l-86 -444h-233l206 1061h233l-79 -408h476l78 408h234l-65 -332h213q145 0 235 -84t90 -213q0 -31 -6 -67q-30 -153 -162.5 -259t-297.5 -106zM1422 365q3 16 3 31q0 59 -41 95.5t-106 36.5h-193l-63 -327h192q74 0 134.5 47t73.5 117z" />
    <glyph glyph-name="afii10108" unicode="&#x45b;" horiz-adv-x="1269" 
d="M148 1188l31 155h144l28 152h234l-29 -152h330l-31 -155h-330l-48 -250q73 66 165 106.5t181 40.5q165 0 261 -90.5t96 -246.5q0 -47 -11 -105l-125 -643h-233l122 631q5 24 5 55q0 87 -54 139t-147 52q-75 0 -160 -51t-146 -121l-136 -705h-234l231 1188h-144z" />
    <glyph glyph-name="afii10109" unicode="&#x45c;" horiz-adv-x="1064" 
d="M696 0l-227 489h-100l-95 -489h-233l206 1061h233l-71 -371h103l327 371h274l-430 -471l280 -590h-267zM466 1212l346 351h235l-354 -351h-227z" />
    <glyph glyph-name="uni045D" unicode="&#x45d;" horiz-adv-x="1269" 
d="M1230 1061l-206 -1061h-225l142 735l-679 -735h-221l206 1061h225l-143 -735l680 735h221zM734 1563l211 -351h-227l-218 351h234z" />
    <glyph glyph-name="afii10110" unicode="&#x45e;" horiz-adv-x="1081" 
d="M44 -475l273 475l-193 1061h242l127 -766l430 766h241l-878 -1536h-242zM668 1192q-125 0 -206 76.5t-81 197.5q0 23 3 47h205q-2 -10 -2 -28q0 -54 31.5 -87.5t82.5 -33.5q59 0 108 42.5t62 106.5h205q-34 -139 -152.5 -230t-255.5 -91z" />
    <glyph glyph-name="afii10193" unicode="&#x45f;" horiz-adv-x="1269" 
d="M649 0l-56 -287h-234l57 287h-375l206 1061h233l-166 -852h516l166 852h234l-206 -1061h-375z" />
    <glyph glyph-name="afii10050" unicode="&#x490;" horiz-adv-x="1056" 
d="M950 1434l56 286h241l-96 -495h-610l-238 -1225h-242l279 1434h610z" />
    <glyph glyph-name="afii10098" unicode="&#x491;" horiz-adv-x="847" 
d="M673 1061l55 287h234l-97 -496h-426l-165 -852h-233l206 1061h426z" />
    <glyph glyph-name="Wgrave" unicode="&#x1e80;" horiz-adv-x="2007" 
d="M1061 1434h237l100 -1080l490 1080h254l-686 -1434h-237l-104 1102l-531 -1102h-238l-129 1434h254l71 -1080zM1157 1894l211 -350h-227l-218 350h234z" />
    <glyph glyph-name="wgrave" unicode="&#x1e81;" horiz-adv-x="1613" 
d="M790 1061h241l64 -756l360 756h242l-538 -1061h-241l-66 762l-360 -762h-242l-126 1061h242l65 -756zM880 1563l211 -351h-228l-218 351h235z" />
    <glyph glyph-name="Wacute" unicode="&#x1e82;" horiz-adv-x="2007" 
d="M1061 1434h237l100 -1080l490 1080h254l-686 -1434h-237l-104 1102l-531 -1102h-238l-129 1434h254l71 -1080zM1040 1544l346 350h235l-353 -350h-228z" />
    <glyph glyph-name="wacute" unicode="&#x1e83;" horiz-adv-x="1613" 
d="M790 1061h241l64 -756l360 756h242l-538 -1061h-241l-66 762l-360 -762h-242l-126 1061h242l65 -756zM780 1212l346 351h235l-353 -351h-228z" />
    <glyph glyph-name="Wdieresis" unicode="&#x1e84;" horiz-adv-x="2007" 
d="M1061 1434h237l100 -1080l490 1080h254l-686 -1434h-237l-104 1102l-531 -1102h-238l-129 1434h254l71 -1080zM908 1704q10 57 57 96t104 39q50 0 81 -30.5t31 -77.5q0 -18 -2 -27q-11 -57 -58 -96t-104 -39q-50 0 -81 30t-31 77q0 14 3 28zM1285 1704q10 57 57 96
t104 39q50 0 81 -30.5t31 -77.5q0 -13 -3 -27q-11 -57 -57.5 -96t-103.5 -39q-50 0 -81 30t-31 77q0 14 3 28z" />
    <glyph glyph-name="wdieresis" unicode="&#x1e85;" horiz-adv-x="1613" 
d="M790 1061h241l64 -756l360 756h242l-538 -1061h-241l-66 762l-360 -762h-242l-126 1061h242l65 -756zM647 1372q10 57 57 96t104 39q50 0 81 -30.5t31 -77.5q0 -18 -2 -27q-11 -57 -58 -96t-104 -39q-50 0 -81 30.5t-31 77.5q0 13 3 27zM1024 1372q10 57 57 96t104 39
q50 0 80.5 -30.5t30.5 -77.5q0 -18 -2 -27q-11 -57 -57.5 -96t-103.5 -39q-50 0 -81 30.5t-31 77.5q0 13 3 27z" />
    <glyph glyph-name="Ygrave" unicode="&#x1ef2;" horiz-adv-x="1323" 
d="M475 1434l244 -611l481 611h258l-664 -846l-114 -588h-242l114 588l-335 846h258zM811 1894l211 -350h-227l-218 350h234z" />
    <glyph glyph-name="ygrave" unicode="&#x1ef3;" horiz-adv-x="1081" 
d="M44 -475l273 475l-193 1061h242l127 -766l430 766h241l-878 -1536h-242zM611 1563l211 -351h-227l-218 351h234z" />
    <glyph glyph-name="thinspace" unicode="&#x2009;" horiz-adv-x="409" 
 />
    <glyph glyph-name="uni2010" unicode="&#x2010;" horiz-adv-x="831" 
d="M717 569h-586l43 222h586z" />
    <glyph glyph-name="figuredash" unicode="&#x2012;" horiz-adv-x="1228" 
d="M1135 569h-1024l43 222h1024z" />
    <glyph glyph-name="endash" unicode="&#x2013;" horiz-adv-x="1024" 
d="M1032 569h-1024l43 222h1024z" />
    <glyph glyph-name="emdash" unicode="&#x2014;" horiz-adv-x="2048" 
d="M2056 569h-2048l43 222h2048z" />
    <glyph glyph-name="afii00208" unicode="&#x2015;" horiz-adv-x="2048" 
d="M1851 569h-1638l43 222h1638z" />
    <glyph glyph-name="uni2016" unicode="&#x2016;" horiz-adv-x="921" 
d="M17 -287l355 1823h207l-355 -1823h-207zM380 -287l354 1823h207l-354 -1823h-207z" />
    <glyph glyph-name="underscoredbl" unicode="&#x2017;" horiz-adv-x="1228" 
d="M-93 -475l34 172h1024l-34 -172h-1024zM-39 -197l34 172h1024l-34 -172h-1024z" />
    <glyph glyph-name="quoteleft" unicode="&#x2018;" horiz-adv-x="614" 
d="M591 1212q-12 -64 -63.5 -107.5t-116.5 -43.5q-57 0 -91.5 33.5t-34.5 87.5q0 15 3 30q7 37 30 70l206 313h150l-155 -239q35 -13 55 -42.5t20 -69.5q0 -16 -3 -32z" />
    <glyph glyph-name="quoteright" unicode="&#x2019;" horiz-adv-x="614" 
d="M334 1444q12 64 63.5 107.5t116.5 43.5q57 0 91.5 -33.5t34.5 -86.5q0 -16 -3 -31q-6 -35 -31 -70l-206 -313h-149l155 239q-35 13 -55 42.5t-20 69.5q0 16 3 32z" />
    <glyph glyph-name="quotesinglbase" unicode="&#x201a;" horiz-adv-x="614" 
d="M78 127q12 65 64 108.5t116 43.5q57 0 91.5 -33.5t34.5 -87.5q0 -16 -3 -31q-6 -35 -31 -70l-206 -313h-149l155 240q-35 13 -55 42.5t-20 68.5q0 15 3 32z" />
    <glyph glyph-name="quotereversed" unicode="&#x201b;" horiz-adv-x="614" 
d="M637 1444q-10 -50 -45.5 -89.5t-83.5 -54.5l62 -239h-149l-85 313q-5 18 -5 37q0 17 3 33q12 64 63.5 107.5t116.5 43.5q57 0 91.5 -33.5t34.5 -86.5q0 -16 -3 -31z" />
    <glyph glyph-name="quotedblleft" unicode="&#x201c;" horiz-adv-x="978" 
d="M591 1212q-12 -64 -63.5 -107.5t-116.5 -43.5q-57 0 -91.5 33.5t-34.5 87.5q0 15 3 30q7 37 30 70l206 313h150l-155 -239q35 -13 55 -42.5t20 -69.5q0 -16 -3 -32zM955 1212q-12 -64 -63.5 -107.5t-116.5 -43.5q-57 0 -91.5 33.5t-34.5 87.5q0 15 3 30q6 35 31 70
l206 313h149l-154 -239q35 -13 54.5 -42.5t19.5 -69.5q0 -16 -3 -32z" />
    <glyph glyph-name="quotedblright" unicode="&#x201d;" horiz-adv-x="978" 
d="M334 1444q12 64 63.5 107.5t116.5 43.5q57 0 91.5 -33.5t34.5 -86.5q0 -16 -3 -31q-6 -35 -31 -70l-206 -313h-149l155 239q-35 13 -55 42.5t-20 69.5q0 16 3 32zM698 1444q12 64 64 107.5t117 43.5q57 0 91.5 -33.5t34.5 -86.5q0 -11 -4 -31q-7 -37 -30 -70l-206 -313
h-150l155 239q-35 13 -55 42.5t-20 69.5q0 16 3 32z" />
    <glyph glyph-name="quotedblbase" unicode="&#x201e;" horiz-adv-x="978" 
d="M78 127q12 65 64 108.5t116 43.5q57 0 91.5 -33.5t34.5 -87.5q0 -16 -3 -31q-6 -35 -31 -70l-206 -313h-149l155 240q-35 13 -55 42.5t-20 68.5q0 15 3 32zM442 127q12 64 64 108t117 44q57 0 91.5 -33.5t34.5 -87.5q0 -11 -4 -31q-7 -37 -30 -70l-206 -313h-150l155 240
q-35 13 -55 42.5t-20 68.5q0 15 3 32z" />
    <glyph glyph-name="uni201F" unicode="&#x201f;" horiz-adv-x="978" 
d="M637 1444q-10 -50 -45.5 -89.5t-83.5 -54.5l62 -239h-149l-85 313q-5 18 -5 37q0 17 3 33q12 64 63.5 107.5t116.5 43.5q57 0 91.5 -33.5t34.5 -86.5q0 -16 -3 -31zM1001 1444q-10 -50 -45.5 -89.5t-83.5 -54.5l63 -239h-150l-85 313q-5 18 -5 37q0 17 3 33
q12 64 64 107.5t117 43.5q57 0 91.5 -33.5t34.5 -86.5q0 -11 -4 -31z" />
    <glyph glyph-name="dagger" unicode="&#x2020;" horiz-adv-x="1146" 
d="M298 -268l242 1243h-326l40 209h326l67 348h242l-68 -348h326l-40 -209h-326l-241 -1243h-242z" />
    <glyph glyph-name="daggerdbl" unicode="&#x2021;" horiz-adv-x="1146" 
d="M40 80l40 209h326l134 686h-326l40 209h326l67 348h242l-68 -348h326l-40 -209h-326l-134 -686h326l-40 -209h-326l-67 -348h-242l68 348h-326z" />
    <glyph glyph-name="bullet" unicode="&#x2022;" 
d="M430 412q-110 0 -190 79t-80 189t80 189t190 79t190 -79t80 -189t-80 -189t-190 -79z" />
    <glyph glyph-name="onedotenleader" unicode="&#x2024;" horiz-adv-x="614" 
d="M78 127q12 65 64 108.5t116 43.5q57 0 91.5 -33.5t34.5 -87.5q0 -16 -3 -31q-13 -65 -65 -108.5t-116 -43.5q-56 0 -90.5 33.5t-34.5 86.5q0 15 3 32z" />
    <glyph glyph-name="twodotenleader" unicode="&#x2025;" horiz-adv-x="1228" 
d="M78 127q12 65 64 108.5t116 43.5q57 0 91.5 -33.5t34.5 -87.5q0 -16 -3 -31q-13 -65 -65 -108.5t-116 -43.5q-56 0 -90.5 33.5t-34.5 86.5q0 15 3 32zM692 127q12 65 64 108.5t116 43.5q57 0 91.5 -33.5t34.5 -87.5q0 -16 -3 -31q-13 -65 -65 -108.5t-116 -43.5
q-56 0 -90.5 33.5t-34.5 86.5q0 15 3 32z" />
    <glyph glyph-name="ellipsis" unicode="&#x2026;" horiz-adv-x="1843" 
d="M78 127q12 65 64 108.5t116 43.5q57 0 91.5 -33.5t34.5 -87.5q0 -16 -3 -31q-13 -65 -65 -108.5t-116 -43.5q-56 0 -90.5 33.5t-34.5 86.5q0 15 3 32zM692 127q12 65 64 108.5t116 43.5q57 0 91.5 -33.5t34.5 -87.5q0 -16 -3 -31q-13 -65 -65 -108.5t-116 -43.5
q-56 0 -90.5 33.5t-34.5 86.5q0 15 3 32zM1307 127q12 65 64 108.5t116 43.5q57 0 91.5 -33.5t34.5 -87.5q0 -16 -3 -31q-13 -65 -65.5 -108.5t-116.5 -43.5q-56 0 -90 33.5t-34 86.5q0 15 3 32z" />
    <glyph glyph-name="perthousand" unicode="&#x2030;" horiz-adv-x="2656" 
d="M324 0l1017 1434h242l-1016 -1434h-243zM423 1083q-4 -30 -4 -37q0 -57 32.5 -94t86.5 -37q64 0 115.5 49t64.5 119q4 17 4 39q0 57 -32.5 93t-86.5 36q-64 0 -115 -49t-65 -119zM196 1083q30 154 158.5 259.5t286.5 105.5q138 0 224.5 -82.5t86.5 -210.5q0 -37 -7 -72
q-30 -154 -158.5 -259t-286.5 -105q-138 0 -225 82.5t-87 210.5q0 31 8 71zM1190 350q-4 -30 -4 -38q0 -57 32.5 -93.5t86.5 -36.5q64 0 115.5 49t64.5 119q4 17 4 39q0 57 -32.5 93t-86.5 36q-64 0 -115 -49t-65 -119zM963 350q30 154 158.5 259.5t286.5 105.5
q138 0 224.5 -82.5t86.5 -210.5q0 -37 -7 -72q-30 -154 -158.5 -259t-286.5 -105q-138 0 -225 82.5t-87 210.5q0 31 8 71zM2011 350q-4 -30 -4 -38q0 -57 32.5 -93.5t86.5 -36.5q64 0 115.5 49t64.5 119q4 17 4 39q0 57 -32.5 93t-86.5 36q-64 0 -115 -49t-65 -119z
M1784 350q30 154 158.5 259.5t286.5 105.5q138 0 225 -82.5t87 -210.5q0 -32 -8 -72q-30 -154 -158.5 -259t-286.5 -105q-138 0 -224.5 82.5t-86.5 210.5q0 36 7 71z" />
    <glyph glyph-name="minute" unicode="&#x2032;" horiz-adv-x="573" 
d="M188 1053l261 381h234l-285 -381h-210z" />
    <glyph glyph-name="second" unicode="&#x2033;" horiz-adv-x="925" 
d="M188 1053l261 381h234l-285 -381h-210zM541 1053l260 381h234l-284 -381h-210z" />
    <glyph glyph-name="guilsinglleft" unicode="&#x2039;" horiz-adv-x="813" 
d="M116 578l23 122l652 359l-41 -215l-384 -205l304 -205l-42 -215z" />
    <glyph glyph-name="guilsinglright" unicode="&#x203a;" horiz-adv-x="813" 
d="M739 700l-23 -122l-651 -359l41 215l384 205l-304 205l41 215z" />
    <glyph glyph-name="exclamdbl" unicode="&#x203c;" horiz-adv-x="1087" 
d="M176 414l199 1020h241l-198 -1020h-242zM90 127q12 65 64 108.5t116 43.5q57 0 91.5 -33.5t34.5 -87.5q0 -16 -3 -31q-13 -65 -65 -108.5t-116 -43.5q-56 0 -90.5 33.5t-34.5 86.5q0 15 3 32zM625 414l198 1020h242l-199 -1020h-241zM539 127q12 65 64 108.5t116 43.5
q57 0 91.5 -33.5t34.5 -87.5q0 -16 -3 -31q-13 -65 -65.5 -108.5t-116.5 -43.5q-56 0 -90 33.5t-34 86.5q0 15 3 32z" />
    <glyph glyph-name="uni203E" unicode="&#x203e;" horiz-adv-x="860" 
d="M259 1229l35 180h614l-35 -180h-614z" />
    <glyph glyph-name="fraction" unicode="&#x2044;" horiz-adv-x="339" 
d="M-383 0l979 1434h201l-977 -1434h-203z" />
    <glyph glyph-name="zerosuperior" unicode="&#x2070;" 
d="M138 948q44 225 162.5 367.5t289.5 142.5q135 0 203 -91.5t68 -246.5q0 -82 -18 -172q-43 -225 -161.5 -367.5t-289.5 -142.5q-135 0 -203 91.5t-68 247.5q0 78 17 171zM343 948q-18 -93 -18 -166q0 -168 101 -168q74 0 128 89.5t84 244.5q18 93 18 167q0 167 -100 167
q-74 0 -128.5 -89.5t-84.5 -244.5z" />
    <glyph glyph-name="uni2071" unicode="&#x2071;" 
d="M296 463l134 686h201l-134 -686h-201zM441 1317q10 48 52.5 82.5t92.5 34.5q44 0 71.5 -27.5t27.5 -67.5q0 -12 -2 -22q-10 -49 -50.5 -82t-91.5 -33q-45 0 -73.5 27t-28.5 67q0 7 2 21z" />
    <glyph glyph-name="foursuperior" unicode="&#x2074;" 
d="M58 641l32 160l553 633h197l-120 -617h100l-35 -176h-100l-35 -178h-207l35 178h-420zM317 815h195l58 297z" />
    <glyph glyph-name="fivesuperior" unicode="&#x2075;" 
d="M366 438q-105 0 -181.5 46.5t-112.5 133.5l169 115q29 -64 64.5 -95.5t88.5 -31.5q69 0 123.5 47.5t68.5 116.5q3 16 3 34q0 57 -35.5 93.5t-95.5 36.5q-36 0 -72.5 -18.5t-61.5 -47.5l-148 19l166 547h545l-34 -170h-358l-57 -179q42 13 90 13q118 0 195 -68t77 -185
q0 -36 -7 -71q-29 -150 -144.5 -243t-282.5 -93z" />
    <glyph glyph-name="sixsuperior" unicode="&#x2076;" 
d="M809 1434l-280 -332h13q120 0 200.5 -73t80.5 -192q0 -31 -6 -65q-28 -144 -154.5 -239t-268.5 -95q-130 0 -218 75.5t-88 196.5q0 29 6 62q19 97 85 174l413 488h217zM610 772q3 18 3 35q0 56 -35.5 92.5t-91.5 36.5q-63 0 -117.5 -47.5t-67.5 -116.5q-3 -18 -3 -35
q0 -58 35 -94.5t90 -36.5q65 0 119.5 48t67.5 118z" />
    <glyph glyph-name="sevensuperior" unicode="&#x2077;" 
d="M268 1434h639l-29 -150l-500 -821h-232l494 801h-406z" />
    <glyph glyph-name="eightsuperior" unicode="&#x2078;" 
d="M392 438q-132 0 -215.5 72t-83.5 186q0 30 6 60q14 76 67.5 141t129.5 102q-68 58 -68 146q0 22 4 41q22 114 123.5 193t234.5 79q118 0 188 -63t70 -160q0 -22 -5 -49q-11 -55 -49 -104.5t-88 -82.5q107 -64 107 -192q0 -23 -5 -51q-27 -136 -146.5 -227t-269.5 -91z
M483 909q-63 0 -114 -44t-63 -107q-3 -15 -3 -31q0 -53 33.5 -87t88.5 -34q63 0 113.5 44.5t62.5 107.5q3 15 3 30q0 53 -33 87t-88 34zM515 1073q44 0 81 33t45 78q2 14 2 21q0 37 -23.5 61t-62.5 24q-44 0 -80.5 -31t-44.5 -75q-2 -14 -2 -22q0 -38 23.5 -63.5t61.5 -25.5
z" />
    <glyph glyph-name="ninesuperior" unicode="&#x2079;" 
d="M173 463l280 332h-13q-120 0 -200.5 73t-80.5 192q0 30 6 64q28 144 154.5 239t268.5 95q130 0 218 -75t88 -196q0 -30 -6 -63q-19 -97 -85 -174l-413 -487h-217zM372 1124q-3 -18 -3 -34q0 -56 35.5 -92.5t91.5 -36.5q63 0 117.5 47t67.5 116q3 18 3 35q0 58 -35 94.5
t-90 36.5q-65 0 -119.5 -48t-67.5 -118z" />
    <glyph glyph-name="uni207A" unicode="&#x207a;" 
d="M389 625v235h-233v176h233v236h205v-236h233v-176h-233v-235h-205z" />
    <glyph glyph-name="uni207B" unicode="&#x207b;" 
d="M827 860h-671v176h671v-176z" />
    <glyph glyph-name="uni207C" unicode="&#x207c;" 
d="M827 696h-671v176h671v-176zM827 1024h-671v176h671v-176z" />
    <glyph glyph-name="uni207D" unicode="&#x207d;" 
d="M368 948q34 169 128.5 326.5t235.5 279.5l124 -98q-220 -213 -279 -508q-16 -85 -16 -157q0 -203 97 -351l-162 -98q-145 190 -145 442q0 79 17 164z" />
    <glyph glyph-name="uni207E" unicode="&#x207e;" 
d="M613 948q-33 -169 -127.5 -326.5t-235.5 -279.5l-124 98q108 105 179.5 236t98.5 272q17 92 17 160q0 199 -97 348l162 98q144 -189 144 -440q0 -79 -17 -166z" />
    <glyph glyph-name="uni207F" unicode="&#x207f;" 
d="M377 907l-87 -444h-201l134 686h201l-8 -41q68 55 153 55q105 0 166.5 -59.5t61.5 -161.5q0 -35 -7 -70l-80 -409h-201l79 405q3 16 3 32q0 41 -22.5 65t-61.5 24q-75 0 -130 -82z" />
    <glyph glyph-name="zeroinferior" unicode="&#x2080;" 
d="M-3 217q44 225 162.5 367.5t289.5 142.5q135 0 203 -91.5t68 -246.5q0 -77 -19 -172q-43 -225 -161 -367.5t-289 -142.5q-135 0 -203 91.5t-68 247.5q0 78 17 171zM202 217q-19 -98 -19 -166q0 -168 102 -168q74 0 128 89.5t84 244.5q18 93 18 167q0 167 -100 167
q-74 0 -128.5 -89.5t-84.5 -244.5z" />
    <glyph glyph-name="oneinferior" unicode="&#x2081;" 
d="M423 702h176l-189 -970h-207l148 764l-163 -80l-50 151z" />
    <glyph glyph-name="twoinferior" unicode="&#x2082;" 
d="M499 127l-255 -227h348l-33 -168h-620l29 149l391 350q67 60 98.5 105t41.5 94q3 16 3 32q0 44 -27.5 70.5t-74.5 26.5q-52 0 -91.5 -31.5t-79.5 -103.5l-163 69q56 115 150.5 174.5t216.5 59.5q126 0 202.5 -63t76.5 -171q0 -30 -6 -63q-16 -82 -63 -149t-144 -154z" />
    <glyph glyph-name="threeinferior" unicode="&#x2083;" 
d="M437 41q3 16 3 34q0 57 -35.5 93.5t-95.5 36.5q-20 0 -57 -10l-59 96l245 241h-332l34 170h586l-31 -155l-222 -215q83 -23 129 -87.5t46 -152.5q0 -25 -7 -67q-25 -125 -144 -221.5t-278 -96.5q-104 0 -180 47.5t-113 132.5l162 117q64 -129 158 -129q68 0 123 48
t68 118z" />
    <glyph glyph-name="fourinferior" unicode="&#x2084;" 
d="M-84 -90l32 160l553 632h196l-119 -616h100l-35 -176h-100l-35 -178h-207l35 178h-420zM175 84h195l58 297z" />
    <glyph glyph-name="fiveinferior" unicode="&#x2085;" 
d="M223 -293q-105 0 -181.5 46.5t-112.5 133.5l169 115q29 -63 65 -95t89 -32q69 0 123 47t68 117q3 16 3 34q0 57 -35.5 93.5t-95.5 36.5q-36 0 -72.5 -18.5t-61.5 -47.5l-147 19l166 546h544l-33 -170h-359l-56 -178q42 13 90 13q118 0 194.5 -68t76.5 -185q0 -36 -7 -71
q-29 -150 -144.5 -243t-282.5 -93z" />
    <glyph glyph-name="sixinferior" unicode="&#x2086;" 
d="M667 702l-280 -331h12q120 0 201 -73.5t81 -192.5q0 -29 -6 -64q-28 -144 -154.5 -239t-268.5 -95q-130 0 -218 75t-88 196q0 30 6 63q19 97 85 174l413 487h217zM468 41q3 18 3 35q0 56 -35.5 92.5t-91.5 36.5q-63 0 -117.5 -47.5t-67.5 -116.5q-3 -18 -3 -35
q0 -58 35 -94.5t90 -36.5q65 0 119.5 48t67.5 118z" />
    <glyph glyph-name="seveninferior" unicode="&#x2087;" 
d="M126 702h639l-30 -149l-499 -821h-232l494 800h-406z" />
    <glyph glyph-name="eightinferior" unicode="&#x2088;" 
d="M250 -293q-132 0 -215.5 72t-83.5 186q0 30 6 60q14 76 67.5 141t129.5 102q-68 58 -68 146q0 22 4 41q22 114 123 193t234 79q118 0 188.5 -63t70.5 -160q0 -17 -6 -49q-11 -55 -49 -104.5t-88 -82.5q52 -31 80 -81t28 -111q0 -23 -5 -51q-27 -136 -146.5 -227
t-269.5 -91zM341 178q-63 0 -114 -44t-63 -107q-3 -15 -3 -31q0 -53 33.5 -87t88.5 -34q63 0 113.5 44.5t62.5 107.5q3 15 3 30q0 53 -33 87t-88 34zM373 342q44 0 81 33t45 78q2 14 2 21q0 37 -23.5 61t-62.5 24q-44 0 -80.5 -31t-44.5 -75q-2 -14 -2 -22q0 -38 23.5 -63.5
t61.5 -25.5z" />
    <glyph glyph-name="nineinferior" unicode="&#x2089;" 
d="M31 -268l279 331h-12q-120 0 -201 73.5t-81 192.5q0 24 7 64q28 144 154 239t268 95q130 0 218.5 -75t88.5 -196q0 -24 -7 -63q-19 -97 -85 -174l-412 -487h-217zM229 393q-3 -18 -3 -35q0 -56 35.5 -92.5t91.5 -36.5q63 0 118 47.5t68 116.5q3 18 3 35q0 58 -35 94.5
t-90 36.5q-65 0 -120 -48t-68 -118z" />
    <glyph glyph-name="uni208A" unicode="&#x208a;" 
d="M246 -106v235h-234v176h234v236h205v-236h233v-176h-233v-235h-205z" />
    <glyph glyph-name="uni208B" unicode="&#x208b;" 
d="M684 129h-672v176h672v-176z" />
    <glyph glyph-name="uni208C" unicode="&#x208c;" 
d="M684 -35h-672v176h672v-176zM684 293h-672v176h672v-176z" />
    <glyph glyph-name="uni208D" unicode="&#x208d;" 
d="M226 217q34 169 129 326.5t236 279.5l124 -98q-221 -214 -280 -508q-15 -80 -15 -158q0 -202 97 -350l-163 -98q-144 189 -144 442q0 84 16 164z" />
    <glyph glyph-name="uni208E" unicode="&#x208e;" 
d="M472 217q-33 -169 -127.5 -326.5t-235.5 -279.5l-124 98q108 105 179.5 236t98.5 272q17 92 17 160q0 197 -98 348l163 98q143 -188 143 -440q0 -85 -16 -166z" />
    <glyph glyph-name="uni2090" unicode="&#x2090;" 
d="M430 -29l37 189q-11 40 -43 65t-77 25q-68 0 -123 -52.5t-70 -131.5q-4 -20 -4 -46q0 -63 34 -101t91 -38q45 0 86.5 24.5t68.5 65.5zM382 -279l9 52q-77 -66 -172 -66q-124 0 -200 78.5t-76 202.5q0 35 8 78q29 152 145.5 255t261.5 103q93 0 148 -66l9 52h203
l-133 -689h-203z" />
    <glyph glyph-name="uni2091" unicode="&#x2091;" 
d="M653 0h-495q6 -56 43 -91.5t93 -35.5q46 0 101 26.5t101 69.5l100 -125q-145 -137 -332 -137q-141 0 -222.5 80.5t-81.5 205.5q0 38 7 73q29 152 152.5 255t275.5 103q131 0 208.5 -77.5t77.5 -198.5q0 -26 -7 -70q-4 -26 -21 -78zM362 258q-50 0 -94 -27t-73 -73h287
q-7 46 -38.5 73t-81.5 27z" />
    <glyph glyph-name="uni2092" unicode="&#x2092;" 
d="M284 -119q67 0 124 54t71 131q4 19 4 40q0 63 -35 103.5t-93 40.5q-67 0 -124 -53.5t-71 -130.5q-4 -19 -4 -41q0 -63 35 -103.5t93 -40.5zM389 424q136 0 218 -80.5t82 -205.5q0 -37 -7 -72q-29 -152 -152.5 -255.5t-279.5 -103.5q-136 0 -218 80.5t-82 205.5q0 38 7 73
q29 152 152.5 255t279.5 103z" />
    <glyph glyph-name="uni2093" unicode="&#x2093;" 
d="M275 410l74 -179l146 179h225l-282 -334l163 -355h-221l-88 203l-164 -203h-225l300 357l-151 332h223z" />
    <glyph glyph-name="uni2094" unicode="&#x2094;" 
d="M-14 131h495q-6 56 -43 91.5t-93 35.5q-46 0 -101 -26.5t-101 -69.5l-100 125q145 137 332 137q141 0 222.5 -80.5t81.5 -205.5q0 -37 -7 -72q-29 -152 -152.5 -255.5t-275.5 -103.5q-131 0 -208.5 77.5t-77.5 198.5q0 26 7 70q4 26 21 78zM276 -127q50 0 94.5 27
t73.5 73h-287q7 -46 38 -73t81 -27z" />
    <glyph glyph-name="uni20A0" unicode="&#x20a0;" horiz-adv-x="1611" 
d="M727 0l93 480q-116 -48 -236 -48q-197 0 -319.5 116t-122.5 296q0 45 11 100q42 217 223 365.5t406 148.5q191 0 332 -129l-143 -170q-64 49 -115.5 73.5t-112.5 24.5q-126 0 -230.5 -90t-130.5 -223q-6 -34 -6 -64q0 -108 69 -177.5t178 -69.5q120 0 240 69l57 291h636
l-37 -196h-410l-39 -199h377l-38 -197h-377l-40 -204h422l-38 -197h-649z" />
    <glyph glyph-name="colonmonetary" unicode="&#x20a1;" horiz-adv-x="1415" 
d="M1363 1642l-84 -226q109 -41 198 -118l-157 -182q-64 50 -122 80l-374 -1006q175 14 354 138l91 -181q-239 -169 -525 -172l-68 -184h-156l73 198q-65 13 -101 25l-82 -223h-156l106 288q-122 79 -189 206.5t-67 284.5q0 72 15 147q53 272 261.5 473.5t485.5 252.5
l75 199h156l-69 -184q48 0 109 -7l70 191h156zM365 717q-12 -65 -12 -110q0 -163 101 -280l325 879q-155 -59 -268 -190.5t-146 -298.5zM573 233q49 -23 98 -33l387 1040q-40 5 -73 5q-25 0 -36 -1z" />
    <glyph glyph-name="uni20A2" unicode="&#x20a2;" horiz-adv-x="1415" 
d="M1178 328l91 -181q-243 -172 -531 -172q-187 0 -332 77t-223.5 212t-78.5 306q0 72 15 147q40 206 173 376t327 267.5t407 97.5q269 0 451 -160l-157 -182q-83 64 -159 96.5t-176 32.5q-218 0 -397.5 -152.5t-222.5 -375.5q-12 -65 -12 -110q0 -142 73.5 -247.5
t200.5 -147.5l124 638h213l-17 -82q91 96 188 96q52 0 97 -24l-53 -181q-65 25 -90 25q-44 0 -93 -30.5t-87 -80.5l-73 -382q171 19 342 137z" />
    <glyph glyph-name="franc" unicode="&#x20a3;" horiz-adv-x="1128" 
d="M799 475h-332l-92 -475h-242l92 475h-184l26 133h184l18 94h-184l26 134h184l117 598h852l-41 -209h-611l-75 -389h331l-25 -134h-332l-18 -94h331z" />
    <glyph glyph-name="lira" unicode="&#x20a4;" horiz-adv-x="1187" 
d="M301 465h-231l25 133h230v24q0 50 -2 70h-209l25 133h155q-13 62 -13 119q0 52 10 103q34 174 184.5 292.5t339.5 118.5q148 0 244 -73.5t120 -184.5l-226 -108q-29 153 -179 153q-86 0 -153 -56t-84 -142q-6 -34 -6 -57q0 -60 23 -165h343l-26 -133h-299v-28
q0 -48 -1 -66h282l-26 -133h-279q-47 -149 -183 -252h649l-41 -213h-926l40 209q160 95 214 256z" />
    <glyph glyph-name="uni20A6" unicode="&#x20a6;" horiz-adv-x="1503" 
d="M1455 547h-143l-106 -547h-229l-234 547h-316l-105 -547h-230l106 547h-144l25 123h143l19 94h-144l24 123h143l107 547h229l233 -547h316l106 547h230l-107 -547h144l-24 -123h-143l-19 -94h144zM470 764l-18 -94h239l-40 94h-181zM885 764l40 -94h182l18 94h-240z
M977 547l73 -170l32 170h-105zM526 1057l-32 -170h105z" />
    <glyph glyph-name="peseta" unicode="&#x20a7;" horiz-adv-x="2455" 
d="M1505 201h429q71 0 118 32t58 89q3 15 3 24q0 42 -35.5 70.5t-112.5 47.5q-264 64 -264 262q0 28 7 67q24 127 135.5 209.5t269.5 82.5q99 0 179.5 -39.5t130.5 -104.5l-151 -166q-51 55 -92.5 82.5t-90.5 27.5q-58 0 -99.5 -26t-50.5 -71q-2 -8 -2 -22q0 -85 137 -118
q141 -33 208.5 -97t67.5 -163q0 -36 -7 -71q-27 -137 -144.5 -227t-287.5 -90h-463q-161 0 -237.5 60t-76.5 189q0 57 13 122l94 485h-151q-63 -157 -196.5 -246.5t-313.5 -89.5h-179l-100 -520h-240l279 1434h418q182 0 280.5 -91.5t98.5 -252.5q0 -20 -1 -29h145l55 286
l237 22l-60 -308h232l-40 -205h-231l-95 -483q-7 -42 -7 -64q0 -57 31.5 -82.5t101.5 -25.5zM882 977q7 36 7 72q0 84 -46 130t-135 46h-169l-97 -496h169q107 0 177.5 66t93.5 182z" />
    <glyph glyph-name="uni20A8" unicode="&#x20a8;" horiz-adv-x="1998" 
d="M340 1434h465q191 0 295 -93.5t104 -255.5q0 -48 -11 -108q-33 -170 -141.5 -285.5t-270.5 -153.5l249 -538h-263l-240 520h-124l-100 -520h-242zM1062 152l162 161q38 -62 99 -99.5t134 -37.5q77 0 129 34t63 93q3 12 3 25q0 87 -162 125q-276 63 -276 266q0 29 8 67
q25 131 139.5 215t278.5 84q103 0 186.5 -39.5t138.5 -104.5l-154 -162q-52 53 -96 79.5t-97 26.5q-63 0 -108.5 -28t-54.5 -75q-2 -10 -2 -22q0 -90 148 -123t218 -97.5t70 -167.5q0 -37 -7 -73q-28 -142 -148.5 -233t-299.5 -91q-125 0 -222.5 47t-149.5 130zM755 1225
h-214l-97 -496h214q117 0 191.5 66t97.5 182q7 34 7 67q0 86 -50.5 133.5t-148.5 47.5z" />
    <glyph glyph-name="uni20A9" unicode="&#x20a9;" horiz-adv-x="2048" 
d="M2011 551h-271l-263 -551h-234l-51 551h-328l-264 -551h-233l-52 551h-270l24 123h235l-8 94h-209l25 123h174l-48 543h249l35 -543h302l261 543h230l49 -543h303l246 543h250l-260 -543h175l-25 -123h-210l-45 -94h237zM969 768l-46 -94h257l-9 94h-202zM1374 768l8 -94
h186l43 94h-237zM529 768l7 -94h184l45 94h-236zM1140 1122l-112 -231h132zM1394 551l20 -217l98 217h-118zM544 551l14 -217l104 217h-118z" />
    <glyph glyph-name="afii57636" unicode="&#x20aa;" horiz-adv-x="1789" 
d="M61 0l279 1434h541q191 0 309.5 -109t118.5 -279q0 -39 -10 -92l-81 -417h-242l82 417q6 30 6 59q0 95 -60.5 153.5t-163.5 58.5h-299l-238 -1225h-242zM1802 1434l-278 -1434h-545q-191 0 -310 109t-119 279q0 44 9 91l82 418h242l-82 -418q-6 -30 -6 -58
q0 -95 60.5 -153.5t163.5 -58.5h303l239 1225h241z" />
    <glyph glyph-name="dong" unicode="&#x20ab;" horiz-adv-x="1363" 
d="M765 1188l31 155h329l29 152h234l-29 -152h143l-31 -155h-143l-230 -1188h-234l22 115q-168 -140 -379 -140q-202 0 -324.5 126t-122.5 318q0 46 12 111q29 150 123 276.5t234 202.5t294 76q213 0 325 -139l47 242h-330zM588 184q102 0 196 52t153 139l59 309
q-25 87 -98.5 140t-174.5 53q-146 0 -265.5 -100.5t-148.5 -246.5q-7 -34 -7 -69q0 -121 79.5 -199t206.5 -78zM198 -348l35 180h738l-36 -180h-737z" />
    <glyph glyph-name="Euro" unicode="&#x20ac;" horiz-adv-x="1476" 
d="M1000 516h-577q30 -149 142.5 -238.5t275.5 -89.5q195 0 398 140l91 -181q-243 -172 -530 -172q-267 0 -440 150.5t-193 390.5h-150l28 137h125q4 36 10 64q2 13 7.5 34.5t7.5 28.5h-125l26 138h150q112 240 343 390t498 150q269 0 451 -160l-157 -182
q-83 64 -158.5 96.5t-175.5 32.5q-163 0 -310.5 -89.5t-234.5 -237.5h577l-26 -138h-612q-11 -39 -15 -63q-7 -33 -9 -64h611z" />
    <glyph glyph-name="afii61248" unicode="&#x2105;" horiz-adv-x="2147" 
d="M554 591q-197 0 -329.5 125.5t-132.5 307.5q0 183 132.5 308.5t329.5 125.5q177 0 319 -116l-113 -171q-120 96 -206 96q-100 0 -168.5 -70.5t-68.5 -172.5q0 -101 68.5 -171.5t168.5 -70.5t207 100l129 -160q-144 -131 -336 -131zM1635 167q99 0 167.5 70.5t68.5 171.5
q0 102 -68.5 172t-167.5 70q-100 0 -168 -70t-68 -172q0 -101 68 -171.5t168 -70.5zM1635 843q197 0 329 -125.5t132 -308.5q0 -182 -132 -308t-329 -126t-329 126t-132 308q0 183 132 308.5t329 125.5zM600 0l700 1434h222l-699 -1434h-223z" />
    <glyph glyph-name="uni2109" unicode="&#x2109;" horiz-adv-x="1652" 
d="M231 1182q0 -50 33 -83.5t84 -33.5t84 33.5t33 83.5t-33 83t-84 33t-84 -33t-33 -83zM61 1182q0 117 82.5 196.5t204.5 79.5t204.5 -79.5t82.5 -196.5t-83 -197t-204 -80t-204 80t-83 197zM739 0v1434h852v-209h-610v-400h561v-209h-561v-616h-242z" />
    <glyph glyph-name="afii61289" unicode="&#x2113;" horiz-adv-x="1161" 
d="M92 459q148 57 225 89v550q0 153 112.5 256.5t275.5 103.5t275 -103.5t112 -256.5v-58q0 -339 -533 -610v-80q0 -72 42.5 -119t105.5 -47q64 0 115 41t83 111l195 -117q-55 -111 -158.5 -177.5t-234.5 -66.5q-162 0 -274.5 100.5t-115.5 246.5q-109 -43 -159 -60z
M559 1079v-412q148 87 219.5 181t71.5 213v18q0 75 -41 122.5t-104 47.5t-104.5 -47.5t-41.5 -122.5z" />
    <glyph glyph-name="afii61352" unicode="&#x2116;" horiz-adv-x="2272" 
d="M184 0v1434h232l524 -975v975h232v-1434h-231l-524 975v-975h-233zM2139 332h-799v200h799v-200zM1320 1067q0 164 121.5 277.5t298.5 113.5t298.5 -113.5t121.5 -277.5t-121.5 -277.5t-298.5 -113.5t-298.5 113.5t-121.5 277.5zM1549 1067q0 -82 54.5 -136t136.5 -54
t136 54t54 136t-54 136t-136 54t-136.5 -54t-54.5 -136z" />
    <glyph glyph-name="uni2117" unicode="&#x2117;" horiz-adv-x="1646" 
d="M903 586h-135v-264h-176v788h311q124 0 206.5 -74.5t82.5 -187.5t-82.5 -187.5t-206.5 -74.5zM1014 848q0 43 -33 70.5t-84 27.5h-129v-196h129q51 0 84 27.5t33 70.5zM102 717q0 153 58 290t157 236t236.5 157t290.5 58t290 -58t236 -157t157 -236t58 -290t-58 -290.5
t-157 -236.5t-236 -157t-290 -58t-290.5 58t-236.5 157t-157 236.5t-58 290.5zM238 717q0 -169 80.5 -310.5t220 -223t305.5 -81.5t305.5 81.5t220 223t80.5 310.5t-80.5 310.5t-220 222.5t-305.5 81t-305.5 -81t-220 -222.5t-80.5 -310.5z" />
    <glyph glyph-name="uni2120" unicode="&#x2120;" horiz-adv-x="1617" 
d="M92 799l111 121q46 -49 94.5 -79t87.5 -30q47 0 77 22t30 60q0 74 -134 102q-122 25 -183.5 84.5t-61.5 147.5q0 98 73.5 158.5t190.5 60.5q161 0 266 -111l-102 -125q-99 88 -160 88q-36 0 -60 -17t-24 -46q0 -70 125 -98q136 -31 195 -90.5t59 -153.5q0 -103 -78 -166
t-211 -63q-83 0 -161 36t-134 99zM1186 895h-113l-153 238v-457h-179v758h164l223 -342l224 342h164v-758h-179v452z" />
    <glyph glyph-name="uni2121" unicode="&#x2121;" horiz-adv-x="2242" 
d="M1765 455h-699q15 -122 86.5 -200.5t168.5 -78.5q125 0 243 151l162 -144q-146 -208 -399 -208q-144 0 -257 74.5t-173.5 200.5t-60.5 280q0 153 61.5 280t171.5 201t244 74q133 0 239 -72.5t164 -194t58 -267.5q0 -55 -9 -96zM451 0v1225h-369v209h971v-209h-369v-1225
h-233zM1876 0v1495h223v-1495h-223zM1313 885q-82 0 -148.5 -66.5t-90.5 -171.5h464q-21 105 -82 171.5t-143 66.5z" />
    <glyph glyph-name="trademark" unicode="&#x2122;" horiz-adv-x="1593" 
d="M274 676v612h-192v146h567v-146h-192v-612h-183zM1161 895h-112l-154 238v-457h-178v758h164l223 -342l223 342h164v-758h-178v452z" />
    <glyph glyph-name="Omega" unicode="&#x2126;" horiz-adv-x="1642" 
d="M1245 213h309v-213h-593v205q167 84 265.5 231t98.5 318q0 206 -140.5 348.5t-342.5 142.5q-100 0 -189.5 -38.5t-154 -104t-102.5 -156.5t-38 -192q0 -170 99 -317.5t266 -231.5v-205h-594v213h309q-157 102 -241 245t-84 316q0 141 56.5 267.5t153.5 218t232.5 145
t286.5 53.5t286.5 -53.5t232.5 -145t153.5 -218t56.5 -267.5q0 -173 -84.5 -315.5t-241.5 -245.5z" />
    <glyph glyph-name="estimated" unicode="&#x212e;" horiz-adv-x="1646" 
d="M1585 654h-1165v-380q84 -81 193 -126.5t231 -45.5q152 0 281.5 68.5t213.5 188.5l109 -75q-104 -147 -263.5 -228t-340.5 -81q-153 0 -290.5 58t-236.5 157t-157 236.5t-58 290.5t58 290t157 236t236.5 157t290.5 58t290 -58t236 -157t157 -236t58 -290v-63zM844 1331
q-123 0 -232 -45.5t-192 -127.5v-379h848v379q-83 82 -192 127.5t-232 45.5z" />
    <glyph glyph-name="onethird" unicode="&#x2153;" horiz-adv-x="1976" 
d="M436 0l979 1434h201l-977 -1434h-203zM565 1434h176l-189 -971h-207l149 764l-163 -80l-50 151zM1648 309q3 17 3 34q0 57 -35.5 93.5t-95.5 36.5q-21 0 -58 -10l-59 96l246 242h-332l34 170h585l-30 -156l-223 -215q83 -23 129.5 -87.5t46.5 -152.5q0 -19 -8 -67
q-25 -125 -143.5 -221.5t-277.5 -96.5q-104 0 -180 48t-113 133l161 116q64 -129 158 -129q69 0 124 48.5t68 117.5z" />
    <glyph glyph-name="twothirds" unicode="&#x2154;" horiz-adv-x="1976" 
d="M641 858l-255 -227h348l-33 -168h-620l30 149l391 351q67 60 98 104.5t41 93.5q3 17 3 32q0 45 -27 71t-74 26q-52 0 -91.5 -31.5t-79.5 -103.5l-164 69q56 115 150.5 174.5t216.5 59.5q126 0 202.5 -63t76.5 -171q0 -30 -6 -63q-16 -82 -63 -149t-144 -154zM436 0
l979 1434h201l-977 -1434h-203zM1648 309q3 17 3 34q0 57 -35.5 93.5t-95.5 36.5q-21 0 -58 -10l-59 96l246 242h-332l34 170h585l-30 -156l-223 -215q83 -23 129.5 -87.5t46.5 -152.5q0 -19 -8 -67q-25 -125 -143.5 -221.5t-277.5 -96.5q-104 0 -180 48t-113 133l161 116
q64 -129 158 -129q69 0 124 48.5t68 117.5z" />
    <glyph glyph-name="onefifth" unicode="&#x2155;" horiz-adv-x="1976" 
d="M1432 -27q-105 0 -181.5 47t-112.5 134l169 114q29 -64 64.5 -95.5t88.5 -31.5q69 0 123.5 47.5t68.5 116.5q3 17 3 34q0 57 -35.5 93.5t-95.5 36.5q-36 0 -72.5 -18.5t-61.5 -47.5l-148 19l166 547h545l-34 -170h-358l-57 -178q39 12 90 12q118 0 195 -68t77 -185
q0 -36 -7 -71q-29 -150 -144.5 -243t-282.5 -93zM565 1434h176l-189 -971h-207l149 764l-163 -80l-50 151zM436 0l979 1434h201l-977 -1434h-203z" />
    <glyph glyph-name="twofifths" unicode="&#x2156;" horiz-adv-x="1976" 
d="M641 858l-255 -227h348l-33 -168h-620l30 149l391 351q67 60 98 104.5t41 93.5q3 17 3 32q0 45 -27 71t-74 26q-52 0 -91.5 -31.5t-79.5 -103.5l-164 69q56 115 150.5 174.5t216.5 59.5q126 0 202.5 -63t76.5 -171q0 -30 -6 -63q-16 -82 -63 -149t-144 -154zM436 0
l979 1434h201l-977 -1434h-203zM1432 -27q-105 0 -181.5 47t-112.5 134l169 114q29 -64 64.5 -95.5t88.5 -31.5q69 0 123.5 47.5t68.5 116.5q3 17 3 34q0 57 -35.5 93.5t-95.5 36.5q-36 0 -72.5 -18.5t-61.5 -47.5l-148 19l166 547h545l-34 -170h-358l-57 -178q39 12 90 12
q118 0 195 -68t77 -185q0 -36 -7 -71q-29 -150 -144.5 -243t-282.5 -93z" />
    <glyph glyph-name="threefifths" unicode="&#x2157;" horiz-adv-x="1976" 
d="M580 772q3 16 3 34q0 57 -35.5 93.5t-95.5 36.5q-21 0 -58 -10l-59 96l246 242h-332l34 170h585l-30 -156l-223 -215q83 -23 129.5 -87.5t46.5 -152.5q0 -19 -8 -67q-25 -125 -144 -221.5t-278 -96.5q-104 0 -179.5 47.5t-112.5 132.5l161 117q64 -129 158 -129
q69 0 124 48.5t68 117.5zM436 0l979 1434h201l-977 -1434h-203zM1432 -27q-105 0 -181.5 47t-112.5 134l169 114q29 -64 64.5 -95.5t88.5 -31.5q69 0 123.5 47.5t68.5 116.5q3 17 3 34q0 57 -35.5 93.5t-95.5 36.5q-36 0 -72.5 -18.5t-61.5 -47.5l-148 19l166 547h545
l-34 -170h-358l-57 -178q39 12 90 12q118 0 195 -68t77 -185q0 -36 -7 -71q-29 -150 -144.5 -243t-282.5 -93z" />
    <glyph glyph-name="fourfifths" unicode="&#x2158;" horiz-adv-x="1976" 
d="M58 641l32 160l553 633h197l-120 -617h100l-35 -176h-100l-35 -178h-207l35 178h-420zM317 815h195l58 297zM436 0l979 1434h201l-977 -1434h-203zM1432 -27q-105 0 -181.5 47t-112.5 134l169 114q29 -64 64.5 -95.5t88.5 -31.5q69 0 123.5 47.5t68.5 116.5q3 17 3 34
q0 57 -35.5 93.5t-95.5 36.5q-36 0 -72.5 -18.5t-61.5 -47.5l-148 19l166 547h545l-34 -170h-358l-57 -178q39 12 90 12q118 0 195 -68t77 -185q0 -36 -7 -71q-29 -150 -144.5 -243t-282.5 -93z" />
    <glyph glyph-name="onesixth" unicode="&#x2159;" horiz-adv-x="1976" 
d="M1876 971l-280 -332h13q120 0 200.5 -73t80.5 -192q0 -30 -6 -65q-28 -144 -154.5 -239t-268.5 -95q-130 0 -218 75.5t-88 196.5q0 29 6 62q19 97 85 174l413 488h217zM1677 309q3 18 3 35q0 56 -35.5 92.5t-91.5 36.5q-63 0 -117.5 -47.5t-67.5 -116.5q-3 -18 -3 -35
q0 -58 35 -94.5t90 -36.5q65 0 119.5 48t67.5 118zM565 1434h176l-189 -971h-207l149 764l-163 -80l-50 151zM436 0l979 1434h201l-977 -1434h-203z" />
    <glyph glyph-name="fivesixths" unicode="&#x215a;" horiz-adv-x="1976" 
d="M366 438q-105 0 -181.5 46.5t-112.5 133.5l169 115q29 -64 64.5 -95.5t88.5 -31.5q69 0 123.5 47.5t68.5 116.5q3 16 3 34q0 57 -35.5 93.5t-95.5 36.5q-36 0 -72.5 -18.5t-61.5 -47.5l-148 19l166 547h545l-34 -170h-358l-57 -179q42 13 90 13q118 0 195 -68t77 -185
q0 -36 -7 -71q-29 -150 -144.5 -243t-282.5 -93zM436 0l979 1434h201l-977 -1434h-203zM1876 971l-280 -332h13q120 0 200.5 -73t80.5 -192q0 -30 -6 -65q-28 -144 -154.5 -239t-268.5 -95q-130 0 -218 75.5t-88 196.5q0 29 6 62q19 97 85 174l413 488h217zM1677 309
q3 18 3 35q0 56 -35.5 92.5t-91.5 36.5q-63 0 -117.5 -47.5t-67.5 -116.5q-3 -18 -3 -35q0 -58 35 -94.5t90 -36.5q65 0 119.5 48t67.5 118z" />
    <glyph glyph-name="oneeighth" unicode="&#x215b;" horiz-adv-x="1976" 
d="M1459 -27q-132 0 -215.5 72t-83.5 186q0 30 6 60q14 76 67.5 141.5t129.5 102.5q-68 58 -68 145q0 22 4 41q22 114 123.5 193t234.5 79q118 0 188 -63t70 -160q0 -22 -5 -49q-11 -54 -49 -103.5t-88 -82.5q51 -31 79 -81.5t28 -111.5q0 -23 -5 -51q-27 -136 -146.5 -227
t-269.5 -91zM1550 444q-63 0 -114 -44t-63 -107q-3 -15 -3 -31q0 -53 33.5 -87t88.5 -34q63 0 113.5 44.5t62.5 107.5q3 15 3 31q0 53 -33 86.5t-88 33.5zM1582 608q44 0 81 33t45 78q2 14 2 21q0 37 -23.5 61t-62.5 24q-44 0 -80.5 -31t-44.5 -75q-2 -14 -2 -22
q0 -38 23.5 -63.5t61.5 -25.5zM565 1434h176l-189 -971h-207l149 764l-163 -80l-50 151zM436 0l979 1434h201l-977 -1434h-203z" />
    <glyph glyph-name="threeeighths" unicode="&#x215c;" horiz-adv-x="1976" 
d="M580 772q3 16 3 34q0 57 -35.5 93.5t-95.5 36.5q-21 0 -58 -10l-59 96l246 242h-332l34 170h585l-30 -156l-223 -215q83 -23 129.5 -87.5t46.5 -152.5q0 -19 -8 -67q-25 -125 -144 -221.5t-278 -96.5q-104 0 -179.5 47.5t-112.5 132.5l161 117q64 -129 158 -129
q69 0 124 48.5t68 117.5zM436 0l979 1434h201l-977 -1434h-203zM1459 -27q-132 0 -215.5 72t-83.5 186q0 30 6 60q14 76 67.5 141.5t129.5 102.5q-68 58 -68 145q0 22 4 41q22 114 123.5 193t234.5 79q118 0 188 -63t70 -160q0 -22 -5 -49q-11 -54 -49 -103.5t-88 -82.5
q51 -31 79 -81.5t28 -111.5q0 -23 -5 -51q-27 -136 -146.5 -227t-269.5 -91zM1550 444q-63 0 -114 -44t-63 -107q-3 -15 -3 -31q0 -53 33.5 -87t88.5 -34q63 0 113.5 44.5t62.5 107.5q3 15 3 31q0 53 -33 86.5t-88 33.5zM1582 608q44 0 81 33t45 78q2 14 2 21q0 37 -23.5 61
t-62.5 24q-44 0 -80.5 -31t-44.5 -75q-2 -14 -2 -22q0 -38 23.5 -63.5t61.5 -25.5z" />
    </font>
</defs>
</svg>
