<?xml version="1.0" standalone="no"?>
<!DOCTYPE svg PUBLIC "-//W3C//DTD SVG 1.1//EN" "http://www.w3.org/Graphics/SVG/1.1/DTD/svg11.dtd" >
<svg xmlns="http://www.w3.org/2000/svg" xmlns:xlink="http://www.w3.org/1999/xlink" version="1.1">
<metadata>
Created by FontForge 20170731 at Wed Nov 17 17:19:41 2021
 By Aleksey,,,
Copyright (c) 2016 by S-Core Co., Ltd.. All rights reserved.
</metadata>
<defs>
<font id="CoreSansC-95Black" horiz-adv-x="839" >
  <font-face 
    font-family="Core Sans C 95 Black"
    font-weight="900"
    font-stretch="normal"
    units-per-em="2048"
    panose-1="2 11 6 3 3 3 2 2 2 4"
    ascent="1638"
    descent="-410"
    x-height="1061"
    cap-height="1434"
    bbox="-911 -532 2578 1997"
    underline-thickness="49"
    underline-position="-472"
    unicode-range="U+0009-FB04"
  />
<missing-glyph horiz-adv-x="1024" 
d="M942 0h-860v1536h860v-1536zM420 319h184v898h-184v-898z" />
    <glyph glyph-name="ff" unicode="ff" horiz-adv-x="1628" 
d="M1587 1479v-295q-39 8 -102 8q-38 0 -61 -20.5t-23 -53.5v-57h186v-365h-186v-696h-426v696h-377v-696h-426v696h-131v365h131v65q0 166 130 267.5t343 101.5q121 0 219 -35l-37 -288q-82 20 -135 20q-45 0 -69.5 -20.5t-24.5 -53.5v-57h377v65q0 165 128.5 267
t334.5 102q83 0 149 -16z" />
    <glyph glyph-name="fi" unicode="fi" horiz-adv-x="1507" 
d="M598 1061h803v-1061h-426v696h-377v-696h-426v696h-131v365h131v65q0 166 130 267.5t343 101.5q105 0 180 -16v-295q-52 8 -133 8q-45 0 -69.5 -20.5t-24.5 -53.5v-57zM956 1327q0 91 67 152t165 61t164.5 -61t66.5 -152t-66.5 -152t-164.5 -61t-165 61t-67 152z" />
    <glyph glyph-name="fl" unicode="fl" horiz-adv-x="1464" 
d="M784 1479v-295q-39 8 -102 8q-38 0 -61 -20.5t-23 -53.5v-57h186v-365h-186v-696h-426v696h-131v365h131v65q0 165 128.5 267t334.5 102q83 0 149 -16zM932 0v1495h426v-1495h-426z" />
    <glyph glyph-name="ffi" unicode="ffi" horiz-adv-x="2310" 
d="M172 1061v65q0 166 130 267.5t343 101.5q121 0 219 -35l-37 -288q-82 20 -135 20q-45 0 -69.5 -20.5t-24.5 -53.5v-57h377v65q0 166 130 267.5t343 101.5q105 0 180 -16v-295q-52 8 -133 8q-45 0 -69.5 -20.5t-24.5 -53.5v-57h803v-1061h-426v696h-377v-696h-426v696
h-377v-696h-426v696h-131v365h131zM1759 1327q0 91 67 152t165 61t164.5 -61t66.5 -152t-66.5 -152t-164.5 -61t-165 61t-67 152z" />
    <glyph glyph-name="ffl" unicode="ffl" horiz-adv-x="2267" 
d="M1735 0v1495h426v-1495h-426zM1587 1479v-295q-39 8 -102 8q-38 0 -61 -20.5t-23 -53.5v-57h186v-365h-186v-696h-426v696h-377v-696h-426v696h-131v365h131v65q0 166 130 267.5t343 101.5q121 0 219 -35l-37 -288q-82 20 -135 20q-45 0 -69.5 -20.5t-24.5 -53.5v-57h377
v65q0 165 128.5 267t334.5 102q83 0 149 -16z" />
    <glyph glyph-name=".notdef" horiz-adv-x="1024" 
d="M942 0h-860v1536h860v-1536zM420 319h184v898h-184v-898z" />
    <glyph glyph-name=".null" horiz-adv-x="0" 
 />
    <glyph glyph-name=".null" horiz-adv-x="0" 
 />
    <glyph glyph-name="nonmarkingreturn" horiz-adv-x="682" 
 />
    <glyph glyph-name="CR" unicode="&#x9;" horiz-adv-x="0" 
 />
    <glyph glyph-name="space" unicode=" " horiz-adv-x="626" 
 />
    <glyph glyph-name="exclam" unicode="!" horiz-adv-x="651" 
d="M106 475v959h439v-959h-439zM72 199q0 94 73 158.5t181 64.5t181 -64.5t73 -158.5t-73 -159t-181 -65t-181 65t-73 159z" />
    <glyph glyph-name="quotedbl" unicode="&#x22;" horiz-adv-x="1026" 
d="M78 854v580h397v-580h-397zM551 854v580h397v-580h-397z" />
    <glyph glyph-name="numbersign" unicode="#" horiz-adv-x="1441" 
d="M1309 1434l-47 -275h124v-317h-179l-45 -258h149v-318h-203l-45 -266h-391l45 266h-146l-45 -266h-391l45 266h-125v318h179l46 258h-149v317h203l47 275h391l-47 -275h145l48 275h391zM671 842l-45 -258h145l45 258h-145z" />
    <glyph glyph-name="dollar" unicode="$" horiz-adv-x="1241" 
d="M72 203l213 291q76 -75 169.5 -118.5t184.5 -43.5q47 0 79 25.5t32 62.5q0 46 -47 80t-177 63q-190 42 -307 154.5t-117 279.5q0 146 83 259.5t223 165.5v220h417v-215q165 -48 289 -151l-201 -299q-160 133 -284 133q-38 0 -63 -22.5t-25 -53.5q0 -39 39.5 -70.5
t150.5 -56.5q214 -49 335.5 -164.5t121.5 -289.5q0 -154 -91 -274t-251 -172v-216h-418v208q-210 52 -356 204z" />
    <glyph glyph-name="percent" unicode="%" horiz-adv-x="1902" 
d="M440 0l740 1434h282l-737 -1434h-285zM1337 360q0 -37 25 -60.5t63 -23.5t63 23.5t25 60.5t-25 60.5t-63 23.5t-63 -23.5t-25 -60.5zM1030 360q0 158 113.5 266.5t281.5 108.5t282 -109t114 -266t-114 -265.5t-282 -108.5t-281.5 108.5t-113.5 265.5zM389 1073
q0 -37 25 -60.5t63 -23.5t63 23.5t25 60.5t-25 60.5t-63 23.5t-63 -23.5t-25 -60.5zM82 1073q0 158 113.5 266.5t281.5 108.5t281.5 -108.5t113.5 -266.5t-113.5 -266.5t-281.5 -108.5t-281.5 108.5t-113.5 266.5z" />
    <glyph glyph-name="ampersand" unicode="&#x26;" horiz-adv-x="1546" 
d="M1112 1167l-358 -159q-36 80 -57.5 107.5t-51.5 27.5q-24 0 -38.5 -14.5t-14.5 -38.5q0 -82 153 -238l226 -228q25 77 41 162l381 -53q-34 -225 -138 -398l332 -335h-491l-82 83q-171 -108 -387 -108q-152 0 -276 51t-194.5 141.5t-70.5 201.5q0 252 238 419
q-76 89 -106 156.5t-30 140.5q0 157 130.5 265t324.5 108q163 0 285 -77t184 -214zM627 291q79 0 143 39l-209 212q-67 -67 -67 -147q0 -45 37 -74.5t96 -29.5z" />
    <glyph glyph-name="quotesingle" unicode="'" horiz-adv-x="593" 
d="M78 854v580h438v-580h-438z" />
    <glyph glyph-name="parenleft" unicode="(" horiz-adv-x="921" 
d="M180 625q0 277 109.5 531t300.5 431l289 -186q-126 -156 -193.5 -355.5t-67.5 -420.5t67.5 -421.5t193.5 -355.5l-289 -186q-191 176 -300.5 431t-109.5 532z" />
    <glyph glyph-name="parenright" unicode=")" horiz-adv-x="921" 
d="M741 625q0 -277 -109 -532t-300 -431l-289 186q126 155 193 355.5t67 421.5t-67 421t-193 355l289 186q191 -176 300 -430.5t109 -531.5z" />
    <glyph glyph-name="asterisk" unicode="*" horiz-adv-x="1171" 
d="M874 680l216 -82l-172 -311l-185 137l33 -227h-360l32 227l-184 -137l-172 311l215 82l-215 82l172 311l184 -137l-32 227h360l-33 -227l185 137l172 -311z" />
    <glyph glyph-name="plus" unicode="+" horiz-adv-x="1212" 
d="M399 195v297h-284v376h284v297h414v-297h285v-376h-285v-297h-414z" />
    <glyph glyph-name="comma" unicode="," horiz-adv-x="626" 
d="M74 201q0 96 67.5 160.5t171.5 64.5t172 -64.5t68 -160.5q0 -52 -25 -107l-166 -350h-272l117 254q-62 26 -97.5 80t-35.5 123z" />
    <glyph glyph-name="hyphen" unicode="-" horiz-adv-x="897" 
d="M782 492h-667v376h667v-376z" />
    <glyph glyph-name="period" unicode="." horiz-adv-x="626" 
d="M74 201q0 96 67.5 160.5t171.5 64.5t172 -64.5t68 -160.5t-68 -161t-172 -65q-103 0 -171 65t-68 161z" />
    <glyph glyph-name="slash" unicode="/" horiz-adv-x="1081" 
d="M1102 1536l-699 -1823h-423l702 1823h420z" />
    <glyph glyph-name="zero" unicode="0" horiz-adv-x="1253" 
d="M86 717q0 220 63 386.5t186 260.5t292 94q252 0 396 -203.5t144 -537.5t-144 -538t-396 -204q-169 0 -292 94.5t-186 261t-63 386.5zM504 717q0 -169 32.5 -262t90.5 -93t90.5 93t32.5 262t-32 261.5t-91 92.5t-91 -92.5t-32 -261.5z" />
    <glyph glyph-name="one" unicode="1" horiz-adv-x="1253" 
d="M545 1434h377v-1434h-439v1040l-211 -116l-149 278z" />
    <glyph glyph-name="two" unicode="2" horiz-adv-x="1253" 
d="M981 668l-264 -291h403v-377h-948v346l471 520q62 68 62 125q0 35 -23.5 58.5t-58.5 23.5q-78 0 -109 -110l-383 112q27 163 165 273t337 110q214 0 358 -115t144 -288q0 -217 -154 -387z" />
    <glyph glyph-name="three" unicode="3" horiz-adv-x="1253" 
d="M694 479q0 55 -37.5 92t-93.5 37q-42 0 -71 -16l-166 207l270 270h-424v365h897v-355l-256 -231q153 -53 239.5 -163.5t86.5 -260.5q0 -126 -72.5 -229t-199 -161.5t-279.5 -58.5q-160 0 -294 65t-202 181l244 256q87 -127 227 -127q56 0 93.5 37t37.5 92z" />
    <glyph glyph-name="four" unicode="4" horiz-adv-x="1253" 
d="M61 231v336l568 867h389v-844h153v-359h-153v-231h-418v231h-539zM389 590h211v330z" />
    <glyph glyph-name="five" unicode="5" horiz-adv-x="1253" 
d="M657 1069l-18 -133q218 -8 364 -140t146 -327q0 -210 -154 -352t-387 -142q-166 0 -301.5 62.5t-220.5 171.5l260 262q95 -119 221 -119q62 0 102 38.5t40 96.5t-39.5 97t-96.5 39q-60 0 -100 -43l-317 43l100 811h840v-365h-439z" />
    <glyph glyph-name="six" unicode="6" horiz-adv-x="1253" 
d="M1069 1434l-317 -486q182 -31 304 -156.5t122 -314.5q0 -213 -158.5 -357.5t-392.5 -144.5t-392.5 144.5t-158.5 357.5q0 146 71 254l461 703h461zM489 481q0 -63 39.5 -104t98.5 -41t98 41t39 104t-39 104.5t-98 41.5t-98.5 -41.5t-39.5 -104.5z" />
    <glyph glyph-name="seven" unicode="7" horiz-adv-x="1253" 
d="M147 1434h975v-326l-450 -1108h-451l443 1057h-517v377z" />
    <glyph glyph-name="eight" unicode="8" horiz-adv-x="1253" 
d="M492 455q0 -63 39.5 -101.5t95.5 -38.5t95.5 38.5t39.5 101.5q0 62 -39.5 100.5t-95.5 38.5t-95.5 -38.5t-39.5 -100.5zM1114 1036q0 -84 -38.5 -156.5t-108.5 -113.5q94 -44 147 -138t53 -196q0 -127 -70.5 -232t-194.5 -165t-275 -60t-275.5 60t-195 165t-70.5 232
q0 102 53.5 196t147.5 138q-70 41 -109 113.5t-39 156.5q0 179 139.5 300.5t348.5 121.5q208 0 347.5 -121.5t139.5 -300.5zM524 1022q0 -45 29 -74.5t74 -29.5t73.5 29.5t28.5 74.5t-28.5 74.5t-73.5 29.5t-74 -29.5t-29 -74.5z" />
    <glyph glyph-name="nine" unicode="9" horiz-adv-x="1253" 
d="M184 0l318 485q-182 31 -304 156.5t-122 314.5q0 213 158.5 357.5t392.5 144.5t392.5 -144.5t158.5 -357.5q0 -144 -72 -254l-461 -702h-461zM764 952q0 63 -39 104.5t-98 41.5t-98.5 -41.5t-39.5 -104.5t39.5 -104t98.5 -41t98 41t39 104z" />
    <glyph glyph-name="colon" unicode=":" horiz-adv-x="626" 
d="M74 201q0 96 67.5 160.5t171.5 64.5t172 -64.5t68 -160.5t-68 -161t-172 -65q-103 0 -171 65t-68 161zM74 860q0 96 67.5 160.5t171.5 64.5t172 -64.5t68 -160.5t-68 -160.5t-172 -64.5t-171.5 64.5t-67.5 160.5z" />
    <glyph glyph-name="semicolon" unicode=";" horiz-adv-x="626" 
d="M74 860q0 96 67.5 160.5t171.5 64.5t172 -64.5t68 -160.5t-68 -160.5t-172 -64.5t-171.5 64.5t-67.5 160.5zM74 201q0 96 67.5 160.5t171.5 64.5t172 -64.5t68 -160.5q0 -52 -25 -107l-166 -350h-272l117 254q-62 26 -97.5 80t-35.5 123z" />
    <glyph glyph-name="less" unicode="&#x3c;" horiz-adv-x="1211" 
d="M1071 31l-965 530v238l965 530v-442l-432 -207l432 -207v-442z" />
    <glyph glyph-name="equal" unicode="=" horiz-adv-x="1212" 
d="M1098 745h-983v369h983v-369zM1098 246h-983v368h983v-368z" />
    <glyph glyph-name="greater" unicode="&#x3e;" horiz-adv-x="1211" 
d="M1105 561l-965 -530v442l432 207l-432 207v442l965 -530v-238z" />
    <glyph glyph-name="question" unicode="?" horiz-adv-x="1153" 
d="M287 475v371q169 0 252.5 39t83.5 106q0 40 -35 65t-92 25q-131 0 -267 -106l-176 328q96 71 222.5 113t248.5 42q230 0 383.5 -131t153.5 -326q0 -143 -90 -260t-246 -166v-100h-438zM252 199q0 94 73 158.5t181 64.5t181 -64.5t73 -158.5t-73 -159t-181 -65t-181 65
t-73 159z" />
    <glyph glyph-name="at" unicode="@" horiz-adv-x="1998" 
d="M1104 471v160q-14 32 -45 51.5t-72 19.5q-57 0 -95 -41t-38 -110t38 -110.5t95 -41.5q41 0 72 20t45 52zM1104 920v67h358v-543q7 -36 30.5 -53.5t55.5 -17.5q55 0 95 69t40 170q0 121 -54 235.5t-145.5 201.5t-220 139.5t-268.5 52.5q-189 0 -345 -89.5t-245.5 -245
t-89.5 -343.5q0 -141 52.5 -266.5t145 -216t225 -143t284.5 -52.5q263 0 483 150l101 -193q-254 -174 -584 -174q-205 0 -384.5 69.5t-305.5 189t-198.5 285t-72.5 351.5q0 185 73 351t197 285t297.5 189t366.5 70q200 0 377 -71t300 -189.5t194 -274t71 -321.5
q0 -220 -123.5 -364t-310.5 -144q-96 0 -180 42.5t-125 113.5q-38 -70 -122 -113t-181 -43q-173 0 -287 131t-114 326q0 193 111.5 325t273.5 132q63 0 123.5 -24t101.5 -64z" />
    <glyph glyph-name="A" unicode="A" horiz-adv-x="1437" 
d="M481 1434h475l467 -1434h-446l-67 252h-384l-65 -252h-447zM719 985l-108 -410h215z" />
    <glyph glyph-name="B" unicode="B" horiz-adv-x="1300" 
d="M778 0h-641v1434h586q201 0 328 -110t127 -280q0 -99 -52 -182.5t-137 -116.5q115 -31 182.5 -117.5t67.5 -207.5q0 -180 -131.5 -300t-329.5 -120zM784 991q0 47 -29 77t-73 30h-127v-213h127q45 0 73.5 29.5t28.5 76.5zM813 449q0 49 -31.5 80.5t-81.5 31.5h-145v-225
h145q50 0 81.5 32t31.5 81z" />
    <glyph glyph-name="C" unicode="C" horiz-adv-x="1449" 
d="M854 -25q-164 0 -309.5 57.5t-249.5 156.5t-164.5 236.5t-60.5 291.5t60.5 291.5t164.5 236t249.5 156t309.5 57.5q305 0 522 -182l-223 -318q-127 123 -299 123q-149 0 -247.5 -103.5t-98.5 -260.5t98.5 -261t247.5 -104q87 0 168.5 38t142.5 99l232 -315
q-224 -199 -543 -199z" />
    <glyph glyph-name="D" unicode="D" horiz-adv-x="1490" 
d="M702 0h-565v1434h565q156 0 290 -53.5t228 -147.5t147.5 -227.5t53.5 -288.5t-53.5 -288.5t-147.5 -227.5t-228 -147.5t-290 -53.5zM575 377h87q149 0 235 91.5t86 248.5t-86 248.5t-235 91.5h-87v-680z" />
    <glyph glyph-name="E" unicode="E" horiz-adv-x="1191" 
d="M137 0v1434h955v-365h-517v-170h467v-356h-467v-178h535v-365h-973z" />
    <glyph glyph-name="F" unicode="F" horiz-adv-x="1122" 
d="M137 0v1434h934v-373h-496v-215h447v-373h-447v-473h-438z" />
    <glyph glyph-name="G" unicode="G" horiz-adv-x="1517" 
d="M854 1081q-152 0 -249 -105t-97 -269q0 -158 99 -266.5t247 -108.5q62 0 109 24v172h-213v312h651v-662q-108 -98 -249 -150.5t-298 -52.5q-164 0 -309.5 57.5t-249.5 156.5t-164.5 236.5t-60.5 291.5t60.5 291.5t164.5 236t249.5 156t309.5 57.5q305 0 522 -182
l-223 -318q-127 123 -299 123z" />
    <glyph glyph-name="H" unicode="H" horiz-adv-x="1470" 
d="M137 0v1434h438v-525h320v525h438v-1434h-438v532h-320v-532h-438z" />
    <glyph glyph-name="I" unicode="I" horiz-adv-x="712" 
d="M575 1434v-1434h-438v1434h438z" />
    <glyph glyph-name="J" unicode="J" horiz-adv-x="972" 
d="M412 498v936h438v-977q0 -218 -131 -350t-354 -132q-207 0 -351 80l101 351q84 -54 164 -54q58 0 95.5 41.5t37.5 104.5z" />
    <glyph glyph-name="K" unicode="K" horiz-adv-x="1341" 
d="M575 1434v-514h66l221 514h459l-324 -699l396 -735h-459l-280 543h-79v-543h-438v1434h438z" />
    <glyph glyph-name="L" unicode="L" horiz-adv-x="1089" 
d="M137 0v1434h438v-1057h494v-377h-932z" />
    <glyph glyph-name="M" unicode="M" horiz-adv-x="1781" 
d="M1049 397h-316l-198 465v-862h-398v1434h512l242 -566l242 566h512v-1434h-398v862z" />
    <glyph glyph-name="N" unicode="N" horiz-adv-x="1470" 
d="M137 0v1434h479l320 -832v832h397v-1434h-479l-319 831v-831h-398z" />
    <glyph glyph-name="O" unicode="O" horiz-adv-x="1708" 
d="M508 717q0 -157 98.5 -261t247.5 -104t247.5 104t98.5 261t-98.5 260.5t-247.5 103.5t-247.5 -103.5t-98.5 -260.5zM70 717q0 154 60.5 291.5t164.5 236t249.5 156t309.5 57.5t309.5 -57.5t249.5 -156t164.5 -236t60.5 -291.5t-60.5 -291.5t-164.5 -236.5t-249.5 -156.5
t-309.5 -57.5t-309.5 57.5t-249.5 156.5t-164.5 236.5t-60.5 291.5z" />
    <glyph glyph-name="P" unicode="P" horiz-adv-x="1271" 
d="M715 438h-140v-438h-438v1434h578q220 0 368 -143t148 -355t-148 -355t-368 -143zM575 770h76q67 0 110.5 47t43.5 119t-43.5 119t-110.5 47h-76v-332z" />
    <glyph glyph-name="Q" unicode="Q" horiz-adv-x="1708" 
d="M70 717q0 154 60.5 291.5t164.5 236t249.5 156t309.5 57.5t309.5 -57.5t249.5 -156t164.5 -236t60.5 -291.5q0 -251 -151 -447l176 -200l-330 -277l-200 227q-133 -45 -279 -45q-164 0 -309.5 57.5t-249.5 156.5t-164.5 236.5t-60.5 291.5zM508 717q0 -157 98.5 -261
t247.5 -104t247.5 104t98.5 261t-98.5 260.5t-247.5 103.5t-247.5 -103.5t-98.5 -260.5z" />
    <glyph glyph-name="R" unicode="R" horiz-adv-x="1318" 
d="M596 479h-29v-479h-430v1434h578q145 0 262.5 -60t185.5 -169.5t68 -248.5q0 -130 -60.5 -234.5t-165.5 -167.5l273 -554h-471zM567 782h88q65 0 107.5 45t42.5 115t-42.5 115t-107.5 45h-88v-320z" />
    <glyph glyph-name="S" unicode="S" horiz-adv-x="1241" 
d="M72 203l213 291q76 -75 169.5 -118.5t184.5 -43.5q47 0 79 25.5t32 62.5q0 46 -47 80t-177 63q-190 42 -307 154.5t-117 279.5q0 197 144.5 329t363.5 132q137 0 269.5 -48.5t234.5 -133.5l-201 -299q-160 133 -284 133q-38 0 -63 -22.5t-25 -53.5q0 -39 39.5 -70.5
t150.5 -56.5q214 -49 335.5 -164.5t121.5 -289.5q0 -99 -39.5 -186t-110.5 -152t-176.5 -102.5t-230.5 -37.5q-337 0 -559 228z" />
    <glyph glyph-name="T" unicode="T" horiz-adv-x="1155" 
d="M358 0v1057h-317v377h1073v-377h-317v-1057h-439z" />
    <glyph glyph-name="U" unicode="U" horiz-adv-x="1388" 
d="M561 1434v-955q0 -54 37.5 -89.5t95.5 -35.5t95.5 35.5t37.5 89.5v955h439v-988q0 -129 -76 -237t-207.5 -170t-288.5 -62q-118 0 -223.5 36.5t-182 99.5t-121 149.5t-44.5 183.5v988h438z" />
    <glyph glyph-name="V" unicode="V" horiz-adv-x="1437" 
d="M956 0h-475l-467 1434h447l258 -955l258 955h446z" />
    <glyph glyph-name="W" unicode="W" horiz-adv-x="2056" 
d="M807 1434h442l174 -875l170 875h449l-367 -1434h-452l-195 846l-194 -846h-453l-367 1434h449l170 -875z" />
    <glyph glyph-name="X" unicode="X" horiz-adv-x="1363" 
d="M516 1434l166 -404l166 404h477l-358 -695l387 -739h-477l-195 449l-195 -449h-477l387 739l-358 695h477z" />
    <glyph glyph-name="Y" unicode="Y" horiz-adv-x="1372" 
d="M492 1434l194 -488l195 488h477l-453 -887v-547h-438v547l-453 887h478z" />
    <glyph glyph-name="Z" unicode="Z" horiz-adv-x="1267" 
d="M94 336l551 721h-520v377h1038v-336l-551 -721h572v-377h-1090v336z" />
    <glyph glyph-name="bracketleft" unicode="[" horiz-adv-x="921" 
d="M170 -287v1823h721v-377h-283v-1069h283v-377h-721z" />
    <glyph glyph-name="backslash" unicode="\" horiz-adv-x="1081" 
d="M678 -287l-698 1823h419l703 -1823h-424z" />
    <glyph glyph-name="bracketright" unicode="]" horiz-adv-x="921" 
d="M752 1536v-1823h-721v377h282v1069h-282v377h721z" />
    <glyph glyph-name="asciicircum" unicode="^" horiz-adv-x="1294" 
d="M463 1434h368l410 -637h-446l-148 247l-147 -247h-447z" />
    <glyph glyph-name="underscore" unicode="_" horiz-adv-x="1024" 
d="M0 -463v377h1024v-377h-1024z" />
    <glyph glyph-name="grave" unicode="`" horiz-adv-x="901" 
d="M515 1495l233 -350h-392l-269 350h428z" />
    <glyph glyph-name="a" unicode="a" horiz-adv-x="1357" 
d="M829 0v82q-54 -48 -130.5 -77.5t-155.5 -29.5q-135 0 -247.5 73t-177.5 200.5t-65 281.5t65 281.5t177.5 200.5t247.5 73q80 0 156 -29t130 -77v82h414v-1061h-414zM829 451v159q-22 48 -67.5 77.5t-104.5 29.5q-82 0 -135 -53.5t-53 -133.5t52.5 -133t135.5 -53
q59 0 104.5 29.5t67.5 77.5z" />
    <glyph glyph-name="b" unicode="b" horiz-adv-x="1357" 
d="M528 82v-82h-413v1495h413v-516q54 48 130.5 77t156.5 29q135 0 247.5 -73t177.5 -200.5t65 -281.5t-65 -281.5t-177.5 -200.5t-247.5 -73q-80 0 -156.5 29.5t-130.5 77.5zM528 610v-159q22 -48 67.5 -77.5t104.5 -29.5q83 0 136 53t53 133t-53 133.5t-136 53.5
q-59 0 -104.5 -29.5t-67.5 -77.5z" />
    <glyph glyph-name="c" unicode="c" horiz-adv-x="1161" 
d="M909 446l215 -274q-85 -93 -205 -145t-262 -52q-168 0 -307 73t-218 200.5t-79 281.5t79 281.5t218 200.5t307 73q127 0 238.5 -42.5t194.5 -118.5l-193 -295q-111 88 -231 88q-83 0 -136 -53.5t-53 -133.5t53 -133t136 -53q111 0 243 102z" />
    <glyph glyph-name="d" unicode="d" horiz-adv-x="1357" 
d="M829 0v82q-54 -48 -130.5 -77.5t-155.5 -29.5q-135 0 -247.5 73t-177.5 200.5t-65 281.5t65 281.5t177.5 200.5t247.5 73q80 0 156 -29t130 -77v516h414v-1495h-414zM829 451v159q-22 48 -67.5 77.5t-104.5 29.5q-82 0 -135 -53.5t-53 -133.5t52.5 -133t135.5 -53
q59 0 104.5 29.5t67.5 77.5z" />
    <glyph glyph-name="e" unicode="e" horiz-adv-x="1269" 
d="M476 424q28 -154 200 -154q132 0 258 113l196 -215q-178 -193 -468 -193q-130 0 -244 43t-193.5 117t-125.5 176.5t-46 218.5q0 154 78 281.5t213.5 200.5t300.5 73q160 0 291.5 -71.5t206 -195t74.5 -273.5q0 -60 -21 -121h-720zM637 791q-135 0 -160 -144h316
q-11 74 -49 109t-107 35z" />
    <glyph glyph-name="f" unicode="f" horiz-adv-x="825" 
d="M784 1479v-295q-39 8 -102 8q-38 0 -61 -20.5t-23 -53.5v-57h186v-365h-186v-696h-426v696h-131v365h131v65q0 165 128.5 267t334.5 102q83 0 149 -16z" />
    <glyph glyph-name="g" unicode="g" horiz-adv-x="1357" 
d="M829 451v159q-22 48 -67.5 77.5t-104.5 29.5q-82 0 -135 -53.5t-53 -133.5t52.5 -133t135.5 -53q59 0 104.5 29.5t67.5 77.5zM829 53v58q-54 -48 -130.5 -77.5t-155.5 -29.5q-207 0 -348.5 149.5t-141.5 376.5q0 154 65 281.5t177.5 200.5t247.5 73q80 0 156 -29t130 -77
v82h414v-983q0 -236 -166 -394.5t-413 -158.5q-155 0 -298.5 43.5t-240.5 124.5l186 292q123 -100 307 -100q95 0 153 47t58 121z" />
    <glyph glyph-name="h" unicode="h" horiz-adv-x="1273" 
d="M541 1495v-530q37 57 100.5 88.5t138.5 31.5q170 0 285 -114.5t115 -284.5v-686h-426v608q0 46 -31 77.5t-80 31.5q-34 0 -62 -19t-40 -49v-649h-426v1495h426z" />
    <glyph glyph-name="i" unicode="i" horiz-adv-x="638" 
d="M106 0v1061h426v-1061h-426zM88 1327q0 91 66.5 152t164.5 61t165 -61t67 -152t-67 -152t-165 -61t-164.5 61t-66.5 152z" />
    <glyph glyph-name="j" unicode="j" horiz-adv-x="638" 
d="M106 -37v1098h426v-1167q0 -160 -117 -264.5t-294 -104.5q-80 0 -154 18v346h60q38 0 58.5 20t20.5 54zM88 1327q0 91 66.5 152t164.5 61t165 -61t67 -152t-67 -152t-165 -61t-164.5 61t-66.5 152z" />
    <glyph glyph-name="k" unicode="k" horiz-adv-x="1200" 
d="M733 0l-142 387h-50v-387h-426v1495h426v-743h57l121 309h446l-231 -496l250 -565h-451z" />
    <glyph glyph-name="l" unicode="l" horiz-adv-x="638" 
d="M106 0v1495h426v-1495h-426z" />
    <glyph glyph-name="m" unicode="m" horiz-adv-x="1912" 
d="M1180 649v-649h-426v608q0 46 -31 77.5t-80 31.5q-34 0 -62 -19t-40 -49v-649h-426v1061h426v-96q37 57 100.5 88.5t138.5 31.5q102 0 187.5 -44t140.5 -121q47 73 129.5 119t181.5 46q170 0 285 -114.5t115 -284.5v-686h-426v608q0 46 -31 77.5t-80 31.5q-34 0 -62 -19
t-40 -49z" />
    <glyph glyph-name="n" unicode="n" horiz-adv-x="1273" 
d="M541 649v-649h-426v1061h426v-96q37 57 100.5 88.5t138.5 31.5q170 0 285 -114.5t115 -284.5v-686h-426v608q0 46 -31 77.5t-80 31.5q-34 0 -62 -19t-40 -49z" />
    <glyph glyph-name="o" unicode="o" horiz-adv-x="1314" 
d="M53 530q0 154 79 281.5t218 200.5t307 73t307 -73t218.5 -200.5t79.5 -281.5t-79.5 -281.5t-218.5 -200.5t-307 -73t-307 73t-218 200.5t-79 281.5zM469 530q0 -80 52.5 -133t135.5 -53t136 53t53 133t-53 133.5t-136 53.5q-82 0 -135 -53.5t-53 -133.5z" />
    <glyph glyph-name="p" unicode="p" horiz-adv-x="1357" 
d="M528 82v-557h-413v1536h413v-82q54 48 130.5 77t156.5 29q135 0 247.5 -73t177.5 -200.5t65 -281.5t-65 -281.5t-177.5 -200.5t-247.5 -73q-80 0 -156.5 29.5t-130.5 77.5zM528 610v-159q22 -48 67.5 -77.5t104.5 -29.5q83 0 136 53t53 133t-53 133.5t-136 53.5
q-59 0 -104.5 -29.5t-67.5 -77.5z" />
    <glyph glyph-name="q" unicode="q" horiz-adv-x="1357" 
d="M829 -475v557q-54 -48 -130.5 -77.5t-155.5 -29.5q-135 0 -247.5 73t-177.5 200.5t-65 281.5t65 281.5t177.5 200.5t247.5 73q80 0 156 -29t130 -77v82h414v-1536h-414zM829 451v159q-22 48 -67.5 77.5t-104.5 29.5q-82 0 -135 -53.5t-53 -133.5t52.5 -133t135.5 -53
q59 0 104.5 29.5t67.5 77.5z" />
    <glyph glyph-name="r" unicode="r" horiz-adv-x="890" 
d="M692 717q-49 0 -89 -25.5t-62 -70.5v-621h-426v1061h426v-115q25 60 81 99.5t119 39.5q53 0 97 -28l-23 -367q-71 27 -123 27z" />
    <glyph glyph-name="s" unicode="s" horiz-adv-x="987" 
d="M42 152l170 233q49 -52 117 -81.5t139 -29.5q76 0 76 43q0 24 -28 40.5t-95 31.5q-158 35 -249 130.5t-91 228.5q0 147 118 242t296 95q107 0 213 -39t194 -108l-166 -231q-92 79 -198 79q-56 0 -56 -43q0 -49 109 -71q174 -36 264 -129t90 -226q0 -148 -125 -245
t-315 -97q-139 0 -261 47t-202 130z" />
    <glyph glyph-name="t" unicode="t" horiz-adv-x="851" 
d="M598 696v-280q0 -37 22 -56.5t62 -19.5q76 0 125 8v-338q-93 -35 -250 -35q-166 0 -275.5 107t-109.5 268v346h-131v365h131v270l426 37v-307h197v-365h-197z" />
    <glyph glyph-name="u" unicode="u" horiz-adv-x="1273" 
d="M733 412v649h426v-1061h-426v96q-37 -57 -100.5 -89t-138.5 -32q-170 0 -285 115t-115 285v686h426v-608q0 -46 31 -77.5t80 -31.5q34 0 62 19t40 49z" />
    <glyph glyph-name="v" unicode="v" horiz-adv-x="1155" 
d="M1139 1061l-318 -1061h-487l-318 1061h447l115 -615l114 615h447z" />
    <glyph glyph-name="w" unicode="w" horiz-adv-x="1687" 
d="M641 1061h406l98 -572l100 572h426l-291 -1061h-436l-100 475l-101 -475h-436l-291 1061h426l101 -572z" />
    <glyph glyph-name="x" unicode="x" horiz-adv-x="1155" 
d="M16 0l277 541l-250 520h446l89 -268l88 268h446l-250 -520l277 -541h-447l-114 289l-115 -289h-447z" />
    <glyph glyph-name="y" unicode="y" horiz-adv-x="1155" 
d="M692 1061h447l-518 -1536h-449l203 475l-359 1061h447l115 -518z" />
    <glyph glyph-name="z" unicode="z" horiz-adv-x="1067" 
d="M68 0v299l381 401h-355v361h881v-299l-381 -402h401v-360h-927z" />
    <glyph glyph-name="braceleft" unicode="{" horiz-adv-x="921" 
d="M94 436v377q80 0 128 45.5t48 120.5v205q0 151 107.5 251.5t269.5 100.5h244v-377h-74q-47 0 -77.5 -27.5t-30.5 -70.5v-205q0 -88 -47 -148.5t-132 -82.5q85 -22 132 -83t47 -149v-205q0 -43 30.5 -70.5t77.5 -27.5h74v-377h-244q-162 0 -269.5 101t-107.5 252v204
q0 75 -48 120.5t-128 45.5z" />
    <glyph glyph-name="bar" unicode="|" horiz-adv-x="688" 
d="M135 -287v1823h418v-1823h-418z" />
    <glyph glyph-name="braceright" unicode="}" horiz-adv-x="921" 
d="M827 813v-377q-80 0 -128 -45.5t-48 -120.5v-204q0 -151 -107.5 -252t-269.5 -101h-243v377h73q47 0 78 27.5t31 70.5v205q0 88 46.5 149t131.5 83q-85 22 -131.5 82.5t-46.5 148.5v205q0 43 -31 70.5t-78 27.5h-73v377h243q162 0 269.5 -100.5t107.5 -251.5v-205
q0 -75 48 -120.5t128 -45.5z" />
    <glyph glyph-name="asciitilde" unicode="~" horiz-adv-x="1212" 
d="M846 403q-116 0 -232 82q-30 22 -46 32t-37.5 19t-38.5 9q-50 0 -61 -89l-395 62q25 204 109.5 312t221.5 108q117 0 231 -82q81 -59 123 -59q49 0 60 89l396 -63q-25 -204 -109.5 -312t-221.5 -108z" />
    <glyph glyph-name="uni00A0" unicode="&#xa0;" horiz-adv-x="626" 
 />
    <glyph glyph-name="exclamdown" unicode="&#xa1;" horiz-adv-x="651" 
d="M106 -373v959h439v-959h-439zM72 862q0 94 73 158.5t181 64.5t181 -64.5t73 -158.5t-73 -158.5t-181 -64.5t-181 64.5t-73 158.5z" />
    <glyph glyph-name="cent" unicode="&#xa2;" horiz-adv-x="1161" 
d="M467 -188v190q-186 54 -300 197.5t-114 330.5t114 330.5t300 198.5v190h360v-185q153 -39 263 -140l-193 -295q-111 88 -231 88q-83 0 -136 -53.5t-53 -133.5t53 -133t136 -53q111 0 243 102l215 -274q-119 -130 -297 -175v-185h-360z" />
    <glyph glyph-name="sterling" unicode="&#xa3;" horiz-adv-x="1211" 
d="M288 539h-173v266h105q-58 129 -58 242q0 172 140.5 291.5t344.5 119.5q158 0 281 -74t174 -192l-361 -195q-36 84 -94 84q-21 0 -34 -18.5t-13 -46.5q0 -77 60 -202l2 -4q2 -3 3 -5h261v-266h-202q-8 -55 -37.5 -98t-76.5 -64h518v-377h-1007v352q77 20 119.5 68.5
t47.5 118.5z" />
    <glyph glyph-name="currency" unicode="&#xa4;" horiz-adv-x="1320" 
d="M148 668q0 113 55 215l-169 172l221 211l173 -175q109 50 232 50q124 0 233 -50l173 175l221 -211l-170 -172q55 -99 55 -215q0 -117 -55 -216l170 -171l-221 -211l-173 175q-106 -50 -233 -50q-126 0 -232 50l-173 -175l-221 211l169 171q-55 102 -55 216zM521 668
q0 -65 39.5 -107.5t99.5 -42.5t100 43t40 107t-40 106.5t-100 42.5t-99.5 -42.5t-39.5 -106.5z" />
    <glyph glyph-name="yen" unicode="&#xa5;" horiz-adv-x="1372" 
d="M492 1434l194 -498l195 498h477l-350 -670h211v-184h-308l-6 -13v-49h314v-184h-314v-334h-438v334h-313v184h313v49l-7 13h-306v184h210l-350 670h478z" />
    <glyph glyph-name="brokenbar" unicode="&#xa6;" horiz-adv-x="688" 
d="M135 717v819h418v-819h-418zM135 -287v819h418v-819h-418z" />
    <glyph glyph-name="section" unicode="&#xa7;" horiz-adv-x="1062" 
d="M1032 556q0 -188 -168 -289q86 -91 86 -227q0 -147 -124 -247t-306 -100q-158 0 -276.5 78.5t-146.5 202.5l327 80q9 -36 35 -54t61 -18t58.5 17.5t23.5 45.5q0 49 -56 74l-266 121q-119 54 -184 150t-65 205q0 92 43.5 166t123.5 122q-85 91 -85 228q0 147 124 247
t306 100q158 0 276.5 -78.5t146.5 -202.5l-327 -80q-9 36 -35 54t-61 18t-58.5 -17.5t-23.5 -45.5q0 -49 56 -74l266 -121q119 -54 184 -150t65 -205zM608 671l-110 49q-52 -5 -85.5 -39.5t-33.5 -85.5q0 -40 21 -70t55 -45l109 -50q53 5 86.5 40t33.5 86q0 40 -21 70
t-55 45z" />
    <glyph glyph-name="dieresis" unicode="&#xa8;" horiz-adv-x="901" 
d="M30 1323q0 82 56 137.5t140 55.5t140.5 -55.5t56.5 -137.5t-56.5 -137.5t-140.5 -55.5t-140 55.5t-56 137.5zM478 1323q0 82 56.5 137.5t140.5 55.5t140 -55.5t56 -137.5t-56 -137.5t-140 -55.5t-140.5 55.5t-56.5 137.5z" />
    <glyph glyph-name="copyright" unicode="&#xa9;" horiz-adv-x="1646" 
d="M858 307q-186 0 -312.5 118t-126.5 290t126.5 289.5t312.5 117.5q173 0 308 -113l-147 -208q-83 81 -161 81q-64 0 -106.5 -48t-42.5 -119t42.5 -119t106.5 -48q80 0 166 89l153 -208q-139 -122 -319 -122zM82 717q0 153 58 290t157 236t236 157t290 58t290.5 -58
t236.5 -157t157 -236t58 -290t-58 -290.5t-157 -236.5t-236.5 -157t-290.5 -58t-290 58t-236 157t-157 236.5t-58 290.5zM217 717q0 -169 80.5 -310.5t220 -223t305.5 -81.5t306 81.5t220.5 223t80.5 310.5q0 127 -47.5 241t-128.5 195.5t-193.5 129.5t-237.5 48
q-166 0 -305.5 -81t-220 -222.5t-80.5 -310.5z" />
    <glyph glyph-name="ordfeminine" unicode="&#xaa;" horiz-adv-x="960" 
d="M471 940q35 0 62.5 19t40.5 47v110q-13 28 -40.5 47t-62.5 19q-49 0 -82.5 -34.5t-33.5 -86.5t33.5 -86.5t82.5 -34.5zM574 688v53q-71 -69 -181 -69q-147 0 -246 112t-99 277t99 277t246 112q109 0 181 -70v54h308v-746h-308z" />
    <glyph glyph-name="guillemotleft" unicode="&#xab;" horiz-adv-x="1341" 
d="M69 546v186l612 373v-315l-268 -151l268 -151v-315zM642 546v186l612 373v-315l-268 -151l268 -151v-315z" />
    <glyph glyph-name="logicalnot" unicode="&#xac;" horiz-adv-x="1212" 
d="M684 215v277h-569v376h983v-653h-414z" />
    <glyph glyph-name="uni00AD" unicode="&#xad;" horiz-adv-x="897" 
d="M782 492h-667v376h667v-376z" />
    <glyph glyph-name="registered" unicode="&#xae;" horiz-adv-x="1646" 
d="M82 717q0 153 58 290t157 236t236 157t290 58t290.5 -58t236.5 -157t157 -236t58 -290t-58 -290.5t-157 -236.5t-236.5 -157t-290.5 -58t-290 58t-236 157t-157 236.5t-58 290.5zM217 717q0 -169 80.5 -310.5t220 -223t305.5 -81.5t306 81.5t220.5 223t80.5 310.5
q0 127 -47.5 241t-128.5 195.5t-193.5 129.5t-237.5 48q-166 0 -305.5 -81t-220 -222.5t-80.5 -310.5zM816 581h-14v-259h-253v788h322q124 0 206.5 -74.5t82.5 -190.5q0 -135 -105 -209l135 -314h-276zM802 759h38q30 0 49.5 22t19.5 57q0 34 -19.5 56t-49.5 22h-38v-157z
" />
    <glyph glyph-name="macron" unicode="&#xaf;" horiz-adv-x="901" 
d="M102 1167v303h697v-303h-697z" />
    <glyph glyph-name="degree" unicode="&#xb0;" horiz-adv-x="835" 
d="M90 1151q0 129 95 218t233 89t232.5 -89t94.5 -218t-94.5 -218t-232.5 -89t-233 89t-95 218zM342 1151q0 -33 21.5 -54.5t54.5 -21.5t54.5 21.5t21.5 54.5t-21.5 54.5t-54.5 21.5t-54.5 -21.5t-21.5 -54.5z" />
    <glyph glyph-name="plusminus" unicode="&#xb1;" horiz-adv-x="1212" 
d="M1098 0h-983v336h983v-336zM399 390v287h-284v336h284v286h414v-286h285v-336h-285v-287h-414z" />
    <glyph glyph-name="twosuperior" unicode="&#xb2;" 
d="M652 913l-164 -179h261v-271h-660v244l319 352q37 40 37 78q0 20 -12 32.5t-31 12.5q-42 0 -63 -77l-279 81q19 116 115.5 194t234.5 78q149 0 248.5 -79.5t99.5 -199.5q0 -149 -106 -266z" />
    <glyph glyph-name="threesuperior" unicode="&#xb3;" 
d="M446 785q0 33 -21.5 55t-53.5 22q-23 0 -50 -15l-123 152l171 171h-272v264h625v-250l-165 -149q102 -38 157 -112t55 -175q0 -132 -110 -221t-271 -89q-111 0 -204 46.5t-143 128.5l180 188q66 -93 150 -93q32 0 53.5 21.5t21.5 55.5z" />
    <glyph glyph-name="acute" unicode="&#xb4;" horiz-adv-x="901" 
d="M154 1145l232 350h428l-269 -350h-391z" />
    <glyph glyph-name="mu" unicode="&#xb5;" horiz-adv-x="1294" 
d="M115 -475v1536h426v-604q9 -113 86 -113q44 0 79.5 33t47.5 88v596h426v-1061h-426v113q-22 -61 -60.5 -99.5t-78.5 -38.5q-55 0 -74 47v-497h-426z" />
    <glyph glyph-name="paragraph" unicode="&#xb6;" horiz-adv-x="1223" 
d="M538 549h-52q-192 0 -323 127.5t-131 314.5t131 315t323 128h613v-1702h-234v1458h-94v-1458h-233v817z" />
    <glyph glyph-name="periodcentered" unicode="&#xb7;" horiz-adv-x="626" 
d="M74 673q0 96 67.5 160.5t171.5 64.5t172 -64.5t68 -160.5t-68 -161t-172 -65q-103 0 -171 65t-68 161z" />
    <glyph glyph-name="cedilla" unicode="&#xb8;" horiz-adv-x="901" 
d="M470 -307q0 21 -22.5 33t-59.5 12q-43 0 -70 -4l-69 76l100 190h277l-80 -117q88 -23 141 -74.5t53 -119.5q0 -94 -97.5 -157.5t-242.5 -63.5q-155 0 -252 70l99 153q59 -43 141 -43q37 0 59.5 12t22.5 33z" />
    <glyph glyph-name="onesuperior" unicode="&#xb9;" 
d="M370 1434h269v-971h-318v680l-136 -75l-109 205z" />
    <glyph glyph-name="ordmasculine" unicode="&#xba;" horiz-adv-x="960" 
d="M57 1061q0 163 123 276t300 113t300 -113t123 -276t-123 -276t-300 -113t-300 113t-123 276zM365 1061q0 -51 33 -86t82 -35t82.5 35t33.5 86t-33.5 86t-82.5 35t-82 -35t-33 -86z" />
    <glyph glyph-name="guillemotright" unicode="&#xbb;" horiz-adv-x="1341" 
d="M1273 732v-186l-613 -373v315l269 151l-269 151v315zM699 732v-186l-612 -373v315l268 151l-268 151v315z" />
    <glyph glyph-name="onequarter" unicode="&#xbc;" horiz-adv-x="2017" 
d="M512 0l700 1434h293l-698 -1434h-295zM370 1434h269v-971h-318v680l-136 -75l-109 205zM1205 151v226l391 594h275v-576h102v-244h-102v-151h-288v151h-378zM1443 395h140v209z" />
    <glyph glyph-name="onehalf" unicode="&#xbd;" horiz-adv-x="2017" 
d="M512 0l700 1434h293l-698 -1434h-295zM370 1434h269v-971h-318v680l-136 -75l-109 205zM1830 451l-164 -180h260v-271h-659v244l318 352q38 41 38 78q0 20 -12 32.5t-31 12.5q-42 0 -63 -77l-279 81q19 117 115 194.5t234 77.5q149 0 248.5 -79.5t99.5 -199.5
q0 -149 -105 -265z" />
    <glyph glyph-name="threequarters" unicode="&#xbe;" horiz-adv-x="2017" 
d="M446 785q0 33 -21.5 55t-53.5 22q-23 0 -50 -15l-123 152l171 171h-272v264h625v-250l-165 -149q102 -38 157 -112t55 -175q0 -132 -110 -221t-271 -89q-111 0 -204 46.5t-143 128.5l180 188q66 -93 150 -93q32 0 53.5 21.5t21.5 55.5zM512 0l700 1434h293l-698 -1434
h-295zM1205 151v226l391 594h275v-576h102v-244h-102v-151h-288v151h-378zM1443 395h140v209z" />
    <glyph glyph-name="questiondown" unicode="&#xbf;" horiz-adv-x="1153" 
d="M866 586v-371q-169 0 -252.5 -39t-83.5 -106q0 -40 35 -65t92 -25q131 0 267 106l176 -328q-96 -71 -222.5 -113t-248.5 -42q-230 0 -383.5 130.5t-153.5 325.5q0 143 90 260t246 166v101h438zM901 862q0 -94 -73 -158.5t-181 -64.5t-181 64.5t-73 158.5t73 158.5
t181 64.5t181 -64.5t73 -158.5z" />
    <glyph glyph-name="Agrave" unicode="&#xc0;" horiz-adv-x="1437" 
d="M481 1434h475l467 -1434h-446l-67 252h-384l-65 -252h-447zM719 985l-108 -410h215zM760 1894l232 -350h-391l-269 350h428z" />
    <glyph glyph-name="Aacute" unicode="&#xc1;" horiz-adv-x="1437" 
d="M481 1434h475l467 -1434h-446l-67 252h-384l-65 -252h-447zM719 985l-108 -410h215zM439 1544l233 350h428l-270 -350h-391z" />
    <glyph glyph-name="Acircumflex" unicode="&#xc2;" horiz-adv-x="1437" 
d="M481 1434h475l467 -1434h-446l-67 252h-384l-65 -252h-447zM719 985l-108 -410h215zM881 1894l299 -350h-381l-80 113l-80 -113h-381l299 350h324z" />
    <glyph glyph-name="Atilde" unicode="&#xc3;" horiz-adv-x="1437" 
d="M481 1434h475l467 -1434h-446l-67 252h-384l-65 -252h-447zM719 985l-108 -410h215zM728 1582q-60 32 -81 32q-32 0 -46 -68l-309 59q21 128 86.5 194t167.5 66q89 0 164 -41q60 -32 81 -32q32 0 46 68l309 -59q-21 -128 -86.5 -194t-167.5 -66q-89 0 -164 41z" />
    <glyph glyph-name="Adieresis" unicode="&#xc4;" horiz-adv-x="1437" 
d="M481 1434h475l467 -1434h-446l-67 252h-384l-65 -252h-447zM719 985l-108 -410h215zM298 1704q0 82 56.5 137t140.5 55t140 -55t56 -137t-56 -137.5t-140 -55.5t-140.5 55.5t-56.5 137.5zM746 1704q0 82 56.5 137t140.5 55t140.5 -55t56.5 -137t-56.5 -137.5
t-140.5 -55.5t-140.5 55.5t-56.5 137.5z" />
    <glyph glyph-name="Aring" unicode="&#xc5;" horiz-adv-x="1437" 
d="M481 1434h475l467 -1434h-446l-67 252h-384l-65 -252h-447zM719 985l-108 -410h215zM664 1726q0 -23 15 -38t40 -15t40 15t15 38q0 24 -15 39t-40 15t-40 -15t-15 -39zM457 1726q0 101 76 170t186 69t186 -69t76 -170t-75.5 -169.5t-186.5 -68.5t-186.5 68.5t-75.5 169.5
z" />
    <glyph glyph-name="AE" unicode="&#xc6;" horiz-adv-x="1955" 
d="M457 0h-447l740 1434h1105v-365h-516v-170h467v-356h-467v-178h535v-365h-963v252h-340zM911 995l-191 -420h191v420z" />
    <glyph glyph-name="Ccedilla" unicode="&#xc7;" horiz-adv-x="1449" 
d="M839 -307q0 21 -22.5 33t-59.5 12q-43 0 -70 -4l-70 76l94 178q-184 30 -330 131.5t-228.5 258t-82.5 339.5q0 154 60.5 291.5t164.5 236t249.5 156t309.5 57.5q305 0 522 -182l-223 -318q-127 123 -299 123q-149 0 -247.5 -103.5t-98.5 -260.5t98.5 -261t247.5 -104
q87 0 168.5 38t142.5 99l232 -315q-175 -153 -413 -188l-70 -103q88 -23 141.5 -75t53.5 -119q0 -94 -97.5 -157.5t-242.5 -63.5q-155 0 -252 70l98 153q27 -20 67 -31.5t75 -11.5q37 0 59.5 12t22.5 33z" />
    <glyph glyph-name="Egrave" unicode="&#xc8;" horiz-adv-x="1191" 
d="M137 0v1434h955v-365h-517v-170h467v-356h-467v-178h535v-365h-973zM611 1894l233 -350h-391l-270 350h428z" />
    <glyph glyph-name="Eacute" unicode="&#xc9;" horiz-adv-x="1191" 
d="M137 0v1434h955v-365h-517v-170h467v-356h-467v-178h535v-365h-973zM326 1544l232 350h428l-269 -350h-391z" />
    <glyph glyph-name="Ecircumflex" unicode="&#xca;" horiz-adv-x="1191" 
d="M137 0v1434h955v-365h-517v-170h467v-356h-467v-178h535v-365h-973zM769 1894l299 -350h-381l-80 113l-80 -113h-381l299 350h324z" />
    <glyph glyph-name="Edieresis" unicode="&#xcb;" horiz-adv-x="1191" 
d="M137 0v1434h955v-365h-517v-170h467v-356h-467v-178h535v-365h-973zM202 1704q0 82 56 137t140 55t140.5 -55t56.5 -137t-56.5 -137.5t-140.5 -55.5t-140 55.5t-56 137.5zM650 1704q0 82 56.5 137t140.5 55t140 -55t56 -137t-56 -137.5t-140 -55.5t-140.5 55.5
t-56.5 137.5z" />
    <glyph glyph-name="Igrave" unicode="&#xcc;" horiz-adv-x="712" 
d="M575 1434v-1434h-438v1434h438zM396 1894l233 -350h-391l-270 350h428z" />
    <glyph glyph-name="Iacute" unicode="&#xcd;" horiz-adv-x="712" 
d="M575 1434v-1434h-438v1434h438zM84 1544l232 350h428l-269 -350h-391z" />
    <glyph glyph-name="Icircumflex" unicode="&#xce;" horiz-adv-x="712" 
d="M575 1434v-1434h-438v1434h438zM518 1894l299 -350h-381l-80 113l-80 -113h-380l299 350h323z" />
    <glyph glyph-name="Idieresis" unicode="&#xcf;" horiz-adv-x="712" 
d="M575 1434v-1434h-438v1434h438zM-65 1704q0 82 56.5 137t140.5 55t140.5 -55t56.5 -137t-56.5 -137.5t-140.5 -55.5t-140.5 55.5t-56.5 137.5zM384 1704q0 82 56.5 137t140.5 55t140 -55t56 -137t-56 -137.5t-140 -55.5t-140.5 55.5t-56.5 137.5z" />
    <glyph glyph-name="Eth" unicode="&#xd0;" horiz-adv-x="1538" 
d="M750 0h-566v598h-164v238h164v598h566q208 0 372 -91t255 -254.5t91 -371.5t-91 -371.5t-255 -254.5t-372 -91zM623 377h86q149 0 235 91.5t86 248.5t-86 248.5t-235 91.5h-86v-221h176v-238h-176v-221z" />
    <glyph glyph-name="Ntilde" unicode="&#xd1;" horiz-adv-x="1470" 
d="M744 1582q-60 32 -80 32q-33 0 -47 -68l-309 59q21 128 86.5 194t167.5 66q89 0 164 -41q60 -32 81 -32q32 0 46 68l309 -59q-21 -128 -86.5 -194t-167.5 -66q-89 0 -164 41zM137 0v1434h479l320 -832v832h397v-1434h-479l-319 831v-831h-398z" />
    <glyph glyph-name="Ograve" unicode="&#xd2;" horiz-adv-x="1708" 
d="M508 717q0 -157 98.5 -261t247.5 -104t247.5 104t98.5 261t-98.5 260.5t-247.5 103.5t-247.5 -103.5t-98.5 -260.5zM70 717q0 154 60.5 291.5t164.5 236t249.5 156t309.5 57.5t309.5 -57.5t249.5 -156t164.5 -236t60.5 -291.5t-60.5 -291.5t-164.5 -236.5t-249.5 -156.5
t-309.5 -57.5t-309.5 57.5t-249.5 156.5t-164.5 236.5t-60.5 291.5zM854 1894l232 -350h-391l-269 350h428z" />
    <glyph glyph-name="Oacute" unicode="&#xd3;" horiz-adv-x="1708" 
d="M508 717q0 -157 98.5 -261t247.5 -104t247.5 104t98.5 261t-98.5 260.5t-247.5 103.5t-247.5 -103.5t-98.5 -260.5zM70 717q0 154 60.5 291.5t164.5 236t249.5 156t309.5 57.5t309.5 -57.5t249.5 -156t164.5 -236t60.5 -291.5t-60.5 -291.5t-164.5 -236.5t-249.5 -156.5
t-309.5 -57.5t-309.5 57.5t-249.5 156.5t-164.5 236.5t-60.5 291.5zM622 1544l232 350h428l-269 -350h-391z" />
    <glyph glyph-name="Ocircumflex" unicode="&#xd4;" horiz-adv-x="1708" 
d="M508 717q0 -157 98.5 -261t247.5 -104t247.5 104t98.5 261t-98.5 260.5t-247.5 103.5t-247.5 -103.5t-98.5 -260.5zM70 717q0 154 60.5 291.5t164.5 236t249.5 156t309.5 57.5t309.5 -57.5t249.5 -156t164.5 -236t60.5 -291.5t-60.5 -291.5t-164.5 -236.5t-249.5 -156.5
t-309.5 -57.5t-309.5 57.5t-249.5 156.5t-164.5 236.5t-60.5 291.5zM1016 1894l299 -350h-381l-80 113l-80 -113h-381l299 350h324z" />
    <glyph glyph-name="Otilde" unicode="&#xd5;" horiz-adv-x="1708" 
d="M508 717q0 -157 98.5 -261t247.5 -104t247.5 104t98.5 261t-98.5 260.5t-247.5 103.5t-247.5 -103.5t-98.5 -260.5zM70 717q0 154 60.5 291.5t164.5 236t249.5 156t309.5 57.5t309.5 -57.5t249.5 -156t164.5 -236t60.5 -291.5t-60.5 -291.5t-164.5 -236.5t-249.5 -156.5
t-309.5 -57.5t-309.5 57.5t-249.5 156.5t-164.5 236.5t-60.5 291.5zM863 1582q-60 32 -81 32q-32 0 -46 -68l-309 59q21 128 86.5 194t167.5 66q89 0 164 -41q60 -32 81 -32q32 0 46 68l309 -59q-21 -128 -86.5 -194t-167.5 -66q-89 0 -164 41z" />
    <glyph glyph-name="Odieresis" unicode="&#xd6;" horiz-adv-x="1708" 
d="M508 717q0 -157 98.5 -261t247.5 -104t247.5 104t98.5 261t-98.5 260.5t-247.5 103.5t-247.5 -103.5t-98.5 -260.5zM70 717q0 154 60.5 291.5t164.5 236t249.5 156t309.5 57.5t309.5 -57.5t249.5 -156t164.5 -236t60.5 -291.5t-60.5 -291.5t-164.5 -236.5t-249.5 -156.5
t-309.5 -57.5t-309.5 57.5t-249.5 156.5t-164.5 236.5t-60.5 291.5zM433 1704q0 82 56.5 137t140.5 55t140 -55t56 -137t-56 -137.5t-140 -55.5t-140.5 55.5t-56.5 137.5zM882 1704q0 82 56 137t140 55t140.5 -55t56.5 -137t-56.5 -137.5t-140.5 -55.5t-140 55.5t-56 137.5z
" />
    <glyph glyph-name="multiply" unicode="&#xd7;" horiz-adv-x="1212" 
d="M86 440l250 243l-250 243l267 265l253 -246l253 246l267 -265l-249 -243l249 -243l-267 -265l-253 246l-253 -246z" />
    <glyph glyph-name="Oslash" unicode="&#xd8;" horiz-adv-x="1708" 
d="M70 717q0 154 60.5 291.5t164.5 236t249.5 156t309.5 57.5q184 0 348 -74l84 111h293l-181 -238q114 -102 177 -241t63 -299q0 -154 -60.5 -291.5t-164.5 -236.5t-249.5 -156.5t-309.5 -57.5q-198 0 -370 83l-91 -119h-293l193 252q-106 101 -164.5 236.5t-58.5 289.5z
M1206 717q0 117 -60 210l-422 -554q62 -25 130 -25q149 0 250.5 106.5t101.5 262.5zM502 717q0 -105 48 -190l412 541q-53 17 -108 17q-149 0 -250.5 -106.5t-101.5 -261.5z" />
    <glyph glyph-name="Ugrave" unicode="&#xd9;" horiz-adv-x="1388" 
d="M692 1894l233 -350h-391l-270 350h428zM561 1434v-955q0 -54 37.5 -89.5t95.5 -35.5t95.5 35.5t37.5 89.5v955h439v-988q0 -129 -76 -237t-207.5 -170t-288.5 -62q-118 0 -223.5 36.5t-182 99.5t-121 149.5t-44.5 183.5v988h438z" />
    <glyph glyph-name="Uacute" unicode="&#xda;" horiz-adv-x="1388" 
d="M462 1544l232 350h428l-269 -350h-391zM561 1434v-955q0 -54 37.5 -89.5t95.5 -35.5t95.5 35.5t37.5 89.5v955h439v-988q0 -129 -76 -237t-207.5 -170t-288.5 -62q-118 0 -223.5 36.5t-182 99.5t-121 149.5t-44.5 183.5v988h438z" />
    <glyph glyph-name="Ucircumflex" unicode="&#xdb;" horiz-adv-x="1388" 
d="M856 1894l299 -350h-381l-80 113l-80 -113h-381l299 350h324zM561 1434v-955q0 -54 37.5 -89.5t95.5 -35.5t95.5 35.5t37.5 89.5v955h439v-988q0 -129 -76 -237t-207.5 -170t-288.5 -62q-118 0 -223.5 36.5t-182 99.5t-121 149.5t-44.5 183.5v988h438z" />
    <glyph glyph-name="Udieresis" unicode="&#xdc;" horiz-adv-x="1388" 
d="M273 1704q0 82 56.5 137t140.5 55t140.5 -55t56.5 -137t-56.5 -137.5t-140.5 -55.5t-140.5 55.5t-56.5 137.5zM722 1704q0 82 56.5 137t140.5 55t140 -55t56 -137t-56 -137.5t-140 -55.5t-140.5 55.5t-56.5 137.5zM561 1434v-955q0 -54 37.5 -89.5t95.5 -35.5t95.5 35.5
t37.5 89.5v955h439v-988q0 -129 -76 -237t-207.5 -170t-288.5 -62q-118 0 -223.5 36.5t-182 99.5t-121 149.5t-44.5 183.5v988h438z" />
    <glyph glyph-name="Yacute" unicode="&#xdd;" horiz-adv-x="1372" 
d="M492 1434l194 -488l195 488h477l-453 -887v-547h-438v547l-453 887h478zM454 1544l232 350h428l-269 -350h-391z" />
    <glyph glyph-name="Thorn" unicode="&#xde;" horiz-adv-x="1271" 
d="M715 219h-140v-219h-438v1434h438v-220h140q220 0 368 -142.5t148 -354.5t-148 -355t-368 -143zM575 551h76q67 0 110.5 47t43.5 119t-43.5 119t-110.5 47h-76v-332z" />
    <glyph glyph-name="germandbls" unicode="&#xdf;" horiz-adv-x="1286" 
d="M123 0v1043q0 175 139 295t342 120q202 0 341.5 -109.5t139.5 -268.5q0 -100 -64.5 -188.5t-168.5 -128.5q162 -20 267.5 -128.5t105.5 -260.5q0 -168 -125.5 -283.5t-308.5 -115.5q-125 0 -231 59l69 323q56 -46 94 -46q34 0 55 32t21 82q0 158 -226 165v332
q53 1 86 34.5t33 82.5q0 37 -24 60t-59 23q-36 0 -59.5 -27t-23.5 -72v-1023h-403z" />
    <glyph glyph-name="agrave" unicode="&#xe0;" horiz-adv-x="1357" 
d="M829 0v82q-54 -48 -130.5 -77.5t-155.5 -29.5q-135 0 -247.5 73t-177.5 200.5t-65 281.5t65 281.5t177.5 200.5t247.5 73q80 0 156 -29t130 -77v82h414v-1061h-414zM829 451v159q-22 48 -67.5 77.5t-104.5 29.5q-82 0 -135 -53.5t-53 -133.5t52.5 -133t135.5 -53
q59 0 104.5 29.5t67.5 77.5zM724 1563l232 -351h-391l-269 351h428z" />
    <glyph glyph-name="aacute" unicode="&#xe1;" horiz-adv-x="1357" 
d="M829 0v82q-54 -48 -130.5 -77.5t-155.5 -29.5q-135 0 -247.5 73t-177.5 200.5t-65 281.5t65 281.5t177.5 200.5t247.5 73q80 0 156 -29t130 -77v82h414v-1061h-414zM829 451v159q-22 48 -67.5 77.5t-104.5 29.5q-82 0 -135 -53.5t-53 -133.5t52.5 -133t135.5 -53
q59 0 104.5 29.5t67.5 77.5zM422 1212l232 351h428l-269 -351h-391z" />
    <glyph glyph-name="acircumflex" unicode="&#xe2;" horiz-adv-x="1357" 
d="M829 0v82q-54 -48 -130.5 -77.5t-155.5 -29.5q-135 0 -247.5 73t-177.5 200.5t-65 281.5t65 281.5t177.5 200.5t247.5 73q80 0 156 -29t130 -77v82h414v-1061h-414zM829 451v159q-22 48 -67.5 77.5t-104.5 29.5q-82 0 -135 -53.5t-53 -133.5t52.5 -133t135.5 -53
q59 0 104.5 29.5t67.5 77.5zM856 1563l299 -351h-381l-80 113l-80 -113h-381l299 351h324z" />
    <glyph glyph-name="atilde" unicode="&#xe3;" horiz-adv-x="1357" 
d="M829 0v82q-54 -48 -130.5 -77.5t-155.5 -29.5q-135 0 -247.5 73t-177.5 200.5t-65 281.5t65 281.5t177.5 200.5t247.5 73q80 0 156 -29t130 -77v82h414v-1061h-414zM829 451v159q-22 48 -67.5 77.5t-104.5 29.5q-82 0 -135 -53.5t-53 -133.5t52.5 -133t135.5 -53
q59 0 104.5 29.5t67.5 77.5zM695 1240q-60 32 -81 32q-32 0 -46 -68l-309 59q21 128 86.5 194t167.5 66q89 0 164 -41q60 -32 81 -32q32 0 46 68l309 -59q-21 -128 -86.5 -194t-167.5 -66q-89 0 -164 41z" />
    <glyph glyph-name="adieresis" unicode="&#xe4;" horiz-adv-x="1357" 
d="M829 0v82q-54 -48 -130.5 -77.5t-155.5 -29.5q-135 0 -247.5 73t-177.5 200.5t-65 281.5t65 281.5t177.5 200.5t247.5 73q80 0 156 -29t130 -77v82h414v-1061h-414zM829 451v159q-22 48 -67.5 77.5t-104.5 29.5q-82 0 -135 -53.5t-53 -133.5t52.5 -133t135.5 -53
q59 0 104.5 29.5t67.5 77.5zM250 1372q0 82 56 137.5t140 55.5t140.5 -55.5t56.5 -137.5t-56.5 -137t-140.5 -55t-140 55t-56 137zM698 1372q0 82 56.5 137.5t140.5 55.5t140.5 -55.5t56.5 -137.5t-56.5 -137t-140.5 -55t-140.5 55t-56.5 137z" />
    <glyph glyph-name="aring" unicode="&#xe5;" horiz-adv-x="1357" 
d="M829 0v82q-54 -48 -130.5 -77.5t-155.5 -29.5q-135 0 -247.5 73t-177.5 200.5t-65 281.5t65 281.5t177.5 200.5t247.5 73q80 0 156 -29t130 -77v82h414v-1061h-414zM829 451v159q-22 48 -67.5 77.5t-104.5 29.5q-82 0 -135 -53.5t-53 -133.5t52.5 -133t135.5 -53
q59 0 104.5 29.5t67.5 77.5zM621 1395q0 -23 15.5 -38.5t39.5 -15.5t39.5 15.5t15.5 38.5t-15 38t-40 15t-40 -15t-15 -38zM414 1395q0 101 75.5 169.5t186.5 68.5t186.5 -68.5t75.5 -169.5t-76 -170t-186 -69t-186 69t-76 170z" />
    <glyph glyph-name="ae" unicode="&#xe6;" horiz-adv-x="2107" 
d="M1314 424q28 -154 199 -154q133 0 259 113l196 -215q-178 -193 -469 -193q-145 0 -267.5 57.5t-202.5 156.5q-68 -100 -190.5 -157t-268.5 -57q-219 0 -368 106t-149 261q0 146 141 246t346 100q154 0 279 -76q-1 85 -68 132t-182 47q-182 0 -319 -109l-119 254
q78 71 199 110t251 39q143 0 263 -54.5t190 -152.5q83 97 198.5 152t250.5 55q160 0 291.5 -71.5t205.5 -195t74 -273.5q0 -63 -20 -121h-720zM471 342q0 -41 42 -67.5t105 -26.5q118 0 199 79v40q-78 69 -199 69q-63 0 -105 -26.5t-42 -67.5zM1475 791q-135 0 -160 -144
h315q-11 74 -48.5 109t-106.5 35z" />
    <glyph glyph-name="ccedilla" unicode="&#xe7;" horiz-adv-x="1161" 
d="M634 -307q0 21 -22.5 33t-59.5 12q-43 0 -70 -4l-69 76l95 182q-201 44 -328 192t-127 346q0 154 79 281.5t218 200.5t307 73q127 0 238.5 -42.5t194.5 -118.5l-193 -295q-111 88 -231 88q-83 0 -136 -53.5t-53 -133.5t53 -133t136 -53q111 0 243 102l215 -274
q-135 -147 -344 -185l-70 -104q88 -23 141 -74.5t53 -119.5q0 -94 -97.5 -157.5t-242.5 -63.5q-155 0 -252 70l99 153q59 -43 141 -43q37 0 59.5 12t22.5 33z" />
    <glyph glyph-name="egrave" unicode="&#xe8;" horiz-adv-x="1269" 
d="M476 424q28 -154 200 -154q132 0 258 113l196 -215q-178 -193 -468 -193q-130 0 -244 43t-193.5 117t-125.5 176.5t-46 218.5q0 154 78 281.5t213.5 200.5t300.5 73q160 0 291.5 -71.5t206 -195t74.5 -273.5q0 -60 -21 -121h-720zM637 791q-135 0 -160 -144h316
q-11 74 -49 109t-107 35zM636 1563l232 -351h-391l-269 351h428z" />
    <glyph glyph-name="eacute" unicode="&#xe9;" horiz-adv-x="1269" 
d="M476 424q28 -154 200 -154q132 0 258 113l196 -215q-178 -193 -468 -193q-130 0 -244 43t-193.5 117t-125.5 176.5t-46 218.5q0 154 78 281.5t213.5 200.5t300.5 73q160 0 291.5 -71.5t206 -195t74.5 -273.5q0 -60 -21 -121h-720zM637 791q-135 0 -160 -144h316
q-11 74 -49 109t-107 35zM404 1212l233 351h428l-269 -351h-392z" />
    <glyph glyph-name="ecircumflex" unicode="&#xea;" horiz-adv-x="1269" 
d="M476 424q28 -154 200 -154q132 0 258 113l196 -215q-178 -193 -468 -193q-130 0 -244 43t-193.5 117t-125.5 176.5t-46 218.5q0 154 78 281.5t213.5 200.5t300.5 73q160 0 291.5 -71.5t206 -195t74.5 -273.5q0 -60 -21 -121h-720zM637 791q-135 0 -160 -144h316
q-11 74 -49 109t-107 35zM797 1563l299 -351h-381l-80 113l-80 -113h-381l299 351h324z" />
    <glyph glyph-name="edieresis" unicode="&#xeb;" horiz-adv-x="1269" 
d="M476 424q28 -154 200 -154q132 0 258 113l196 -215q-178 -193 -468 -193q-130 0 -244 43t-193.5 117t-125.5 176.5t-46 218.5q0 154 78 281.5t213.5 200.5t300.5 73q160 0 291.5 -71.5t206 -195t74.5 -273.5q0 -60 -21 -121h-720zM637 791q-135 0 -160 -144h316
q-11 74 -49 109t-107 35zM214 1372q0 82 56.5 137.5t140.5 55.5t140 -55.5t56 -137.5t-56 -137t-140 -55t-140.5 55t-56.5 137zM663 1372q0 82 56 137.5t140 55.5t140.5 -55.5t56.5 -137.5t-56.5 -137t-140.5 -55t-140 55t-56 137z" />
    <glyph glyph-name="igrave" unicode="&#xec;" horiz-adv-x="638" 
d="M106 0v1061h426v-1061h-426zM352 1563l233 -351h-391l-270 351h428z" />
    <glyph glyph-name="iacute" unicode="&#xed;" horiz-adv-x="638" 
d="M106 0v1061h426v-1061h-426zM54 1212l233 351h428l-270 -351h-391z" />
    <glyph glyph-name="icircumflex" unicode="&#xee;" horiz-adv-x="638" 
d="M106 0v1061h426v-1061h-426zM481 1563l299 -351h-381l-80 113l-79 -113h-381l299 351h323z" />
    <glyph glyph-name="idieresis" unicode="&#xef;" horiz-adv-x="638" 
d="M106 0v1061h426v-1061h-426zM-101 1372q0 82 56 137.5t140 55.5t140.5 -55.5t56.5 -137.5t-56.5 -137t-140.5 -55t-140 55t-56 137zM347 1372q0 82 56.5 137.5t140.5 55.5t140 -55.5t56 -137.5t-56 -137t-140 -55t-140.5 55t-56.5 137z" />
    <glyph glyph-name="eth" unicode="&#xf0;" horiz-adv-x="1297" 
d="M340 1008l-94 147l144 74q-63 33 -163 74l340 192q103 -55 160 -94l164 84l94 -158l-98 -49q168 -151 257 -338t89 -399q0 -117 -43 -220.5t-119.5 -180t-187.5 -121t-240 -44.5q-122 0 -231.5 41t-188 111t-124.5 167.5t-46 205.5q0 88 31.5 170t85.5 143.5t122.5 108
t145.5 70.5t152 24q58 0 102 -26q-50 66 -129 128zM465 514q0 -72 52 -121t128 -49t128 49t52 121t-52 121t-128 49t-128 -49t-52 -121z" />
    <glyph glyph-name="ntilde" unicode="&#xf1;" horiz-adv-x="1273" 
d="M541 649v-649h-426v1061h426v-96q37 57 100.5 88.5t138.5 31.5q170 0 285 -114.5t115 -284.5v-686h-426v608q0 46 -31 77.5t-80 31.5q-34 0 -62 -19t-40 -49zM656 1240q-60 32 -81 32q-32 0 -46 -68l-309 59q21 128 86.5 194t167.5 66q89 0 164 -41q60 -32 81 -32
q32 0 46 68l309 -59q-21 -128 -86.5 -194t-167.5 -66q-89 0 -164 41z" />
    <glyph glyph-name="ograve" unicode="&#xf2;" horiz-adv-x="1314" 
d="M657 1563l233 -351h-391l-270 351h428zM53 530q0 154 79 281.5t218 200.5t307 73t307 -73t218.5 -200.5t79.5 -281.5t-79.5 -281.5t-218.5 -200.5t-307 -73t-307 73t-218 200.5t-79 281.5zM469 530q0 -80 52.5 -133t135.5 -53t136 53t53 133t-53 133.5t-136 53.5
q-82 0 -135 -53.5t-53 -133.5z" />
    <glyph glyph-name="oacute" unicode="&#xf3;" horiz-adv-x="1314" 
d="M425 1212l232 351h428l-269 -351h-391zM53 530q0 154 79 281.5t218 200.5t307 73t307 -73t218.5 -200.5t79.5 -281.5t-79.5 -281.5t-218.5 -200.5t-307 -73t-307 73t-218 200.5t-79 281.5zM469 530q0 -80 52.5 -133t135.5 -53t136 53t53 133t-53 133.5t-136 53.5
q-82 0 -135 -53.5t-53 -133.5z" />
    <glyph glyph-name="ocircumflex" unicode="&#xf4;" horiz-adv-x="1314" 
d="M819 1563l299 -351h-381l-80 113l-79 -113h-381l299 351h323zM53 530q0 154 79 281.5t218 200.5t307 73t307 -73t218.5 -200.5t79.5 -281.5t-79.5 -281.5t-218.5 -200.5t-307 -73t-307 73t-218 200.5t-79 281.5zM469 530q0 -80 52.5 -133t135.5 -53t136 53t53 133
t-53 133.5t-136 53.5q-82 0 -135 -53.5t-53 -133.5z" />
    <glyph glyph-name="otilde" unicode="&#xf5;" horiz-adv-x="1314" 
d="M667 1240q-60 32 -81 32q-32 0 -46 -68l-310 59q21 128 86.5 194t167.5 66q89 0 164 -41q60 -32 81 -32q32 0 46 68l309 -59q-21 -128 -86.5 -194t-167.5 -66q-88 0 -163 41zM53 530q0 154 79 281.5t218 200.5t307 73t307 -73t218.5 -200.5t79.5 -281.5t-79.5 -281.5
t-218.5 -200.5t-307 -73t-307 73t-218 200.5t-79 281.5zM469 530q0 -80 52.5 -133t135.5 -53t136 53t53 133t-53 133.5t-136 53.5q-82 0 -135 -53.5t-53 -133.5z" />
    <glyph glyph-name="odieresis" unicode="&#xf6;" horiz-adv-x="1314" 
d="M237 1372q0 82 56 137.5t140 55.5t140.5 -55.5t56.5 -137.5t-56.5 -137t-140.5 -55t-140 55t-56 137zM685 1372q0 82 56.5 137.5t140.5 55.5t140 -55.5t56 -137.5t-56 -137t-140 -55t-140.5 55t-56.5 137zM53 530q0 154 79 281.5t218 200.5t307 73t307 -73t218.5 -200.5
t79.5 -281.5t-79.5 -281.5t-218.5 -200.5t-307 -73t-307 73t-218 200.5t-79 281.5zM469 530q0 -80 52.5 -133t135.5 -53t136 53t53 133t-53 133.5t-136 53.5q-82 0 -135 -53.5t-53 -133.5z" />
    <glyph glyph-name="divide" unicode="&#xf7;" horiz-adv-x="1212" 
d="M1098 502h-983v356h983v-356zM377 1118q0 90 62.5 151.5t154.5 61.5t154.5 -61.5t62.5 -151.5t-62.5 -151.5t-154.5 -61.5t-154.5 61.5t-62.5 151.5zM377 242q0 90 62.5 151.5t154.5 61.5t154.5 -61.5t62.5 -151.5t-62.5 -151.5t-154.5 -61.5t-154.5 61.5t-62.5 151.5z
" />
    <glyph glyph-name="oslash" unicode="&#xf8;" horiz-adv-x="1314" 
d="M53 530q0 154 79 281.5t218 200.5t307 73q139 0 256 -50l68 87h264l-154 -199q81 -76 126 -177.5t45 -215.5q0 -154 -79.5 -281.5t-218.5 -200.5t-307 -73q-134 0 -258 51l-67 -87h-264l154 200q-80 76 -124.5 176.5t-44.5 214.5zM897 530q0 56 -26 108l-263 -341
q21 -4 49 -4q101 0 170.5 68.5t69.5 168.5zM418 530q0 -57 23 -106l262 340q-28 4 -46 4q-101 0 -170 -69t-69 -169z" />
    <glyph glyph-name="ugrave" unicode="&#xf9;" horiz-adv-x="1273" 
d="M733 412v649h426v-1061h-426v96q-37 -57 -100.5 -89t-138.5 -32q-170 0 -285 115t-115 285v686h426v-608q0 -46 31 -77.5t80 -31.5q34 0 62 19t40 49zM627 1563l232 -351h-391l-269 351h428z" />
    <glyph glyph-name="uacute" unicode="&#xfa;" horiz-adv-x="1273" 
d="M733 412v649h426v-1061h-426v96q-37 -57 -100.5 -89t-138.5 -32q-170 0 -285 115t-115 285v686h426v-608q0 -46 31 -77.5t80 -31.5q34 0 62 19t40 49zM395 1212l233 351h428l-270 -351h-391z" />
    <glyph glyph-name="ucircumflex" unicode="&#xfb;" horiz-adv-x="1273" 
d="M733 412v649h426v-1061h-426v96q-37 -57 -100.5 -89t-138.5 -32q-170 0 -285 115t-115 285v686h426v-608q0 -46 31 -77.5t80 -31.5q34 0 62 19t40 49zM788 1563l299 -351h-380l-80 113l-80 -113h-381l299 351h323z" />
    <glyph glyph-name="udieresis" unicode="&#xfc;" horiz-adv-x="1273" 
d="M733 412v649h426v-1061h-426v96q-37 -57 -100.5 -89t-138.5 -32q-170 0 -285 115t-115 285v686h426v-608q0 -46 31 -77.5t80 -31.5q34 0 62 19t40 49zM206 1372q0 82 56 137.5t140 55.5t140.5 -55.5t56.5 -137.5t-56.5 -137t-140.5 -55t-140 55t-56 137zM654 1372
q0 82 56.5 137.5t140.5 55.5t140.5 -55.5t56.5 -137.5t-56.5 -137t-140.5 -55t-140.5 55t-56.5 137z" />
    <glyph glyph-name="yacute" unicode="&#xfd;" horiz-adv-x="1155" 
d="M692 1061h447l-518 -1536h-449l203 475l-359 1061h447l115 -518zM346 1212l233 351h428l-270 -351h-391z" />
    <glyph glyph-name="thorn" unicode="&#xfe;" horiz-adv-x="1357" 
d="M528 82v-557h-413v1970h413v-516q54 48 130.5 77t156.5 29q135 0 247.5 -73t177.5 -200.5t65 -281.5t-65 -281.5t-177.5 -200.5t-247.5 -73q-80 0 -156.5 29.5t-130.5 77.5zM528 610v-159q22 -48 67.5 -77.5t104.5 -29.5q83 0 136 53t53 133t-53 133.5t-136 53.5
q-59 0 -104.5 -29.5t-67.5 -77.5z" />
    <glyph glyph-name="ydieresis" unicode="&#xff;" horiz-adv-x="1155" 
d="M157 1372q0 82 56 137.5t140 55.5t140.5 -55.5t56.5 -137.5t-56.5 -137t-140.5 -55t-140 55t-56 137zM605 1372q0 82 56.5 137.5t140.5 55.5t140 -55.5t56 -137.5t-56 -137t-140 -55t-140.5 55t-56.5 137zM692 1061h447l-518 -1536h-449l203 475l-359 1061h447l115 -518z
" />
    <glyph glyph-name="Amacron" unicode="&#x100;" horiz-adv-x="1437" 
d="M481 1434h475l467 -1434h-446l-67 252h-384l-65 -252h-447zM719 985l-108 -410h215zM371 1552v303h696v-303h-696z" />
    <glyph glyph-name="amacron" unicode="&#x101;" horiz-adv-x="1357" 
d="M829 0v82q-54 -48 -130.5 -77.5t-155.5 -29.5q-135 0 -247.5 73t-177.5 200.5t-65 281.5t65 281.5t177.5 200.5t247.5 73q80 0 156 -29t130 -77v82h414v-1061h-414zM829 451v159q-22 48 -67.5 77.5t-104.5 29.5q-82 0 -135 -53.5t-53 -133.5t52.5 -133t135.5 -53
q59 0 104.5 29.5t67.5 77.5zM323 1221v303h696v-303h-696z" />
    <glyph glyph-name="Abreve" unicode="&#x102;" horiz-adv-x="1437" 
d="M481 1434h475l467 -1434h-446l-67 252h-384l-65 -252h-447zM719 985l-108 -410h215zM719 1524q-163 0 -284 91t-124 230h322q1 -34 26 -56t60 -22t60 22t26 56h321q-3 -139 -123.5 -230t-283.5 -91z" />
    <glyph glyph-name="abreve" unicode="&#x103;" horiz-adv-x="1357" 
d="M829 0v82q-54 -48 -130.5 -77.5t-155.5 -29.5q-135 0 -247.5 73t-177.5 200.5t-65 281.5t65 281.5t177.5 200.5t247.5 73q80 0 156 -29t130 -77v82h414v-1061h-414zM829 451v159q-22 48 -67.5 77.5t-104.5 29.5q-82 0 -135 -53.5t-53 -133.5t52.5 -133t135.5 -53
q59 0 104.5 29.5t67.5 77.5zM671 1192q-163 0 -284 91t-124 230h322q1 -34 26 -55.5t60 -21.5t60 21.5t26 55.5h321q-3 -139 -123.5 -230t-283.5 -91z" />
    <glyph glyph-name="Aogonek" unicode="&#x104;" horiz-adv-x="1437" 
d="M1163 0h-186l-67 252h-384l-65 -252h-447l467 1434h475l467 -1434q-161 -128 -161 -217q0 -31 19 -51.5t48 -20.5q44 0 91 26l68 -153q-82 -53 -200 -53q-126 0 -211.5 61t-85.5 152q0 69 48.5 137.5t123.5 118.5zM719 985l-108 -410h215z" />
    <glyph glyph-name="aogonek" unicode="&#x105;" horiz-adv-x="1357" 
d="M829 0v82q-54 -48 -130.5 -77.5t-155.5 -29.5q-135 0 -247.5 73t-177.5 200.5t-65 281.5t65 281.5t177.5 200.5t247.5 73q80 0 156 -29t130 -77v82h414v-1061q-76 -61 -119 -113.5t-43 -103.5q0 -31 19.5 -51.5t48.5 -20.5q44 0 91 26l68 -153q-82 -53 -200 -53
q-126 0 -211.5 61t-85.5 152q0 69 48.5 137.5t123.5 118.5h-154zM829 451v159q-22 48 -67.5 77.5t-104.5 29.5q-82 0 -135 -53.5t-53 -133.5t52.5 -133t135.5 -53q59 0 104.5 29.5t67.5 77.5z" />
    <glyph glyph-name="Cacute" unicode="&#x106;" horiz-adv-x="1449" 
d="M854 -25q-164 0 -309.5 57.5t-249.5 156.5t-164.5 236.5t-60.5 291.5t60.5 291.5t164.5 236t249.5 156t309.5 57.5q305 0 522 -182l-223 -318q-127 123 -299 123q-149 0 -247.5 -103.5t-98.5 -260.5t98.5 -261t247.5 -104q87 0 168.5 38t142.5 99l232 -315
q-224 -199 -543 -199zM534 1544l232 350h428l-269 -350h-391z" />
    <glyph glyph-name="cacute" unicode="&#x107;" horiz-adv-x="1161" 
d="M909 446l215 -274q-85 -93 -205 -145t-262 -52q-168 0 -307 73t-218 200.5t-79 281.5t79 281.5t218 200.5t307 73q127 0 238.5 -42.5t194.5 -118.5l-193 -295q-111 88 -231 88q-83 0 -136 -53.5t-53 -133.5t53 -133t136 -53q111 0 243 102zM348 1212l233 351h428
l-270 -351h-391z" />
    <glyph glyph-name="Ccircumflex" unicode="&#x108;" horiz-adv-x="1449" 
d="M854 -25q-164 0 -309.5 57.5t-249.5 156.5t-164.5 236.5t-60.5 291.5t60.5 291.5t164.5 236t249.5 156t309.5 57.5q305 0 522 -182l-223 -318q-127 123 -299 123q-149 0 -247.5 -103.5t-98.5 -260.5t98.5 -261t247.5 -104q87 0 168.5 38t142.5 99l232 -315
q-224 -199 -543 -199zM979 1894l299 -350h-381l-80 113l-80 -113h-381l299 350h324z" />
    <glyph glyph-name="ccircumflex" unicode="&#x109;" horiz-adv-x="1161" 
d="M909 446l215 -274q-85 -93 -205 -145t-262 -52q-168 0 -307 73t-218 200.5t-79 281.5t79 281.5t218 200.5t307 73q127 0 238.5 -42.5t194.5 -118.5l-193 -295q-111 88 -231 88q-83 0 -136 -53.5t-53 -133.5t53 -133t136 -53q111 0 243 102zM784 1563l299 -351h-381
l-79 113l-80 -113h-381l299 351h323z" />
    <glyph glyph-name="Cdotaccent" unicode="&#x10a;" horiz-adv-x="1449" 
d="M854 -25q-164 0 -309.5 57.5t-249.5 156.5t-164.5 236.5t-60.5 291.5t60.5 291.5t164.5 236t249.5 156t309.5 57.5q305 0 522 -182l-223 -318q-127 123 -299 123q-149 0 -247.5 -103.5t-98.5 -260.5t98.5 -261t247.5 -104q87 0 168.5 38t142.5 99l232 -315
q-224 -199 -543 -199zM605 1704q0 85 60 144t147 59t147 -59t60 -144t-60 -144t-147 -59t-147 59t-60 144z" />
    <glyph glyph-name="cdotaccent" unicode="&#x10b;" horiz-adv-x="1161" 
d="M909 446l215 -274q-85 -93 -205 -145t-262 -52q-168 0 -307 73t-218 200.5t-79 281.5t79 281.5t218 200.5t307 73q127 0 238.5 -42.5t194.5 -118.5l-193 -295q-111 88 -231 88q-83 0 -136 -53.5t-53 -133.5t53 -133t136 -53q111 0 243 102zM425 1372q0 85 60 144t147 59
t147 -59t60 -144t-60 -144t-147 -59t-147 59t-60 144z" />
    <glyph glyph-name="Ccaron" unicode="&#x10c;" horiz-adv-x="1449" 
d="M854 -25q-164 0 -309.5 57.5t-249.5 156.5t-164.5 236.5t-60.5 291.5t60.5 291.5t164.5 236t249.5 156t309.5 57.5q305 0 522 -182l-223 -318q-127 123 -299 123q-149 0 -247.5 -103.5t-98.5 -260.5t98.5 -261t247.5 -104q87 0 168.5 38t142.5 99l232 -315
q-224 -199 -543 -199zM1278 1894l-299 -350h-324l-299 350h381l80 -112l80 112h381z" />
    <glyph glyph-name="ccaron" unicode="&#x10d;" horiz-adv-x="1161" 
d="M909 446l215 -274q-85 -93 -205 -145t-262 -52q-168 0 -307 73t-218 200.5t-79 281.5t79 281.5t218 200.5t307 73q127 0 238.5 -42.5t194.5 -118.5l-193 -295q-111 88 -231 88q-83 0 -136 -53.5t-53 -133.5t53 -133t136 -53q111 0 243 102zM1083 1542l-299 -350h-323
l-299 350h381l80 -112l79 112h381z" />
    <glyph glyph-name="Dcaron" unicode="&#x10e;" horiz-adv-x="1490" 
d="M702 0h-565v1434h565q156 0 290 -53.5t228 -147.5t147.5 -227.5t53.5 -288.5t-53.5 -288.5t-147.5 -227.5t-228 -147.5t-290 -53.5zM575 377h87q149 0 235 91.5t86 248.5t-86 248.5t-235 91.5h-87v-680zM1135 1894l-299 -350h-324l-299 350h381l80 -112l80 112h381z" />
    <glyph glyph-name="dcaron" unicode="&#x10f;" horiz-adv-x="1787" 
d="M829 0v82q-54 -48 -130.5 -77.5t-155.5 -29.5q-135 0 -247.5 73t-177.5 200.5t-65 281.5t65 281.5t177.5 200.5t247.5 73q80 0 156 -29t130 -77v516h414v-1495h-414zM829 451v159q-22 48 -67.5 77.5t-104.5 29.5q-82 0 -135 -53.5t-53 -133.5t52.5 -133t135.5 -53
q59 0 104.5 29.5t67.5 77.5zM1329 1304q0 92 63 154t156 62t156 -62t63 -154q0 -55 -25 -106l-165 -330h-237l122 244q-62 27 -97.5 77t-35.5 115z" />
    <glyph glyph-name="Dcroat" unicode="&#x110;" horiz-adv-x="1538" 
d="M750 0h-566v598h-164v238h164v598h566q208 0 372 -91t255 -254.5t91 -371.5t-91 -371.5t-255 -254.5t-372 -91zM623 377h86q149 0 235 91.5t86 248.5t-86 248.5t-235 91.5h-86v-221h176v-238h-176v-221z" />
    <glyph glyph-name="dcroat" unicode="&#x111;" horiz-adv-x="1394" 
d="M829 0v82q-54 -48 -130.5 -77.5t-155.5 -29.5q-135 0 -247.5 73t-177.5 200.5t-65 281.5t65 281.5t177.5 200.5t247.5 73q80 0 156 -29t130 -77v178h-233v217h233v121h414v-121h131v-217h-131v-1157h-414zM829 451v159q-22 48 -67.5 77.5t-104.5 29.5q-82 0 -135 -53.5
t-53 -133.5t52.5 -133t135.5 -53q59 0 104.5 29.5t67.5 77.5z" />
    <glyph glyph-name="Emacron" unicode="&#x112;" horiz-adv-x="1191" 
d="M137 0v1434h955v-365h-517v-170h467v-356h-467v-178h535v-365h-973zM252 1552v303h696v-303h-696z" />
    <glyph glyph-name="emacron" unicode="&#x113;" horiz-adv-x="1269" 
d="M476 424q28 -154 200 -154q132 0 258 113l196 -215q-178 -193 -468 -193q-130 0 -244 43t-193.5 117t-125.5 176.5t-46 218.5q0 154 78 281.5t213.5 200.5t300.5 73q160 0 291.5 -71.5t206 -195t74.5 -273.5q0 -60 -21 -121h-720zM637 791q-135 0 -160 -144h316
q-11 74 -49 109t-107 35zM287 1221v303h696v-303h-696z" />
    <glyph glyph-name="Ebreve" unicode="&#x114;" horiz-adv-x="1191" 
d="M137 0v1434h955v-365h-517v-170h467v-356h-467v-178h535v-365h-973zM610 1524q-163 0 -283.5 91t-123.5 230h321q1 -34 26 -56t60 -22t60 22t26 56h322q-3 -139 -124 -230t-284 -91z" />
    <glyph glyph-name="ebreve" unicode="&#x115;" horiz-adv-x="1269" 
d="M476 424q28 -154 200 -154q132 0 258 113l196 -215q-178 -193 -468 -193q-130 0 -244 43t-193.5 117t-125.5 176.5t-46 218.5q0 154 78 281.5t213.5 200.5t300.5 73q160 0 291.5 -71.5t206 -195t74.5 -273.5q0 -60 -21 -121h-720zM637 791q-135 0 -160 -144h316
q-11 74 -49 109t-107 35zM635 1192q-163 0 -284 91t-124 230h322q1 -34 26 -55.5t60 -21.5t60 21.5t26 55.5h321q-3 -139 -123.5 -230t-283.5 -91z" />
    <glyph glyph-name="Edotaccent" unicode="&#x116;" horiz-adv-x="1191" 
d="M137 0v1434h955v-365h-517v-170h467v-356h-467v-178h535v-365h-973zM409 1704q0 85 59.5 144t146.5 59t147 -59t60 -144t-60 -144t-147 -59t-146.5 59t-59.5 144z" />
    <glyph glyph-name="edotaccent" unicode="&#x117;" horiz-adv-x="1269" 
d="M476 424q28 -154 200 -154q132 0 258 113l196 -215q-178 -193 -468 -193q-130 0 -244 43t-193.5 117t-125.5 176.5t-46 218.5q0 154 78 281.5t213.5 200.5t300.5 73q160 0 291.5 -71.5t206 -195t74.5 -273.5q0 -60 -21 -121h-720zM637 791q-135 0 -160 -144h316
q-11 74 -49 109t-107 35zM428 1372q0 85 60 144t147 59t147 -59t60 -144t-60 -144t-147 -59t-147 59t-60 144z" />
    <glyph glyph-name="Eogonek" unicode="&#x118;" horiz-adv-x="1191" 
d="M137 0v1434h955v-365h-517v-170h467v-356h-467v-178h535v-365h-172q-76 -61 -119 -113.5t-43 -103.5q0 -29 19 -45.5t49 -16.5q44 0 91 26l67 -163q-82 -53 -199 -53q-131 0 -219 60.5t-88 152.5q0 69 51.5 136.5t130.5 119.5h-541z" />
    <glyph glyph-name="eogonek" unicode="&#x119;" horiz-adv-x="1269" 
d="M1196 424h-720q28 -154 200 -154q132 0 258 113l196 -215q-130 -142 -330 -179q-148 -119 -148 -206q0 -29 19 -45.5t49 -16.5q44 0 91 26l68 -163q-82 -53 -200 -53q-131 0 -219 60.5t-88 152.5q0 65 45.5 129t117.5 114q-215 37 -348.5 187t-133.5 356q0 154 78 281.5
t213.5 200.5t300.5 73q160 0 291.5 -71.5t206 -195t74.5 -273.5q0 -60 -21 -121zM637 791q-135 0 -160 -144h316q-11 74 -49 109t-107 35z" />
    <glyph glyph-name="Ecaron" unicode="&#x11a;" horiz-adv-x="1191" 
d="M137 0v1434h955v-365h-517v-170h467v-356h-467v-178h535v-365h-973zM1068 1894l-299 -350h-324l-299 350h381l80 -112l80 112h381z" />
    <glyph glyph-name="ecaron" unicode="&#x11b;" horiz-adv-x="1269" 
d="M476 424q28 -154 200 -154q132 0 258 113l196 -215q-178 -193 -468 -193q-130 0 -244 43t-193.5 117t-125.5 176.5t-46 218.5q0 154 78 281.5t213.5 200.5t300.5 73q160 0 291.5 -71.5t206 -195t74.5 -273.5q0 -60 -21 -121h-720zM637 791q-135 0 -160 -144h316
q-11 74 -49 109t-107 35zM1096 1542l-299 -350h-324l-299 350h381l80 -112l80 112h381z" />
    <glyph glyph-name="Gcircumflex" unicode="&#x11c;" horiz-adv-x="1517" 
d="M854 1081q-152 0 -249 -105t-97 -269q0 -158 99 -266.5t247 -108.5q62 0 109 24v172h-213v312h651v-662q-108 -98 -249 -150.5t-298 -52.5q-164 0 -309.5 57.5t-249.5 156.5t-164.5 236.5t-60.5 291.5t60.5 291.5t164.5 236t249.5 156t309.5 57.5q305 0 522 -182
l-223 -318q-127 123 -299 123zM979 1894l299 -350h-381l-80 113l-80 -113h-381l299 350h324z" />
    <glyph glyph-name="gcircumflex" unicode="&#x11d;" horiz-adv-x="1357" 
d="M829 451v159q-22 48 -67.5 77.5t-104.5 29.5q-82 0 -135 -53.5t-53 -133.5t52.5 -133t135.5 -53q59 0 104.5 29.5t67.5 77.5zM829 53v58q-54 -48 -130.5 -77.5t-155.5 -29.5q-207 0 -348.5 149.5t-141.5 376.5q0 154 65 281.5t177.5 200.5t247.5 73q80 0 156 -29t130 -77
v82h414v-983q0 -236 -166 -394.5t-413 -158.5q-155 0 -298.5 43.5t-240.5 124.5l186 292q123 -100 307 -100q95 0 153 47t58 121zM856 1563l299 -351h-381l-80 113l-80 -113h-381l299 351h324z" />
    <glyph glyph-name="Gbreve" unicode="&#x11e;" horiz-adv-x="1517" 
d="M854 1081q-152 0 -249 -105t-97 -269q0 -158 99 -266.5t247 -108.5q62 0 109 24v172h-213v312h651v-662q-108 -98 -249 -150.5t-298 -52.5q-164 0 -309.5 57.5t-249.5 156.5t-164.5 236.5t-60.5 291.5t60.5 291.5t164.5 236t249.5 156t309.5 57.5q305 0 522 -182
l-223 -318q-127 123 -299 123zM817 1524q-163 0 -283.5 91t-123.5 230h321q1 -34 26 -56t60 -22t60 22t26 56h322q-3 -139 -124 -230t-284 -91z" />
    <glyph glyph-name="gbreve" unicode="&#x11f;" horiz-adv-x="1357" 
d="M829 451v159q-22 48 -67.5 77.5t-104.5 29.5q-82 0 -135 -53.5t-53 -133.5t52.5 -133t135.5 -53q59 0 104.5 29.5t67.5 77.5zM829 53v58q-54 -48 -130.5 -77.5t-155.5 -29.5q-207 0 -348.5 149.5t-141.5 376.5q0 154 65 281.5t177.5 200.5t247.5 73q80 0 156 -29t130 -77
v82h414v-983q0 -236 -166 -394.5t-413 -158.5q-155 0 -298.5 43.5t-240.5 124.5l186 292q123 -100 307 -100q95 0 153 47t58 121zM671 1192q-163 0 -284 91t-124 230h322q1 -34 26 -55.5t60 -21.5t60 21.5t26 55.5h321q-3 -139 -123.5 -230t-283.5 -91z" />
    <glyph glyph-name="Gdotaccent" unicode="&#x120;" horiz-adv-x="1517" 
d="M854 1081q-152 0 -249 -105t-97 -269q0 -158 99 -266.5t247 -108.5q62 0 109 24v172h-213v312h651v-662q-108 -98 -249 -150.5t-298 -52.5q-164 0 -309.5 57.5t-249.5 156.5t-164.5 236.5t-60.5 291.5t60.5 291.5t164.5 236t249.5 156t309.5 57.5q305 0 522 -182
l-223 -318q-127 123 -299 123zM605 1704q0 85 60 144t147 59t147 -59t60 -144t-60 -144t-147 -59t-147 59t-60 144z" />
    <glyph glyph-name="gdotaccent" unicode="&#x121;" horiz-adv-x="1357" 
d="M829 451v159q-22 48 -67.5 77.5t-104.5 29.5q-82 0 -135 -53.5t-53 -133.5t52.5 -133t135.5 -53q59 0 104.5 29.5t67.5 77.5zM829 53v58q-54 -48 -130.5 -77.5t-155.5 -29.5q-207 0 -348.5 149.5t-141.5 376.5q0 154 65 281.5t177.5 200.5t247.5 73q80 0 156 -29t130 -77
v82h414v-983q0 -236 -166 -394.5t-413 -158.5q-155 0 -298.5 43.5t-240.5 124.5l186 292q123 -100 307 -100q95 0 153 47t58 121zM465 1372q0 85 60 144t147 59t147 -59t60 -144t-60 -144t-147 -59t-147 59t-60 144z" />
    <glyph glyph-name="Gcommaaccent" unicode="&#x122;" horiz-adv-x="1517" 
d="M854 1081q-152 0 -249 -105t-97 -269q0 -158 99 -266.5t247 -108.5q62 0 109 24v172h-213v312h651v-662q-108 -98 -249 -150.5t-298 -52.5q-164 0 -309.5 57.5t-249.5 156.5t-164.5 236.5t-60.5 291.5t60.5 291.5t164.5 236t249.5 156t309.5 57.5q305 0 522 -182
l-223 -318q-127 123 -299 123zM467 -481l162 350h448l-223 -350h-387z" />
    <glyph glyph-name="gcommaaccent" unicode="&#x123;" horiz-adv-x="1357" 
d="M829 451v159q-22 48 -67.5 77.5t-104.5 29.5q-82 0 -135 -53.5t-53 -133.5t52.5 -133t135.5 -53q59 0 104.5 29.5t67.5 77.5zM829 53v58q-54 -48 -130.5 -77.5t-155.5 -29.5q-207 0 -348.5 149.5t-141.5 376.5q0 154 65 281.5t177.5 200.5t247.5 73q80 0 156 -29t130 -77
v82h414v-983q0 -236 -166 -394.5t-413 -158.5q-155 0 -298.5 43.5t-240.5 124.5l186 292q123 -100 307 -100q95 0 153 47t58 121zM1017 1550l-162 -350h-448l223 350h387z" />
    <glyph glyph-name="Hcircumflex" unicode="&#x124;" horiz-adv-x="1470" 
d="M897 1894l299 -350h-381l-80 113l-80 -113h-381l299 350h324zM137 0v1434h438v-525h320v525h438v-1434h-438v532h-320v-532h-438z" />
    <glyph glyph-name="hcircumflex" unicode="&#x125;" horiz-adv-x="1273" 
d="M541 1495v-530q37 57 100.5 88.5t138.5 31.5q170 0 285 -114.5t115 -284.5v-686h-426v608q0 46 -31 77.5t-80 31.5q-34 0 -62 -19t-40 -49v-649h-426v1495h426zM486 1956l299 -350h-381l-79 112l-80 -112h-381l299 350h323z" />
    <glyph glyph-name="Hbar" unicode="&#x126;" horiz-adv-x="1482" 
d="M143 0v1036h-123v228h123v170h439v-170h319v170h438v-170h123v-228h-123v-1036h-438v543h-319v-543h-439zM582 899h319v137h-319v-137z" />
    <glyph glyph-name="hbar" unicode="&#x127;" horiz-adv-x="1304" 
d="M20 1157v217h125v121h426v-121h228v-217h-228v-192q36 57 100 88.5t140 31.5q170 0 284.5 -114.5t114.5 -284.5v-686h-426v608q0 47 -30.5 78t-79.5 31q-35 0 -63 -19t-40 -49v-649h-426v1157h-125z" />
    <glyph glyph-name="Itilde" unicode="&#x128;" horiz-adv-x="712" 
d="M575 1434v-1434h-438v1434h438zM366 1582q-60 32 -81 32q-32 0 -46 -68l-310 59q21 128 86.5 194t167.5 66q89 0 164 -41q60 -32 81 -32q32 0 46 68l309 -59q-21 -128 -86.5 -194t-167.5 -66q-88 0 -163 41z" />
    <glyph glyph-name="itilde" unicode="&#x129;" horiz-adv-x="638" 
d="M106 0v1061h426v-1061h-426zM329 1240q-60 32 -81 32q-32 0 -46 -68l-310 59q21 128 86.5 194t167.5 66q89 0 164 -41q60 -32 81 -32q32 0 46 68l309 -59q-21 -128 -86 -194t-167 -66q-89 0 -164 41z" />
    <glyph glyph-name="Imacron" unicode="&#x12a;" horiz-adv-x="712" 
d="M575 1434v-1434h-438v1434h438zM8 1552v303h697v-303h-697z" />
    <glyph glyph-name="imacron" unicode="&#x12b;" horiz-adv-x="638" 
d="M106 0v1061h426v-1061h-426zM-29 1221v303h697v-303h-697z" />
    <glyph glyph-name="Ibreve" unicode="&#x12c;" horiz-adv-x="712" 
d="M575 1434v-1434h-438v1434h438zM356 1524q-163 0 -283.5 91t-123.5 230h321q1 -34 26 -56t60 -22t60 22t26 56h322q-3 -139 -124 -230t-284 -91z" />
    <glyph glyph-name="ibreve" unicode="&#x12d;" horiz-adv-x="638" 
d="M106 0v1061h426v-1061h-426zM319 1192q-163 0 -283.5 91t-123.5 230h321q1 -34 26 -55.5t60 -21.5q36 0 61 22t26 55h321q-3 -139 -124 -230t-284 -91z" />
    <glyph glyph-name="Iogonek" unicode="&#x12e;" horiz-adv-x="712" 
d="M315 0h-178v1434h438v-1434q-161 -128 -161 -217q0 -31 19 -51.5t48 -20.5q44 0 91 26l68 -153q-82 -53 -200 -53q-126 0 -211.5 61t-85.5 152q0 69 48.5 137.5t123.5 118.5z" />
    <glyph glyph-name="iogonek" unicode="&#x12f;" horiz-adv-x="638" 
d="M106 0v1061h426v-1061q-161 -128 -161 -217q0 -31 19 -51.5t48 -20.5q44 0 91 26l68 -153q-82 -53 -200 -53q-126 0 -211.5 61t-85.5 152q0 69 48.5 137.5t123.5 118.5h-166zM88 1327q0 91 66.5 152t164.5 61t165 -61t67 -152t-67 -152t-165 -61t-164.5 61t-66.5 152z
" />
    <glyph glyph-name="Idotaccent" unicode="&#x130;" horiz-adv-x="712" 
d="M575 1434v-1434h-438v1434h438zM150 1704q0 85 59.5 144t146.5 59t147 -59t60 -144t-60 -144t-147 -59t-146.5 59t-59.5 144z" />
    <glyph glyph-name="dotlessi" unicode="&#x131;" horiz-adv-x="638" 
d="M106 0v1061h426v-1061h-426z" />
    <glyph glyph-name="IJ" unicode="&#x132;" horiz-adv-x="1644" 
d="M575 1434v-1434h-438v1434h438zM1083 498v936h439v-977q0 -218 -131.5 -350t-354.5 -132q-206 0 -350 80l100 351q84 -54 164 -54q58 0 95.5 41.5t37.5 104.5z" />
    <glyph glyph-name="ij" unicode="&#x133;" horiz-adv-x="1277" 
d="M106 0v1061h426v-1061h-426zM88 1327q0 91 66.5 152t164.5 61t165 -61t67 -152t-67 -152t-165 -61t-164.5 61t-66.5 152zM745 -37v1098h426v-1167q0 -160 -117 -264.5t-294 -104.5q-80 0 -154 18v346h60q38 0 58.5 20t20.5 54zM727 1327q0 91 66.5 152t164.5 61t165 -61
t67 -152t-67 -152t-165 -61t-164.5 61t-66.5 152z" />
    <glyph glyph-name="Jcircumflex" unicode="&#x134;" horiz-adv-x="972" 
d="M412 498v936h438v-977q0 -218 -131 -350t-354 -132q-207 0 -351 80l101 351q84 -54 164 -54q58 0 95.5 41.5t37.5 104.5zM796 1894l299 -350h-381l-80 113l-80 -113h-381l299 350h324z" />
    <glyph glyph-name="jcircumflex" unicode="&#x135;" horiz-adv-x="638" 
d="M106 -37v1098h426v-1167q0 -160 -117 -264.5t-294 -104.5q-80 0 -154 18v346h60q38 0 58.5 20t20.5 54zM481 1563l299 -351h-381l-80 113l-79 -113h-381l299 351h323z" />
    <glyph glyph-name="Kcommaaccent" unicode="&#x136;" horiz-adv-x="1341" 
d="M575 1434v-514h66l221 514h459l-324 -699l396 -735h-459l-280 543h-79v-543h-438v1434h438zM342 -481l162 350h448l-223 -350h-387z" />
    <glyph glyph-name="kcommaaccent" unicode="&#x137;" horiz-adv-x="1200" 
d="M733 0l-142 387h-50v-387h-426v1495h426v-743h57l121 309h446l-231 -496l250 -565h-451zM228 -481l162 350h449l-224 -350h-387z" />
    <glyph glyph-name="kgreenlandic" unicode="&#x138;" horiz-adv-x="1200" 
d="M733 0l-142 387h-50v-387h-426v1061h426v-309h57l121 309h446l-231 -496l250 -565h-451z" />
    <glyph glyph-name="Lacute" unicode="&#x139;" horiz-adv-x="1089" 
d="M137 0v1434h438v-1057h494v-377h-932zM137 1544l233 350h428l-270 -350h-391z" />
    <glyph glyph-name="lacute" unicode="&#x13a;" horiz-adv-x="638" 
d="M106 0v1495h426v-1495h-426zM54 1606l233 350h428l-270 -350h-391z" />
    <glyph glyph-name="Lcommaaccent" unicode="&#x13b;" horiz-adv-x="1089" 
d="M137 0v1434h438v-1057h494v-377h-932zM240 -481l161 350h449l-223 -350h-387z" />
    <glyph glyph-name="lcommaaccent" unicode="&#x13c;" horiz-adv-x="638" 
d="M106 0v1495h426v-1495h-426zM-40 -481l162 350h448l-223 -350h-387z" />
    <glyph glyph-name="Lcaron" unicode="&#x13d;" horiz-adv-x="1120" 
d="M137 0v1434h438v-1057h494v-377h-932zM662 1242q0 92 63 154t156 62t156 -62t63 -154q0 -51 -26 -105l-165 -330h-236l122 244q-62 27 -97.5 76.5t-35.5 114.5z" />
    <glyph glyph-name="lcaron" unicode="&#x13e;" horiz-adv-x="1077" 
d="M106 0v1495h426v-1495h-426zM618 1304q0 91 63.5 153.5t156.5 62.5t156 -62t63 -154q0 -52 -26 -106l-165 -330h-236l122 244q-62 27 -98 77t-36 115z" />
    <glyph glyph-name="Ldot" unicode="&#x13f;" horiz-adv-x="1095" 
d="M137 0v1434h438v-1057h494v-377h-932zM662 811q0 85 59.5 144t146.5 59t147 -59t60 -144t-60 -144t-147 -59t-146.5 59t-59.5 144z" />
    <glyph glyph-name="ldot" unicode="&#x140;" horiz-adv-x="1032" 
d="M106 0v1495h426v-1495h-426zM598 770q0 85 60 144t147 59t147 -59t60 -144t-60 -144t-147 -59t-147 59t-60 144z" />
    <glyph glyph-name="Lslash" unicode="&#x141;" horiz-adv-x="1110" 
d="M158 0v475l-138 -69v264l138 69v695h438v-469l268 137v-264l-268 -138v-323h494v-377h-932z" />
    <glyph glyph-name="lslash" unicode="&#x142;" horiz-adv-x="724" 
d="M150 0v548l-130 -61v258l130 61v689h425v-487l130 61v-258l-130 -61v-750h-425z" />
    <glyph glyph-name="Nacute" unicode="&#x143;" horiz-adv-x="1470" 
d="M137 0v1434h479l320 -832v832h397v-1434h-479l-319 831v-831h-398zM504 1544l232 350h428l-269 -350h-391z" />
    <glyph glyph-name="nacute" unicode="&#x144;" horiz-adv-x="1273" 
d="M541 649v-649h-426v1061h426v-96q37 57 100.5 88.5t138.5 31.5q170 0 285 -114.5t115 -284.5v-686h-426v608q0 46 -31 77.5t-80 31.5q-34 0 -62 -19t-40 -49zM404 1212l233 351h428l-269 -351h-392z" />
    <glyph glyph-name="Ncommaaccent" unicode="&#x145;" horiz-adv-x="1470" 
d="M137 0v1434h479l320 -832v832h397v-1434h-479l-319 831v-831h-398zM389 -481l162 350h448l-223 -350h-387z" />
    <glyph glyph-name="ncommaaccent" unicode="&#x146;" horiz-adv-x="1273" 
d="M541 649v-649h-426v1061h426v-96q37 57 100.5 88.5t138.5 31.5q170 0 285 -114.5t115 -284.5v-686h-426v608q0 46 -31 77.5t-80 31.5q-34 0 -62 -19t-40 -49zM293 -481l162 350h448l-223 -350h-387z" />
    <glyph glyph-name="Ncaron" unicode="&#x147;" horiz-adv-x="1470" 
d="M1196 1894l-299 -350h-324l-299 350h381l80 -112l80 112h381zM137 0v1434h479l320 -832v832h397v-1434h-479l-319 831v-831h-398z" />
    <glyph glyph-name="ncaron" unicode="&#x148;" horiz-adv-x="1273" 
d="M541 649v-649h-426v1061h426v-96q37 57 100.5 88.5t138.5 31.5q170 0 285 -114.5t115 -284.5v-686h-426v608q0 46 -31 77.5t-80 31.5q-34 0 -62 -19t-40 -49zM1108 1542l-299 -350h-324l-299 350h381l80 -112l80 112h381z" />
    <glyph glyph-name="napostrophe" unicode="&#x149;" horiz-adv-x="1601" 
d="M868 649v-649h-426v1061h426v-96q36 57 100 88.5t140 31.5q170 0 284.5 -114.5t114.5 -284.5v-686h-426v608q0 47 -30.5 78t-79.5 31q-35 0 -63 -19t-40 -49zM20 1304q0 91 63.5 153.5t156.5 62.5t156 -62t63 -154q0 -52 -26 -106l-165 -330h-236l122 244q-62 27 -98 77
t-36 115z" />
    <glyph glyph-name="Eng" unicode="&#x14a;" horiz-adv-x="1470" 
d="M1333 1434v-1540q0 -165 -127.5 -267t-333.5 -102q-73 0 -129 16v295q41 -8 110 -8q37 0 60 20.5t23 53.5v118l-401 811v-831h-398v1434h413l386 -781v781h397z" />
    <glyph glyph-name="eng" unicode="&#x14b;" horiz-adv-x="1273" 
d="M754 -98v706q0 46 -31 77.5t-80 31.5q-34 0 -62 -19t-40 -49v-649h-426v1061h426v-96q37 57 100.5 88.5t138.5 31.5q170 0 285 -114.5t115 -284.5v-792q0 -165 -128.5 -267t-334.5 -102q-84 0 -150 16v295q39 -8 103 -8q38 0 61 20.5t23 53.5z" />
    <glyph glyph-name="Omacron" unicode="&#x14c;" horiz-adv-x="1708" 
d="M508 717q0 -157 98.5 -261t247.5 -104t247.5 104t98.5 261t-98.5 260.5t-247.5 103.5t-247.5 -103.5t-98.5 -260.5zM70 717q0 154 60.5 291.5t164.5 236t249.5 156t309.5 57.5t309.5 -57.5t249.5 -156t164.5 -236t60.5 -291.5t-60.5 -291.5t-164.5 -236.5t-249.5 -156.5
t-309.5 -57.5t-309.5 57.5t-249.5 156.5t-164.5 236.5t-60.5 291.5zM506 1552v303h696v-303h-696z" />
    <glyph glyph-name="omacron" unicode="&#x14d;" horiz-adv-x="1314" 
d="M309 1221v303h697v-303h-697zM53 530q0 154 79 281.5t218 200.5t307 73t307 -73t218.5 -200.5t79.5 -281.5t-79.5 -281.5t-218.5 -200.5t-307 -73t-307 73t-218 200.5t-79 281.5zM469 530q0 -80 52.5 -133t135.5 -53t136 53t53 133t-53 133.5t-136 53.5q-82 0 -135 -53.5
t-53 -133.5z" />
    <glyph glyph-name="Obreve" unicode="&#x14e;" horiz-adv-x="1708" 
d="M854 1524q-163 0 -284 91t-124 230h322q1 -34 26 -56t60 -22t60 22t26 56h322q-3 -139 -124 -230t-284 -91zM508 717q0 -157 98.5 -261t247.5 -104t247.5 104t98.5 261t-98.5 260.5t-247.5 103.5t-247.5 -103.5t-98.5 -260.5zM70 717q0 154 60.5 291.5t164.5 236
t249.5 156t309.5 57.5t309.5 -57.5t249.5 -156t164.5 -236t60.5 -291.5t-60.5 -291.5t-164.5 -236.5t-249.5 -156.5t-309.5 -57.5t-309.5 57.5t-249.5 156.5t-164.5 236.5t-60.5 291.5z" />
    <glyph glyph-name="obreve" unicode="&#x14f;" horiz-adv-x="1314" 
d="M657 1192q-163 0 -283.5 91t-123.5 230h321q1 -34 26 -55.5t60 -21.5t60 21.5t26 55.5h322q-3 -139 -124 -230t-284 -91zM53 530q0 154 79 281.5t218 200.5t307 73t307 -73t218.5 -200.5t79.5 -281.5t-79.5 -281.5t-218.5 -200.5t-307 -73t-307 73t-218 200.5t-79 281.5z
M469 530q0 -80 52.5 -133t135.5 -53t136 53t53 133t-53 133.5t-136 53.5q-82 0 -135 -53.5t-53 -133.5z" />
    <glyph glyph-name="Ohungarumlaut" unicode="&#x150;" horiz-adv-x="1708" 
d="M508 717q0 -157 98.5 -261t247.5 -104t247.5 104t98.5 261t-98.5 260.5t-247.5 103.5t-247.5 -103.5t-98.5 -260.5zM70 717q0 154 60.5 291.5t164.5 236t249.5 156t309.5 57.5t309.5 -57.5t249.5 -156t164.5 -236t60.5 -291.5t-60.5 -291.5t-164.5 -236.5t-249.5 -156.5
t-309.5 -57.5t-309.5 57.5t-249.5 156.5t-164.5 236.5t-60.5 291.5zM426 1544l232 350h357l-259 -350h-330zM843 1544l232 350h357l-260 -350h-329z" />
    <glyph glyph-name="ohungarumlaut" unicode="&#x151;" horiz-adv-x="1314" 
d="M53 530q0 154 79 281.5t218 200.5t307 73t307 -73t218.5 -200.5t79.5 -281.5t-79.5 -281.5t-218.5 -200.5t-307 -73t-307 73t-218 200.5t-79 281.5zM469 530q0 -80 52.5 -133t135.5 -53t136 53t53 133t-53 133.5t-136 53.5q-82 0 -135 -53.5t-53 -133.5zM221 1212
l233 351h356l-259 -351h-330zM638 1212l232 351h357l-259 -351h-330z" />
    <glyph glyph-name="OE" unicode="&#x152;" horiz-adv-x="1898" 
d="M70 717q0 197 104 362t284 260t396 95h944v-365h-516v-170h467v-356h-467v-178h535v-365h-963q-216 0 -396 95t-284 260t-104 362zM504 717q0 -148 100.5 -246t249.5 -98v688q-149 0 -249.5 -98t-100.5 -246z" />
    <glyph glyph-name="oe" unicode="&#x153;" horiz-adv-x="2222" 
d="M53 530q0 154 79 281.5t218 200.5t307 73q145 0 272 -68.5t204 -178.5q75 110 198.5 178.5t265.5 68.5q160 0 291.5 -71.5t206 -195t74.5 -273.5q0 -60 -21 -121h-720q28 -154 200 -154q132 0 258 113l197 -215q-178 -193 -469 -193q-154 0 -277.5 66.5t-203.5 181.5
q-77 -110 -205 -179t-271 -69q-168 0 -307 73t-218 200.5t-79 281.5zM469 530q0 -80 52.5 -133t135.5 -53t136 53t53 133t-53 133.5t-136 53.5q-82 0 -135 -53.5t-53 -133.5zM1589 791q-134 0 -159 -144h315q-11 74 -49 109t-107 35z" />
    <glyph glyph-name="Racute" unicode="&#x154;" horiz-adv-x="1318" 
d="M596 479h-29v-479h-430v1434h578q145 0 262.5 -60t185.5 -169.5t68 -248.5q0 -130 -60.5 -234.5t-165.5 -167.5l273 -554h-471zM567 782h88q65 0 107.5 45t42.5 115t-42.5 115t-107.5 45h-88v-320zM375 1544l232 350h428l-269 -350h-391z" />
    <glyph glyph-name="racute" unicode="&#x155;" horiz-adv-x="890" 
d="M692 717q-49 0 -89 -25.5t-62 -70.5v-621h-426v1061h426v-115q25 60 81 99.5t119 39.5q53 0 97 -28l-23 -367q-71 27 -123 27zM164 1212l232 351h428l-269 -351h-391z" />
    <glyph glyph-name="Rcommaaccent" unicode="&#x156;" horiz-adv-x="1318" 
d="M596 479h-29v-479h-430v1434h578q145 0 262.5 -60t185.5 -169.5t68 -248.5q0 -130 -60.5 -234.5t-165.5 -167.5l273 -554h-471zM567 782h88q65 0 107.5 45t42.5 115t-42.5 115t-107.5 45h-88v-320zM286 -481l161 350h449l-223 -350h-387z" />
    <glyph glyph-name="rcommaaccent" unicode="&#x157;" horiz-adv-x="890" 
d="M692 717q-49 0 -89 -25.5t-62 -70.5v-621h-426v1061h426v-115q25 60 81 99.5t119 39.5q53 0 97 -28l-23 -367q-71 27 -123 27zM-32 -481l162 350h449l-224 -350h-387z" />
    <glyph glyph-name="Rcaron" unicode="&#x158;" horiz-adv-x="1318" 
d="M596 479h-29v-479h-430v1434h578q145 0 262.5 -60t185.5 -169.5t68 -248.5q0 -130 -60.5 -234.5t-165.5 -167.5l273 -554h-471zM567 782h88q65 0 107.5 45t42.5 115t-42.5 115t-107.5 45h-88v-320zM1094 1894l-299 -350h-324l-299 350h381l80 -112l80 112h381z" />
    <glyph glyph-name="rcaron" unicode="&#x159;" horiz-adv-x="890" 
d="M692 717q-49 0 -89 -25.5t-62 -70.5v-621h-426v1061h426v-115q25 60 81 99.5t119 39.5q53 0 97 -28l-23 -367q-71 27 -123 27zM892 1542l-299 -350h-324l-299 350h381l80 -112l80 112h381z" />
    <glyph glyph-name="Sacute" unicode="&#x15a;" horiz-adv-x="1241" 
d="M72 203l213 291q76 -75 169.5 -118.5t184.5 -43.5q47 0 79 25.5t32 62.5q0 46 -47 80t-177 63q-190 42 -307 154.5t-117 279.5q0 197 144.5 329t363.5 132q137 0 269.5 -48.5t234.5 -133.5l-201 -299q-160 133 -284 133q-38 0 -63 -22.5t-25 -53.5q0 -39 39.5 -70.5
t150.5 -56.5q214 -49 335.5 -164.5t121.5 -289.5q0 -99 -39.5 -186t-110.5 -152t-176.5 -102.5t-230.5 -37.5q-337 0 -559 228zM329 1544l232 350h428l-269 -350h-391z" />
    <glyph glyph-name="sacute" unicode="&#x15b;" horiz-adv-x="987" 
d="M42 152l170 233q49 -52 117 -81.5t139 -29.5q76 0 76 43q0 24 -28 40.5t-95 31.5q-158 35 -249 130.5t-91 228.5q0 147 118 242t296 95q107 0 213 -39t194 -108l-166 -231q-92 79 -198 79q-56 0 -56 -43q0 -49 109 -71q174 -36 264 -129t90 -226q0 -148 -125 -245
t-315 -97q-139 0 -261 47t-202 130zM208 1212l232 351h428l-269 -351h-391z" />
    <glyph glyph-name="Scircumflex" unicode="&#x15c;" horiz-adv-x="1241" 
d="M72 203l213 291q76 -75 169.5 -118.5t184.5 -43.5q47 0 79 25.5t32 62.5q0 46 -47 80t-177 63q-190 42 -307 154.5t-117 279.5q0 197 144.5 329t363.5 132q137 0 269.5 -48.5t234.5 -133.5l-201 -299q-160 133 -284 133q-38 0 -63 -22.5t-25 -53.5q0 -39 39.5 -70.5
t150.5 -56.5q214 -49 335.5 -164.5t121.5 -289.5q0 -99 -39.5 -186t-110.5 -152t-176.5 -102.5t-230.5 -37.5q-337 0 -559 228zM792 1894l299 -350h-381l-80 113l-80 -113h-381l299 350h324z" />
    <glyph glyph-name="scircumflex" unicode="&#x15d;" horiz-adv-x="987" 
d="M42 152l170 233q49 -52 117 -81.5t139 -29.5q76 0 76 43q0 24 -28 40.5t-95 31.5q-158 35 -249 130.5t-91 228.5q0 147 118 242t296 95q107 0 213 -39t194 -108l-166 -231q-92 79 -198 79q-56 0 -56 -43q0 -49 109 -71q174 -36 264 -129t90 -226q0 -148 -125 -245
t-315 -97q-139 0 -261 47t-202 130zM646 1563l299 -351h-381l-80 113l-80 -113h-380l299 351h323z" />
    <glyph glyph-name="Scedilla" unicode="&#x15e;" horiz-adv-x="1241" 
d="M72 203l213 291q76 -75 169.5 -118.5t184.5 -43.5q47 0 79 25.5t32 62.5q0 46 -47 80t-177 63q-190 42 -307 154.5t-117 279.5q0 197 144.5 329t363.5 132q137 0 269.5 -48.5t234.5 -133.5l-201 -299q-160 133 -284 133q-38 0 -63 -22.5t-25 -53.5q0 -39 39.5 -70.5
t150.5 -56.5q214 -49 335.5 -164.5t121.5 -289.5q0 -165 -103.5 -290t-282.5 -167l-77 -113q88 -23 141.5 -75t53.5 -119q0 -94 -97.5 -157.5t-242.5 -63.5q-155 0 -252 70l98 153q59 -43 141 -43q37 0 59.5 12t22.5 33t-22.5 33t-59.5 12q-42 0 -69 -4l-70 76l91 173
q-267 34 -447 220z" />
    <glyph glyph-name="scedilla" unicode="&#x15f;" horiz-adv-x="987" 
d="M502 -307q0 21 -22.5 33t-59.5 12q-43 0 -70 -4l-69 76l93 177q-207 36 -332 165l170 233q49 -52 117 -81.5t139 -29.5q76 0 76 43q0 24 -28 40.5t-95 31.5q-158 35 -249 130.5t-91 228.5q0 147 118 242t296 95q107 0 213 -39t194 -108l-166 -231q-92 79 -198 79
q-56 0 -56 -43q0 -49 109 -71q174 -36 264 -129t90 -226q0 -116 -80 -203t-213 -120l-74 -111q88 -23 141 -74.5t53 -119.5q0 -94 -97.5 -157.5t-242.5 -63.5q-155 0 -252 70l99 153q59 -43 141 -43q37 0 59.5 12t22.5 33z" />
    <glyph glyph-name="Scaron" unicode="&#x160;" horiz-adv-x="1241" 
d="M72 203l213 291q76 -75 169.5 -118.5t184.5 -43.5q47 0 79 25.5t32 62.5q0 46 -47 80t-177 63q-190 42 -307 154.5t-117 279.5q0 197 144.5 329t363.5 132q137 0 269.5 -48.5t234.5 -133.5l-201 -299q-160 133 -284 133q-38 0 -63 -22.5t-25 -53.5q0 -39 39.5 -70.5
t150.5 -56.5q214 -49 335.5 -164.5t121.5 -289.5q0 -99 -39.5 -186t-110.5 -152t-176.5 -102.5t-230.5 -37.5q-337 0 -559 228zM1070 1894l-299 -350h-324l-299 350h381l80 -112l80 112h381z" />
    <glyph glyph-name="scaron" unicode="&#x161;" horiz-adv-x="987" 
d="M42 152l170 233q49 -52 117 -81.5t139 -29.5q76 0 76 43q0 24 -28 40.5t-95 31.5q-158 35 -249 130.5t-91 228.5q0 147 118 242t296 95q107 0 213 -39t194 -108l-166 -231q-92 79 -198 79q-56 0 -56 -43q0 -49 109 -71q174 -36 264 -129t90 -226q0 -148 -125 -245
t-315 -97q-139 0 -261 47t-202 130zM945 1542l-299 -350h-323l-299 350h380l80 -112l80 112h381z" />
    <glyph glyph-name="Tcommaaccent" unicode="&#x162;" horiz-adv-x="1155" 
d="M358 0v1057h-317v377h1073v-377h-317v-1057h-62l-80 -117q88 -23 141.5 -75t53.5 -119q0 -94 -97.5 -157.5t-242.5 -63.5q-155 0 -252 70l98 153q27 -20 67 -31.5t75 -11.5q37 0 59.5 12t22.5 33t-22.5 33t-59.5 12q-43 0 -70 -4l-70 76l101 190h-101z" />
    <glyph glyph-name="tcommaaccent" unicode="&#x163;" horiz-adv-x="851" 
d="M598 696v-280q0 -37 22 -56.5t62 -19.5q76 0 125 8v-338q-85 -29 -208 -34l-63 -93q88 -23 141 -74.5t53 -119.5q0 -94 -97.5 -157.5t-242.5 -63.5q-155 0 -252 70l99 153q59 -43 141 -43q37 0 59.5 12t22.5 33t-22.5 33t-59.5 12q-43 0 -70 -4l-69 76l114 218
q-85 48 -133 132.5t-48 189.5v346h-131v365h131v270l426 37v-307h197v-365h-197z" />
    <glyph glyph-name="Tcaron" unicode="&#x164;" horiz-adv-x="1155" 
d="M1038 1894l-299 -350h-323l-299 350h381l80 -112l79 112h381zM358 0v1057h-317v377h1073v-377h-317v-1057h-439z" />
    <glyph glyph-name="tcaron" unicode="&#x165;" horiz-adv-x="1287" 
d="M598 696v-280q0 -37 22 -56.5t62 -19.5q76 0 125 8v-338q-93 -35 -250 -35q-166 0 -275.5 107t-109.5 268v346h-131v365h131v270l426 37v-307h197v-365h-197zM828 1304q0 91 63.5 153.5t156.5 62.5t156 -62t63 -154q0 -52 -26 -106l-165 -330h-236l122 244q-62 27 -98 77
t-36 115z" />
    <glyph glyph-name="Tbar" unicode="&#x166;" horiz-adv-x="1155" 
d="M358 0v557h-190v248h190v252h-317v377h1073v-377h-317v-252h190v-248h-190v-557h-439z" />
    <glyph glyph-name="tbar" unicode="&#x167;" horiz-adv-x="851" 
d="M598 737v-110h150v-217h-150v-35q0 -37 22 -56.5t62 -19.5q74 0 125 8v-297q-94 -35 -250 -35q-168 0 -276.5 98.5t-108.5 256.5v80h-100v217h100v110h-131v324h131v270l426 37v-307h197v-324h-197z" />
    <glyph glyph-name="Utilde" unicode="&#x168;" horiz-adv-x="1388" 
d="M703 1582q-60 32 -80 32q-32 0 -46 -68l-310 59q21 128 86.5 194t167.5 66q89 0 164 -41q60 -32 81 -32q32 0 46 68l309 -59q-21 -128 -86.5 -194t-167.5 -66q-89 0 -164 41zM561 1434v-955q0 -54 37.5 -89.5t95.5 -35.5t95.5 35.5t37.5 89.5v955h439v-988
q0 -129 -76 -237t-207.5 -170t-288.5 -62q-118 0 -223.5 36.5t-182 99.5t-121 149.5t-44.5 183.5v988h438z" />
    <glyph glyph-name="utilde" unicode="&#x169;" horiz-adv-x="1273" 
d="M733 412v649h426v-1061h-426v96q-37 -57 -100.5 -89t-138.5 -32q-170 0 -285 115t-115 285v686h426v-608q0 -46 31 -77.5t80 -31.5q34 0 62 19t40 49zM636 1240q-60 32 -81 32q-32 0 -46 -68l-309 59q21 128 86.5 194t167.5 66q88 0 163 -41q60 -32 81 -32q32 0 46 68
l310 -59q-21 -128 -86.5 -194t-167.5 -66q-89 0 -164 41z" />
    <glyph glyph-name="Umacron" unicode="&#x16a;" horiz-adv-x="1388" 
d="M346 1552v303h696v-303h-696zM561 1434v-955q0 -54 37.5 -89.5t95.5 -35.5t95.5 35.5t37.5 89.5v955h439v-988q0 -129 -76 -237t-207.5 -170t-288.5 -62q-118 0 -223.5 36.5t-182 99.5t-121 149.5t-44.5 183.5v988h438z" />
    <glyph glyph-name="umacron" unicode="&#x16b;" horiz-adv-x="1273" 
d="M733 412v649h426v-1061h-426v96q-37 -57 -100.5 -89t-138.5 -32q-170 0 -285 115t-115 285v686h426v-608q0 -46 31 -77.5t80 -31.5q34 0 62 19t40 49zM279 1221v303h696v-303h-696z" />
    <glyph glyph-name="Ubreve" unicode="&#x16c;" horiz-adv-x="1388" 
d="M694 1524q-163 0 -283.5 91t-123.5 230h321q1 -34 26 -56t60 -22t60 22t26 56h322q-3 -139 -124 -230t-284 -91zM561 1434v-955q0 -54 37.5 -89.5t95.5 -35.5t95.5 35.5t37.5 89.5v955h439v-988q0 -129 -76 -237t-207.5 -170t-288.5 -62q-118 0 -223.5 36.5t-182 99.5
t-121 149.5t-44.5 183.5v988h438z" />
    <glyph glyph-name="ubreve" unicode="&#x16d;" horiz-adv-x="1273" 
d="M733 412v649h426v-1061h-426v96q-37 -57 -100.5 -89t-138.5 -32q-170 0 -285 115t-115 285v686h426v-608q0 -46 31 -77.5t80 -31.5q34 0 62 19t40 49zM627 1192q-163 0 -284 91t-124 230h322q1 -34 26 -55.5t60 -21.5t60 21.5t26 55.5h321q-3 -139 -123.5 -230
t-283.5 -91z" />
    <glyph glyph-name="Uring" unicode="&#x16e;" horiz-adv-x="1388" 
d="M639 1726q0 -23 15 -38t40 -15t40.5 15t15.5 38t-15.5 38.5t-40.5 15.5q-24 0 -39.5 -15t-15.5 -39zM432 1726q0 101 76 170t186 69t186 -69t76 -170t-75.5 -169.5t-186.5 -68.5t-186.5 68.5t-75.5 169.5zM561 1434v-955q0 -54 37.5 -89.5t95.5 -35.5t95.5 35.5
t37.5 89.5v955h439v-988q0 -129 -76 -237t-207.5 -170t-288.5 -62q-118 0 -223.5 36.5t-182 99.5t-121 149.5t-44.5 183.5v988h438z" />
    <glyph glyph-name="uring" unicode="&#x16f;" horiz-adv-x="1273" 
d="M733 412v649h426v-1061h-426v96q-37 -57 -100.5 -89t-138.5 -32q-170 0 -285 115t-115 285v686h426v-608q0 -46 31 -77.5t80 -31.5q34 0 62 19t40 49zM571 1395q0 -23 15.5 -38.5t40.5 -15.5t40 15.5t15 38.5t-15 38t-40 15t-40.5 -15t-15.5 -38zM365 1395
q0 101 75.5 169.5t186.5 68.5t186.5 -68.5t75.5 -169.5t-76 -170t-186 -69t-186 69t-76 170z" />
    <glyph glyph-name="Uhungarumlaut" unicode="&#x170;" horiz-adv-x="1388" 
d="M561 1434v-955q0 -54 37.5 -89.5t95.5 -35.5t95.5 35.5t37.5 89.5v955h439v-988q0 -129 -76 -237t-207.5 -170t-288.5 -62q-118 0 -223.5 36.5t-182 99.5t-121 149.5t-44.5 183.5v988h438zM272 1544l233 350h356l-259 -350h-330zM689 1544l233 350h356l-259 -350h-330z
" />
    <glyph glyph-name="uhungarumlaut" unicode="&#x171;" horiz-adv-x="1273" 
d="M733 412v649h426v-1061h-426v96q-37 -57 -100.5 -89t-138.5 -32q-170 0 -285 115t-115 285v686h426v-608q0 -46 31 -77.5t80 -31.5q34 0 62 19t40 49zM207 1212l232 351h357l-259 -351h-330zM624 1212l232 351h356l-259 -351h-329z" />
    <glyph glyph-name="Uogonek" unicode="&#x172;" horiz-adv-x="1388" 
d="M561 1434v-955q0 -54 37.5 -89.5t95.5 -35.5t95.5 35.5t37.5 89.5v955h439v-988q0 -153 -105 -273.5t-274 -168.5q-167 -132 -167 -221q0 -29 18.5 -45.5t48.5 -16.5q45 0 92 26l67 -163q-82 -53 -200 -53q-131 0 -219 60.5t-88 152.5q0 64 44.5 126.5t114.5 114.5
q-206 27 -340.5 156t-134.5 305v988h438z" />
    <glyph glyph-name="uogonek" unicode="&#x173;" horiz-adv-x="1273" 
d="M899 0h-166v96q-37 -57 -100.5 -89t-138.5 -32q-170 0 -285 115t-115 285v686h426v-608q0 -46 31 -77.5t80 -31.5q34 0 62 19t40 49v649h426v-1061q-76 -61 -119 -113.5t-43 -103.5q0 -29 19 -45.5t49 -16.5q44 0 91 26l68 -163q-82 -53 -200 -53q-131 0 -219 60.5
t-88 152.5q0 69 51.5 136.5t130.5 119.5z" />
    <glyph glyph-name="Wcircumflex" unicode="&#x174;" horiz-adv-x="2056" 
d="M807 1434h442l174 -875l170 875h449l-367 -1434h-452l-195 846l-194 -846h-453l-367 1434h449l170 -875zM1190 1894l299 -350h-381l-80 113l-80 -113h-381l299 350h324z" />
    <glyph glyph-name="wcircumflex" unicode="&#x175;" horiz-adv-x="1687" 
d="M641 1061h406l98 -572l100 572h426l-291 -1061h-436l-100 475l-101 -475h-436l-291 1061h426l101 -572zM1006 1563l299 -351h-381l-80 113l-80 -113h-381l299 351h324z" />
    <glyph glyph-name="Ycircumflex" unicode="&#x176;" horiz-adv-x="1372" 
d="M492 1434l194 -488l195 488h477l-453 -887v-547h-438v547l-453 887h478zM848 1894l299 -350h-381l-80 113l-80 -113h-381l299 350h324z" />
    <glyph glyph-name="ycircumflex" unicode="&#x177;" horiz-adv-x="1155" 
d="M692 1061h447l-518 -1536h-449l203 475l-359 1061h447l115 -518zM739 1563l299 -351h-381l-79 113l-80 -113h-381l299 351h323z" />
    <glyph glyph-name="Ydieresis" unicode="&#x178;" horiz-adv-x="1372" 
d="M492 1434l194 -488l195 488h477l-453 -887v-547h-438v547l-453 887h478zM265 1704q0 82 56.5 137t140.5 55t140 -55t56 -137t-56 -137.5t-140 -55.5t-140.5 55.5t-56.5 137.5zM714 1704q0 82 56 137t140 55t140.5 -55t56.5 -137t-56.5 -137.5t-140.5 -55.5t-140 55.5
t-56 137.5z" />
    <glyph glyph-name="Zacute" unicode="&#x179;" horiz-adv-x="1267" 
d="M94 336l551 721h-520v377h1038v-336l-551 -721h572v-377h-1090v336zM367 1544l232 350h428l-269 -350h-391z" />
    <glyph glyph-name="zacute" unicode="&#x17a;" horiz-adv-x="1067" 
d="M68 0v299l381 401h-355v361h881v-299l-381 -402h401v-360h-927zM256 1212l232 351h428l-269 -351h-391z" />
    <glyph glyph-name="Zdotaccent" unicode="&#x17b;" horiz-adv-x="1267" 
d="M94 336l551 721h-520v377h1038v-336l-551 -721h572v-377h-1090v336zM441 1704q0 85 60 144t147 59t147 -59t60 -144t-60 -144t-147 -59t-147 59t-60 144z" />
    <glyph glyph-name="zdotaccent" unicode="&#x17c;" horiz-adv-x="1067" 
d="M68 0v299l381 401h-355v361h881v-299l-381 -402h401v-360h-927zM328 1372q0 85 60 144t147 59t146.5 -59t59.5 -144t-59.5 -144t-146.5 -59t-147 59t-60 144z" />
    <glyph glyph-name="Zcaron" unicode="&#x17d;" horiz-adv-x="1267" 
d="M94 336l551 721h-520v377h1038v-336l-551 -721h572v-377h-1090v336zM1094 1894l-299 -350h-324l-299 350h381l80 -112l80 112h381z" />
    <glyph glyph-name="zcaron" unicode="&#x17e;" horiz-adv-x="1067" 
d="M68 0v299l381 401h-355v361h881v-299l-381 -402h401v-360h-927zM988 1542l-299 -350h-323l-299 350h380l80 -112l80 112h381z" />
    <glyph glyph-name="longs" unicode="&#x17f;" horiz-adv-x="825" 
d="M784 1479v-295q-39 8 -102 8q-38 0 -61 -20.5t-23 -53.5v-1118h-426v696h-131v365h131v65q0 165 128.5 267t334.5 102q83 0 149 -16z" />
    <glyph glyph-name="uni0191" unicode="&#x191;" horiz-adv-x="1122" 
d="M575 473v-559q0 -166 -132 -277.5t-329 -111.5q-119 0 -184 16v365q44 -8 113 -8q41 0 67.5 23.5t26.5 60.5v1452h934v-373h-496v-215h447v-373h-447z" />
    <glyph glyph-name="florin" unicode="&#x192;" horiz-adv-x="825" 
d="M172 -98v794h-131v365h131v65q0 165 128.5 267t334.5 102q83 0 149 -16v-295q-39 8 -102 8q-38 0 -61 -20.5t-23 -53.5v-57h186v-365h-186v-802q0 -165 -128.5 -267t-334.5 -102q-83 0 -149 16v295q39 -8 102 -8q38 0 61 20.5t23 53.5z" />
    <glyph glyph-name="Aringacute" unicode="&#x1fa;" horiz-adv-x="1437" 
d="M478 1485q0 94 70 158.5t172 64.5t172 -64.5t70 -158.5q0 -74 -48 -133h68l441 -1352h-446l-67 252h-384l-65 -252h-447l442 1352h68q-46 59 -46 133zM857 1729h-322l175 268h352zM719 985l-108 -410h215zM665 1485q0 -25 15.5 -42t39.5 -17t39.5 17t15.5 42t-15.5 41.5
t-39.5 16.5t-39.5 -16.5t-15.5 -41.5z" />
    <glyph glyph-name="aringacute" unicode="&#x1fb;" horiz-adv-x="1357" 
d="M406 1352q0 94 69.5 158.5t171.5 64.5t172 -64.5t70 -158.5t-70 -159t-172 -65t-171.5 65t-69.5 159zM592 1352q0 -25 15.5 -42t39.5 -17t39.5 17t15.5 42t-15.5 41.5t-39.5 16.5t-39.5 -16.5t-15.5 -41.5zM784 1606h-322l175 268h352zM829 0v82q-54 -48 -130.5 -77.5
t-155.5 -29.5q-135 0 -247.5 73t-177.5 200.5t-65 281.5t65 281.5t177.5 200.5t247.5 73q80 0 156 -29t130 -77v82h414v-1061h-414zM829 451v159q-22 48 -67.5 77.5t-104.5 29.5q-82 0 -135 -53.5t-53 -133.5t52.5 -133t135.5 -53q59 0 104.5 29.5t67.5 77.5z" />
    <glyph glyph-name="AEacute" unicode="&#x1fc;" horiz-adv-x="1955" 
d="M457 0h-447l740 1434h1105v-365h-516v-170h467v-356h-467v-178h535v-365h-963v252h-340zM911 995l-191 -420h191v420zM713 1544l232 350h428l-269 -350h-391z" />
    <glyph glyph-name="aeacute" unicode="&#x1fd;" horiz-adv-x="2107" 
d="M1314 424q28 -154 199 -154q133 0 259 113l196 -215q-178 -193 -469 -193q-145 0 -267.5 57.5t-202.5 156.5q-68 -100 -190.5 -157t-268.5 -57q-219 0 -368 106t-149 261q0 146 141 246t346 100q154 0 279 -76q-1 85 -68 132t-182 47q-182 0 -319 -109l-119 254
q78 71 199 110t251 39q143 0 263 -54.5t190 -152.5q83 97 198.5 152t250.5 55q160 0 291.5 -71.5t205.5 -195t74 -273.5q0 -63 -20 -121h-720zM471 342q0 -41 42 -67.5t105 -26.5q118 0 199 79v40q-78 69 -199 69q-63 0 -105 -26.5t-42 -67.5zM1475 791q-135 0 -160 -144
h315q-11 74 -48.5 109t-106.5 35zM780 1212l233 351h428l-270 -351h-391z" />
    <glyph glyph-name="Oslashacute" unicode="&#x1fe;" horiz-adv-x="1708" 
d="M70 717q0 154 60.5 291.5t164.5 236t249.5 156t309.5 57.5q184 0 348 -74l84 111h293l-181 -238q114 -102 177 -241t63 -299q0 -154 -60.5 -291.5t-164.5 -236.5t-249.5 -156.5t-309.5 -57.5q-198 0 -370 83l-91 -119h-293l193 252q-106 101 -164.5 236.5t-58.5 289.5z
M1206 717q0 117 -60 210l-422 -554q62 -25 130 -25q149 0 250.5 106.5t101.5 262.5zM502 717q0 -105 48 -190l412 541q-53 17 -108 17q-149 0 -250.5 -106.5t-101.5 -261.5zM622 1544l232 350h428l-269 -350h-391z" />
    <glyph glyph-name="oslashacute" unicode="&#x1ff;" horiz-adv-x="1314" 
d="M53 530q0 154 79 281.5t218 200.5t307 73q139 0 256 -50l68 87h264l-154 -199q81 -76 126 -177.5t45 -215.5q0 -154 -79.5 -281.5t-218.5 -200.5t-307 -73q-134 0 -258 51l-67 -87h-264l154 200q-80 76 -124.5 176.5t-44.5 214.5zM897 530q0 56 -26 108l-263 -341
q21 -4 49 -4q101 0 170.5 68.5t69.5 168.5zM418 530q0 -57 23 -106l262 340q-28 4 -46 4q-101 0 -170 -69t-69 -169zM425 1212l232 351h428l-269 -351h-391z" />
    <glyph glyph-name="Scommaaccent" unicode="&#x218;" horiz-adv-x="1241" 
d="M72 203l213 291q76 -75 169.5 -118.5t184.5 -43.5q47 0 79 25.5t32 62.5q0 46 -47 80t-177 63q-190 42 -307 154.5t-117 279.5q0 197 144.5 329t363.5 132q137 0 269.5 -48.5t234.5 -133.5l-201 -299q-160 133 -284 133q-38 0 -63 -22.5t-25 -53.5q0 -39 39.5 -70.5
t150.5 -56.5q214 -49 335.5 -164.5t121.5 -289.5q0 -99 -39.5 -186t-110.5 -152t-176.5 -102.5t-230.5 -37.5q-337 0 -559 228zM278 -481l161 350h449l-223 -350h-387z" />
    <glyph glyph-name="scommaaccent" unicode="&#x219;" horiz-adv-x="987" 
d="M42 152l170 233q49 -52 117 -81.5t139 -29.5q76 0 76 43q0 24 -28 40.5t-95 31.5q-158 35 -249 130.5t-91 228.5q0 147 118 242t296 95q107 0 213 -39t194 -108l-166 -231q-92 79 -198 79q-56 0 -56 -43q0 -49 109 -71q174 -36 264 -129t90 -226q0 -148 -125 -245
t-315 -97q-139 0 -261 47t-202 130zM144 -481l162 350h449l-224 -350h-387z" />
    <glyph glyph-name="uni021A" unicode="&#x21a;" horiz-adv-x="1155" 
d="M358 0v1057h-317v377h1073v-377h-317v-1057h-439zM212 -481l162 350h448l-223 -350h-387z" />
    <glyph glyph-name="uni021B" unicode="&#x21b;" horiz-adv-x="851" 
d="M598 696v-280q0 -37 22 -56.5t62 -19.5q76 0 125 8v-338q-93 -35 -250 -35q-166 0 -275.5 107t-109.5 268v346h-131v365h131v270l426 37v-307h197v-365h-197zM95 -481l162 350h449l-224 -350h-387z" />
    <glyph glyph-name="dotlessj" unicode="&#x237;" horiz-adv-x="638" 
d="M106 -37v1098h426v-1167q0 -160 -117 -264.5t-294 -104.5q-80 0 -154 18v346h60q38 0 58.5 20t20.5 54z" />
    <glyph glyph-name="apostrophe" unicode="&#x2bc;" horiz-adv-x="901" 
d="M231 1304q0 91 63.5 153.5t156.5 62.5t156 -62t63 -154q0 -52 -26 -106l-165 -330h-236l122 244q-62 27 -98 77t-36 115z" />
    <glyph glyph-name="circumflex" unicode="&#x2c6;" horiz-adv-x="901" 
d="M612 1495l299 -350h-381l-79 112l-80 -112h-381l299 350h323z" />
    <glyph glyph-name="caron" unicode="&#x2c7;" horiz-adv-x="901" 
d="M911 1495l-299 -350h-323l-299 350h381l80 -113l79 113h381z" />
    <glyph glyph-name="uni02C9" unicode="&#x2c9;" horiz-adv-x="901" 
d="M102 1167v303h697v-303h-697z" />
    <glyph glyph-name="breve" unicode="&#x2d8;" horiz-adv-x="901" 
d="M451 1153q-163 0 -284 91.5t-124 230.5h322q1 -34 26 -56t60 -22t60 22t26 56h321q-3 -139 -123.5 -230.5t-283.5 -91.5z" />
    <glyph glyph-name="dotaccent" unicode="&#x2d9;" horiz-adv-x="901" 
d="M244 1323q0 85 60 144t147 59t146.5 -59t59.5 -144t-59.5 -144t-146.5 -59t-147 59t-60 144z" />
    <glyph glyph-name="ring" unicode="&#x2da;" horiz-adv-x="901" 
d="M395 1317q0 -23 15.5 -38t40.5 -15t40 15t15 38t-15 38t-40 15t-40.5 -15t-15.5 -38zM188 1317q0 101 76 169.5t187 68.5t186.5 -68.5t75.5 -169.5t-76 -170t-186 -69q-111 0 -187 69t-76 170z" />
    <glyph glyph-name="ogonek" unicode="&#x2db;" horiz-adv-x="901" 
d="M391 0h260q-76 -61 -119 -113.5t-43 -103.5q0 -29 19 -45.5t49 -16.5q44 0 91 26l68 -163q-82 -53 -200 -53q-131 0 -219 60.5t-88 152.5q0 69 51.5 136.5t130.5 119.5z" />
    <glyph glyph-name="tilde" unicode="&#x2dc;" horiz-adv-x="901" 
d="M460 1193q-60 32 -81 32q-32 0 -46 -68l-309 58q21 128 86.5 194.5t167.5 66.5q88 0 163 -41q60 -32 81 -32q32 0 46 67l310 -58q-21 -128 -86.5 -194t-167.5 -66q-89 0 -164 41z" />
    <glyph glyph-name="hungarumlaut" unicode="&#x2dd;" horiz-adv-x="901" 
d="M-20 1145l232 350h356l-259 -350h-329zM396 1145l233 350h356l-259 -350h-330z" />
    <glyph glyph-name="gravecomb" unicode="&#x300;" horiz-adv-x="0" 
d="M-386 1495l232 -350h-391l-269 350h428z" />
    <glyph glyph-name="acutecomb" unicode="&#x301;" horiz-adv-x="0" 
d="M-748 1145l233 350h428l-269 -350h-392z" />
    <glyph glyph-name="uni0302" unicode="&#x302;" horiz-adv-x="0" 
d="M-289 1495l299 -350h-381l-80 112l-79 -112h-381l299 350h323z" />
    <glyph glyph-name="tildecomb" unicode="&#x303;" horiz-adv-x="0" 
d="M-441 1193q-60 32 -81 32q-32 0 -46 -68l-310 58q21 128 86.5 194.5t167.5 66.5q89 0 164 -41q60 -32 81 -32q32 0 46 67l309 -58q-21 -128 -86.5 -194t-167.5 -66q-88 0 -163 41z" />
    <glyph glyph-name="uni0304" unicode="&#x304;" horiz-adv-x="0" 
d="M-799 1167v303h697v-303h-697z" />
    <glyph glyph-name="uni0306" unicode="&#x306;" horiz-adv-x="0" 
d="M-451 1153q-163 0 -283.5 91.5t-123.5 230.5h321q1 -34 26 -56t60 -22t60 22t26 56h322q-3 -139 -124 -230.5t-284 -91.5z" />
    <glyph glyph-name="uni0307" unicode="&#x307;" horiz-adv-x="0" 
d="M-657 1323q0 85 59.5 144t146.5 59t147 -59t60 -144t-60 -144t-147 -59t-146.5 59t-59.5 144z" />
    <glyph glyph-name="uni0308" unicode="&#x308;" horiz-adv-x="0" 
d="M-871 1323q0 82 56 137.5t140 55.5t140.5 -55.5t56.5 -137.5t-56.5 -137.5t-140.5 -55.5t-140 55.5t-56 137.5zM-423 1323q0 82 56.5 137.5t140.5 55.5t140 -55.5t56 -137.5t-56 -137.5t-140 -55.5t-140.5 55.5t-56.5 137.5z" />
    <glyph glyph-name="uni030A" unicode="&#x30a;" horiz-adv-x="0" 
d="M-506 1317q0 -23 15 -38t40 -15t40.5 15t15.5 38t-15.5 38t-40.5 15t-40 -15t-15 -38zM-713 1317q0 101 75.5 169.5t186.5 68.5t187 -68.5t76 -169.5t-76 -170t-187 -69q-110 0 -186 69t-76 170z" />
    <glyph glyph-name="uni030C" unicode="&#x30c;" horiz-adv-x="0" 
d="M10 1495l-299 -350h-323l-299 350h381l79 -113l80 113h381z" />
    <glyph glyph-name="uni0327" unicode="&#x327;" horiz-adv-x="0" 
d="M-431 -307q0 21 -22.5 33t-59.5 12q-43 0 -70 -4l-69 76l100 190h277l-80 -117q88 -23 141 -74.5t53 -119.5q0 -94 -97.5 -157.5t-242.5 -63.5q-155 0 -252 70l99 153q59 -43 141 -43q37 0 59.5 12t22.5 33z" />
    <glyph glyph-name="tonos" unicode="&#x384;" horiz-adv-x="901" 
d="M558 1114h-404l147 381h460z" />
    <glyph glyph-name="dieresistonos" unicode="&#x385;" horiz-adv-x="901" 
d="M83 1172q0 65 49 111t120 46t120 -46t49 -111t-49 -110.5t-120 -45.5t-120 45.5t-49 110.5zM480 1172q0 65 49 111t120 46t120 -46t49 -111t-49 -110.5t-120 -45.5t-120 45.5t-49 110.5zM586 1346h-323l175 268h353z" />
    <glyph glyph-name="Alphatonos" unicode="&#x386;" horiz-adv-x="1657" 
d="M701 1434h476l467 -1434h-447l-67 252h-384l-65 -252h-447zM939 985l-108 -410h216zM425 1053h-405l148 381h460z" />
    <glyph glyph-name="anoteleia" unicode="&#x387;" horiz-adv-x="626" 
d="M74 673q0 96 67.5 160.5t171.5 64.5t172 -64.5t68 -160.5t-68 -161t-172 -65q-103 0 -171 65t-68 161z" />
    <glyph glyph-name="Epsilontonos" unicode="&#x388;" horiz-adv-x="1713" 
d="M658 0v1434h955v-365h-516v-170h467v-356h-467v-178h534v-365h-973zM425 1053h-405l148 381h460z" />
    <glyph glyph-name="Etatonos" unicode="&#x389;" horiz-adv-x="1991" 
d="M658 0v1434h439v-525h319v525h438v-1434h-438v532h-319v-532h-439zM425 1053h-405l148 381h460z" />
    <glyph glyph-name="Iotatonos" unicode="&#x38a;" horiz-adv-x="1233" 
d="M1097 1434v-1434h-439v1434h439zM425 1053h-405l148 381h460z" />
    <glyph glyph-name="Omicrontonos" unicode="&#x38c;" horiz-adv-x="2068" 
d="M868 717q0 -157 98.5 -261t247.5 -104t248 104t99 261t-99 260.5t-248 103.5t-247.5 -103.5t-98.5 -260.5zM430 717q0 154 60.5 291.5t164.5 236t249.5 156t309.5 57.5q219 0 399 -97.5t283 -267.5t103 -376q0 -154 -60.5 -291.5t-165 -236.5t-250 -156.5t-309.5 -57.5
t-309.5 57.5t-249.5 156.5t-164.5 236.5t-60.5 291.5zM425 1053h-405l148 381h460z" />
    <glyph glyph-name="Upsilontonos" unicode="&#x38e;" horiz-adv-x="2006" 
d="M1125 1434l195 -488l194 488h478l-453 -887v-547h-438v547l-453 887h477zM425 1053h-405l148 381h460z" />
    <glyph glyph-name="Omegatonos" unicode="&#x38f;" horiz-adv-x="2058" 
d="M1542 743q0 143 -92.5 240.5t-228.5 97.5t-229 -97.5t-93 -240.5q0 -134 68.5 -236t195.5 -159v-348h-676v377h207q-233 147 -233 418q0 184 100.5 336t275 239.5t384.5 87.5q157 0 298 -51.5t242 -139.5t160 -211t59 -261q0 -271 -233 -418h207v-377h-676v348
q127 57 195.5 159t68.5 236zM425 1053h-405l148 381h460z" />
    <glyph glyph-name="iotadieresistonos" unicode="&#x390;" horiz-adv-x="712" 
d="M106 375v686h426v-594q0 -98 97 -98h43v-363q-52 -6 -131 -6q-224 0 -329.5 93t-105.5 282zM-48 1310q0 65 49 110.5t120 45.5t120 -45.5t49 -110.5t-49 -111t-120 -46t-120 46t-49 111zM349 1310q0 65 49 110.5t120 45.5t120 -45.5t49 -110.5t-49 -111t-120 -46t-120 46
t-49 111zM455 1483h-323l175 268h352z" />
    <glyph glyph-name="Alpha" unicode="&#x391;" horiz-adv-x="1437" 
d="M481 1434h475l467 -1434h-446l-67 252h-384l-65 -252h-447zM719 985l-108 -410h215z" />
    <glyph glyph-name="Beta" unicode="&#x392;" horiz-adv-x="1300" 
d="M778 0h-641v1434h586q201 0 328 -110t127 -280q0 -99 -52 -182.5t-137 -116.5q115 -31 182.5 -117.5t67.5 -207.5q0 -180 -131.5 -300t-329.5 -120zM784 991q0 47 -29 77t-73 30h-127v-213h127q45 0 73.5 29.5t28.5 76.5zM813 449q0 49 -31.5 80.5t-81.5 31.5h-145v-225
h145q50 0 81.5 32t31.5 81z" />
    <glyph glyph-name="Gamma" unicode="&#x393;" horiz-adv-x="1089" 
d="M137 0v1434h932v-377h-494v-1057h-438z" />
    <glyph glyph-name="uni0394" unicode="&#x394;" horiz-adv-x="1437" 
d="M956 1434l467 -1434h-1409l467 1434h475zM719 985l-171 -633h342z" />
    <glyph glyph-name="Epsilon" unicode="&#x395;" horiz-adv-x="1191" 
d="M137 0v1434h955v-365h-517v-170h467v-356h-467v-178h535v-365h-973z" />
    <glyph glyph-name="Zeta" unicode="&#x396;" horiz-adv-x="1267" 
d="M94 336l551 721h-520v377h1038v-336l-551 -721h572v-377h-1090v336z" />
    <glyph glyph-name="Eta" unicode="&#x397;" horiz-adv-x="1470" 
d="M137 0v1434h438v-525h320v525h438v-1434h-438v532h-320v-532h-438z" />
    <glyph glyph-name="Theta" unicode="&#x398;" horiz-adv-x="1708" 
d="M580 555v324h548v-324h-548zM70 717q0 154 60.5 291.5t164.5 236t249.5 156t309.5 57.5t309.5 -57.5t249.5 -156t164.5 -236t60.5 -291.5t-60.5 -291.5t-164.5 -236.5t-249.5 -156.5t-309.5 -57.5t-309.5 57.5t-249.5 156.5t-164.5 236.5t-60.5 291.5zM487 717
q0 -163 106 -274t261 -111t261 111t106 274t-106 274t-261 111t-261 -111t-106 -274z" />
    <glyph glyph-name="Iota" unicode="&#x399;" horiz-adv-x="712" 
d="M575 1434v-1434h-438v1434h438z" />
    <glyph glyph-name="Kappa" unicode="&#x39a;" horiz-adv-x="1341" 
d="M575 1434v-514h66l221 514h459l-324 -699l396 -735h-459l-280 543h-79v-543h-438v1434h438z" />
    <glyph glyph-name="Lambda" unicode="&#x39b;" horiz-adv-x="1437" 
d="M481 1434h475l467 -1434h-446l-258 975l-258 -975h-447z" />
    <glyph glyph-name="Mu" unicode="&#x39c;" horiz-adv-x="1781" 
d="M1049 397h-316l-198 465v-862h-398v1434h512l242 -566l242 566h512v-1434h-398v862z" />
    <glyph glyph-name="Nu" unicode="&#x39d;" horiz-adv-x="1470" 
d="M137 0v1434h479l320 -832v832h397v-1434h-479l-319 831v-831h-398z" />
    <glyph glyph-name="Xi" unicode="&#x39e;" horiz-adv-x="1187" 
d="M105 1069v365h977v-365h-977zM82 0v365h1024v-365h-1024zM1002 543h-837v356h837v-356z" />
    <glyph glyph-name="Omicron" unicode="&#x39f;" horiz-adv-x="1708" 
d="M508 717q0 -157 98.5 -261t247.5 -104t247.5 104t98.5 261t-98.5 260.5t-247.5 103.5t-247.5 -103.5t-98.5 -260.5zM70 717q0 154 60.5 291.5t164.5 236t249.5 156t309.5 57.5t309.5 -57.5t249.5 -156t164.5 -236t60.5 -291.5t-60.5 -291.5t-164.5 -236.5t-249.5 -156.5
t-309.5 -57.5t-309.5 57.5t-249.5 156.5t-164.5 236.5t-60.5 291.5z" />
    <glyph glyph-name="Pi" unicode="&#x3a0;" horiz-adv-x="1417" 
d="M1280 1434v-1434h-438v1057h-267v-1057h-438v1434h1143z" />
    <glyph glyph-name="Rho" unicode="&#x3a1;" horiz-adv-x="1271" 
d="M715 438h-140v-438h-438v1434h578q220 0 368 -143t148 -355t-148 -355t-368 -143zM575 770h76q67 0 110.5 47t43.5 119t-43.5 119t-110.5 47h-76v-332z" />
    <glyph glyph-name="Sigma" unicode="&#x3a3;" horiz-adv-x="1222" 
d="M94 430l299 289l-299 285v430h1034v-373h-565l258 -213v-260l-260 -215h567v-373h-1034v430z" />
    <glyph glyph-name="Tau" unicode="&#x3a4;" horiz-adv-x="1155" 
d="M358 0v1057h-317v377h1073v-377h-317v-1057h-439z" />
    <glyph glyph-name="Upsilon" unicode="&#x3a5;" horiz-adv-x="1372" 
d="M492 1434l194 -488l195 488h477l-453 -887v-547h-438v547l-453 887h478z" />
    <glyph glyph-name="Phi" unicode="&#x3a6;" horiz-adv-x="1613" 
d="M1006 197v-197h-398v197q-159 0 -289 68t-204 187t-74 263t74 263t204 187t289 68v201h398v-201q159 0 289 -68t204 -187t74 -263t-74 -263t-204 -187t-289 -68zM608 555v319q-74 0 -122 -45t-48 -114t48.5 -114.5t121.5 -45.5zM1006 874v-319q73 0 121.5 45.5
t48.5 114.5t-48 114t-122 45z" />
    <glyph glyph-name="Chi" unicode="&#x3a7;" horiz-adv-x="1363" 
d="M516 1434l166 -404l166 404h477l-358 -695l387 -739h-477l-195 449l-195 -449h-477l387 739l-358 695h477z" />
    <glyph glyph-name="Psi" unicode="&#x3a8;" horiz-adv-x="1458" 
d="M911 1434v-721q86 68 86 172v549h365v-557q0 -192 -125.5 -340.5t-325.5 -200.5v-336h-364v336q-200 52 -325.5 200.5t-125.5 340.5v557h365v-549q0 -104 86 -172v721h364z" />
    <glyph glyph-name="uni03A9" unicode="&#x3a9;" horiz-adv-x="1675" 
d="M1159 743q0 143 -92.5 240.5t-228.5 97.5t-229 -97.5t-93 -240.5q0 -134 68.5 -236t195.5 -159v-348h-676v377h207q-233 147 -233 418q0 184 100.5 336t275 239.5t384.5 87.5q157 0 298 -51.5t242 -139.5t160 -211t59 -261q0 -271 -233 -418h207v-377h-676v348
q127 57 195.5 159t68.5 236z" />
    <glyph glyph-name="Iotadieresis" unicode="&#x3aa;" horiz-adv-x="712" 
d="M575 1434v-1434h-438v1434h438zM-65 1704q0 82 56.5 137t140.5 55t140.5 -55t56.5 -137t-56.5 -137.5t-140.5 -55.5t-140.5 55.5t-56.5 137.5zM384 1704q0 82 56.5 137t140.5 55t140 -55t56 -137t-56 -137.5t-140 -55.5t-140.5 55.5t-56.5 137.5z" />
    <glyph glyph-name="Upsilondieresis" unicode="&#x3ab;" horiz-adv-x="1372" 
d="M492 1434l194 -488l195 488h477l-453 -887v-547h-438v547l-453 887h478zM265 1704q0 82 56.5 137t140.5 55t140 -55t56 -137t-56 -137.5t-140 -55.5t-140.5 55.5t-56.5 137.5zM714 1704q0 82 56 137t140 55t140.5 -55t56.5 -137t-56.5 -137.5t-140.5 -55.5t-140 55.5
t-56 137.5z" />
    <glyph glyph-name="alphatonos" unicode="&#x3ac;" horiz-adv-x="1423" 
d="M1243 1061v-594q0 -98 96 -98h43v-363q-50 -6 -116 -6q-253 0 -338 152q-68 -83 -164.5 -130t-208.5 -47q-141 0 -256.5 73t-180.5 200t-65 282q0 154 65 281.5t177.5 200.5t247.5 73q80 0 156 -29t130 -77v82h414zM829 451v159q-22 48 -67.5 77.5t-104.5 29.5
q-82 0 -135 -53.5t-53 -133.5t52.5 -133t135.5 -53q59 0 104.5 29.5t67.5 77.5zM422 1212l232 351h428l-269 -351h-391z" />
    <glyph glyph-name="epsilontonos" unicode="&#x3ad;" horiz-adv-x="1010" 
d="M531 698h168v-295h-161q-38 0 -63 -21t-25 -56t25.5 -56.5t62.5 -21.5q81 0 142 95l294 -177q-59 -90 -177.5 -140.5t-269.5 -50.5q-209 0 -347 93t-138 231q0 87 59.5 158t147.5 100q-72 27 -118 92.5t-46 134.5q0 128 124 214.5t312 86.5q142 0 251.5 -50.5
t156.5 -138.5l-312 -157q-31 74 -86 74q-26 0 -42.5 -16t-16.5 -41t16.5 -41.5t42.5 -16.5zM228 1212l233 351h428l-269 -351h-392z" />
    <glyph glyph-name="etatonos" unicode="&#x3ae;" horiz-adv-x="1273" 
d="M541 649v-649h-426v1061h426v-96q37 57 100.5 88.5t138.5 31.5q170 0 285 -114.5t115 -284.5v-1161h-426v1083q0 46 -31 77.5t-80 31.5q-34 0 -62 -19t-40 -49zM404 1212l233 351h428l-269 -351h-392z" />
    <glyph glyph-name="iotatonos" unicode="&#x3af;" horiz-adv-x="712" 
d="M106 375v686h426v-594q0 -98 97 -98h43v-363q-52 -6 -131 -6q-224 0 -329.5 93t-105.5 282zM54 1212l233 351h428l-270 -351h-391z" />
    <glyph glyph-name="upsilondieresistonos" unicode="&#x3b0;" horiz-adv-x="1220" 
d="M610 -25q-142 0 -261 58.5t-187 160.5t-68 224v643h426v-621q0 -42 25 -69t65 -27t65 27t25 69v621h426v-643q0 -122 -68 -224t-187 -160.5t-261 -58.5zM243 1310q0 65 49 110.5t120 45.5t120 -45.5t49 -110.5t-49 -111t-120 -46t-120 46t-49 111zM640 1310
q0 65 49 110.5t120 45.5t120 -45.5t49 -110.5t-49 -111t-120 -46t-120 46t-49 111zM745 1483h-322l175 268h352z" />
    <glyph glyph-name="alpha" unicode="&#x3b1;" horiz-adv-x="1423" 
d="M1243 1061v-594q0 -98 96 -98h43v-363q-50 -6 -116 -6q-253 0 -338 152q-68 -83 -164.5 -130t-208.5 -47q-141 0 -256.5 73t-180.5 200t-65 282q0 154 65 281.5t177.5 200.5t247.5 73q80 0 156 -29t130 -77v82h414zM829 451v159q-22 48 -67.5 77.5t-104.5 29.5
q-82 0 -135 -53.5t-53 -133.5t52.5 -133t135.5 -53q59 0 104.5 29.5t67.5 77.5z" />
    <glyph glyph-name="beta" unicode="&#x3b2;" horiz-adv-x="1263" 
d="M1089 1061q0 -86 -48.5 -162t-132.5 -113q133 -25 218 -131t85 -254q0 -180 -120 -303t-297 -123q-89 0 -158 32t-107 91v-573h-403v1536q0 167 139 282t342 115t342.5 -115t139.5 -282zM695 1032q0 40 -23 65t-60 25t-60 -25t-23 -65v-555q0 -70 36 -118t101 -48
q53 0 86 36t33 93q0 69 -49.5 109t-146.5 42v332q48 2 77 33t29 76z" />
    <glyph glyph-name="gamma" unicode="&#x3b3;" horiz-adv-x="1155" 
d="M365 -475v481l-349 1055h447l115 -539l114 539h447l-348 -1055v-481h-426z" />
    <glyph glyph-name="delta" unicode="&#x3b4;" horiz-adv-x="1186" 
d="M593 -25q-148 0 -272.5 63t-196.5 173.5t-72 243.5q0 156 100.5 280.5t267.5 173.5l-224 231v294h804v-363h-290l286 -294q138 -141 138 -322q0 -133 -72 -243.5t-196.5 -173.5t-272.5 -63zM468 455q0 -53 35.5 -88t89.5 -35t89.5 35t35.5 88t-35.5 88t-89.5 35
t-89.5 -35t-35.5 -88z" />
    <glyph glyph-name="epsilon" unicode="&#x3b5;" horiz-adv-x="1010" 
d="M531 698h168v-295h-161q-38 0 -63 -21t-25 -56t25.5 -56.5t62.5 -21.5q81 0 142 95l294 -177q-59 -90 -177.5 -140.5t-269.5 -50.5q-209 0 -347 93t-138 231q0 87 59.5 158t147.5 100q-72 27 -118 92.5t-46 134.5q0 128 124 214.5t312 86.5q142 0 251.5 -50.5
t156.5 -138.5l-312 -157q-31 74 -86 74q-26 0 -42.5 -16t-16.5 -41t16.5 -41.5t42.5 -16.5z" />
    <glyph glyph-name="zeta" unicode="&#x3b6;" horiz-adv-x="994" 
d="M42 372q0 185 184 402l254 297h-334v363h811v-334l-391 -487q-88 -111 -88 -220q0 -56 25 -101t69 -72l225 -137q78 -48 119 -126t41 -168q0 -135 -100 -264h-422q38 49 62 108.5t24 110.5q0 93 -79 142l-154 94q-116 70 -181 169.5t-65 222.5z" />
    <glyph glyph-name="eta" unicode="&#x3b7;" horiz-adv-x="1273" 
d="M541 649v-649h-426v1061h426v-96q37 57 100.5 88.5t138.5 31.5q170 0 285 -114.5t115 -284.5v-1161h-426v1083q0 46 -31 77.5t-80 31.5q-34 0 -62 -19t-40 -49z" />
    <glyph glyph-name="theta" unicode="&#x3b8;" horiz-adv-x="1337" 
d="M44 717q0 153 49 290t132 236t199 157t245 58q172 0 315.5 -98t226 -268.5t82.5 -374.5t-82.5 -374.5t-226 -269t-315.5 -98.5q-129 0 -245 58t-199 157t-132 236.5t-49 290.5zM669 1112q-65 0 -116 -63.5t-75 -169.5h381q-24 106 -74.5 169.5t-115.5 63.5zM669 322
q65 0 115.5 63t74.5 170h-381q23 -107 74.5 -170t116.5 -63z" />
    <glyph glyph-name="iota" unicode="&#x3b9;" horiz-adv-x="712" 
d="M106 375v686h426v-594q0 -98 97 -98h43v-363q-52 -6 -131 -6q-224 0 -329.5 93t-105.5 282z" />
    <glyph glyph-name="kappa" unicode="&#x3ba;" horiz-adv-x="1200" 
d="M733 0l-142 387h-50v-387h-426v1061h426v-309h57l121 309h446l-231 -496l250 -565h-451z" />
    <glyph glyph-name="lambda" unicode="&#x3bb;" horiz-adv-x="1155" 
d="M1139 0h-447l-114 492l-115 -492h-447l353 1040l-197 455h449z" />
    <glyph glyph-name="uni03BC" unicode="&#x3bc;" horiz-adv-x="1294" 
d="M115 -475v1536h426v-604q9 -113 86 -113q44 0 79.5 33t47.5 88v596h426v-1061h-426v113q-22 -61 -60.5 -99.5t-78.5 -38.5q-55 0 -74 47v-497h-426z" />
    <glyph glyph-name="nu" unicode="&#x3bd;" horiz-adv-x="1155" 
d="M1139 1061l-318 -1061h-487l-318 1061h447l115 -615l114 615h447z" />
    <glyph glyph-name="xi" unicode="&#x3be;" horiz-adv-x="1003" 
d="M444 -131l-82 30q-140 51 -225.5 178.5t-85.5 276.5q0 139 75.5 255.5t197.5 166.5q-96 47 -152.5 131t-56.5 183q0 156 129 262t319 106q119 0 218.5 -44.5t162.5 -125.5l-235 -237q-28 36 -53.5 53.5t-61.5 17.5q-37 0 -59.5 -27.5t-22.5 -71.5q0 -51 28.5 -81.5
t84.5 -30.5h211v-346h-157q-78 0 -135 -51.5t-57 -133.5q0 -56 31 -103t90 -69l101 -38q119 -44 188.5 -138.5t69.5 -211.5q0 -76 -28.5 -156t-72.5 -139h-422q86 106 86 214q0 46 -24 81t-62 49z" />
    <glyph glyph-name="omicron" unicode="&#x3bf;" horiz-adv-x="1314" 
d="M53 530q0 154 79 281.5t218 200.5t307 73t307 -73t218.5 -200.5t79.5 -281.5t-79.5 -281.5t-218.5 -200.5t-307 -73t-307 73t-218 200.5t-79 281.5zM469 530q0 -80 52.5 -133t135.5 -53t136 53t53 133t-53 133.5t-136 53.5q-82 0 -135 -53.5t-53 -133.5z" />
    <glyph glyph-name="pi" unicode="&#x3c0;" horiz-adv-x="1210" 
d="M542 692v-692h-418v692h-98v369h1159v-369h-99v-692h-417v692h-127z" />
    <glyph glyph-name="rho" unicode="&#x3c1;" horiz-adv-x="1337" 
d="M94 -475v1005q0 152 78.5 279.5t215.5 201.5t301 74t301 -74t215.5 -201.5t78.5 -279.5q0 -153 -80.5 -282t-209.5 -201t-273 -72q-134 0 -213 68v-518h-414zM508 530v-104q72 -82 180 -82q77 0 128.5 53.5t51.5 132.5t-51.5 133t-128.5 54t-128.5 -54t-51.5 -133z" />
    <glyph glyph-name="sigma1" unicode="&#x3c2;" horiz-adv-x="1122" 
d="M477 530q0 -177 168 -259l131 -64q128 -63 197 -163.5t69 -223.5q0 -75 -25 -155.5t-65 -139.5h-420q86 111 86 215t-100 152l-131 63q-164 78 -249 225.5t-85 349.5q0 154 79 281.5t218 200.5t307 73q127 0 238.5 -42.5t194.5 -118.5l-193 -295q-111 88 -231 88
q-83 0 -136 -53.5t-53 -133.5z" />
    <glyph glyph-name="sigma" unicode="&#x3c3;" horiz-adv-x="1370" 
d="M53 518q0 150 78 274.5t214.5 196.5t299.5 72h688v-369h-196q46 -35 73 -93.5t27 -121.5q0 -91 -44.5 -181t-120.5 -161.5t-188.5 -115.5t-238.5 -44q-163 0 -299.5 72t-214.5 196.5t-78 274.5zM467 518q0 -73 51.5 -123.5t126.5 -50.5t126.5 50.5t51.5 123.5
t-51.5 123.5t-126.5 50.5t-126.5 -50.5t-51.5 -123.5z" />
    <glyph glyph-name="tau" unicode="&#x3c4;" horiz-adv-x="1021" 
d="M288 375v317h-263v369h972v-369h-283v-225q0 -98 96 -98h43v-363q-53 -6 -131 -6q-224 0 -329 93t-105 282z" />
    <glyph glyph-name="upsilon" unicode="&#x3c5;" horiz-adv-x="1220" 
d="M610 -25q-142 0 -261 58.5t-187 160.5t-68 224v643h426v-621q0 -42 25 -69t65 -27t65 27t25 69v621h426v-643q0 -122 -68 -224t-187 -160.5t-261 -58.5z" />
    <glyph glyph-name="phi" unicode="&#x3c6;" horiz-adv-x="1458" 
d="M273 965l228 -250q-45 -33 -71.5 -82t-26.5 -103q0 -68 43.5 -120.5t114.5 -73.5v749h250q164 0 300.5 -73.5t215 -201t78.5 -280.5q0 -211 -143 -365t-361 -183v-457h-340v457q-220 28 -364 181.5t-144 366.5q0 131 58.5 244.5t161.5 190.5zM1055 530q0 67 -42.5 119
t-111.5 74v-386q70 23 112 74.5t42 118.5z" />
    <glyph glyph-name="chi" unicode="&#x3c7;" horiz-adv-x="1167" 
d="M1130 1061l-272 -750l293 -786h-446l-121 442l-121 -442h-447l293 786l-272 750h446l101 -385l100 385h446z" />
    <glyph glyph-name="psi" unicode="&#x3c8;" horiz-adv-x="1433" 
d="M94 498v563h350v-522q0 -50 27.5 -92.5t75.5 -70.5v685h340v-685q102 60 102 163v522h350v-563q0 -183 -126 -320.5t-326 -182.5v-470h-340v470q-201 45 -327 182.5t-126 320.5z" />
    <glyph glyph-name="omega" unicode="&#x3c9;" horiz-adv-x="1683" 
d="M842 162q-47 -82 -137 -134.5t-193 -52.5q-95 0 -180 42.5t-146 114.5t-97 173.5t-36 214.5q0 142 53 285.5t130 255.5h417q-80 -120 -129 -266t-49 -275q0 -77 21.5 -126.5t57.5 -49.5t57.5 49.5t21.5 126.5v318h418v-318q0 -78 21 -127t57 -49t57.5 49.5t21.5 126.5
q0 129 -49 275t-129 266h418q77 -111 129.5 -255t52.5 -286q0 -113 -36 -214.5t-97 -173.5t-146 -114.5t-180 -42.5q-103 0 -192.5 52.5t-136.5 134.5z" />
    <glyph glyph-name="iotadieresis" unicode="&#x3ca;" horiz-adv-x="712" 
d="M106 375v686h426v-594q0 -98 97 -98h43v-363q-52 -6 -131 -6q-224 0 -329.5 93t-105.5 282zM-101 1372q0 82 56 137.5t140 55.5t140.5 -55.5t56.5 -137.5t-56.5 -137t-140.5 -55t-140 55t-56 137zM347 1372q0 82 56.5 137.5t140.5 55.5t140 -55.5t56 -137.5t-56 -137
t-140 -55t-140.5 55t-56.5 137z" />
    <glyph glyph-name="upsilondieresis" unicode="&#x3cb;" horiz-adv-x="1220" 
d="M189 1372q0 82 56.5 137.5t140.5 55.5t140.5 -55.5t56.5 -137.5t-56.5 -137t-140.5 -55t-140.5 55t-56.5 137zM638 1372q0 82 56.5 137.5t140.5 55.5t140 -55.5t56 -137.5t-56 -137t-140 -55t-140.5 55t-56.5 137zM610 -25q-142 0 -261 58.5t-187 160.5t-68 224v643h426
v-621q0 -42 25 -69t65 -27t65 27t25 69v621h426v-643q0 -122 -68 -224t-187 -160.5t-261 -58.5z" />
    <glyph glyph-name="omicrontonos" unicode="&#x3cc;" horiz-adv-x="1314" 
d="M53 530q0 154 79 281.5t218 200.5t307 73t307 -73t218.5 -200.5t79.5 -281.5t-79.5 -281.5t-218.5 -200.5t-307 -73t-307 73t-218 200.5t-79 281.5zM469 530q0 -80 52.5 -133t135.5 -53t136 53t53 133t-53 133.5t-136 53.5q-82 0 -135 -53.5t-53 -133.5zM425 1212
l232 351h428l-269 -351h-391z" />
    <glyph glyph-name="upsilontonos" unicode="&#x3cd;" horiz-adv-x="1220" 
d="M610 -25q-142 0 -261 58.5t-187 160.5t-68 224v643h426v-621q0 -42 25 -69t65 -27t65 27t25 69v621h426v-643q0 -122 -68 -224t-187 -160.5t-261 -58.5zM376 1212l232 351h428l-269 -351h-391z" />
    <glyph glyph-name="omegatonos" unicode="&#x3ce;" horiz-adv-x="1683" 
d="M842 162q-47 -82 -137 -134.5t-193 -52.5q-95 0 -180 42.5t-146 114.5t-97 173.5t-36 214.5q0 142 53 285.5t130 255.5h417q-80 -120 -129 -266t-49 -275q0 -77 21.5 -126.5t57.5 -49.5t57.5 49.5t21.5 126.5v318h418v-318q0 -78 21 -127t57 -49t57.5 49.5t21.5 126.5
q0 129 -49 275t-129 266h418q77 -111 129.5 -255t52.5 -286q0 -113 -36 -214.5t-97 -173.5t-146 -114.5t-180 -42.5q-103 0 -192.5 52.5t-136.5 134.5zM610 1212l233 351h428l-270 -351h-391z" />
    <glyph glyph-name="uni0400" unicode="&#x400;" horiz-adv-x="1191" 
d="M137 0v1434h955v-365h-517v-170h467v-356h-467v-178h535v-365h-973zM611 1894l233 -350h-391l-270 350h428z" />
    <glyph glyph-name="afii10023" unicode="&#x401;" horiz-adv-x="1191" 
d="M137 0v1434h955v-365h-517v-170h467v-356h-467v-178h535v-365h-973zM202 1704q0 82 56 137t140 55t140.5 -55t56.5 -137t-56.5 -137.5t-140.5 -55.5t-140 55.5t-56 137.5zM650 1704q0 82 56.5 137t140.5 55t140 -55t56 -137t-56 -137.5t-140 -55.5t-140.5 55.5
t-56.5 137.5z" />
    <glyph glyph-name="afii10051" unicode="&#x402;" horiz-adv-x="1513" 
d="M1030 -4q-84 0 -139 4v360h37q41 0 67.5 22.5t26.5 57.5v37q0 35 -26.5 57.5t-67.5 22.5t-76.5 -21.5t-54.5 -56.5v-479h-439v1069h-317v365h1073v-365h-317v-229q85 82 233 82q182 0 306 -116.5t124 -286.5v-121q0 -170 -124 -286t-306 -116z" />
    <glyph glyph-name="afii10052" unicode="&#x403;" horiz-adv-x="1089" 
d="M137 0v1434h932v-377h-494v-1057h-438zM274 1544l233 350h428l-269 -350h-392z" />
    <glyph glyph-name="afii10053" unicode="&#x404;" horiz-adv-x="1449" 
d="M854 -25q-164 0 -309.5 57.5t-249.5 156.5t-164.5 236.5t-60.5 291.5t60.5 291.5t164.5 236t249.5 156t309.5 57.5q305 0 522 -182l-213 -297q-56 55 -138.5 89t-170.5 34q-112 0 -202 -61t-133 -162h552v-324h-552q43 -101 133 -162t202 -61q88 0 175 38.5t147 98.5
l221 -295q-224 -199 -543 -199z" />
    <glyph glyph-name="afii10054" unicode="&#x405;" horiz-adv-x="1241" 
d="M72 203l213 291q76 -75 169.5 -118.5t184.5 -43.5q47 0 79 25.5t32 62.5q0 46 -47 80t-177 63q-190 42 -307 154.5t-117 279.5q0 197 144.5 329t363.5 132q137 0 269.5 -48.5t234.5 -133.5l-201 -299q-160 133 -284 133q-38 0 -63 -22.5t-25 -53.5q0 -39 39.5 -70.5
t150.5 -56.5q214 -49 335.5 -164.5t121.5 -289.5q0 -99 -39.5 -186t-110.5 -152t-176.5 -102.5t-230.5 -37.5q-337 0 -559 228z" />
    <glyph glyph-name="afii10055" unicode="&#x406;" horiz-adv-x="712" 
d="M575 1434v-1434h-438v1434h438z" />
    <glyph glyph-name="afii10056" unicode="&#x407;" horiz-adv-x="712" 
d="M575 1434v-1434h-438v1434h438zM-65 1704q0 82 56.5 137t140.5 55t140.5 -55t56.5 -137t-56.5 -137.5t-140.5 -55.5t-140.5 55.5t-56.5 137.5zM384 1704q0 82 56.5 137t140.5 55t140 -55t56 -137t-56 -137.5t-140 -55.5t-140.5 55.5t-56.5 137.5z" />
    <glyph glyph-name="afii10057" unicode="&#x408;" horiz-adv-x="972" 
d="M412 498v936h438v-977q0 -218 -131 -350t-354 -132q-207 0 -351 80l101 351q84 -54 164 -54q58 0 95.5 41.5t37.5 104.5z" />
    <glyph glyph-name="afii10058" unicode="&#x409;" horiz-adv-x="2123" 
d="M1356 1434v-500h200q146 0 267 -61.5t190.5 -169t69.5 -236.5t-69.5 -236.5t-190.5 -169t-267 -61.5h-638v1057h-261v-651q0 -209 -136 -309.5t-388 -100.5q-70 0 -113 4v373h58q141 0 141 159v902h1137zM1645 467q0 52 -33 86.5t-86 34.5h-170v-242h170q53 0 86 34.5
t33 86.5z" />
    <glyph glyph-name="afii10059" unicode="&#x40a;" horiz-adv-x="2101" 
d="M1333 1434v-500h201q146 0 267 -61.5t190 -169t69 -236.5t-69 -236.5t-190 -169t-267 -61.5h-639v532h-320v-532h-438v1434h438v-525h320v525h438zM1622 467q0 52 -33 86.5t-86 34.5h-170v-242h170q53 0 86 34.5t33 86.5z" />
    <glyph glyph-name="afii10060" unicode="&#x40b;" horiz-adv-x="1554" 
d="M1460 0h-438v477q0 35 -26.5 57.5t-67.5 22.5t-76.5 -21.5t-54.5 -56.5v-479h-439v1069h-317v365h1073v-365h-317v-229q85 82 233 82q182 0 306 -116.5t124 -286.5v-519z" />
    <glyph glyph-name="afii10061" unicode="&#x40c;" horiz-adv-x="1341" 
d="M575 1434v-514h66l221 514h459l-324 -699l396 -735h-459l-280 543h-79v-543h-438v1434h438zM418 1544l232 350h428l-269 -350h-391z" />
    <glyph glyph-name="uni040D" unicode="&#x40d;" horiz-adv-x="1470" 
d="M1333 1434v-1434h-397v831l-320 -831h-479v1434h398v-832l319 832h479zM772 1894l233 -350h-392l-269 350h428z" />
    <glyph glyph-name="afii10062" unicode="&#x40e;" horiz-adv-x="1372" 
d="M1358 1434l-529 -1173q-118 -261 -397 -261h-252v377h135q77 0 105 61l22 47l-428 949h478l194 -535l195 535h477zM686 1524q-163 0 -283.5 91t-123.5 230h321q1 -34 26 -56t60 -22t60 22t26 56h322q-3 -139 -124 -230t-284 -91z" />
    <glyph glyph-name="afii10145" unicode="&#x40f;" horiz-adv-x="1417" 
d="M1280 1434v-1434h-352v-287h-439v287h-352v1434h438v-1057h267v1057h438z" />
    <glyph glyph-name="afii10017" unicode="&#x410;" horiz-adv-x="1437" 
d="M481 1434h475l467 -1434h-446l-67 252h-384l-65 -252h-447zM719 985l-108 -410h215z" />
    <glyph glyph-name="afii10018" unicode="&#x411;" horiz-adv-x="1343" 
d="M137 0v1434h1014v-347h-576v-153h201q146 0 267 -61.5t190.5 -169t69.5 -236.5t-69.5 -236.5t-190.5 -169t-267 -61.5h-639zM864 467q0 52 -33 86.5t-86 34.5h-170v-242h170q53 0 86 34.5t33 86.5z" />
    <glyph glyph-name="afii10019" unicode="&#x412;" horiz-adv-x="1300" 
d="M778 0h-641v1434h586q201 0 328 -110t127 -280q0 -99 -52 -182.5t-137 -116.5q115 -31 182.5 -117.5t67.5 -207.5q0 -180 -131.5 -300t-329.5 -120zM784 991q0 47 -29 77t-73 30h-127v-213h127q45 0 73.5 29.5t28.5 76.5zM813 449q0 49 -31.5 80.5t-81.5 31.5h-145v-225
h145q50 0 81.5 32t31.5 81z" />
    <glyph glyph-name="afii10020" unicode="&#x413;" horiz-adv-x="1089" 
d="M137 0v1434h932v-377h-494v-1057h-438z" />
    <glyph glyph-name="afii10021" unicode="&#x414;" horiz-adv-x="1438" 
d="M1398 336v-623h-418v287h-521v-287h-418v623h98q148 339 148 780v318h973v-1098h138zM580 336h262v762h-142q0 -462 -120 -762z" />
    <glyph glyph-name="afii10022" unicode="&#x415;" horiz-adv-x="1191" 
d="M137 0v1434h955v-365h-517v-170h467v-356h-467v-178h535v-365h-973z" />
    <glyph glyph-name="afii10024" unicode="&#x416;" horiz-adv-x="1949" 
d="M506 1434l209 -514h41v514h438v-514h40l210 514h454l-307 -699l379 -735h-454l-268 543h-54v-543h-438v543h-56l-266 -543h-454l378 735l-307 699h455z" />
    <glyph glyph-name="afii10025" unicode="&#x417;" horiz-adv-x="1115" 
d="M298 942h174q58 0 89.5 25t31.5 65q0 39 -28 64.5t-72 25.5q-88 0 -151 -78l-230 221q61 90 170 141.5t241 51.5q196 0 331.5 -109.5t135.5 -268.5q0 -95 -54.5 -177t-153.5 -132q121 -45 201.5 -146t80.5 -223q0 -119 -72 -217t-198.5 -154t-280.5 -56q-149 0 -278.5 57
t-202.5 161l232 229q82 -111 229 -111q60 0 97.5 39.5t37.5 101.5q0 68 -44.5 106t-121.5 38h-164v346z" />
    <glyph glyph-name="afii10026" unicode="&#x418;" horiz-adv-x="1470" 
d="M1333 1434v-1434h-397v831l-320 -831h-479v1434h398v-832l319 832h479z" />
    <glyph glyph-name="afii10027" unicode="&#x419;" horiz-adv-x="1470" 
d="M735 1524q-163 0 -283.5 91t-123.5 230h321q1 -34 26 -56t60 -22t60 22t26 56h322q-3 -139 -124 -230t-284 -91zM1333 1434v-1434h-397v831l-320 -831h-479v1434h398v-832l319 832h479z" />
    <glyph glyph-name="afii10028" unicode="&#x41a;" horiz-adv-x="1341" 
d="M575 1434v-514h66l221 514h459l-324 -699l396 -735h-459l-280 543h-79v-543h-438v1434h438z" />
    <glyph glyph-name="afii10029" unicode="&#x41b;" horiz-adv-x="1523" 
d="M1386 1434v-1434h-438v1057h-291v-651q0 -209 -136 -309.5t-388 -100.5q-70 0 -113 4v373h58q141 0 141 159v902h1167z" />
    <glyph glyph-name="afii10030" unicode="&#x41c;" horiz-adv-x="1781" 
d="M1049 397h-316l-198 465v-862h-398v1434h512l242 -566l242 566h512v-1434h-398v862z" />
    <glyph glyph-name="afii10031" unicode="&#x41d;" horiz-adv-x="1470" 
d="M137 0v1434h438v-525h320v525h438v-1434h-438v532h-320v-532h-438z" />
    <glyph glyph-name="afii10032" unicode="&#x41e;" horiz-adv-x="1708" 
d="M508 717q0 -157 98.5 -261t247.5 -104t247.5 104t98.5 261t-98.5 260.5t-247.5 103.5t-247.5 -103.5t-98.5 -260.5zM70 717q0 154 60.5 291.5t164.5 236t249.5 156t309.5 57.5t309.5 -57.5t249.5 -156t164.5 -236t60.5 -291.5t-60.5 -291.5t-164.5 -236.5t-249.5 -156.5
t-309.5 -57.5t-309.5 57.5t-249.5 156.5t-164.5 236.5t-60.5 291.5z" />
    <glyph glyph-name="afii10033" unicode="&#x41f;" horiz-adv-x="1417" 
d="M1280 1434v-1434h-438v1057h-267v-1057h-438v1434h1143z" />
    <glyph glyph-name="afii10034" unicode="&#x420;" horiz-adv-x="1271" 
d="M715 438h-140v-438h-438v1434h578q220 0 368 -143t148 -355t-148 -355t-368 -143zM575 770h76q67 0 110.5 47t43.5 119t-43.5 119t-110.5 47h-76v-332z" />
    <glyph glyph-name="afii10035" unicode="&#x421;" horiz-adv-x="1449" 
d="M854 -25q-164 0 -309.5 57.5t-249.5 156.5t-164.5 236.5t-60.5 291.5t60.5 291.5t164.5 236t249.5 156t309.5 57.5q305 0 522 -182l-223 -318q-127 123 -299 123q-149 0 -247.5 -103.5t-98.5 -260.5t98.5 -261t247.5 -104q87 0 168.5 38t142.5 99l232 -315
q-224 -199 -543 -199z" />
    <glyph glyph-name="afii10036" unicode="&#x422;" horiz-adv-x="1155" 
d="M358 0v1057h-317v377h1073v-377h-317v-1057h-439z" />
    <glyph glyph-name="afii10037" unicode="&#x423;" horiz-adv-x="1372" 
d="M1358 1434l-529 -1173q-118 -261 -397 -261h-252v377h135q77 0 105 61l22 47l-428 949h478l194 -535l195 535h477z" />
    <glyph glyph-name="afii10038" unicode="&#x424;" horiz-adv-x="1613" 
d="M1006 197v-197h-398v197q-159 0 -289 68t-204 187t-74 263t74 263t204 187t289 68v201h398v-201q159 0 289 -68t204 -187t74 -263t-74 -263t-204 -187t-289 -68zM608 555v319q-74 0 -122 -45t-48 -114t48.5 -114.5t121.5 -45.5zM1006 874v-319q73 0 121.5 45.5
t48.5 114.5t-48 114t-122 45z" />
    <glyph glyph-name="afii10039" unicode="&#x425;" horiz-adv-x="1363" 
d="M516 1434l166 -404l166 404h477l-358 -695l387 -739h-477l-195 449l-195 -449h-477l387 739l-358 695h477z" />
    <glyph glyph-name="afii10040" unicode="&#x426;" horiz-adv-x="1454" 
d="M1280 1434v-1057h133v-664h-385v287h-891v1434h438v-1057h267v1057h438z" />
    <glyph glyph-name="afii10041" unicode="&#x427;" horiz-adv-x="1374" 
d="M799 0v557q-47 -40 -116 -63t-138 -23q-190 0 -320.5 122t-130.5 301v540h438v-498q0 -43 33 -71.5t82 -28.5t89 27.5t63 70.5v500h438v-1434h-438z" />
    <glyph glyph-name="afii10042" unicode="&#x428;" horiz-adv-x="2048" 
d="M1473 377v1057h438v-1434h-1774v1434h438v-1057h230v1057h438v-1057h230z" />
    <glyph glyph-name="afii10043" unicode="&#x429;" horiz-adv-x="2084" 
d="M1659 -287v287h-1522v1434h438v-1057h230v1057h438v-1057h230v1057h438v-1057h133v-664h-385z" />
    <glyph glyph-name="afii10044" unicode="&#x42a;" horiz-adv-x="1541" 
d="M41 1434h732v-500h201q146 0 267 -61.5t190 -169t69 -236.5t-69 -236.5t-190 -169t-267 -61.5h-639v1087h-294v347zM1062 467q0 52 -33 86.5t-86 34.5h-170v-242h170q53 0 86 34.5t33 86.5z" />
    <glyph glyph-name="afii10045" unicode="&#x42b;" horiz-adv-x="1931" 
d="M137 1434h438v-500h201q146 0 267 -61.5t190.5 -169t69.5 -236.5t-69.5 -236.5t-190.5 -169t-267 -61.5h-639v1434zM864 467q0 52 -33 86.5t-86 34.5h-170v-242h170q53 0 86 34.5t33 86.5zM1794 1434v-1434h-438v1434h438z" />
    <glyph glyph-name="afii10046" unicode="&#x42c;" horiz-adv-x="1343" 
d="M137 1434h438v-500h201q146 0 267 -61.5t190.5 -169t69.5 -236.5t-69.5 -236.5t-190.5 -169t-267 -61.5h-639v1434zM864 467q0 52 -33 86.5t-86 34.5h-170v-242h170q53 0 86 34.5t33 86.5z" />
    <glyph glyph-name="afii10047" unicode="&#x42d;" horiz-adv-x="1449" 
d="M596 -25q-319 0 -543 199l221 295q60 -60 147 -98.5t175 -38.5q112 0 201.5 61t132.5 162h-551v324h551q-43 101 -132.5 162t-201.5 61q-88 0 -170.5 -34t-138.5 -89l-213 297q217 182 522 182q164 0 309.5 -57.5t249.5 -156t164.5 -236t60.5 -291.5t-60.5 -291.5
t-164.5 -236.5t-249.5 -156.5t-309.5 -57.5z" />
    <glyph glyph-name="afii10048" unicode="&#x42e;" horiz-adv-x="2277" 
d="M575 532v-532h-438v1434h438v-525h110q65 242 272 395.5t477 153.5q213 0 391 -98t280.5 -268t102.5 -375q0 -153 -60.5 -291t-163.5 -236.5t-246.5 -156.5t-303.5 -58q-273 0 -480.5 156t-271.5 401h-107zM1098 717q0 -155 97 -260t239 -105t238.5 105t96.5 260
t-96.5 259.5t-238.5 104.5t-239 -104.5t-97 -259.5z" />
    <glyph glyph-name="afii10049" unicode="&#x42f;" horiz-adv-x="1318" 
d="M752 479h-29l-211 -479h-471l273 554q-106 63 -166 167.5t-60 234.5q0 139 68 248.5t185.5 169.5t262.5 60h578v-1434h-430v479zM664 782h88v320h-88q-65 0 -107.5 -45t-42.5 -115t42.5 -115t107.5 -45z" />
    <glyph glyph-name="afii10065" unicode="&#x430;" horiz-adv-x="1357" 
d="M829 0v82q-54 -48 -130.5 -77.5t-155.5 -29.5q-135 0 -247.5 73t-177.5 200.5t-65 281.5t65 281.5t177.5 200.5t247.5 73q80 0 156 -29t130 -77v82h414v-1061h-414zM829 451v159q-22 48 -67.5 77.5t-104.5 29.5q-82 0 -135 -53.5t-53 -133.5t52.5 -133t135.5 -53
q59 0 104.5 29.5t67.5 77.5z" />
    <glyph glyph-name="afii10066" unicode="&#x431;" horiz-adv-x="1283" 
d="M552 934q71 45 182 45q215 0 357.5 -142t142.5 -350q0 -141 -76 -259t-209 -185.5t-293 -67.5q-120 0 -225.5 41t-186.5 118.5t-128 199.5t-47 274q0 183 28 316.5t88.5 234.5t163.5 167.5t244.5 107t339.5 61.5l63 -369q-237 -28 -330 -67t-114 -125zM488 516
q1 -89 46.5 -130.5t121.5 -41.5q72 0 117 36.5t45 96.5q0 58 -42.5 95.5t-108.5 37.5q-57 0 -104 -25t-75 -69z" />
    <glyph glyph-name="afii10067" unicode="&#x432;" horiz-adv-x="1087" 
d="M633 0h-518v1061h485q159 0 268 -88t109 -217q0 -63 -36 -113.5t-99 -75.5q83 -21 133.5 -89t50.5 -152q0 -138 -113.5 -232t-279.5 -94zM555 428h-84v-156h84q42 0 68 21.5t26 56.5t-26 56.5t-68 21.5zM471 662h78q35 0 56.5 17.5t21.5 45.5t-21.5 45.5t-56.5 17.5h-78
v-126z" />
    <glyph glyph-name="afii10068" unicode="&#x433;" horiz-adv-x="897" 
d="M856 692h-315v-692h-426v1061h741v-369z" />
    <glyph glyph-name="afii10069" unicode="&#x434;" horiz-adv-x="1210" 
d="M1169 276v-493h-362v217h-404v-217h-362v493h95q127 272 127 785h806v-785h100zM523 276h184v508h-90q0 -291 -94 -508z" />
    <glyph glyph-name="afii10070" unicode="&#x435;" horiz-adv-x="1269" 
d="M476 424q28 -154 200 -154q132 0 258 113l196 -215q-178 -193 -468 -193q-130 0 -244 43t-193.5 117t-125.5 176.5t-46 218.5q0 154 78 281.5t213.5 200.5t300.5 73q160 0 291.5 -71.5t206 -195t74.5 -273.5q0 -60 -21 -121h-720zM637 791q-135 0 -160 -144h316
q-11 74 -49 109t-107 35z" />
    <glyph glyph-name="afii10072" unicode="&#x436;" horiz-adv-x="1744" 
d="M1278 0l-140 377h-53v-377h-426v377h-52l-140 -377h-451l252 555l-233 506h446l121 -320h57v320h426v-320h57l122 320h446l-233 -506l252 -555h-451z" />
    <glyph glyph-name="afii10073" unicode="&#x437;" horiz-adv-x="1010" 
d="M311 698h168q26 0 43 16.5t17 41.5t-17 41t-43 16q-55 0 -86 -74l-311 157q47 88 156 138.5t251 50.5q188 0 312.5 -86.5t124.5 -214.5q0 -69 -46 -134.5t-118 -92.5q88 -29 147.5 -100t59.5 -158q0 -138 -138.5 -231t-347.5 -93q-151 0 -269 50.5t-177 140.5l294 177
q61 -95 142 -95q37 0 62.5 21.5t25.5 56.5t-25 56t-63 21h-162v295z" />
    <glyph glyph-name="afii10074" unicode="&#x438;" horiz-adv-x="1294" 
d="M1180 1061v-1061h-414v449l-293 -449h-358v1061h413v-449l293 449h359z" />
    <glyph glyph-name="afii10075" unicode="&#x439;" horiz-adv-x="1294" 
d="M647 1192q-163 0 -283.5 91t-123.5 230h321q1 -34 26 -55.5t60 -21.5t60 21.5t26 55.5h322q-3 -139 -124 -230t-284 -91zM1180 1061v-1061h-414v449l-293 -449h-358v1061h413v-449l293 449h359z" />
    <glyph glyph-name="afii10076" unicode="&#x43a;" horiz-adv-x="1200" 
d="M733 0l-142 387h-50v-387h-426v1061h426v-309h57l121 309h446l-231 -496l250 -565h-451z" />
    <glyph glyph-name="afii10077" unicode="&#x43b;" horiz-adv-x="1312" 
d="M1198 1061v-1061h-426v702h-127v-350q0 -162 -132.5 -261t-332.5 -99q-84 0 -139 8v360h56q56 0 89 30t33 85v586h979z" />
    <glyph glyph-name="afii10078" unicode="&#x43c;" horiz-adv-x="1439" 
d="M555 1061l164 -451l166 451h440v-1061h-389v553l-107 -289h-219l-106 289v-553h-389v1061h440z" />
    <glyph glyph-name="afii10079" unicode="&#x43d;" horiz-adv-x="1294" 
d="M1180 1061v-1061h-426v370h-213v-370h-426v1061h426v-333h213v333h426z" />
    <glyph glyph-name="afii10080" unicode="&#x43e;" horiz-adv-x="1314" 
d="M53 530q0 154 79 281.5t218 200.5t307 73t307 -73t218.5 -200.5t79.5 -281.5t-79.5 -281.5t-218.5 -200.5t-307 -73t-307 73t-218 200.5t-79 281.5zM469 530q0 -80 52.5 -133t135.5 -53t136 53t53 133t-53 133.5t-136 53.5q-82 0 -135 -53.5t-53 -133.5z" />
    <glyph glyph-name="afii10081" unicode="&#x43f;" horiz-adv-x="1294" 
d="M1180 1061v-1061h-426v702h-213v-702h-426v1061h1065z" />
    <glyph glyph-name="afii10082" unicode="&#x440;" horiz-adv-x="1357" 
d="M528 82v-557h-413v1536h413v-82q54 48 130.5 77t156.5 29q135 0 247.5 -73t177.5 -200.5t65 -281.5t-65 -281.5t-177.5 -200.5t-247.5 -73q-80 0 -156.5 29.5t-130.5 77.5zM528 610v-159q22 -48 67.5 -77.5t104.5 -29.5q83 0 136 53t53 133t-53 133.5t-136 53.5
q-59 0 -104.5 -29.5t-67.5 -77.5z" />
    <glyph glyph-name="afii10083" unicode="&#x441;" horiz-adv-x="1161" 
d="M909 446l215 -274q-85 -93 -205 -145t-262 -52q-168 0 -307 73t-218 200.5t-79 281.5t79 281.5t218 200.5t307 73q127 0 238.5 -42.5t194.5 -118.5l-193 -295q-111 88 -231 88q-83 0 -136 -53.5t-53 -133.5t53 -133t136 -53q111 0 243 102z" />
    <glyph glyph-name="afii10084" unicode="&#x442;" horiz-adv-x="1044" 
d="M309 692h-268v369h963v-369h-269v-692h-426v692z" />
    <glyph glyph-name="afii10085" unicode="&#x443;" horiz-adv-x="1155" 
d="M692 1061h447l-518 -1536h-449l203 475l-359 1061h447l115 -518z" />
    <glyph glyph-name="afii10086" unicode="&#x444;" horiz-adv-x="2072" 
d="M1243 82v-557h-414v557q-54 -48 -130.5 -77.5t-155.5 -29.5q-135 0 -247.5 73t-177.5 200.5t-65 281.5t65 281.5t177.5 200.5t247.5 73q80 0 156 -29t130 -77v516h414v-516q54 48 130.5 77t156.5 29q135 0 247.5 -73t177 -200.5t64.5 -281.5t-64.5 -281.5t-177 -200.5
t-247.5 -73q-80 0 -156.5 29.5t-130.5 77.5zM829 451v159q-22 48 -67.5 77.5t-104.5 29.5q-82 0 -135 -53.5t-53 -133.5t52.5 -133t135.5 -53q59 0 104.5 29.5t67.5 77.5zM1243 610v-159q22 -48 67.5 -77.5t104.5 -29.5q83 0 136 53t53 133t-53 133.5t-136 53.5
q-59 0 -104.5 -29.5t-67.5 -77.5z" />
    <glyph glyph-name="afii10087" unicode="&#x445;" horiz-adv-x="1155" 
d="M16 0l277 541l-250 520h446l89 -268l88 268h446l-250 -520l277 -541h-447l-114 289l-115 -289h-447z" />
    <glyph glyph-name="afii10088" unicode="&#x446;" horiz-adv-x="1353" 
d="M1180 358h133v-645h-377v287h-821v1061h426v-703h213v703h426v-703z" />
    <glyph glyph-name="afii10089" unicode="&#x447;" horiz-adv-x="1171" 
d="M631 0v324q-56 -50 -151 -50q-179 0 -303 114.5t-124 277.5v395h426v-373q0 -25 19 -40t48 -15q33 0 55.5 20t29.5 54v354h426v-1061h-426z" />
    <glyph glyph-name="afii10090" unicode="&#x448;" horiz-adv-x="1650" 
d="M1536 1061v-1061h-1421v1061h398v-703h115v703h395v-703h115v703h398z" />
    <glyph glyph-name="afii10091" unicode="&#x449;" horiz-adv-x="1710" 
d="M1292 -287v287h-1177v1061h398v-703h115v703h395v-703h115v703h398v-703h133v-645h-377z" />
    <glyph glyph-name="afii10092" unicode="&#x44a;" horiz-adv-x="1292" 
d="M842 375q0 44 -29.5 73t-75.5 29h-80v-205h80q46 0 75.5 29.5t29.5 73.5zM1239 375q0 -158 -121.5 -266.5t-298.5 -108.5h-559v733h-219v328h616v-311h162q177 0 298.5 -108.5t121.5 -266.5z" />
    <glyph glyph-name="afii10093" unicode="&#x44b;" horiz-adv-x="1687" 
d="M696 375q0 44 -29 73t-75 29h-80v-205h80q46 0 75 29t29 74zM1094 375q0 -158 -121.5 -266.5t-298.5 -108.5h-559v1061h397v-311h162q177 0 298.5 -108.5t121.5 -266.5zM1147 0v1061h426v-1061h-426z" />
    <glyph glyph-name="afii10094" unicode="&#x44c;" horiz-adv-x="1146" 
d="M696 375q0 44 -29 73t-75 29h-80v-205h80q46 0 75 29t29 74zM1094 375q0 -158 -121.5 -266.5t-298.5 -108.5h-559v1061h397v-311h162q177 0 298.5 -108.5t121.5 -266.5z" />
    <glyph glyph-name="afii10095" unicode="&#x44d;" horiz-adv-x="1161" 
d="M37 172l205 240q140 -119 254 -119q63 0 114 30.5t82 83.5h-348v243h350q-30 54 -82 86t-116 32q-114 0 -242 -104l-182 260q83 76 194 118.5t238 42.5q168 0 307 -73t218 -200.5t79 -281.5t-79 -281.5t-218 -200.5t-307 -73q-142 0 -262 52t-205 145z" />
    <glyph glyph-name="afii10096" unicode="&#x44e;" horiz-adv-x="1849" 
d="M530 1061v-344h91q62 165 216.5 266.5t354.5 101.5q168 0 307 -73t218 -200.5t79 -281.5t-79 -281.5t-218 -200.5t-307 -73q-202 0 -357 103t-215 270h-90v-348h-415v1061h415zM1004 530q0 -80 52.5 -133t135.5 -53t135.5 53t52.5 133t-53 133.5t-135 53.5t-135 -53.5
t-53 -133.5z" />
    <glyph glyph-name="afii10097" unicode="&#x44f;" horiz-adv-x="1173" 
d="M467 0h-430l281 391q-106 39 -170 126t-64 196q0 148 112.5 248t278.5 100h584v-1061h-377v342zM682 788h-117q-37 0 -60.5 -20.5t-23.5 -54.5t23.5 -55t60.5 -21h117v151z" />
    <glyph glyph-name="uni0450" unicode="&#x450;" horiz-adv-x="1269" 
d="M476 424q28 -154 200 -154q132 0 258 113l196 -215q-178 -193 -468 -193q-130 0 -244 43t-193.5 117t-125.5 176.5t-46 218.5q0 154 78 281.5t213.5 200.5t300.5 73q160 0 291.5 -71.5t206 -195t74.5 -273.5q0 -60 -21 -121h-720zM637 791q-135 0 -160 -144h316
q-11 74 -49 109t-107 35zM636 1563l232 -351h-391l-269 351h428z" />
    <glyph glyph-name="afii10071" unicode="&#x451;" horiz-adv-x="1269" 
d="M476 424q28 -154 200 -154q132 0 258 113l196 -215q-178 -193 -468 -193q-130 0 -244 43t-193.5 117t-125.5 176.5t-46 218.5q0 154 78 281.5t213.5 200.5t300.5 73q160 0 291.5 -71.5t206 -195t74.5 -273.5q0 -60 -21 -121h-720zM637 791q-135 0 -160 -144h316
q-11 74 -49 109t-107 35zM214 1372q0 82 56.5 137.5t140.5 55.5t140 -55.5t56 -137.5t-56 -137t-140 -55t-140.5 55t-56.5 137zM663 1372q0 82 56 137.5t140 55.5t140.5 -55.5t56.5 -137.5t-56.5 -137t-140.5 -55t-140 55t-56 137z" />
    <glyph glyph-name="afii10099" unicode="&#x452;" horiz-adv-x="1304" 
d="M20 1157v217h125v121h426v-121h228v-217h-228v-192q36 57 100 88.5t140 31.5q170 0 284.5 -114.5t114.5 -284.5v-792q0 -165 -128 -267t-334 -102q-84 0 -150 16v295q39 -8 102 -8q38 0 61 20.5t23 53.5v706q0 47 -30.5 78t-79.5 31q-35 0 -63 -19t-40 -49v-649h-426
v1157h-125z" />
    <glyph glyph-name="afii10100" unicode="&#x453;" horiz-adv-x="897" 
d="M856 692h-315v-692h-426v1061h741v-369zM186 1212l233 351h428l-269 -351h-392z" />
    <glyph glyph-name="afii10101" unicode="&#x454;" horiz-adv-x="1161" 
d="M920 412l204 -240q-85 -93 -205 -145t-262 -52q-168 0 -307 73t-218 200.5t-79 281.5t79 281.5t218 200.5t307 73q127 0 238.5 -42.5t194.5 -118.5l-183 -260q-128 104 -241 104q-64 0 -117 -32t-83 -86h351v-243h-348q30 -53 82 -83.5t115 -30.5q114 0 254 119z" />
    <glyph glyph-name="afii10102" unicode="&#x455;" horiz-adv-x="987" 
d="M42 152l170 233q49 -52 117 -81.5t139 -29.5q76 0 76 43q0 24 -28 40.5t-95 31.5q-158 35 -249 130.5t-91 228.5q0 147 118 242t296 95q107 0 213 -39t194 -108l-166 -231q-92 79 -198 79q-56 0 -56 -43q0 -49 109 -71q174 -36 264 -129t90 -226q0 -148 -125 -245
t-315 -97q-139 0 -261 47t-202 130z" />
    <glyph glyph-name="afii10103" unicode="&#x456;" horiz-adv-x="638" 
d="M106 0v1061h426v-1061h-426zM88 1327q0 91 66.5 152t164.5 61t165 -61t67 -152t-67 -152t-165 -61t-164.5 61t-66.5 152z" />
    <glyph glyph-name="afii10104" unicode="&#x457;" horiz-adv-x="638" 
d="M106 0v1061h426v-1061h-426zM-101 1372q0 82 56 137.5t140 55.5t140.5 -55.5t56.5 -137.5t-56.5 -137t-140.5 -55t-140 55t-56 137zM347 1372q0 82 56.5 137.5t140.5 55.5t140 -55.5t56 -137.5t-56 -137t-140 -55t-140.5 55t-56.5 137z" />
    <glyph glyph-name="afii10105" unicode="&#x458;" horiz-adv-x="638" 
d="M106 -37v1098h426v-1167q0 -160 -117 -264.5t-294 -104.5q-80 0 -154 18v346h60q38 0 58.5 20t20.5 54zM88 1327q0 91 66.5 152t164.5 61t165 -61t67 -152t-67 -152t-165 -61t-164.5 61t-66.5 152z" />
    <glyph glyph-name="afii10106" unicode="&#x459;" horiz-adv-x="1802" 
d="M1352 375q0 44 -29.5 73t-75.5 29h-80v-205h80q46 0 75.5 29.5t29.5 73.5zM1167 1061v-311h162q177 0 298.5 -108.5t121.5 -266.5t-121.5 -266.5t-298.5 -108.5h-559v713h-125v-361q0 -162 -132.5 -261t-332.5 -99q-84 0 -139 8v360h56q56 0 89 30t33 85v586h948z" />
    <glyph glyph-name="afii10107" unicode="&#x45a;" horiz-adv-x="1783" 
d="M1731 375q0 -158 -121.5 -266.5t-298.5 -108.5h-559v370h-211v-370h-426v1061h426v-333h211v333h397v-311h162q177 0 298.5 -108.5t121.5 -266.5zM1333 375q0 44 -29 73t-75 29h-80v-205h80q45 0 74.5 29t29.5 74z" />
    <glyph glyph-name="afii10108" unicode="&#x45b;" horiz-adv-x="1304" 
d="M20 1157v217h125v121h426v-121h228v-217h-228v-192q36 57 100 88.5t140 31.5q170 0 284.5 -114.5t114.5 -284.5v-686h-426v608q0 47 -30.5 78t-79.5 31q-35 0 -63 -19t-40 -49v-649h-426v1157h-125z" />
    <glyph glyph-name="afii10109" unicode="&#x45c;" horiz-adv-x="1200" 
d="M733 0l-142 387h-50v-387h-426v1061h426v-309h57l121 309h446l-231 -496l250 -565h-451zM319 1212l233 351h428l-269 -351h-392z" />
    <glyph glyph-name="uni045D" unicode="&#x45d;" horiz-adv-x="1294" 
d="M1180 1061v-1061h-414v449l-293 -449h-358v1061h413v-449l293 449h359zM660 1563l233 -351h-391l-270 351h428z" />
    <glyph glyph-name="afii10110" unicode="&#x45e;" horiz-adv-x="1155" 
d="M692 1061h447l-518 -1536h-449l203 475l-359 1061h447l115 -518zM578 1192q-163 0 -284 91t-124 230h322q1 -34 26 -55.5t60 -21.5t60 21.5t26 55.5h321q-3 -139 -123.5 -230t-283.5 -91z" />
    <glyph glyph-name="afii10193" unicode="&#x45f;" horiz-adv-x="1294" 
d="M1180 1061v-1061h-320v-287h-426v287h-319v1061h426v-703h213v703h426z" />
    <glyph glyph-name="afii10050" unicode="&#x490;" horiz-adv-x="1099" 
d="M137 0v1434h557v286h385v-663h-504v-1057h-438z" />
    <glyph glyph-name="afii10098" unicode="&#x491;" horiz-adv-x="907" 
d="M866 692h-325v-692h-426v1061h374v287h377v-656z" />
    <glyph glyph-name="Wgrave" unicode="&#x1e80;" horiz-adv-x="2056" 
d="M807 1434h442l174 -875l170 875h449l-367 -1434h-452l-195 846l-194 -846h-453l-367 1434h449l170 -875zM1029 1894l233 -350h-392l-269 350h428z" />
    <glyph glyph-name="wgrave" unicode="&#x1e81;" horiz-adv-x="1687" 
d="M641 1061h406l98 -572l100 572h426l-291 -1061h-436l-100 475l-101 -475h-436l-291 1061h426l101 -572zM846 1563l232 -351h-391l-269 351h428z" />
    <glyph glyph-name="Wacute" unicode="&#x1e82;" horiz-adv-x="2056" 
d="M807 1434h442l174 -875l170 875h449l-367 -1434h-452l-195 846l-194 -846h-453l-367 1434h449l170 -875zM796 1544l232 350h428l-269 -350h-391z" />
    <glyph glyph-name="wacute" unicode="&#x1e83;" horiz-adv-x="1687" 
d="M641 1061h406l98 -572l100 572h426l-291 -1061h-436l-100 475l-101 -475h-436l-291 1061h426l101 -572zM612 1212l233 351h428l-269 -351h-392z" />
    <glyph glyph-name="Wdieresis" unicode="&#x1e84;" horiz-adv-x="2056" 
d="M807 1434h442l174 -875l170 875h449l-367 -1434h-452l-195 846l-194 -846h-453l-367 1434h449l170 -875zM607 1704q0 82 56.5 137t140.5 55t140 -55t56 -137t-56 -137.5t-140 -55.5t-140.5 55.5t-56.5 137.5zM1056 1704q0 82 56 137t140 55t140.5 -55t56.5 -137
t-56.5 -137.5t-140.5 -55.5t-140 55.5t-56 137.5z" />
    <glyph glyph-name="wdieresis" unicode="&#x1e85;" horiz-adv-x="1687" 
d="M641 1061h406l98 -572l100 572h426l-291 -1061h-436l-100 475l-101 -475h-436l-291 1061h426l101 -572zM423 1372q0 82 56.5 137.5t140.5 55.5t140 -55.5t56 -137.5t-56 -137t-140 -55t-140.5 55t-56.5 137zM871 1372q0 82 56.5 137.5t140.5 55.5t140.5 -55.5
t56.5 -137.5t-56.5 -137t-140.5 -55t-140.5 55t-56.5 137z" />
    <glyph glyph-name="Ygrave" unicode="&#x1ef2;" horiz-adv-x="1372" 
d="M492 1434l194 -488l195 488h477l-453 -887v-547h-438v547l-453 887h478zM688 1894l233 -350h-392l-269 350h428z" />
    <glyph glyph-name="ygrave" unicode="&#x1ef3;" horiz-adv-x="1155" 
d="M692 1061h447l-518 -1536h-449l203 475l-359 1061h447l115 -518zM578 1563l232 -351h-391l-269 351h428z" />
    <glyph glyph-name="thinspace" unicode="&#x2009;" horiz-adv-x="409" 
 />
    <glyph glyph-name="uni2010" unicode="&#x2010;" horiz-adv-x="897" 
d="M782 492h-667v376h667v-376z" />
    <glyph glyph-name="figuredash" unicode="&#x2012;" horiz-adv-x="1228" 
d="M1126 492h-1024v376h1024v-376z" />
    <glyph glyph-name="endash" unicode="&#x2013;" horiz-adv-x="1024" 
d="M1024 492h-1024v376h1024v-376z" />
    <glyph glyph-name="emdash" unicode="&#x2014;" horiz-adv-x="2048" 
d="M2048 492h-2048v376h2048v-376z" />
    <glyph glyph-name="afii00208" unicode="&#x2015;" horiz-adv-x="2048" 
d="M1843 492h-1638v376h1638v-376z" />
    <glyph glyph-name="uni2016" unicode="&#x2016;" horiz-adv-x="1146" 
d="M135 -287v1823h391v-1823h-391zM621 -287v1823h391v-1823h-391z" />
    <glyph glyph-name="underscoredbl" unicode="&#x2017;" horiz-adv-x="1228" 
d="M102 -516v264h1024v-264h-1024zM102 -197v265h1024v-265h-1024z" />
    <glyph glyph-name="quoteleft" unicode="&#x2018;" horiz-adv-x="626" 
d="M553 1139q0 -96 -68 -161t-172 -65q-103 0 -171 65t-68 161q0 53 24 106l166 350h273l-117 -254q62 -26 97.5 -79.5t35.5 -122.5z" />
    <glyph glyph-name="quoteright" unicode="&#x2019;" horiz-adv-x="626" 
d="M74 1370q0 96 67.5 160.5t171.5 64.5t172 -64.5t68 -160.5q0 -51 -25 -106l-166 -351h-272l117 254q-62 26 -97.5 80t-35.5 123z" />
    <glyph glyph-name="quotesinglbase" unicode="&#x201a;" horiz-adv-x="626" 
d="M74 201q0 96 67.5 160.5t171.5 64.5t172 -64.5t68 -160.5q0 -52 -25 -107l-166 -350h-272l117 254q-62 26 -97.5 80t-35.5 123z" />
    <glyph glyph-name="quotereversed" unicode="&#x201b;" horiz-adv-x="626" 
d="M553 1370q0 -69 -35.5 -123t-97.5 -80l117 -254h-273l-166 351q-24 52 -24 106q0 96 67.5 160.5t171.5 64.5t172 -64.5t68 -160.5z" />
    <glyph glyph-name="quotedblleft" unicode="&#x201c;" horiz-adv-x="1136" 
d="M553 1139q0 -96 -68 -161t-172 -65q-103 0 -171 65t-68 161q0 53 24 106l166 350h273l-117 -254q62 -26 97.5 -79.5t35.5 -122.5zM1063 1139q0 -96 -68 -161t-172 -65q-103 0 -171 65t-68 161q0 53 24 106l166 350h273l-117 -254q62 -26 97.5 -79.5t35.5 -122.5z" />
    <glyph glyph-name="quotedblright" unicode="&#x201d;" horiz-adv-x="1136" 
d="M74 1370q0 96 67.5 160.5t171.5 64.5t172 -64.5t68 -160.5q0 -51 -25 -106l-166 -351h-272l117 254q-62 26 -97.5 80t-35.5 123zM584 1370q0 96 67.5 160.5t171.5 64.5t172 -64.5t68 -160.5q0 -51 -25 -106l-166 -351h-272l117 254q-62 26 -97.5 80t-35.5 123z" />
    <glyph glyph-name="quotedblbase" unicode="&#x201e;" horiz-adv-x="1136" 
d="M74 201q0 96 67.5 160.5t171.5 64.5t172 -64.5t68 -160.5q0 -52 -25 -107l-166 -350h-272l117 254q-62 26 -97.5 80t-35.5 123zM584 201q0 96 67.5 160.5t171.5 64.5t172 -64.5t68 -160.5q0 -52 -25 -107l-166 -350h-272l117 254q-62 26 -97.5 80t-35.5 123z" />
    <glyph glyph-name="uni201F" unicode="&#x201f;" horiz-adv-x="1136" 
d="M553 1370q0 -69 -35.5 -123t-97.5 -80l117 -254h-273l-166 351q-24 52 -24 106q0 96 67.5 160.5t171.5 64.5t172 -64.5t68 -160.5zM1063 1370q0 -69 -35.5 -123t-97.5 -80l117 -254h-273l-166 351q-24 52 -24 106q0 96 67.5 160.5t171.5 64.5t172 -64.5t68 -160.5z" />
    <glyph glyph-name="dagger" unicode="&#x2020;" horiz-adv-x="1169" 
d="M372 -268v1134h-275v359h275v307h426v-307h274v-359h-274v-1134h-426z" />
    <glyph glyph-name="daggerdbl" unicode="&#x2021;" horiz-adv-x="1169" 
d="M372 397v469h-275v359h275v307h426v-307h274v-359h-274v-469h274v-358h-274v-307h-426v307h-275v358h275z" />
    <glyph glyph-name="bullet" unicode="&#x2022;" horiz-adv-x="819" 
d="M78 680q0 139 96 234.5t236 95.5q139 0 235 -95.5t96 -234.5t-96 -234.5t-235 -95.5q-140 0 -236 95.5t-96 234.5z" />
    <glyph glyph-name="onedotenleader" unicode="&#x2024;" horiz-adv-x="626" 
d="M74 201q0 96 67.5 160.5t171.5 64.5t172 -64.5t68 -160.5t-68 -161t-172 -65q-103 0 -171 65t-68 161z" />
    <glyph glyph-name="twodotenleader" unicode="&#x2025;" horiz-adv-x="1253" 
d="M74 201q0 96 67.5 160.5t171.5 64.5t172 -64.5t68 -160.5t-68 -161t-172 -65q-103 0 -171 65t-68 161zM700 201q0 96 68 160.5t172 64.5t172 -64.5t68 -160.5t-68 -161t-172 -65t-172 65t-68 161z" />
    <glyph glyph-name="ellipsis" unicode="&#x2026;" horiz-adv-x="1880" 
d="M74 201q0 96 67.5 160.5t171.5 64.5t172 -64.5t68 -160.5t-68 -161t-172 -65q-103 0 -171 65t-68 161zM700 201q0 96 68 160.5t172 64.5t172 -64.5t68 -160.5t-68 -161t-172 -65t-172 65t-68 161zM1327 201q0 96 68 160.5t172 64.5t171.5 -64.5t67.5 -160.5t-68 -161
t-171 -65q-104 0 -172 65t-68 161z" />
    <glyph glyph-name="perthousand" unicode="&#x2030;" horiz-adv-x="2660" 
d="M410 0l739 1434h283l-738 -1434h-284zM384 1073q0 -37 23 -60.5t60 -23.5t60 23.5t23 60.5t-23 60.5t-60 23.5t-60 -23.5t-23 -60.5zM82 1073q0 158 111 266.5t274 108.5t274 -108.5t111 -266.5t-111 -266.5t-274 -108.5t-274 108.5t-111 266.5zM1291 360q0 -37 23 -60.5
t60 -23.5t60 23.5t23 60.5t-23 60.5t-60 23.5t-60 -23.5t-23 -60.5zM989 360q0 158 111 266.5t274 108.5t274 -108.5t111 -266.5t-111 -266t-274 -108t-274 108t-111 266zM2110 360q0 -37 23 -60.5t60 -23.5t60 23.5t23 60.5t-23 60.5t-60 23.5t-60 -23.5t-23 -60.5z
M1808 360q0 158 111 266.5t274 108.5t274 -108.5t111 -266.5t-111 -266t-274 -108t-274 108t-111 266z" />
    <glyph glyph-name="minute" unicode="&#x2032;" horiz-adv-x="710" 
d="M48 1053l177 381h459l-239 -381h-397z" />
    <glyph glyph-name="second" unicode="&#x2033;" horiz-adv-x="1241" 
d="M48 1053l177 381h459l-239 -381h-397zM579 1053l177 381h458l-238 -381h-397z" />
    <glyph glyph-name="guilsinglleft" unicode="&#x2039;" horiz-adv-x="768" 
d="M69 546v186l612 373v-315l-268 -151l268 -151v-315z" />
    <glyph glyph-name="guilsinglright" unicode="&#x203a;" horiz-adv-x="768" 
d="M699 732v-186l-612 -373v315l268 151l-268 151v315z" />
    <glyph glyph-name="exclamdbl" unicode="&#x203c;" horiz-adv-x="1230" 
d="M106 475v959h439v-959h-439zM72 199q0 94 73 158.5t181 64.5t181 -64.5t73 -158.5t-73 -159t-181 -65t-181 65t-73 159zM686 475v959h438v-959h-438zM651 199q0 94 73 158.5t181 64.5t181 -64.5t73 -158.5t-73 -159t-181 -65t-181 65t-73 159z" />
    <glyph glyph-name="uni203E" unicode="&#x203e;" horiz-adv-x="901" 
d="M102 1167v303h697v-303h-697z" />
    <glyph glyph-name="fraction" unicode="&#x2044;" horiz-adv-x="337" 
d="M-328 0l701 1434h293l-699 -1434h-295z" />
    <glyph glyph-name="zerosuperior" unicode="&#x2070;" 
d="M45 948q0 230 99.5 370t275.5 140t275.5 -140t99.5 -370t-99.5 -370t-275.5 -140t-275.5 140t-99.5 370zM350 948q0 -109 18.5 -170.5t51.5 -61.5t51 61t18 171t-18 171.5t-51 61.5t-51.5 -61.5t-18.5 -171.5z" />
    <glyph glyph-name="uni2071" unicode="&#x2071;" 
d="M273 463v686h293v-686h-293zM258 1328q0 62 46.5 104.5t115.5 42.5t115.5 -42.5t46.5 -104.5t-46.5 -104t-115.5 -42t-115.5 42t-46.5 104z" />
    <glyph glyph-name="foursuperior" unicode="&#x2074;" 
d="M28 613v227l391 594h274v-576h103v-245h-103v-150h-287v150h-378zM265 858h141v209z" />
    <glyph glyph-name="fivesuperior" unicode="&#x2075;" 
d="M450 1170l-11 -71q147 -9 244 -99.5t97 -221.5q0 -144 -106 -242t-268 -98q-114 0 -209 44.5t-156 122.5l189 191q72 -87 148 -87q36 0 59.5 23.5t23.5 58.5t-23 57.5t-56 22.5q-36 0 -60 -29l-233 30l69 562h586v-264h-294z" />
    <glyph glyph-name="sixsuperior" unicode="&#x2076;" 
d="M734 1434l-214 -329q121 -25 200.5 -110.5t79.5 -211.5q0 -147 -109.5 -246t-271.5 -99t-271.5 99t-109.5 246q0 101 49 175l312 476h335zM339 786q0 -38 23 -63t57 -25t57 25t23 63t-23 63t-57 25t-57 -25t-23 -63z" />
    <glyph glyph-name="sevensuperior" unicode="&#x2077;" 
d="M83 1434h678v-231l-301 -740h-330l293 699h-340v272z" />
    <glyph glyph-name="eightsuperior" unicode="&#x2078;" 
d="M340 770q0 -37 23.5 -61.5t56.5 -24.5t56.5 24.5t23.5 61.5q0 38 -23.5 62.5t-56.5 24.5t-56.5 -24.5t-23.5 -62.5zM759 1164q0 -54 -24 -103t-67 -79q60 -33 93.5 -96.5t33.5 -129.5q0 -134 -107.5 -226t-267.5 -92t-267.5 92t-107.5 226q0 66 33.5 129.5t93.5 96.5
q-43 30 -67 79t-24 103q0 124 97 209t242 85t242 -85t97 -209zM360 1155q0 -27 16.5 -45t43.5 -18q26 0 42.5 18t16.5 45t-16.5 45t-42.5 18q-27 0 -43.5 -18t-16.5 -45z" />
    <glyph glyph-name="ninesuperior" unicode="&#x2079;" 
d="M105 463l214 329q-121 25 -200 110t-79 211q0 147 109.5 246t271.5 99t271.5 -99t109.5 -246q0 -101 -49 -175l-313 -475h-335zM501 1110q0 38 -23 63t-57 25t-57 -25t-23 -63t23 -63t57 -25t57 25t23 63z" />
    <glyph glyph-name="uni207A" unicode="&#x207a;" 
d="M270 614v199h-196v270h196v199h299v-199h197v-270h-197v-199h-299z" />
    <glyph glyph-name="uni207B" unicode="&#x207b;" 
d="M766 813h-692v270h692v-270z" />
    <glyph glyph-name="uni207C" unicode="&#x207c;" 
d="M766 649h-692v260h692v-260zM766 987h-692v260h692v-260z" />
    <glyph glyph-name="uni207D" unicode="&#x207d;" 
d="M262 948q0 168 66.5 330t179.5 287l215 -140q-160 -217 -160 -477t160 -477l-215 -139q-113 125 -179.5 286.5t-66.5 329.5z" />
    <glyph glyph-name="uni207E" unicode="&#x207e;" 
d="M578 948q0 -168 -66.5 -329.5t-179.5 -286.5l-215 139q159 216 159 477t-159 477l215 140q113 -125 179.5 -287t66.5 -330z" />
    <glyph glyph-name="uni207F" unicode="&#x207f;" 
d="M366 879v-416h-289v686h289v-53q52 67 140 67q112 0 187 -74.5t75 -185.5v-440h-289v391q0 26 -16.5 43t-42.5 17q-36 0 -54 -35z" />
    <glyph glyph-name="zeroinferior" unicode="&#x2080;" 
d="M45 217q0 230 99.5 370t275.5 140t275.5 -140t99.5 -370t-99.5 -370t-275.5 -140t-275.5 140t-99.5 370zM350 217q0 -109 18.5 -170.5t51.5 -61.5t51 61t18 171t-18 171.5t-51 61.5t-51.5 -61.5t-18.5 -171.5z" />
    <glyph glyph-name="oneinferior" unicode="&#x2081;" 
d="M370 702h269v-970h-318v680l-136 -75l-109 205z" />
    <glyph glyph-name="twoinferior" unicode="&#x2082;" 
d="M652 182l-164 -179h261v-271h-660v243l319 353q37 40 37 78q0 20 -12 32.5t-31 12.5q-42 0 -63 -77l-279 81q19 116 115.5 194t234.5 78q149 0 248.5 -80t99.5 -200q0 -148 -106 -265z" />
    <glyph glyph-name="threeinferior" unicode="&#x2083;" 
d="M446 54q0 33 -21.5 55t-53.5 22q-23 0 -50 -15l-123 152l171 171h-272v263h625v-249l-165 -149q102 -38 157 -112t55 -176q0 -132 -109.5 -220.5t-271.5 -88.5q-111 0 -204 46.5t-143 128.5l180 188q66 -94 150 -94q32 0 53.5 22t21.5 56z" />
    <glyph glyph-name="fourinferior" unicode="&#x2084;" 
d="M28 -118v227l391 593h274v-575h103v-245h-103v-150h-287v150h-378zM265 127h141v209z" />
    <glyph glyph-name="fiveinferior" unicode="&#x2085;" 
d="M450 439l-11 -71q147 -9 244 -99.5t97 -221.5q0 -144 -106 -242t-268 -98q-114 0 -209 44.5t-156 122.5l189 191q73 -88 148 -88q36 0 59.5 23.5t23.5 58.5t-23 58t-56 23q-36 0 -60 -29l-233 30l69 561h586v-263h-294z" />
    <glyph glyph-name="sixinferior" unicode="&#x2086;" 
d="M734 702l-214 -328q121 -25 200.5 -110.5t79.5 -211.5q0 -147 -109.5 -246t-271.5 -99t-271.5 99t-109.5 246q0 101 49 175l312 475h335zM339 55q0 -38 23 -63t57 -25t57 25t23 63t-23 63t-57 25t-57 -25t-23 -63z" />
    <glyph glyph-name="seveninferior" unicode="&#x2087;" 
d="M83 702h678v-230l-301 -740h-330l293 699h-340v271z" />
    <glyph glyph-name="eightinferior" unicode="&#x2088;" 
d="M340 39q0 -37 23.5 -61.5t56.5 -24.5t56.5 24.5t23.5 61.5q0 38 -23.5 62.5t-56.5 24.5t-56.5 -24.5t-23.5 -62.5zM759 433q0 -54 -24 -103t-67 -79q60 -33 93.5 -96.5t33.5 -129.5q0 -134 -107.5 -226t-267.5 -92t-267.5 92t-107.5 226q0 66 33.5 129.5t93.5 96.5
q-43 30 -67 79t-24 103q0 124 97 209t242 85t242 -85t97 -209zM360 424q0 -27 17 -45.5t43 -18.5t42.5 18.5t16.5 45.5t-16 44.5t-43 17.5t-43.5 -17.5t-16.5 -44.5z" />
    <glyph glyph-name="nineinferior" unicode="&#x2089;" 
d="M105 -268l214 328q-120 25 -199.5 110.5t-79.5 211.5q0 147 109.5 246t271.5 99t271.5 -99t109.5 -246q0 -101 -49 -175l-313 -475h-335zM501 379q0 38 -23 63t-57 25t-57 -25t-23 -63t23 -63t57 -25t57 25t23 63z" />
    <glyph glyph-name="uni208A" unicode="&#x208a;" 
d="M270 -117v199h-196v270h196v199h299v-199h197v-270h-197v-199h-299z" />
    <glyph glyph-name="uni208B" unicode="&#x208b;" 
d="M766 82h-692v270h692v-270z" />
    <glyph glyph-name="uni208C" unicode="&#x208c;" 
d="M766 -82h-692v260h692v-260zM766 256h-692v260h692v-260z" />
    <glyph glyph-name="uni208D" unicode="&#x208d;" 
d="M262 217q0 168 66.5 330t179.5 287l215 -140q-160 -217 -160 -477t160 -477l-215 -139q-113 125 -179.5 286.5t-66.5 329.5z" />
    <glyph glyph-name="uni208E" unicode="&#x208e;" 
d="M578 217q0 -168 -66.5 -329.5t-179.5 -286.5l-215 139q159 216 159 477t-159 477l215 140q113 -125 179.5 -287t66.5 -330z" />
    <glyph glyph-name="uni2090" unicode="&#x2090;" 
d="M509 14v102q-13 26 -40 42.5t-60 16.5q-48 0 -79 -31t-31 -78q0 -46 31 -78t79 -32q74 0 100 58zM509 -279v53q-30 -29 -78 -48t-98 -19q-132 0 -222.5 104t-90.5 255t90.5 254.5t222.5 103.5q50 0 98 -19t78 -48v53h277v-689h-277z" />
    <glyph glyph-name="uni2091" unicode="&#x2091;" 
d="M330 -7q20 -86 115 -86q87 0 164 66l134 -137q-120 -129 -307 -129q-170 0 -280.5 103t-110.5 256q0 152 110 255t271 103q157 0 262.5 -100.5t105.5 -248.5q0 -35 -15 -82h-449zM421 223q-75 0 -91 -78h179q-15 78 -88 78z" />
    <glyph glyph-name="uni2092" unicode="&#x2092;" 
d="M31 66q0 152 111.5 255t276.5 103q166 0 277.5 -103t111.5 -255t-111.5 -255.5t-277.5 -103.5q-165 0 -276.5 103.5t-111.5 255.5zM309 66q0 -46 31 -78t79 -32t79 32t31 78q0 47 -31 78t-79 31t-79 -31t-31 -78z" />
    <glyph glyph-name="uni2093" unicode="&#x2093;" 
d="M48 -279l189 351l-171 338h307l46 -153l46 153h307l-171 -337l190 -352h-309l-63 169l-63 -169h-308z" />
    <glyph glyph-name="uni2094" unicode="&#x2094;" 
d="M46 56q0 38 14 82h450q-20 86 -116 86q-87 0 -164 -66l-134 137q120 129 307 129q170 0 281 -102.5t111 -255.5q0 -152 -110 -255.5t-271 -103.5q-157 0 -262.5 100.5t-105.5 248.5zM419 -92q75 0 91 78h-180q15 -78 89 -78z" />
    <glyph glyph-name="uni20A0" unicode="&#x20a0;" horiz-adv-x="1643" 
d="M606 432q-154 0 -281 67.5t-199.5 185t-72.5 260.5t72.5 260.5t199.5 185t281 67.5q218 0 394 -148l-179 -262q-108 96 -205 96q-78 0 -129.5 -56.5t-51.5 -142.5t51.5 -142.5t129.5 -56.5q118 0 198 85v162h703v-276h-351v-86h320v-261h-320v-91h363v-277h-715v490
q-99 -60 -208 -60z" />
    <glyph glyph-name="colonmonetary" unicode="&#x20a1;" horiz-adv-x="1449" 
d="M1208 1642l-43 -241q114 -45 211 -125l-202 -287q-34 32 -72 54l-125 -703q127 37 209 119l211 -285q-202 -179 -484 -197l-32 -186h-187l34 194q-49 7 -77 14l-37 -208h-186l48 271q-187 94 -296.5 268t-109.5 387q0 185 83.5 342t232 259t335.5 130l35 194h186
l-33 -186q13 0 78 -8l35 194h186zM713 349q38 -15 75 -22l139 779q-44 6 -73 6h-6zM477 717q0 -132 73 -237l100 572q-80 -54 -126.5 -142t-46.5 -193z" />
    <glyph glyph-name="uni20A2" unicode="&#x20a2;" horiz-adv-x="1449" 
d="M854 -25q-164 0 -309.5 57.5t-249.5 156.5t-164.5 236.5t-60.5 291.5t60.5 291.5t164.5 236t249.5 156t309.5 57.5q305 0 522 -182l-202 -287q-56 54 -142.5 88.5t-177.5 34.5q-158 0 -267.5 -114.5t-109.5 -280.5q0 -107 48.5 -196.5t131.5 -142.5v492h336v-75
q65 90 158 90q48 0 92 -23l-29 -261q-50 22 -84 22q-89 0 -137 -91v-187q118 39 193 114l211 -285q-224 -199 -543 -199z" />
    <glyph glyph-name="franc" unicode="&#x20a3;" horiz-adv-x="1173" 
d="M188 0v414h-168v184h168v74h-168v184h168v578h934v-373h-495v-205h274v-184h-274v-74h274v-184h-274v-414h-439z" />
    <glyph glyph-name="lira" unicode="&#x20a4;" horiz-adv-x="1211" 
d="M256 444h-193v174h208q-7 34 -15 64h-193v174h125q-36 98 -36 191q0 172 140.5 291.5t344.5 119.5q158 0 281 -74t174 -192l-361 -195q-36 84 -94 84q-25 0 -41 -18.5t-16 -46.5q0 -67 40 -160h293v-174h-225q10 -36 14 -64h211v-174h-235q-32 -63 -88 -88h528v-356
h-1007v332q102 27 145 112z" />
    <glyph glyph-name="uni20A6" unicode="&#x20a6;" horiz-adv-x="1523" 
d="M164 0v485h-144v195h144v74h-144v194h144v486h479l320 -832v832h397v-486h143v-194h-143v-74h143v-195h-143v-485h-479l-320 831v-831h-397z" />
    <glyph glyph-name="peseta" unicode="&#x20a7;" horiz-adv-x="2473" 
d="M2059 0h-602q-155 0 -242 85t-87 239v393h-116q-52 -128 -157 -203.5t-235 -75.5h-91v-438h-392v1434h483q154 0 269.5 -104t150.5 -269h88v270l382 39v-309h155v-344h-155v-359q0 -59 48 -59h472q40 0 40 37q0 23 -19.5 38t-63.5 27q-132 37 -210 130t-78 223
q0 146 100 238.5t252 92.5q92 0 181.5 -39.5t160.5 -109.5l-144 -229q-87 77 -154 77q-34 0 -34 -34q0 -47 72 -66q147 -39 223 -128.5t76 -219.5q0 -147 -105.5 -241.5t-267.5 -94.5zM529 770h40q44 0 73.5 47t29.5 119t-29.5 119t-73.5 47h-40v-332z" />
    <glyph glyph-name="uni20A8" unicode="&#x20a8;" horiz-adv-x="1985" 
d="M945 557l248 -557h-453l-185 468v-468h-418v1434h535q205 0 342.5 -134t137.5 -344q0 -129 -55 -232.5t-152 -166.5zM1157 152l145 217q93 -95 227 -95q84 0 84 43q0 22 -28 38.5t-94 33.5q-137 34 -216 129.5t-79 229.5q0 147 102 242t255 95q91 0 185 -39t172 -108
l-145 -218q-79 66 -174 66q-64 0 -64 -43q0 -46 109 -71q148 -36 228 -130t80 -225q0 -148 -108.5 -245t-272.5 -97q-120 0 -227.5 47t-178.5 130zM555 782h63q52 0 85.5 45t33.5 115t-33.5 115t-85.5 45h-63v-320z" />
    <glyph glyph-name="uni20A9" unicode="&#x20a9;" horiz-adv-x="2088" 
d="M827 1434h443l174 -875l170 875h448l-129 -502h135v-195h-184l-19 -73h203v-195h-252l-120 -469h-453l-194 846l-195 -846h-453l-119 469h-262v195h211l-18 73h-193v195h143l-128 502h448l170 -875z" />
    <glyph glyph-name="afii57636" unicode="&#x20aa;" horiz-adv-x="1835" 
d="M137 0v1434h613q150 0 274.5 -63.5t196 -174t71.5 -242.5v-417h-344v346q0 94 -62.5 156.5t-156.5 62.5h-248v-1102h-344zM1698 1434v-1434h-613q-150 0 -274.5 63.5t-196 173.5t-71.5 242v418h344v-346q0 -94 62.5 -156.5t156.5 -62.5h248v1102h344z" />
    <glyph glyph-name="dong" unicode="&#x20ab;" horiz-adv-x="1425" 
d="M829 0v82q-54 -48 -130.5 -77.5t-155.5 -29.5q-135 0 -247.5 73t-177.5 200.5t-65 281.5t65 281.5t177.5 200.5t247.5 73q80 0 156 -29t130 -77v178h-233v217h233v121h414v-121h131v-217h-131v-1157h-414zM348 -430v303h789v-303h-789zM829 451v159q-22 48 -67.5 77.5
t-104.5 29.5q-82 0 -135 -53.5t-53 -133.5t52.5 -133t135.5 -53q59 0 104.5 29.5t67.5 77.5z" />
    <glyph glyph-name="Euro" unicode="&#x20ac;" horiz-adv-x="1523" 
d="M928 -25q-265 0 -469 141t-279 369h-160v189h124q-1 14 -1 43t1 43h-124v188h160q75 228 279 369t469 141q305 0 522 -182l-203 -287q-56 54 -142 88.5t-177 34.5q-94 0 -174.5 -44t-132.5 -120h434v-188h-502q-2 -14 -2 -43q0 -30 2 -43h502v-189h-434
q52 -76 132 -119.5t175 -43.5q91 0 182 39t150 98l210 -285q-224 -199 -542 -199z" />
    <glyph glyph-name="afii61248" unicode="&#x2105;" horiz-adv-x="2189" 
d="M568 0l701 1434h293l-699 -1434h-295zM1168 409q0 182 137.5 308t334.5 126q130 0 238.5 -57.5t171.5 -157.5t63 -219q0 -182 -138 -308.5t-335 -126.5t-334.5 126.5t-137.5 308.5zM1496 409q0 -60 41 -100.5t103 -40.5t103.5 40.5t41.5 100.5q0 59 -41.5 99.5
t-103.5 40.5t-103 -40t-41 -100zM716 946l185 -223q-65 -61 -159.5 -97t-192.5 -36q-197 0 -334.5 126t-137.5 308t137.5 308t334.5 126q96 0 189 -31t155 -85l-175 -246q-78 68 -169 68q-62 0 -103.5 -40.5t-41.5 -99.5t41.5 -99.5t103.5 -40.5q95 0 167 62z" />
    <glyph glyph-name="uni2109" unicode="&#x2109;" horiz-adv-x="1742" 
d="M41 1151q0 129 95 218t233 89t232.5 -89t94.5 -218t-94.5 -218t-232.5 -89t-233 89t-95 218zM293 1151q0 -33 21.5 -54.5t54.5 -21.5t54 21.5t21 54.5t-21 54.5t-54 21.5t-54.5 -21.5t-21.5 -54.5zM758 0v1434h934v-373h-496v-215h446v-373h-446v-473h-438z" />
    <glyph glyph-name="afii61289" unicode="&#x2113;" horiz-adv-x="1184" 
d="M1133 1083v-37q0 -366 -502 -640v-46q0 -28 18 -45.5t47 -17.5q46 0 79 26t59 85l286 -166q-42 -123 -159.5 -195t-264.5 -72q-153 0 -270 75t-155 195q-73 -28 -124 -44l-106 309q131 49 215 84v489q0 158 126.5 266.5t311.5 108.5t312 -108.5t127 -266.5zM631 1074
v-274q68 59 97.5 122.5t29.5 143.5v8q0 29 -17.5 46t-46.5 17t-46 -17t-17 -46z" />
    <glyph glyph-name="afii61352" unicode="&#x2116;" horiz-adv-x="2278" 
d="M137 0v1434h355l339 -729v729h376v-1434h-354l-340 729v-729h-376zM2164 311h-840v303h840v-303zM1646 1057q0 -42 28 -70.5t70 -28.5t70 28.5t28 70.5t-28 70t-70 28t-70 -28t-28 -70zM1304 1057q0 168 127.5 284.5t312.5 116.5t312.5 -116.5t127.5 -284.5t-127.5 -285
t-312.5 -117t-312.5 117t-127.5 285z" />
    <glyph glyph-name="uni2117" unicode="&#x2117;" horiz-adv-x="1646" 
d="M893 555h-84v-233h-268v788h352q131 0 220 -79.5t89 -197.5t-89 -198t-220 -80zM82 717q0 153 58 290t157 236t236 157t290 58t290.5 -58t236.5 -157t157 -236t58 -290t-58 -290.5t-157 -236.5t-236.5 -157t-290.5 -58t-290 58t-236 157t-157 236.5t-58 290.5zM217 717
q0 -169 80.5 -310.5t220 -223t305.5 -81.5t306 81.5t220.5 223t80.5 310.5q0 127 -47.5 241t-128.5 195.5t-193.5 129.5t-237.5 48q-166 0 -305.5 -81t-220 -222.5t-80.5 -310.5zM809 760h52q31 0 51 20.5t20 52.5t-20 52t-51 20h-52v-145z" />
    <glyph glyph-name="uni2120" unicode="&#x2120;" horiz-adv-x="1650" 
d="M44 816l143 159q49 -54 101 -87t85 -33q27 0 44.5 13.5t17.5 35.5q0 50 -97 69q-266 55 -266 240q0 103 81.5 168t211.5 65q176 0 303 -129l-132 -161q-108 97 -167 97q-18 0 -29.5 -8.5t-11.5 -22.5q0 -45 89 -65q274 -65 274 -253q0 -107 -85 -173.5t-231 -66.5
q-90 0 -178 40.5t-153 111.5zM1222 879h-157l-84 157v-360h-250v758h232l180 -301l179 301h231v-758h-249v355z" />
    <glyph glyph-name="uni2121" unicode="&#x2121;" horiz-adv-x="2396" 
d="M1222 424q18 -154 129 -154q87 0 199 131l189 -233q-69 -95 -172 -144t-228 -49q-148 0 -266.5 73t-184.5 200t-66 282q0 154 66 281.5t182 200.5t256 73q208 0 348.5 -156t140.5 -384q0 -54 -18 -121h-575zM326 0v1057h-285v377h981v-377h-285v-1057h-411zM1857 0v1495
h402v-1495h-402zM1320 791q-83 0 -98 -144h192q-13 144 -94 144z" />
    <glyph glyph-name="trademark" unicode="&#x2122;" horiz-adv-x="1622" 
d="M208 676v526h-170v232h613v-232h-170v-526h-273zM1193 879h-157l-84 157v-360h-250v758h232l180 -301l179 301h232v-758h-250v355z" />
    <glyph glyph-name="Omega" unicode="&#x2126;" horiz-adv-x="1675" 
d="M1159 743q0 143 -92.5 240.5t-228.5 97.5t-229 -97.5t-93 -240.5q0 -134 68.5 -236t195.5 -159v-348h-676v377h207q-233 147 -233 418q0 184 100.5 336t275 239.5t384.5 87.5q157 0 298 -51.5t242 -139.5t160 -211t59 -261q0 -271 -233 -418h207v-377h-676v348
q127 57 195.5 159t68.5 236z" />
    <glyph glyph-name="estimated" unicode="&#x212e;" horiz-adv-x="1646" 
d="M1206 823v241q-150 179 -383 179t-383 -179v-241h766zM440 610v-240q151 -180 383 -180q129 0 240.5 61t184.5 176l190 -129q-104 -152 -265.5 -237.5t-349.5 -85.5q-153 0 -290 58t-236 157t-157 236.5t-58 290.5t58 290t157 236t236 157t290 58t290.5 -58t236.5 -157
t157 -236t58 -290v-107h-1125z" />
    <glyph glyph-name="onethird" unicode="&#x2153;" horiz-adv-x="2017" 
d="M512 0l700 1434h293l-698 -1434h-295zM370 1434h269v-971h-318v680l-136 -75l-109 205zM1624 323q0 33 -22 54.5t-54 21.5q-23 0 -50 -15l-123 153l171 171h-271v263h625v-250l-165 -149q102 -38 157 -112t55 -175q0 -132 -110 -221t-271 -89q-111 0 -204 47t-143 129
l180 187q66 -93 149 -93q32 0 54 22t22 56z" />
    <glyph glyph-name="twothirds" unicode="&#x2154;" horiz-adv-x="2017" 
d="M652 913l-164 -179h261v-271h-660v244l319 352q37 40 37 78q0 20 -12 32.5t-31 12.5q-42 0 -63 -77l-279 81q19 116 115.5 194t234.5 78q149 0 248.5 -79.5t99.5 -199.5q0 -149 -106 -266zM512 0l700 1434h293l-698 -1434h-295zM1624 323q0 33 -22 54.5t-54 21.5
q-23 0 -50 -15l-123 153l171 171h-271v263h625v-250l-165 -149q102 -38 157 -112t55 -175q0 -132 -110 -221t-271 -89q-111 0 -204 47t-143 129l180 187q66 -93 149 -93q32 0 54 22t22 56z" />
    <glyph glyph-name="onefifth" unicode="&#x2155;" horiz-adv-x="2017" 
d="M512 0l700 1434h293l-698 -1434h-295zM370 1434h269v-971h-318v680l-136 -75l-109 205zM1627 706l-10 -72q147 -9 244 -99.5t97 -221.5q0 -144 -106.5 -242t-268.5 -98q-114 0 -208.5 44.5t-155.5 122.5l189 191q72 -87 147 -87q36 0 59.5 23.5t23.5 58.5t-22.5 58
t-55.5 23q-36 0 -61 -30l-232 31l68 561h587v-263h-295z" />
    <glyph glyph-name="twofifths" unicode="&#x2156;" horiz-adv-x="2017" 
d="M652 913l-164 -179h261v-271h-660v244l319 352q37 40 37 78q0 20 -12 32.5t-31 12.5q-42 0 -63 -77l-279 81q19 116 115.5 194t234.5 78q149 0 248.5 -79.5t99.5 -199.5q0 -149 -106 -266zM512 0l700 1434h293l-698 -1434h-295zM1627 706l-10 -72q147 -9 244 -99.5
t97 -221.5q0 -144 -106.5 -242t-268.5 -98q-114 0 -208.5 44.5t-155.5 122.5l189 191q72 -87 147 -87q36 0 59.5 23.5t23.5 58.5t-22.5 58t-55.5 23q-36 0 -61 -30l-232 31l68 561h587v-263h-295z" />
    <glyph glyph-name="threefifths" unicode="&#x2157;" horiz-adv-x="2017" 
d="M512 0l700 1434h293l-698 -1434h-295zM446 785q0 33 -21.5 55t-53.5 22q-23 0 -50 -15l-123 152l171 171h-272v264h625v-250l-165 -149q102 -38 157 -112t55 -175q0 -132 -110 -221t-271 -89q-111 0 -204 46.5t-143 128.5l180 188q66 -93 150 -93q32 0 53.5 21.5
t21.5 55.5zM1627 706l-10 -72q147 -9 244 -99.5t97 -221.5q0 -144 -106.5 -242t-268.5 -98q-114 0 -208.5 44.5t-155.5 122.5l189 191q72 -87 147 -87q36 0 59.5 23.5t23.5 58.5t-22.5 58t-55.5 23q-36 0 -61 -30l-232 31l68 561h587v-263h-295z" />
    <glyph glyph-name="fourfifths" unicode="&#x2158;" horiz-adv-x="2017" 
d="M28 613v227l391 594h274v-576h103v-245h-103v-150h-287v150h-378zM265 858h141v209zM512 0l700 1434h293l-698 -1434h-295zM1627 706l-10 -72q147 -9 244 -99.5t97 -221.5q0 -144 -106.5 -242t-268.5 -98q-114 0 -208.5 44.5t-155.5 122.5l189 191q72 -87 147 -87
q36 0 59.5 23.5t23.5 58.5t-22.5 58t-55.5 23q-36 0 -61 -30l-232 31l68 561h587v-263h-295z" />
    <glyph glyph-name="onesixth" unicode="&#x2159;" horiz-adv-x="2017" 
d="M512 0l700 1434h293l-698 -1434h-295zM370 1434h269v-971h-318v680l-136 -75l-109 205zM1912 971l-214 -329q121 -25 200 -110t79 -211q0 -147 -109.5 -246.5t-271.5 -99.5t-271.5 99.5t-109.5 246.5q0 99 50 175l312 475h335zM1517 324q0 -38 22.5 -63t56.5 -25t57 25
t23 63t-23 63t-57 25t-56.5 -25t-22.5 -63z" />
    <glyph glyph-name="fivesixths" unicode="&#x215a;" horiz-adv-x="2017" 
d="M450 1170l-11 -71q147 -9 244 -99.5t97 -221.5q0 -144 -106 -242t-268 -98q-114 0 -209 44.5t-156 122.5l189 191q72 -87 148 -87q36 0 59.5 23.5t23.5 58.5t-23 57.5t-56 22.5q-36 0 -60 -29l-233 30l69 562h586v-264h-294zM512 0l700 1434h293l-698 -1434h-295z
M1912 971l-214 -329q121 -25 200 -110t79 -211q0 -147 -109.5 -246.5t-271.5 -99.5t-271.5 99.5t-109.5 246.5q0 99 50 175l312 475h335zM1517 324q0 -38 22.5 -63t56.5 -25t57 25t23 63t-23 63t-57 25t-56.5 -25t-22.5 -63z" />
    <glyph glyph-name="oneeighth" unicode="&#x215b;" horiz-adv-x="2017" 
d="M512 0l700 1434h293l-698 -1434h-295zM370 1434h269v-971h-318v680l-136 -75l-109 205zM1518 305q0 -38 23 -62t56 -24t56.5 24.5t23.5 61.5q0 38 -23.5 62.5t-56.5 24.5t-56 -24.5t-23 -62.5zM1936 699q0 -54 -24 -103t-67 -79q60 -33 93.5 -96.5t33.5 -129.5
q0 -134 -107.5 -226t-267.5 -92t-267 92t-107 226q0 66 33.5 129.5t93.5 96.5q-44 30 -68 79t-24 103q0 124 97 209t242 85t242 -85t97 -209zM1538 690q0 -27 16.5 -45t42.5 -18q27 0 43.5 18t16.5 45t-16.5 45t-43.5 18q-26 0 -42.5 -18t-16.5 -45z" />
    <glyph glyph-name="threeeighths" unicode="&#x215c;" horiz-adv-x="2017" 
d="M512 0l700 1434h293l-698 -1434h-295zM446 785q0 33 -21.5 55t-53.5 22q-23 0 -50 -15l-123 152l171 171h-272v264h625v-250l-165 -149q102 -38 157 -112t55 -175q0 -132 -110 -221t-271 -89q-111 0 -204 46.5t-143 128.5l180 188q66 -93 150 -93q32 0 53.5 21.5
t21.5 55.5zM1518 305q0 -38 23 -62t56 -24t56.5 24.5t23.5 61.5q0 38 -23.5 62.5t-56.5 24.5t-56 -24.5t-23 -62.5zM1936 699q0 -54 -24 -103t-67 -79q60 -33 93.5 -96.5t33.5 -129.5q0 -134 -107.5 -226t-267.5 -92t-267 92t-107 226q0 66 33.5 129.5t93.5 96.5
q-44 30 -68 79t-24 103q0 124 97 209t242 85t242 -85t97 -209zM1538 690q0 -27 16.5 -45t42.5 -18q27 0 43.5 18t16.5 45t-16.5 45t-43.5 18q-26 0 -42.5 -18t-16.5 -45z" />
    <glyph glyph-name="fiveeighths" unicode="&#x215d;" horiz-adv-x="2017" 
d="M512 0l700 1434h293l-698 -1434h-295zM450 1170l-11 -71q147 -9 244 -99.5t97 -221.5q0 -144 -106 -242t-268 -98q-114 0 -209 44.5t-156 122.5l189 191q72 -87 148 -87q36 0 59.5 23.5t23.5 58.5t-23 57.5t-56 22.5q-36 0 -60 -29l-233 30l69 562h586v-264h-294z
M1518 305q0 -38 23 -62t56 -24t56.5 24.5t23.5 61.5q0 38 -23.5 62.5t-56.5 24.5t-56 -24.5t-23 -62.5zM1936 699q0 -54 -24 -103t-67 -79q60 -33 93.5 -96.5t33.5 -129.5q0 -134 -107.5 -226t-267.5 -92t-267 92t-107 226q0 66 33.5 129.5t93.5 96.5q-44 30 -68 79t-24 103
q0 124 97 209t242 85t242 -85t97 -209zM1538 690q0 -27 16.5 -45t42.5 -18q27 0 43.5 18t16.5 45t-16.5 45t-43.5 18q-26 0 -42.5 -18t-16.5 -45z" />
    <glyph glyph-name="seveneighths" unicode="&#x215e;" horiz-adv-x="2017" 
d="M83 1434h678v-231l-301 -740h-330l293 699h-340v272zM512 0l700 1434h293l-698 -1434h-295zM1518 305q0 -38 23 -62t56 -24t56.5 24.5t23.5 61.5q0 38 -23.5 62.5t-56.5 24.5t-56 -24.5t-23 -62.5zM1936 699q0 -54 -24 -103t-67 -79q60 -33 93.5 -96.5t33.5 -129.5
q0 -134 -107.5 -226t-267.5 -92t-267 92t-107 226q0 66 33.5 129.5t93.5 96.5q-44 30 -68 79t-24 103q0 124 97 209t242 85t242 -85t97 -209zM1538 690q0 -27 16.5 -45t42.5 -18q27 0 43.5 18t16.5 45t-16.5 45t-43.5 18q-26 0 -42.5 -18t-16.5 -45z" />
    <glyph glyph-name="uni215F" unicode="&#x215f;" horiz-adv-x="2017" 
d="M512 0l700 1434h293l-698 -1434h-295zM370 1434h269v-971h-318v680l-136 -75l-109 205z" />
    <glyph glyph-name="arrowleft" unicode="&#x2190;" horiz-adv-x="1761" 
d="M1688 899v-438h-1055v-238l-559 457l559 457v-238h1055z" />
    <glyph glyph-name="arrowup" unicode="&#x2191;" horiz-adv-x="1761" 
d="M1100 -78h-438v1055h-238l457 559l456 -559h-237v-1055z" />
    <glyph glyph-name="arrowright" unicode="&#x2192;" horiz-adv-x="1761" 
d="M74 461v438h1054v238l560 -457l-560 -457v238h-1054z" />
    <glyph glyph-name="arrowdown" unicode="&#x2193;" horiz-adv-x="1761" 
d="M662 1536h438v-1055h237l-456 -559l-457 559h238v1055z" />
    <glyph glyph-name="arrowboth" unicode="&#x2194;" horiz-adv-x="1761" 
d="M633 1137v-238h495v238l560 -457l-560 -457v238h-495v-238l-559 457z" />
    <glyph glyph-name="arrowupdn" unicode="&#x2195;" horiz-adv-x="1761" 
d="M424 481h238v496h-238l457 559l456 -559h-237v-496h237l-456 -559z" />
    <glyph glyph-name="arrowupdnbse" unicode="&#x21a8;" horiz-adv-x="1761" 
d="M903 -49h391v-213h-829v213h391l-432 530h238v496h-238l457 559l456 -559h-237v-496h237z" />
    <glyph glyph-name="partialdiff" unicode="&#x2202;" horiz-adv-x="1287" 
d="M567 963q67 0 128 -28t100 -77q-17 134 -66.5 183t-136.5 49q-145 0 -271 -113l-144 323q164 158 415 158q289 0 457.5 -204t168.5 -541q0 -173 -46.5 -313.5t-128 -233t-192 -142t-239.5 -49.5q-156 0 -285.5 65.5t-204 179t-74.5 249.5q0 135 72.5 249.5t192 179.5
t254.5 65zM612 344q72 0 114.5 41t60.5 137q-70 72 -175 72q-64 0 -106 -35.5t-42 -89.5t42 -89.5t106 -35.5z" />
    <glyph glyph-name="Delta" unicode="&#x2206;" horiz-adv-x="1437" 
d="M956 1434l467 -1434h-1409l467 1434h475zM719 985l-171 -633h342z" />
    <glyph glyph-name="product" unicode="&#x220f;" horiz-adv-x="1417" 
d="M1280 1516v-1743h-438v1366h-267v-1366h-438v1743h1143z" />
    <glyph glyph-name="summation" unicode="&#x2211;" horiz-adv-x="1370" 
d="M95 229l451 426l-451 404v457h1180v-373h-709l375 -336v-303l-373 -359h707v-372h-1180v456z" />
    <glyph glyph-name="minus" unicode="&#x2212;" horiz-adv-x="1212" 
d="M1098 492h-983v376h983v-376z" />
    <glyph glyph-name="uni2215" unicode="&#x2215;" horiz-adv-x="337" 
d="M-328 0l701 1434h293l-699 -1434h-295z" />
    <glyph glyph-name="uni2219" unicode="&#x2219;" horiz-adv-x="626" 
d="M74 673q0 96 67.5 160.5t171.5 64.5t172 -64.5t68 -160.5t-68 -161t-172 -65q-103 0 -171 65t-68 161z" />
    <glyph glyph-name="radical" unicode="&#x221a;" horiz-adv-x="1185" 
d="M787 0h-508l-279 768h426l82 -299l252 1108h426z" />
    <glyph glyph-name="infinity" unicode="&#x221e;" horiz-adv-x="1599" 
d="M462 600q47 0 82.5 18.5t70.5 61.5q-35 43 -70.5 61.5t-82.5 18.5q-35 0 -58.5 -22.5t-23.5 -57.5t23.5 -57.5t58.5 -22.5zM800 504q-164 -172 -369 -172q-155 0 -259.5 100t-104.5 248t104.5 248t259.5 100q195 0 369 -174q174 174 368 174q155 0 260 -100t105 -248
t-105 -248t-260 -100q-204 0 -368 172zM1138 600q35 0 58.5 22.5t23.5 57.5t-23.5 57.5t-58.5 22.5q-90 0 -154 -80q64 -80 154 -80z" />
    <glyph glyph-name="orthogonal" unicode="&#x221f;" horiz-adv-x="1273" 
d="M1253 377v-377h-1116v1178h438v-801h678z" />
    <glyph glyph-name="intersection" unicode="&#x2229;" horiz-adv-x="1345" 
d="M792 0v754q0 58 -33.5 95.5t-85.5 37.5t-85.5 -37.5t-33.5 -95.5v-754h-438v764q0 138 74 253t202 181t281 66t281 -66t202 -181t74 -253v-764h-438z" />
    <glyph glyph-name="integral" unicode="&#x222b;" horiz-adv-x="880" 
d="M227 -98v1306q0 165 128.5 267t334.5 102q84 0 150 -16v-295q-39 8 -103 8q-38 0 -61 -20.5t-23 -53.5v-1306q0 -165 -128.5 -267t-334.5 -102q-83 0 -149 16v295q39 -8 102 -8q38 0 61 20.5t23 53.5z" />
    <glyph glyph-name="approxequal" unicode="&#x2248;" horiz-adv-x="1212" 
d="M846 680q-116 0 -232 82q-83 59 -122 59q-50 0 -61 -89l-395 63q25 204 109.5 311.5t221.5 107.5q118 0 231 -81q82 -60 123 -60q49 0 60 89l396 -62q-25 -204 -109.5 -312t-221.5 -108zM846 127q-116 0 -232 82q-83 59 -122 59q-50 0 -61 -89l-395 63q25 204 109.5 312
t221.5 108q117 0 231 -82q82 -60 123 -60q49 0 60 89l396 -62q-25 -204 -109.5 -312t-221.5 -108z" />
    <glyph glyph-name="notequal" unicode="&#x2260;" horiz-adv-x="1212" 
d="M1098 266h-561l-109 -211h-272l108 211h-149v348h327l68 131h-395v349h573l96 186h273l-96 -186h137v-349h-316l-67 -131h383v-348z" />
    <glyph glyph-name="equivalence" unicode="&#x2261;" horiz-adv-x="1212" 
d="M1098 905h-983v328h983v-328zM1098 127h-983v328h983v-328zM1098 516h-983v328h983v-328z" />
    <glyph glyph-name="lessequal" unicode="&#x2264;" horiz-adv-x="1212" 
d="M1098 358l-983 357v278l983 357v-361l-463 -135l463 -135v-361zM1098 0h-983v338h983v-338z" />
    <glyph glyph-name="greaterequal" unicode="&#x2265;" horiz-adv-x="1212" 
d="M1098 715l-983 -357v361l463 135l-463 135v361l983 -357v-278zM1098 0h-983v338h983v-338z" />
    <glyph glyph-name="house" unicode="&#x2302;" horiz-adv-x="1345" 
d="M501 332h344v262l-172 182l-172 -182v-262zM1240 0h-1135v713l568 590l567 -590v-713z" />
    <glyph glyph-name="revlogicalnot" unicode="&#x2310;" horiz-adv-x="1212" 
d="M528 492v-277h-413v653h983v-376h-570z" />
    <glyph glyph-name="uni2318" unicode="&#x2318;" horiz-adv-x="1699" 
d="M541 930v104q0 45 -29.5 75t-73.5 30t-73 -30t-29 -75t29 -74.5t73 -29.5h103zM920 592v139h-140v-139h140zM1159 1034v-104h103q44 0 73 29.5t29 74.5t-29 75t-73 30t-73.5 -30t-29.5 -75zM541 289v104h-103q-44 0 -73 -29.5t-29 -74.5t29 -75t73 -30t73.5 30t29.5 75z
M541 602v119h-103q-151 0 -251.5 89.5t-100.5 223.5t101 224t251 90q151 0 252 -90t101 -224v-104h118v104q0 134 101 224t252 90q150 0 251 -90t101 -224t-100.5 -223.5t-251.5 -89.5h-103v-119h103q151 0 251.5 -89.5t100.5 -223.5t-101 -224t-251 -90q-151 0 -252 90
t-101 224v104h-118v-104q0 -134 -101 -224t-252 -90q-150 0 -251 90t-101 224t100.5 223.5t251.5 89.5h103zM1159 393v-104q0 -45 29.5 -75t73.5 -30t73 30t29 75t-29 74.5t-73 29.5h-103z" />
    <glyph glyph-name="lozenge" unicode="&#x25ca;" horiz-adv-x="1208" 
d="M1145 618l-541 -940l-541 940l541 941zM788 618l-184 363l-184 -363l184 -362z" />
    <glyph glyph-name="H18533" unicode="&#x25cf;" horiz-adv-x="2048" 
d="M332 668q0 187 93 346.5t252.5 252.5t346.5 93t346.5 -93t252.5 -252.5t93 -346.5t-93 -347t-252.5 -253t-346.5 -93t-346.5 93t-252.5 253t-93 347z" />
    <glyph glyph-name="commaaccent" horiz-adv-x="901" 
d="M136 -469l162 350h448l-223 -350h-387z" />
    <glyph glyph-name="zero.tnum" horiz-adv-x="1183" 
d="M51 717q0 220 63 386.5t186 260.5t292 94q168 0 291.5 -94t186.5 -261t63 -386q0 -334 -144.5 -538t-396.5 -204q-169 0 -292 94.5t-186 261t-63 386.5zM469 717q0 -169 32.5 -262t90.5 -93t90.5 93t32.5 262t-32 261.5t-91 92.5t-91 -92.5t-32 -261.5z" />
    <glyph glyph-name="one.tnum" horiz-adv-x="1057" 
d="M453 1434h376v-1434h-438v1040l-211 -116l-149 278z" />
    <glyph glyph-name="two.tnum" horiz-adv-x="1105" 
d="M898 668l-264 -291h403v-377h-948v346l471 520q62 68 62 125q0 35 -23.5 58.5t-58.5 23.5q-78 0 -109 -110l-383 112q27 163 165 273t337 110q214 0 358 -115t144 -288q0 -217 -154 -387z" />
    <glyph glyph-name="three.tnum" horiz-adv-x="1153" 
d="M645 479q0 55 -37.5 92t-93.5 37q-43 0 -72 -16l-166 207l271 270h-424v365h897v-355l-256 -231q153 -53 239.5 -163.5t86.5 -260.5q0 -126 -72.5 -229t-199 -161.5t-279.5 -58.5q-160 0 -294 65t-202 181l244 256q87 -127 227 -127q56 0 93.5 37t37.5 92z" />
    <glyph glyph-name="four.tnum" horiz-adv-x="1220" 
d="M47 231v336l567 867h390v-844h153v-359h-153v-231h-418v231h-539zM375 590h211v330z" />
    <glyph glyph-name="five.tnum" horiz-adv-x="1175" 
d="M621 1069l-19 -133q218 -8 364 -140t146 -327q0 -210 -154 -352t-387 -142q-166 0 -301.5 62.5t-220.5 171.5l260 262q95 -119 221 -119q62 0 102 38.5t40 96.5t-39 97t-96 39q-61 0 -101 -43l-317 43l100 811h840v-365h-438z" />
    <glyph glyph-name="six.tnum" horiz-adv-x="1228" 
d="M1057 1434l-318 -486q182 -31 304 -156.5t122 -314.5q0 -213 -158.5 -357.5t-392.5 -144.5t-392.5 144.5t-158.5 357.5q0 145 72 254l461 703h461zM477 481q0 -63 39 -104t98 -41t98.5 41t39.5 104t-39.5 104.5t-98.5 41.5t-98 -41.5t-39 -104.5z" />
    <glyph glyph-name="seven.tnum" horiz-adv-x="1046" 
d="M41 1434h975v-326l-451 -1108h-450l442 1057h-516v377z" />
    <glyph glyph-name="eight.tnum" horiz-adv-x="1208" 
d="M469 455q0 -63 39.5 -101.5t95.5 -38.5t95.5 38.5t39.5 101.5q0 62 -39.5 100.5t-95.5 38.5t-95.5 -38.5t-39.5 -100.5zM1092 1036q0 -84 -39 -156.5t-109 -113.5q94 -44 147.5 -138t53.5 -196q0 -127 -70.5 -232t-195 -165t-275.5 -60t-275.5 60t-195 165t-70.5 232
q0 102 53.5 196t147.5 138q-70 41 -108.5 113.5t-38.5 156.5q0 179 139.5 300.5t347.5 121.5q209 0 348.5 -121.5t139.5 -300.5zM502 1022q0 -45 28.5 -74.5t73.5 -29.5t74 29.5t29 74.5t-29 74.5t-74 29.5t-73.5 -29.5t-28.5 -74.5z" />
    <glyph glyph-name="nine.tnum" horiz-adv-x="1228" 
d="M172 0l317 485q-182 31 -304 156.5t-122 314.5q0 213 158.5 357.5t392.5 144.5t392.5 -144.5t158.5 -357.5q0 -146 -71 -254l-461 -702h-461zM752 952q0 63 -39.5 104.5t-98.5 41.5t-98 -41.5t-39 -104.5t39 -104t98 -41t98.5 41t39.5 104z" />
    <glyph glyph-name="parenleft.case" horiz-adv-x="921" 
d="M180 717q0 277 109.5 531t300.5 431l289 -186q-126 -156 -193.5 -355.5t-67.5 -420.5t67.5 -420.5t193.5 -355.5l-289 -187q-191 176 -300.5 431t-109.5 532z" />
    <glyph glyph-name="parenright.case" horiz-adv-x="921" 
d="M741 717q0 -277 -109 -532t-300 -431l-289 187q126 155 193 355t67 421t-67 421t-193 355l289 186q191 -176 300 -430.5t109 -531.5z" />
    <glyph glyph-name="hyphen.case" horiz-adv-x="897" 
d="M782 541h-667v377h667v-377z" />
    <glyph glyph-name="at.case" horiz-adv-x="1998" 
d="M1104 651v160q-14 32 -45 52t-72 20q-57 0 -95 -41.5t-38 -110.5t38 -110t95 -41q41 0 72 19.5t45 51.5zM1104 1100v67h358v-542q7 -36 30.5 -54t55.5 -18q55 0 95 69.5t40 170.5q0 121 -54 235.5t-145.5 201t-220 139t-268.5 52.5q-189 0 -345 -89.5t-245.5 -245
t-89.5 -343.5q0 -141 52.5 -266t145 -215.5t225 -143t284.5 -52.5q264 0 483 149l101 -192q-256 -175 -584 -175q-205 0 -384.5 69.5t-305.5 189t-198.5 285t-72.5 351.5q0 185 73 351t197 285t297.5 189t366.5 70q200 0 377 -71t300 -189.5t194 -274t71 -321.5
q0 -220 -123.5 -364t-310.5 -144q-96 0 -180 42.5t-125 113.5q-38 -70 -122 -113t-181 -43q-173 0 -287 131t-114 326q0 193 111.5 325t273.5 132q63 0 123.5 -24t101.5 -64z" />
    <glyph glyph-name="bracketleft.case" horiz-adv-x="921" 
d="M170 -195v1823h721v-377h-283v-1069h283v-377h-721z" />
    <glyph glyph-name="bracketright.case" horiz-adv-x="921" 
d="M752 1628v-1823h-721v377h282v1069h-282v377h721z" />
    <glyph glyph-name="braceleft.case" horiz-adv-x="921" 
d="M94 528v377q80 0 128 45.5t48 120.5v205q0 151 107.5 251.5t269.5 100.5h244v-377h-74q-47 0 -77.5 -27.5t-30.5 -70.5v-205q0 -88 -47 -148.5t-132 -82.5q85 -22 132 -83t47 -149v-204q0 -43 30.5 -71t77.5 -28h74v-377h-244q-162 0 -269.5 101t-107.5 252v204
q0 75 -48 120.5t-128 45.5z" />
    <glyph glyph-name="braceright.case" horiz-adv-x="921" 
d="M827 905v-377q-80 0 -128 -45.5t-48 -120.5v-204q0 -151 -107.5 -252t-269.5 -101h-243v377h73q47 0 78 28t31 71v204q0 88 46.5 149t131.5 83q-85 22 -131.5 82.5t-46.5 148.5v205q0 43 -31 70.5t-78 27.5h-73v377h243q162 0 269.5 -100.5t107.5 -251.5v-205
q0 -75 48 -120.5t128 -45.5z" />
    <glyph glyph-name="exclamdown.case" horiz-adv-x="651" 
d="M106 0v958h439v-958h-439zM72 1235q0 94 73 158.5t181 64.5t181 -64.5t73 -158.5t-73 -158.5t-181 -64.5t-181 64.5t-73 158.5z" />
    <glyph glyph-name="guillemotleft.case" horiz-adv-x="1341" 
d="M69 595v186l612 373v-315l-268 -151l268 -150v-316zM642 595v186l612 373v-315l-268 -151l268 -150v-316z" />
    <glyph glyph-name="periodcentered.case" horiz-adv-x="626" 
d="M74 729q0 96 67.5 160.5t171.5 64.5t172 -64.5t68 -160.5t-68 -160.5t-172 -64.5t-171.5 64.5t-67.5 160.5z" />
    <glyph glyph-name="guillemotright.case" horiz-adv-x="1341" 
d="M1273 781v-186l-613 -373v316l269 150l-269 151v315zM699 781v-186l-612 -373v316l268 150l-268 151v315z" />
    <glyph glyph-name="questiondown.case" horiz-adv-x="1153" 
d="M866 958v-370q-169 0 -252.5 -39.5t-83.5 -106.5q0 -40 35 -65t92 -25q130 0 267 107l176 -328q-96 -71 -222.5 -113.5t-248.5 -42.5q-230 0 -383.5 131t-153.5 326q0 143 90 260t246 166v100h438zM901 1235q0 -94 -73 -158.5t-181 -64.5t-181 64.5t-73 158.5t73 158.5
t181 64.5t181 -64.5t73 -158.5z" />
    <glyph glyph-name="endash.case" horiz-adv-x="1024" 
d="M1024 541h-1024v377h1024v-377z" />
    <glyph glyph-name="emdash.case" horiz-adv-x="2048" 
d="M2048 541h-2048v377h2048v-377z" />
    <glyph glyph-name="bullet.case" horiz-adv-x="819" 
d="M78 729q0 139 96 234.5t236 95.5q139 0 235 -95.5t96 -234.5t-96 -234.5t-235 -95.5q-140 0 -236 95.5t-96 234.5z" />
    <glyph glyph-name="guilsinglleft.case" horiz-adv-x="768" 
d="M69 595v186l612 373v-315l-268 -151l268 -150v-316z" />
    <glyph glyph-name="guilsinglright.case" horiz-adv-x="768" 
d="M699 781v-186l-612 -373v316l268 150l-268 151v315z" />
    <glyph glyph-name="zero.numerator" 
d="M45 948q0 230 99.5 370t275.5 140t275.5 -140t99.5 -370t-99.5 -370t-275.5 -140t-275.5 140t-99.5 370zM350 948q0 -109 18.5 -170.5t51.5 -61.5t51 61t18 171t-18 171.5t-51 61.5t-51.5 -61.5t-18.5 -171.5z" />
    <glyph glyph-name="one.numerator" 
d="M370 1434h269v-971h-318v680l-136 -75l-109 205z" />
    <glyph glyph-name="two.numerator" 
d="M652 913l-164 -179h261v-271h-660v244l319 352q37 40 37 78q0 20 -12 32.5t-31 12.5q-42 0 -63 -77l-279 81q19 116 115.5 194t234.5 78q149 0 248.5 -79.5t99.5 -199.5q0 -149 -106 -266z" />
    <glyph glyph-name="three.numerator" 
d="M446 785q0 33 -21.5 55t-53.5 22q-23 0 -50 -15l-123 152l171 171h-272v264h625v-250l-165 -149q102 -38 157 -112t55 -175q0 -132 -110 -221t-271 -89q-111 0 -204 46.5t-143 128.5l180 188q66 -93 150 -93q32 0 53.5 21.5t21.5 55.5z" />
    <glyph glyph-name="four.numerator" 
d="M28 613v227l391 594h274v-576h103v-245h-103v-150h-287v150h-378zM265 858h141v209z" />
    <glyph glyph-name="five.numerator" 
d="M450 1170l-11 -71q147 -9 244 -99.5t97 -221.5q0 -144 -106 -242t-268 -98q-114 0 -209 44.5t-156 122.5l189 191q72 -87 148 -87q36 0 59.5 23.5t23.5 58.5t-23 57.5t-56 22.5q-36 0 -60 -29l-233 30l69 562h586v-264h-294z" />
    <glyph glyph-name="six.numerator" 
d="M734 1434l-214 -329q121 -25 200.5 -110.5t79.5 -211.5q0 -147 -109.5 -246t-271.5 -99t-271.5 99t-109.5 246q0 101 49 175l312 476h335zM339 786q0 -38 23 -63t57 -25t57 25t23 63t-23 63t-57 25t-57 -25t-23 -63z" />
    <glyph glyph-name="seven.numerator" 
d="M83 1434h678v-231l-301 -740h-330l293 699h-340v272z" />
    <glyph glyph-name="eight.numerator" 
d="M340 770q0 -37 23.5 -61.5t56.5 -24.5t56.5 24.5t23.5 61.5q0 38 -23.5 62.5t-56.5 24.5t-56.5 -24.5t-23.5 -62.5zM759 1164q0 -54 -24 -103t-67 -79q60 -33 93.5 -96.5t33.5 -129.5q0 -134 -107.5 -226t-267.5 -92t-267.5 92t-107.5 226q0 66 33.5 129.5t93.5 96.5
q-43 30 -67 79t-24 103q0 124 97 209t242 85t242 -85t97 -209zM360 1155q0 -27 16.5 -45t43.5 -18q26 0 42.5 18t16.5 45t-16.5 45t-42.5 18q-27 0 -43.5 -18t-16.5 -45z" />
    <glyph glyph-name="nine.numerator" 
d="M105 463l214 329q-121 25 -200 110t-79 211q0 147 109.5 246t271.5 99t271.5 -99t109.5 -246q0 -101 -49 -175l-313 -475h-335zM501 1110q0 38 -23 63t-57 25t-57 -25t-23 -63t23 -63t57 -25t57 25t23 63z" />
    <glyph glyph-name="zero.denominator" 
d="M45 485q0 230 99.5 370t275.5 140t275.5 -140t99.5 -370t-99.5 -370t-275.5 -140t-275.5 140t-99.5 370zM350 485q0 -109 18.5 -170.5t51.5 -61.5t51 61t18 171t-18 171.5t-51 61.5t-51.5 -61.5t-18.5 -171.5z" />
    <glyph glyph-name="one.denominator" 
d="M370 971h269v-971h-318v680l-136 -75l-109 205z" />
    <glyph glyph-name="two.denominator" 
d="M652 451l-164 -180h261v-271h-660v244l319 352q37 40 37 78q0 20 -12 32.5t-31 12.5q-42 0 -63 -77l-279 81q19 116 115.5 194t234.5 78q149 0 248.5 -79.5t99.5 -199.5q0 -148 -106 -265z" />
    <glyph glyph-name="three.denominator" 
d="M446 323q0 33 -21.5 54.5t-53.5 21.5q-23 0 -50 -15l-123 153l171 171h-272v263h625v-250l-165 -149q102 -38 157 -112t55 -175q0 -132 -110 -221t-271 -89q-111 0 -204 47t-143 129l180 187q66 -93 150 -93q32 0 53.5 22t21.5 56z" />
    <glyph glyph-name="four.denominator" 
d="M28 151v226l391 594h274v-576h103v-244h-103v-151h-287v151h-378zM265 395h141v209z" />
    <glyph glyph-name="five.denominator" 
d="M450 708l-11 -72q147 -9 244 -99.5t97 -221.5q0 -144 -106 -242t-268 -98q-114 0 -209 44.5t-156 122.5l189 191q72 -87 148 -87q36 0 59.5 23.5t23.5 58.5t-23 58t-56 23q-35 0 -60 -30l-233 31l69 561h586v-263h-294z" />
    <glyph glyph-name="six.denominator" 
d="M734 971l-214 -329q121 -25 200.5 -110t79.5 -211q0 -147 -109.5 -246.5t-271.5 -99.5t-271.5 99.5t-109.5 246.5q0 101 49 175l312 475h335zM339 324q0 -38 23 -63t57 -25t57 25t23 63t-23 63t-57 25t-57 -25t-23 -63z" />
    <glyph glyph-name="seven.denominator" 
d="M83 971h678v-231l-301 -740h-330l293 699h-340v272z" />
    <glyph glyph-name="eight.denominator" 
d="M340 307q0 -37 23.5 -61.5t56.5 -24.5t56.5 24.5t23.5 61.5q0 38 -23.5 62.5t-56.5 24.5t-56.5 -24.5t-23.5 -62.5zM759 701q0 -54 -24 -103t-67 -79q60 -33 93.5 -96.5t33.5 -129.5q0 -134 -107.5 -226t-267.5 -92t-267.5 92t-107.5 226q0 66 33.5 129.5t93.5 96.5
q-43 30 -67 79t-24 103q0 124 97 209t242 85t242 -85t97 -209zM360 692q0 -27 16.5 -45t43.5 -18q26 0 42.5 18t16.5 45t-16.5 45t-42.5 18q-27 0 -43.5 -18t-16.5 -45z" />
    <glyph glyph-name="nine.denominator" 
d="M105 0l214 329q-121 25 -200 110t-79 211q0 147 109.5 246t271.5 99t271.5 -99t109.5 -246q0 -101 -49 -175l-313 -475h-335zM501 647q0 38 -23 63t-57 25t-57 -25t-23 -63t23 -63t57 -25t57 25t23 63z" />
    <glyph glyph-name="dollar_osf" horiz-adv-x="1097" 
d="M77 176l201 276q63 -70 142.5 -109t151.5 -39q24 0 40 9t16 23q0 29 -37.5 54t-137.5 51q-158 41 -251.5 143t-93.5 249q0 122 65.5 216t178.5 139v195h386v-193q132 -44 238 -131l-188 -282q-60 54 -124.5 89t-116.5 35q-16 0 -26.5 -8.5t-10.5 -22.5q0 -40 149 -84
q171 -51 271 -156t100 -252q0 -128 -73 -227t-202 -144v-192h-385v185q-166 46 -293 176z" />
    <glyph glyph-name="zero_osf" horiz-adv-x="1033" 
d="M36 550q0 257 127.5 415.5t353.5 158.5q150 0 260 -74t165 -203t55 -297q0 -257 -127.5 -416t-352.5 -159q-226 0 -353.5 159t-127.5 416zM438 550q0 -116 20.5 -180t58.5 -64q39 0 59 63.5t20 180.5q0 116 -20 180t-59 64q-38 0 -58.5 -64t-20.5 -180z" />
    <glyph glyph-name="one_osf" horiz-adv-x="921" 
d="M422 1100h356v-1100h-428v725l-178 -90l-141 270z" />
    <glyph glyph-name="two_osf" horiz-adv-x="961" 
d="M783 500l-181 -177h306v-323h-850v287l405 391q45 43 45 78q0 17 -12.5 28t-31.5 11q-48 0 -77 -92l-367 95q26 137 150.5 231.5t301.5 94.5q192 0 320.5 -92t128.5 -230q0 -167 -138 -302z" />
    <glyph glyph-name="three_osf" horiz-adv-x="1036" 
d="M567 229q0 45 -31 75.5t-76 30.5q-34 0 -67 -19l-162 202l232 232h-366v350h829v-335l-220 -200q133 -51 207.5 -151t74.5 -234q0 -177 -145.5 -296.5t-360.5 -119.5q-147 0 -270 62.5t-189 171.5l233 246q83 -119 204 -119q45 0 76 29.5t31 74.5z" />
    <glyph glyph-name="four_osf" horiz-adv-x="1094" 
d="M28 -4v317l516 787h365v-759h139v-345h-139v-207h-397v207h-484zM352 341h160v249z" />
    <glyph glyph-name="five_osf" horiz-adv-x="1054" 
d="M564 750l-14 -99q196 -11 327 -132.5t131 -298.5q0 -194 -141 -325t-356 -131q-151 0 -277 60t-207 164l248 251q88 -112 199 -112q51 0 84 31.5t33 78.5q0 48 -32.5 79t-79.5 31q-52 0 -87 -40l-300 41l92 752h775v-350h-395z" />
    <glyph glyph-name="six_osf" horiz-adv-x="1105" 
d="M972 1313l-289 -443q163 -30 269.5 -144t106.5 -288q0 -196 -145.5 -329.5t-360.5 -133.5q-141 0 -257.5 60.5t-182.5 167t-66 235.5q0 133 67 236l418 639h440zM439 442q0 -52 32.5 -85.5t81.5 -33.5q48 0 80.5 33.5t32.5 85.5t-32.5 86t-80.5 34q-49 0 -81.5 -34
t-32.5 -86z" />
    <glyph glyph-name="seven_osf" horiz-adv-x="931" 
d="M20 1100h898v-306l-409 -1005h-427l397 949h-459v362z" />
    <glyph glyph-name="eight_osf" horiz-adv-x="1087" 
d="M432 419q0 -51 33 -83t79 -32t78.5 31.5t32.5 83.5q0 51 -32.5 82t-78.5 31t-79 -31t-33 -82zM992 944q0 -75 -31.5 -140t-89.5 -105q81 -42 125 -125.5t44 -175.5q0 -180 -142 -301.5t-354 -121.5q-139 0 -253.5 55.5t-179 152.5t-64.5 215q0 92 44 175.5t125 125.5
q-58 40 -90 105t-32 140q0 166 129 279.5t321 113.5t320 -113t128 -280zM462 931q0 -36 22.5 -60.5t59.5 -24.5t59.5 24.5t22.5 60.5t-22.5 60.5t-59.5 24.5t-59.5 -24.5t-22.5 -60.5z" />
    <glyph glyph-name="nine_osf" horiz-adv-x="1105" 
d="M135 -211l288 440q-163 30 -269.5 144.5t-106.5 288.5q0 196 145.5 329t360.5 133q141 0 257.5 -60.5t182.5 -166.5t66 -235q0 -133 -67 -236l-418 -637h-439zM667 657q0 52 -32.5 86t-81.5 34q-48 0 -80.5 -34t-32.5 -86t32.5 -85.5t80.5 -33.5q49 0 81.5 33.5
t32.5 85.5z" />
    <glyph glyph-name="cent_osf" horiz-adv-x="1189" 
d="M802 1383v-169q194 -28 345 -156l-207 -297q-65 63 -138 92v-507q78 34 147 103l214 -295q-155 -141 -361 -170v-169h-213v169q-239 35 -393.5 206t-154.5 409q0 237 154.5 408.5t393.5 206.5v169h213zM443 599q0 -88 39.5 -154.5t106.5 -97.5v505q-67 -32 -106.5 -99
t-39.5 -154z" />
    <glyph glyph-name="sterling_osf" horiz-adv-x="1072" 
d="M254 443h-136v236h82q-44 105 -44 189q0 149 120 252t294 103q136 0 243.5 -67.5t152.5 -175.5l-313 -162q-18 39 -34 53t-37 14q-34 0 -34 -42q0 -56 46 -153q4 -8 5 -11h220v-236h-174q-11 -67 -51 -107h388v-336h-859v311q55 14 89 49.5t42 82.5z" />
    <glyph glyph-name="yen_osf" horiz-adv-x="1190" 
d="M457 1198l138 -365l138 365h439l-289 -549h165v-161h-250l-2 -4v-49h252v-160h-252v-275h-403v275h-252v160h252v49l-2 4h-250v161h165l-288 549h439z" />
    <glyph glyph-name="florin_osf" horiz-adv-x="764" 
d="M557 505v-415q0 -143 -109.5 -231.5t-286.5 -88.5q-70 0 -146 19v280q58 -13 108 -13q20 0 31 11.5t11 29.5v408h-106v337h106v55q0 143 109.5 232t286.5 89q66 0 146 -20v-279q-54 12 -108 12q-20 0 -31 -11.5t-11 -29.5v-48h150v-337h-150z" />
    <glyph glyph-name="Euro_osf" horiz-adv-x="1267" 
d="M775 -25q-218 0 -386 114t-234 301h-135v181h99v28v23h-99v180h132q65 189 234 305t389 116q253 0 450 -165l-190 -271q-52 49 -122.5 81t-137.5 32q-126 0 -209 -98h335v-180h-403q-1 -7 -1 -23q0 -19 1 -28h403v-181h-330q82 -92 204 -92q68 0 143 35.5t128 90.5
l195 -270q-198 -179 -466 -179z" />
    <glyph glyph-name="zero.tnum_osf" horiz-adv-x="1128" 
d="M84 550q0 257 127.5 415.5t353.5 158.5q150 0 260 -74t165.5 -203t55.5 -297t-55.5 -297.5t-165.5 -203.5t-260 -74q-226 0 -353.5 159t-127.5 416zM486 550q0 -116 20.5 -180t58.5 -64q39 0 59 63.5t20 180.5q0 116 -20 180t-59 64q-38 0 -58.5 -64t-20.5 -180z" />
    <glyph glyph-name="one.tnum_osf" horiz-adv-x="1128" 
d="M485 1100h357v-1100h-428v725l-178 -90l-142 270z" />
    <glyph glyph-name="two.tnum_osf" horiz-adv-x="1128" 
d="M878 500l-182 -177h306v-323h-849v287l404 391q45 43 45 78q0 17 -12.5 28t-31.5 11q-48 0 -77 -92l-366 95q26 137 150 231.5t301 94.5q192 0 320.5 -92t128.5 -230q0 -168 -137 -302z" />
    <glyph glyph-name="three.tnum_osf" horiz-adv-x="1128" 
d="M595 229q0 45 -31.5 75.5t-76.5 30.5q-33 0 -66 -19l-162 202l231 232h-365v350h828v-335l-220 -200q133 -51 208 -151t75 -234q0 -177 -145.5 -296.5t-360.5 -119.5q-147 0 -270.5 62.5t-189.5 171.5l234 246q83 -119 203 -119q45 0 76.5 29.5t31.5 74.5z" />
    <glyph glyph-name="four.tnum_osf" horiz-adv-x="1128" 
d="M36 -4v317l516 787h366v-759h138v-345h-138v-207h-398v207h-484zM360 341h160v249z" />
    <glyph glyph-name="five.tnum_osf" horiz-adv-x="1128" 
d="M597 750l-14 -99q196 -11 326.5 -132.5t130.5 -298.5q0 -194 -140.5 -325t-355.5 -131q-152 0 -278.5 60t-206.5 164l249 251q88 -112 199 -112q51 0 84 31.5t33 78.5q0 48 -32.5 79t-79.5 31q-52 0 -87 -40l-300 41l92 752h775v-350h-395z" />
    <glyph glyph-name="six.tnum_osf" horiz-adv-x="1128" 
d="M981 1313l-289 -443q163 -30 269.5 -144t106.5 -288q0 -196 -145.5 -329.5t-360.5 -133.5q-141 0 -257.5 60.5t-182.5 167t-66 235.5q0 133 67 236l419 639h439zM449 442q0 -52 32 -85.5t81 -33.5q48 0 80.5 33.5t32.5 85.5t-32.5 86t-80.5 34q-49 0 -81 -34t-32 -86z
" />
    <glyph glyph-name="seven.tnum_osf" horiz-adv-x="1128" 
d="M119 1100h897v-306l-409 -1005h-427l398 949h-459v362z" />
    <glyph glyph-name="eight.tnum_osf" horiz-adv-x="1128" 
d="M453 419q0 -52 32.5 -83.5t78.5 -31.5t79 32t33 83t-33 82t-79 31t-78.5 -31t-32.5 -82zM1013 944q0 -75 -31.5 -140t-89.5 -105q81 -42 125 -125.5t44 -175.5q0 -118 -64.5 -215t-179 -152.5t-253.5 -55.5q-212 0 -354 121.5t-142 301.5q0 92 44 175.5t125 125.5
q-58 40 -90 105t-32 140q0 166 128.5 279.5t320.5 113.5t320.5 -113.5t128.5 -279.5zM482 931q0 -36 22.5 -60.5t59.5 -24.5t59.5 24.5t22.5 60.5t-22.5 60.5t-59.5 24.5t-59.5 -24.5t-22.5 -60.5z" />
    <glyph glyph-name="nine.tnum_osf" horiz-adv-x="1128" 
d="M148 -211l288 440q-163 30 -269.5 144.5t-106.5 288.5q0 196 145.5 329t360.5 133q141 0 257.5 -60.5t182.5 -166.5t66 -235q0 -135 -66 -236l-418 -637h-440zM680 657q0 52 -32.5 86t-81.5 34q-48 0 -80 -34t-32 -86t32 -85.5t80 -33.5q49 0 81.5 33.5t32.5 85.5z" />
    </font>
</defs>
</svg>
