<?xml version="1.0" standalone="no"?>
<!DOCTYPE svg PUBLIC "-//W3C//DTD SVG 1.1//EN" "http://www.w3.org/Graphics/SVG/1.1/DTD/svg11.dtd" >
<svg xmlns="http://www.w3.org/2000/svg" xmlns:xlink="http://www.w3.org/1999/xlink" version="1.1">
<metadata>
Created by FontForge 20170731 at Wed Nov 17 17:19:24 2021
 By Aleksey,,,
Copyright (c) 2016 by S-Core Co., Ltd.. All rights reserved.
</metadata>
<defs>
<font id="CoreSansC-55Medium" horiz-adv-x="819" >
  <font-face 
    font-family="Core Sans C 55 Medium"
    font-weight="500"
    font-stretch="normal"
    units-per-em="2048"
    panose-1="2 11 6 3 3 3 2 2 2 4"
    ascent="1638"
    descent="-410"
    x-height="1061"
    cap-height="1434"
    bbox="-809 -532 2568 1997"
    underline-thickness="49"
    underline-position="-472"
    unicode-range="U+0009-FB04"
  />
<missing-glyph horiz-adv-x="1024" 
d="M901 0h-778v1536h778v-1536zM317 186h390v1164h-390v-1164z" />
    <glyph glyph-name="ff" unicode="ff" horiz-adv-x="1468" 
d="M1423 1487v-201q-40 4 -92 4q-103 0 -145.5 -40.5t-42.5 -131.5v-57h280v-205h-280v-856h-234v856h-463v-856h-233v856h-168v205h168v59q0 195 98.5 285t313.5 90q89 0 154 -14l-26 -201q-58 10 -118 10q-103 0 -146 -40.5t-43 -131.5v-57h463v59q0 195 97 285t305 90
q66 0 112 -8z" />
    <glyph glyph-name="fi" unicode="fi" horiz-adv-x="1296" 
d="M213 1061v59q0 195 97 285t304 90q67 0 113 -8v-201q-40 4 -92 4q-103 0 -146 -40.5t-43 -131.5v-57h697v-1061h-234v856h-463v-856h-233v856h-168v205h168zM881 1350q0 62 41.5 103.5t103.5 41.5t103.5 -41.5t41.5 -103.5t-42 -104t-103 -42t-103 42t-42 104z" />
    <glyph glyph-name="fl" unicode="fl" horiz-adv-x="1296" 
d="M727 1487v-201q-40 4 -92 4q-103 0 -146 -40.5t-43 -131.5v-57h281v-205h-281v-856h-233v856h-168v205h168v59q0 195 97 285t304 90q67 0 113 -8zM909 0v1495h234v-1495h-234z" />
    <glyph glyph-name="ffi" unicode="ffi" horiz-adv-x="1992" 
d="M1577 1350q0 62 41.5 103.5t103.5 41.5t104 -42t42 -103q0 -62 -42 -104t-104 -42q-61 0 -103 42t-42 104zM446 1118v-57h463v59q0 195 97 285t305 90q66 0 112 -8v-201q-40 4 -92 4q-103 0 -145.5 -40.5t-42.5 -131.5v-57h696v-1061h-233v856h-463v-856h-234v856h-463
v-856h-233v856h-168v205h168v59q0 195 98.5 285t313.5 90q89 0 154 -14l-26 -201q-58 10 -118 10q-103 0 -146 -40.5t-43 -131.5z" />
    <glyph glyph-name="ffl" unicode="ffl" horiz-adv-x="1992" 
d="M1606 0v1495h233v-1495h-233zM1423 1487v-201q-40 4 -92 4q-103 0 -145.5 -40.5t-42.5 -131.5v-57h280v-205h-280v-856h-234v856h-463v-856h-233v856h-168v205h168v59q0 195 98.5 285t313.5 90q89 0 154 -14l-26 -201q-58 10 -118 10q-103 0 -146 -40.5t-43 -131.5v-57
h463v59q0 195 97 285t305 90q66 0 112 -8z" />
    <glyph glyph-name=".notdef" horiz-adv-x="1024" 
d="M901 0h-778v1536h778v-1536zM317 186h390v1164h-390v-1164z" />
    <glyph glyph-name=".null" horiz-adv-x="0" 
 />
    <glyph glyph-name=".null" horiz-adv-x="0" 
 />
    <glyph glyph-name="nonmarkingreturn" horiz-adv-x="682" 
 />
    <glyph glyph-name="CR" unicode="&#x9;" horiz-adv-x="0" 
 />
    <glyph glyph-name="space" unicode=" " horiz-adv-x="614" 
 />
    <glyph glyph-name="exclam" unicode="!" horiz-adv-x="638" 
d="M199 414v1020h241v-1020h-241zM168 127q0 65 43.5 108.5t107.5 43.5q65 0 108.5 -43.5t43.5 -108.5t-43.5 -108.5t-108.5 -43.5q-64 0 -107.5 43.5t-43.5 108.5z" />
    <glyph glyph-name="quotedbl" unicode="&#x22;" horiz-adv-x="1005" 
d="M563 854v580h234v-580h-234zM209 854v580h233v-580h-233z" />
    <glyph glyph-name="numbersign" unicode="#" horiz-adv-x="1413" 
d="M913 1077l62 357h227l-61 -357h200v-194h-233l-59 -340h217v-195h-250l-60 -348h-227l59 348h-288l-60 -348h-227l59 348h-200v195h233l60 340h-218v194h250l62 357h227l-61 -357h288zM592 883l-60 -340h289l60 340h-289z" />
    <glyph glyph-name="dollar" unicode="$" horiz-adv-x="1216" 
d="M100 207l150 162q142 -155 301 -181v459q-211 50 -315.5 155t-104.5 259q0 166 116 274t304 121v186h156v-192q211 -29 354 -174l-141 -170q-110 99 -213 129v-404q228 -58 328 -165.5t100 -272.5q0 -169 -113.5 -280t-314.5 -132v-190h-156v189q-134 12 -253 71.5
t-198 155.5zM893 393q0 69 -43 122t-143 90v-410q86 21 136 72.5t50 125.5zM373 1077q0 -68 43 -117t135 -84v368q-79 -12 -128.5 -57.5t-49.5 -109.5z" />
    <glyph glyph-name="percent" unicode="%" horiz-adv-x="1873" 
d="M446 0l740 1434h241l-737 -1434h-244zM88 1083q0 153 110 259t275 106t275 -106t110 -259t-110 -258.5t-275 -105.5t-275 105.5t-110 258.5zM315 1083q0 -68 44.5 -118t113.5 -50t113.5 50t44.5 118t-44.5 118t-113.5 50t-113.5 -50t-44.5 -118zM1016 350q0 153 110 259
t275 106t275 -106t110 -259t-110 -258.5t-275 -105.5t-275 105.5t-110 258.5zM1243 350q0 -68 44.5 -118t113.5 -50t113.5 50t44.5 118t-44.5 118t-113.5 50t-113.5 -50t-44.5 -118z" />
    <glyph glyph-name="ampersand" unicode="&#x26;" horiz-adv-x="1515" 
d="M1030 1208l-211 -80q-18 63 -67 100.5t-119 37.5q-73 0 -123.5 -47t-50.5 -111q0 -59 43 -125t155 -168l370 -343q56 121 69 273l225 -32q-15 -224 -123 -401l338 -312h-326l-153 142q-189 -167 -441 -167q-216 0 -357.5 118t-141.5 296q0 126 62 223t190 179
q-79 87 -109.5 159t-30.5 156q0 151 119 251.5t285 100.5q149 0 253.5 -67t143.5 -183zM616 180q153 0 280 112l-381 355q-165 -105 -165 -241q0 -97 74 -161.5t192 -64.5z" />
    <glyph glyph-name="quotesingle" unicode="'" horiz-adv-x="651" 
d="M209 854v580h233v-580h-233z" />
    <glyph glyph-name="parenleft" unicode="(" horiz-adv-x="860" 
d="M236 625q0 271 98 519t278 433l166 -125q-146 -169 -223.5 -384t-77.5 -443t77.5 -444t223.5 -384l-166 -125q-180 184 -278 432.5t-98 520.5z" />
    <glyph glyph-name="parenright" unicode=")" horiz-adv-x="860" 
d="M625 625q0 -271 -98.5 -519.5t-278.5 -433.5l-166 125q146 168 223.5 384t77.5 444t-77.5 443t-223.5 384l166 125q180 -185 278.5 -433t98.5 -519z" />
    <glyph glyph-name="asterisk" unicode="*" horiz-adv-x="1146" 
d="M231 993l248 -149l-4 289h197l-4 -289l247 149l99 -170l-254 -143l254 -143l-99 -170l-247 147l4 -287h-197l4 287l-248 -147l-98 170l254 143l-254 143z" />
    <glyph glyph-name="plus" unicode="+" horiz-adv-x="1187" 
d="M477 215v365h-354v200h354v365h234v-365h354v-200h-354v-365h-234z" />
    <glyph glyph-name="comma" unicode="," horiz-adv-x="614" 
d="M156 127q0 65 43.5 108.5t107.5 43.5q65 0 108.5 -43.5t43.5 -108.5q0 -36 -17 -70l-145 -313h-150l109 240q-45 15 -72.5 54t-27.5 89z" />
    <glyph glyph-name="hyphen" unicode="-" horiz-adv-x="831" 
d="M709 569h-586v222h586v-222z" />
    <glyph glyph-name="period" unicode="." horiz-adv-x="614" 
d="M156 127q0 65 43.5 108.5t107.5 43.5q65 0 108.5 -43.5t43.5 -108.5t-43.5 -108.5t-108.5 -43.5q-64 0 -107.5 43.5t-43.5 108.5z" />
    <glyph glyph-name="slash" unicode="/" horiz-adv-x="946" 
d="M946 1536l-698 -1823h-248l702 1823h244z" />
    <glyph glyph-name="zero" unicode="0" horiz-adv-x="1228" 
d="M123 717q0 159 30.5 292t89.5 234t154 158t217 57q121 0 216 -57t155 -158t90.5 -234.5t30.5 -291.5t-30.5 -291.5t-90.5 -235t-155 -158.5t-216 -57q-122 0 -217 57t-154 158.5t-89.5 234.5t-30.5 292zM360 717q0 -246 62 -385t192 -139t192 139t62 385t-62 385
t-192 139t-192 -139t-62 -385z" />
    <glyph glyph-name="one" unicode="1" horiz-adv-x="1228" 
d="M584 1434h217v-1434h-238v1196l-239 -127l-101 174z" />
    <glyph glyph-name="two" unicode="2" horiz-adv-x="1228" 
d="M858 590l-354 -385h555v-205h-866v195l481 522q88 96 125 167.5t37 147.5q0 100 -62.5 160.5t-161.5 60.5q-88 0 -147.5 -47.5t-100.5 -145.5l-198 85q49 146 163 229.5t283 83.5q202 0 331.5 -115.5t129.5 -308.5q0 -121 -49.5 -218.5t-165.5 -225.5z" />
    <glyph glyph-name="three" unicode="3" horiz-adv-x="1228" 
d="M829 455q0 114 -80 194t-200 80q-30 0 -68 -10l-92 117l320 389h-527v209h815v-209l-290 -344q167 -26 263.5 -151t96.5 -298q0 -84 -36 -165.5t-99.5 -146.5t-161.5 -105t-213 -40q-145 0 -262.5 63t-195.5 180l164 135q120 -173 286 -173q120 0 200 80.5t80 194.5z" />
    <glyph glyph-name="four" unicode="4" horiz-adv-x="1228" 
d="M80 270v215l637 949h237v-947h154v-217h-154v-270h-237v270h-637zM340 485h377v559z" />
    <glyph glyph-name="five" unicode="5" horiz-adv-x="1228" 
d="M575 -25q-145 0 -263 61t-193 179l171 137q114 -172 277 -172q121 0 201 78.5t80 194.5t-80 194t-201 78q-65 0 -120 -26t-85 -68l-167 20l86 783h751v-209h-540l-41 -346q66 47 176 47q92 0 174.5 -32.5t146 -91t100.5 -147.5t37 -196q0 -215 -138 -349.5t-372 -134.5z
" />
    <glyph glyph-name="six" unicode="6" horiz-adv-x="1228" 
d="M897 1434l-336 -516q36 12 84 12q125 0 233.5 -58.5t176 -169t67.5 -247.5t-72.5 -248.5t-188 -171.5t-245.5 -60q-134 0 -251.5 60t-190 171.5t-72.5 248.5q0 141 72 252l471 727h252zM885 455q0 116 -80 195t-193 79t-192.5 -79t-79.5 -195t79.5 -195.5t192.5 -79.5
t193 79.5t80 195.5z" />
    <glyph glyph-name="seven" unicode="7" horiz-adv-x="1228" 
d="M172 1434h893v-199l-512 -1235h-266l512 1225h-627v209z" />
    <glyph glyph-name="eight" unicode="8" horiz-adv-x="1228" 
d="M614 -25q-211 0 -355 130t-144 323q0 125 67 222.5t183 140.5q-76 38 -126.5 116t-50.5 168q0 161 120.5 272t305.5 111t305.5 -111t120.5 -272q0 -90 -50 -168t-126 -116q116 -43 183 -140.5t67 -222.5q0 -193 -144.5 -323t-355.5 -130zM614 684q-111 0 -186.5 -74
t-75.5 -178t75.5 -178t186.5 -74t187 74t76 178t-76 178t-187 74zM614 881q82 0 139.5 56.5t57.5 131.5q0 76 -57 130t-140 54q-82 0 -139 -54t-57 -130q0 -75 57 -131.5t139 -56.5z" />
    <glyph glyph-name="nine" unicode="9" horiz-adv-x="1228" 
d="M332 0l336 516q-36 -12 -84 -12q-93 0 -180 35t-153 96t-105.5 151t-39.5 193q0 137 72.5 248.5t188 171t245.5 59.5q100 0 193.5 -35.5t164.5 -97.5t113.5 -152.5t42.5 -193.5q0 -142 -71 -252l-471 -727h-252zM344 979q0 -116 79.5 -195t192.5 -79t193 79t80 195
t-80 195t-193 79t-192.5 -79t-79.5 -195z" />
    <glyph glyph-name="colon" unicode=":" horiz-adv-x="614" 
d="M156 127q0 65 43.5 108.5t107.5 43.5q65 0 108.5 -43.5t43.5 -108.5t-43.5 -108.5t-108.5 -43.5q-64 0 -107.5 43.5t-43.5 108.5zM156 934q0 64 43 107.5t108 43.5t108.5 -43.5t43.5 -107.5t-43.5 -108t-108.5 -44q-64 0 -107.5 43.5t-43.5 108.5z" />
    <glyph glyph-name="semicolon" unicode=";" horiz-adv-x="614" 
d="M156 934q0 64 43 107.5t108 43.5t108.5 -43.5t43.5 -107.5t-43.5 -108t-108.5 -44q-64 0 -107.5 43.5t-43.5 108.5zM156 127q0 65 43.5 108.5t107.5 43.5q65 0 108.5 -43.5t43.5 -108.5q0 -36 -17 -70l-145 -313h-150l109 240q-45 15 -72.5 54t-27.5 89z" />
    <glyph glyph-name="less" unicode="&#x3c;" horiz-adv-x="1187" 
d="M127 596v168l901 493v-263l-604 -314l604 -314v-264z" />
    <glyph glyph-name="equal" unicode="=" horiz-adv-x="1187" 
d="M1065 807h-942v201h942v-201zM1065 352h-942v201h942v-201z" />
    <glyph glyph-name="greater" unicode="&#x3e;" horiz-adv-x="1187" 
d="M1061 764v-168l-901 -494v264l604 314l-604 314v263z" />
    <glyph glyph-name="question" unicode="?" horiz-adv-x="1130" 
d="M373 414v370q181 0 285 73t104 187q0 87 -77 144t-202 57q-138 0 -278 -119l-127 173q190 159 434 159q110 0 204.5 -35t157.5 -92.5t98.5 -132.5t35.5 -156q0 -147 -106 -259.5t-288 -147.5v-221h-241zM342 127q0 65 44 108.5t108 43.5t107.5 -43.5t43.5 -108.5
t-43.5 -108.5t-107.5 -43.5t-108 43.5t-44 108.5z" />
    <glyph glyph-name="at" unicode="@" horiz-adv-x="1986" 
d="M987 291q73 0 132 39t91 104v234q-32 65 -91 104t-132 39q-105 0 -177.5 -75.5t-72.5 -184.5t72.5 -184.5t177.5 -75.5zM1475 115q-71 0 -141.5 35t-110.5 90q-113 -125 -269 -125q-177 0 -296 128t-119 308t119 308t296 128q146 0 256 -113v93h195v-629
q13 -20 40.5 -33.5t55.5 -13.5q90 0 151.5 80t61.5 231q0 141 -59 268t-157.5 217t-231.5 142.5t-277 52.5q-116 0 -225 -35.5t-197.5 -101.5t-155 -154t-103 -198.5t-36.5 -229.5q0 -199 97 -364t268 -260t379 -95q269 0 487 154l78 -164q-136 -82 -271.5 -124t-293.5 -42
q-198 0 -372 68t-299 186t-197 284.5t-72 356.5q0 189 72.5 356t195.5 285t291 186t354 68q195 0 365.5 -65t293 -177.5t193 -272t70.5 -341.5q0 -224 -120.5 -355.5t-315.5 -131.5z" />
    <glyph glyph-name="A" unicode="A" horiz-adv-x="1409" 
d="M840 1434l528 -1434h-262l-119 346h-565l-119 -346h-262l528 1434h271zM705 1169l-211 -614h421z" />
    <glyph glyph-name="B" unicode="B" horiz-adv-x="1275" 
d="M764 0h-600v1434h524q197 0 305.5 -103t108.5 -284q0 -104 -45 -174.5t-123 -106.5q107 -29 178.5 -122.5t71.5 -225.5q0 -188 -113.5 -303t-306.5 -115zM856 1034q0 93 -50 142t-134 49h-266v-381h266q84 0 134 48.5t50 141.5zM938 426q0 100 -54 158.5t-141 58.5h-337
v-434h337q87 0 141 59t54 158z" />
    <glyph glyph-name="C" unicode="C" horiz-adv-x="1415" 
d="M1217 328l126 -181q-210 -172 -497 -172q-159 0 -301 57.5t-243.5 156.5t-160.5 236.5t-59 291.5t59 291.5t160.5 236t243.5 156t301 57.5q269 0 481 -160l-121 -182q-96 64 -178 96.5t-182 32.5q-143 0 -261.5 -69t-187.5 -190.5t-69 -268.5t69 -268.5t187.5 -191
t261.5 -69.5q196 0 371 140z" />
    <glyph glyph-name="D" unicode="D" horiz-adv-x="1468" 
d="M164 1434h504q331 0 524.5 -192.5t193.5 -524.5t-193.5 -524.5t-524.5 -192.5h-504v1434zM668 1221h-262v-1008h262q217 0 345 126.5t128 377.5t-128 377.5t-345 126.5z" />
    <glyph glyph-name="E" unicode="E" horiz-adv-x="1167" 
d="M164 0v1434h872v-209h-630v-400h581v-209h-581v-407h649v-209h-891z" />
    <glyph glyph-name="F" unicode="F" horiz-adv-x="1097" 
d="M164 0v1434h852v-209h-610v-400h561v-209h-561v-616h-242z" />
    <glyph glyph-name="G" unicode="G" horiz-adv-x="1484" 
d="M846 1245q-143 0 -261.5 -69t-187.5 -190.5t-69 -268.5t69 -268.5t187.5 -191t261.5 -69.5q68 0 139 19.5t125 52.5v309h-348v209h590v-622q-99 -85 -230 -133t-276 -48q-159 0 -301 57.5t-243.5 156.5t-160.5 236.5t-59 291.5t59 291.5t160.5 236t243.5 156t301 57.5
q269 0 481 -160l-121 -182q-96 64 -178 96.5t-182 32.5z" />
    <glyph glyph-name="H" unicode="H" horiz-adv-x="1441" 
d="M164 0v1434h242v-609h630v609h242v-1434h-242v616h-630v-616h-242z" />
    <glyph glyph-name="I" unicode="I" horiz-adv-x="589" 
d="M174 1434h242v-1434h-242v1434z" />
    <glyph glyph-name="J" unicode="J" horiz-adv-x="946" 
d="M551 457v977h242v-977q0 -249 -116.5 -365.5t-348.5 -116.5q-74 0 -153 19t-134 51l78 203q43 -26 99.5 -43t105.5 -17q113 0 170 63.5t57 205.5z" />
    <glyph glyph-name="K" unicode="K" horiz-adv-x="1245" 
d="M406 1434v-609h87l406 609h275l-478 -709l559 -725h-282l-473 616h-94v-616h-242v1434h242z" />
    <glyph glyph-name="L" unicode="L" horiz-adv-x="1054" 
d="M164 0v1434h242v-1225h608v-209h-850z" />
    <glyph glyph-name="M" unicode="M" horiz-adv-x="1753" 
d="M952 438h-151l-404 600v-1038h-233v1434h225l488 -729l487 729h225v-1434h-233v1038z" />
    <glyph glyph-name="N" unicode="N" horiz-adv-x="1441" 
d="M164 0v1434h233l647 -1016v1016h234v-1434h-234l-647 1016v-1016h-233z" />
    <glyph glyph-name="O" unicode="O" horiz-adv-x="1691" 
d="M846 188q143 0 261.5 69.5t187.5 191t69 268.5t-69 268.5t-187.5 190.5t-261.5 69t-261.5 -69t-187.5 -190.5t-69 -268.5t69 -268.5t187.5 -191t261.5 -69.5zM846 1458q159 0 301 -57.5t243.5 -156t160.5 -236t59 -291.5t-59 -291.5t-160.5 -236.5t-243.5 -156.5
t-301 -57.5t-301 57.5t-243.5 156.5t-160.5 236.5t-59 291.5t59 291.5t160.5 236t243.5 156t301 57.5z" />
    <glyph glyph-name="P" unicode="P" horiz-adv-x="1214" 
d="M647 520h-241v-520h-242v1434h483q230 0 363 -124t133 -333t-133 -333t-363 -124zM897 977q0 116 -67 182t-193 66h-231v-496h231q126 0 193 66t67 182z" />
    <glyph glyph-name="Q" unicode="Q" horiz-adv-x="1691" 
d="M1460 -145l-211 227q-184 -107 -403 -107q-159 0 -301 57.5t-243.5 156.5t-160.5 236.5t-59 291.5t59 291.5t160.5 236t243.5 156t301 57.5t301 -57.5t243.5 -156t160.5 -236t59 -291.5q0 -146 -51.5 -275t-146.5 -229l202 -217zM846 188q131 0 248 63l-222 238l154 142
l226 -246q112 144 112 332q0 147 -69 268.5t-187.5 190.5t-261.5 69t-261.5 -69t-187.5 -190.5t-69 -268.5t69 -268.5t187.5 -191t261.5 -69.5z" />
    <glyph glyph-name="R" unicode="R" horiz-adv-x="1243" 
d="M164 1434h483q230 0 363 -124t133 -333q0 -170 -90 -286t-252 -154l370 -537h-266l-357 520h-142v-520h-242v1434zM637 1225h-231v-496h231q126 0 193 66t67 182t-67 182t-193 66z" />
    <glyph glyph-name="S" unicode="S" horiz-adv-x="1216" 
d="M100 207l152 164q75 -82 167 -132.5t189 -50.5q126 0 203.5 55.5t77.5 149.5q0 89 -70 150.5t-244 97.5q-223 47 -333.5 154t-110.5 266q0 178 130 287.5t337 109.5q284 0 463 -182l-143 -172q-155 141 -310 141q-101 0 -166 -46t-65 -122q0 -87 71 -144t230 -93
q245 -57 351 -166t106 -281q0 -187 -138.5 -302.5t-378.5 -115.5q-151 0 -289 61.5t-229 170.5z" />
    <glyph glyph-name="T" unicode="T" horiz-adv-x="1134" 
d="M446 0v1225h-385v209h1012v-209h-385v-1225h-242z" />
    <glyph glyph-name="U" unicode="U" horiz-adv-x="1368" 
d="M1214 1434v-926q0 -119 -41.5 -219.5t-113.5 -168t-169 -105.5t-206 -38t-206 38t-169 105.5t-113.5 168t-41.5 219.5v926h241v-955q0 -129 83 -209t206 -80t206 80t83 209v955h241z" />
    <glyph glyph-name="V" unicode="V" horiz-adv-x="1409" 
d="M299 1434l406 -1129l405 1129h258l-528 -1434h-271l-528 1434h258z" />
    <glyph glyph-name="W" unicode="W" horiz-adv-x="2007" 
d="M885 1434h237l310 -1080l280 1080h254l-407 -1434h-238l-317 1102l-318 -1102h-237l-408 1434h254l280 -1080z" />
    <glyph glyph-name="X" unicode="X" horiz-adv-x="1302" 
d="M1010 0l-359 555l-358 -555h-262l477 729l-459 705h262l340 -531l340 531h262l-458 -705l477 -729h-262z" />
    <glyph glyph-name="Y" unicode="Y" horiz-adv-x="1323" 
d="M299 1434l363 -611l362 611h258l-500 -846v-588h-241v588l-500 846h258z" />
    <glyph glyph-name="Z" unicode="Z" horiz-adv-x="1243" 
d="M123 209l696 1016h-665v209h956v-209l-696 -1016h716v-209h-1007v209z" />
    <glyph glyph-name="bracketleft" unicode="[" horiz-adv-x="860" 
d="M233 -287v1823h586v-209h-344v-1405h344v-209h-586z" />
    <glyph glyph-name="backslash" unicode="\" horiz-adv-x="946" 
d="M698 -287l-698 1823h244l702 -1823h-248z" />
    <glyph glyph-name="bracketright" unicode="]" horiz-adv-x="860" 
d="M627 1536v-1823h-586v209h344v1405h-344v209h586z" />
    <glyph glyph-name="asciicircum" unicode="^" horiz-adv-x="1269" 
d="M512 1434h246l409 -637h-258l-274 432l-275 -432h-258z" />
    <glyph glyph-name="underscore" unicode="_" horiz-adv-x="1024" 
d="M0 -369v181h1024v-181h-1024z" />
    <glyph glyph-name="grave" unicode="`" horiz-adv-x="860" 
d="M347 1495l279 -350h-228l-285 350h234z" />
    <glyph glyph-name="a" unicode="a" horiz-adv-x="1343" 
d="M655 184q102 0 186 52t126 139v309q-42 87 -126 140t-186 53q-146 0 -246 -100.5t-100 -246.5t100 -246t246 -100zM614 1085q214 0 353 -139v115h233v-1061h-233v115q-140 -140 -353 -140q-154 0 -279 76t-194 202.5t-69 276.5t69 276.5t194 202.5t279 76z" />
    <glyph glyph-name="b" unicode="b" horiz-adv-x="1343" 
d="M688 184q146 0 246 100t100 246t-100 246.5t-246 100.5q-102 0 -185.5 -53t-125.5 -140v-309q42 -87 125.5 -139t185.5 -52zM729 1085q154 0 279.5 -76t194.5 -202.5t69 -276.5t-69 -276.5t-194.5 -202.5t-279.5 -76q-212 0 -352 140v-115h-234v1495h234v-549
q139 139 352 139z" />
    <glyph glyph-name="c" unicode="c" horiz-adv-x="1130" 
d="M655 -25q-165 0 -299 74t-209 201t-75 280t75 280t209 201t299 74q225 0 389 -135l-120 -182q-136 109 -269 109q-146 0 -246 -100.5t-100 -246.5t100 -246t246 -100q148 0 273 115l137 -170q-167 -154 -410 -154z" />
    <glyph glyph-name="d" unicode="d" horiz-adv-x="1343" 
d="M655 184q102 0 186 52t126 139v309q-42 87 -126 140t-186 53q-146 0 -246 -100.5t-100 -246.5t100 -246t246 -100zM614 1085q214 0 353 -139v549h233v-1495h-233v115q-140 -140 -353 -140q-154 0 -279 76t-194 202.5t-69 276.5t69 276.5t194 202.5t279 76z" />
    <glyph glyph-name="e" unicode="e" horiz-adv-x="1265" 
d="M1184 455h-874q20 -122 116 -200.5t227 -78.5q180 0 316 139l159 -147q-178 -193 -469 -193q-172 0 -307 74.5t-207.5 200.5t-72.5 280q0 114 43.5 216.5t118.5 177t181.5 118t227.5 43.5q158 0 285 -72.5t196.5 -194t69.5 -267.5q0 -51 -10 -96zM643 885
q-110 0 -200.5 -66.5t-123.5 -171.5h630q-28 105 -111 171.5t-195 66.5z" />
    <glyph glyph-name="f" unicode="f" horiz-adv-x="772" 
d="M727 1487v-201q-40 4 -92 4q-103 0 -146 -40.5t-43 -131.5v-57h281v-205h-281v-856h-233v856h-168v205h168v59q0 195 97 285t304 90q67 0 113 -8z" />
    <glyph glyph-name="g" unicode="g" horiz-adv-x="1343" 
d="M655 184q102 0 186 52t126 139v309q-42 87 -126 140t-186 53q-146 0 -246 -100.5t-100 -246.5t100 -246t246 -100zM1200 1061v-1004q0 -246 -143 -389t-416 -143q-150 0 -277.5 56.5t-216.5 158.5l154 149q149 -163 338 -163q151 0 239.5 83t88.5 232v74
q-140 -140 -353 -140q-154 0 -279 76t-194 202.5t-69 276.5t69 276.5t194 202.5t279 76q214 0 353 -139v115h233z" />
    <glyph glyph-name="h" unicode="h" horiz-adv-x="1249" 
d="M377 705v-705h-234v1495h234v-557q60 67 144.5 107t172.5 40q193 0 312.5 -121.5t119.5 -320.5v-643h-233v631q0 108 -68 177t-176 69q-75 0 -150.5 -51t-121.5 -121z" />
    <glyph glyph-name="i" unicode="i" horiz-adv-x="540" 
d="M154 0v1061h233v-1061h-233zM125 1350q0 62 41.5 103.5t103.5 41.5t104 -42t42 -103q0 -62 -42 -104t-104 -42q-61 0 -103 42t-42 104z" />
    <glyph glyph-name="j" unicode="j" horiz-adv-x="540" 
d="M125 1350q0 62 41.5 103.5t103.5 41.5t104 -42t42 -103q0 -62 -42 -104t-104 -42q-61 0 -103 42t-42 104zM154 -111v1172h233v-1167q0 -198 -81 -283.5t-265 -85.5q-46 0 -82 4v201h53q74 0 108 35.5t34 123.5z" />
    <glyph glyph-name="k" unicode="k" horiz-adv-x="1064" 
d="M799 0l-322 489h-100v-489h-234v1495h234v-805h103l255 371h275l-338 -471l393 -590h-266z" />
    <glyph glyph-name="l" unicode="l" horiz-adv-x="540" 
d="M154 0v1495h233v-1495h-233z" />
    <glyph glyph-name="m" unicode="m" horiz-adv-x="1933" 
d="M143 1061h234v-123q56 65 135 106t164 41q117 0 208 -50t145 -140q60 87 158.5 138.5t205.5 51.5q187 0 302 -122t115 -316v-647h-233v635q0 106 -60.5 174t-158.5 68q-74 0 -144.5 -51t-121.5 -130q2 -32 2 -49v-647h-234v635q0 106 -60.5 174t-158.5 68
q-73 0 -142.5 -50t-121.5 -127v-700h-234v1061z" />
    <glyph glyph-name="n" unicode="n" horiz-adv-x="1249" 
d="M377 705v-705h-234v1061h234v-123q60 67 144.5 107t172.5 40q193 0 312.5 -121.5t119.5 -320.5v-643h-233v631q0 108 -68 177t-176 69q-75 0 -150.5 -51t-121.5 -121z" />
    <glyph glyph-name="o" unicode="o" horiz-adv-x="1310" 
d="M655 184q146 0 246 100t100 246t-100 246.5t-246 100.5t-246 -100.5t-100 -246.5t100 -246t246 -100zM655 1085q124 0 233 -43.5t185.5 -118t121 -177t44.5 -216.5t-44.5 -216.5t-121 -177t-185.5 -118t-233 -43.5q-165 0 -299 74t-209 201t-75 280t75 280t209 201
t299 74z" />
    <glyph glyph-name="p" unicode="p" horiz-adv-x="1343" 
d="M688 184q146 0 246 100t100 246t-100 246.5t-246 100.5q-102 0 -185.5 -53t-125.5 -140v-309q42 -87 125.5 -139t185.5 -52zM729 1085q154 0 279.5 -76t194.5 -202.5t69 -276.5t-69 -276.5t-194.5 -202.5t-279.5 -76q-212 0 -352 140v-590h-234v1536h234v-115
q139 139 352 139z" />
    <glyph glyph-name="q" unicode="q" horiz-adv-x="1343" 
d="M655 184q102 0 186 52t126 139v309q-42 87 -126 140t-186 53q-146 0 -246 -100.5t-100 -246.5t100 -246t246 -100zM614 1085q214 0 353 -139v115h233v-1536h-233v590q-140 -140 -353 -140q-154 0 -279 76t-194 202.5t-69 276.5t69 276.5t194 202.5t279 76z" />
    <glyph glyph-name="r" unicode="r" horiz-adv-x="829" 
d="M657 877q-84 0 -156.5 -52.5t-123.5 -144.5v-680h-234v1061h234v-135q135 159 311 159q54 0 96 -20l-18 -207q-55 19 -109 19z" />
    <glyph glyph-name="s" unicode="s" horiz-adv-x="964" 
d="M72 152l131 155q52 -60 123 -95.5t151 -35.5q85 0 133.5 34t48.5 93q0 57 -45 92t-157 58q-177 35 -261.5 117.5t-84.5 215.5q0 131 101.5 215t270.5 84q106 0 202 -39t165 -104l-125 -158q-64 51 -114.5 76t-108.5 25q-69 0 -113.5 -28.5t-44.5 -74.5q0 -106 188 -145
q187 -38 274 -120t87 -218q0 -142 -107 -233t-292 -91q-129 0 -240.5 47.5t-181.5 129.5z" />
    <glyph glyph-name="t" unicode="t" horiz-adv-x="791" 
d="M455 856v-504q0 -91 42.5 -131.5t145.5 -40.5q52 0 92 4v-200q-52 -9 -112 -9q-208 0 -305 90t-97 285v506h-176v205h176v287l234 20v-307h268v-205h-268z" />
    <glyph glyph-name="u" unicode="u" horiz-adv-x="1249" 
d="M872 356v705h234v-1061h-234v123q-61 -67 -145 -107.5t-172 -40.5q-193 0 -312.5 122t-119.5 321v643h233v-631q0 -108 68 -177t176 -69q75 0 150.5 51t121.5 121z" />
    <glyph glyph-name="v" unicode="v" horiz-adv-x="1081" 
d="M1061 1061l-399 -1061h-242l-400 1061h242l279 -758l278 758h242z" />
    <glyph glyph-name="w" unicode="w" horiz-adv-x="1613" 
d="M686 1061h242l211 -756l213 756h241l-331 -1061h-242l-213 762l-213 -762h-242l-332 1061h242l213 -756z" />
    <glyph glyph-name="x" unicode="x" horiz-adv-x="1081" 
d="M803 0l-262 385l-262 -385h-259l373 541l-346 520h258l236 -365l235 365h258l-346 -520l373 -541h-258z" />
    <glyph glyph-name="y" unicode="y" horiz-adv-x="1081" 
d="M240 -475l180 475l-400 1061h242l277 -766l280 766h242l-580 -1536h-241z" />
    <glyph glyph-name="z" unicode="z" horiz-adv-x="1046" 
d="M98 0v205l545 651h-518v205h799v-205l-545 -651h565v-205h-846z" />
    <glyph glyph-name="braceleft" unicode="{" horiz-adv-x="860" 
d="M147 520v209q94 0 145.5 46.5t51.5 135.5v293q0 141 104 236.5t261 95.5h110v-209h-94q-61 0 -100 -38.5t-39 -100.5v-314q0 -199 -189 -249q189 -50 189 -250v-314q0 -61 39 -100t100 -39h94v-209h-110q-157 0 -261 95.5t-104 236.5v293q0 89 -51.5 135.5t-145.5 46.5z
" />
    <glyph glyph-name="bar" unicode="|" horiz-adv-x="671" 
d="M225 -287v1823h221v-1823h-221z" />
    <glyph glyph-name="braceright" unicode="}" horiz-adv-x="860" 
d="M713 729v-209q-94 0 -145.5 -46.5t-51.5 -135.5v-293q0 -141 -103.5 -236.5t-260.5 -95.5h-111v209h94q61 0 100 39t39 100v314q0 200 189 250q-189 50 -189 249v314q0 62 -39 100.5t-100 38.5h-94v209h111q157 0 260.5 -95.5t103.5 -236.5v-293q0 -89 51.5 -135.5
t145.5 -46.5z" />
    <glyph glyph-name="asciitilde" unicode="~" horiz-adv-x="1187" 
d="M561 567q-36 34 -54 50.5t-47.5 33.5t-53.5 17q-88 0 -117 -166l-222 56q27 154 105.5 236.5t202.5 82.5q70 0 136.5 -28t115.5 -75q35 -33 54 -50t48 -33.5t53 -16.5q88 0 117 166l222 -57q-27 -153 -105.5 -235.5t-202.5 -82.5q-70 0 -136.5 28t-115.5 74z" />
    <glyph glyph-name="uni00A0" unicode="&#xa0;" horiz-adv-x="614" 
 />
    <glyph glyph-name="exclamdown" unicode="&#xa1;" horiz-adv-x="638" 
d="M199 -373v1020h241v-1020h-241zM168 934q0 64 43 107.5t108 43.5t108.5 -43.5t43.5 -107.5t-43.5 -108t-108.5 -44q-64 0 -107.5 43.5t-43.5 108.5z" />
    <glyph glyph-name="cent" unicode="&#xa2;" horiz-adv-x="1130" 
d="M559 -188v171q-215 32 -351 184.5t-136 362.5q0 209 136.5 363t350.5 185v171h156v-167q187 -16 329 -132l-120 -182q-105 85 -209 103v-682q113 18 213 110l137 -170q-144 -133 -350 -151v-166h-156zM309 530q0 -120 69.5 -211t180.5 -122v666q-111 -30 -180.5 -121.5
t-69.5 -211.5z" />
    <glyph glyph-name="sterling" unicode="&#xa3;" horiz-adv-x="1187" 
d="M315 559h-172v184h130q-7 17 -13 31q-70 147 -70 273q0 174 128 292.5t317 118.5q148 0 258.5 -73.5t155.5 -184.5l-205 -108q-59 153 -209 153q-86 0 -142.5 -56t-56.5 -142q0 -77 64 -228q16 -37 27 -76h356v-184h-322q2 -30 2 -45q0 -177 -137 -301h649v-213h-925v209
q77 53 122 132t45 173q0 15 -2 45z" />
    <glyph glyph-name="currency" unicode="&#xa4;" horiz-adv-x="1294" 
d="M72 240l180 182q-76 111 -76 246q0 134 76 245l-180 183l149 149l193 -190q107 55 233 55t234 -55l192 190l150 -149l-181 -183q76 -111 76 -245q0 -135 -76 -246l181 -182l-150 -150l-192 191q-107 -56 -234 -56t-233 56l-193 -191zM406 668q0 -101 69.5 -171.5
t171.5 -70.5t172 71t70 171t-70 170.5t-172 70.5t-171.5 -70.5t-69.5 -170.5z" />
    <glyph glyph-name="yen" unicode="&#xa5;" horiz-adv-x="1323" 
d="M299 1434l363 -611l362 611h258l-402 -680h273v-144h-357l-14 -22v-80h371v-143h-371v-365h-241v365h-371v143h371v80l-14 22h-357v144h272l-401 680h258z" />
    <glyph glyph-name="brokenbar" unicode="&#xa6;" horiz-adv-x="671" 
d="M225 717v819h221v-819h-221zM225 -287v819h221v-819h-221z" />
    <glyph glyph-name="section" unicode="&#xa7;" horiz-adv-x="1042" 
d="M981 541q0 -92 -50.5 -166t-140.5 -116q109 -92 109 -234q0 -141 -111 -236.5t-278 -95.5q-142 0 -248 72t-135 196l215 47q12 -55 56.5 -87t111.5 -32q71 0 117.5 39t46.5 97q0 41 -23 71.5t-59 46.5l-266 117q-129 56 -197 148t-68 202q0 92 50.5 165.5t141.5 115.5
q-110 93 -110 235q0 141 111 236.5t278 95.5q142 0 248 -72t135 -196l-215 -47q-12 55 -56.5 87t-111.5 32q-70 0 -116.5 -38.5t-46.5 -97.5q0 -41 23 -71.5t59 -46.5l266 -117q129 -56 196.5 -147.5t67.5 -202.5zM610 717l-148 64q-76 -5 -125.5 -53.5t-49.5 -117.5
q0 -112 145 -176l148 -65q76 6 126 54.5t50 117.5q0 111 -146 176z" />
    <glyph glyph-name="dieresis" unicode="&#xa8;" horiz-adv-x="860" 
d="M106 1323q0 57 39.5 96t96.5 39t96 -39t39 -96t-39 -96t-96 -39t-96.5 39t-39.5 96zM483 1323q0 57 39 96t96 39t96.5 -39t39.5 -96t-39.5 -96t-96.5 -39t-96 39t-39 96z" />
    <glyph glyph-name="copyright" unicode="&#xa9;" horiz-adv-x="1646" 
d="M862 479q109 0 205 76l70 -152q-116 -96 -275 -96q-177 0 -298.5 118t-121.5 290t121.5 289.5t298.5 117.5q146 0 264 -88l-65 -153q-99 69 -199 69q-98 0 -164.5 -67.5t-66.5 -167.5t66.5 -168t164.5 -68zM82 717q0 153 58 290t157 236t236 157t290 58t290.5 -58
t236.5 -157t157 -236t58 -290t-58 -290.5t-157 -236.5t-236.5 -157t-290.5 -58t-290 58t-236 157t-157 236.5t-58 290.5zM217 717q0 -169 80.5 -310.5t220 -223t305.5 -81.5t306 81.5t220.5 223t80.5 310.5q0 127 -47.5 241t-128.5 195.5t-193.5 129.5t-237.5 48
q-166 0 -305.5 -81t-220 -222.5t-80.5 -310.5z" />
    <glyph glyph-name="ordfeminine" unicode="&#xaa;" horiz-adv-x="942" 
d="M647 688v74q-71 -90 -207 -90q-161 0 -270 112t-109 277t109 277t270 112q136 0 207 -90v74h203v-746h-203zM647 958v205q-25 44 -71.5 72.5t-106.5 28.5q-88 0 -146.5 -58.5t-58.5 -144.5t58.5 -144.5t146.5 -58.5q60 0 106.5 28t71.5 72z" />
    <glyph glyph-name="guillemotleft" unicode="&#xab;" horiz-adv-x="1314" 
d="M106 578v122l582 359v-215l-344 -205l344 -205v-215zM608 578v122l582 359v-215l-344 -205l344 -205v-215z" />
    <glyph glyph-name="logicalnot" unicode="&#xac;" horiz-adv-x="1187" 
d="M831 236v344h-708v200h942v-544h-234z" />
    <glyph glyph-name="uni00AD" unicode="&#xad;" horiz-adv-x="831" 
d="M709 569h-586v222h586v-222z" />
    <glyph glyph-name="registered" unicode="&#xae;" horiz-adv-x="1646" 
d="M82 717q0 153 58 290t157 236t236 157t290 58t290.5 -58t236.5 -157t157 -236t58 -290t-58 -290.5t-157 -236.5t-236.5 -157t-290.5 -58t-290 58t-236 157t-157 236.5t-58 290.5zM217 717q0 -169 80.5 -310.5t220 -223t305.5 -81.5t306 81.5t220.5 223t80.5 310.5
q0 127 -47.5 241t-128.5 195.5t-193.5 129.5t-237.5 48q-166 0 -305.5 -81t-220 -222.5t-80.5 -310.5zM561 1110h301q121 0 200 -73.5t79 -184.5q0 -83 -46.5 -147.5t-123.5 -92.5l186 -290h-192l-173 272h-55v-272h-176v788zM846 946h-109v-205h109q53 0 86 29t33 74
t-33 73.5t-86 28.5z" />
    <glyph glyph-name="macron" unicode="&#xaf;" horiz-adv-x="860" 
d="M123 1229v180h614v-180h-614z" />
    <glyph glyph-name="degree" unicode="&#xb0;" 
d="M293 1182q0 -50 33 -83.5t84 -33.5t83.5 33.5t32.5 83.5t-32.5 83t-83.5 33t-84 -33t-33 -83zM123 1182q0 117 82.5 196.5t204.5 79.5q121 0 203.5 -79.5t82.5 -196.5t-82.5 -197t-203.5 -80t-204 80t-83 197z" />
    <glyph glyph-name="plusminus" unicode="&#xb1;" horiz-adv-x="1187" 
d="M477 307v355h-354v200h354v355h234v-355h354v-200h-354v-355h-234zM1065 0h-942v201h942v-201z" />
    <glyph glyph-name="twosuperior" unicode="&#xb2;" 
d="M578 858l-211 -227h348v-168h-621v149l324 351q55 60 77.5 104t22.5 94q0 58 -33.5 93.5t-89.5 35.5q-52 0 -85.5 -31.5t-59.5 -103.5l-177 69q33 115 116.5 174.5t205.5 59.5q144 0 237 -81t93 -216q0 -82 -34 -149.5t-113 -153.5z" />
    <glyph glyph-name="threesuperior" unicode="&#xb3;" 
d="M532 772q0 68 -45.5 116t-113.5 48q-23 0 -56 -10l-77 96l198 242h-332v170h586v-156l-180 -215q104 -27 165.5 -112t61.5 -195q0 -59 -25.5 -115.5t-70.5 -102t-114 -73t-150 -27.5q-104 0 -189.5 47.5t-138.5 132.5l139 117q89 -129 183 -129q68 0 113.5 48t45.5 118z
" />
    <glyph glyph-name="acute" unicode="&#xb4;" horiz-adv-x="860" 
d="M234 1145l279 350h235l-286 -350h-228z" />
    <glyph glyph-name="mu" unicode="&#xb5;" horiz-adv-x="1269" 
d="M143 -475v1536h234v-713q23 -73 91.5 -118.5t152.5 -45.5q75 0 150.5 51t121.5 121v705h233v-1061h-233v123q-56 -67 -134.5 -107.5t-162.5 -40.5q-63 0 -120.5 27.5t-98.5 73.5v-551h-234z" />
    <glyph glyph-name="paragraph" unicode="&#xb6;" horiz-adv-x="1200" 
d="M588 549h-51q-192 0 -323.5 127.5t-131.5 314.5t131.5 315t323.5 128h489v-1702h-172v1540h-94v-1540h-172v817z" />
    <glyph glyph-name="periodcentered" unicode="&#xb7;" horiz-adv-x="614" 
d="M156 666q0 64 43 107.5t108 43.5t108.5 -43.5t43.5 -107.5t-43.5 -108t-108.5 -44q-64 0 -107.5 43.5t-43.5 108.5z" />
    <glyph glyph-name="cedilla" unicode="&#xb8;" horiz-adv-x="860" 
d="M373 -221q-26 0 -58 -4l-41 45l97 180h178l-70 -106q79 -22 126.5 -78t47.5 -127q0 -95 -76 -158t-192 -63q-114 0 -190 61l77 111q45 -33 101 -33q45 0 73.5 24.5t28.5 61.5t-28.5 61.5t-73.5 24.5z" />
    <glyph glyph-name="onesuperior" unicode="&#xb9;" 
d="M389 1434h176v-971h-207v764l-147 -80l-80 151z" />
    <glyph glyph-name="ordmasculine" unicode="&#xba;" horiz-adv-x="942" 
d="M61 1061q0 163 119 276t291 113t291 -113t119 -276t-119 -276t-291 -113t-291 113t-119 276zM268 1061q0 -88 57.5 -145.5t145.5 -57.5t145.5 57.5t57.5 145.5t-57.5 145.5t-145.5 57.5t-145.5 -57.5t-57.5 -145.5z" />
    <glyph glyph-name="guillemotright" unicode="&#xbb;" horiz-adv-x="1314" 
d="M1208 700v-122l-581 -359v215l344 205l-344 205v215zM707 700v-122l-582 -359v215l344 205l-344 205v215z" />
    <glyph glyph-name="onequarter" unicode="&#xbc;" horiz-adv-x="1976" 
d="M389 1434h176v-971h-207v764l-147 -80l-80 151zM1194 178v160l430 633h197v-617h100v-176h-100v-178h-207v178h-420zM1419 352h195v297zM539 0l700 1434h201l-699 -1434h-202z" />
    <glyph glyph-name="onehalf" unicode="&#xbd;" horiz-adv-x="1976" 
d="M1735 395l-211 -227h348v-168h-621v150l324 350q55 60 77.5 104t22.5 94q0 58 -33.5 93.5t-89.5 35.5q-52 0 -85.5 -31.5t-59.5 -103.5l-177 69q33 115 116.5 174.5t205.5 59.5q144 0 237 -81t93 -216q0 -82 -34 -149.5t-113 -153.5zM389 1434h176v-971h-207v764
l-147 -80l-80 151zM539 0l700 1434h201l-699 -1434h-202z" />
    <glyph glyph-name="threequarters" unicode="&#xbe;" horiz-adv-x="1976" 
d="M1194 178v160l430 633h197v-617h100v-176h-100v-178h-207v178h-420zM1419 352h195v297zM532 772q0 68 -45.5 116t-113.5 48q-23 0 -56 -10l-77 96l198 242h-332v170h586v-156l-180 -215q104 -27 165.5 -112t61.5 -195q0 -59 -25.5 -115.5t-70.5 -102t-114 -73t-150 -27.5
q-104 0 -189.5 47.5t-138.5 132.5l139 117q89 -129 183 -129q68 0 113.5 48t45.5 118zM539 0l700 1434h201l-699 -1434h-202z" />
    <glyph glyph-name="questiondown" unicode="&#xbf;" horiz-adv-x="1130" 
d="M758 647v-371q-181 0 -285 -73t-104 -187q0 -87 76.5 -143.5t201.5 -56.5q69 0 142.5 32.5t136.5 85.5l127 -173q-189 -158 -435 -158q-219 0 -357 123.5t-138 291.5q0 148 106 260.5t287 147.5v221h242zM788 934q0 -65 -43.5 -108.5t-107.5 -43.5q-65 0 -108.5 44
t-43.5 108t43.5 107.5t108.5 43.5t108 -43.5t43 -107.5z" />
    <glyph glyph-name="Agrave" unicode="&#xc0;" horiz-adv-x="1409" 
d="M840 1434l528 -1434h-262l-119 346h-565l-119 -346h-262l528 1434h271zM705 1169l-211 -614h421zM599 1894l279 -350h-228l-285 350h234z" />
    <glyph glyph-name="Aacute" unicode="&#xc1;" horiz-adv-x="1409" 
d="M840 1434l528 -1434h-262l-119 346h-565l-119 -346h-262l528 1434h271zM705 1169l-211 -614h421zM528 1544l279 350h234l-285 -350h-228z" />
    <glyph glyph-name="Acircumflex" unicode="&#xc2;" horiz-adv-x="1409" 
d="M840 1434l528 -1434h-262l-119 346h-565l-119 -346h-262l528 1434h271zM705 1169l-211 -614h421zM784 1894l299 -350h-227l-151 174l-152 -174h-227l299 350h159z" />
    <glyph glyph-name="Atilde" unicode="&#xc3;" horiz-adv-x="1409" 
d="M840 1434l528 -1434h-262l-119 346h-565l-119 -346h-262l528 1434h271zM705 1169l-211 -614h421zM719 1604q-76 41 -107 41q-48 0 -65 -79l-198 40q23 112 71.5 167.5t126.5 55.5q62 0 143 -47q76 -41 107 -41q48 0 65 79l198 -40q-46 -224 -198 -224q-60 0 -143 48z" />
    <glyph glyph-name="Adieresis" unicode="&#xc4;" horiz-adv-x="1409" 
d="M840 1434l528 -1434h-262l-119 346h-565l-119 -346h-262l528 1434h271zM705 1169l-211 -614h421zM381 1704q0 57 39 96t96 39t96 -39t39 -96t-39 -96t-96 -39t-96 39t-39 96zM758 1704q0 57 39 96t96 39t96 -39t39 -96t-39 -96t-96 -39t-96 39t-39 96z" />
    <glyph glyph-name="Aring" unicode="&#xc5;" horiz-adv-x="1409" 
d="M840 1434l528 -1434h-262l-119 346h-565l-119 -346h-262l528 1434h271zM705 1169l-211 -614h421zM631 1726q0 -31 21 -51t53 -20t52.5 20t20.5 51t-20.5 51.5t-52.5 20.5t-53 -20.5t-21 -51.5zM483 1726q0 86 63.5 144.5t158.5 58.5t158 -58t63 -145q0 -86 -63 -144
t-158 -58t-158.5 58t-63.5 144z" />
    <glyph glyph-name="AE" unicode="&#xc6;" horiz-adv-x="1894" 
d="M274 0h-274l811 1434h952v-209h-610v-400h561v-209h-561v-407h629v-209h-871v346h-447zM911 1159l-332 -604h332v604z" />
    <glyph glyph-name="Ccedilla" unicode="&#xc7;" horiz-adv-x="1415" 
d="M776 -221q-25 0 -57 -4l-41 45l85 160q-193 19 -348.5 119.5t-244 262.5t-88.5 355q0 154 59 291.5t160.5 236t243.5 156t301 57.5q269 0 481 -160l-121 -182q-96 64 -178 96.5t-182 32.5q-143 0 -261.5 -69t-187.5 -190.5t-69 -268.5t69 -268.5t187.5 -191t261.5 -69.5
q196 0 371 140l126 -181q-173 -141 -404 -166l-56 -87q79 -22 126.5 -78t47.5 -127q0 -95 -76.5 -158t-192.5 -63q-114 0 -190 61l78 111q45 -33 100 -33q45 0 74 24.5t29 61.5t-29 61.5t-74 24.5z" />
    <glyph glyph-name="Egrave" unicode="&#xc8;" horiz-adv-x="1167" 
d="M164 0v1434h872v-209h-630v-400h581v-209h-581v-407h649v-209h-891zM474 1894l279 -350h-228l-285 350h234z" />
    <glyph glyph-name="Eacute" unicode="&#xc9;" horiz-adv-x="1167" 
d="M164 0v1434h872v-209h-630v-400h581v-209h-581v-407h649v-209h-891zM457 1544l278 350h235l-286 -350h-227z" />
    <glyph glyph-name="Ecircumflex" unicode="&#xca;" horiz-adv-x="1167" 
d="M164 0v1434h872v-209h-630v-400h581v-209h-581v-407h649v-209h-891zM682 1894l299 -350h-227l-152 174l-151 -174h-228l299 350h160z" />
    <glyph glyph-name="Edieresis" unicode="&#xcb;" horiz-adv-x="1167" 
d="M164 0v1434h872v-209h-630v-400h581v-209h-581v-407h649v-209h-891zM279 1704q0 57 39 96t96 39t96 -39t39 -96t-39 -96t-96 -39t-96 39t-39 96zM655 1704q0 57 39.5 96t96.5 39t96 -39t39 -96t-39 -96t-96 -39t-96.5 39t-39.5 96z" />
    <glyph glyph-name="Igrave" unicode="&#xcc;" horiz-adv-x="589" 
d="M174 1434h242v-1434h-242v1434zM187 1894l279 -350h-227l-286 350h234z" />
    <glyph glyph-name="Iacute" unicode="&#xcd;" horiz-adv-x="589" 
d="M174 1434h242v-1434h-242v1434zM123 1544l278 350h235l-286 -350h-227z" />
    <glyph glyph-name="Icircumflex" unicode="&#xce;" horiz-adv-x="589" 
d="M174 1434h242v-1434h-242v1434zM375 1894l299 -350h-228l-151 174l-152 -174h-227l299 350h160z" />
    <glyph glyph-name="Idieresis" unicode="&#xcf;" horiz-adv-x="589" 
d="M174 1434h242v-1434h-242v1434zM-29 1704q0 57 39 96t96 39t96.5 -39t39.5 -96t-39.5 -96t-96.5 -39t-96 39t-39 96zM348 1704q0 57 39 96t96 39t96 -39t39 -96t-39 -96t-96 -39t-96 39t-39 96z" />
    <glyph glyph-name="Eth" unicode="&#xd0;" horiz-adv-x="1499" 
d="M195 1434h503q331 0 525 -192.5t194 -524.5t-194 -524.5t-525 -192.5h-503v629h-185v176h185v629zM727 629h-291v-416h262q217 0 345 126.5t128 377.5t-128 377.5t-345 126.5h-262v-416h291v-176z" />
    <glyph glyph-name="Ntilde" unicode="&#xd1;" horiz-adv-x="1441" 
d="M735 1604q-76 41 -106 41q-49 0 -66 -79l-197 40q23 112 71 167.5t126 55.5q63 0 144 -47q76 -41 106 -41q49 0 66 79l197 -40q-23 -112 -71 -168t-126 -56q-61 0 -144 48zM164 0v1434h233l647 -1016v1016h234v-1434h-234l-647 1016v-1016h-233z" />
    <glyph glyph-name="Ograve" unicode="&#xd2;" horiz-adv-x="1691" 
d="M846 188q143 0 261.5 69.5t187.5 191t69 268.5t-69 268.5t-187.5 190.5t-261.5 69t-261.5 -69t-187.5 -190.5t-69 -268.5t69 -268.5t187.5 -191t261.5 -69.5zM846 1458q159 0 301 -57.5t243.5 -156t160.5 -236t59 -291.5t-59 -291.5t-160.5 -236.5t-243.5 -156.5
t-301 -57.5t-301 57.5t-243.5 156.5t-160.5 236.5t-59 291.5t59 291.5t160.5 236t243.5 156t301 57.5zM738 1894l279 -350h-227l-286 350h234z" />
    <glyph glyph-name="Oacute" unicode="&#xd3;" horiz-adv-x="1691" 
d="M846 188q143 0 261.5 69.5t187.5 191t69 268.5t-69 268.5t-187.5 190.5t-261.5 69t-261.5 -69t-187.5 -190.5t-69 -268.5t69 -268.5t187.5 -191t261.5 -69.5zM846 1458q159 0 301 -57.5t243.5 -156t160.5 -236t59 -291.5t-59 -291.5t-160.5 -236.5t-243.5 -156.5
t-301 -57.5t-301 57.5t-243.5 156.5t-160.5 236.5t-59 291.5t59 291.5t160.5 236t243.5 156t301 57.5zM675 1544l278 350h235l-286 -350h-227z" />
    <glyph glyph-name="Ocircumflex" unicode="&#xd4;" horiz-adv-x="1691" 
d="M846 188q143 0 261.5 69.5t187.5 191t69 268.5t-69 268.5t-187.5 190.5t-261.5 69t-261.5 -69t-187.5 -190.5t-69 -268.5t69 -268.5t187.5 -191t261.5 -69.5zM846 1458q159 0 301 -57.5t243.5 -156t160.5 -236t59 -291.5t-59 -291.5t-160.5 -236.5t-243.5 -156.5
t-301 -57.5t-301 57.5t-243.5 156.5t-160.5 236.5t-59 291.5t59 291.5t160.5 236t243.5 156t301 57.5zM926 1894l299 -350h-228l-151 174l-152 -174h-227l299 350h160z" />
    <glyph glyph-name="Otilde" unicode="&#xd5;" horiz-adv-x="1691" 
d="M846 188q143 0 261.5 69.5t187.5 191t69 268.5t-69 268.5t-187.5 190.5t-261.5 69t-261.5 -69t-187.5 -190.5t-69 -268.5t69 -268.5t187.5 -191t261.5 -69.5zM846 1458q159 0 301 -57.5t243.5 -156t160.5 -236t59 -291.5t-59 -291.5t-160.5 -236.5t-243.5 -156.5
t-301 -57.5t-301 57.5t-243.5 156.5t-160.5 236.5t-59 291.5t59 291.5t160.5 236t243.5 156t301 57.5zM860 1604q-76 41 -106 41q-49 0 -66 -79l-198 40q23 112 71.5 167.5t126.5 55.5q62 0 143 -47q76 -41 107 -41q49 0 66 79l197 -40q-23 -112 -71 -168t-126 -56
q-61 0 -144 48z" />
    <glyph glyph-name="Odieresis" unicode="&#xd6;" horiz-adv-x="1691" 
d="M846 188q143 0 261.5 69.5t187.5 191t69 268.5t-69 268.5t-187.5 190.5t-261.5 69t-261.5 -69t-187.5 -190.5t-69 -268.5t69 -268.5t187.5 -191t261.5 -69.5zM846 1458q159 0 301 -57.5t243.5 -156t160.5 -236t59 -291.5t-59 -291.5t-160.5 -236.5t-243.5 -156.5
t-301 -57.5t-301 57.5t-243.5 156.5t-160.5 236.5t-59 291.5t59 291.5t160.5 236t243.5 156t301 57.5zM522 1704q0 57 39 96t96 39t96.5 -39t39.5 -96t-39.5 -96t-96.5 -39t-96 39t-39 96zM899 1704q0 57 39 96t96 39t96 -39t39 -96t-39 -96t-96 -39t-96 39t-39 96z" />
    <glyph glyph-name="multiply" unicode="&#xd7;" horiz-adv-x="1187" 
d="M301 1124l287 -288l299 299l157 -158l-299 -299l299 -299l-157 -158l-299 299l-289 -289l-158 158l289 289l-287 289z" />
    <glyph glyph-name="Oslash" unicode="&#xd8;" horiz-adv-x="1691" 
d="M846 1458q208 0 387 -98l106 135h211l-182 -231q114 -102 178 -243.5t64 -303.5q0 -154 -59 -291.5t-160.5 -236.5t-243.5 -156.5t-301 -57.5q-226 0 -408 109l-114 -145h-211l193 245q-106 102 -165 239.5t-59 293.5q0 154 59 291.5t160.5 236t243.5 156t301 57.5z
M846 188q143 0 261.5 69.5t187.5 191t69 268.5q0 213 -140 364l-645 -820q124 -73 267 -73zM328 717q0 -202 124 -347l641 813q-113 62 -247 62q-143 0 -261.5 -69t-187.5 -190.5t-69 -268.5z" />
    <glyph glyph-name="Ugrave" unicode="&#xd9;" horiz-adv-x="1368" 
d="M566 1894l279 -350h-228l-285 350h234zM1214 1434v-926q0 -119 -41.5 -219.5t-113.5 -168t-169 -105.5t-206 -38t-206 38t-169 105.5t-113.5 168t-41.5 219.5v926h241v-955q0 -129 83 -209t206 -80t206 80t83 209v955h241z" />
    <glyph glyph-name="Uacute" unicode="&#xda;" horiz-adv-x="1368" 
d="M528 1544l279 350h234l-285 -350h-228zM1214 1434v-926q0 -119 -41.5 -219.5t-113.5 -168t-169 -105.5t-206 -38t-206 38t-169 105.5t-113.5 168t-41.5 219.5v926h241v-955q0 -129 83 -209t206 -80t206 80t83 209v955h241z" />
    <glyph glyph-name="Ucircumflex" unicode="&#xdb;" horiz-adv-x="1368" 
d="M764 1894l299 -350h-227l-152 174l-152 -174h-227l299 350h160zM1214 1434v-926q0 -119 -41.5 -219.5t-113.5 -168t-169 -105.5t-206 -38t-206 38t-169 105.5t-113.5 168t-41.5 219.5v926h241v-955q0 -129 83 -209t206 -80t206 80t83 209v955h241z" />
    <glyph glyph-name="Udieresis" unicode="&#xdc;" horiz-adv-x="1368" 
d="M360 1704q0 57 39.5 96t96.5 39t96 -39t39 -96t-39 -96t-96 -39t-96.5 39t-39.5 96zM737 1704q0 57 39 96t96 39t96.5 -39t39.5 -96t-39.5 -96t-96.5 -39t-96 39t-39 96zM1214 1434v-926q0 -119 -41.5 -219.5t-113.5 -168t-169 -105.5t-206 -38t-206 38t-169 105.5
t-113.5 168t-41.5 219.5v926h241v-955q0 -129 83 -209t206 -80t206 80t83 209v955h241z" />
    <glyph glyph-name="Yacute" unicode="&#xdd;" horiz-adv-x="1323" 
d="M299 1434l363 -611l362 611h258l-500 -846v-588h-241v588l-500 846h258zM507 1544l278 350h235l-286 -350h-227z" />
    <glyph glyph-name="Thorn" unicode="&#xde;" horiz-adv-x="1214" 
d="M647 260h-241v-260h-242v1434h242v-260h241q230 0 363 -124t133 -333t-133 -333t-363 -124zM897 717q0 116 -67 182t-193 66h-231v-496h231q126 0 193 66t67 182z" />
    <glyph glyph-name="germandbls" unicode="&#xdf;" horiz-adv-x="1255" 
d="M154 0v1049q0 185 121 297t307 112q183 0 307.5 -108t124.5 -265q0 -100 -57.5 -182t-161.5 -123q164 -27 271.5 -135t107.5 -256q0 -175 -137 -294.5t-339 -119.5q-129 0 -229 50l57 211q77 -52 172 -52q98 0 164 58.5t66 146.5q0 122 -108.5 197t-287.5 80v200
q105 11 170.5 66t65.5 143q0 73 -54 123.5t-132 50.5q-81 0 -134 -52.5t-53 -137.5v-1059h-241z" />
    <glyph glyph-name="agrave" unicode="&#xe0;" horiz-adv-x="1343" 
d="M655 184q102 0 186 52t126 139v309q-42 87 -126 140t-186 53q-146 0 -246 -100.5t-100 -246.5t100 -246t246 -100zM614 1085q214 0 353 -139v115h233v-1061h-233v115q-140 -140 -353 -140q-154 0 -279 76t-194 202.5t-69 276.5t69 276.5t194 202.5t279 76zM536 1563
l278 -351h-227l-286 351h235z" />
    <glyph glyph-name="aacute" unicode="&#xe1;" horiz-adv-x="1343" 
d="M655 184q102 0 186 52t126 139v309q-42 87 -126 140t-186 53q-146 0 -246 -100.5t-100 -246.5t100 -246t246 -100zM614 1085q214 0 353 -139v115h233v-1061h-233v115q-140 -140 -353 -140q-154 0 -279 76t-194 202.5t-69 276.5t69 276.5t194 202.5t279 76zM456 1212
l278 351h235l-286 -351h-227z" />
    <glyph glyph-name="acircumflex" unicode="&#xe2;" horiz-adv-x="1343" 
d="M655 184q102 0 186 52t126 139v309q-42 87 -126 140t-186 53q-146 0 -246 -100.5t-100 -246.5t100 -246t246 -100zM614 1085q214 0 353 -139v115h233v-1061h-233v115q-140 -140 -353 -140q-154 0 -279 76t-194 202.5t-69 276.5t69 276.5t194 202.5t279 76zM735 1563
l299 -351h-227l-152 174l-151 -174h-228l299 351h160z" />
    <glyph glyph-name="atilde" unicode="&#xe3;" horiz-adv-x="1343" 
d="M655 184q102 0 186 52t126 139v309q-42 87 -126 140t-186 53q-146 0 -246 -100.5t-100 -246.5t100 -246t246 -100zM614 1085q214 0 353 -139v115h233v-1061h-233v115q-140 -140 -353 -140q-154 0 -279 76t-194 202.5t-69 276.5t69 276.5t194 202.5t279 76zM649 1272
q-76 41 -106 41q-49 0 -66 -79l-197 40q23 112 71 167.5t126 55.5q63 0 144 -47q76 -41 106 -41q49 0 66 79l197 -40q-23 -112 -71 -167.5t-126 -55.5q-63 0 -144 47z" />
    <glyph glyph-name="adieresis" unicode="&#xe4;" horiz-adv-x="1343" 
d="M655 184q102 0 186 52t126 139v309q-42 87 -126 140t-186 53q-146 0 -246 -100.5t-100 -246.5t100 -246t246 -100zM614 1085q214 0 353 -139v115h233v-1061h-233v115q-140 -140 -353 -140q-154 0 -279 76t-194 202.5t-69 276.5t69 276.5t194 202.5t279 76zM311 1372
q0 57 39 96t96 39t96.5 -39t39.5 -96t-39.5 -96t-96.5 -39t-96 39t-39 96zM688 1372q0 57 39 96t96 39t96 -39t39 -96t-39 -96t-96 -39t-96 39t-39 96z" />
    <glyph glyph-name="aring" unicode="&#xe5;" horiz-adv-x="1343" 
d="M655 184q102 0 186 52t126 139v309q-42 87 -126 140t-186 53q-146 0 -246 -100.5t-100 -246.5t100 -246t246 -100zM614 1085q214 0 353 -139v115h233v-1061h-233v115q-140 -140 -353 -140q-154 0 -279 76t-194 202.5t-69 276.5t69 276.5t194 202.5t279 76zM561 1395
q0 -31 21 -51.5t53 -20.5t53 20.5t21 51.5t-21 51t-53 20t-53 -20t-21 -51zM414 1395q0 86 63 144t158 58t158 -58t63 -144q0 -87 -63 -145t-158 -58t-158 58t-63 145z" />
    <glyph glyph-name="ae" unicode="&#xe6;" horiz-adv-x="2082" 
d="M2001 455h-874q20 -122 116 -200.5t227 -78.5q180 0 316 139l160 -147q-178 -193 -469 -193q-142 0 -261.5 54.5t-193.5 146.5q-70 -92 -185.5 -146.5t-252.5 -54.5q-220 0 -366 102.5t-146 254.5q0 143 140.5 239.5t340.5 96.5q94 0 185.5 -24t150.5 -62v47
q0 107 -88 181.5t-223 74.5q-91 0 -181.5 -35t-158.5 -92l-88 176q90 72 202.5 111.5t231.5 39.5q139 0 255 -54.5t184 -147.5q72 94 187.5 148t249.5 54q158 0 285 -72.5t196.5 -194t69.5 -267.5q0 -51 -10 -96zM305 332q0 -66 82 -111t209 -45q209 0 291 125v101
q-110 85 -291 85q-127 0 -209 -45t-82 -110zM1460 885q-110 0 -200 -66.5t-123 -171.5h629q-28 105 -111 171.5t-195 66.5z" />
    <glyph glyph-name="ccedilla" unicode="&#xe7;" horiz-adv-x="1136" 
d="M578 -221q-26 0 -58 -4l-41 45l86 162q-217 29 -355 182.5t-138 365.5q0 153 75 280t209 201t299 74q225 0 389 -135l-120 -182q-136 109 -269 109q-146 0 -246 -100.5t-100 -246.5t100 -246t246 -100q148 0 273 115l137 -170q-135 -124 -325 -148l-56 -87
q79 -22 126.5 -78t47.5 -127q0 -95 -76 -158t-192 -63q-115 0 -191 61l78 111q45 -33 101 -33q45 0 73.5 24.5t28.5 61.5t-28.5 61.5t-73.5 24.5z" />
    <glyph glyph-name="egrave" unicode="&#xe8;" horiz-adv-x="1265" 
d="M1184 455h-874q20 -122 116 -200.5t227 -78.5q180 0 316 139l159 -147q-178 -193 -469 -193q-172 0 -307 74.5t-207.5 200.5t-72.5 280q0 114 43.5 216.5t118.5 177t181.5 118t227.5 43.5q158 0 285 -72.5t196.5 -194t69.5 -267.5q0 -51 -10 -96zM643 885
q-110 0 -200.5 -66.5t-123.5 -171.5h630q-28 105 -111 171.5t-195 66.5zM544 1563l278 -351h-227l-286 351h235z" />
    <glyph glyph-name="eacute" unicode="&#xe9;" horiz-adv-x="1265" 
d="M1184 455h-874q20 -122 116 -200.5t227 -78.5q180 0 316 139l159 -147q-178 -193 -469 -193q-172 0 -307 74.5t-207.5 200.5t-72.5 280q0 114 43.5 216.5t118.5 177t181.5 118t227.5 43.5q158 0 285 -72.5t196.5 -194t69.5 -267.5q0 -51 -10 -96zM643 885
q-110 0 -200.5 -66.5t-123.5 -171.5h630q-28 105 -111 171.5t-195 66.5zM447 1212l279 351h235l-286 -351h-228z" />
    <glyph glyph-name="ecircumflex" unicode="&#xea;" horiz-adv-x="1265" 
d="M1184 455h-874q20 -122 116 -200.5t227 -78.5q180 0 316 139l159 -147q-178 -193 -469 -193q-172 0 -307 74.5t-207.5 200.5t-72.5 280q0 114 43.5 216.5t118.5 177t181.5 118t227.5 43.5q158 0 285 -72.5t196.5 -194t69.5 -267.5q0 -51 -10 -96zM643 885
q-110 0 -200.5 -66.5t-123.5 -171.5h630q-28 105 -111 171.5t-195 66.5zM713 1563l299 -351h-228l-151 174l-152 -174h-227l299 351h160z" />
    <glyph glyph-name="edieresis" unicode="&#xeb;" horiz-adv-x="1265" 
d="M1184 455h-874q20 -122 116 -200.5t227 -78.5q180 0 316 139l159 -147q-178 -193 -469 -193q-172 0 -307 74.5t-207.5 200.5t-72.5 280q0 114 43.5 216.5t118.5 177t181.5 118t227.5 43.5q158 0 285 -72.5t196.5 -194t69.5 -267.5q0 -51 -10 -96zM643 885
q-110 0 -200.5 -66.5t-123.5 -171.5h630q-28 105 -111 171.5t-195 66.5zM309 1372q0 57 39 96t96 39t96.5 -39t39.5 -96t-39.5 -96t-96.5 -39t-96 39t-39 96zM686 1372q0 57 39 96t96 39t96 -39t39 -96t-39 -96t-96 -39t-96 39t-39 96z" />
    <glyph glyph-name="igrave" unicode="&#xec;" horiz-adv-x="540" 
d="M154 0v1061h233v-1061h-233zM150 1563l278 -351h-227l-286 351h235z" />
    <glyph glyph-name="iacute" unicode="&#xed;" horiz-adv-x="540" 
d="M154 0v1061h233v-1061h-233zM113 1212l278 351h235l-286 -351h-227z" />
    <glyph glyph-name="icircumflex" unicode="&#xee;" horiz-adv-x="540" 
d="M154 0v1061h233v-1061h-233zM350 1563l299 -351h-227l-152 174l-151 -174h-228l299 351h160z" />
    <glyph glyph-name="idieresis" unicode="&#xef;" horiz-adv-x="540" 
d="M154 0v1061h233v-1061h-233zM-53 1372q0 57 39 96t96 39t96 -39t39 -96t-39 -96t-96 -39t-96 39t-39 96zM324 1372q0 57 39 96t96 39t96 -39t39 -96t-39 -96t-96 -39t-96 39t-39 96z" />
    <glyph glyph-name="eth" unicode="&#xf0;" horiz-adv-x="1271" 
d="M328 1049l-64 137l215 99q-91 55 -192 99l186 111q106 -44 212 -115l224 105l64 -137l-154 -72q173 -156 272 -359.5t99 -416.5q0 -145 -74 -266t-202.5 -190t-282.5 -69t-282.5 69t-202.5 190t-74 266q0 142 73.5 261.5t194.5 187t258 67.5q138 0 243 -74
q-88 134 -220 243zM309 504q0 -135 93.5 -227.5t230.5 -92.5q136 0 229.5 92.5t93.5 227.5t-93 227t-230 92t-230.5 -92t-93.5 -227z" />
    <glyph glyph-name="ntilde" unicode="&#xf1;" horiz-adv-x="1249" 
d="M377 705v-705h-234v1061h234v-123q60 67 144.5 107t172.5 40q193 0 312.5 -121.5t119.5 -320.5v-643h-233v631q0 108 -68 177t-176 69q-75 0 -150.5 -51t-121.5 -121zM649 1272q-76 41 -106 41q-49 0 -66 -79l-197 40q23 112 71 167.5t126 55.5q63 0 144 -47
q76 -41 106 -41q49 0 66 79l197 -40q-23 -112 -71 -167.5t-126 -55.5q-63 0 -144 47z" />
    <glyph glyph-name="ograve" unicode="&#xf2;" horiz-adv-x="1310" 
d="M546 1563l278 -351h-227l-286 351h235zM655 184q146 0 246 100t100 246t-100 246.5t-246 100.5t-246 -100.5t-100 -246.5t100 -246t246 -100zM655 1085q124 0 233 -43.5t185.5 -118t121 -177t44.5 -216.5t-44.5 -216.5t-121 -177t-185.5 -118t-233 -43.5q-165 0 -299 74
t-209 201t-75 280t75 280t209 201t299 74z" />
    <glyph glyph-name="oacute" unicode="&#xf3;" horiz-adv-x="1310" 
d="M492 1212l278 351h235l-286 -351h-227zM655 184q146 0 246 100t100 246t-100 246.5t-246 100.5t-246 -100.5t-100 -246.5t100 -246t246 -100zM655 1085q124 0 233 -43.5t185.5 -118t121 -177t44.5 -216.5t-44.5 -216.5t-121 -177t-185.5 -118t-233 -43.5q-165 0 -299 74
t-209 201t-75 280t75 280t209 201t299 74z" />
    <glyph glyph-name="ocircumflex" unicode="&#xf4;" horiz-adv-x="1310" 
d="M735 1563l299 -351h-227l-152 174l-151 -174h-228l299 351h160zM655 184q146 0 246 100t100 246t-100 246.5t-246 100.5t-246 -100.5t-100 -246.5t100 -246t246 -100zM655 1085q124 0 233 -43.5t185.5 -118t121 -177t44.5 -216.5t-44.5 -216.5t-121 -177t-185.5 -118
t-233 -43.5q-165 0 -299 74t-209 201t-75 280t75 280t209 201t299 74z" />
    <glyph glyph-name="otilde" unicode="&#xf5;" horiz-adv-x="1310" 
d="M670 1272q-76 41 -107 41q-48 0 -65 -79l-198 40q23 112 71.5 167.5t126.5 55.5q62 0 143 -47q76 -41 107 -41q48 0 65 79l198 -40q-23 -112 -71.5 -167.5t-126.5 -55.5q-62 0 -143 47zM655 184q146 0 246 100t100 246t-100 246.5t-246 100.5t-246 -100.5t-100 -246.5
t100 -246t246 -100zM655 1085q124 0 233 -43.5t185.5 -118t121 -177t44.5 -216.5t-44.5 -216.5t-121 -177t-185.5 -118t-233 -43.5q-165 0 -299 74t-209 201t-75 280t75 280t209 201t299 74z" />
    <glyph glyph-name="odieresis" unicode="&#xf6;" horiz-adv-x="1310" 
d="M332 1372q0 57 39 96t96 39t96 -39t39 -96t-39 -96t-96 -39t-96 39t-39 96zM709 1372q0 57 39 96t96 39t96 -39t39 -96t-39 -96t-96 -39t-96 39t-39 96zM655 184q146 0 246 100t100 246t-100 246.5t-246 100.5t-246 -100.5t-100 -246.5t100 -246t246 -100zM655 1085
q124 0 233 -43.5t185.5 -118t121 -177t44.5 -216.5t-44.5 -216.5t-121 -177t-185.5 -118t-233 -43.5q-165 0 -299 74t-209 201t-75 280t75 280t209 201t299 74z" />
    <glyph glyph-name="divide" unicode="&#xf7;" horiz-adv-x="1187" 
d="M1065 580h-942v200h942v-200zM442 1067q0 65 44 108.5t108 43.5t107.5 -43.5t43.5 -108.5t-43.5 -108.5t-107.5 -43.5t-108 43.5t-44 108.5zM442 293q0 64 43.5 107.5t108.5 43.5q64 0 107.5 -43t43.5 -108t-43.5 -108.5t-107.5 -43.5t-108 43.5t-44 108.5z" />
    <glyph glyph-name="oslash" unicode="&#xf8;" horiz-adv-x="1310" 
d="M1020 1122h203l-154 -194q81 -76 125.5 -179t44.5 -219q0 -114 -44.5 -216.5t-121 -177t-185.5 -118t-233 -43.5q-152 0 -284 67l-82 -103h-203l155 195q-80 76 -124.5 178t-44.5 218q0 153 75 280t209 201t299 74q154 0 283 -66zM655 184q146 0 246 100t100 246
q0 125 -74 218l-419 -532q70 -32 147 -32zM309 530q0 -124 73 -216l419 531q-70 32 -146 32q-146 0 -246 -100.5t-100 -246.5z" />
    <glyph glyph-name="ugrave" unicode="&#xf9;" horiz-adv-x="1249" 
d="M872 356v705h234v-1061h-234v123q-61 -67 -145 -107.5t-172 -40.5q-193 0 -312.5 122t-119.5 321v643h233v-631q0 -108 68 -177t176 -69q75 0 150.5 51t121.5 121zM484 1563l279 -351h-227l-286 351h234z" />
    <glyph glyph-name="uacute" unicode="&#xfa;" horiz-adv-x="1249" 
d="M872 356v705h234v-1061h-234v123q-61 -67 -145 -107.5t-172 -40.5q-193 0 -312.5 122t-119.5 321v643h233v-631q0 -108 68 -177t176 -69q75 0 150.5 51t121.5 121zM456 1212l278 351h235l-286 -351h-227z" />
    <glyph glyph-name="ucircumflex" unicode="&#xfb;" horiz-adv-x="1249" 
d="M872 356v705h234v-1061h-234v123q-61 -67 -145 -107.5t-172 -40.5q-193 0 -312.5 122t-119.5 321v643h233v-631q0 -108 68 -177t176 -69q75 0 150.5 51t121.5 121zM688 1563l299 -351h-227l-152 174l-151 -174h-228l299 351h160z" />
    <glyph glyph-name="udieresis" unicode="&#xfc;" horiz-adv-x="1249" 
d="M872 356v705h234v-1061h-234v123q-61 -67 -145 -107.5t-172 -40.5q-193 0 -312.5 122t-119.5 321v643h233v-631q0 -108 68 -177t176 -69q75 0 150.5 51t121.5 121zM285 1372q0 57 39 96t96 39t96 -39t39 -96t-39 -96t-96 -39t-96 39t-39 96zM662 1372q0 57 39 96t96 39
t96 -39t39 -96t-39 -96t-96 -39t-96 39t-39 96z" />
    <glyph glyph-name="yacute" unicode="&#xfd;" horiz-adv-x="1081" 
d="M240 -475l180 475l-400 1061h242l277 -766l280 766h242l-580 -1536h-241zM374 1212l278 351h235l-286 -351h-227z" />
    <glyph glyph-name="thorn" unicode="&#xfe;" horiz-adv-x="1343" 
d="M688 184q146 0 246 100t100 246t-100 246.5t-246 100.5q-102 0 -185.5 -53t-125.5 -140v-309q42 -87 125.5 -139t185.5 -52zM729 1085q154 0 279.5 -76t194.5 -202.5t69 -276.5t-69 -276.5t-194.5 -202.5t-279.5 -76q-212 0 -352 140v-590h-234v1970h234v-549
q139 139 352 139z" />
    <glyph glyph-name="ydieresis" unicode="&#xff;" horiz-adv-x="1081" 
d="M217 1372q0 57 39 96t96 39t96 -39t39 -96t-39 -96t-96 -39t-96 39t-39 96zM594 1372q0 57 39 96t96 39t96 -39t39 -96t-39 -96t-96 -39t-96 39t-39 96zM240 -475l180 475l-400 1061h242l277 -766l280 766h242l-580 -1536h-241z" />
    <glyph glyph-name="Amacron" unicode="&#x100;" horiz-adv-x="1409" 
d="M840 1434l528 -1434h-262l-119 346h-565l-119 -346h-262l528 1434h271zM705 1169l-211 -614h421zM397 1608v180h615v-180h-615z" />
    <glyph glyph-name="amacron" unicode="&#x101;" horiz-adv-x="1343" 
d="M655 184q102 0 186 52t126 139v309q-42 87 -126 140t-186 53q-146 0 -246 -100.5t-100 -246.5t100 -246t246 -100zM614 1085q214 0 353 -139v115h233v-1061h-233v115q-140 -140 -353 -140q-154 0 -279 76t-194 202.5t-69 276.5t69 276.5t194 202.5t279 76zM338 1276v180
h614v-180h-614z" />
    <glyph glyph-name="Abreve" unicode="&#x102;" horiz-adv-x="1409" 
d="M840 1434l528 -1434h-262l-119 346h-565l-119 -346h-262l528 1434h271zM705 1169l-211 -614h421zM705 1524q-137 0 -238.5 91t-108.5 230h205q1 -64 42 -106.5t100 -42.5t99.5 42.5t41.5 106.5h205q-7 -139 -108 -230t-238 -91z" />
    <glyph glyph-name="abreve" unicode="&#x103;" horiz-adv-x="1343" 
d="M655 184q102 0 186 52t126 139v309q-42 87 -126 140t-186 53q-146 0 -246 -100.5t-100 -246.5t100 -246t246 -100zM614 1085q214 0 353 -139v115h233v-1061h-233v115q-140 -140 -353 -140q-154 0 -279 76t-194 202.5t-69 276.5t69 276.5t194 202.5t279 76zM645 1192
q-137 0 -238 91t-108 230h205q1 -64 41.5 -106.5t99.5 -42.5t99.5 42.5t41.5 106.5h205q-7 -139 -108 -230t-238 -91z" />
    <glyph glyph-name="Aogonek" unicode="&#x104;" horiz-adv-x="1409" 
d="M1200 0h-94l-119 346h-565l-119 -346h-262l528 1434h271l528 -1434q-162 -134 -162 -227q0 -42 28.5 -69.5t70.5 -27.5t75 23l52 -121q-70 -47 -168 -47q-100 0 -168 61t-68 152q0 138 172 256zM705 1169l-211 -614h421z" />
    <glyph glyph-name="aogonek" unicode="&#x105;" horiz-adv-x="1343" 
d="M1032 0h-65v115q-140 -140 -353 -140q-154 0 -279 76t-194 202.5t-69 276.5t69 276.5t194 202.5t279 76q214 0 353 -139v115h233v-1061q-162 -134 -162 -227q0 -42 28.5 -69.5t70.5 -27.5t75 23l52 -121q-70 -47 -168 -47q-100 0 -168 61t-68 152q0 138 172 256zM655 184
q102 0 186 52t126 139v309q-42 87 -126 140t-186 53q-146 0 -246 -100.5t-100 -246.5t100 -246t246 -100z" />
    <glyph glyph-name="Cacute" unicode="&#x106;" horiz-adv-x="1415" 
d="M1217 328l126 -181q-210 -172 -497 -172q-159 0 -301 57.5t-243.5 156.5t-160.5 236.5t-59 291.5t59 291.5t160.5 236t243.5 156t301 57.5q269 0 481 -160l-121 -182q-96 64 -178 96.5t-182 32.5q-143 0 -261.5 -69t-187.5 -190.5t-69 -268.5t69 -268.5t187.5 -191
t261.5 -69.5q196 0 371 140zM624 1544l278 350h235l-286 -350h-227z" />
    <glyph glyph-name="cacute" unicode="&#x107;" horiz-adv-x="1130" 
d="M655 -25q-165 0 -299 74t-209 201t-75 280t75 280t209 201t299 74q225 0 389 -135l-120 -182q-136 109 -269 109q-146 0 -246 -100.5t-100 -246.5t100 -246t246 -100q148 0 273 115l137 -170q-167 -154 -410 -154zM433 1212l279 351h234l-286 -351h-227z" />
    <glyph glyph-name="Ccircumflex" unicode="&#x108;" horiz-adv-x="1415" 
d="M1217 328l126 -181q-210 -172 -497 -172q-159 0 -301 57.5t-243.5 156.5t-160.5 236.5t-59 291.5t59 291.5t160.5 236t243.5 156t301 57.5q269 0 481 -160l-121 -182q-96 64 -178 96.5t-182 32.5q-143 0 -261.5 -69t-187.5 -190.5t-69 -268.5t69 -268.5t187.5 -191
t261.5 -69.5q196 0 371 140zM866 1894l299 -350h-227l-152 174l-151 -174h-227l299 350h159z" />
    <glyph glyph-name="ccircumflex" unicode="&#x109;" horiz-adv-x="1130" 
d="M655 -25q-165 0 -299 74t-209 201t-75 280t75 280t209 201t299 74q225 0 389 -135l-120 -182q-136 109 -269 109q-146 0 -246 -100.5t-100 -246.5t100 -246t246 -100q148 0 273 115l137 -170q-167 -154 -410 -154zM672 1563l299 -351h-228l-151 174l-152 -174h-227
l299 351h160z" />
    <glyph glyph-name="Cdotaccent" unicode="&#x10a;" horiz-adv-x="1415" 
d="M1217 328l126 -181q-210 -172 -497 -172q-159 0 -301 57.5t-243.5 156.5t-160.5 236.5t-59 291.5t59 291.5t160.5 236t243.5 156t301 57.5q269 0 481 -160l-121 -182q-96 64 -178 96.5t-182 32.5q-143 0 -261.5 -69t-187.5 -190.5t-69 -268.5t69 -268.5t187.5 -191
t261.5 -69.5q196 0 371 140zM651 1704q0 57 39 96t96 39t96.5 -39t39.5 -96t-39.5 -96t-96.5 -39t-96 39t-39 96z" />
    <glyph glyph-name="cdotaccent" unicode="&#x10b;" horiz-adv-x="1130" 
d="M655 -25q-165 0 -299 74t-209 201t-75 280t75 280t209 201t299 74q225 0 389 -135l-120 -182q-136 109 -269 109q-146 0 -246 -100.5t-100 -246.5t100 -246t246 -100q148 0 273 115l137 -170q-167 -154 -410 -154zM481 1372q0 57 39 96t96 39t96.5 -39t39.5 -96
t-39.5 -96t-96.5 -39t-96 39t-39 96z" />
    <glyph glyph-name="Ccaron" unicode="&#x10c;" horiz-adv-x="1415" 
d="M1217 328l126 -181q-210 -172 -497 -172q-159 0 -301 57.5t-243.5 156.5t-160.5 236.5t-59 291.5t59 291.5t160.5 236t243.5 156t301 57.5q269 0 481 -160l-121 -182q-96 64 -178 96.5t-182 32.5q-143 0 -261.5 -69t-187.5 -190.5t-69 -268.5t69 -268.5t187.5 -191
t261.5 -69.5q196 0 371 140zM1165 1894l-299 -350h-159l-299 350h227l151 -174l152 174h227z" />
    <glyph glyph-name="ccaron" unicode="&#x10d;" horiz-adv-x="1130" 
d="M655 -25q-165 0 -299 74t-209 201t-75 280t75 280t209 201t299 74q225 0 389 -135l-120 -182q-136 109 -269 109q-146 0 -246 -100.5t-100 -246.5t100 -246t246 -100q148 0 273 115l137 -170q-167 -154 -410 -154zM973 1542l-299 -350h-160l-299 350h227l152 -174
l151 174h228z" />
    <glyph glyph-name="Dcaron" unicode="&#x10e;" horiz-adv-x="1468" 
d="M164 1434h504q331 0 524.5 -192.5t193.5 -524.5t-193.5 -524.5t-524.5 -192.5h-504v1434zM668 1221h-262v-1008h262q217 0 345 126.5t128 377.5t-128 377.5t-345 126.5zM1063 1894l-299 -350h-160l-299 350h227l152 -174l152 174h227z" />
    <glyph glyph-name="dcaron" unicode="&#x10f;" horiz-adv-x="1662" 
d="M655 184q102 0 186 52t126 139v309q-42 87 -126 140t-186 53q-146 0 -246 -100.5t-100 -246.5t100 -246t246 -100zM614 1085q214 0 353 -139v549h233v-1495h-233v115q-140 -140 -353 -140q-154 0 -279 76t-194 202.5t-69 276.5t69 276.5t194 202.5t279 76zM1331 1374
q0 62 42.5 104t103.5 42t103 -42t42 -104q0 -30 -16 -67l-140 -301h-147l104 231q-41 15 -66.5 52t-25.5 85z" />
    <glyph glyph-name="Dcroat" unicode="&#x110;" horiz-adv-x="1499" 
d="M195 1434h503q331 0 525 -192.5t194 -524.5t-194 -524.5t-525 -192.5h-503v629h-185v176h185v629zM727 629h-291v-416h262q217 0 345 126.5t128 377.5t-128 377.5t-345 126.5h-262v-416h291v-176z" />
    <glyph glyph-name="dcroat" unicode="&#x111;" horiz-adv-x="1363" 
d="M637 1188v155h330v152h233v-152h143v-155h-143v-1188h-233v115q-140 -140 -353 -140q-154 0 -279 76t-194 202.5t-69 276.5t69 276.5t194 202.5t279 76q214 0 353 -139v242h-330zM655 184q102 0 186 52t126 139v309q-42 87 -126 140t-186 53q-146 0 -246 -100.5
t-100 -246.5t100 -246t246 -100z" />
    <glyph glyph-name="Emacron" unicode="&#x112;" horiz-adv-x="1167" 
d="M164 0v1434h872v-209h-630v-400h581v-209h-581v-407h649v-209h-891zM295 1608v180h614v-180h-614z" />
    <glyph glyph-name="emacron" unicode="&#x113;" horiz-adv-x="1265" 
d="M1184 455h-874q20 -122 116 -200.5t227 -78.5q180 0 316 139l159 -147q-178 -193 -469 -193q-172 0 -307 74.5t-207.5 200.5t-72.5 280q0 114 43.5 216.5t118.5 177t181.5 118t227.5 43.5q158 0 285 -72.5t196.5 -194t69.5 -267.5q0 -51 -10 -96zM643 885
q-110 0 -200.5 -66.5t-123.5 -171.5h630q-28 105 -111 171.5t-195 66.5zM328 1276v180h614v-180h-614z" />
    <glyph glyph-name="Ebreve" unicode="&#x114;" horiz-adv-x="1167" 
d="M164 0v1434h872v-209h-630v-400h581v-209h-581v-407h649v-209h-891zM600 1524q-137 0 -238 91t-108 230h205q1 -64 41.5 -106.5t99.5 -42.5t99.5 42.5t41.5 106.5h205q-7 -139 -108 -230t-238 -91z" />
    <glyph glyph-name="ebreve" unicode="&#x115;" horiz-adv-x="1265" 
d="M1184 455h-874q20 -122 116 -200.5t227 -78.5q180 0 316 139l159 -147q-178 -193 -469 -193q-172 0 -307 74.5t-207.5 200.5t-72.5 280q0 114 43.5 216.5t118.5 177t181.5 118t227.5 43.5q158 0 285 -72.5t196.5 -194t69.5 -267.5q0 -51 -10 -96zM643 885
q-110 0 -200.5 -66.5t-123.5 -171.5h630q-28 105 -111 171.5t-195 66.5zM633 1192q-137 0 -238 91t-108 230h205q1 -64 41.5 -106.5t99.5 -42.5t99.5 42.5t41.5 106.5h205q-7 -139 -108 -230t-238 -91z" />
    <glyph glyph-name="Edotaccent" unicode="&#x116;" horiz-adv-x="1167" 
d="M164 0v1434h872v-209h-630v-400h581v-209h-581v-407h649v-209h-891zM475 1704q0 57 39 96t96 39t96 -39t39 -96t-39 -96t-96 -39t-96 39t-39 96z" />
    <glyph glyph-name="edotaccent" unicode="&#x117;" horiz-adv-x="1265" 
d="M1184 455h-874q20 -122 116 -200.5t227 -78.5q180 0 316 139l159 -147q-178 -193 -469 -193q-172 0 -307 74.5t-207.5 200.5t-72.5 280q0 114 43.5 216.5t118.5 177t181.5 118t227.5 43.5q158 0 285 -72.5t196.5 -194t69.5 -267.5q0 -51 -10 -96zM643 885
q-110 0 -200.5 -66.5t-123.5 -171.5h630q-28 105 -111 171.5t-195 66.5zM502 1372q0 57 39 96t96 39t96 -39t39 -96t-39 -96t-96 -39t-96 39t-39 96z" />
    <glyph glyph-name="Eogonek" unicode="&#x118;" horiz-adv-x="1167" 
d="M164 0v1434h872v-209h-630v-400h581v-209h-581v-407h649v-209h-181q-161 -134 -161 -227q0 -42 28 -69.5t70 -27.5q43 0 76 23l51 -121q-70 -47 -168 -47q-100 0 -167.5 61t-67.5 152q0 138 172 256h-543z" />
    <glyph glyph-name="eogonek" unicode="&#x119;" horiz-adv-x="1265" 
d="M1184 455h-875q20 -122 117 -200.5t227 -78.5q180 0 316 139l159 -147q-150 -162 -380 -186q-138 -121 -138 -209q0 -42 28.5 -69.5t70.5 -27.5t75 23l52 -121q-70 -47 -168 -47q-100 0 -168 61t-68 152q0 125 143 238q-227 26 -365 179t-138 369q0 114 43.5 216.5
t118.5 177t181.5 118t227.5 43.5q158 0 285 -72.5t196.5 -194t69.5 -267.5q0 -51 -10 -96zM643 885q-110 0 -201 -67t-123 -171h629q-29 104 -111.5 171t-193.5 67z" />
    <glyph glyph-name="Ecaron" unicode="&#x11a;" horiz-adv-x="1167" 
d="M164 0v1434h872v-209h-630v-400h581v-209h-581v-407h649v-209h-891zM981 1894l-299 -350h-160l-299 350h228l151 -174l152 174h227z" />
    <glyph glyph-name="ecaron" unicode="&#x11b;" horiz-adv-x="1265" 
d="M1184 455h-874q20 -122 116 -200.5t227 -78.5q180 0 316 139l159 -147q-178 -193 -469 -193q-172 0 -307 74.5t-207.5 200.5t-72.5 280q0 114 43.5 216.5t118.5 177t181.5 118t227.5 43.5q158 0 285 -72.5t196.5 -194t69.5 -267.5q0 -51 -10 -96zM643 885
q-110 0 -200.5 -66.5t-123.5 -171.5h630q-28 105 -111 171.5t-195 66.5zM1016 1542l-299 -350h-160l-299 350h227l152 -174l151 174h228z" />
    <glyph glyph-name="Gcircumflex" unicode="&#x11c;" horiz-adv-x="1484" 
d="M846 1245q-143 0 -261.5 -69t-187.5 -190.5t-69 -268.5t69 -268.5t187.5 -191t261.5 -69.5q68 0 139 19.5t125 52.5v309h-348v209h590v-622q-99 -85 -230 -133t-276 -48q-159 0 -301 57.5t-243.5 156.5t-160.5 236.5t-59 291.5t59 291.5t160.5 236t243.5 156t301 57.5
q269 0 481 -160l-121 -182q-96 64 -178 96.5t-182 32.5zM866 1894l299 -350h-227l-152 174l-151 -174h-227l299 350h159z" />
    <glyph glyph-name="gcircumflex" unicode="&#x11d;" horiz-adv-x="1343" 
d="M655 184q102 0 186 52t126 139v309q-42 87 -126 140t-186 53q-146 0 -246 -100.5t-100 -246.5t100 -246t246 -100zM1200 1061v-1004q0 -246 -143 -389t-416 -143q-150 0 -277.5 56.5t-216.5 158.5l154 149q149 -163 338 -163q151 0 239.5 83t88.5 232v74
q-140 -140 -353 -140q-154 0 -279 76t-194 202.5t-69 276.5t69 276.5t194 202.5t279 76q214 0 353 -139v115h233zM735 1563l299 -351h-227l-152 174l-151 -174h-228l299 351h160z" />
    <glyph glyph-name="Gbreve" unicode="&#x11e;" horiz-adv-x="1484" 
d="M846 1245q-143 0 -261.5 -69t-187.5 -190.5t-69 -268.5t69 -268.5t187.5 -191t261.5 -69.5q68 0 139 19.5t125 52.5v309h-348v209h590v-622q-99 -85 -230 -133t-276 -48q-159 0 -301 57.5t-243.5 156.5t-160.5 236.5t-59 291.5t59 291.5t160.5 236t243.5 156t301 57.5
q269 0 481 -160l-121 -182q-96 64 -178 96.5t-182 32.5zM786 1524q-137 0 -238 91t-108 230h205q1 -64 41.5 -106.5t99.5 -42.5t100 42.5t42 106.5h205q-7 -139 -108.5 -230t-238.5 -91z" />
    <glyph glyph-name="gbreve" unicode="&#x11f;" horiz-adv-x="1343" 
d="M655 184q102 0 186 52t126 139v309q-42 87 -126 140t-186 53q-146 0 -246 -100.5t-100 -246.5t100 -246t246 -100zM1200 1061v-1004q0 -246 -143 -389t-416 -143q-150 0 -277.5 56.5t-216.5 158.5l154 149q149 -163 338 -163q151 0 239.5 83t88.5 232v74
q-140 -140 -353 -140q-154 0 -279 76t-194 202.5t-69 276.5t69 276.5t194 202.5t279 76q214 0 353 -139v115h233zM645 1192q-137 0 -238 91t-108 230h205q1 -64 41.5 -106.5t99.5 -42.5t99.5 42.5t41.5 106.5h205q-7 -139 -108 -230t-238 -91z" />
    <glyph glyph-name="Gdotaccent" unicode="&#x120;" horiz-adv-x="1484" 
d="M846 1245q-143 0 -261.5 -69t-187.5 -190.5t-69 -268.5t69 -268.5t187.5 -191t261.5 -69.5q68 0 139 19.5t125 52.5v309h-348v209h590v-622q-99 -85 -230 -133t-276 -48q-159 0 -301 57.5t-243.5 156.5t-160.5 236.5t-59 291.5t59 291.5t160.5 236t243.5 156t301 57.5
q269 0 481 -160l-121 -182q-96 64 -178 96.5t-182 32.5zM651 1704q0 57 39 96t96 39t96.5 -39t39.5 -96t-39.5 -96t-96.5 -39t-96 39t-39 96z" />
    <glyph glyph-name="gdotaccent" unicode="&#x121;" horiz-adv-x="1343" 
d="M655 184q102 0 186 52t126 139v309q-42 87 -126 140t-186 53q-146 0 -246 -100.5t-100 -246.5t100 -246t246 -100zM1200 1061v-1004q0 -246 -143 -389t-416 -143q-150 0 -277.5 56.5t-216.5 158.5l154 149q149 -163 338 -163q151 0 239.5 83t88.5 232v74
q-140 -140 -353 -140q-154 0 -279 76t-194 202.5t-69 276.5t69 276.5t194 202.5t279 76q214 0 353 -139v115h233zM500 1372q0 57 39 96t96 39t96 -39t39 -96t-39 -96t-96 -39t-96 39t-39 96z" />
    <glyph glyph-name="Gcommaaccent" unicode="&#x122;" horiz-adv-x="1484" 
d="M846 1245q-143 0 -261.5 -69t-187.5 -190.5t-69 -268.5t69 -268.5t187.5 -191t261.5 -69.5q68 0 139 19.5t125 52.5v309h-348v209h590v-622q-99 -85 -230 -133t-276 -48q-159 0 -301 57.5t-243.5 156.5t-160.5 236.5t-59 291.5t59 291.5t160.5 236t243.5 156t301 57.5
q269 0 481 -160l-121 -182q-96 64 -178 96.5t-182 32.5zM788 -481h-209l157 350h235z" />
    <glyph glyph-name="gcommaaccent" unicode="&#x123;" horiz-adv-x="1343" 
d="M655 184q102 0 186 52t126 139v309q-42 87 -126 140t-186 53q-146 0 -246 -100.5t-100 -246.5t100 -246t246 -100zM1200 1061v-1004q0 -246 -143 -389t-416 -143q-150 0 -277.5 56.5t-216.5 158.5l154 149q149 -163 338 -163q151 0 239.5 83t88.5 232v74
q-140 -140 -353 -140q-154 0 -279 76t-194 202.5t-69 276.5t69 276.5t194 202.5t279 76q214 0 353 -139v115h233zM694 1550h210l-158 -350h-234z" />
    <glyph glyph-name="Hcircumflex" unicode="&#x124;" horiz-adv-x="1441" 
d="M801 1894l299 -350h-228l-151 174l-152 -174h-227l299 350h160zM164 0v1434h242v-609h630v609h242v-1434h-242v616h-630v-616h-242z" />
    <glyph glyph-name="hcircumflex" unicode="&#x125;" horiz-adv-x="1249" 
d="M377 705v-705h-234v1495h234v-557q60 67 144.5 107t172.5 40q193 0 312.5 -121.5t119.5 -320.5v-643h-233v631q0 108 -68 177t-176 69q-75 0 -150.5 -51t-121.5 -121zM340 1956l299 -350h-227l-152 174l-151 -174h-228l299 350h160z" />
    <glyph glyph-name="Hbar" unicode="&#x126;" horiz-adv-x="1462" 
d="M174 0v1057h-123v176h123v201h242v-201h631v201h241v-201h123v-176h-123v-1057h-241v616h-631v-616h-242zM416 825h631v232h-631v-232z" />
    <glyph glyph-name="hbar" unicode="&#x127;" horiz-adv-x="1269" 
d="M20 1188v155h144v152h233v-152h330v-155h-330v-250q60 66 145 106.5t173 40.5q193 0 312.5 -121.5t119.5 -320.5v-643h-234v631q0 108 -67.5 177t-175.5 69q-75 0 -151 -51t-122 -121v-705h-233v1188h-144z" />
    <glyph glyph-name="Itilde" unicode="&#x128;" horiz-adv-x="589" 
d="M174 1434h242v-1434h-242v1434zM309 1604q-76 41 -106 41q-49 0 -66 -79l-197 40q23 112 71 167.5t126 55.5q63 0 144 -47q76 -41 106 -41q49 0 66 79l197 -40q-23 -112 -71 -168t-126 -56q-61 0 -144 48z" />
    <glyph glyph-name="itilde" unicode="&#x129;" horiz-adv-x="540" 
d="M154 0v1061h233v-1061h-233zM285 1272q-76 41 -107 41q-48 0 -65 -79l-198 40q23 112 71.5 167.5t126.5 55.5q62 0 143 -47q76 -41 106 -41q49 0 66 79l198 -40q-23 -112 -71.5 -167.5t-126.5 -55.5q-62 0 -143 47z" />
    <glyph glyph-name="Imacron" unicode="&#x12a;" horiz-adv-x="589" 
d="M174 1434h242v-1434h-242v1434zM-12 1608v180h614v-180h-614z" />
    <glyph glyph-name="imacron" unicode="&#x12b;" horiz-adv-x="540" 
d="M154 0v1061h233v-1061h-233zM-37 1276v180h615v-180h-615z" />
    <glyph glyph-name="Ibreve" unicode="&#x12c;" horiz-adv-x="589" 
d="M174 1434h242v-1434h-242v1434zM295 1524q-137 0 -238 91t-108 230h205q1 -64 41.5 -106.5t99.5 -42.5t99.5 42.5t41.5 106.5h205q-7 -139 -108 -230t-238 -91z" />
    <glyph glyph-name="ibreve" unicode="&#x12d;" horiz-adv-x="540" 
d="M154 0v1061h233v-1061h-233zM270 1192q-137 0 -238 91t-108 230h205q1 -64 41.5 -106.5t99.5 -42.5t100 42.5t42 106.5h204q-7 -139 -108 -230t-238 -91z" />
    <glyph glyph-name="Iogonek" unicode="&#x12e;" horiz-adv-x="589" 
d="M248 0h-74v1434h242v-1434q-162 -134 -162 -227q0 -42 28 -69.5t70 -27.5q43 0 76 23l51 -121q-70 -47 -168 -47q-100 0 -167.5 61t-67.5 152q0 138 172 256z" />
    <glyph glyph-name="iogonek" unicode="&#x12f;" horiz-adv-x="540" 
d="M154 0v1061h233v-1061q-162 -134 -162 -227q0 -42 28.5 -69.5t70.5 -27.5t75 23l52 -121q-70 -47 -168 -47q-100 0 -168 61t-68 152q0 138 172 256h-65zM125 1350q0 62 41.5 103.5t103.5 41.5t104 -42t42 -103q0 -62 -42 -104t-104 -42q-61 0 -103 42t-42 104z" />
    <glyph glyph-name="Idotaccent" unicode="&#x130;" horiz-adv-x="589" 
d="M174 1434h242v-1434h-242v1434zM160 1704q0 57 39 96t96 39t96 -39t39 -96t-39 -96t-96 -39t-96 39t-39 96z" />
    <glyph glyph-name="dotlessi" unicode="&#x131;" horiz-adv-x="540" 
d="M154 0v1061h233v-1061h-233z" />
    <glyph glyph-name="IJ" unicode="&#x132;" horiz-adv-x="1495" 
d="M174 1434h242v-1434h-242v1434zM1100 457v977h241v-977q0 -249 -116 -365.5t-348 -116.5q-74 0 -153 19t-134 51l78 203q100 -60 204 -60q113 0 170.5 63.5t57.5 205.5z" />
    <glyph glyph-name="ij" unicode="&#x133;" horiz-adv-x="1081" 
d="M154 0v1061h233v-1061h-233zM125 1350q0 62 41.5 103.5t103.5 41.5t104 -42t42 -103q0 -62 -42 -104t-104 -42q-61 0 -103 42t-42 104zM666 1350q0 62 42 103.5t103 41.5t103 -41.5t42 -103.5t-42 -104t-103 -42t-103 42t-42 104zM694 -111v1172h234v-1167
q0 -198 -81 -283.5t-265 -85.5q-46 0 -82 4v201h53q74 0 107.5 35.5t33.5 123.5z" />
    <glyph glyph-name="Jcircumflex" unicode="&#x134;" horiz-adv-x="946" 
d="M551 457v977h242v-977q0 -249 -116.5 -365.5t-348.5 -116.5q-74 0 -153 19t-134 51l78 203q43 -26 99.5 -43t105.5 -17q113 0 170 63.5t57 205.5zM752 1894l299 -350h-228l-151 174l-152 -174h-227l299 350h160z" />
    <glyph glyph-name="jcircumflex" unicode="&#x135;" horiz-adv-x="540" 
d="M154 -111v1172h233v-1167q0 -198 -81 -283.5t-265 -85.5q-46 0 -82 4v201h53q74 0 108 35.5t34 123.5zM350 1563l299 -351h-227l-152 174l-151 -174h-228l299 351h160z" />
    <glyph glyph-name="Kcommaaccent" unicode="&#x136;" horiz-adv-x="1245" 
d="M406 1434v-609h87l406 609h275l-478 -709l559 -725h-282l-473 616h-94v-616h-242v1434h242zM623 -481h-210l157 350h235z" />
    <glyph glyph-name="kcommaaccent" unicode="&#x137;" horiz-adv-x="1064" 
d="M799 0l-322 489h-100v-489h-234v1495h234v-805h103l255 371h275l-338 -471l393 -590h-266zM504 -481h-210l158 350h234z" />
    <glyph glyph-name="kgreenlandic" unicode="&#x138;" horiz-adv-x="1064" 
d="M799 0l-322 489h-100v-489h-234v1061h234v-371h103l255 371h275l-338 -471l393 -590h-266z" />
    <glyph glyph-name="Lacute" unicode="&#x139;" horiz-adv-x="1054" 
d="M164 0v1434h242v-1225h608v-209h-850zM164 1544l278 350h235l-286 -350h-227z" />
    <glyph glyph-name="lacute" unicode="&#x13a;" horiz-adv-x="540" 
d="M154 0v1495h233v-1495h-233zM102 1606l279 350h234l-285 -350h-228z" />
    <glyph glyph-name="Lcommaaccent" unicode="&#x13b;" horiz-adv-x="1054" 
d="M164 0v1434h242v-1225h608v-209h-850zM561 -481h-210l158 350h234z" />
    <glyph glyph-name="lcommaaccent" unicode="&#x13c;" horiz-adv-x="540" 
d="M154 0v1495h233v-1495h-233zM229 -481h-210l158 350h235z" />
    <glyph glyph-name="Lcaron" unicode="&#x13d;" horiz-adv-x="1054" 
d="M164 0v1434h242v-1225h608v-209h-850zM641 1313q0 61 41.5 103t103.5 42t104 -42t42 -103q0 -29 -17 -68l-139 -301h-147l104 232q-41 15 -66.5 52t-25.5 85z" />
    <glyph glyph-name="lcaron" unicode="&#x13e;" horiz-adv-x="849" 
d="M154 0v1495h233v-1495h-233zM518 1374q0 62 42 104t104 42q61 0 103 -42t42 -104q0 -30 -16 -67l-140 -301h-147l104 231q-41 15 -66.5 52t-25.5 85z" />
    <glyph glyph-name="Ldot" unicode="&#x13f;" horiz-adv-x="1054" 
d="M164 0v1434h242v-1225h608v-209h-850zM616 770q0 57 39.5 96t96.5 39t96 -39t39 -96t-39 -96t-96 -39t-96.5 39t-39.5 96z" />
    <glyph glyph-name="ldot" unicode="&#x140;" horiz-adv-x="845" 
d="M154 0v1495h233v-1495h-233zM526 770q0 57 39.5 96t96.5 39t96 -39t39 -96t-39 -96t-96 -39t-96.5 39t-39.5 96z" />
    <glyph glyph-name="Lslash" unicode="&#x141;" horiz-adv-x="1085" 
d="M195 0v541l-144 -74v192l144 74v701h241v-577l357 183v-192l-357 -183v-456h608v-209h-849z" />
    <glyph glyph-name="lslash" unicode="&#x142;" horiz-adv-x="602" 
d="M582 831l-164 -82v-749h-234v631l-164 -82v176l164 82v688h234v-570l164 83v-177z" />
    <glyph glyph-name="Nacute" unicode="&#x143;" horiz-adv-x="1441" 
d="M164 0v1434h233l647 -1016v1016h234v-1434h-234l-647 1016v-1016h-233zM549 1544l278 350h235l-286 -350h-227z" />
    <glyph glyph-name="nacute" unicode="&#x144;" horiz-adv-x="1249" 
d="M377 705v-705h-234v1061h234v-123q60 67 144.5 107t172.5 40q193 0 312.5 -121.5t119.5 -320.5v-643h-233v631q0 108 -68 177t-176 69q-75 0 -150.5 -51t-121.5 -121zM464 1212l278 351h235l-286 -351h-227z" />
    <glyph glyph-name="Ncommaaccent" unicode="&#x145;" horiz-adv-x="1441" 
d="M164 0v1434h233l647 -1016v1016h234v-1434h-234l-647 1016v-1016h-233zM700 -481h-210l158 350h235z" />
    <glyph glyph-name="ncommaaccent" unicode="&#x146;" horiz-adv-x="1249" 
d="M377 705v-705h-234v1061h234v-123q60 67 144.5 107t172.5 40q193 0 312.5 -121.5t119.5 -320.5v-643h-233v631q0 108 -68 177t-176 69q-75 0 -150.5 -51t-121.5 -121zM606 -481h-210l158 350h234z" />
    <glyph glyph-name="Ncaron" unicode="&#x147;" horiz-adv-x="1441" 
d="M1100 1894l-299 -350h-160l-299 350h227l152 -174l151 174h228zM164 0v1434h233l647 -1016v1016h234v-1434h-234l-647 1016v-1016h-233z" />
    <glyph glyph-name="ncaron" unicode="&#x148;" horiz-adv-x="1249" 
d="M377 705v-705h-234v1061h234v-123q60 67 144.5 107t172.5 40q193 0 312.5 -121.5t119.5 -320.5v-643h-233v631q0 108 -68 177t-176 69q-75 0 -150.5 -51t-121.5 -121zM979 1542l-299 -350h-160l-299 350h228l151 -174l152 174h227z" />
    <glyph glyph-name="napostrophe" unicode="&#x149;" horiz-adv-x="1454" 
d="M582 705v-705h-234v1061h234v-123q60 67 144.5 107t172.5 40q193 0 312.5 -121.5t119.5 -320.5v-643h-233v631q0 108 -68 177t-176 69q-75 0 -150.5 -51t-121.5 -121zM61 1374q0 62 42.5 104t103.5 42t103 -42t42 -104q0 -30 -16 -67l-139 -301h-148l105 231
q-41 16 -67 52.5t-26 84.5z" />
    <glyph glyph-name="Eng" unicode="&#x14a;" horiz-adv-x="1441" 
d="M1044 -98v98l-647 1016v-1016h-233v1434h233l647 -1016v1016h234v-1534q0 -195 -97 -285t-304 -90q-67 0 -113 8v201q54 -4 92 -4q103 0 145.5 40.5t42.5 131.5z" />
    <glyph glyph-name="eng" unicode="&#x14b;" horiz-adv-x="1249" 
d="M893 -98v729q0 108 -68 177t-176 69q-75 0 -150.5 -51t-121.5 -121v-705h-234v1061h234v-123q60 67 144.5 107t172.5 40q193 0 312.5 -121.5t119.5 -320.5v-743q0 -195 -97 -285t-304 -90q-67 0 -113 8v201q40 -4 93 -4q103 0 145.5 40.5t42.5 131.5z" />
    <glyph glyph-name="Omacron" unicode="&#x14c;" horiz-adv-x="1691" 
d="M846 188q143 0 261.5 69.5t187.5 191t69 268.5t-69 268.5t-187.5 190.5t-261.5 69t-261.5 -69t-187.5 -190.5t-69 -268.5t69 -268.5t187.5 -191t261.5 -69.5zM846 1458q159 0 301 -57.5t243.5 -156t160.5 -236t59 -291.5t-59 -291.5t-160.5 -236.5t-243.5 -156.5
t-301 -57.5t-301 57.5t-243.5 156.5t-160.5 236.5t-59 291.5t59 291.5t160.5 236t243.5 156t301 57.5zM539 1608v180h614v-180h-614z" />
    <glyph glyph-name="omacron" unicode="&#x14d;" horiz-adv-x="1310" 
d="M348 1276v180h615v-180h-615zM655 184q146 0 246 100t100 246t-100 246.5t-246 100.5t-246 -100.5t-100 -246.5t100 -246t246 -100zM655 1085q124 0 233 -43.5t185.5 -118t121 -177t44.5 -216.5t-44.5 -216.5t-121 -177t-185.5 -118t-233 -43.5q-165 0 -299 74t-209 201
t-75 280t75 280t209 201t299 74z" />
    <glyph glyph-name="Obreve" unicode="&#x14e;" horiz-adv-x="1691" 
d="M846 1524q-137 0 -238 91t-108 230h205q1 -64 41.5 -106.5t99.5 -42.5t99.5 42.5t41.5 106.5h205q-7 -139 -108 -230t-238 -91zM846 188q143 0 261.5 69.5t187.5 191t69 268.5t-69 268.5t-187.5 190.5t-261.5 69t-261.5 -69t-187.5 -190.5t-69 -268.5t69 -268.5
t187.5 -191t261.5 -69.5zM846 1458q159 0 301 -57.5t243.5 -156t160.5 -236t59 -291.5t-59 -291.5t-160.5 -236.5t-243.5 -156.5t-301 -57.5t-301 57.5t-243.5 156.5t-160.5 236.5t-59 291.5t59 291.5t160.5 236t243.5 156t301 57.5z" />
    <glyph glyph-name="obreve" unicode="&#x14f;" horiz-adv-x="1310" 
d="M655 1192q-137 0 -238 91t-108 230h205q1 -64 41.5 -106.5t99.5 -42.5t100 42.5t42 106.5h204q-7 -139 -108 -230t-238 -91zM655 184q146 0 246 100t100 246t-100 246.5t-246 100.5t-246 -100.5t-100 -246.5t100 -246t246 -100zM655 1085q124 0 233 -43.5t185.5 -118
t121 -177t44.5 -216.5t-44.5 -216.5t-121 -177t-185.5 -118t-233 -43.5q-165 0 -299 74t-209 201t-75 280t75 280t209 201t299 74z" />
    <glyph glyph-name="Ohungarumlaut" unicode="&#x150;" horiz-adv-x="1691" 
d="M846 188q143 0 261.5 69.5t187.5 191t69 268.5t-69 268.5t-187.5 190.5t-261.5 69t-261.5 -69t-187.5 -190.5t-69 -268.5t69 -268.5t187.5 -191t261.5 -69.5zM846 1458q159 0 301 -57.5t243.5 -156t160.5 -236t59 -291.5t-59 -291.5t-160.5 -236.5t-243.5 -156.5
t-301 -57.5t-301 57.5t-243.5 156.5t-160.5 236.5t-59 291.5t59 291.5t160.5 236t243.5 156t301 57.5zM534 1544l278 350h235l-286 -350h-227zM871 1544l279 350h234l-285 -350h-228z" />
    <glyph glyph-name="ohungarumlaut" unicode="&#x151;" horiz-adv-x="1310" 
d="M655 184q146 0 246 100t100 246t-100 246.5t-246 100.5t-246 -100.5t-100 -246.5t100 -246t246 -100zM655 1085q124 0 233 -43.5t185.5 -118t121 -177t44.5 -216.5t-44.5 -216.5t-121 -177t-185.5 -118t-233 -43.5q-165 0 -299 74t-209 201t-75 280t75 280t209 201
t299 74zM321 1212l278 351h235l-286 -351h-227zM658 1212l279 351h234l-285 -351h-228z" />
    <glyph glyph-name="OE" unicode="&#x152;" horiz-adv-x="1849" 
d="M846 213h20v1008h-20q-144 0 -262.5 -65.5t-187 -181.5t-68.5 -257t68.5 -257t187 -181.5t262.5 -65.5zM1737 0h-891q-210 0 -385.5 94t-277 258.5t-101.5 364.5t101.5 364.5t277 258.5t385.5 94h872v-209h-610v-400h561v-209h-561v-407h629v-209z" />
    <glyph glyph-name="oe" unicode="&#x153;" horiz-adv-x="2197" 
d="M655 1085q143 0 266 -63t199 -170q72 104 194 168.5t261 64.5q158 0 285 -72.5t196.5 -194t69.5 -267.5q0 -51 -10 -96h-875q20 -122 117 -200.5t227 -78.5q180 0 316 139l159 -147q-178 -193 -469 -193q-150 0 -276 64t-197 168q-76 -107 -198 -169.5t-265 -62.5
q-165 0 -299 74t-209 201t-75 280t75 280t209 201t299 74zM655 184q146 0 246 100t100 246t-100 246.5t-246 100.5t-246 -100.5t-100 -246.5t100 -246t246 -100zM1575 885q-110 0 -201 -67t-123 -171h629q-29 104 -111.5 171t-193.5 67z" />
    <glyph glyph-name="Racute" unicode="&#x154;" horiz-adv-x="1243" 
d="M164 1434h483q230 0 363 -124t133 -333q0 -170 -90 -286t-252 -154l370 -537h-266l-357 520h-142v-520h-242v1434zM637 1225h-231v-496h231q126 0 193 66t67 182t-67 182t-193 66zM439 1544l279 350h234l-285 -350h-228z" />
    <glyph glyph-name="racute" unicode="&#x155;" horiz-adv-x="829" 
d="M657 877q-84 0 -156.5 -52.5t-123.5 -144.5v-680h-234v1061h234v-135q135 159 311 159q54 0 96 -20l-18 -207q-55 19 -109 19zM239 1212l278 351h235l-286 -351h-227z" />
    <glyph glyph-name="Rcommaaccent" unicode="&#x156;" horiz-adv-x="1243" 
d="M164 1434h483q230 0 363 -124t133 -333q0 -170 -90 -286t-252 -154l370 -537h-266l-357 520h-142v-520h-242v1434zM637 1225h-231v-496h231q126 0 193 66t67 182t-67 182t-193 66zM582 -481h-210l157 350h235z" />
    <glyph glyph-name="rcommaaccent" unicode="&#x157;" horiz-adv-x="829" 
d="M657 877q-84 0 -156.5 -52.5t-123.5 -144.5v-680h-234v1061h234v-135q135 159 311 159q54 0 96 -20l-18 -207q-55 19 -109 19zM219 -481h-210l158 350h234z" />
    <glyph glyph-name="Rcaron" unicode="&#x158;" horiz-adv-x="1243" 
d="M164 1434h483q230 0 363 -124t133 -333q0 -170 -90 -286t-252 -154l370 -537h-266l-357 520h-142v-520h-242v1434zM637 1225h-231v-496h231q126 0 193 66t67 182t-67 182t-193 66zM981 1894l-299 -350h-160l-299 350h228l151 -174l152 174h227z" />
    <glyph glyph-name="rcaron" unicode="&#x159;" horiz-adv-x="829" 
d="M657 877q-84 0 -156.5 -52.5t-123.5 -144.5v-680h-234v1061h234v-135q135 159 311 159q54 0 96 -20l-18 -207q-55 19 -109 19zM795 1542l-299 -350h-160l-299 350h227l152 -174l151 174h228z" />
    <glyph glyph-name="Sacute" unicode="&#x15a;" horiz-adv-x="1216" 
d="M100 207l152 164q75 -82 167 -132.5t189 -50.5q126 0 203.5 55.5t77.5 149.5q0 89 -70 150.5t-244 97.5q-223 47 -333.5 154t-110.5 266q0 178 130 287.5t337 109.5q284 0 463 -182l-143 -172q-155 141 -310 141q-101 0 -166 -46t-65 -122q0 -87 71 -144t230 -93
q245 -57 351 -166t106 -281q0 -187 -138.5 -302.5t-378.5 -115.5q-151 0 -289 61.5t-229 170.5zM450 1544l278 350h235l-286 -350h-227z" />
    <glyph glyph-name="sacute" unicode="&#x15b;" horiz-adv-x="964" 
d="M72 152l131 155q52 -60 123 -95.5t151 -35.5q85 0 133.5 34t48.5 93q0 57 -45 92t-157 58q-177 35 -261.5 117.5t-84.5 215.5q0 131 101.5 215t270.5 84q106 0 202 -39t165 -104l-125 -158q-64 51 -114.5 76t-108.5 25q-69 0 -113.5 -28.5t-44.5 -74.5q0 -106 188 -145
q187 -38 274 -120t87 -218q0 -142 -107 -233t-292 -91q-129 0 -240.5 47.5t-181.5 129.5zM310 1212l279 351h234l-285 -351h-228z" />
    <glyph glyph-name="Scircumflex" unicode="&#x15c;" horiz-adv-x="1216" 
d="M100 207l152 164q75 -82 167 -132.5t189 -50.5q126 0 203.5 55.5t77.5 149.5q0 89 -70 150.5t-244 97.5q-223 47 -333.5 154t-110.5 266q0 178 130 287.5t337 109.5q284 0 463 -182l-143 -172q-155 141 -310 141q-101 0 -166 -46t-65 -122q0 -87 71 -144t230 -93
q245 -57 351 -166t106 -281q0 -187 -138.5 -302.5t-378.5 -115.5q-151 0 -289 61.5t-229 170.5zM674 1894l299 -350h-228l-151 174l-152 -174h-227l299 350h160z" />
    <glyph glyph-name="scircumflex" unicode="&#x15d;" horiz-adv-x="964" 
d="M72 152l131 155q52 -60 123 -95.5t151 -35.5q85 0 133.5 34t48.5 93q0 57 -45 92t-157 58q-177 35 -261.5 117.5t-84.5 215.5q0 131 101.5 215t270.5 84q106 0 202 -39t165 -104l-125 -158q-64 51 -114.5 76t-108.5 25q-69 0 -113.5 -28.5t-44.5 -74.5q0 -106 188 -145
q187 -38 274 -120t87 -218q0 -142 -107 -233t-292 -91q-129 0 -240.5 47.5t-181.5 129.5zM551 1563l299 -351h-227l-152 174l-152 -174h-227l299 351h160z" />
    <glyph glyph-name="Scedilla" unicode="&#x15e;" horiz-adv-x="1216" 
d="M567 -221q-25 0 -57 -4l-41 45l84 160q-136 12 -255.5 71t-197.5 156l152 164q75 -82 167 -132.5t189 -50.5q126 0 203.5 55.5t77.5 149.5q0 89 -70 150.5t-244 97.5q-223 47 -333.5 154t-110.5 266q0 178 130 287.5t337 109.5q284 0 463 -182l-143 -172
q-155 141 -310 141q-101 0 -166 -46t-65 -122q0 -87 71 -144t230 -93q245 -57 351 -166t106 -281q0 -163 -107.5 -273t-296.5 -136l-57 -90q79 -22 126.5 -78t47.5 -127q0 -95 -76 -158t-192 -63q-115 0 -191 61l78 111q45 -33 100 -33q45 0 74 24.5t29 61.5t-29 61.5
t-74 24.5z" />
    <glyph glyph-name="scedilla" unicode="&#x15f;" horiz-adv-x="964" 
d="M430 -221q-25 0 -57 -4l-41 45l84 160q-105 12 -195 57.5t-149 114.5l131 155q52 -60 123 -95.5t151 -35.5q85 0 133.5 34t48.5 93q0 57 -45 92t-157 58q-177 35 -261.5 117.5t-84.5 215.5q0 131 101.5 215t270.5 84q106 0 202 -39t165 -104l-125 -158q-64 51 -114.5 76
t-108.5 25q-69 0 -113.5 -28.5t-44.5 -74.5q0 -106 188 -145q187 -38 274 -120t87 -218q0 -120 -79 -205.5t-218 -109.5l-59 -90q79 -22 126.5 -78t47.5 -127q0 -95 -76.5 -158t-192.5 -63q-114 0 -190 61l78 111q45 -33 100 -33q45 0 73.5 24.5t28.5 61.5t-28.5 61.5
t-73.5 24.5z" />
    <glyph glyph-name="Scaron" unicode="&#x160;" horiz-adv-x="1216" 
d="M100 207l152 164q75 -82 167 -132.5t189 -50.5q126 0 203.5 55.5t77.5 149.5q0 89 -70 150.5t-244 97.5q-223 47 -333.5 154t-110.5 266q0 178 130 287.5t337 109.5q284 0 463 -182l-143 -172q-155 141 -310 141q-101 0 -166 -46t-65 -122q0 -87 71 -144t230 -93
q245 -57 351 -166t106 -281q0 -187 -138.5 -302.5t-378.5 -115.5q-151 0 -289 61.5t-229 170.5zM973 1894l-299 -350h-160l-299 350h227l152 -174l151 174h228z" />
    <glyph glyph-name="scaron" unicode="&#x161;" horiz-adv-x="964" 
d="M72 152l131 155q52 -60 123 -95.5t151 -35.5q85 0 133.5 34t48.5 93q0 57 -45 92t-157 58q-177 35 -261.5 117.5t-84.5 215.5q0 131 101.5 215t270.5 84q106 0 202 -39t165 -104l-125 -158q-64 51 -114.5 76t-108.5 25q-69 0 -113.5 -28.5t-44.5 -74.5q0 -106 188 -145
q187 -38 274 -120t87 -218q0 -142 -107 -233t-292 -91q-129 0 -240.5 47.5t-181.5 129.5zM850 1542l-299 -350h-160l-299 350h227l152 -174l152 174h227z" />
    <glyph glyph-name="Tcommaaccent" unicode="&#x162;" horiz-adv-x="1134" 
d="M446 0v1225h-385v209h1012v-209h-385v-1225l-70 -106q79 -22 127 -78t48 -127q0 -95 -76.5 -158t-192.5 -63q-114 0 -190 61l78 111q45 -33 100 -33q45 0 73.5 24.5t28.5 61.5t-28.5 61.5t-73.5 24.5q-25 0 -57 -4l-41 45l96 180h-64z" />
    <glyph glyph-name="tcommaaccent" unicode="&#x163;" horiz-adv-x="786" 
d="M362 -221q-25 0 -57 -4l-41 45l109 205q-152 83 -152 325v506h-176v205h176v287l234 20v-307h268v-205h-268v-504q0 -91 42.5 -131.5t145.5 -40.5q52 0 92 4v-200q-52 -9 -112 -9q-46 0 -97 7l-57 -88q79 -22 126.5 -78t47.5 -127q0 -95 -76 -158t-192 -63
q-115 0 -191 61l78 111q45 -33 100 -33q45 0 74 24.5t29 61.5t-29 61.5t-74 24.5z" />
    <glyph glyph-name="Tcaron" unicode="&#x164;" horiz-adv-x="1134" 
d="M946 1894l-299 -350h-160l-299 350h228l151 -174l152 174h227zM446 0v1225h-385v209h1012v-209h-385v-1225h-242z" />
    <glyph glyph-name="tcaron" unicode="&#x165;" horiz-adv-x="1126" 
d="M455 856v-504q0 -91 42.5 -131.5t145.5 -40.5q52 0 92 4v-200q-52 -9 -112 -9q-208 0 -305 90t-97 285v506h-176v205h176v287l234 20v-307h268v-205h-268zM795 1374q0 62 42 104t103 42t103 -42t42 -104q0 -30 -16 -67l-139 -301h-148l105 231q-41 15 -66.5 52t-25.5 85z
" />
    <glyph glyph-name="Tbar" unicode="&#x166;" horiz-adv-x="1134" 
d="M946 629h-258v-629h-242v629h-258v176h258v420h-385v209h1012v-209h-385v-420h258v-176z" />
    <glyph glyph-name="tbar" unicode="&#x167;" horiz-adv-x="786" 
d="M68 471v156h153v229h-176v205h176v287l234 20v-307h268v-205h-268v-229h227v-156h-227v-119q0 -91 42.5 -131.5t145.5 -40.5q52 0 92 4v-200q-52 -9 -112 -9q-208 0 -305 90t-97 285v121h-153z" />
    <glyph glyph-name="Utilde" unicode="&#x168;" horiz-adv-x="1368" 
d="M698 1604q-76 41 -106 41q-49 0 -66 -79l-197 40q23 112 71 167.5t126 55.5q63 0 144 -47q76 -41 106 -41q49 0 66 79l197 -40q-23 -112 -71 -168t-126 -56q-61 0 -144 48zM1214 1434v-926q0 -119 -41.5 -219.5t-113.5 -168t-169 -105.5t-206 -38t-206 38t-169 105.5
t-113.5 168t-41.5 219.5v926h241v-955q0 -129 83 -209t206 -80t206 80t83 209v955h241z" />
    <glyph glyph-name="utilde" unicode="&#x169;" horiz-adv-x="1249" 
d="M872 356v705h234v-1061h-234v123q-61 -67 -145 -107.5t-172 -40.5q-193 0 -312.5 122t-119.5 321v643h233v-631q0 -108 68 -177t176 -69q75 0 150.5 51t121.5 121zM618 1272q-76 41 -106 41q-49 0 -66 -79l-197 40q23 112 71 167.5t126 55.5q63 0 144 -47q76 -41 106 -41
q49 0 66 79l197 -40q-23 -112 -71 -167.5t-126 -55.5q-63 0 -144 47z" />
    <glyph glyph-name="Umacron" unicode="&#x16a;" horiz-adv-x="1368" 
d="M377 1608v180h614v-180h-614zM1214 1434v-926q0 -119 -41.5 -219.5t-113.5 -168t-169 -105.5t-206 -38t-206 38t-169 105.5t-113.5 168t-41.5 219.5v926h241v-955q0 -129 83 -209t206 -80t206 80t83 209v955h241z" />
    <glyph glyph-name="umacron" unicode="&#x16b;" horiz-adv-x="1249" 
d="M872 356v705h234v-1061h-234v123q-61 -67 -145 -107.5t-172 -40.5q-193 0 -312.5 122t-119.5 321v643h233v-631q0 -108 68 -177t176 -69q75 0 150.5 51t121.5 121zM303 1276v180h615v-180h-615z" />
    <glyph glyph-name="Ubreve" unicode="&#x16c;" horiz-adv-x="1368" 
d="M684 1524q-137 0 -238 91t-108 230h205q1 -64 41.5 -106.5t99.5 -42.5t99.5 42.5t41.5 106.5h205q-7 -139 -108 -230t-238 -91zM1214 1434v-926q0 -119 -41.5 -219.5t-113.5 -168t-169 -105.5t-206 -38t-206 38t-169 105.5t-113.5 168t-41.5 219.5v926h241v-955
q0 -129 83 -209t206 -80t206 80t83 209v955h241z" />
    <glyph glyph-name="ubreve" unicode="&#x16d;" horiz-adv-x="1249" 
d="M872 356v705h234v-1061h-234v123q-61 -67 -145 -107.5t-172 -40.5q-193 0 -312.5 122t-119.5 321v643h233v-631q0 -108 68 -177t176 -69q75 0 150.5 51t121.5 121zM604 1192q-137 0 -238 91t-108 230h205q1 -64 41.5 -106.5t99.5 -42.5t99.5 42.5t41.5 106.5h205
q-7 -139 -108 -230t-238 -91z" />
    <glyph glyph-name="Uring" unicode="&#x16e;" horiz-adv-x="1368" 
d="M610 1726q0 -31 21 -51t53 -20t53 20t21 51t-21 51.5t-53 20.5t-53 -20.5t-21 -51.5zM463 1726q0 87 63 145t158 58t158 -58t63 -145q0 -86 -63 -144t-158 -58t-158 58t-63 144zM1214 1434v-926q0 -119 -41.5 -219.5t-113.5 -168t-169 -105.5t-206 -38t-206 38
t-169 105.5t-113.5 168t-41.5 219.5v926h241v-955q0 -129 83 -209t206 -80t206 80t83 209v955h241z" />
    <glyph glyph-name="uring" unicode="&#x16f;" horiz-adv-x="1249" 
d="M872 356v705h234v-1061h-234v123q-61 -67 -145 -107.5t-172 -40.5q-193 0 -312.5 122t-119.5 321v643h233v-631q0 -108 68 -177t176 -69q75 0 150.5 51t121.5 121zM520 1395q0 -31 21 -51.5t53 -20.5t53 20.5t21 51.5t-21 51t-53 20t-53 -20t-21 -51zM373 1395
q0 86 63 144t158 58t158 -58t63 -144q0 -87 -63 -145t-158 -58t-158 58t-63 145z" />
    <glyph glyph-name="Uhungarumlaut" unicode="&#x170;" horiz-adv-x="1368" 
d="M1214 1434v-926q0 -119 -41.5 -219.5t-113.5 -168t-169 -105.5t-206 -38t-206 38t-169 105.5t-113.5 168t-41.5 219.5v926h241v-955q0 -129 83 -209t206 -80t206 80t83 209v955h241zM382 1544l278 350h235l-286 -350h-227zM720 1544l278 350h235l-286 -350h-227z" />
    <glyph glyph-name="uhungarumlaut" unicode="&#x171;" horiz-adv-x="1249" 
d="M872 356v705h234v-1061h-234v123q-61 -67 -145 -107.5t-172 -40.5q-193 0 -312.5 122t-119.5 321v643h233v-631q0 -108 68 -177t176 -69q75 0 150.5 51t121.5 121zM290 1212l278 351h235l-286 -351h-227zM628 1212l278 351h235l-286 -351h-227z" />
    <glyph glyph-name="Uogonek" unicode="&#x172;" horiz-adv-x="1368" 
d="M1214 1434v-926q0 -201 -112.5 -339.5t-290.5 -176.5q-149 -129 -149 -219q0 -42 28 -69.5t70 -27.5q43 0 76 23l51 -121q-70 -47 -168 -47q-100 0 -168 61t-68 152q0 125 144 236q-205 19 -339 162.5t-134 365.5v926h241v-955q0 -129 83 -209t206 -80t206 80t83 209v955
h241z" />
    <glyph glyph-name="uogonek" unicode="&#x173;" horiz-adv-x="1249" 
d="M872 0v123q-61 -67 -145 -107.5t-172 -40.5q-193 0 -312.5 122t-119.5 321v643h233v-631q0 -108 68 -177t176 -69q75 0 150.5 51t121.5 121v705h234v-1061q-162 -134 -162 -227q0 -42 28 -69.5t70 -27.5q43 0 76 23l51 -121q-70 -47 -168 -47q-100 0 -167.5 61t-67.5 152
q0 138 172 256h-66z" />
    <glyph glyph-name="Wcircumflex" unicode="&#x174;" horiz-adv-x="2007" 
d="M885 1434h237l310 -1080l280 1080h254l-407 -1434h-238l-317 1102l-318 -1102h-237l-408 1434h254l280 -1080zM1083 1894l299 -350h-227l-151 174l-152 -174h-227l299 350h159z" />
    <glyph glyph-name="wcircumflex" unicode="&#x175;" horiz-adv-x="1613" 
d="M686 1061h242l211 -756l213 756h241l-331 -1061h-242l-213 762l-213 -762h-242l-332 1061h242l213 -756zM887 1563l299 -351h-228l-151 174l-152 -174h-227l299 351h160z" />
    <glyph glyph-name="Ycircumflex" unicode="&#x176;" horiz-adv-x="1323" 
d="M299 1434l363 -611l362 611h258l-500 -846v-588h-241v588l-500 846h258zM741 1894l299 -350h-227l-151 174l-152 -174h-227l299 350h159z" />
    <glyph glyph-name="ycircumflex" unicode="&#x177;" horiz-adv-x="1081" 
d="M240 -475l180 475l-400 1061h242l277 -766l280 766h242l-580 -1536h-241zM618 1563l300 -351h-228l-151 174l-152 -174h-227l299 351h159z" />
    <glyph glyph-name="Ydieresis" unicode="&#x178;" horiz-adv-x="1323" 
d="M299 1434l363 -611l362 611h258l-500 -846v-588h-241v588l-500 846h258zM338 1704q0 57 39 96t96 39t96 -39t39 -96t-39 -96t-96 -39t-96 39t-39 96zM715 1704q0 57 39 96t96 39t96 -39t39 -96t-39 -96t-96 -39t-96 39t-39 96z" />
    <glyph glyph-name="Zacute" unicode="&#x179;" horiz-adv-x="1243" 
d="M123 209l696 1016h-665v209h956v-209l-696 -1016h716v-209h-1007v209zM431 1544l279 350h234l-286 -350h-227z" />
    <glyph glyph-name="zacute" unicode="&#x17a;" horiz-adv-x="1046" 
d="M98 0v205l545 651h-518v205h799v-205l-545 -651h565v-205h-846zM333 1212l278 351h235l-286 -351h-227z" />
    <glyph glyph-name="Zdotaccent" unicode="&#x17b;" horiz-adv-x="1243" 
d="M123 209l696 1016h-665v209h956v-209l-696 -1016h716v-209h-1007v209zM487 1704q0 57 39.5 96t96.5 39t96 -39t39 -96t-39 -96t-96 -39t-96.5 39t-39.5 96z" />
    <glyph glyph-name="zdotaccent" unicode="&#x17c;" horiz-adv-x="1046" 
d="M98 0v205l545 651h-518v205h799v-205l-545 -651h565v-205h-846zM389 1372q0 57 39 96t96 39t96 -39t39 -96t-39 -96t-96 -39t-96 39t-39 96z" />
    <glyph glyph-name="Zcaron" unicode="&#x17d;" horiz-adv-x="1243" 
d="M123 209l696 1016h-665v209h956v-209l-696 -1016h716v-209h-1007v209zM1001 1894l-299 -350h-159l-299 350h227l152 -174l151 174h227z" />
    <glyph glyph-name="zcaron" unicode="&#x17e;" horiz-adv-x="1046" 
d="M98 0v205l545 651h-518v205h799v-205l-545 -651h565v-205h-846zM891 1542l-299 -350h-160l-299 350h227l152 -174l152 174h227z" />
    <glyph glyph-name="longs" unicode="&#x17f;" horiz-adv-x="772" 
d="M727 1487v-201q-40 4 -92 4q-103 0 -146 -40.5t-43 -131.5v-1118h-233v856h-168v205h168v59q0 195 97 285t304 90q67 0 113 -8z" />
    <glyph glyph-name="uni0191" unicode="&#x191;" horiz-adv-x="1097" 
d="M406 616v-716q0 -191 -97 -283t-297 -92q-54 0 -108 8v201q40 -4 84 -4q94 0 135 41t41 131v1532h852v-209h-610v-400h561v-209h-561z" />
    <glyph glyph-name="florin" unicode="&#x192;" horiz-adv-x="772" 
d="M446 856v-956q0 -195 -97 -285t-304 -90q-67 0 -113 8v201q40 -4 93 -4q103 0 145.5 40.5t42.5 131.5v954h-168v205h168v59q0 195 97 285t304 90q67 0 113 -8v-201q-40 4 -92 4q-103 0 -146 -40.5t-43 -131.5v-57h281v-205h-281z" />
    <glyph glyph-name="Aringacute" unicode="&#x1fa;" horiz-adv-x="1409" 
d="M483 1505q0 86 63.5 144.5t158.5 58.5t158 -58t63 -145q0 -83 -61 -142l503 -1363h-262l-119 346h-565l-119 -346h-262l503 1363q-61 59 -61 142zM705 1169l-211 -614h421zM798 1749h-224l194 248h232zM631 1505q0 -29 18.5 -49t48.5 -22h7q32 0 52.5 20t20.5 51
t-20.5 51.5t-52.5 20.5t-53 -20.5t-21 -51.5z" />
    <glyph glyph-name="aringacute" unicode="&#x1fb;" horiz-adv-x="1343" 
d="M655 184q102 0 186 52t126 139v309q-42 87 -126 140t-186 53q-146 0 -246 -100.5t-100 -246.5t100 -246t246 -100zM614 1085q214 0 353 -139v115h233v-1061h-233v115q-140 -140 -353 -140q-154 0 -279 76t-194 202.5t-69 276.5t69 276.5t194 202.5t279 76zM573 1362
q0 -31 21 -51.5t53 -20.5t53 20.5t21 51.5t-21 51.5t-53 20.5t-53 -20.5t-21 -51.5zM426 1362q0 87 63 145t158 58t158 -58t63 -145t-63 -145t-158 -58t-158 58t-63 145zM736 1606h-223l210 268h232z" />
    <glyph glyph-name="AEacute" unicode="&#x1fc;" horiz-adv-x="1894" 
d="M274 0h-274l811 1434h952v-209h-610v-400h561v-209h-561v-407h629v-209h-871v346h-447zM911 1159l-332 -604h332v604zM777 1544l279 350h234l-285 -350h-228z" />
    <glyph glyph-name="aeacute" unicode="&#x1fd;" horiz-adv-x="2082" 
d="M2001 455h-874q20 -122 116 -200.5t227 -78.5q180 0 316 139l160 -147q-178 -193 -469 -193q-142 0 -261.5 54.5t-193.5 146.5q-70 -92 -185.5 -146.5t-252.5 -54.5q-220 0 -366 102.5t-146 254.5q0 143 140.5 239.5t340.5 96.5q94 0 185.5 -24t150.5 -62v47
q0 107 -88 181.5t-223 74.5q-91 0 -181.5 -35t-158.5 -92l-88 176q90 72 202.5 111.5t231.5 39.5q139 0 255 -54.5t184 -147.5q72 94 187.5 148t249.5 54q158 0 285 -72.5t196.5 -194t69.5 -267.5q0 -51 -10 -96zM305 332q0 -66 82 -111t209 -45q209 0 291 125v101
q-110 85 -291 85q-127 0 -209 -45t-82 -110zM1460 885q-110 0 -200 -66.5t-123 -171.5h629q-28 105 -111 171.5t-195 66.5zM858 1212l279 351h234l-286 -351h-227z" />
    <glyph glyph-name="Oslashacute" unicode="&#x1fe;" horiz-adv-x="1691" 
d="M846 1458q208 0 387 -98l106 135h211l-182 -231q114 -102 178 -243.5t64 -303.5q0 -154 -59 -291.5t-160.5 -236.5t-243.5 -156.5t-301 -57.5q-226 0 -408 109l-114 -145h-211l193 245q-106 102 -165 239.5t-59 293.5q0 154 59 291.5t160.5 236t243.5 156t301 57.5z
M846 188q143 0 261.5 69.5t187.5 191t69 268.5q0 213 -140 364l-645 -820q124 -73 267 -73zM328 717q0 -202 124 -347l641 813q-113 62 -247 62q-143 0 -261.5 -69t-187.5 -190.5t-69 -268.5zM675 1544l278 350h235l-286 -350h-227z" />
    <glyph glyph-name="oslashacute" unicode="&#x1ff;" horiz-adv-x="1310" 
d="M1020 1122h203l-154 -194q81 -76 125.5 -179t44.5 -219q0 -114 -44.5 -216.5t-121 -177t-185.5 -118t-233 -43.5q-152 0 -284 67l-82 -103h-203l155 195q-80 76 -124.5 178t-44.5 218q0 153 75 280t209 201t299 74q154 0 283 -66zM655 184q146 0 246 100t100 246
q0 125 -74 218l-419 -532q70 -32 147 -32zM309 530q0 -124 73 -216l419 531q-70 32 -146 32q-146 0 -246 -100.5t-100 -246.5zM492 1212l278 351h235l-286 -351h-227z" />
    <glyph glyph-name="Scommaaccent" unicode="&#x218;" horiz-adv-x="1216" 
d="M100 207l152 164q75 -82 167 -132.5t189 -50.5q126 0 203.5 55.5t77.5 149.5q0 89 -70 150.5t-244 97.5q-223 47 -333.5 154t-110.5 266q0 178 130 287.5t337 109.5q284 0 463 -182l-143 -172q-155 141 -310 141q-101 0 -166 -46t-65 -122q0 -87 71 -144t230 -93
q245 -57 351 -166t106 -281q0 -187 -138.5 -302.5t-378.5 -115.5q-151 0 -289 61.5t-229 170.5zM604 -481h-210l158 350h234z" />
    <glyph glyph-name="scommaaccent" unicode="&#x219;" horiz-adv-x="964" 
d="M72 152l131 155q52 -60 123 -95.5t151 -35.5q85 0 133.5 34t48.5 93q0 57 -45 92t-157 58q-177 35 -261.5 117.5t-84.5 215.5q0 131 101.5 215t270.5 84q106 0 202 -39t165 -104l-125 -158q-64 51 -114.5 76t-108.5 25q-69 0 -113.5 -28.5t-44.5 -74.5q0 -106 188 -145
q187 -38 274 -120t87 -218q0 -142 -107 -233t-292 -91q-129 0 -240.5 47.5t-181.5 129.5zM463 -481h-210l158 350h234z" />
    <glyph glyph-name="uni021A" unicode="&#x21a;" horiz-adv-x="1134" 
d="M446 0v1225h-385v209h1012v-209h-385v-1225h-242zM543 -481h-210l157 350h235z" />
    <glyph glyph-name="uni021B" unicode="&#x21b;" horiz-adv-x="786" 
d="M455 856v-504q0 -91 42.5 -131.5t145.5 -40.5q52 0 92 4v-200q-52 -9 -112 -9q-208 0 -305 90t-97 285v506h-176v205h176v287l234 20v-307h268v-205h-268zM381 -481h-210l158 350h234z" />
    <glyph glyph-name="dotlessj" unicode="&#x237;" horiz-adv-x="540" 
d="M154 -111v1172h233v-1167q0 -198 -81 -283.5t-265 -85.5q-46 0 -82 4v201h53q74 0 108 35.5t34 123.5z" />
    <glyph glyph-name="apostrophe" unicode="&#x2bc;" horiz-adv-x="860" 
d="M291 1374q0 62 42 104t103 42q62 0 104 -42t42 -104q0 -28 -17 -67l-139 -301h-147l104 231q-41 15 -66.5 52t-25.5 85z" />
    <glyph glyph-name="circumflex" unicode="&#x2c6;" horiz-adv-x="860" 
d="M510 1495l299 -350h-227l-152 174l-151 -174h-228l299 350h160z" />
    <glyph glyph-name="caron" unicode="&#x2c7;" horiz-adv-x="860" 
d="M809 1495l-299 -350h-160l-299 350h228l151 -174l152 174h227z" />
    <glyph glyph-name="uni02C9" unicode="&#x2c9;" horiz-adv-x="860" 
d="M123 1229v180h614v-180h-614z" />
    <glyph glyph-name="breve" unicode="&#x2d8;" horiz-adv-x="860" 
d="M430 1153q-137 0 -238 91.5t-108 230.5h205q1 -64 41.5 -107t99.5 -43t99.5 43t41.5 107h205q-7 -139 -108 -230.5t-238 -91.5z" />
    <glyph glyph-name="dotaccent" unicode="&#x2d9;" horiz-adv-x="860" 
d="M295 1323q0 57 39 96t96 39t96 -39t39 -96t-39 -96t-96 -39t-96 39t-39 96z" />
    <glyph glyph-name="ring" unicode="&#x2da;" horiz-adv-x="860" 
d="M356 1317q0 -31 21 -51.5t53 -20.5t53 20.5t21 51.5t-21 51.5t-53 20.5t-53 -20.5t-21 -51.5zM209 1317q0 87 63 145t158 58t158 -58t63 -145t-63 -145t-158 -58t-158 58t-63 145z" />
    <glyph glyph-name="ogonek" unicode="&#x2db;" horiz-adv-x="860" 
d="M412 0h168q-162 -134 -162 -227q0 -42 28 -69.5t70 -27.5q43 0 76 23l51 -121q-70 -47 -168 -47q-100 0 -167.5 61t-67.5 152q0 138 172 256z" />
    <glyph glyph-name="tilde" unicode="&#x2dc;" horiz-adv-x="860" 
d="M444 1225q-76 41 -106 41q-49 0 -66 -79l-197 40q23 112 71 167.5t126 55.5q63 0 144 -47q76 -41 106 -41q49 0 66 79l197 -40q-23 -112 -71 -167.5t-126 -55.5q-63 0 -144 47z" />
    <glyph glyph-name="hungarumlaut" unicode="&#x2dd;" horiz-adv-x="860" 
d="M60 1145l279 350h234l-285 -350h-228zM398 1145l279 350h234l-285 -350h-228z" />
    <glyph glyph-name="gravecomb" unicode="&#x300;" horiz-adv-x="0" 
d="M-513 1495l279 -350h-228l-286 350h235z" />
    <glyph glyph-name="acutecomb" unicode="&#x301;" horiz-adv-x="0" 
d="M-626 1145l279 350h234l-285 -350h-228z" />
    <glyph glyph-name="uni0302" unicode="&#x302;" horiz-adv-x="0" 
d="M-350 1495l299 -350h-228l-151 174l-152 -174h-227l299 350h160z" />
    <glyph glyph-name="tildecomb" unicode="&#x303;" horiz-adv-x="0" 
d="M-416 1225q-76 41 -106 41q-49 0 -66 -79l-197 40q23 112 71 167.5t126 55.5q63 0 144 -47q76 -41 106 -41q49 0 66 79l197 -40q-23 -112 -71 -167.5t-126 -55.5q-63 0 -144 47z" />
    <glyph glyph-name="uni0304" unicode="&#x304;" horiz-adv-x="0" 
d="M-737 1231v180h614v-180h-614z" />
    <glyph glyph-name="uni0306" unicode="&#x306;" horiz-adv-x="0" 
d="M-430 1153q-137 0 -238 91.5t-108 230.5h205q1 -64 41.5 -107t99.5 -43t99.5 43t41.5 107h205q-7 -139 -108 -230.5t-238 -91.5z" />
    <glyph glyph-name="uni0307" unicode="&#x307;" horiz-adv-x="0" 
d="M-565 1323q0 57 39 96t96 39t96 -39t39 -96t-39 -96t-96 -39t-96 39t-39 96z" />
    <glyph glyph-name="uni0308" unicode="&#x308;" horiz-adv-x="0" 
d="M-754 1323q0 57 39.5 96t96.5 39t96 -39t39 -96t-39 -96t-96 -39t-96.5 39t-39.5 96zM-377 1323q0 57 39 96t96 39t96.5 -39t39.5 -96t-39.5 -96t-96.5 -39t-96 39t-39 96z" />
    <glyph glyph-name="uni030A" unicode="&#x30a;" horiz-adv-x="0" 
d="M-504 1317q0 -31 21 -51.5t53 -20.5t53 20.5t21 51.5t-21 51.5t-53 20.5t-53 -20.5t-21 -51.5zM-651 1317q0 87 63 145t158 58t158 -58t63 -145t-63 -145t-158 -58t-158 58t-63 145z" />
    <glyph glyph-name="uni030C" unicode="&#x30c;" horiz-adv-x="0" 
d="M-51 1495l-299 -350h-160l-299 350h227l152 -174l151 174h228z" />
    <glyph glyph-name="uni0327" unicode="&#x327;" horiz-adv-x="0" 
d="M-475 -221q-25 0 -57 -4l-41 45l96 180h178l-70 -106q79 -22 126.5 -78t47.5 -127q0 -95 -76 -158t-192 -63q-114 0 -190 61l78 111q45 -33 100 -33q45 0 73.5 24.5t28.5 61.5t-28.5 61.5t-73.5 24.5z" />
    <glyph glyph-name="tonos" unicode="&#x384;" horiz-adv-x="860" 
d="M459 1114h-210l158 381h234z" />
    <glyph glyph-name="dieresistonos" unicode="&#x385;" horiz-adv-x="860" 
d="M98 1167q0 61 41 101.5t103 40.5t102.5 -40.5t40.5 -101.5t-40.5 -101t-102.5 -40q-63 0 -103.5 40.5t-40.5 100.5zM475 1167q0 61 40.5 101.5t102.5 40.5t103 -40.5t41 -101.5q0 -60 -40.5 -100.5t-103.5 -40.5q-62 0 -102.5 40t-40.5 101zM519 1346h-223l210 268h232z
" />
    <glyph glyph-name="Alphatonos" unicode="&#x386;" horiz-adv-x="1429" 
d="M860 1434l529 -1434h-263l-118 346h-566l-118 -346h-263l529 1434h270zM725 1169l-211 -614h422zM236 1053h-210l157 381h235z" />
    <glyph glyph-name="anoteleia" unicode="&#x387;" horiz-adv-x="614" 
d="M156 666q0 64 43 107.5t108 43.5t108.5 -43.5t43.5 -107.5t-43.5 -108t-108.5 -44q-64 0 -107.5 43.5t-43.5 108.5z" />
    <glyph glyph-name="Epsilontonos" unicode="&#x388;" horiz-adv-x="1501" 
d="M498 0v1434h872v-209h-631v-400h582v-209h-582v-407h650v-209h-891zM236 1053h-210l157 381h235z" />
    <glyph glyph-name="Etatonos" unicode="&#x389;" horiz-adv-x="1775" 
d="M498 0v1434h241v-609h631v609h242v-1434h-242v616h-631v-616h-241zM236 1053h-210l157 381h235z" />
    <glyph glyph-name="Iotatonos" unicode="&#x38a;" horiz-adv-x="913" 
d="M498 1434h241v-1434h-241v1434zM236 1053h-210l157 381h235z" />
    <glyph glyph-name="Omicrontonos" unicode="&#x38c;" horiz-adv-x="1898" 
d="M1053 188q143 0 261.5 69.5t187.5 191t69 268.5t-69 268.5t-187.5 190.5t-261.5 69t-261.5 -69t-187.5 -190.5t-69 -268.5t69 -268.5t187.5 -191t261.5 -69.5zM1053 1458q159 0 301 -57.5t243.5 -156t160.5 -236t59 -291.5t-59 -291.5t-160.5 -236.5t-243.5 -156.5
t-301 -57.5t-301 57.5t-243.5 156.5t-160.5 236.5t-59 291.5t59 291.5t160.5 236t243.5 156t301 57.5zM236 1053h-210l157 381h235z" />
    <glyph glyph-name="Upsilontonos" unicode="&#x38e;" horiz-adv-x="1738" 
d="M715 1434l362 -611l363 611h258l-500 -846v-588h-242v588l-499 846h258zM236 1053h-210l157 381h235z" />
    <glyph glyph-name="Omegatonos" unicode="&#x38f;" horiz-adv-x="1867" 
d="M1440 213h309v-213h-594v205q167 84 266 231.5t99 317.5q0 101 -38 192t-102.5 156.5t-154 104t-189.5 38.5q-202 0 -342.5 -142.5t-140.5 -348.5q0 -170 99 -317.5t266 -231.5v-205h-594v213h309q-157 103 -241.5 245.5t-84.5 315.5q0 141 56.5 267.5t153.5 218
t232.5 145t286.5 53.5t286.5 -53.5t232.5 -145t153.5 -218t56.5 -267.5q0 -173 -84 -316t-241 -245zM236 1053h-210l157 381h235z" />
    <glyph glyph-name="iotadieresistonos" unicode="&#x390;" horiz-adv-x="565" 
d="M154 240v821h233v-758q0 -98 98 -98h35v-201q-36 -4 -82 -4q-284 0 -284 240zM-63 1305q0 61 40.5 101t102.5 40t102.5 -40t40.5 -101t-40.5 -101.5t-102.5 -40.5t-102.5 40.5t-40.5 101.5zM313 1305q0 60 40.5 100.5t103.5 40.5t103 -40t40 -101t-40.5 -101.5
t-102.5 -40.5q-63 0 -103.5 40.5t-40.5 101.5zM357 1483h-223l210 268h233z" />
    <glyph glyph-name="Alpha" unicode="&#x391;" horiz-adv-x="1409" 
d="M840 1434l528 -1434h-262l-119 346h-565l-119 -346h-262l528 1434h271zM705 1169l-211 -614h421z" />
    <glyph glyph-name="Beta" unicode="&#x392;" horiz-adv-x="1275" 
d="M764 0h-600v1434h524q197 0 305.5 -103t108.5 -284q0 -104 -45 -174.5t-123 -106.5q107 -29 178.5 -122.5t71.5 -225.5q0 -188 -113.5 -303t-306.5 -115zM856 1034q0 93 -50 142t-134 49h-266v-381h266q84 0 134 48.5t50 141.5zM938 426q0 100 -54 158.5t-141 58.5h-337
v-434h337q87 0 141 59t54 158z" />
    <glyph glyph-name="Gamma" unicode="&#x393;" horiz-adv-x="1056" 
d="M164 0v1434h852v-209h-610v-1225h-242z" />
    <glyph glyph-name="uni0394" unicode="&#x394;" horiz-adv-x="1409" 
d="M840 1434l528 -1434h-1327l528 1434h271zM705 1169l-334 -960h667z" />
    <glyph glyph-name="Epsilon" unicode="&#x395;" horiz-adv-x="1167" 
d="M164 0v1434h872v-209h-630v-400h581v-209h-581v-407h649v-209h-891z" />
    <glyph glyph-name="Zeta" unicode="&#x396;" horiz-adv-x="1243" 
d="M123 209l696 1016h-665v209h956v-209l-696 -1016h716v-209h-1007v209z" />
    <glyph glyph-name="Eta" unicode="&#x397;" horiz-adv-x="1441" 
d="M164 0v1434h242v-609h630v609h242v-1434h-242v616h-630v-616h-242z" />
    <glyph glyph-name="Theta" unicode="&#x398;" horiz-adv-x="1691" 
d="M551 616v201h590v-201h-590zM846 188q143 0 261.5 69.5t187.5 191t69 268.5t-69 268.5t-187.5 190.5t-261.5 69t-261.5 -69t-187.5 -190.5t-69 -268.5t69 -268.5t187.5 -191t261.5 -69.5zM846 1458q159 0 301 -57.5t243.5 -156t160.5 -236t59 -291.5t-59 -291.5
t-160.5 -236.5t-243.5 -156.5t-301 -57.5t-301 57.5t-243.5 156.5t-160.5 236.5t-59 291.5t59 291.5t160.5 236t243.5 156t301 57.5z" />
    <glyph glyph-name="Iota" unicode="&#x399;" horiz-adv-x="589" 
d="M174 1434h242v-1434h-242v1434z" />
    <glyph glyph-name="Kappa" unicode="&#x39a;" horiz-adv-x="1245" 
d="M406 1434v-609h87l406 609h275l-478 -709l559 -725h-282l-473 616h-94v-616h-242v1434h242z" />
    <glyph glyph-name="Lambda" unicode="&#x39b;" horiz-adv-x="1409" 
d="M1106 0l-401 1149l-402 -1149h-262l528 1434h271l528 -1434h-262z" />
    <glyph glyph-name="Mu" unicode="&#x39c;" horiz-adv-x="1753" 
d="M952 438h-151l-404 600v-1038h-233v1434h225l488 -729l487 729h225v-1434h-233v1038z" />
    <glyph glyph-name="Nu" unicode="&#x39d;" horiz-adv-x="1441" 
d="M164 0v1434h233l647 -1016v1016h234v-1434h-234l-647 1016v-1016h-233z" />
    <glyph glyph-name="Xi" unicode="&#x39e;" horiz-adv-x="1198" 
d="M131 1225v209h936v-209h-936zM113 0v209h972v-209h-972zM997 616h-817v209h817v-209z" />
    <glyph glyph-name="Omicron" unicode="&#x39f;" horiz-adv-x="1691" 
d="M846 188q143 0 261.5 69.5t187.5 191t69 268.5t-69 268.5t-187.5 190.5t-261.5 69t-261.5 -69t-187.5 -190.5t-69 -268.5t69 -268.5t187.5 -191t261.5 -69.5zM846 1458q159 0 301 -57.5t243.5 -156t160.5 -236t59 -291.5t-59 -291.5t-160.5 -236.5t-243.5 -156.5
t-301 -57.5t-301 57.5t-243.5 156.5t-160.5 236.5t-59 291.5t59 291.5t160.5 236t243.5 156t301 57.5z" />
    <glyph glyph-name="Pi" unicode="&#x3a0;" horiz-adv-x="1388" 
d="M1225 1434v-1434h-242v1225h-577v-1225h-242v1434h1061z" />
    <glyph glyph-name="Rho" unicode="&#x3a1;" horiz-adv-x="1214" 
d="M647 520h-241v-520h-242v1434h483q230 0 363 -124t133 -333t-133 -333t-363 -124zM897 977q0 116 -67 182t-193 66h-231v-496h231q126 0 193 66t67 182z" />
    <glyph glyph-name="Sigma" unicode="&#x3a3;" horiz-adv-x="1198" 
d="M123 205l391 514l-391 510v205h952v-209h-657l354 -459v-96l-356 -461h659v-209h-952v205z" />
    <glyph glyph-name="Tau" unicode="&#x3a4;" horiz-adv-x="1134" 
d="M446 0v1225h-385v209h1012v-209h-385v-1225h-242z" />
    <glyph glyph-name="Upsilon" unicode="&#x3a5;" horiz-adv-x="1323" 
d="M299 1434l363 -611l362 611h258l-500 -846v-588h-241v588l-500 846h258z" />
    <glyph glyph-name="Phi" unicode="&#x3a6;" horiz-adv-x="1572" 
d="M666 0v197q-163 0 -299.5 68t-215.5 187t-79 263t79 263t215.5 187t299.5 68v201h241v-201q163 0 299.5 -68t215.5 -187t79 -263t-79 -263t-215.5 -187t-299.5 -68v-197h-241zM1255 715q0 128 -101 218.5t-247 90.5v-618q146 0 247 90.5t101 218.5zM317 715
q0 -128 101.5 -218.5t247.5 -90.5v618q-146 0 -247.5 -90.5t-101.5 -218.5z" />
    <glyph glyph-name="Chi" unicode="&#x3a7;" horiz-adv-x="1302" 
d="M1010 0l-359 555l-358 -555h-262l477 729l-459 705h262l340 -531l340 531h262l-458 -705l477 -729h-262z" />
    <glyph glyph-name="Psi" unicode="&#x3a8;" horiz-adv-x="1429" 
d="M836 1434v-886q98 38 158.5 128.5t60.5 204.5v553h241v-568q0 -201 -129 -352t-331 -189v-325h-242v325q-202 39 -331.5 189.5t-129.5 351.5v568h242v-553q0 -114 60.5 -204.5t158.5 -128.5v886h242z" />
    <glyph glyph-name="uni03A9" unicode="&#x3a9;" horiz-adv-x="1642" 
d="M1225 213h309v-213h-594v205q167 84 266 231.5t99 317.5q0 101 -38 192t-102.5 156.5t-154 104t-189.5 38.5q-202 0 -342.5 -142.5t-140.5 -348.5q0 -171 98.5 -318t265.5 -231v-205h-593v213h309q-157 103 -241.5 245.5t-84.5 315.5q0 141 56.5 267.5t153.5 218
t232.5 145t286.5 53.5t286.5 -53.5t232.5 -145t153.5 -218t56.5 -267.5q0 -173 -84 -316t-241 -245z" />
    <glyph glyph-name="Iotadieresis" unicode="&#x3aa;" horiz-adv-x="589" 
d="M174 1434h242v-1434h-242v1434zM-29 1704q0 57 39 96t96 39t96.5 -39t39.5 -96t-39.5 -96t-96.5 -39t-96 39t-39 96zM348 1704q0 57 39 96t96 39t96 -39t39 -96t-39 -96t-96 -39t-96 39t-39 96z" />
    <glyph glyph-name="Upsilondieresis" unicode="&#x3ab;" horiz-adv-x="1323" 
d="M299 1434l363 -611l362 611h258l-500 -846v-588h-241v588l-500 846h258zM338 1704q0 57 39 96t96 39t96 -39t39 -96t-39 -96t-96 -39t-96 39t-39 96zM715 1704q0 57 39 96t96 39t96 -39t39 -96t-39 -96t-96 -39t-96 39t-39 96z" />
    <glyph glyph-name="alphatonos" unicode="&#x3ac;" horiz-adv-x="1419" 
d="M1292 0q-144 0 -213 28t-94 109q-138 -162 -371 -162q-154 0 -279 76t-194 202.5t-69 276.5t69 276.5t194 202.5t279 76q214 0 353 -139v115h233v-737q0 -53 33.5 -86t87.5 -33h53v-201q-36 -4 -82 -4zM655 184q102 0 186 52t126 139v309q-42 87 -126 140t-186 53
q-146 0 -246 -100.5t-100 -246.5t100 -246t246 -100zM456 1212l278 351h235l-286 -351h-227z" />
    <glyph glyph-name="epsilontonos" unicode="&#x3ad;" horiz-adv-x="976" 
d="M305 326q0 -63 57.5 -106.5t143.5 -43.5q159 0 250 121l159 -131q-59 -89 -166 -140t-243 -51q-184 0 -309 96.5t-125 237.5q0 92 59.5 165.5t147.5 100.5q-76 26 -120 87t-44 133q0 123 110.5 206.5t274.5 83.5q134 0 228.5 -50t141.5 -140l-186 -115q-24 49 -72 77
t-112 28q-65 0 -108.5 -31.5t-43.5 -77.5t43 -77t109 -31h157v-193h-151q-86 0 -143.5 -43t-57.5 -106zM292 1212l278 351h235l-286 -351h-227z" />
    <glyph glyph-name="etatonos" unicode="&#x3ae;" horiz-adv-x="1249" 
d="M377 705v-705h-234v1061h234v-123q60 67 144.5 107t172.5 40q193 0 312.5 -121.5t119.5 -320.5v-1118h-233v1106q0 108 -68 177t-176 69q-75 0 -150.5 -51t-121.5 -121zM464 1212l278 351h235l-286 -351h-227z" />
    <glyph glyph-name="iotatonos" unicode="&#x3af;" horiz-adv-x="565" 
d="M154 240v821h233v-758q0 -98 98 -98h35v-201q-36 -4 -82 -4q-284 0 -284 240zM113 1212l278 351h235l-286 -351h-227z" />
    <glyph glyph-name="upsilondieresistonos" unicode="&#x3b0;" horiz-adv-x="1175" 
d="M588 -25q-196 0 -330.5 128.5t-134.5 314.5v643h233v-631q0 -104 67 -175t165 -71t164.5 71t66.5 175v631h234v-643q0 -186 -134.5 -314.5t-330.5 -128.5zM260 1305q0 61 40 101t103 40t103.5 -40.5t40.5 -100.5q0 -61 -40.5 -101.5t-103.5 -40.5q-62 0 -102.5 40.5
t-40.5 101.5zM637 1305q0 61 40.5 101t102.5 40q63 0 103.5 -40.5t40.5 -100.5q0 -61 -41 -101.5t-103 -40.5t-102.5 40.5t-40.5 101.5zM681 1483h-223l210 268h232z" />
    <glyph glyph-name="alpha" unicode="&#x3b1;" horiz-adv-x="1419" 
d="M1292 0q-144 0 -213 28t-94 109q-138 -162 -371 -162q-154 0 -279 76t-194 202.5t-69 276.5t69 276.5t194 202.5t279 76q214 0 353 -139v115h233v-737q0 -53 33.5 -86t87.5 -33h53v-201q-36 -4 -82 -4zM655 184q102 0 186 52t126 139v309q-42 87 -126 140t-186 53
q-146 0 -246 -100.5t-100 -246.5t100 -246t246 -100z" />
    <glyph glyph-name="beta" unicode="&#x3b2;" horiz-adv-x="1239" 
d="M1034 1071q0 -91 -60 -167t-161 -113q142 -23 243 -130t101 -260q0 -181 -126.5 -303.5t-311.5 -122.5q-109 0 -198.5 47t-125.5 128v-625h-241v1536q0 173 125 285t315 112q188 0 314 -111t126 -276zM788 1061q0 83 -56 137.5t-140 54.5q-85 0 -141 -56.5t-56 -147.5
v-586q0 -131 76 -205t193 -74q106 0 176.5 66.5t70.5 167.5q0 108 -85 178t-222 70h-49v202q116 0 174.5 55t58.5 138z" />
    <glyph glyph-name="gamma" unicode="&#x3b3;" horiz-adv-x="1081" 
d="M424 -475v471l-404 1065h242l279 -766l278 766h242l-404 -1065v-471h-233z" />
    <glyph glyph-name="delta" unicode="&#x3b4;" horiz-adv-x="1163" 
d="M309 455q0 -116 80 -195.5t193 -79.5t192.5 79.5t79.5 195.5t-79.5 195t-192.5 79t-193 -79t-80 -195zM520 930l-305 307v197h743v-209h-444l455 -459q59 -59 91 -142.5t32 -168.5q0 -137 -72.5 -248.5t-190 -171.5t-251.5 -60q-130 0 -245.5 60t-188 171.5t-72.5 248.5
q0 96 36.5 180.5t98 145.5t143 100t170.5 49z" />
    <glyph glyph-name="epsilon" unicode="&#x3b5;" horiz-adv-x="976" 
d="M305 326q0 -63 57.5 -106.5t143.5 -43.5q159 0 250 121l159 -131q-59 -89 -166 -140t-243 -51q-184 0 -309 96.5t-125 237.5q0 92 59.5 165.5t147.5 100.5q-76 26 -120 87t-44 133q0 123 110.5 206.5t274.5 83.5q134 0 228.5 -50t141.5 -140l-186 -115q-24 49 -72 77
t-112 28q-65 0 -108.5 -31.5t-43.5 -77.5t43 -77t109 -31h157v-193h-151q-86 0 -143.5 -43t-57.5 -106z" />
    <glyph glyph-name="zeta" unicode="&#x3b6;" horiz-adv-x="966" 
d="M72 377q0 97 48.5 189t135.5 198l377 461h-457v209h729v-197l-467 -580q-135 -165 -135 -280q0 -138 172 -215l248 -113q182 -81 182 -270q0 -123 -90 -254h-227q86 116 86 219q0 46 -27.5 84t-71.5 57l-225 99q-134 58 -206 160.5t-72 232.5z" />
    <glyph glyph-name="eta" unicode="&#x3b7;" horiz-adv-x="1249" 
d="M377 705v-705h-234v1061h234v-123q60 67 144.5 107t172.5 40q193 0 312.5 -121.5t119.5 -320.5v-1118h-233v1106q0 108 -68 177t-176 69q-75 0 -150.5 -51t-121.5 -121z" />
    <glyph glyph-name="theta" unicode="&#x3b8;" horiz-adv-x="1310" 
d="M72 717q0 201 70.5 369t205 270t307.5 102t308 -102t205.5 -270t70.5 -369q0 -120 -26 -231t-77 -203.5t-121 -161.5t-163 -107.5t-197 -38.5q-173 0 -307.5 102t-205 270.5t-70.5 369.5zM655 184q91 0 164.5 58.5t117.5 155.5t58 218h-681q22 -186 113.5 -309
t227.5 -123zM655 1249q-136 0 -227.5 -123t-113.5 -309h681q-14 121 -58 218t-117.5 155.5t-164.5 58.5z" />
    <glyph glyph-name="iota" unicode="&#x3b9;" horiz-adv-x="565" 
d="M154 240v821h233v-758q0 -98 98 -98h35v-201q-36 -4 -82 -4q-284 0 -284 240z" />
    <glyph glyph-name="kappa" unicode="&#x3ba;" horiz-adv-x="1064" 
d="M799 0l-322 489h-100v-489h-234v1061h234v-371h103l255 371h275l-338 -471l393 -590h-266z" />
    <glyph glyph-name="lambda" unicode="&#x3bb;" horiz-adv-x="1081" 
d="M422 1044l-172 451h242l569 -1495h-242l-282 745l-275 -745h-242z" />
    <glyph glyph-name="uni03BC" unicode="&#x3bc;" horiz-adv-x="1269" 
d="M143 -475v1536h234v-713q23 -73 91.5 -118.5t152.5 -45.5q75 0 150.5 51t121.5 121v705h233v-1061h-233v123q-56 -67 -134.5 -107.5t-162.5 -40.5q-63 0 -120.5 27.5t-98.5 73.5v-551h-234z" />
    <glyph glyph-name="nu" unicode="&#x3bd;" horiz-adv-x="1081" 
d="M1061 1061l-399 -1061h-242l-400 1061h242l279 -758l278 758h242z" />
    <glyph glyph-name="xi" unicode="&#x3be;" horiz-adv-x="976" 
d="M313 385q0 -180 203 -256l191 -72q97 -37 152.5 -110t55.5 -168q0 -123 -90 -254h-227q86 116 86 219q0 104 -98 141l-180 66q-149 55 -236.5 172t-87.5 252q0 133 85.5 242t214.5 161q-105 41 -171 130t-66 192q0 152 118 255t290 103q212 0 340 -141l-154 -164
q-90 113 -186 113q-74 0 -124 -55t-50 -138t50 -137.5t124 -54.5h231v-193h-188q-121 0 -202 -88t-81 -215z" />
    <glyph glyph-name="omicron" unicode="&#x3bf;" horiz-adv-x="1310" 
d="M655 184q146 0 246 100t100 246t-100 246.5t-246 100.5t-246 -100.5t-100 -246.5t100 -246t246 -100zM655 1085q124 0 233 -43.5t185.5 -118t121 -177t44.5 -216.5t-44.5 -216.5t-121 -177t-185.5 -118t-233 -43.5q-165 0 -299 74t-209 201t-75 280t75 280t209 201
t299 74z" />
    <glyph glyph-name="pi" unicode="&#x3c0;" horiz-adv-x="1179" 
d="M430 852v-852h-233v852h-146v209h1077v-209h-145v-852h-233v852h-320z" />
    <glyph glyph-name="rho" unicode="&#x3c1;" horiz-adv-x="1323" 
d="M123 -475v1005q0 154 71 280.5t201 200.5t293 74q122 0 227.5 -43.5t179 -118t115 -176.5t41.5 -217q0 -150 -69 -276.5t-194 -202.5t-279 -76q-213 0 -353 140v-590h-233zM356 530v-155q42 -87 126 -139t186 -52q146 0 246 100t100 246q0 147 -93 247t-235 100
q-143 0 -236.5 -99.5t-93.5 -247.5z" />
    <glyph glyph-name="sigma1" unicode="&#x3c2;" horiz-adv-x="1105" 
d="M72 530q0 153 75 280t209 201t299 74q225 0 389 -135l-120 -182q-136 109 -269 109q-146 0 -246 -100.5t-100 -246.5q0 -113 59.5 -204t172.5 -142l297 -133q182 -81 182 -272q0 -123 -90 -254h-228q86 116 86 219q0 46 -27 84t-71 57l-274 121q-158 69 -251 207t-93 317
z" />
    <glyph glyph-name="sigma" unicode="&#x3c3;" horiz-adv-x="1361" 
d="M72 518q0 112 44.5 212.5t121 173t182 115t223.5 42.5h668v-209h-248q71 -69 111 -160.5t40 -193.5q0 -142 -75.5 -262t-207 -190.5t-288.5 -70.5q-118 0 -223.5 42.5t-182 115t-121 173t-44.5 212.5zM977 518q0 141 -96.5 237.5t-237.5 96.5t-237.5 -96.5t-96.5 -237.5
t96.5 -237.5t237.5 -96.5t237.5 96.5t96.5 237.5z" />
    <glyph glyph-name="tau" unicode="&#x3c4;" horiz-adv-x="1001" 
d="M373 365v487h-328v209h911v-209h-350v-492q0 -88 34 -123.5t108 -35.5h53v-201q-36 -4 -82 -4q-184 0 -265 85.5t-81 283.5z" />
    <glyph glyph-name="upsilon" unicode="&#x3c5;" horiz-adv-x="1175" 
d="M588 -25q-196 0 -330.5 128.5t-134.5 314.5v643h233v-631q0 -104 67 -175t165 -71t164.5 71t66.5 175v631h234v-643q0 -186 -134.5 -314.5t-330.5 -128.5z" />
    <glyph glyph-name="phi" unicode="&#x3c6;" horiz-adv-x="1433" 
d="M272 969l166 -148q-129 -126 -129 -291q0 -131 83 -227t210 -115v897h176q124 0 233 -43.5t185.5 -118t121 -177t44.5 -216.5q0 -144 -67 -266t-187.5 -197.5t-271.5 -88.5v-453h-234v453q-230 18 -380 175t-150 377q0 135 55 249t145 190zM1124 530q0 130 -81.5 225.5
t-206.5 115.5v-683q125 20 206.5 116t81.5 226z" />
    <glyph glyph-name="chi" unicode="&#x3c7;" horiz-adv-x="1052" 
d="M1032 1061l-373 -748l394 -788h-250l-277 563l-276 -563h-250l393 788l-373 748h250l256 -524l256 524h250z" />
    <glyph glyph-name="psi" unicode="&#x3c8;" horiz-adv-x="1409" 
d="M823 1061v-858q101 33 163.5 115.5t62.5 189.5v553h237v-563q0 -191 -130.5 -333.5t-332.5 -178.5v-461h-237v461q-202 36 -332.5 178.5t-130.5 333.5v563h237v-553q0 -107 62 -189.5t164 -115.5v858h237z" />
    <glyph glyph-name="omega" unicode="&#x3c9;" horiz-adv-x="1638" 
d="M936 838v-318q0 -143 56.5 -239.5t140.5 -96.5t140 96.5t56 239.5q0 237 -178 541h233q37 -60 63 -108.5t56.5 -120.5t47 -151.5t16.5 -160.5q0 -151 -55 -276.5t-151 -197t-212 -71.5q-110 0 -197.5 64t-132.5 164q-45 -100 -132.5 -164t-197.5 -64q-116 0 -212 71.5
t-150.5 197t-54.5 276.5q0 81 16 160.5t46.5 151t56.5 120.5t63 109h233q-178 -304 -178 -541q0 -143 56.5 -239.5t140.5 -96.5t140 96.5t56 239.5v318h234z" />
    <glyph glyph-name="iotadieresis" unicode="&#x3ca;" horiz-adv-x="565" 
d="M154 240v821h233v-758q0 -98 98 -98h35v-201q-36 -4 -82 -4q-284 0 -284 240zM-53 1372q0 57 39 96t96 39t96 -39t39 -96t-39 -96t-96 -39t-96 39t-39 96zM324 1372q0 57 39 96t96 39t96 -39t39 -96t-39 -96t-96 -39t-96 39t-39 96z" />
    <glyph glyph-name="upsilondieresis" unicode="&#x3cb;" horiz-adv-x="1175" 
d="M264 1372q0 57 39 96t96 39t96.5 -39t39.5 -96t-39.5 -96t-96.5 -39t-96 39t-39 96zM641 1372q0 57 39 96t96 39t96 -39t39 -96t-39 -96t-96 -39t-96 39t-39 96zM588 -25q-196 0 -330.5 128.5t-134.5 314.5v643h233v-631q0 -104 67 -175t165 -71t164.5 71t66.5 175v631
h234v-643q0 -186 -134.5 -314.5t-330.5 -128.5z" />
    <glyph glyph-name="omicrontonos" unicode="&#x3cc;" horiz-adv-x="1310" 
d="M655 184q146 0 246 100t100 246t-100 246.5t-246 100.5t-246 -100.5t-100 -246.5t100 -246t246 -100zM655 1085q124 0 233 -43.5t185.5 -118t121 -177t44.5 -216.5t-44.5 -216.5t-121 -177t-185.5 -118t-233 -43.5q-165 0 -299 74t-209 201t-75 280t75 280t209 201
t299 74zM492 1212l278 351h235l-286 -351h-227z" />
    <glyph glyph-name="upsilontonos" unicode="&#x3cd;" horiz-adv-x="1175" 
d="M588 -25q-196 0 -330.5 128.5t-134.5 314.5v643h233v-631q0 -104 67 -175t165 -71t164.5 71t66.5 175v631h234v-643q0 -186 -134.5 -314.5t-330.5 -128.5zM413 1212l278 351h235l-286 -351h-227z" />
    <glyph glyph-name="omegatonos" unicode="&#x3ce;" horiz-adv-x="1638" 
d="M936 838v-318q0 -143 56.5 -239.5t140.5 -96.5t140 96.5t56 239.5q0 237 -178 541h233q37 -60 63 -108.5t56.5 -120.5t47 -151.5t16.5 -160.5q0 -151 -55 -276.5t-151 -197t-212 -71.5q-110 0 -197.5 64t-132.5 164q-45 -100 -132.5 -164t-197.5 -64q-116 0 -212 71.5
t-150.5 197t-54.5 276.5q0 81 16 160.5t46.5 151t56.5 120.5t63 109h233q-178 -304 -178 -541q0 -143 56.5 -239.5t140.5 -96.5t140 96.5t56 239.5v318h234zM667 1212l278 351h235l-286 -351h-227z" />
    <glyph glyph-name="uni0400" unicode="&#x400;" horiz-adv-x="1167" 
d="M164 0v1434h872v-209h-630v-400h581v-209h-581v-407h649v-209h-891zM474 1894l279 -350h-228l-285 350h234z" />
    <glyph glyph-name="afii10023" unicode="&#x401;" horiz-adv-x="1167" 
d="M164 0v1434h872v-209h-630v-400h581v-209h-581v-407h649v-209h-891zM279 1704q0 57 39 96t96 39t96 -39t39 -96t-39 -96t-96 -39t-96 39t-39 96zM655 1704q0 57 39.5 96t96.5 39t96 -39t39 -96t-39 -96t-96 -39t-96.5 39t-39.5 96z" />
    <glyph glyph-name="afii10051" unicode="&#x402;" horiz-adv-x="1470" 
d="M1399 510v-109q0 -170 -120.5 -287.5t-295.5 -117.5q-46 0 -82 4v201h53q86 0 144.5 60t58.5 149v88q0 91 -61 153t-152 62q-177 0 -256 -152v-561h-242v1225h-385v209h1012v-209h-385v-426q53 59 129 91t162 32q177 0 298.5 -119.5t121.5 -292.5z" />
    <glyph glyph-name="afii10052" unicode="&#x403;" horiz-adv-x="1056" 
d="M164 0v1434h852v-209h-610v-1225h-242zM370 1544l278 350h235l-286 -350h-227z" />
    <glyph glyph-name="afii10053" unicode="&#x404;" horiz-adv-x="1415" 
d="M1343 1286l-126 -180q-174 139 -371 139q-189 0 -331.5 -119t-177.5 -305h703v-209h-703q35 -186 177 -305t332 -119q100 0 182 32.5t178 96.5l121 -182q-212 -160 -481 -160q-159 0 -301 57.5t-243.5 156.5t-160.5 236.5t-59 291.5t59 291.5t160.5 236t243.5 156
t301 57.5q287 0 497 -172z" />
    <glyph glyph-name="afii10054" unicode="&#x405;" horiz-adv-x="1216" 
d="M100 207l152 164q75 -82 167 -132.5t189 -50.5q126 0 203.5 55.5t77.5 149.5q0 89 -70 150.5t-244 97.5q-223 47 -333.5 154t-110.5 266q0 178 130 287.5t337 109.5q284 0 463 -182l-143 -172q-155 141 -310 141q-101 0 -166 -46t-65 -122q0 -87 71 -144t230 -93
q245 -57 351 -166t106 -281q0 -187 -138.5 -302.5t-378.5 -115.5q-151 0 -289 61.5t-229 170.5z" />
    <glyph glyph-name="afii10055" unicode="&#x406;" horiz-adv-x="589" 
d="M174 1434h242v-1434h-242v1434z" />
    <glyph glyph-name="afii10056" unicode="&#x407;" horiz-adv-x="589" 
d="M174 1434h242v-1434h-242v1434zM-29 1704q0 57 39 96t96 39t96.5 -39t39.5 -96t-39.5 -96t-96.5 -39t-96 39t-39 96zM348 1704q0 57 39 96t96 39t96 -39t39 -96t-39 -96t-96 -39t-96 39t-39 96z" />
    <glyph glyph-name="afii10057" unicode="&#x408;" horiz-adv-x="946" 
d="M551 457v977h242v-977q0 -249 -116.5 -365.5t-348.5 -116.5q-74 0 -153 19t-134 51l78 203q43 -26 99.5 -43t105.5 -17q113 0 170 63.5t57 205.5z" />
    <glyph glyph-name="afii10058" unicode="&#x409;" horiz-adv-x="2052" 
d="M1243 1434v-521h242q230 0 362.5 -123.5t132.5 -332.5t-132.5 -333t-362.5 -124h-484v1225h-520v-860q0 -197 -86 -283t-272 -86q-46 0 -82 4v205h57q74 0 108 36t34 124v1069h1003zM1735 457q0 116 -67 182t-193 66h-232v-496h232q126 0 193 66t67 182z" />
    <glyph glyph-name="afii10059" unicode="&#x40a;" horiz-adv-x="2066" 
d="M1257 1434v-521h242q230 0 363 -124t133 -332q0 -209 -133 -333t-363 -124h-483v616h-610v-616h-242v1434h242v-609h610v609h241zM1749 457q0 116 -67 182t-193 66h-232v-496h232q126 0 193 66t67 182z" />
    <glyph glyph-name="afii10060" unicode="&#x40b;" horiz-adv-x="1521" 
d="M1399 510v-510h-242v498q0 91 -61 153t-152 62q-177 0 -256 -152v-561h-242v1225h-385v209h1012v-209h-385v-426q53 59 129 91t162 32q177 0 298.5 -119.5t121.5 -292.5z" />
    <glyph glyph-name="afii10061" unicode="&#x40c;" horiz-adv-x="1245" 
d="M406 1434v-609h87l406 609h275l-478 -709l559 -725h-282l-473 616h-94v-616h-242v1434h242zM431 1544l279 350h234l-286 -350h-227z" />
    <glyph glyph-name="uni040D" unicode="&#x40d;" horiz-adv-x="1441" 
d="M1278 1434v-1434h-234v1016l-647 -1016h-233v1434h233v-1016l647 1016h234zM607 1894l279 -350h-228l-285 350h234z" />
    <glyph glyph-name="afii10062" unicode="&#x40e;" horiz-adv-x="1323" 
d="M1282 1434l-594 -1227q-101 -207 -311 -207h-170v209h135q91 0 139 94l60 121l-500 1010h252l373 -770l364 770h252zM666 1524q-137 0 -238.5 91t-108.5 230h205q1 -64 42 -106.5t100 -42.5t99.5 42.5t41.5 106.5h205q-7 -139 -108 -230t-238 -91z" />
    <glyph glyph-name="afii10145" unicode="&#x40f;" horiz-adv-x="1388" 
d="M983 209v1225h242v-1434h-410v-287h-242v287h-409v1434h242v-1225h577z" />
    <glyph glyph-name="afii10017" unicode="&#x410;" horiz-adv-x="1409" 
d="M840 1434l528 -1434h-262l-119 346h-565l-119 -346h-262l528 1434h271zM705 1169l-211 -614h421z" />
    <glyph glyph-name="afii10018" unicode="&#x411;" horiz-adv-x="1224" 
d="M406 913h241q230 0 363 -124t133 -332q0 -209 -133 -333t-363 -124h-483v1434h866v-209h-624v-312zM897 457q0 116 -67 182t-193 66h-231v-496h231q126 0 193 66t67 182z" />
    <glyph glyph-name="afii10019" unicode="&#x412;" horiz-adv-x="1275" 
d="M764 0h-600v1434h524q197 0 305.5 -103t108.5 -284q0 -104 -45 -174.5t-123 -106.5q107 -29 178.5 -122.5t71.5 -225.5q0 -188 -113.5 -303t-306.5 -115zM856 1034q0 93 -50 142t-134 49h-266v-381h266q84 0 134 48.5t50 141.5zM938 426q0 100 -54 158.5t-141 58.5h-337
v-434h337q87 0 141 59t54 158z" />
    <glyph glyph-name="afii10020" unicode="&#x413;" horiz-adv-x="1056" 
d="M164 0v1434h852v-209h-610v-1225h-242z" />
    <glyph glyph-name="afii10021" unicode="&#x414;" horiz-adv-x="1361" 
d="M1300 209v-496h-241v287h-756v-287h-242v496h109q178 410 178 1061v164h830v-1225h122zM424 209h512v1016h-350q0 -263 -42 -534.5t-120 -481.5z" />
    <glyph glyph-name="afii10022" unicode="&#x415;" horiz-adv-x="1167" 
d="M164 0v1434h872v-209h-630v-400h581v-209h-581v-407h649v-209h-891z" />
    <glyph glyph-name="afii10024" unicode="&#x416;" horiz-adv-x="1839" 
d="M346 1434l389 -609h64v609h241v-609h64l389 609h274l-456 -709l538 -725h-282l-455 616h-72v-616h-241v616h-72l-455 -616h-282l538 725l-456 709h274z" />
    <glyph glyph-name="afii10025" unicode="&#x417;" horiz-adv-x="1093" 
d="M264 1147l-143 145q141 166 391 166q188 0 307 -109.5t119 -273.5q0 -93 -54.5 -169.5t-142.5 -114.5q122 -45 196.5 -142.5t74.5 -220.5q0 -192 -144 -322.5t-356 -130.5q-139 0 -258.5 63t-192.5 171l152 151q124 -180 299 -180q112 0 187 73t75 179q0 111 -82 181.5
t-221 70.5h-143v197h143q108 0 173 52.5t65 135.5q0 79 -62 131.5t-155 52.5q-133 0 -228 -106z" />
    <glyph glyph-name="afii10026" unicode="&#x418;" horiz-adv-x="1441" 
d="M1278 1434v-1434h-234v1016l-647 -1016h-233v1434h233v-1016l647 1016h234z" />
    <glyph glyph-name="afii10027" unicode="&#x419;" horiz-adv-x="1441" 
d="M721 1524q-137 0 -238 91t-108 230h205q1 -64 41.5 -106.5t99.5 -42.5t99.5 42.5t41.5 106.5h205q-7 -139 -108 -230t-238 -91zM1278 1434v-1434h-234v1016l-647 -1016h-233v1434h233v-1016l647 1016h234z" />
    <glyph glyph-name="afii10028" unicode="&#x41a;" horiz-adv-x="1245" 
d="M406 1434v-609h87l406 609h275l-478 -709l559 -725h-282l-473 616h-94v-616h-242v1434h242z" />
    <glyph glyph-name="afii10029" unicode="&#x41b;" horiz-adv-x="1443" 
d="M1280 1434v-1434h-242v1225h-557v-860q0 -197 -86 -283t-272 -86q-46 0 -82 4v205h57q74 0 108 36t34 124v1069h1040z" />
    <glyph glyph-name="afii10030" unicode="&#x41c;" horiz-adv-x="1753" 
d="M952 438h-151l-404 600v-1038h-233v1434h225l488 -729l487 729h225v-1434h-233v1038z" />
    <glyph glyph-name="afii10031" unicode="&#x41d;" horiz-adv-x="1441" 
d="M164 0v1434h242v-609h630v609h242v-1434h-242v616h-630v-616h-242z" />
    <glyph glyph-name="afii10032" unicode="&#x41e;" horiz-adv-x="1691" 
d="M846 188q143 0 261.5 69.5t187.5 191t69 268.5t-69 268.5t-187.5 190.5t-261.5 69t-261.5 -69t-187.5 -190.5t-69 -268.5t69 -268.5t187.5 -191t261.5 -69.5zM846 1458q159 0 301 -57.5t243.5 -156t160.5 -236t59 -291.5t-59 -291.5t-160.5 -236.5t-243.5 -156.5
t-301 -57.5t-301 57.5t-243.5 156.5t-160.5 236.5t-59 291.5t59 291.5t160.5 236t243.5 156t301 57.5z" />
    <glyph glyph-name="afii10033" unicode="&#x41f;" horiz-adv-x="1388" 
d="M1225 1434v-1434h-242v1225h-577v-1225h-242v1434h1061z" />
    <glyph glyph-name="afii10034" unicode="&#x420;" horiz-adv-x="1214" 
d="M647 520h-241v-520h-242v1434h483q230 0 363 -124t133 -333t-133 -333t-363 -124zM897 977q0 116 -67 182t-193 66h-231v-496h231q126 0 193 66t67 182z" />
    <glyph glyph-name="afii10035" unicode="&#x421;" horiz-adv-x="1415" 
d="M1217 328l126 -181q-210 -172 -497 -172q-159 0 -301 57.5t-243.5 156.5t-160.5 236.5t-59 291.5t59 291.5t160.5 236t243.5 156t301 57.5q269 0 481 -160l-121 -182q-96 64 -178 96.5t-182 32.5q-143 0 -261.5 -69t-187.5 -190.5t-69 -268.5t69 -268.5t187.5 -191
t261.5 -69.5q196 0 371 140z" />
    <glyph glyph-name="afii10036" unicode="&#x422;" horiz-adv-x="1134" 
d="M446 0v1225h-385v209h1012v-209h-385v-1225h-242z" />
    <glyph glyph-name="afii10037" unicode="&#x423;" horiz-adv-x="1323" 
d="M1282 1434l-594 -1227q-101 -207 -311 -207h-170v209h135q91 0 139 94l60 121l-500 1010h252l373 -770l364 770h252z" />
    <glyph glyph-name="afii10038" unicode="&#x424;" horiz-adv-x="1572" 
d="M666 0v197q-163 0 -299.5 68t-215.5 187t-79 263t79 263t215.5 187t299.5 68v201h241v-201q163 0 299.5 -68t215.5 -187t79 -263t-79 -263t-215.5 -187t-299.5 -68v-197h-241zM1255 715q0 128 -101 218.5t-247 90.5v-618q146 0 247 90.5t101 218.5zM317 715
q0 -128 101.5 -218.5t247.5 -90.5v618q-146 0 -247.5 -90.5t-101.5 -218.5z" />
    <glyph glyph-name="afii10039" unicode="&#x425;" horiz-adv-x="1302" 
d="M1010 0l-359 555l-358 -555h-262l477 729l-459 705h262l340 -531l340 531h262l-458 -705l477 -729h-262z" />
    <glyph glyph-name="afii10040" unicode="&#x426;" horiz-adv-x="1409" 
d="M1106 0h-942v1434h242v-1225h577v1225h242v-1225h123v-496h-242v287z" />
    <glyph glyph-name="afii10041" unicode="&#x427;" horiz-adv-x="1280" 
d="M123 944v490h242v-478q0 -100 66.5 -167.5t166.5 -67.5q89 0 163.5 45t112.5 117v551h242v-1434h-242v645q-53 -59 -138.5 -96t-172.5 -37q-186 0 -313 124.5t-127 307.5z" />
    <glyph glyph-name="afii10042" unicode="&#x428;" horiz-adv-x="1998" 
d="M1593 209v1225h242v-1434h-1671v1434h242v-1225h473v1225h241v-1225h473z" />
    <glyph glyph-name="afii10043" unicode="&#x429;" horiz-adv-x="2019" 
d="M1716 0h-1552v1434h242v-1225h473v1225h241v-1225h473v1225h242v-1225h123v-496h-242v287z" />
    <glyph glyph-name="afii10044" unicode="&#x42a;" horiz-adv-x="1460" 
d="M651 913h242q230 0 363 -124t133 -332q0 -209 -133 -333t-363 -124h-483v1225h-349v209h590v-521zM1143 457q0 116 -67 182t-193 66h-232v-496h232q126 0 193 66t67 182z" />
    <glyph glyph-name="afii10045" unicode="&#x42b;" horiz-adv-x="1705" 
d="M164 1434h242v-521h241q230 0 363 -124t133 -332q0 -209 -133 -333t-363 -124h-483v1434zM897 457q0 116 -67 182t-193 66h-231v-496h231q126 0 193 66t67 182zM1300 1434h242v-1434h-242v1434z" />
    <glyph glyph-name="afii10046" unicode="&#x42c;" horiz-adv-x="1214" 
d="M164 1434h242v-521h241q230 0 363 -124t133 -332q0 -209 -133 -333t-363 -124h-483v1434zM897 457q0 116 -67 182t-193 66h-231v-496h231q126 0 193 66t67 182z" />
    <glyph glyph-name="afii10047" unicode="&#x42d;" horiz-adv-x="1415" 
d="M199 1106l-127 180q210 172 497 172q159 0 301 -57.5t243.5 -156t160.5 -236t59 -291.5t-59 -291.5t-160.5 -236.5t-243.5 -156.5t-301 -57.5q-269 0 -481 160l121 182q96 -64 178 -96.5t182 -32.5q190 0 331.5 119t176.5 305h-702v209h702q-35 185 -176.5 304.5
t-331.5 119.5q-196 0 -370 -139z" />
    <glyph glyph-name="afii10048" unicode="&#x42e;" horiz-adv-x="2193" 
d="M406 616v-616h-242v1434h242v-609h185q26 180 130.5 324.5t268.5 226.5t358 82q213 0 388 -97.5t275 -267.5t100 -376q0 -154 -59 -291.5t-160 -236.5t-243 -156.5t-301 -57.5q-296 0 -508.5 181.5t-249.5 459.5h-184zM1348 188q143 0 261.5 69.5t187.5 191t69 268.5
t-69 268.5t-187.5 190.5t-261.5 69q-107 0 -203 -41t-165.5 -111t-110 -168t-40.5 -208q0 -147 69 -268.5t188 -191t262 -69.5z" />
    <glyph glyph-name="afii10049" unicode="&#x42f;" horiz-adv-x="1243" 
d="M596 1434h483v-1434h-241v520h-143l-357 -520h-266l370 537q-162 38 -252 154t-90 286q0 209 133 333t363 124zM838 1225h-232q-126 0 -193 -66t-67 -182t67 -182t193 -66h232v496z" />
    <glyph glyph-name="afii10065" unicode="&#x430;" horiz-adv-x="1343" 
d="M655 184q102 0 186 52t126 139v309q-42 87 -126 140t-186 53q-146 0 -246 -100.5t-100 -246.5t100 -246t246 -100zM614 1085q214 0 353 -139v115h233v-1061h-233v115q-140 -140 -353 -140q-154 0 -279 76t-194 202.5t-69 276.5t69 276.5t194 202.5t279 76z" />
    <glyph glyph-name="afii10066" unicode="&#x431;" horiz-adv-x="1257" 
d="M346 842q65 63 154 100t186 37q138 0 253 -66t181 -181.5t66 -254.5q0 -218 -153.5 -360t-393.5 -142q-116 0 -215 39.5t-173.5 114.5t-116.5 192.5t-42 266.5q0 194 28.5 336.5t87 246.5t156.5 170.5t228.5 103t312.5 50.5l33 -209q-171 -16 -277 -44t-173 -82.5
t-97 -127.5t-45 -190zM330 588q0 -195 86 -299.5t223 -104.5q134 0 221.5 84t87.5 209q0 124 -86 208.5t-213 84.5q-97 0 -178.5 -49.5t-140.5 -132.5z" />
    <glyph glyph-name="afii10067" unicode="&#x432;" horiz-adv-x="1064" 
d="M610 0h-467v1061h435q148 0 247 -81.5t99 -203.5q0 -71 -40.5 -131t-105.5 -86q83 -20 139 -93t56 -161q0 -129 -104.5 -217t-258.5 -88zM598 449h-221v-248h221q61 0 101 35t40 88t-40 89t-101 36zM377 641h184q57 0 93 31.5t36 79.5q0 47 -36.5 77.5t-92.5 30.5h-184
v-219z" />
    <glyph glyph-name="afii10068" unicode="&#x433;" horiz-adv-x="847" 
d="M803 852h-426v-852h-234v1061h660v-209z" />
    <glyph glyph-name="afii10069" unicode="&#x434;" horiz-adv-x="1136" 
d="M1092 205v-422h-234v217h-579v-217h-234v422h111q80 167 113.5 376.5t33.5 479.5h658v-856h131zM403 205h328v651h-207q0 -157 -32.5 -334.5t-88.5 -316.5z" />
    <glyph glyph-name="afii10070" unicode="&#x435;" horiz-adv-x="1265" 
d="M1184 455h-874q20 -122 116 -200.5t227 -78.5q180 0 316 139l159 -147q-178 -193 -469 -193q-172 0 -307 74.5t-207.5 200.5t-72.5 280q0 114 43.5 216.5t118.5 177t181.5 118t227.5 43.5q158 0 285 -72.5t196.5 -194t69.5 -267.5q0 -51 -10 -96zM643 885
q-110 0 -200.5 -66.5t-123.5 -171.5h630q-28 105 -111 171.5t-195 66.5z" />
    <glyph glyph-name="afii10072" unicode="&#x436;" horiz-adv-x="1609" 
d="M1343 0l-319 469h-102v-469h-234v469h-104l-318 -469h-266l393 569l-338 492h275l256 -391h102v391h234v-391h100l258 391h274l-337 -492l393 -569h-267z" />
    <glyph glyph-name="afii10073" unicode="&#x437;" horiz-adv-x="1001" 
d="M676 326q0 63 -57.5 106t-143.5 43h-151v193h157q66 0 109 31t43 77t-43.5 77.5t-108.5 31.5q-64 0 -112 -28t-72 -77l-186 115q47 90 141.5 140t228.5 50q164 0 274.5 -83.5t110.5 -206.5q0 -72 -44 -133t-120 -87q88 -27 147.5 -100.5t59.5 -165.5q0 -141 -125 -237.5
t-309 -96.5q-136 0 -243 51t-166 140l159 131q91 -121 250 -121q86 0 143.5 43.5t57.5 106.5z" />
    <glyph glyph-name="afii10074" unicode="&#x438;" horiz-adv-x="1269" 
d="M1126 1061v-1061h-225v735l-536 -735h-222v1061h226v-735l536 735h221z" />
    <glyph glyph-name="afii10075" unicode="&#x439;" horiz-adv-x="1269" 
d="M635 1192q-137 0 -238 91t-108 230h205q1 -64 41.5 -106.5t99.5 -42.5t99.5 42.5t41.5 106.5h205q-7 -139 -108 -230t-238 -91zM1126 1061v-1061h-225v735l-536 -735h-222v1061h226v-735l536 735h221z" />
    <glyph glyph-name="afii10076" unicode="&#x43a;" horiz-adv-x="1064" 
d="M799 0l-322 489h-100v-489h-234v1061h234v-371h103l255 371h275l-338 -471l393 -590h-266z" />
    <glyph glyph-name="afii10077" unicode="&#x43b;" horiz-adv-x="1263" 
d="M1120 1061v-1061h-233v852h-430v-541q0 -135 -90.5 -227t-223.5 -92q-57 0 -98 8v207h51q56 0 91.5 35t35.5 90v729h897z" />
    <glyph glyph-name="afii10078" unicode="&#x43c;" horiz-adv-x="1394" 
d="M358 1061l338 -522l340 522h215v-1061h-225v707l-260 -392h-137l-260 392v-707h-226v1061h215z" />
    <glyph glyph-name="afii10079" unicode="&#x43d;" horiz-adv-x="1269" 
d="M1126 1061v-1061h-233v444h-516v-444h-234v1061h234v-408h516v408h233z" />
    <glyph glyph-name="afii10080" unicode="&#x43e;" horiz-adv-x="1310" 
d="M655 184q146 0 246 100t100 246t-100 246.5t-246 100.5t-246 -100.5t-100 -246.5t100 -246t246 -100zM655 1085q124 0 233 -43.5t185.5 -118t121 -177t44.5 -216.5t-44.5 -216.5t-121 -177t-185.5 -118t-233 -43.5q-165 0 -299 74t-209 201t-75 280t75 280t209 201
t299 74z" />
    <glyph glyph-name="afii10081" unicode="&#x43f;" horiz-adv-x="1269" 
d="M1126 1061v-1061h-233v852h-516v-852h-234v1061h983z" />
    <glyph glyph-name="afii10082" unicode="&#x440;" horiz-adv-x="1343" 
d="M688 184q146 0 246 100t100 246t-100 246.5t-246 100.5q-102 0 -185.5 -53t-125.5 -140v-309q42 -87 125.5 -139t185.5 -52zM729 1085q154 0 279.5 -76t194.5 -202.5t69 -276.5t-69 -276.5t-194.5 -202.5t-279.5 -76q-212 0 -352 140v-590h-234v1536h234v-115
q139 139 352 139z" />
    <glyph glyph-name="afii10083" unicode="&#x441;" horiz-adv-x="1130" 
d="M655 -25q-165 0 -299 74t-209 201t-75 280t75 280t209 201t299 74q225 0 389 -135l-120 -182q-136 109 -269 109q-146 0 -246 -100.5t-100 -246.5t100 -246t246 -100q148 0 273 115l137 -170q-167 -154 -410 -154z" />
    <glyph glyph-name="afii10084" unicode="&#x442;" horiz-adv-x="970" 
d="M369 852h-324v209h881v-209h-324v-852h-233v852z" />
    <glyph glyph-name="afii10085" unicode="&#x443;" horiz-adv-x="1081" 
d="M240 -475l180 475l-400 1061h242l277 -766l280 766h242l-580 -1536h-241z" />
    <glyph glyph-name="afii10086" unicode="&#x444;" horiz-adv-x="2166" 
d="M1511 184q146 0 246.5 100t100.5 246t-100.5 246.5t-246.5 100.5q-102 0 -185.5 -53t-125.5 -140v-309q42 -87 125.5 -139t185.5 -52zM655 184q102 0 186 52t126 139v309q-42 87 -126 140t-186 53q-146 0 -246 -100.5t-100 -246.5t100 -246t246 -100zM967 946v549h233
v-549q139 139 352 139q154 0 279.5 -76t194.5 -202.5t69 -276.5t-69 -276.5t-194.5 -202.5t-279.5 -76q-212 0 -352 140v-590h-233v590q-140 -140 -353 -140q-154 0 -279 76t-194 202.5t-69 276.5t69 276.5t194 202.5t279 76q214 0 353 -139z" />
    <glyph glyph-name="afii10087" unicode="&#x445;" horiz-adv-x="1081" 
d="M803 0l-262 385l-262 -385h-259l373 541l-346 520h258l236 -365l235 365h258l-346 -520l373 -541h-258z" />
    <glyph glyph-name="afii10088" unicode="&#x446;" horiz-adv-x="1294" 
d="M1126 1061v-852h123v-496h-233v287h-873v1061h234v-852h516v852h233z" />
    <glyph glyph-name="afii10089" unicode="&#x447;" horiz-adv-x="1136" 
d="M760 0v426q-50 -62 -121.5 -96.5t-155.5 -34.5q-164 0 -277.5 116t-113.5 285v365h234v-352q0 -88 57.5 -146.5t144.5 -58.5q80 0 138.5 42t93.5 109v406h233v-1061h-233z" />
    <glyph glyph-name="afii10090" unicode="&#x448;" horiz-adv-x="1626" 
d="M1483 1061v-1061h-1340v1061h234v-852h319v852h234v-852h319v852h234z" />
    <glyph glyph-name="afii10091" unicode="&#x449;" horiz-adv-x="1650" 
d="M1372 0h-1229v1061h234v-852h319v852h234v-852h319v852h234v-852h123v-496h-234v287z" />
    <glyph glyph-name="afii10092" unicode="&#x44a;" horiz-adv-x="1232" 
d="M782 0h-446v860h-291v201h524v-332h213q165 0 277 -105.5t112 -258.5t-112 -259t-277 -106zM938 365q0 70 -51 116.5t-125 46.5h-193v-327h193q74 0 125 47t51 117z" />
    <glyph glyph-name="afii10093" unicode="&#x44b;" horiz-adv-x="1482" 
d="M590 0h-447v1061h234v-332h213q165 0 277 -105.5t112 -258.5t-112 -259t-277 -106zM745 365q0 70 -51 116.5t-125 46.5h-192v-327h192q74 0 125 47t51 117zM1106 0v1061h233v-1061h-233z" />
    <glyph glyph-name="afii10094" unicode="&#x44c;" horiz-adv-x="1040" 
d="M590 0h-447v1061h234v-332h213q165 0 277 -105.5t112 -258.5t-112 -259t-277 -106zM745 365q0 70 -51 116.5t-125 46.5h-192v-327h192q74 0 125 47t51 117z" />
    <glyph glyph-name="afii10095" unicode="&#x44d;" horiz-adv-x="1130" 
d="M475 -25q-242 0 -409 154l137 170q125 -115 272 -115q119 0 210.5 69t122.5 179h-470v193h471q-30 111 -122 181.5t-212 70.5q-132 0 -268 -109l-121 182q164 135 389 135q124 0 233 -43.5t185.5 -118t121 -177t44.5 -216.5t-44.5 -216.5t-121 -177t-185.5 -118
t-233 -43.5z" />
    <glyph glyph-name="afii10096" unicode="&#x44e;" horiz-adv-x="1751" 
d="M1096 1085q165 0 299 -74t209 -201t75 -280t-75 -280t-209 -201t-299 -74q-221 0 -380 127.5t-195 325.5h-144v-428h-234v1061h234v-424h145q37 196 195.5 322t378.5 126zM1096 184q146 0 246 100t100 246t-100 246.5t-246 100.5t-246 -100.5t-100 -246.5t100 -246
t246 -100z" />
    <glyph glyph-name="afii10097" unicode="&#x44f;" horiz-adv-x="1128" 
d="M92 713q0 148 116 248t286 100h491v-1061h-233v365h-143l-287 -365h-256l302 381q-124 33 -200 123.5t-76 208.5zM752 860h-250q-76 0 -126 -41.5t-50 -105.5t50.5 -106t125.5 -42h250v295z" />
    <glyph glyph-name="uni0450" unicode="&#x450;" horiz-adv-x="1265" 
d="M1184 455h-874q20 -122 116 -200.5t227 -78.5q180 0 316 139l159 -147q-178 -193 -469 -193q-172 0 -307 74.5t-207.5 200.5t-72.5 280q0 114 43.5 216.5t118.5 177t181.5 118t227.5 43.5q158 0 285 -72.5t196.5 -194t69.5 -267.5q0 -51 -10 -96zM643 885
q-110 0 -200.5 -66.5t-123.5 -171.5h630q-28 105 -111 171.5t-195 66.5zM544 1563l278 -351h-227l-286 351h235z" />
    <glyph glyph-name="afii10071" unicode="&#x451;" horiz-adv-x="1265" 
d="M1184 455h-874q20 -122 116 -200.5t227 -78.5q180 0 316 139l159 -147q-178 -193 -469 -193q-172 0 -307 74.5t-207.5 200.5t-72.5 280q0 114 43.5 216.5t118.5 177t181.5 118t227.5 43.5q158 0 285 -72.5t196.5 -194t69.5 -267.5q0 -51 -10 -96zM643 885
q-110 0 -200.5 -66.5t-123.5 -171.5h630q-28 105 -111 171.5t-195 66.5zM309 1372q0 57 39 96t96 39t96.5 -39t39.5 -96t-39.5 -96t-96.5 -39t-96 39t-39 96zM686 1372q0 57 39 96t96 39t96 -39t39 -96t-39 -96t-96 -39t-96 39t-39 96z" />
    <glyph glyph-name="afii10099" unicode="&#x452;" horiz-adv-x="1269" 
d="M20 1188v155h144v152h233v-152h330v-155h-330v-250q60 66 145 106.5t173 40.5q193 0 312.5 -121.5t119.5 -320.5v-743q0 -195 -97 -285t-305 -90q-66 0 -112 8v201q40 -4 92 -4q103 0 145.5 40.5t42.5 131.5v729q0 108 -67.5 177t-175.5 69q-75 0 -151 -51t-122 -121
v-705h-233v1188h-144z" />
    <glyph glyph-name="afii10100" unicode="&#x453;" horiz-adv-x="847" 
d="M803 852h-426v-852h-234v1061h660v-209zM228 1212l279 351h234l-285 -351h-228z" />
    <glyph glyph-name="afii10101" unicode="&#x454;" horiz-adv-x="1130" 
d="M649 -25q-165 0 -299 74t-209 201t-75 280t75 280t209 201t299 74q225 0 389 -135l-120 -182q-136 109 -269 109q-120 0 -212 -70.5t-122 -181.5h471v-193h-470q31 -110 122.5 -179t210.5 -69q148 0 273 115l137 -170q-167 -154 -410 -154z" />
    <glyph glyph-name="afii10102" unicode="&#x455;" horiz-adv-x="964" 
d="M72 152l131 155q52 -60 123 -95.5t151 -35.5q85 0 133.5 34t48.5 93q0 57 -45 92t-157 58q-177 35 -261.5 117.5t-84.5 215.5q0 131 101.5 215t270.5 84q106 0 202 -39t165 -104l-125 -158q-64 51 -114.5 76t-108.5 25q-69 0 -113.5 -28.5t-44.5 -74.5q0 -106 188 -145
q187 -38 274 -120t87 -218q0 -142 -107 -233t-292 -91q-129 0 -240.5 47.5t-181.5 129.5z" />
    <glyph glyph-name="afii10103" unicode="&#x456;" horiz-adv-x="540" 
d="M154 0v1061h233v-1061h-233zM125 1350q0 62 41.5 103.5t103.5 41.5t104 -42t42 -103q0 -62 -42 -104t-104 -42q-61 0 -103 42t-42 104z" />
    <glyph glyph-name="afii10104" unicode="&#x457;" horiz-adv-x="540" 
d="M154 0v1061h233v-1061h-233zM-53 1372q0 57 39 96t96 39t96 -39t39 -96t-39 -96t-96 -39t-96 39t-39 96zM324 1372q0 57 39 96t96 39t96 -39t39 -96t-39 -96t-96 -39t-96 39t-39 96z" />
    <glyph glyph-name="afii10105" unicode="&#x458;" horiz-adv-x="540" 
d="M125 1350q0 62 41.5 103.5t103.5 41.5t104 -42t42 -103q0 -62 -42 -104t-104 -42q-61 0 -103 42t-42 104zM154 -111v1172h233v-1167q0 -198 -81 -283.5t-265 -85.5q-46 0 -82 4v201h53q74 0 108 35.5t34 123.5z" />
    <glyph glyph-name="afii10106" unicode="&#x459;" horiz-adv-x="1742" 
d="M1292 0h-446v852h-389v-541q0 -135 -90.5 -227t-223.5 -92q-57 0 -98 8v207h51q56 0 91.5 35t35.5 90v729h856v-332h213q165 0 277 -105.5t112 -258.5t-112 -259t-277 -106zM1448 365q0 70 -51 116.5t-125 46.5h-193v-327h193q74 0 125 47t51 117z" />
    <glyph glyph-name="afii10107" unicode="&#x45a;" horiz-adv-x="1748" 
d="M1298 0h-446v444h-475v-444h-234v1061h234v-408h475v408h233v-332h213q165 0 277.5 -105.5t112.5 -258.5t-112.5 -259t-277.5 -106zM1454 365q0 70 -51 116.5t-125 46.5h-193v-327h193q74 0 125 47t51 117z" />
    <glyph glyph-name="afii10108" unicode="&#x45b;" horiz-adv-x="1269" 
d="M20 1188v155h144v152h233v-152h330v-155h-330v-250q60 66 145 106.5t173 40.5q193 0 312.5 -121.5t119.5 -320.5v-643h-234v631q0 108 -67.5 177t-175.5 69q-75 0 -151 -51t-122 -121v-705h-233v1188h-144z" />
    <glyph glyph-name="afii10109" unicode="&#x45c;" horiz-adv-x="1064" 
d="M799 0l-322 489h-100v-489h-234v1061h234v-371h103l255 371h275l-338 -471l393 -590h-266zM333 1212l278 351h235l-286 -351h-227z" />
    <glyph glyph-name="uni045D" unicode="&#x45d;" horiz-adv-x="1269" 
d="M1126 1061v-1061h-225v735l-536 -735h-222v1061h226v-735l536 735h221zM534 1563l278 -351h-227l-286 351h235z" />
    <glyph glyph-name="afii10110" unicode="&#x45e;" horiz-adv-x="1081" 
d="M240 -475l180 475l-400 1061h242l277 -766l280 766h242l-580 -1536h-241zM539 1192q-137 0 -238 91t-108 230h204q1 -64 42 -106.5t100 -42.5t99.5 42.5t41.5 106.5h205q-7 -139 -108 -230t-238 -91z" />
    <glyph glyph-name="afii10193" unicode="&#x45f;" horiz-adv-x="1269" 
d="M752 0v-287h-234v287h-375v1061h234v-852h516v852h233v-1061h-374z" />
    <glyph glyph-name="afii10050" unicode="&#x490;" horiz-adv-x="1056" 
d="M774 1434v286h242v-495h-610v-1225h-242v1434h610z" />
    <glyph glyph-name="afii10098" unicode="&#x491;" horiz-adv-x="847" 
d="M569 1061v287h234v-496h-426v-852h-234v1061h426z" />
    <glyph glyph-name="Wgrave" unicode="&#x1e80;" horiz-adv-x="2007" 
d="M885 1434h237l310 -1080l280 1080h254l-407 -1434h-238l-317 1102l-318 -1102h-237l-408 1434h254l280 -1080zM892 1894l278 -350h-227l-286 350h235z" />
    <glyph glyph-name="wgrave" unicode="&#x1e81;" horiz-adv-x="1613" 
d="M686 1061h242l211 -756l213 756h241l-331 -1061h-242l-213 762l-213 -762h-242l-332 1061h242l213 -756zM679 1563l278 -351h-227l-286 351h235z" />
    <glyph glyph-name="Wacute" unicode="&#x1e82;" horiz-adv-x="2007" 
d="M885 1434h237l310 -1080l280 1080h254l-407 -1434h-238l-317 1102l-318 -1102h-237l-408 1434h254l280 -1080zM842 1544l278 350h235l-286 -350h-227z" />
    <glyph glyph-name="wacute" unicode="&#x1e83;" horiz-adv-x="1613" 
d="M686 1061h242l211 -756l213 756h241l-331 -1061h-242l-213 762l-213 -762h-242l-332 1061h242l213 -756zM647 1212l279 351h234l-286 -351h-227z" />
    <glyph glyph-name="Wdieresis" unicode="&#x1e84;" horiz-adv-x="2007" 
d="M885 1434h237l310 -1080l280 1080h254l-407 -1434h-238l-317 1102l-318 -1102h-237l-408 1434h254l280 -1080zM680 1704q0 57 39 96t96 39t96 -39t39 -96t-39 -96t-96 -39t-96 39t-39 96zM1057 1704q0 57 39 96t96 39t96 -39t39 -96t-39 -96t-96 -39t-96 39t-39 96z" />
    <glyph glyph-name="wdieresis" unicode="&#x1e85;" horiz-adv-x="1613" 
d="M686 1061h242l211 -756l213 756h241l-331 -1061h-242l-213 762l-213 -762h-242l-332 1061h242l213 -756zM483 1372q0 57 39 96t96 39t96.5 -39t39.5 -96t-39.5 -96t-96.5 -39t-96 39t-39 96zM860 1372q0 57 39 96t96 39t96 -39t39 -96t-39 -96t-96 -39t-96 39t-39 96z
" />
    <glyph glyph-name="Ygrave" unicode="&#x1ef2;" horiz-adv-x="1323" 
d="M299 1434l363 -611l362 611h258l-500 -846v-588h-241v588l-500 846h258zM546 1894l278 -350h-227l-286 350h235z" />
    <glyph glyph-name="ygrave" unicode="&#x1ef3;" horiz-adv-x="1081" 
d="M240 -475l180 475l-400 1061h242l277 -766l280 766h242l-580 -1536h-241zM411 1563l278 -351h-227l-286 351h235z" />
    <glyph glyph-name="thinspace" unicode="&#x2009;" horiz-adv-x="409" 
 />
    <glyph glyph-name="uni2010" unicode="&#x2010;" horiz-adv-x="831" 
d="M709 569h-586v222h586v-222z" />
    <glyph glyph-name="figuredash" unicode="&#x2012;" horiz-adv-x="1228" 
d="M1126 569h-1024v222h1024v-222z" />
    <glyph glyph-name="endash" unicode="&#x2013;" horiz-adv-x="1024" 
d="M1024 569h-1024v222h1024v-222z" />
    <glyph glyph-name="emdash" unicode="&#x2014;" horiz-adv-x="2048" 
d="M2048 569h-2048v222h2048v-222z" />
    <glyph glyph-name="afii00208" unicode="&#x2015;" horiz-adv-x="2048" 
d="M1843 569h-1638v222h1638v-222z" />
    <glyph glyph-name="uni2016" unicode="&#x2016;" horiz-adv-x="921" 
d="M176 -287v1823h207v-1823h-207zM539 -287v1823h206v-1823h-206z" />
    <glyph glyph-name="underscoredbl" unicode="&#x2017;" horiz-adv-x="1228" 
d="M102 -475v172h1024v-172h-1024zM102 -197v172h1024v-172h-1024z" />
    <glyph glyph-name="quoteleft" unicode="&#x2018;" horiz-adv-x="614" 
d="M459 1212q0 -64 -43.5 -107.5t-108.5 -43.5t-108 43.5t-43 107.5q0 38 16 70l145 313h150l-109 -239q45 -15 73 -54.5t28 -89.5z" />
    <glyph glyph-name="quoteright" unicode="&#x2019;" horiz-adv-x="614" 
d="M156 1444q0 64 43 107.5t108 43.5t108.5 -43.5t43.5 -107.5q0 -36 -17 -70l-145 -313h-150l109 239q-45 15 -72.5 54.5t-27.5 89.5z" />
    <glyph glyph-name="quotesinglbase" unicode="&#x201a;" horiz-adv-x="614" 
d="M156 127q0 65 43.5 108.5t107.5 43.5q65 0 108.5 -43.5t43.5 -108.5q0 -36 -17 -70l-145 -313h-150l109 240q-45 15 -72.5 54t-27.5 89z" />
    <glyph glyph-name="quotereversed" unicode="&#x201b;" horiz-adv-x="614" 
d="M459 1444q0 -50 -28 -89.5t-73 -54.5l109 -239h-150l-145 313q-16 32 -16 70q0 64 43 107.5t108 43.5t108.5 -43.5t43.5 -107.5z" />
    <glyph glyph-name="quotedblleft" unicode="&#x201c;" horiz-adv-x="978" 
d="M459 1212q0 -64 -43.5 -107.5t-108.5 -43.5t-108 43.5t-43 107.5q0 38 16 70l145 313h150l-109 -239q45 -15 73 -54.5t28 -89.5zM823 1212q0 -64 -43.5 -107.5t-107.5 -43.5q-65 0 -108.5 43.5t-43.5 107.5q0 36 17 70l145 313h149l-108 -239q45 -15 72.5 -54.5
t27.5 -89.5z" />
    <glyph glyph-name="quotedblright" unicode="&#x201d;" horiz-adv-x="978" 
d="M156 1444q0 64 43 107.5t108 43.5t108.5 -43.5t43.5 -107.5q0 -36 -17 -70l-145 -313h-150l109 239q-45 15 -72.5 54.5t-27.5 89.5zM520 1444q0 64 43.5 107.5t108.5 43.5q64 0 107.5 -43.5t43.5 -107.5q0 -38 -16 -70l-145 -313h-150l109 239q-45 15 -73 54.5t-28 89.5z
" />
    <glyph glyph-name="quotedblbase" unicode="&#x201e;" horiz-adv-x="978" 
d="M156 127q0 65 43.5 108.5t107.5 43.5q65 0 108.5 -43.5t43.5 -108.5q0 -36 -17 -70l-145 -313h-150l109 240q-45 15 -72.5 54t-27.5 89zM520 127q0 65 44 108.5t108 43.5t107.5 -43.5t43.5 -108.5q0 -38 -16 -70l-145 -313h-150l109 240q-45 15 -73 54t-28 89z" />
    <glyph glyph-name="uni201F" unicode="&#x201f;" horiz-adv-x="978" 
d="M459 1444q0 -50 -28 -89.5t-73 -54.5l109 -239h-150l-145 313q-16 32 -16 70q0 64 43 107.5t108 43.5t108.5 -43.5t43.5 -107.5zM823 1444q0 -50 -27.5 -89.5t-72.5 -54.5l108 -239h-149l-145 313q-17 34 -17 70q0 64 43.5 107.5t108.5 43.5q64 0 107.5 -43.5
t43.5 -107.5z" />
    <glyph glyph-name="dagger" unicode="&#x2020;" horiz-adv-x="1146" 
d="M453 -268v1243h-326v209h326v348h241v-348h326v-209h-326v-1243h-241z" />
    <glyph glyph-name="daggerdbl" unicode="&#x2021;" horiz-adv-x="1146" 
d="M127 80v209h326v686h-326v209h326v348h241v-348h326v-209h-326v-686h326v-209h-326v-348h-241v348h-326z" />
    <glyph glyph-name="bullet" unicode="&#x2022;" 
d="M410 412q-111 0 -191 79t-80 189t80 189t191 79q110 0 190 -79t80 -189t-80 -189t-190 -79z" />
    <glyph glyph-name="onedotenleader" unicode="&#x2024;" horiz-adv-x="614" 
d="M156 127q0 65 43.5 108.5t107.5 43.5q65 0 108.5 -43.5t43.5 -108.5t-43.5 -108.5t-108.5 -43.5q-64 0 -107.5 43.5t-43.5 108.5z" />
    <glyph glyph-name="twodotenleader" unicode="&#x2025;" horiz-adv-x="1228" 
d="M156 127q0 65 43.5 108.5t107.5 43.5q65 0 108.5 -43.5t43.5 -108.5t-43.5 -108.5t-108.5 -43.5q-64 0 -107.5 43.5t-43.5 108.5zM770 127q0 65 44 108.5t108 43.5t107.5 -43.5t43.5 -108.5t-43.5 -108.5t-107.5 -43.5t-108 43.5t-44 108.5z" />
    <glyph glyph-name="ellipsis" unicode="&#x2026;" horiz-adv-x="1843" 
d="M156 127q0 65 43.5 108.5t107.5 43.5q65 0 108.5 -43.5t43.5 -108.5t-43.5 -108.5t-108.5 -43.5q-64 0 -107.5 43.5t-43.5 108.5zM770 127q0 65 44 108.5t108 43.5t107.5 -43.5t43.5 -108.5t-43.5 -108.5t-107.5 -43.5t-108 43.5t-44 108.5zM1384 127q0 65 44 108.5
t108 43.5t108 -43.5t44 -108.5t-44 -108.5t-108 -43.5t-108 43.5t-44 108.5z" />
    <glyph glyph-name="perthousand" unicode="&#x2030;" horiz-adv-x="2656" 
d="M426 0l739 1434h242l-737 -1434h-244zM315 1083q0 -70 42 -119t106 -49t105.5 49t41.5 119t-41.5 119t-105.5 49t-106 -49t-42 -119zM88 1083q0 154 108.5 259.5t266.5 105.5t266.5 -105.5t108.5 -259.5t-108.5 -259t-266.5 -105t-266.5 105t-108.5 259zM1225 350
q0 -70 41.5 -119t105.5 -49t106 49t42 119t-42 119t-106 49t-105.5 -49t-41.5 -119zM997 350q0 154 108.5 259.5t266.5 105.5t266.5 -105.5t108.5 -259.5t-108.5 -259t-266.5 -105t-266.5 105t-108.5 259zM2046 350q0 -70 41.5 -119t105.5 -49t106 49t42 119t-42 119
t-106 49t-105.5 -49t-41.5 -119zM1819 350q0 154 108 259.5t266 105.5t266.5 -105.5t108.5 -259.5t-108.5 -259t-266.5 -105t-266 105t-108 259z" />
    <glyph glyph-name="minute" unicode="&#x2032;" horiz-adv-x="573" 
d="M87 1053l185 381h235l-210 -381h-210z" />
    <glyph glyph-name="second" unicode="&#x2033;" horiz-adv-x="925" 
d="M87 1053l185 381h235l-210 -381h-210zM439 1053l186 381h234l-210 -381h-210z" />
    <glyph glyph-name="guilsinglleft" unicode="&#x2039;" horiz-adv-x="813" 
d="M106 578v122l582 359v-215l-344 -205l344 -205v-215z" />
    <glyph glyph-name="guilsinglright" unicode="&#x203a;" horiz-adv-x="813" 
d="M707 700v-122l-582 -359v215l344 205l-344 205v215z" />
    <glyph glyph-name="exclamdbl" unicode="&#x203c;" horiz-adv-x="1087" 
d="M199 414v1020h241v-1020h-241zM168 127q0 65 43.5 108.5t107.5 43.5q65 0 108.5 -43.5t43.5 -108.5t-43.5 -108.5t-108.5 -43.5q-64 0 -107.5 43.5t-43.5 108.5zM647 414v1020h242v-1020h-242zM616 127q0 65 44 108.5t108 43.5t108 -43.5t44 -108.5t-44 -108.5
t-108 -43.5t-108 43.5t-44 108.5z" />
    <glyph glyph-name="uni203E" unicode="&#x203e;" horiz-adv-x="860" 
d="M123 1229v180h614v-180h-614z" />
    <glyph glyph-name="fraction" unicode="&#x2044;" horiz-adv-x="339" 
d="M-281 0l701 1434h201l-699 -1434h-203z" />
    <glyph glyph-name="zerosuperior" unicode="&#x2070;" 
d="M57 948q0 146 37.5 259t119 182t196.5 69t196 -69t118.5 -182t37.5 -259t-37.5 -259t-118.5 -182t-196 -69t-196.5 69t-119 182t-37.5 259zM262 948q0 -155 37 -244.5t111 -89.5t110.5 89t36.5 245t-36.5 245t-110.5 89t-111 -89.5t-37 -244.5z" />
    <glyph glyph-name="uni2071" unicode="&#x2071;" 
d="M309 463v686h201v-686h-201zM289 1317q0 48 35 82.5t86 34.5q50 0 85 -34.5t35 -82.5t-34.5 -81.5t-85.5 -33.5t-86 33.5t-35 81.5z" />
    <glyph glyph-name="foursuperior" unicode="&#x2074;" 
d="M37 641v160l430 633h197v-617h100v-176h-100v-178h-207v178h-420zM262 815h195v297z" />
    <glyph glyph-name="fivesuperior" unicode="&#x2075;" 
d="M383 438q-105 0 -190.5 46.5t-138.5 133.5l147 115q40 -63 82.5 -95t95.5 -32q69 0 114.5 47.5t45.5 116.5t-45.5 116.5t-114.5 47.5q-36 0 -69 -18.5t-52 -47.5l-152 19l60 547h545v-170h-359l-22 -179q41 13 88 13q135 0 231 -88.5t96 -235.5q0 -150 -98 -243t-264 -93
z" />
    <glyph glyph-name="sixsuperior" unicode="&#x2076;" 
d="M633 1434l-215 -332h12q137 0 238.5 -93.5t101.5 -236.5q0 -144 -108 -239t-250 -95q-147 0 -256 94.5t-109 239.5q0 98 51 174l318 488h217zM563 772q0 69 -45 116.5t-110 47.5q-63 0 -108.5 -47.5t-45.5 -116.5q0 -70 45 -118t109 -48q65 0 110 48t45 118z" />
    <glyph glyph-name="sevensuperior" unicode="&#x2077;" 
d="M92 1434h639v-150l-340 -821h-231l338 801h-406v170z" />
    <glyph glyph-name="eightsuperior" unicode="&#x2078;" 
d="M410 438q-150 0 -252.5 91t-102.5 227q0 76 40.5 141t109.5 102q-45 32 -73 81.5t-28 105.5q0 114 86.5 193t219.5 79t219 -79t86 -193q0 -54 -28.5 -104t-72.5 -83q69 -37 109.5 -102t40.5 -141q0 -136 -102 -227t-252 -91zM410 909q-63 0 -105.5 -44t-42.5 -107
t42.5 -107.5t105.5 -44.5t105 44t42 108q0 63 -42 107t-105 44zM410 1073q44 0 74 33t30 78q0 44 -30 75t-74 31t-74.5 -31t-30.5 -75q0 -45 30.5 -78t74.5 -33z" />
    <glyph glyph-name="ninesuperior" unicode="&#x2079;" 
d="M186 463l215 332h-12q-137 0 -238.5 93t-101.5 236q0 144 108.5 239t250.5 95q147 0 255.5 -94.5t108.5 -239.5q0 -98 -51 -174l-318 -487h-217zM256 1124q0 -69 45.5 -116t110.5 -47q63 0 108 47t45 116q0 70 -45 118t-108 48q-65 0 -110.5 -48t-45.5 -118z" />
    <glyph glyph-name="uni207A" unicode="&#x207a;" 
d="M307 625v235h-233v176h233v236h205v-236h233v-176h-233v-235h-205z" />
    <glyph glyph-name="uni207B" unicode="&#x207b;" 
d="M745 860h-671v176h671v-176z" />
    <glyph glyph-name="uni207C" unicode="&#x207c;" 
d="M745 696h-671v176h671v-176zM745 1024h-671v176h671v-176z" />
    <glyph glyph-name="uni207D" unicode="&#x207d;" 
d="M287 948q0 170 64 327t181 279l144 -98q-88 -105 -134 -236t-46 -272t46 -272t134 -236l-144 -98q-117 122 -181 279t-64 327z" />
    <glyph glyph-name="uni207E" unicode="&#x207e;" 
d="M532 948q0 -170 -64 -327t-181 -279l-144 98q88 105 134.5 236t46.5 272t-46.5 272t-134.5 236l144 98q117 -122 181 -279t64 -327z" />
    <glyph glyph-name="uni207F" unicode="&#x207f;" 
d="M303 907v-444h-201v686h201v-41q58 55 143 55q123 0 200 -80.5t77 -210.5v-409h-201v405q0 54 -29 87.5t-75 33.5q-75 0 -115 -82z" />
    <glyph glyph-name="zeroinferior" unicode="&#x2080;" 
d="M57 217q0 146 37.5 259t119 182t196.5 69t196 -69t118.5 -182t37.5 -259t-37.5 -259t-118.5 -182t-196 -69t-196.5 69t-119 182t-37.5 259zM262 217q0 -155 37 -244.5t111 -89.5t110.5 89t36.5 245t-36.5 245t-110.5 89t-111 -89.5t-37 -244.5z" />
    <glyph glyph-name="oneinferior" unicode="&#x2081;" 
d="M389 702h176v-970h-207v764l-147 -80l-80 151z" />
    <glyph glyph-name="twoinferior" unicode="&#x2082;" 
d="M578 127l-211 -227h348v-168h-621v149l324 350q55 60 77.5 104.5t22.5 94.5q0 58 -33.5 93.5t-89.5 35.5q-52 0 -85.5 -31.5t-59.5 -103.5l-177 69q33 115 116.5 174.5t205.5 59.5q144 0 237 -81t93 -216q0 -82 -34 -149.5t-113 -153.5z" />
    <glyph glyph-name="threeinferior" unicode="&#x2083;" 
d="M532 41q0 68 -45.5 116t-113.5 48q-23 0 -56 -10l-77 96l198 241h-332v170h586v-155l-180 -215q104 -27 165.5 -112t61.5 -195q0 -59 -25.5 -115.5t-70.5 -102t-114 -73t-150 -27.5q-104 0 -189.5 47.5t-138.5 132.5l139 117q89 -129 183 -129q68 0 113.5 48t45.5 118z
" />
    <glyph glyph-name="fourinferior" unicode="&#x2084;" 
d="M37 -90v160l430 632h197v-616h100v-176h-100v-178h-207v178h-420zM262 84h195v297z" />
    <glyph glyph-name="fiveinferior" unicode="&#x2085;" 
d="M383 -293q-105 0 -190.5 46.5t-138.5 133.5l147 115q40 -63 82.5 -95t95.5 -32q69 0 114.5 47.5t45.5 116.5t-45.5 116.5t-114.5 47.5q-36 0 -69 -18.5t-52 -47.5l-152 19l60 546h545v-170h-359l-22 -178q41 13 88 13q135 0 231 -88.5t96 -235.5q0 -150 -98 -243
t-264 -93z" />
    <glyph glyph-name="sixinferior" unicode="&#x2086;" 
d="M633 702l-215 -331h12q137 0 238.5 -93.5t101.5 -236.5q0 -144 -108 -239t-250 -95q-147 0 -256 94.5t-109 239.5q0 98 51 174l318 487h217zM563 41q0 69 -45 116.5t-110 47.5q-63 0 -108.5 -47.5t-45.5 -116.5q0 -70 45 -118t109 -48q65 0 110 48t45 118z" />
    <glyph glyph-name="seveninferior" unicode="&#x2087;" 
d="M92 702h639v-149l-340 -821h-231l338 800h-406v170z" />
    <glyph glyph-name="eightinferior" unicode="&#x2088;" 
d="M410 -293q-150 0 -252.5 91t-102.5 227q0 76 40.5 141t109.5 102q-45 32 -73 81.5t-28 105.5q0 114 86.5 193t219.5 79t219 -79t86 -193q0 -54 -28.5 -104t-72.5 -83q69 -37 109.5 -102t40.5 -141q0 -136 -102 -227t-252 -91zM410 178q-63 0 -105.5 -44t-42.5 -107
t42.5 -107.5t105.5 -44.5t105 44.5t42 107.5t-42 107t-105 44zM410 342q44 0 74 33t30 78q0 44 -30 75t-74 31t-74.5 -31t-30.5 -75q0 -45 30.5 -78t74.5 -33z" />
    <glyph glyph-name="nineinferior" unicode="&#x2089;" 
d="M186 -268l215 331h-12q-137 0 -238.5 93.5t-101.5 236.5q0 144 108.5 239t250.5 95q147 0 255.5 -94.5t108.5 -239.5q0 -98 -51 -174l-318 -487h-217zM256 393q0 -69 45.5 -116.5t110.5 -47.5q63 0 108 47.5t45 116.5q0 70 -45 118t-108 48q-65 0 -110.5 -48t-45.5 -118z
" />
    <glyph glyph-name="uni208A" unicode="&#x208a;" 
d="M307 -106v235h-233v176h233v236h205v-236h233v-176h-233v-235h-205z" />
    <glyph glyph-name="uni208B" unicode="&#x208b;" 
d="M745 129h-671v176h671v-176z" />
    <glyph glyph-name="uni208C" unicode="&#x208c;" 
d="M745 -35h-671v176h671v-176zM745 293h-671v176h671v-176z" />
    <glyph glyph-name="uni208D" unicode="&#x208d;" 
d="M287 217q0 170 64 327t181 279l144 -98q-88 -105 -134 -236t-46 -272t46 -272t134 -236l-144 -98q-117 122 -181 279t-64 327z" />
    <glyph glyph-name="uni208E" unicode="&#x208e;" 
d="M532 217q0 -170 -64 -327t-181 -279l-144 98q88 105 134.5 236t46.5 272t-46.5 272t-134.5 236l144 98q117 -122 181 -279t64 -327z" />
    <glyph glyph-name="uni2090" unicode="&#x2090;" 
d="M539 -29v189q-19 41 -56 65.5t-82 24.5q-68 0 -112.5 -52.5t-44.5 -131.5q0 -80 45 -132.5t112 -52.5q45 0 82 24.5t56 65.5zM539 -279v52q-66 -66 -160 -66q-144 0 -241 103t-97 256q0 152 96.5 255t241.5 103q94 0 160 -66v52h202v-689h-202z" />
    <glyph glyph-name="uni2091" unicode="&#x2091;" 
d="M756 0h-496q18 -56 62 -91.5t100 -35.5q46 0 95 26.5t87 69.5l125 -125q-119 -137 -305 -137q-162 0 -264.5 104t-102.5 255q0 152 103.5 255t255.5 103q151 0 248.5 -99.5t97.5 -246.5q0 -40 -6 -78zM416 258q-50 0 -89.5 -27t-59.5 -73h288q-17 47 -53.5 73.5
t-85.5 26.5z" />
    <glyph glyph-name="uni2092" unicode="&#x2092;" 
d="M410 -119q67 0 113 54t46 131t-46 130.5t-113 53.5t-113.5 -53.5t-46.5 -130.5t46.5 -131t113.5 -54zM410 424q156 0 259 -103t103 -255t-103 -255.5t-259 -103.5t-259.5 103.5t-103.5 255.5t103.5 255t259.5 103z" />
    <glyph glyph-name="uni2093" unicode="&#x2093;" 
d="M299 410l109 -179l110 179h225l-217 -334l232 -355h-221l-127 203l-125 -203h-226l232 357l-215 332h223z" />
    <glyph glyph-name="uni2094" unicode="&#x2094;" 
d="M57 53q0 41 6 78h495q-17 56 -61 91.5t-100 35.5q-46 0 -95 -26.5t-87 -69.5l-125 125q119 137 305 137q162 0 264.5 -103.5t102.5 -254.5q0 -152 -103.5 -255.5t-255.5 -103.5q-151 0 -248.5 99.5t-97.5 246.5zM403 -127q50 0 89 27t59 73h-288q18 -47 54.5 -73.5
t85.5 -26.5z" />
    <glyph glyph-name="uni20A0" unicode="&#x20a0;" horiz-adv-x="1611" 
d="M829 0v480q-107 -48 -227 -48q-225 0 -377.5 148t-152.5 364q0 217 152.5 365.5t377.5 148.5q189 0 356 -129l-110 -170q-72 49 -128.5 73.5t-117.5 24.5q-127 0 -214 -90t-87 -223q0 -132 87.5 -221.5t213.5 -89.5q121 0 227 69v291h637v-196h-409v-199h377v-197h-377
v-204h422v-197h-650z" />
    <glyph glyph-name="colonmonetary" unicode="&#x20a1;" horiz-adv-x="1415" 
d="M1147 1642l-40 -226q115 -41 220 -118l-121 -182q-75 50 -138 80l-178 -1006q172 14 327 138l126 -181q-207 -169 -491 -172l-33 -184h-155l34 198q-66 13 -106 25l-39 -223h-156l52 288q-169 98 -268 266.5t-99 371.5q0 272 170 473.5t437 252.5l36 199h156l-33 -184
q46 0 109 -7l34 191h156zM328 717q0 -116 43.5 -216.5t121.5 -173.5l155 879q-144 -59 -232 -190.5t-88 -298.5zM631 233q56 -24 104 -33l185 1040q-40 5 -74 5q-25 0 -36 -1z" />
    <glyph glyph-name="uni20A2" unicode="&#x20a2;" horiz-adv-x="1415" 
d="M1217 328l126 -181q-210 -172 -497 -172q-159 0 -301 57.5t-243.5 156.5t-160.5 236.5t-59 291.5t59 291.5t160.5 236t243.5 156t301 57.5q269 0 481 -160l-121 -182q-96 64 -178 96.5t-182 32.5q-143 0 -261.5 -69t-187.5 -190.5t-69 -268.5q0 -180 99.5 -317
t260.5 -188v638h213v-82q72 96 168 96q53 0 102 -24l-18 -181q-69 25 -94 25q-44 0 -87 -30.5t-71 -80.5v-382q169 19 316 137z" />
    <glyph glyph-name="franc" unicode="&#x20a3;" horiz-adv-x="1128" 
d="M809 475h-332v-475h-241v475h-185v133h185v94h-185v134h185v598h851v-209h-610v-389h332v-134h-332v-94h332v-133z" />
    <glyph glyph-name="lira" unicode="&#x20a4;" horiz-adv-x="1187" 
d="M313 465h-231v133h229q-9 54 -20 94h-209v133h155q-47 116 -47 222q0 174 128 292.5t317 118.5q148 0 258.5 -73.5t155.5 -184.5l-205 -108q-59 153 -209 153q-86 0 -142.5 -56t-56.5 -142q0 -77 61 -222h343v-133h-299q12 -52 17 -94h282v-133h-280q-17 -148 -134 -252
h649v-213h-925v209q142 95 163 256z" />
    <glyph glyph-name="uni20A6" unicode="&#x20a6;" horiz-adv-x="1503" 
d="M1452 547h-143v-547h-230l-339 547h-316v-547h-229v547h-144v123h144v94h-144v123h144v547h229l339 -547h316v547h230v-547h143v-123h-143v-94h143v-123zM424 764v-94h240l-59 94h-181zM839 764l58 -94h182v94h-240zM974 547l105 -170v170h-105zM424 1057v-170h105z" />
    <glyph glyph-name="peseta" unicode="&#x20a7;" horiz-adv-x="2455" 
d="M1569 201h429q71 0 111.5 32t40.5 89q0 54 -40.5 87.5t-132.5 55.5q-320 75 -320 328q0 127 94.5 209.5t252.5 82.5q99 0 187.5 -39.5t151.5 -104.5l-119 -166q-62 56 -108.5 83t-95.5 27q-58 0 -94.5 -26t-36.5 -71q0 -103 161 -139q172 -39 253 -120.5t81 -211.5
q0 -137 -100.5 -227t-270.5 -90h-463q-193 0 -282.5 88.5t-89.5 282.5v485h-152q-33 -157 -149 -246.5t-295 -89.5h-179v-520h-239v1434h418q189 0 307.5 -100t142.5 -273h146v286l232 22v-308h231v-205h-231v-483q0 -91 36 -131.5t123 -40.5zM795 977q0 116 -58 182
t-165 66h-169v-496h169q107 0 165 66t58 182z" />
    <glyph glyph-name="uni20A8" unicode="&#x20a8;" horiz-adv-x="1998" 
d="M164 1434h465q222 0 349.5 -124t127.5 -333q0 -170 -86 -285.5t-241 -153.5l354 -538h-264l-340 520h-123v-520h-242v1434zM1136 152l130 161q51 -62 119 -99.5t141 -37.5q77 0 122 34t45 93q0 56 -44.5 92t-143.5 58q-334 74 -334 333q0 131 98.5 215t262.5 84
q103 0 194 -39.5t159 -104.5l-122 -162q-64 53 -112.5 79.5t-101.5 26.5q-63 0 -103 -28t-40 -75q0 -108 174 -145q180 -38 263.5 -120.5t83.5 -217.5q0 -142 -103.5 -233t-282.5 -91q-125 0 -231.5 47t-173.5 130zM620 1225h-214v-496h214q117 0 178.5 66t61.5 182
t-61.5 182t-178.5 66z" />
    <glyph glyph-name="uni20A9" unicode="&#x20a9;" horiz-adv-x="2048" 
d="M2007 551h-271l-157 -551h-233l-158 551h-328l-158 -551h-233l-158 551h-270v123h235l-26 94h-209v123h174l-154 543h250l141 -543h302l155 543h230l154 -543h303l141 543h250l-155 -543h175v-123h-210l-27 -94h237v-123zM923 768l-28 -94h257l-27 94h-202zM1328 768
l27 -94h185l25 94h-237zM483 768l25 -94h184l27 94h-236zM1024 1122l-67 -231h133zM1390 551l62 -217l56 217h-118zM540 551l56 -217l61 217h-117z" />
    <glyph glyph-name="afii57636" unicode="&#x20aa;" horiz-adv-x="1789" 
d="M164 0v1434h541q218 0 365 -138.5t147 -341.5v-417h-242v417q0 118 -75.5 194.5t-194.5 76.5h-299v-1225h-242zM1626 1434v-1434h-545q-218 0 -365 138t-147 341v418h242v-418q0 -118 75.5 -194t194.5 -76h303v1225h242z" />
    <glyph glyph-name="dong" unicode="&#x20ab;" horiz-adv-x="1363" 
d="M637 1188v155h330v152h233v-152h143v-155h-143v-1188h-233v115q-140 -140 -353 -140q-154 0 -279 76t-194 202.5t-69 276.5t69 276.5t194 202.5t279 76q214 0 353 -139v242h-330zM655 184q102 0 186 52t126 139v309q-42 87 -126 140t-186 53q-146 0 -246 -100.5
t-100 -246.5t100 -246t246 -100zM369 -348v180h737v-180h-737z" />
    <glyph glyph-name="Euro" unicode="&#x20ac;" horiz-adv-x="1476" 
d="M1004 516h-578q58 -149 188 -238.5t293 -89.5q196 0 371 140l127 -181q-210 -172 -498 -172q-267 0 -469 150.5t-268 390.5h-150v137h125q-2 40 -2 64q0 27 2 63h-125v138h150q66 240 268 390t469 150q270 0 482 -160l-121 -182q-96 64 -178.5 96.5t-182.5 32.5
q-163 0 -293 -89.5t-188 -237.5h578v-138h-612q-3 -33 -3 -63q0 -34 3 -64h612v-137z" />
    <glyph glyph-name="afii61248" unicode="&#x2105;" horiz-adv-x="2147" 
d="M534 591q-197 0 -329.5 125.5t-132.5 307.5q0 183 132.5 308.5t329.5 125.5q177 0 319 -116l-114 -171q-120 96 -205 96q-100 0 -168.5 -70.5t-68.5 -172.5q0 -101 68.5 -171.5t168.5 -70.5q99 0 206 100l129 -160q-144 -131 -335 -131zM1615 167q99 0 167 70.5t68 171.5
q0 102 -68 172t-167 70q-100 0 -168.5 -70t-68.5 -172q0 -101 68.5 -171.5t168.5 -70.5zM1615 843q197 0 329 -125.5t132 -308.5q0 -182 -132 -308t-329 -126t-329.5 126t-132.5 308q0 183 132.5 308.5t329.5 125.5zM580 0l700 1434h221l-698 -1434h-223z" />
    <glyph glyph-name="uni2109" unicode="&#x2109;" horiz-adv-x="1652" 
d="M211 1182q0 -50 33 -83.5t84 -33.5t83.5 33.5t32.5 83.5t-32.5 83t-83.5 33t-84 -33t-33 -83zM41 1182q0 117 82.5 196.5t204.5 79.5q121 0 203.5 -79.5t82.5 -196.5t-82.5 -197t-203.5 -80t-204 80t-83 197zM719 0v1434h852v-209h-610v-400h561v-209h-561v-616h-242z
" />
    <glyph glyph-name="afii61289" unicode="&#x2113;" horiz-adv-x="1161" 
d="M72 459q148 57 225 89v550q0 153 112 256.5t275 103.5t275 -103.5t112 -256.5v-58q0 -339 -532 -610v-80q0 -72 42 -119t105 -47q64 0 115.5 41t83.5 111l194 -117q-55 -111 -158.5 -177.5t-234.5 -66.5q-162 0 -274 100.5t-115 246.5q-101 -40 -160 -60zM539 1079v-412
q148 87 219 181t71 213v18q0 75 -41 122.5t-104 47.5t-104 -47.5t-41 -122.5z" />
    <glyph glyph-name="afii61352" unicode="&#x2116;" horiz-adv-x="2272" 
d="M164 0v1434h231l525 -975v975h232v-1434h-231l-525 975v-975h-232zM2119 332h-799v200h799v-200zM1299 1067q0 164 121.5 277.5t298.5 113.5t298.5 -113.5t121.5 -277.5t-121.5 -277.5t-298.5 -113.5t-298.5 113.5t-121.5 277.5zM1529 1067q0 -82 54 -136t136 -54
t136.5 54t54.5 136t-54.5 136t-136.5 54t-136 -54t-54 -136z" />
    <glyph glyph-name="uni2117" unicode="&#x2117;" horiz-adv-x="1646" 
d="M883 586h-135v-264h-177v788h312q124 0 206 -74t82 -188t-82 -188t-206 -74zM993 848q0 43 -32.5 70.5t-83.5 27.5h-129v-196h129q51 0 83.5 27.5t32.5 70.5zM82 717q0 153 58 290t157 236t236 157t290 58t290.5 -58t236.5 -157t157 -236t58 -290t-58 -290.5t-157 -236.5
t-236.5 -157t-290.5 -58t-290 58t-236 157t-157 236.5t-58 290.5zM217 717q0 -169 80.5 -310.5t220 -223t305.5 -81.5t306 81.5t220.5 223t80.5 310.5q0 127 -47.5 241t-128.5 195.5t-193.5 129.5t-237.5 48q-166 0 -305.5 -81t-220 -222.5t-80.5 -310.5z" />
    <glyph glyph-name="uni2120" unicode="&#x2120;" horiz-adv-x="1617" 
d="M72 799l110 121q46 -49 95 -79t88 -30q47 0 76.5 22t29.5 60q0 35 -29.5 60.5t-103.5 41.5q-246 53 -246 232q0 98 73.5 158.5t190.5 60.5q162 0 267 -111l-103 -125q-99 88 -160 88q-36 0 -60 -17t-24 -46q0 -70 125 -98q136 -31 195 -90.5t59 -153.5q0 -103 -77.5 -166
t-210.5 -63q-83 0 -161 36t-134 99zM1165 895h-112l-154 238v-457h-178v758h164l223 -342l223 342h164v-758h-178v452z" />
    <glyph glyph-name="uni2121" unicode="&#x2121;" horiz-adv-x="2242" 
d="M1745 455h-699q15 -122 86.5 -200.5t167.5 -78.5q125 0 243 151l163 -144q-146 -208 -399 -208q-144 0 -257.5 74.5t-174 200.5t-60.5 280q0 153 61.5 280t171.5 201t244 74q133 0 239 -72.5t164 -194t58 -267.5q0 -60 -8 -96zM430 0v1225h-369v209h971v-209h-368v-1225
h-234zM1855 0v1495h224v-1495h-224zM1292 885q-82 0 -148 -66.5t-90 -171.5h464q-21 104 -82.5 171t-143.5 67z" />
    <glyph glyph-name="trademark" unicode="&#x2122;" horiz-adv-x="1593" 
d="M254 676v612h-193v146h568v-146h-193v-612h-182zM1141 895h-113l-154 238v-457h-178v758h164l223 -342l224 342h163v-758h-178v452z" />
    <glyph glyph-name="Omega" unicode="&#x2126;" horiz-adv-x="1642" 
d="M1225 213h309v-213h-594v205q167 84 266 231.5t99 317.5q0 101 -38 192t-102.5 156.5t-154 104t-189.5 38.5q-202 0 -342.5 -142.5t-140.5 -348.5q0 -171 98.5 -318t265.5 -231v-205h-593v213h309q-157 103 -241.5 245.5t-84.5 315.5q0 141 56.5 267.5t153.5 218
t232.5 145t286.5 53.5t286.5 -53.5t232.5 -145t153.5 -218t56.5 -267.5q0 -173 -84 -316t-241 -245z" />
    <glyph glyph-name="estimated" unicode="&#x212e;" horiz-adv-x="1646" 
d="M1565 654h-1166v-380q84 -81 193 -126.5t231 -45.5q152 0 282 68.5t214 188.5l108 -75q-104 -147 -263.5 -228t-340.5 -81q-153 0 -290 58t-236 157t-157 236.5t-58 290.5t58 290t157 236t236 157t290 58t290.5 -58t236.5 -157t157 -236t58 -290v-63zM823 1331
q-123 0 -232 -45.5t-192 -127.5v-379h848v379q-83 82 -192 127.5t-232 45.5z" />
    <glyph glyph-name="onethird" unicode="&#x2153;" horiz-adv-x="1976" 
d="M539 0l700 1434h201l-699 -1434h-202zM389 1434h176v-971h-207v764l-147 -80l-80 151zM1690 309q0 68 -46 116t-114 48q-22 0 -55 -10l-78 96l198 242h-331v170h585v-156l-180 -215q104 -27 165.5 -112t61.5 -195q0 -59 -25.5 -115.5t-70.5 -102t-114 -73t-150 -27.5
q-104 0 -189.5 48t-138.5 133l140 116q89 -129 182 -129q68 0 114 48t46 118z" />
    <glyph glyph-name="twothirds" unicode="&#x2154;" horiz-adv-x="1976" 
d="M578 858l-211 -227h348v-168h-621v149l324 351q55 60 77.5 104t22.5 94q0 58 -33.5 93.5t-89.5 35.5q-52 0 -85.5 -31.5t-59.5 -103.5l-177 69q33 115 116.5 174.5t205.5 59.5q144 0 237 -81t93 -216q0 -82 -34 -149.5t-113 -153.5zM1690 309q0 68 -46 116t-114 48
q-22 0 -55 -10l-78 96l198 242h-331v170h585v-156l-180 -215q104 -27 165.5 -112t61.5 -195q0 -59 -25.5 -115.5t-70.5 -102t-114 -73t-150 -27.5q-104 0 -189.5 48t-138.5 133l140 116q89 -129 182 -129q68 0 114 48t46 118zM539 0l700 1434h201l-699 -1434h-202z" />
    <glyph glyph-name="onefifth" unicode="&#x2155;" horiz-adv-x="1976" 
d="M1540 -27q-105 0 -190.5 47t-138.5 134l147 114q40 -63 82.5 -95t95.5 -32q69 0 114.5 47.5t45.5 116.5t-45.5 116.5t-114.5 47.5q-36 0 -69 -18.5t-52 -47.5l-151 19l59 547h545v-170h-359l-22 -178q37 12 88 12q135 0 231.5 -88.5t96.5 -235.5q0 -150 -98 -243
t-265 -93zM389 1434h176v-971h-207v764l-147 -80l-80 151zM539 0l700 1434h201l-699 -1434h-202z" />
    <glyph glyph-name="twofifths" unicode="&#x2156;" horiz-adv-x="1976" 
d="M578 858l-211 -227h348v-168h-621v149l324 351q55 60 77.5 104t22.5 94q0 58 -33.5 93.5t-89.5 35.5q-52 0 -85.5 -31.5t-59.5 -103.5l-177 69q33 115 116.5 174.5t205.5 59.5q144 0 237 -81t93 -216q0 -82 -34 -149.5t-113 -153.5zM1540 -27q-105 0 -190.5 47
t-138.5 134l147 114q40 -63 82.5 -95t95.5 -32q69 0 114.5 47.5t45.5 116.5t-45.5 116.5t-114.5 47.5q-36 0 -69 -18.5t-52 -47.5l-151 19l59 547h545v-170h-359l-22 -178q37 12 88 12q135 0 231.5 -88.5t96.5 -235.5q0 -150 -98 -243t-265 -93zM539 0l700 1434h201
l-699 -1434h-202z" />
    <glyph glyph-name="threefifths" unicode="&#x2157;" horiz-adv-x="1976" 
d="M532 772q0 68 -45.5 116t-113.5 48q-23 0 -56 -10l-77 96l198 242h-332v170h586v-156l-180 -215q104 -27 165.5 -112t61.5 -195q0 -59 -25.5 -115.5t-70.5 -102t-114 -73t-150 -27.5q-104 0 -189.5 47.5t-138.5 132.5l139 117q89 -129 183 -129q68 0 113.5 48t45.5 118z
M1540 -27q-105 0 -190.5 47t-138.5 134l147 114q40 -63 82.5 -95t95.5 -32q69 0 114.5 47.5t45.5 116.5t-45.5 116.5t-114.5 47.5q-36 0 -69 -18.5t-52 -47.5l-151 19l59 547h545v-170h-359l-22 -178q37 12 88 12q135 0 231.5 -88.5t96.5 -235.5q0 -150 -98 -243t-265 -93z
M539 0l700 1434h201l-699 -1434h-202z" />
    <glyph glyph-name="fourfifths" unicode="&#x2158;" horiz-adv-x="1976" 
d="M37 641v160l430 633h197v-617h100v-176h-100v-178h-207v178h-420zM262 815h195v297zM1540 -27q-105 0 -190.5 47t-138.5 134l147 114q40 -63 82.5 -95t95.5 -32q69 0 114.5 47.5t45.5 116.5t-45.5 116.5t-114.5 47.5q-36 0 -69 -18.5t-52 -47.5l-151 19l59 547h545v-170
h-359l-22 -178q37 12 88 12q135 0 231.5 -88.5t96.5 -235.5q0 -150 -98 -243t-265 -93zM539 0l700 1434h201l-699 -1434h-202z" />
    <glyph glyph-name="onesixth" unicode="&#x2159;" horiz-adv-x="1976" 
d="M1790 971l-215 -332h12q137 0 238.5 -93.5t101.5 -236.5q0 -144 -108 -239t-250 -95q-147 0 -256 94.5t-109 239.5q0 98 51 174l318 488h217zM1720 309q0 69 -45 116.5t-110 47.5q-63 0 -108.5 -47.5t-45.5 -116.5q0 -70 45 -118t109 -48q65 0 110 48t45 118zM389 1434
h176v-971h-207v764l-147 -80l-80 151zM539 0l700 1434h201l-699 -1434h-202z" />
    <glyph glyph-name="fivesixths" unicode="&#x215a;" horiz-adv-x="1976" 
d="M383 438q-105 0 -190.5 46.5t-138.5 133.5l147 115q40 -63 82.5 -95t95.5 -32q69 0 114.5 47.5t45.5 116.5t-45.5 116.5t-114.5 47.5q-36 0 -69 -18.5t-52 -47.5l-152 19l60 547h545v-170h-359l-22 -179q41 13 88 13q135 0 231 -88.5t96 -235.5q0 -150 -98 -243t-264 -93
zM1790 971l-215 -332h12q137 0 238.5 -93.5t101.5 -236.5q0 -144 -108 -239t-250 -95q-147 0 -256 94.5t-109 239.5q0 98 51 174l318 488h217zM1720 309q0 69 -45 116.5t-110 47.5q-63 0 -108.5 -47.5t-45.5 -116.5q0 -70 45 -118t109 -48q65 0 110 48t45 118zM539 0
l700 1434h201l-699 -1434h-202z" />
    <glyph glyph-name="oneeighth" unicode="&#x215b;" horiz-adv-x="1976" 
d="M1567 -27q-150 0 -252.5 91t-102.5 227q0 76 40.5 141.5t109.5 102.5q-45 32 -72.5 81t-27.5 105q0 114 86 193t219 79t219 -79t86 -193q0 -54 -28 -103.5t-72 -82.5q69 -37 109 -102.5t40 -141.5q0 -136 -102 -227t-252 -91zM1567 444q-63 0 -105.5 -44t-42.5 -107
t42.5 -107.5t105.5 -44.5t105 44t42 108q0 63 -42 107t-105 44zM1567 608q44 0 74 33t30 78q0 44 -30 75t-74 31t-74.5 -31t-30.5 -75q0 -45 30.5 -78t74.5 -33zM389 1434h176v-971h-207v764l-147 -80l-80 151zM539 0l700 1434h201l-699 -1434h-202z" />
    <glyph glyph-name="threeeighths" unicode="&#x215c;" horiz-adv-x="1976" 
d="M532 772q0 68 -45.5 116t-113.5 48q-23 0 -56 -10l-77 96l198 242h-332v170h586v-156l-180 -215q104 -27 165.5 -112t61.5 -195q0 -59 -25.5 -115.5t-70.5 -102t-114 -73t-150 -27.5q-104 0 -189.5 47.5t-138.5 132.5l139 117q89 -129 183 -129q68 0 113.5 48t45.5 118z
M1567 -27q-150 0 -252.5 91t-102.5 227q0 76 40.5 141.5t109.5 102.5q-45 32 -72.5 81t-27.5 105q0 114 86 193t219 79t219 -79t86 -193q0 -54 -28 -103.5t-72 -82.5q69 -37 109 -102.5t40 -141.5q0 -136 -102 -227t-252 -91zM1567 444q-63 0 -105.5 -44t-42.5 -107
t42.5 -107.5t105.5 -44.5t105 44t42 108q0 63 -42 107t-105 44zM1567 608q44 0 74 33t30 78q0 44 -30 75t-74 31t-74.5 -31t-30.5 -75q0 -45 30.5 -78t74.5 -33zM539 0l700 1434h201l-699 -1434h-202z" />
    <glyph glyph-name="fiveeighths" unicode="&#x215d;" horiz-adv-x="1976" 
d="M383 438q-105 0 -190.5 46.5t-138.5 133.5l147 115q40 -63 82.5 -95t95.5 -32q69 0 114.5 47.5t45.5 116.5t-45.5 116.5t-114.5 47.5q-36 0 -69 -18.5t-52 -47.5l-152 19l60 547h545v-170h-359l-22 -179q41 13 88 13q135 0 231 -88.5t96 -235.5q0 -150 -98 -243t-264 -93
zM1567 -27q-150 0 -252.5 91t-102.5 227q0 76 40.5 141.5t109.5 102.5q-45 32 -72.5 81t-27.5 105q0 114 86 193t219 79t219 -79t86 -193q0 -54 -28 -103.5t-72 -82.5q69 -37 109 -102.5t40 -141.5q0 -136 -102 -227t-252 -91zM1567 444q-63 0 -105.5 -44t-42.5 -107
t42.5 -107.5t105.5 -44.5t105 44t42 108q0 63 -42 107t-105 44zM1567 608q44 0 74 33t30 78q0 44 -30 75t-74 31t-74.5 -31t-30.5 -75q0 -45 30.5 -78t74.5 -33zM539 0l700 1434h201l-699 -1434h-202z" />
    <glyph glyph-name="seveneighths" unicode="&#x215e;" horiz-adv-x="1976" 
d="M92 1434h639v-150l-340 -821h-231l338 801h-406v170zM539 0l700 1434h201l-699 -1434h-202zM1567 -27q-150 0 -252.5 91t-102.5 227q0 76 40.5 141.5t109.5 102.5q-45 32 -72.5 81t-27.5 105q0 114 86 193t219 79t219 -79t86 -193q0 -54 -28 -103.5t-72 -82.5
q69 -37 109 -102.5t40 -141.5q0 -136 -102 -227t-252 -91zM1567 444q-63 0 -105.5 -44t-42.5 -107t42.5 -107.5t105.5 -44.5t105 44t42 108q0 63 -42 107t-105 44zM1567 608q44 0 74 33t30 78q0 44 -30 75t-74 31t-74.5 -31t-30.5 -75q0 -45 30.5 -78t74.5 -33z" />
    <glyph glyph-name="uni215F" unicode="&#x215f;" horiz-adv-x="1976" 
d="M539 0l700 1434h201l-699 -1434h-202zM389 1434h176v-971h-207v764l-147 -80l-80 151z" />
    <glyph glyph-name="arrowleft" unicode="&#x2190;" horiz-adv-x="1761" 
d="M1688 776v-192h-1158v-238l-456 334l456 334v-238h1158z" />
    <glyph glyph-name="arrowup" unicode="&#x2191;" horiz-adv-x="1761" 
d="M977 -78h-193v1157h-237l334 457l333 -457h-237v-1157z" />
    <glyph glyph-name="arrowright" unicode="&#x2192;" horiz-adv-x="1761" 
d="M74 584v192h1157v238l457 -334l-457 -334v238h-1157z" />
    <glyph glyph-name="arrowdown" unicode="&#x2193;" horiz-adv-x="1761" 
d="M784 1536h193v-1157h237l-333 -457l-334 457h237v1157z" />
    <glyph glyph-name="arrowboth" unicode="&#x2194;" horiz-adv-x="1761" 
d="M530 1014v-238h701v238l457 -334l-457 -334v238h-701v-238l-456 334z" />
    <glyph glyph-name="arrowupdn" unicode="&#x2195;" horiz-adv-x="1761" 
d="M547 379h237v700h-237l334 457l333 -457h-237v-700h237l-333 -457z" />
    <glyph glyph-name="arrowupdnbse" unicode="&#x21a8;" horiz-adv-x="1761" 
d="M547 379h237v700h-237l334 457l333 -457h-237v-700h237l-313 -428h293v-131h-627v131h293z" />
    <glyph glyph-name="partialdiff" unicode="&#x2202;" horiz-adv-x="1261" 
d="M586 942q99 0 188.5 -39.5t150.5 -102.5q-14 214 -102.5 331.5t-242.5 117.5q-160 0 -287 -127l-103 185q154 151 390 151q187 0 321 -95t201 -261.5t67 -388.5q0 -176 -44.5 -317.5t-122 -232.5t-180.5 -139.5t-222 -48.5q-145 0 -266.5 64t-191.5 175.5t-70 244.5
q0 99 42.5 189t112.5 154t164 102t195 38zM600 184q59 0 110 21.5t94.5 66.5t74 123t42.5 182q-63 75 -146.5 115.5t-174.5 40.5q-122 0 -204.5 -78.5t-82.5 -195.5t82.5 -196t204.5 -79z" />
    <glyph glyph-name="Delta" unicode="&#x2206;" horiz-adv-x="1409" 
d="M840 1434l528 -1434h-1327l528 1434h271zM705 1169l-334 -960h667z" />
    <glyph glyph-name="product" unicode="&#x220f;" horiz-adv-x="1388" 
d="M1225 1516v-1743h-242v1534h-577v-1534h-242v1743h1061z" />
    <glyph glyph-name="summation" unicode="&#x2211;" horiz-adv-x="1343" 
d="M123 -27l522 682l-522 660v201h1098v-209h-805l471 -598v-107l-469 -620h803v-209h-1098v200z" />
    <glyph glyph-name="minus" unicode="&#x2212;" horiz-adv-x="1187" 
d="M1065 580h-942v200h942v-200z" />
    <glyph glyph-name="uni2215" unicode="&#x2215;" horiz-adv-x="339" 
d="M-281 0l701 1434h201l-699 -1434h-203z" />
    <glyph glyph-name="uni2219" unicode="&#x2219;" horiz-adv-x="614" 
d="M156 666q0 64 43 107.5t108 43.5t108.5 -43.5t43.5 -107.5t-43.5 -108t-108.5 -44q-64 0 -107.5 43.5t-43.5 108.5z" />
    <glyph glyph-name="radical" unicode="&#x221a;" horiz-adv-x="1155" 
d="M645 0h-258l-346 768h260l197 -473l366 1282h250z" />
    <glyph glyph-name="infinity" unicode="&#x221e;" horiz-adv-x="1568" 
d="M426 811q-62 0 -102.5 -36t-40.5 -95t40.5 -95t102.5 -36q61 0 113.5 26.5t122.5 104.5q-70 78 -122.5 104.5t-113.5 26.5zM784 555q-174 -182 -368 -182q-140 0 -237 87t-97 220t97 220t237 87q192 0 368 -184q176 184 369 184q140 0 237 -87t97 -220t-97 -220t-237 -87
q-195 0 -369 182zM1143 811q-61 0 -113.5 -26.5t-122.5 -104.5q70 -78 122.5 -104.5t113.5 -26.5q62 0 102.5 36t40.5 95t-40.5 95t-102.5 36z" />
    <glyph glyph-name="orthogonal" unicode="&#x221f;" horiz-adv-x="1259" 
d="M1219 209v-209h-1055v1178h242v-969h813z" />
    <glyph glyph-name="intersection" unicode="&#x2229;" horiz-adv-x="1318" 
d="M659 1264q143 0 262 -67.5t187 -185t68 -257.5v-754h-242v733q0 138 -79 230t-196 92t-195.5 -92t-78.5 -230v-733h-242v754q0 141 68 258t186.5 184.5t261.5 67.5z" />
    <glyph glyph-name="integral" unicode="&#x222b;" horiz-adv-x="884" 
d="M326 -98v1300q0 195 97 285t304 90q67 0 113 -8v-201q-40 4 -92 4q-103 0 -146 -40.5t-43 -131.5v-1300q0 -195 -97 -285t-304 -90q-67 0 -113 8v201q40 -4 92 -4q103 0 146 40.5t43 131.5z" />
    <glyph glyph-name="approxequal" unicode="&#x2248;" horiz-adv-x="1187" 
d="M561 793q-35 33 -54 50t-48 33.5t-53 16.5q-88 0 -117 -166l-222 56q27 154 105.5 236.5t202.5 82.5q70 0 136.5 -28t115.5 -75q35 -33 54 -50t48 -33.5t53 -16.5q88 0 117 166l222 -56q-27 -154 -105.5 -236.5t-202.5 -82.5q-70 0 -136.5 28t-115.5 75zM561 342
q-35 33 -54 50t-48 33.5t-53 16.5q-88 0 -117 -166l-222 57q27 153 105.5 235.5t202.5 82.5q70 0 136.5 -28t115.5 -74q35 -33 54 -50t48 -33.5t53 -16.5q88 0 117 165l222 -56q-27 -153 -105.5 -235.5t-202.5 -82.5q-70 0 -136.5 28t-115.5 74z" />
    <glyph glyph-name="notequal" unicode="&#x2260;" horiz-adv-x="1187" 
d="M1065 352h-546l-144 -276h-180l144 276h-216v201h320l134 254h-454v201h558l132 252h180l-132 -252h204v-201h-308l-133 -254h441v-201z" />
    <glyph glyph-name="equivalence" unicode="&#x2261;" horiz-adv-x="1187" 
d="M1065 913h-942v201h942v-201zM1065 246h-942v200h942v-200zM1065 580h-942v200h942v-200z" />
    <glyph glyph-name="lessequal" unicode="&#x2264;" horiz-adv-x="1187" 
d="M1065 0h-942v201h942v-201zM123 700v185l932 383v-222l-640 -253l640 -253v-223z" />
    <glyph glyph-name="greaterequal" unicode="&#x2265;" horiz-adv-x="1187" 
d="M1065 0h-942v201h942v-201zM1065 885v-185l-932 -383v223l640 253l-640 253v222z" />
    <glyph glyph-name="house" unicode="&#x2302;" horiz-adv-x="1318" 
d="M385 209h549v426l-275 315l-274 -315v-426zM1176 0h-1033v713l516 590l517 -590v-713z" />
    <glyph glyph-name="revlogicalnot" unicode="&#x2310;" horiz-adv-x="1187" 
d="M356 580v-344h-233v544h942v-200h-709z" />
    <glyph glyph-name="uni2318" unicode="&#x2318;" horiz-adv-x="1650" 
d="M705 541h241v241h-241v-241zM403 950h113v115q0 51 -31.5 83t-81.5 32t-81 -32t-31 -83t31 -83t81 -32zM1135 950h112q50 0 81.5 32t31.5 83t-31.5 83t-81.5 32t-81 -32t-31 -83v-115zM516 373h-113q-50 0 -81 -32t-31 -83t31 -83t81 -32t81.5 32t31.5 83v115zM1247 373
h-112v-115q0 -51 31 -83t81 -32t81.5 32t31.5 83t-31.5 83t-81.5 32zM403 541h113v241h-113q-128 0 -214.5 81.5t-86.5 201.5t86.5 201.5t214.5 81.5t215 -81.5t87 -201.5v-115h241v115q0 120 86.5 201.5t214.5 81.5t214.5 -81.5t86.5 -201.5t-86.5 -201.5t-214.5 -81.5
h-112v-241h112q128 0 214.5 -81.5t86.5 -201.5t-86.5 -201.5t-214.5 -81.5t-214.5 81.5t-86.5 201.5v115h-241v-115q0 -120 -87 -201.5t-215 -81.5t-214.5 81.5t-86.5 201.5t86.5 201.5t214.5 81.5z" />
    <glyph glyph-name="lozenge" unicode="&#x25ca;" horiz-adv-x="1183" 
d="M1092 618l-500 -940l-500 940l500 941zM842 618l-250 476l-250 -476l250 -475z" />
    <glyph glyph-name="H18533" unicode="&#x25cf;" horiz-adv-x="2048" 
d="M332 668q0 187 93 346.5t252.5 252.5t346.5 93t346.5 -93t252.5 -252.5t93 -346.5t-93 -347t-252.5 -253t-346.5 -93t-346.5 93t-252.5 253t-93 347z" />
    <glyph glyph-name="commaaccent" horiz-adv-x="860" 
d="M430 -469h-210l158 350h234z" />
    <glyph glyph-name="zero.tnum" horiz-adv-x="1146" 
d="M82 717q0 159 30.5 292t89.5 234t154 158t217 57q121 0 216 -57t155 -158t90.5 -234.5t30.5 -291.5t-30.5 -291.5t-90.5 -235t-155 -158.5t-216 -57q-122 0 -217 57t-154 158.5t-89.5 234.5t-30.5 292zM319 717q0 -246 62 -385t192 -139t192 139t62 385t-62 385t-192 139
t-192 -139t-62 -385z" />
    <glyph glyph-name="one.tnum" horiz-adv-x="966" 
d="M442 1434h217v-1434h-237v1196l-240 -127l-100 174z" />
    <glyph glyph-name="two.tnum" horiz-adv-x="1067" 
d="M766 590l-354 -385h555v-205h-867v195l482 522q88 95 124.5 167t36.5 148q0 100 -62 160.5t-161 60.5q-88 0 -148 -47.5t-101 -145.5l-197 85q49 146 163 229.5t283 83.5q202 0 331.5 -115.5t129.5 -308.5q0 -121 -49.5 -218.5t-165.5 -225.5z" />
    <glyph glyph-name="three.tnum" horiz-adv-x="1124" 
d="M795 455q0 114 -80.5 194t-200.5 80q-30 0 -68 -10l-92 117l320 389h-527v209h816v-209l-291 -344q167 -26 263.5 -151t96.5 -298q0 -84 -36 -165.5t-99.5 -146.5t-161.5 -105t-213 -40q-145 0 -262 63t-195 180l163 135q120 -173 286 -173q120 0 200.5 80.5t80.5 194.5z
" />
    <glyph glyph-name="four.tnum" horiz-adv-x="1191" 
d="M72 270v215l637 949h237v-947h154v-217h-154v-270h-237v270h-637zM332 485h377v559z" />
    <glyph glyph-name="five.tnum" horiz-adv-x="1134" 
d="M532 -25q-145 0 -263 61t-193 179l171 137q114 -172 277 -172q121 0 201 78.5t80 194.5t-80 194t-201 78q-65 0 -120 -26t-85 -68l-167 20l86 783h751v-209h-540l-41 -346q66 47 176 47q92 0 174.5 -32.5t146 -91t100.5 -147.5t37 -196q0 -215 -138 -349.5t-372 -134.5z
" />
    <glyph glyph-name="six.tnum" horiz-adv-x="1204" 
d="M887 1434l-336 -516q36 12 84 12q125 0 233.5 -58.5t176 -169t67.5 -247.5t-72.5 -248.5t-188 -171.5t-245.5 -60q-134 0 -251.5 60t-190 171.5t-72.5 248.5q0 141 72 252l471 727h252zM874 455q0 116 -79.5 195t-192.5 79t-192.5 -79t-79.5 -195t79.5 -195.5
t192.5 -79.5t192.5 79.5t79.5 195.5z" />
    <glyph glyph-name="seven.tnum" horiz-adv-x="1005" 
d="M61 1434h893v-199l-512 -1235h-266l512 1225h-627v209z" />
    <glyph glyph-name="eight.tnum" horiz-adv-x="1183" 
d="M592 -25q-211 0 -355.5 130t-144.5 323q0 125 67 222.5t183 140.5q-76 38 -126 116t-50 168q0 161 120.5 272t305.5 111t305.5 -111t120.5 -272q0 -90 -50 -168t-126 -116q116 -43 183 -140.5t67 -222.5q0 -193 -144.5 -323t-355.5 -130zM592 684q-111 0 -186.5 -74
t-75.5 -178t75.5 -178t186.5 -74t186.5 74t75.5 178t-75.5 178t-186.5 74zM592 881q82 0 139 56.5t57 131.5q0 76 -57 130t-139 54q-83 0 -140 -54t-57 -130q0 -75 57.5 -131.5t139.5 -56.5z" />
    <glyph glyph-name="nine.tnum" horiz-adv-x="1204" 
d="M317 0l336 516q-36 -12 -84 -12q-125 0 -233.5 58.5t-176 169t-67.5 247.5t72.5 248.5t188 171t245.5 59.5q100 0 193.5 -35.5t164.5 -97.5t113.5 -152.5t42.5 -193.5q0 -141 -72 -252l-471 -727h-252zM330 979q0 -116 79.5 -195t192.5 -79t192.5 79t79.5 195t-79.5 195
t-192.5 79t-192.5 -79t-79.5 -195z" />
    <glyph glyph-name="parenleft.case" horiz-adv-x="860" 
d="M236 717q0 271 98 519t278 433l166 -125q-146 -169 -223.5 -384t-77.5 -443t77.5 -444t223.5 -384l-166 -125q-180 184 -278 432.5t-98 520.5z" />
    <glyph glyph-name="parenright.case" horiz-adv-x="860" 
d="M625 717q0 -271 -98.5 -519.5t-278.5 -433.5l-166 125q146 168 223.5 384t77.5 444t-77.5 443t-223.5 384l166 125q180 -185 278.5 -433t98.5 -519z" />
    <glyph glyph-name="hyphen.case" horiz-adv-x="831" 
d="M709 618h-586v222h586v-222z" />
    <glyph glyph-name="at.case" horiz-adv-x="1986" 
d="M987 471q73 0 132 39t91 104v234q-32 65 -91 104t-132 39q-105 0 -177.5 -75.5t-72.5 -184.5t72.5 -184.5t177.5 -75.5zM1475 295q-71 0 -141.5 35t-110.5 90q-113 -125 -269 -125q-177 0 -296 128t-119 308t119 308t296 128q147 0 256 -112v92h195v-629
q13 -20 40.5 -33.5t55.5 -13.5q90 0 151.5 80t61.5 231q0 141 -59 268t-157.5 217t-231.5 142.5t-277 52.5q-116 0 -225 -35.5t-197.5 -101.5t-155 -154t-103 -198.5t-36.5 -229.5q0 -199 97 -363.5t268 -259.5t379 -95q270 0 487 153l78 -164q-136 -82 -271.5 -124
t-293.5 -42q-198 0 -372 68t-299 186t-197 284.5t-72 356.5q0 189 72.5 356t195.5 285t291 186t354 68q195 0 365.5 -65t293 -177.5t193 -272t70.5 -341.5q0 -224 -120.5 -355.5t-315.5 -131.5z" />
    <glyph glyph-name="bracketleft.case" horiz-adv-x="860" 
d="M233 -195v1823h586v-209h-344v-1405h344v-209h-586z" />
    <glyph glyph-name="bracketright.case" horiz-adv-x="860" 
d="M627 1628v-1823h-586v209h344v1405h-344v209h586z" />
    <glyph glyph-name="braceleft.case" horiz-adv-x="860" 
d="M147 612v209q94 0 145.5 47t51.5 136v292q0 141 104 236.5t261 95.5h110v-209h-94q-61 0 -100 -38.5t-39 -100.5v-313q0 -200 -189 -250q189 -50 189 -250v-313q0 -62 39 -101t100 -39h94v-209h-110q-157 0 -261 95.5t-104 236.5v293q0 89 -51.5 135.5t-145.5 46.5z" />
    <glyph glyph-name="braceright.case" horiz-adv-x="860" 
d="M713 821v-209q-94 0 -145.5 -46.5t-51.5 -135.5v-293q0 -141 -103.5 -236.5t-260.5 -95.5h-111v209h94q61 0 100 39t39 101v313q0 200 189 250q-189 50 -189 250v313q0 62 -39 100.5t-100 38.5h-94v209h111q157 0 260.5 -95.5t103.5 -236.5v-292q0 -89 51.5 -136
t145.5 -47z" />
    <glyph glyph-name="exclamdown.case" horiz-adv-x="638" 
d="M199 0v1020h241v-1020h-241zM168 1307q0 65 43 108t108 43t108.5 -43.5t43.5 -107.5q0 -65 -43.5 -108.5t-108.5 -43.5q-64 0 -107.5 43.5t-43.5 108.5z" />
    <glyph glyph-name="guillemotleft.case" horiz-adv-x="1314" 
d="M106 627v123l582 358v-215l-344 -205l344 -205v-215zM608 627v123l582 358v-215l-344 -205l344 -205v-215z" />
    <glyph glyph-name="periodcentered.case" horiz-adv-x="614" 
d="M156 715q0 65 43 108t108 43t108.5 -43.5t43.5 -107.5q0 -65 -43.5 -108.5t-108.5 -43.5q-64 0 -107.5 43.5t-43.5 108.5z" />
    <glyph glyph-name="guillemotright.case" horiz-adv-x="1314" 
d="M1208 750v-123l-581 -359v215l344 205l-344 205v215zM707 750v-123l-582 -359v215l344 205l-344 205v215z" />
    <glyph glyph-name="questiondown.case" horiz-adv-x="1130" 
d="M758 1020v-371q-181 0 -285 -73t-104 -187q0 -87 77 -144t201 -57q69 0 142.5 32.5t136.5 86.5l127 -173q-190 -159 -435 -159q-110 0 -204.5 34.5t-157 92.5t-98 133t-35.5 156q0 148 106 260.5t287 147.5v221h242zM788 1307q0 -65 -43.5 -108.5t-107.5 -43.5
q-65 0 -108.5 43.5t-43.5 108.5q0 64 43.5 107.5t108.5 43.5t108 -43t43 -108z" />
    <glyph glyph-name="endash.case" horiz-adv-x="1024" 
d="M1024 618h-1024v222h1024v-222z" />
    <glyph glyph-name="emdash.case" horiz-adv-x="2048" 
d="M2048 618h-2048v222h2048v-222z" />
    <glyph glyph-name="bullet.case" 
d="M410 461q-111 0 -191 79t-80 189t80 189t191 79q110 0 190 -79t80 -189t-80 -189t-190 -79z" />
    <glyph glyph-name="guilsinglleft.case" horiz-adv-x="813" 
d="M106 627v123l582 358v-215l-344 -205l344 -205v-215z" />
    <glyph glyph-name="guilsinglright.case" horiz-adv-x="813" 
d="M707 750v-123l-582 -359v215l344 205l-344 205v215z" />
    <glyph glyph-name="zero.numerator" 
d="M57 948q0 146 37.5 259t119 182t196.5 69t196 -69t118.5 -182t37.5 -259t-37.5 -259t-118.5 -182t-196 -69t-196.5 69t-119 182t-37.5 259zM262 948q0 -155 37 -244.5t111 -89.5t110.5 89t36.5 245t-36.5 245t-110.5 89t-111 -89.5t-37 -244.5z" />
    <glyph glyph-name="one.numerator" 
d="M389 1434h176v-971h-207v764l-147 -80l-80 151z" />
    <glyph glyph-name="two.numerator" 
d="M578 858l-211 -227h348v-168h-621v149l324 351q55 60 77.5 104t22.5 94q0 58 -33.5 93.5t-89.5 35.5q-52 0 -85.5 -31.5t-59.5 -103.5l-177 69q33 115 116.5 174.5t205.5 59.5q144 0 237 -81t93 -216q0 -82 -34 -149.5t-113 -153.5z" />
    <glyph glyph-name="three.numerator" 
d="M532 772q0 68 -45.5 116t-113.5 48q-23 0 -56 -10l-77 96l198 242h-332v170h586v-156l-180 -215q104 -27 165.5 -112t61.5 -195q0 -59 -25.5 -115.5t-70.5 -102t-114 -73t-150 -27.5q-104 0 -189.5 47.5t-138.5 132.5l139 117q89 -129 183 -129q68 0 113.5 48t45.5 118z
" />
    <glyph glyph-name="four.numerator" 
d="M37 641v160l430 633h197v-617h100v-176h-100v-178h-207v178h-420zM262 815h195v297z" />
    <glyph glyph-name="five.numerator" 
d="M383 438q-105 0 -190.5 46.5t-138.5 133.5l147 115q40 -63 82.5 -95t95.5 -32q69 0 114.5 47.5t45.5 116.5t-45.5 116.5t-114.5 47.5q-36 0 -69 -18.5t-52 -47.5l-152 19l60 547h545v-170h-359l-22 -179q41 13 88 13q135 0 231 -88.5t96 -235.5q0 -150 -98 -243t-264 -93
z" />
    <glyph glyph-name="six.numerator" 
d="M633 1434l-215 -332h12q137 0 238.5 -93.5t101.5 -236.5q0 -144 -108 -239t-250 -95q-147 0 -256 94.5t-109 239.5q0 98 51 174l318 488h217zM563 772q0 69 -45 116.5t-110 47.5q-63 0 -108.5 -47.5t-45.5 -116.5q0 -70 45 -118t109 -48q65 0 110 48t45 118z" />
    <glyph glyph-name="seven.numerator" 
d="M92 1434h639v-150l-340 -821h-231l338 801h-406v170z" />
    <glyph glyph-name="eight.numerator" 
d="M410 438q-150 0 -252.5 91t-102.5 227q0 76 40.5 141t109.5 102q-45 32 -73 81.5t-28 105.5q0 114 86.5 193t219.5 79t219 -79t86 -193q0 -54 -28.5 -104t-72.5 -83q69 -37 109.5 -102t40.5 -141q0 -136 -102 -227t-252 -91zM410 909q-63 0 -105.5 -44t-42.5 -107
t42.5 -107.5t105.5 -44.5t105 44t42 108q0 63 -42 107t-105 44zM410 1073q44 0 74 33t30 78q0 44 -30 75t-74 31t-74.5 -31t-30.5 -75q0 -45 30.5 -78t74.5 -33z" />
    <glyph glyph-name="nine.numerator" 
d="M186 463l215 332h-12q-137 0 -238.5 93t-101.5 236q0 144 108.5 239t250.5 95q147 0 255.5 -94.5t108.5 -239.5q0 -98 -51 -174l-318 -487h-217zM256 1124q0 -69 45.5 -116t110.5 -47q63 0 108 47t45 116q0 70 -45 118t-108 48q-65 0 -110.5 -48t-45.5 -118z" />
    <glyph glyph-name="zero.denominator" 
d="M57 485q0 146 37.5 259t119 182t196.5 69t196 -69t118.5 -182t37.5 -259t-37.5 -259t-118.5 -182t-196 -69t-196.5 69t-119 182t-37.5 259zM262 485q0 -155 37 -244t111 -89t110.5 89t36.5 244q0 156 -36.5 245t-110.5 89t-111 -89.5t-37 -244.5z" />
    <glyph glyph-name="one.denominator" 
d="M389 971h176v-971h-207v764l-147 -80l-80 152z" />
    <glyph glyph-name="two.denominator" 
d="M578 395l-211 -227h348v-168h-621v150l324 350q55 60 77.5 104t22.5 94q0 58 -33.5 93.5t-89.5 35.5q-52 0 -85.5 -31.5t-59.5 -103.5l-177 69q33 115 116.5 174.5t205.5 59.5q144 0 237 -81t93 -216q0 -82 -34 -149.5t-113 -153.5z" />
    <glyph glyph-name="three.denominator" 
d="M532 309q0 68 -45.5 116t-113.5 48q-23 0 -56 -10l-77 96l198 242h-332v170h586v-156l-180 -215q104 -27 165.5 -112t61.5 -195q0 -59 -25.5 -115.5t-70.5 -102t-114 -73t-150 -27.5q-104 0 -189.5 48t-138.5 133l139 116q89 -129 183 -129q68 0 113.5 48t45.5 118z" />
    <glyph glyph-name="four.denominator" 
d="M37 178v160l430 633h197v-617h100v-176h-100v-178h-207v178h-420zM262 352h195v297z" />
    <glyph glyph-name="five.denominator" 
d="M383 -25q-105 0 -190.5 47t-138.5 134l147 114q40 -63 82.5 -95t95.5 -32q69 0 114.5 47.5t45.5 116.5t-45.5 116.5t-114.5 47.5q-36 0 -69 -18t-52 -47l-152 18l60 547h545v-170h-359l-22 -178q38 12 88 12q135 0 231 -88.5t96 -235.5q0 -150 -98 -243t-264 -93z" />
    <glyph glyph-name="six.denominator" 
d="M633 971l-215 -332h12q137 0 238.5 -93.5t101.5 -236.5q0 -144 -108 -239t-250 -95q-147 0 -256 94.5t-109 239.5q0 98 51 174l318 488h217zM563 309q0 69 -45 116.5t-110 47.5q-63 0 -108.5 -47.5t-45.5 -116.5q0 -70 45 -118t109 -48q65 0 110 48t45 118z" />
    <glyph glyph-name="seven.denominator" 
d="M92 971h639v-150l-340 -821h-231l338 801h-406v170z" />
    <glyph glyph-name="eight.denominator" 
d="M410 -25q-150 0 -252.5 91t-102.5 227q0 76 40.5 141.5t109.5 102.5q-45 32 -73 81t-28 105q0 114 86.5 193t219.5 79t219 -79t86 -193q0 -54 -28.5 -103.5t-72.5 -82.5q69 -37 109.5 -102.5t40.5 -141.5q0 -136 -102 -227t-252 -91zM410 446q-63 0 -105.5 -44
t-42.5 -107t42.5 -107.5t105.5 -44.5t105 44.5t42 107.5t-42 107t-105 44zM410 610q44 0 74 33t30 78q0 44 -30 75t-74 31t-74.5 -31t-30.5 -75q0 -45 30.5 -78t74.5 -33z" />
    <glyph glyph-name="nine.denominator" 
d="M186 0l215 332h-12q-137 0 -238.5 93.5t-101.5 236.5q0 144 108.5 238.5t250.5 94.5q147 0 255.5 -94t108.5 -239q0 -99 -51 -175l-318 -487h-217zM256 662q0 -69 45.5 -116.5t110.5 -47.5q63 0 108 47.5t45 116.5q0 70 -44.5 117.5t-108.5 47.5q-65 0 -110.5 -47.5
t-45.5 -117.5z" />
    <glyph glyph-name="dollar_osf" horiz-adv-x="1073" 
d="M74 181l148 155q118 -121 255 -147v335q-185 42 -276.5 132.5t-91.5 223.5q0 142 101.5 234.5t266.5 106.5v159h157v-166q180 -29 318 -155l-140 -164q-98 80 -178 104v-289q198 -50 286.5 -142t88.5 -232q0 -144 -99.5 -239.5t-275.5 -115.5v-165h-157v164
q-118 13 -223 64.5t-180 136.5zM774 336q0 96 -140 148v-289q65 17 102.5 53.5t37.5 87.5zM344 893q0 -90 133 -141v258q-60 -11 -96.5 -43t-36.5 -74z" />
    <glyph glyph-name="zero_osf" horiz-adv-x="1021" 
d="M62 550q0 262 118.5 418t330.5 156q211 0 329.5 -156t118.5 -418t-118.5 -418.5t-329.5 -156.5q-212 0 -330.5 156.5t-118.5 418.5zM299 550q0 -175 56 -271t156 -96t156 96t56 271t-56 270.5t-156 95.5t-156 -95.5t-56 -270.5z" />
    <glyph glyph-name="one_osf" horiz-adv-x="870" 
d="M397 1100h208v-1100h-236v859l-222 -105l-89 184z" />
    <glyph glyph-name="two_osf" horiz-adv-x="951" 
d="M690 434l-257 -226h439v-208h-791v188l430 382q75 67 106 114.5t31 96.5q0 62 -50 98.5t-133 36.5q-152 0 -218 -148l-199 82q115 274 417 274q183 0 301.5 -93t118.5 -248q0 -98 -46.5 -179t-148.5 -170z" />
    <glyph glyph-name="three_osf" horiz-adv-x="1011" 
d="M703 208q0 98 -68.5 166.5t-172.5 68.5q-34 0 -65 -11l-94 118l280 339h-462v211h757v-203l-253 -299q146 -30 230.5 -143.5t84.5 -267.5q0 -78 -33 -153t-91.5 -135.5t-149 -97.5t-196.5 -37q-132 0 -242.5 61t-185.5 173l165 134q113 -161 255 -161q103 0 172 69.5
t69 167.5z" />
    <glyph glyph-name="four_osf" horiz-adv-x="1073" 
d="M53 36v200l579 864h231v-856h138v-208h-138v-247h-236v247h-574zM321 244h306v467z" />
    <glyph glyph-name="five_osf" horiz-adv-x="1020" 
d="M479 -236q-134 0 -244.5 59t-182.5 172l172 137q106 -160 248 -160q104 0 172.5 67t68.5 166t-68.5 165t-172.5 66q-57 0 -104.5 -23.5t-74.5 -61.5l-169 21l81 728h696v-208h-486l-34 -284q63 33 144 33q85 0 161.5 -29.5t135 -83.5t93 -136.5t34.5 -181.5
q0 -198 -127 -322t-343 -124z" />
    <glyph glyph-name="six_osf" horiz-adv-x="1083" 
d="M820 1313l-300 -460q28 4 51 4q86 0 166 -32t141 -88.5t97.5 -139.5t36.5 -178q0 -126 -66.5 -229.5t-173 -159t-226.5 -55.5q-124 0 -232 55.5t-175 158.5t-67 230q0 131 66 232l429 662h253zM776 419q0 99 -68.5 166.5t-165.5 67.5t-165.5 -67.5t-68.5 -166.5
q0 -100 68.5 -168t165.5 -68t165.5 68t68.5 168z" />
    <glyph glyph-name="seven_osf" horiz-adv-x="905" 
d="M44 1100h826v-190l-464 -1121h-264l461 1103h-559v208z" />
    <glyph glyph-name="eight_osf" horiz-adv-x="1064" 
d="M532 -25q-195 0 -327.5 120.5t-132.5 299.5q0 108 56.5 197t152.5 133q-61 40 -102 110t-41 145q0 149 111.5 253t282.5 104t283 -104t112 -253q0 -75 -41 -145t-102 -110q96 -44 152.5 -133t56.5 -197q0 -179 -133 -299.5t-328 -120.5zM532 615q-95 0 -159.5 -63.5
t-64.5 -152.5q0 -90 64.5 -153.5t159.5 -63.5t160 64t65 153t-65 152.5t-160 63.5zM532 815q69 0 117.5 48.5t48.5 111.5t-48.5 109t-117.5 46t-117 -45.5t-48 -109.5q0 -63 48.5 -111.5t116.5 -48.5z" />
    <glyph glyph-name="nine_osf" horiz-adv-x="1083" 
d="M265 -211l298 458q-28 -4 -51 -4q-116 0 -216 54t-162 155.5t-62 228.5q0 126 66.5 229t173 158.5t226.5 55.5q124 0 232 -55.5t175 -158t67 -229.5q0 -128 -67 -232l-427 -660h-253zM307 681q0 -99 69 -167t166 -68t165 68t68 167q0 100 -68 167.5t-165 67.5
q-98 0 -166.5 -67.5t-68.5 -167.5z" />
    <glyph glyph-name="cent_osf" horiz-adv-x="1163" 
d="M753 1380v-160q191 -16 357 -140l-118 -177q-142 92 -239 107v-823q124 19 247 117l122 -176q-160 -133 -369 -150v-162h-158v167q-236 33 -388.5 205.5t-152.5 410.5q0 237 152.5 409.5t388.5 206.5v165h158zM290 599q0 -148 85.5 -259t219.5 -144v806
q-134 -33 -219.5 -144t-85.5 -259z" />
    <glyph glyph-name="sterling_osf" horiz-adv-x="1049" 
d="M272 457h-151v184h104q-63 121 -63 229q0 149 115 251t284 102q133 0 233.5 -67.5t145.5 -169.5l-201 -99q-52 128 -178 128q-70 0 -116.5 -41t-46.5 -104q0 -58 56 -178q5 -12 19 -51h315v-184h-278v-20q0 -130 -92 -229h538v-208h-830v198q68 42 107.5 104.5
t39.5 134.5q0 13 -1 20z" />
    </font>
</defs>
</svg>
